<?xml version="1.0" encoding="utf-8"?>
<!-- Generator: Adobe Illustrator 23.0.2, SVG Export Plug-In . SVG Version: 6.00 Build 0)  -->
<svg version="1.1" id="Camada_1" xmlns="http://www.w3.org/2000/svg" xmlns:xlink="http://www.w3.org/1999/xlink" x="0px" y="0px"
	 viewBox="0 0 470.52 542.6" style="enable-background:new 0 0 470.52 542.6;" xml:space="preserve">
<style type="text/css">
	.st0{fill:#424242;}
	.st1{fill:#FFFFFF;}
	.st2{fill:#967443;}
</style>
<g>
	<g>
		<path class="st0" d="M-644.93-1607.86c-156.34,0-283.53-127.19-283.53-283.53s127.19-283.53,283.53-283.53
			c34.62,0,68.45,6.17,100.56,18.35l-6.28,16.56c-30.09-11.4-61.81-17.19-94.28-17.19c-146.57,0-265.81,119.24-265.81,265.81
			s119.24,265.81,265.81,265.81s265.81-119.24,265.81-265.81c0-32.48-5.79-64.21-17.21-94.3l16.57-6.28
			c12.19,32.1,18.37,65.95,18.37,100.59C-361.4-1735.05-488.59-1607.86-644.93-1607.86z"/>
	</g>
	<g>
		
			<rect x="-701.81" y="-2037.57" transform="matrix(0.7071 -0.7071 0.7071 0.7071 1285.8477 -953.121)" class="st0" width="388.44" height="17.72"/>
	</g>
	<g>
		<polygon class="st0" points="-361.4,-2104.03 -432.28,-2104.03 -432.28,-2174.91 -414.56,-2174.91 -414.56,-2121.75 
			-361.4,-2121.75 		"/>
	</g>
	<g>
		<polygon class="st0" points="-396.84,-2068.59 -467.72,-2068.59 -467.72,-2139.47 -450,-2139.47 -450,-2086.31 -396.84,-2086.31 
					"/>
	</g>
	<g>
		<path class="st0" d="M-644.93-1661.02c-127.02,0-230.37-103.34-230.37-230.37s103.34-230.37,230.37-230.37
			s230.37,103.34,230.37,230.37S-517.9-1661.02-644.93-1661.02z M-644.93-2104.03c-117.25,0-212.65,95.39-212.65,212.65
			c0,117.25,95.39,212.64,212.65,212.64s212.64-95.39,212.64-212.64C-432.28-2008.63-527.68-2104.03-644.93-2104.03z"/>
	</g>
	<g>
		<path class="st0" d="M-644.93-1714.18c-97.71,0-177.2-79.49-177.2-177.2c0-97.71,79.5-177.2,177.2-177.2s177.2,79.49,177.2,177.2
			C-467.72-1793.67-547.22-1714.18-644.93-1714.18z M-644.93-2050.87c-87.94,0-159.48,71.55-159.48,159.48
			s71.54,159.48,159.48,159.48s159.48-71.55,159.48-159.48S-556.99-2050.87-644.93-2050.87z"/>
	</g>
	<g>
		<path class="st0" d="M-644.93-1767.34c-68.4,0-124.04-55.64-124.04-124.04c0-68.4,55.64-124.04,124.04-124.04
			s124.04,55.64,124.04,124.04C-520.89-1822.98-576.53-1767.34-644.93-1767.34z M-644.93-1997.71
			c-58.63,0-106.32,47.69-106.32,106.32s47.7,106.32,106.32,106.32c58.63,0,106.32-47.69,106.32-106.32
			S-586.3-1997.71-644.93-1997.71z"/>
	</g>
	<g>
		<path class="st0" d="M-644.93-1820.5c-39.08,0-70.88-31.8-70.88-70.88c0-39.08,31.8-70.88,70.88-70.88
			c39.08,0,70.88,31.8,70.88,70.88C-574.05-1852.3-605.84-1820.5-644.93-1820.5z M-644.93-1944.54c-29.31,0-53.16,23.85-53.16,53.16
			c0,29.31,23.85,53.16,53.16,53.16s53.16-23.85,53.16-53.16C-591.77-1920.7-615.61-1944.54-644.93-1944.54z"/>
	</g>
	<g>
		<circle class="st0" cx="-644.93" cy="-1891.38" r="17.72"/>
	</g>
	<g>
		<path class="st0" d="M-884.15-1607.86h-35.44c-3.07,0-5.92-1.59-7.54-4.21c-1.61-2.61-1.76-5.88-0.39-8.62l53.16-106.32
			l15.85,7.93l-46.75,93.5h17.43l59.43-59.43l12.53,12.53l-62.02,62.02C-879.55-1608.79-881.8-1607.86-884.15-1607.86z"/>
	</g>
	<g>
		<path class="st0" d="M-370.26-1607.86h-35.44c-2.35,0-4.6-0.93-6.26-2.6l-62.02-62.02l12.53-12.53l59.43,59.43h17.43l-46.75-93.5
			l15.85-7.93l53.16,106.32c1.37,2.74,1.22,6.01-0.39,8.62C-364.34-1609.45-367.19-1607.86-370.26-1607.86z"/>
	</g>
</g>
<g>
	<g>
		<path class="st0" d="M849.92-1603.87H243.96l-50.68-44.38v-33.04h280.87l22.1,19.35h101.37l22.1-19.35H900.6v33.04L849.92-1603.87
			z M253.11-1623.23h587.65l37.73-33.04v-5.67H628.88l-22.1,19.35H487.1l-22.1-19.35H215.38v5.67L253.11-1623.23z"/>
	</g>
	<g>
		<path class="st0" d="M259.59-1700.64h-22.1v-290.31c0-21.35,19.83-38.71,44.21-38.71h132.62v19.35H281.69
			c-12.19,0-22.1,8.69-22.1,19.35V-1700.64z"/>
	</g>
	<g>
		<path class="st0" d="M856.39-1700.64h-22.1v-290.31c0-10.67-9.91-19.35-22.1-19.35H679.56v-19.35h132.62
			c24.38,0,44.21,17.36,44.21,38.71V-1700.64z"/>
	</g>
	<g>
		<polygon class="st0" points="370.11,-1720 281.69,-1720 281.69,-1990.95 436.42,-1990.95 436.42,-1971.6 303.8,-1971.6 
			303.8,-1739.35 370.11,-1739.35 		"/>
	</g>
	<g>
		<rect x="524.83" y="-1836.12" class="st0" width="77.36" height="19.35"/>
	</g>
	<g>
		<rect x="524.83" y="-1990.95" class="st0" width="77.36" height="19.35"/>
	</g>
	<g>
		<polygon class="st0" points="812.18,-1720 392.21,-1720 392.21,-1778.06 701.66,-1778.06 701.66,-1758.7 414.32,-1758.7 
			414.32,-1739.35 790.08,-1739.35 790.08,-1971.6 657.46,-1971.6 657.46,-1990.95 812.18,-1990.95 		"/>
	</g>
	<g>
		<polygon class="st0" points="458.52,-1768.38 436.42,-1768.38 436.42,-1791.74 480.63,-1830.45 480.63,-1977.27 436.42,-2015.97 
			436.42,-2049.01 491.68,-2049.01 491.68,-2078.04 513.78,-2078.04 513.78,-2029.66 458.52,-2029.66 458.52,-2023.99 
			502.73,-1985.28 502.73,-1822.44 458.52,-1783.73 		"/>
	</g>
	<g>
		<polygon class="st0" points="657.46,-1768.38 635.35,-1768.38 635.35,-1783.73 591.15,-1822.44 591.15,-1985.28 635.35,-2023.99 
			635.35,-2029.66 535.89,-2029.66 535.89,-2049.01 657.46,-2049.01 657.46,-2015.97 613.25,-1977.27 613.25,-1830.45 
			657.46,-1791.74 		"/>
	</g>
	<g>
		<rect x="580.09" y="-2078.04" class="st0" width="22.1" height="38.71"/>
	</g>
	<g>
		<polygon class="st0" points="635.35,-2107.07 569.04,-2107.07 569.04,-2145.78 524.83,-2145.78 524.83,-2107.07 458.52,-2107.07 
			458.52,-2126.43 502.73,-2126.43 502.73,-2165.14 591.15,-2165.14 591.15,-2126.43 635.35,-2126.43 		"/>
	</g>
	<g>
		<polygon class="st0" points="650.98,-2068.37 442.89,-2068.37 414.32,-2093.39 414.32,-2165.14 480.63,-2165.14 480.63,-2145.78 
			436.42,-2145.78 436.42,-2101.4 452.05,-2087.72 641.83,-2087.72 657.46,-2101.4 657.46,-2145.78 613.25,-2145.78 
			613.25,-2165.14 679.56,-2165.14 679.56,-2093.39 		"/>
	</g>
	<g>
		<rect x="535.89" y="-1923.21" class="st0" width="22.1" height="19.35"/>
	</g>
	<g>
		<rect x="535.89" y="-1961.92" class="st0" width="22.1" height="19.35"/>
	</g>
	<g>
		<rect x="535.89" y="-1884.5" class="st0" width="22.1" height="19.35"/>
	</g>
</g>
<g>
	<g>
		<g>
			<path class="st0" d="M1684.08-1877.89h-219.41c-4.85,0-8.78-3.93-8.78-8.78v-245.74c0-4.85,3.93-8.78,8.78-8.78h245.74
				c4.85,0,8.78,3.93,8.78,8.78v219.41h-17.55v-210.64h-228.19v228.19h210.63V-1877.89z"/>
		</g>
		<g>
			<path class="st0" d="M2008.81-1877.89H1789.4v-17.55h210.63v-228.19h-228.19v210.64h-17.55v-219.41c0-4.85,3.93-8.78,8.78-8.78
				h245.74c4.85,0,8.78,3.93,8.78,8.78v245.74C2017.58-1881.81,2013.66-1877.89,2008.81-1877.89z"/>
		</g>
		<g>
			<path class="st0" d="M1710.41-1579.49h-245.74c-4.85,0-8.78-3.93-8.78-8.78V-1834c0-4.85,3.93-8.78,8.78-8.78h219.41v17.55
				h-210.63v228.19h228.19v-210.63h17.55v219.41C1719.18-1583.41,1715.26-1579.49,1710.41-1579.49z"/>
		</g>
		<g>
			<path class="st0" d="M2008.81-1579.49h-245.74c-4.85,0-8.78-3.93-8.78-8.78v-219.41h17.55v210.63h228.19v-228.19H1789.4v-17.55
				h219.41c4.85,0,8.78,3.93,8.78,8.78v245.74C2017.58-1583.41,2013.66-1579.49,2008.81-1579.49z"/>
		</g>
		<g>
			<path class="st0" d="M1657.75-2018.31h-26.33v-17.55h17.55v-35.11H1526.1v35.11h17.55v17.55h-26.33c-4.85,0-8.78-3.93-8.78-8.78
				v-52.66c0-4.85,3.93-8.78,8.78-8.78h140.42c4.85,0,8.78,3.93,8.78,8.78v52.66C1666.53-2022.23,1662.6-2018.31,1657.75-2018.31z"
				/>
		</g>
		<g>
			<path class="st0" d="M1613.87-1939.32h-17.55v-105.32c0-4.85,3.93-8.78,8.78-8.78h26.33v17.55h-17.55V-1939.32z"/>
		</g>
		<g>
			<path class="st0" d="M1578.76-1939.32h-17.55v-96.54h-17.55v-17.55h26.33c4.85,0,8.78,3.93,8.78,8.78V-1939.32z"/>
		</g>
		<g>
			<rect x="1552.43" y="-1948.1" class="st0" width="70.21" height="17.55"/>
		</g>
		<g>
			<path class="st0" d="M1923.61-1880.46l-99.11-99.11l-55.23,55.23l-12.41-12.41l61.44-61.44c3.43-3.43,8.98-3.43,12.41,0
				l105.32,105.32L1923.61-1880.46z"/>
		</g>
		<g>
			<path class="st0" d="M1874.59-1941.89l-12.41-12.41l87.76-87.76c3.43-3.43,8.98-3.43,12.41,0l52.66,52.66L2002.6-1977
				l-46.45-46.45L1874.59-1941.89z"/>
		</g>
		<g>
			<path class="st0" d="M1868.38-2018.31c-19.36,0-35.11-15.74-35.11-35.11s15.74-35.11,35.11-35.11
				c19.36,0,35.11,15.74,35.11,35.11S1887.75-2018.31,1868.38-2018.31z M1868.38-2070.97c-9.68,0-17.55,7.88-17.55,17.55
				s7.88,17.55,17.55,17.55c9.68,0,17.55-7.88,17.55-17.55S1878.06-2070.97,1868.38-2070.97z"/>
		</g>
		<g>
			<rect x="1508.55" y="-1790.12" class="st0" width="157.98" height="17.55"/>
		</g>
		<g>
			<rect x="1508.55" y="-1755.02" class="st0" width="157.98" height="17.55"/>
		</g>
		<g>
			<rect x="1508.55" y="-1719.91" class="st0" width="157.98" height="17.55"/>
		</g>
		<g>
			<rect x="1508.55" y="-1684.8" class="st0" width="157.98" height="17.55"/>
		</g>
		<g>
			<rect x="1508.55" y="-1649.7" class="st0" width="87.76" height="17.55"/>
		</g>
		<g>
			
				<rect x="1871.08" y="-1785.73" transform="matrix(0.7071 -0.7071 0.7071 0.7071 1828.1555 859.6449)" class="st0" width="161.35" height="17.55"/>
		</g>
		<g>
			<path class="st0" d="M1815.73-1632.14c-2.28,0-4.53-0.89-6.2-2.57c-2.57-2.57-3.29-6.45-1.82-9.77l35.11-78.99
				c0.44-0.99,1.05-1.88,1.82-2.64l114.09-114.09l12.41,12.41l-112.94,112.95l-25.18,56.64l56.64-25.18l112.95-112.94l12.41,12.41
				l-114.09,114.09c-0.76,0.76-1.65,1.38-2.64,1.82l-78.99,35.11C1818.14-1632.39,1816.93-1632.14,1815.73-1632.14z"/>
		</g>
		<g>
			
				<rect x="1864" y="-1729" transform="matrix(0.7071 -0.7071 0.7071 0.7071 1749.1674 826.9269)" class="st0" width="17.55" height="62.06"/>
		</g>
		<g>
			<rect x="1815.73" y="-1649.7" class="st0" width="149.2" height="17.55"/>
		</g>
		<g>
			<path class="st0" d="M1763.07-1825.23h-52.66c-4.85,0-8.78-3.93-8.78-8.78v-52.66c0-4.85,3.93-8.78,8.78-8.78h52.66
				c4.85,0,8.78,3.93,8.78,8.78v52.66C1771.84-1829.15,1767.92-1825.23,1763.07-1825.23z M1719.18-1842.78h35.11v-35.11h-35.11
				V-1842.78z"/>
		</g>
	</g>
</g>
<g>
	<g>
		<g>
			<g>
				<path class="st0" d="M-1814.56-1820.28c-55.21,0-100.13-44.91-100.13-100.13c0-55.21,44.91-100.13,100.13-100.13
					c55.21,0,100.13,44.91,100.13,100.13C-1714.44-1865.2-1759.35-1820.28-1814.56-1820.28z M-1814.56-2000.51
					c-44.17,0-80.1,35.93-80.1,80.1c0,44.17,35.93,80.1,80.1,80.1c44.17,0,80.1-35.93,80.1-80.1
					C-1734.46-1964.57-1770.4-2000.51-1814.56-2000.51z"/>
			</g>
			<g>
				<g>
					<g>
						<rect x="-1914.69" y="-1750.2" class="st0" width="200.25" height="20.03"/>
					</g>
					<g>
						<rect x="-1914.69" y="-1710.15" class="st0" width="200.25" height="20.03"/>
					</g>
					<g>
						<polygon class="st0" points="-1789.18,-1620.03 -1839.95,-1620.03 -1859.97,-1650.07 -1914.69,-1650.07 -1914.69,-1670.1 
							-1849.26,-1670.1 -1829.23,-1640.06 -1799.9,-1640.06 -1779.87,-1670.1 -1714.44,-1670.1 -1714.44,-1650.07 
							-1769.16,-1650.07 						"/>
					</g>
					<g>
						<path class="st0" d="M-1734.46-1660.08h-20.03v-136.94l6.29-2.52c45.53-18.21,73.81-64.52,73.81-120.86
							c0-77.29-62.88-140.18-140.18-140.18c-77.29,0-140.18,62.88-140.18,140.18c0,56.34,28.28,102.66,73.81,120.86l6.29,2.52
							v136.94h-20.03v-123.58c-49.59-22.89-80.1-74.63-80.1-136.75c0-88.33,71.87-160.2,160.2-160.2
							c88.33,0,160.2,71.87,160.2,160.2c0,62.12-30.51,113.85-80.1,136.75V-1660.08z"/>
					</g>
				</g>
				<g>
					<polygon class="st0" points="-1797.28,-1863.46 -1837.33,-1943.56 -1870.49,-1910.4 -1934.71,-1910.4 -1934.71,-1930.42 
						-1878.79,-1930.42 -1831.85,-1977.36 -1791.8,-1897.26 -1758.64,-1930.42 -1694.41,-1930.42 -1694.41,-1910.4 
						-1750.34,-1910.4 					"/>
				</g>
			</g>
		</g>
		<g>
			<g>
				<path class="st0" d="M-2095.49-1966.92l-18.72-7.11c46.94-123.64,167.36-206.71,299.65-206.71h24.17l-67.15,67.15l-14.16-14.16
					l31.89-31.89C-1953.69-2149.88-2054.49-2074.91-2095.49-1966.92z"/>
			</g>
			<g>
				<path class="st0" d="M-1494.16-1836.16l-67.15-67.15l14.16-14.16l31.89,31.89c-9.74-113.89-84.73-214.68-192.74-255.68
					l7.11-18.72c123.65,46.93,206.74,167.35,206.74,299.65V-1836.16z"/>
			</g>
			<g>
				<path class="st0" d="M-1814.56-1539.93h-24.17l67.16-67.15l14.16,14.16l-31.89,31.89c113.87-9.74,214.67-84.72,255.67-192.71
					l18.72,7.11C-1561.86-1623-1682.27-1539.93-1814.56-1539.93z"/>
			</g>
			<g>
				<path class="st0" d="M-1928.29-1560.7c-123.62-46.95-206.68-167.36-206.68-299.63v-24.17l67.15,67.16l-14.16,14.16l-31.89-31.89
					c9.74,113.86,84.71,214.66,192.68,255.66L-1928.29-1560.7z"/>
			</g>
		</g>
	</g>
</g>
<g>
	<g>
		<g>
			<path class="st0" d="M-2730.35-1642.98c-1.02,0-2.05-0.15-3.04-0.45l-538.2-165.6c-5.46-1.69-8.53-7.48-6.85-12.94
				c1.67-5.47,7.49-8.54,12.93-6.85l524.81,161.49v-365.28l-524.81,161.49c-5.44,1.67-11.26-1.4-12.93-6.85
				c-1.68-5.46,1.38-11.25,6.85-12.94l538.2-165.6c3.12-0.95,6.54-0.38,9.19,1.57c2.64,1.95,4.2,5.04,4.2,8.33v393.3
				c0,3.29-1.56,6.38-4.2,8.33C-2726-1643.68-2728.16-1642.98-2730.35-1642.98z"/>
		</g>
		<g>
			<path class="st0" d="M-3289.25-1787.88c-17.12,0-31.05-13.93-31.05-31.05v-62.1c0-17.12,13.93-31.05,31.05-31.05
				s31.05,13.93,31.05,31.05v62.1C-3258.2-1801.81-3272.12-1787.88-3289.25-1787.88z M-3289.25-1891.38
				c-5.71,0-10.35,4.64-10.35,10.35v62.1c0,5.71,4.64,10.35,10.35,10.35c5.71,0,10.35-4.64,10.35-10.35v-62.1
				C-3278.9-1886.74-3283.54-1891.38-3289.25-1891.38z"/>
		</g>
		<g>
			<path class="st0" d="M-2699.3-1611.93c-22.83,0-41.4-18.57-41.4-41.4v-393.3c0-22.83,18.57-41.4,41.4-41.4s41.4,18.57,41.4,41.4
				v393.3C-2657.9-1630.5-2676.47-1611.93-2699.3-1611.93z M-2699.3-2067.33c-11.42,0-20.7,9.29-20.7,20.7v393.3
				c0,11.41,9.28,20.7,20.7,20.7c11.42,0,20.7-9.29,20.7-20.7v-393.3C-2678.6-2058.04-2687.88-2067.33-2699.3-2067.33z"/>
		</g>
		<g>
			<rect x="-2885.6" y="-1860.33" class="st0" width="20.7" height="20.7"/>
		</g>
		<g>
			<rect x="-2844.2" y="-1860.33" class="st0" width="20.7" height="20.7"/>
		</g>
		<g>
			<rect x="-2802.8" y="-1860.33" class="st0" width="20.7" height="20.7"/>
		</g>
		<g>
			<path class="st0" d="M-3040.85-1674.03c-1.25,0-2.51-0.22-3.71-0.69l-134.55-51.75c-4-1.54-6.64-5.38-6.64-9.66v-51.75h20.7
				v44.64l113.85,43.78v-47.03h20.7v62.1c0,3.41-1.68,6.6-4.49,8.53C-3036.74-1674.65-3038.79-1674.03-3040.85-1674.03z"/>
		</g>
		<g>
			<path class="st0" d="M-2999.45-1611.93c-1.24,0-2.49-0.22-3.68-0.68l-217.35-82.8c-4.01-1.53-6.67-5.38-6.67-9.67v-93.15h20.7
				v86.01l196.65,74.92v-98.83h20.7v113.85c0,3.41-1.67,6.59-4.48,8.52C-2995.32-1612.55-2997.38-1611.93-2999.45-1611.93z"/>
		</g>
		<g>
			<rect x="-2947.7" y="-1984.53" class="st0" width="20.7" height="269.1"/>
		</g>
	</g>
</g>
<g>
	<path class="st1" d="M-3442.18,882.62h40.54v11.88h-26.71v7.63h24.19v11.02h-24.19v7.99h27.07v11.88h-40.9V882.62z"/>
	<path class="st1" d="M-3398.19,882.62h15.63l11.45,31.9l11.45-31.9h15.34l-20.45,50.76h-12.96L-3398.19,882.62z"/>
	<path class="st1" d="M-3339.44,882.62h40.54v11.88h-26.71v7.63h24.19v11.02h-24.19v7.99h27.07v11.88h-40.9V882.62z"/>
	<path class="st1" d="M-3291.41,882.62h13.03l20.74,26.64v-26.64h13.83v50.4h-12.24l-21.53-27.65v27.65h-13.83V882.62z"/>
	<path class="st1" d="M-3222.58,894.87h-15.12v-12.24h44.21v12.24h-15.12v38.16h-13.97V894.87z"/>
	<path class="st1" d="M-3191.26,907.97v-0.14c0-14.47,11.67-26.21,27.22-26.21c15.55,0,27.07,11.59,27.07,26.07v0.14
		c0,14.47-11.67,26.21-27.22,26.21C-3179.74,934.04-3191.26,922.44-3191.26,907.97z M-3151.23,907.97v-0.14
		c0-7.27-5.26-13.61-12.96-13.61c-7.63,0-12.75,6.19-12.75,13.46v0.14c0,7.27,5.26,13.61,12.89,13.61
		C-3156.34,921.44-3151.23,915.24-3151.23,907.97z"/>
	<path class="st1" d="M-3133.88,925.54l7.78-9.29c4.97,3.96,10.51,6.05,16.34,6.05c3.75,0,5.76-1.3,5.76-3.46v-0.14
		c0-2.09-1.66-3.24-8.5-4.82c-10.73-2.45-19.01-5.47-19.01-15.84v-0.14c0-9.36,7.42-16.13,19.51-16.13c8.57,0,15.26,2.3,20.74,6.7
		l-6.98,9.87c-4.61-3.24-9.65-4.97-14.11-4.97c-3.38,0-5.04,1.44-5.04,3.24v0.14c0,2.3,1.73,3.31,8.71,4.9
		c11.59,2.52,18.79,6.26,18.79,15.7v0.14c0,10.3-8.14,16.42-20.38,16.42C-3119.19,933.89-3127.69,931.08-3133.88,925.54z"/>
	<path class="st1" d="M-3063.18,882.62h40.54v11.88h-26.71v7.63h24.19v11.02h-24.19v7.99h27.07v11.88h-40.9V882.62z"/>
	<path class="st1" d="M-2995.21,882.62h21.6c12.75,0,20.95,6.55,20.95,17.71v0.14c0,11.88-9.15,18.15-21.67,18.15h-6.91v14.4h-13.97
		V882.62z M-2974.62,907.68c4.97,0,7.99-2.59,7.99-6.55v-0.14c0-4.32-3.02-6.62-8.06-6.62h-6.55v13.32H-2974.62z"/>
	<path class="st1" d="M-2946.75,882.62h23.83c7.7,0,13.03,2.02,16.42,5.47c2.95,2.88,4.46,6.77,4.46,11.74v0.14
		c0,7.7-4.1,12.82-10.37,15.48l12.02,17.57h-16.13l-10.15-15.27h-0.14h-5.98v15.27h-13.97V882.62z M-2923.57,906.82
		c4.75,0,7.49-2.3,7.49-5.98v-0.14c0-3.96-2.88-5.98-7.56-5.98h-9.14v12.1H-2923.57z"/>
	<path class="st1" d="M-2896.72,907.97v-0.14c0-14.47,11.67-26.21,27.22-26.21c15.55,0,27.07,11.59,27.07,26.07v0.14
		c0,14.47-11.67,26.21-27.22,26.21S-2896.72,922.44-2896.72,907.97z M-2856.68,907.97v-0.14c0-7.27-5.26-13.61-12.96-13.61
		c-7.63,0-12.75,6.19-12.75,13.46v0.14c0,7.27,5.26,13.61,12.89,13.61C-2861.79,921.44-2856.68,915.24-2856.68,907.97z"/>
	<path class="st1" d="M-2835.15,882.62h14.76l12.03,19.51l12.02-19.51h14.76v50.4h-13.9v-28.95l-12.89,19.73h-0.29l-12.82-19.59
		v28.8h-13.68V882.62z"/>
	<path class="st1" d="M-2774.39,907.97v-0.14c0-14.47,11.67-26.21,27.22-26.21c15.55,0,27.07,11.59,27.07,26.07v0.14
		c0,14.47-11.67,26.21-27.22,26.21S-2774.39,922.44-2774.39,907.97z M-2734.35,907.97v-0.14c0-7.27-5.26-13.61-12.96-13.61
		c-7.63,0-12.75,6.19-12.75,13.46v0.14c0,7.27,5.26,13.61,12.89,13.61C-2739.46,921.44-2734.35,915.24-2734.35,907.97z"/>
	<path class="st1" d="M-2700.73,940.88l5.62-7.63c-11.23-2.81-19.44-12.6-19.44-25.27v-0.14c0-14.69,11.3-26.21,26.57-26.21
		c10.3,0,16.92,4.32,21.39,10.51l-10.51,8.14c-2.88-3.6-6.19-5.9-11.02-5.9c-7.06,0-12.02,5.98-12.02,13.32v0.14
		c0,7.56,4.97,13.46,12.02,13.46c5.26,0,8.35-2.45,11.38-6.12l10.51,7.49c-4.32,5.98-10.08,10.44-19.59,11.23l-4.03,11.59
		L-2700.73,940.88z"/>
	<path class="st1" d="M-2662,907.97v-0.14c0-14.47,11.67-26.21,27.22-26.21c15.55,0,27.08,11.59,27.08,26.07v0.14
		c0,14.47-11.67,26.21-27.22,26.21S-2662,922.44-2662,907.97z M-2649.97,877.94c1.51-7.13,3.96-10.73,8.93-10.73
		c4.32,0,8.93,2.81,11.23,2.81c2.02,0,2.74-1.08,3.67-3.31l6.55,1.8c-1.51,7.13-3.96,10.73-8.93,10.73c-4.32,0-8.93-2.81-11.23-2.81
		c-2.02,0-2.74,1.08-3.67,3.31L-2649.97,877.94z M-2621.96,907.97v-0.14c0-7.27-5.26-13.61-12.96-13.61
		c-7.63,0-12.75,6.19-12.75,13.46v0.14c0,7.27,5.26,13.61,12.89,13.61C-2627.07,921.44-2621.96,915.24-2621.96,907.97z"/>
	<path class="st1" d="M-2600.44,882.62h40.54v11.88h-26.71v7.63h24.19v11.02h-24.19v7.99h27.07v11.88h-40.9V882.62z"/>
	<path class="st1" d="M-2556.23,925.54l7.78-9.29c4.97,3.96,10.51,6.05,16.35,6.05c3.74,0,5.76-1.3,5.76-3.46v-0.14
		c0-2.09-1.66-3.24-8.5-4.82c-10.73-2.45-19.01-5.47-19.01-15.84v-0.14c0-9.36,7.42-16.13,19.51-16.13c8.57,0,15.27,2.3,20.74,6.7
		l-6.98,9.87c-4.61-3.24-9.65-4.97-14.11-4.97c-3.38,0-5.04,1.44-5.04,3.24v0.14c0,2.3,1.73,3.31,8.71,4.9
		c11.59,2.52,18.79,6.26,18.79,15.7v0.14c0,10.3-8.14,16.42-20.38,16.42C-2541.54,933.89-2550.04,931.08-2556.23,925.54z"/>
</g>
<g>
	<path class="st1" d="M-2147.65,882.62h19.44c18,0,28.44,10.37,28.44,24.91v0.14c0,14.55-10.58,25.35-28.73,25.35h-19.15V882.62z
		 M-2127.99,920.64c8.35,0,13.9-4.61,13.9-12.75v-0.14c0-8.06-5.54-12.75-13.9-12.75h-5.69v25.63H-2127.99z"/>
	<path class="st1" d="M-2092.57,882.62h40.54v11.88h-26.71v7.63h24.19v11.02h-24.19v7.99h27.07v11.88h-40.9V882.62z"/>
	<path class="st1" d="M-2048.36,925.54l7.78-9.29c4.97,3.96,10.51,6.05,16.34,6.05c3.75,0,5.76-1.3,5.76-3.46v-0.14
		c0-2.09-1.66-3.24-8.5-4.82c-10.73-2.45-19.01-5.47-19.01-15.84v-0.14c0-9.36,7.42-16.13,19.51-16.13c8.57,0,15.26,2.3,20.74,6.7
		l-6.98,9.87c-4.61-3.24-9.65-4.97-14.11-4.97c-3.38,0-5.04,1.44-5.04,3.24v0.14c0,2.3,1.73,3.31,8.71,4.9
		c11.59,2.52,18.79,6.26,18.79,15.7v0.14c0,10.3-8.14,16.42-20.38,16.42C-2033.67,933.89-2042.17,931.08-2048.36,925.54z"/>
	<path class="st1" d="M-1997.6,882.62h40.54v11.88h-26.71v7.63h24.19v11.02h-24.19v7.99h27.07v11.88h-40.9V882.62z"/>
	<path class="st1" d="M-1949.58,882.62h13.03l20.74,26.64v-26.64h13.83v50.4h-12.24l-21.53-27.65v27.65h-13.83V882.62z"/>
	<path class="st1" d="M-1897.09,882.62h15.63l11.45,31.9l11.45-31.9h15.34l-20.45,50.76h-12.96L-1897.09,882.62z"/>
	<path class="st1" d="M-1843.31,907.97v-0.14c0-14.47,11.67-26.21,27.22-26.21c15.55,0,27.07,11.59,27.07,26.07v0.14
		c0,14.47-11.67,26.21-27.22,26.21S-1843.31,922.44-1843.31,907.97z M-1803.27,907.97v-0.14c0-7.27-5.26-13.61-12.96-13.61
		c-7.63,0-12.75,6.19-12.75,13.46v0.14c0,7.27,5.26,13.61,12.89,13.61C-1808.38,921.44-1803.27,915.24-1803.27,907.97z"/>
	<path class="st1" d="M-1781.75,882.62h13.97v38.16h24.41v12.24h-38.38V882.62z"/>
	<path class="st1" d="M-1737.11,882.62h14.04v50.4h-14.04V882.62z"/>
	<path class="st1" d="M-1713.85,882.62h14.76l12.03,19.51l12.02-19.51h14.76v50.4h-13.9v-28.95l-12.89,19.73h-0.29l-12.82-19.59
		v28.8h-13.68V882.62z"/>
	<path class="st1" d="M-1651.35,882.62h40.54v11.88h-26.71v7.63h24.19v11.02h-24.19v7.99h27.07v11.88h-40.9V882.62z"/>
	<path class="st1" d="M-1603.33,882.62h13.03l20.74,26.64v-26.64h13.83v50.4h-12.24l-21.53-27.65v27.65h-13.83V882.62z"/>
	<path class="st1" d="M-1534.5,894.87h-15.12v-12.24h44.21v12.24h-15.12v38.16h-13.97V894.87z"/>
	<path class="st1" d="M-1503.18,907.97v-0.14c0-14.47,11.67-26.21,27.22-26.21c15.55,0,27.07,11.59,27.07,26.07v0.14
		c0,14.47-11.67,26.21-27.22,26.21S-1503.18,922.44-1503.18,907.97z M-1463.14,907.97v-0.14c0-7.27-5.26-13.61-12.96-13.61
		c-7.63,0-12.75,6.19-12.75,13.46v0.14c0,7.27,5.26,13.61,12.89,13.61C-1468.26,921.44-1463.14,915.24-1463.14,907.97z"/>
</g>
<g>
	<path class="st1" d="M-939.06,882.62h13.97v38.16h24.41v12.24h-38.38V882.62z"/>
	<path class="st1" d="M-894.42,882.62h14.04v50.4h-14.04V882.62z"/>
	<path class="st1" d="M-875.2,882.62h15.63l11.45,31.9l11.45-31.9h15.34l-20.45,50.76h-12.96L-875.2,882.62z"/>
	<path class="st1" d="M-816.45,882.62h40.54v11.88h-26.71v7.63h24.19v11.02h-24.19v7.99h27.07v11.88h-40.9V882.62z"/>
	<path class="st1" d="M-748.48,882.62h14.76l12.03,19.51l12.03-19.51h14.76v50.4h-13.9v-28.95l-12.89,19.73h-0.29l-12.82-19.59v28.8
		h-13.68V882.62z"/>
	<path class="st1" d="M-668.56,882.26h13.47l21.46,50.76h-14.98l-3.67-9h-19.44l-3.6,9h-14.69L-668.56,882.26z M-656.32,913.16
		l-5.62-14.33l-5.69,14.33H-656.32z"/>
	<path class="st1" d="M-628.74,882.62h23.83c7.7,0,13.03,2.02,16.42,5.47c2.95,2.88,4.46,6.77,4.46,11.74v0.14
		c0,7.7-4.1,12.82-10.37,15.48l12.03,17.57h-16.13l-10.15-15.27h-0.14h-5.98v15.27h-13.97V882.62z M-605.56,906.82
		c4.75,0,7.49-2.3,7.49-5.98v-0.14c0-3.96-2.88-5.98-7.56-5.98h-9.14v12.1H-605.56z"/>
	<path class="st1" d="M-576.98,882.62h13.97v20.45l17.35-20.45h16.56l-19.08,21.67l19.73,28.73h-16.78l-12.67-18.72l-5.11,5.69
		v13.03h-13.97V882.62z"/>
	<path class="st1" d="M-524.42,882.62h40.54v11.88h-26.71v7.63h24.19v11.02h-24.19v7.99h27.07v11.88h-40.9V882.62z"/>
	<path class="st1" d="M-464.08,894.87h-15.12v-12.24h44.21v12.24h-15.12v38.16h-13.97V894.87z"/>
	<path class="st1" d="M-428.59,882.62h14.04v50.4h-14.04V882.62z"/>
	<path class="st1" d="M-405.33,882.62h13.03l20.74,26.64v-26.64h13.83v50.4h-12.24l-21.53-27.65v27.65h-13.82V882.62z"/>
	<path class="st1" d="M-350.54,907.97v-0.14c0-14.69,11.52-26.21,27.15-26.21c8.86,0,15.12,2.74,20.45,7.34l-8.21,9.86
		c-3.6-3.02-7.2-4.75-12.17-4.75c-7.27,0-12.89,6.12-12.89,13.83v0.14c0,8.14,5.69,13.97,13.68,13.97c3.38,0,5.98-0.72,8.06-2.09
		v-6.12h-9.94v-10.22h23.19v22.68c-5.33,4.39-12.75,7.78-21.89,7.78C-338.8,934.04-350.54,923.24-350.54,907.97z"/>
</g>
<g>
	<path class="st1" d="M422.87,882.62h19.44c18,0,28.44,10.37,28.44,24.91v0.14c0,14.55-10.58,25.35-28.73,25.35h-19.15V882.62z
		 M442.53,920.64c8.35,0,13.9-4.61,13.9-12.75v-0.14c0-8.06-5.54-12.75-13.9-12.75h-5.69v25.63H442.53z"/>
	<path class="st1" d="M478.24,882.62h14.04v50.4h-14.04V882.62z"/>
	<path class="st1" d="M499.76,907.97v-0.14c0-14.69,11.52-26.21,27.15-26.21c8.86,0,15.12,2.74,20.45,7.34l-8.21,9.86
		c-3.6-3.02-7.2-4.75-12.17-4.75c-7.27,0-12.89,6.12-12.89,13.83v0.14c0,8.14,5.69,13.97,13.68,13.97c3.38,0,5.98-0.72,8.06-2.09
		v-6.12h-9.94v-10.22h23.19v22.68c-5.33,4.39-12.75,7.78-21.89,7.78C511.5,934.04,499.76,923.24,499.76,907.97z"/>
	<path class="st1" d="M557.15,882.62h14.04v50.4h-14.04V882.62z"/>
	<path class="st1" d="M592.72,894.87h-15.12v-12.24h44.21v12.24h-15.12v38.16h-13.97V894.87z"/>
	<path class="st1" d="M638.87,882.26h13.47l21.46,50.76h-14.98l-3.67-9H635.7l-3.6,9h-14.69L638.87,882.26z M651.11,913.16
		l-5.62-14.33l-5.69,14.33H651.11z"/>
	<path class="st1" d="M678.68,882.62h13.97v38.16h24.41v12.24h-38.38V882.62z"/>
</g>
<g>
	<path class="st1" d="M1540.81,870.88h25.85c6.34,0,10.8,1.58,13.75,4.54c2.02,2.02,3.24,4.68,3.24,8.14v0.14
		c0,5.83-3.31,9.29-7.78,11.23c6.12,2.02,10.01,5.47,10.01,12.31v0.14c0,8.64-7.06,13.9-19.08,13.9h-25.99V870.88z M1563.2,890.97
		c4.25,0,6.62-1.44,6.62-4.39v-0.14c0-2.74-2.16-4.32-6.34-4.32h-9.07v8.86H1563.2z M1565.22,910.05c4.25,0,6.7-1.66,6.7-4.61v-0.14
		c0-2.74-2.16-4.54-6.84-4.54h-10.66v9.29H1565.22z"/>
	<path class="st1" d="M1592.29,870.88h23.83c7.71,0,13.03,2.02,16.42,5.47c2.95,2.88,4.46,6.77,4.46,11.74v0.14
		c0,7.7-4.1,12.82-10.37,15.48l12.02,17.57h-16.13l-10.15-15.27h-0.14h-5.98v15.27h-13.97V870.88z M1615.48,895.08
		c4.75,0,7.49-2.3,7.49-5.98v-0.14c0-3.96-2.88-5.98-7.56-5.98h-9.15v12.1H1615.48z"/>
	<path class="st1" d="M1660.62,870.52h13.46l21.46,50.76h-14.98l-3.67-9h-19.44l-3.6,9h-14.69L1660.62,870.52z M1672.86,901.41
		l-5.62-14.33l-5.69,14.33H1672.86z"/>
	<path class="st1" d="M1700.43,870.88h13.03l20.74,26.64v-26.64h13.82v50.4h-12.24l-21.53-27.65v27.65h-13.83V870.88z"/>
	<path class="st1" d="M1756.95,870.88h19.44c18,0,28.44,10.37,28.44,24.91v0.14c0,14.55-10.59,25.35-28.73,25.35h-19.15V870.88z
		 M1776.61,908.9c8.35,0,13.9-4.61,13.9-12.75v-0.14c0-8.06-5.54-12.75-13.9-12.75h-5.69v25.63H1776.61z"/>
	<path class="st1" d="M1812.32,870.88h14.04v50.4h-14.04V870.88z"/>
	<path class="st1" d="M1835.58,870.88h13.03l20.74,26.64v-26.64h13.83v50.4h-12.24l-21.53-27.65v27.65h-13.82V870.88z"/>
	<path class="st1" d="M1890.37,896.23v-0.14c0-14.69,11.52-26.21,27.15-26.21c8.86,0,15.12,2.74,20.45,7.34l-8.21,9.86
		c-3.6-3.02-7.2-4.75-12.17-4.75c-7.27,0-12.89,6.12-12.89,13.83v0.14c0,8.14,5.69,13.97,13.68,13.97c3.38,0,5.98-0.72,8.06-2.09
		v-6.12h-9.94v-10.22h23.19v22.68c-5.33,4.39-12.75,7.78-21.89,7.78C1902.11,922.3,1890.37,911.5,1890.37,896.23z"/>
</g>
<g>
	<path class="st2" d="M-1893.12,241.59l-29.21,143.3l124.53,43.01l123.89-41.72l-29.53-146.35l44.29-48.78l-67.4-76.39l-71.25,31.45
		l-71.89-31.45l-69.65,76.39L-1893.12,241.59z M-1797.8,406.72l-48.62-16.37l48.62-33.22l47.18,33.22L-1797.8,406.72z
		 M-1866.18,140.01l68.35,26.96l65.44-26.96l46.16,50.07l-39.6,44.29l28.64,139.61l-30.11,5.78l-64.93-42.37v-39.16l45.03-25.83
		l-8.24-66.92h28.21v-20h-54.53l10.91,77h-56.49l14.12-77h-65.47l3.85,20h34.66l-13.48,68.36l43.33,25.76l1.93,40.08l-61.62,40.26
		l-26.96-5.87l26.96-140.62l-39.48-44.31L-1866.18,140.01z"/>
	<path class="st2" d="M-1507.23,197.38l-93-52.23V56.72l-117.9-67l-78.7,44.44l-78.63-44.44l-117.77,67v88.43l-92,52.23v133.19
		l92,52.91v90.39l123.48,63.78l72.88-41.73l73.01,41.73l123.63-63.78v-90.39l93-52.91V197.38z M-1718.03,11.86l98.81,56.06v66.35
		l-157.71-89.05L-1718.03,11.86z M-1619.23,156.39v215.93l-177,101.42l-177-101.42V156.39l177-100.11L-1619.23,156.39z
		 M-1973.23,67.92l98.14-56.06l59.24,33.36l-157.38,89.05V67.92z M-2066.23,319.41V208.62l73-41.35v194.02L-2066.23,319.41z
		 M-1869.85,515.74l-103.38-53.59v-67.64l157.58,90.32L-1869.85,515.74z M-1619.23,462.14l-104.04,53.59l-53.87-30.91l157.91-90.32
		V462.14z M-1527.23,319.41l-73,41.89V167.27l73,41.35V319.41z"/>
</g>
<path class="st2" d="M235.82,15.16l-225,129.08v258.29l225,129.08l225-129.08V144.24L235.82,15.16z M441.82,258.17L324.42,131.6
	l43.09-19.41l74.32,43.22V258.17z M355.17,442.41L245.82,503.9v-77.22l97.54-32.51L355.17,442.41z M129.57,392.7l96.25,34.07v77.14
	l-108.31-62.74L129.57,392.7z M240,408.82l-48.62-16.37L240,359.24l47.18,33.22L240,408.82z M313.23,242.59l-0.75,0.17l9.29,41.49
	l18.84,91.84l-31.99,5.78l-66.81-42.37v-39.16l46.91-28.04l-6.37-69.12h24.45v-19h-50.77l10.91,77h-56.49l14.12-77h-65.47l3.85,19
	h34.66l-13.48,70.56l43.33,26.86l1.93,40.63l-61.62,40.53l-26.96-5.73l26.96-140.55l-39.48-44.28l5.25-5.94l41.22-41.92l31.47,12.42
	l32.27,14.54l23.11-10.15l43.79-18.04l46.16,50.07l-39.6,44.29L313.23,242.59z M311.61,117.17l-0.36-0.41l-61.37,27.09l42.87-76.42
	l57.32,32.84L311.61,117.17z M168.11,116.76l-0.45,0.5l-37.44-16.87l57.27-32.81l39.16,74.8L168.11,116.76z M276.04,57.86
	l-37.19,66.3L204.21,58l36.03-20.64L276.04,57.86z M107.39,112.21l45.52,20.02l-55,60.92l-1.76,0.17l-66.34,65.52V155.4
	L107.39,112.21z M29.82,286.31l79.63-78.76l34.14,36.14l-8.79,45.81l-33.64,141.64l-71.34-39.78V286.31z M372.45,432.39
	l-18.06-85.62L333.8,241.93l32.38-37.82l75.64,82.09v105.17L372.45,432.39z"/>
<g>
	<path class="st2" d="M-143.54,233.15V114.52c15-4.12,23.02-16.59,23.02-31.29c0-18.05-14.73-32.74-32.78-32.74
		s-33.04,14.69-33.04,32.74c0,14.7,11.81,27.16,22.81,31.29v111.5l-35.28,41.35l14.78,60.32c-10.45,5.48-17.53,16.41-17.53,29
		c0,18.05,14.72,32.74,32.77,32.74s32.75-14.69,32.75-32.74c0-16.75-12.65-30.58-28.89-32.49l-12.47-51.76L-143.54,233.15z
		 M-153.35,69.75c7.43,0,13.48,6.05,13.48,13.48c0,7.43-6.05,13.48-13.48,13.48s-13.48-6.05-13.48-13.48
		C-166.83,75.8-160.78,69.75-153.35,69.75z M-155.28,356.68c0,7.43-6.05,13.48-13.48,13.48c-7.43,0-13.48-6.05-13.48-13.48
		c0-7.43,6.05-13.48,13.48-13.48C-161.32,343.2-155.28,349.24-155.28,356.68z"/>
	<path class="st2" d="M-587.18,397.94l38.53-172.78l-45.88-45.78V33.64c15-4.12,23.21-16.59,23.21-31.29
		c0-18.05-14.64-32.74-32.69-32.74c-18.05,0-32.68,14.69-32.68,32.74c0,14.7,11.16,27.16,23.16,31.29v153.71l43.91,43.94
		l-36.25,162.07c-17.15,1.01-30.81,15.24-30.81,32.64c0,18.05,14.68,32.74,32.73,32.74s32.73-14.69,32.73-32.74
		C-571.22,414.09-577.64,403.67-587.18,397.94z M-603.96-11.13c7.43,0,13.48,6.05,13.48,13.48s-6.05,13.48-13.48,13.48
		c-7.43,0-13.48-6.05-13.48-13.48S-611.39-11.13-603.96-11.13z M-603.96,439.48c-7.43,0-13.48-6.05-13.48-13.48
		c0-7.43,6.05-13.48,13.48-13.48c7.43,0,13.48,6.05,13.48,13.48C-590.48,433.43-596.53,439.48-603.96,439.48z"/>
	<path class="st2" d="M-282.54,457.82V341.27l-29.93-143.63l44.33-48.58l-0.1,0.05h0.7V-31.84c16-4.12,23.39-16.59,23.39-31.29
		c0-18.05-14.54-32.74-32.59-32.74c-18.05,0-32.82,14.69-32.82,32.74c0,14.7,12.02,27.16,23.02,31.29v160.15l-42-48.01V6.68
		c15-4.12,23.08-16.59,23.08-31.29c0-18.05-14.7-32.74-32.75-32.74s-33.09,14.69-33.09,32.74c0,14.7,11.76,27.16,22.76,31.29v71.25
		l-50,22.1V41.34c16-4.12,23.42-16.59,23.42-31.29c0-18.05-14.53-32.74-32.58-32.74c-18.05,0-32.84,14.69-32.84,32.74
		c0,14.7,12,27.16,23,31.29v58.03l-50-21.9V6.68c16-4.12,23.26-16.59,23.26-31.29c0-18.05-14.61-32.74-32.66-32.74
		s-32.72,14.69-32.72,32.74c0,14.7,11.12,27.16,23.12,31.29v74.42l-43,46.46V-31.84c16-4.12,23.45-16.59,23.45-31.29
		c0-18.05-14.52-32.74-32.57-32.74c-18.05,0-32.86,14.69-32.86,32.74c0,14.7,11.98,27.16,22.98,31.29v180.51l0.04,0.18l46.32,50.55
		l-29.15,143.3l2.44,113.62c-13.37,4.12-23.09,16.59-23.09,31.29c0,18.05,14.69,32.74,32.74,32.74c18.05,0,32.77-14.69,32.77-32.74
		c0-14.7-8.07-27.16-23.07-31.29V350.2l42,14.63v49.14c-11,4.12-22.96,16.59-22.96,31.29c0,18.05,14.76,32.74,32.81,32.74
		c18.05,0,32.5-14.69,32.5-32.74c0-14.7-7.35-27.16-23.35-31.29v-42.49l31,10.64v143.54c-11,4.12-22.92,16.59-22.92,31.29
		c0,18.05,14.78,32.74,32.83,32.74c18.05,0,32.47-14.69,32.47-32.74c0-14.7-7.37-27.16-23.37-31.29V382.74l31-10.38v41.6
		c-11,4.12-22.89,16.59-22.89,31.29c0,18.05,14.8,32.74,32.85,32.74s32.44-14.69,32.44-32.74c0-14.7-7.4-27.16-23.4-31.29v-48.09
		l47-15.57v105.11c-16,2.74-27.01,16.12-27.01,32.19c0,18.05,14.66,32.74,32.71,32.74s32.64-14.69,32.64-32.74
		C-263.19,474.38-270.54,462.97-282.54,457.82z M-276.59-76.6c7.43,0,13.48,6.05,13.48,13.48s-6.05,13.48-13.48,13.48
		c-7.43,0-13.48-6.05-13.48-13.48S-284.03-76.6-276.59-76.6z M-538.49-76.6c7.43,0,13.48,6.05,13.48,13.48s-6.05,13.48-13.48,13.48
		c-7.43,0-13.48-6.05-13.48-13.48S-545.92-76.6-538.49-76.6z M-519.23,501.1c-7.43,0-13.48-6.05-13.48-13.48
		c0-7.43,6.05-13.48,13.48-13.48c7.43,0,13.48,6.05,13.48,13.48C-505.75,495.05-511.8,501.1-519.23,501.1z M-457.61,458.74
		c-7.43,0-13.48-6.05-13.48-13.48c0-7.43,6.05-13.48,13.48-13.48c7.43,0,13.48,6.05,13.48,13.48
		C-444.13,452.69-450.18,458.74-457.61,458.74z M-357.47,458.74c-7.43,0-13.48-6.05-13.48-13.48c0-7.43,6.05-13.48,13.48-13.48
		c7.43,0,13.48,6.05,13.48,13.48C-343.99,452.69-350.04,458.74-357.47,458.74z M-338.22-38.09c7.43,0,13.48,6.05,13.48,13.48
		c0,7.43-6.05,13.48-13.48,13.48c-7.43,0-13.48-6.05-13.48-13.48C-351.7-32.04-345.65-38.09-338.22-38.09z M-407.54-3.43
		c7.43,0,13.48,6.05,13.48,13.48c0,7.43-6.05,13.48-13.48,13.48c-7.43,0-13.48-6.05-13.48-13.48
		C-421.02,2.62-414.97-3.43-407.54-3.43z M-476.87-38.09c7.43,0,13.48,6.05,13.48,13.48c0,7.43-6.05,13.48-13.48,13.48
		c-7.43,0-13.48-6.05-13.48-13.48C-490.35-32.04-484.3-38.09-476.87-38.09z M-407.54,570.43c-7.43,0-13.48-6.05-13.48-13.48
		c0-7.43,6.05-13.48,13.48-13.48c7.43,0,13.48,6.05,13.48,13.48C-394.06,564.38-400.11,570.43-407.54,570.43z M-406.75,364.54
		l-37.51-12.63l37.51-36.96l37.49,36.58L-406.75,364.54z M-349.44,345.12l-49.1-49.91v-39.16l43.72-27.43l-9.56-68.51h31.84v-19
		h-58.16l10.91,77h-56.49l14.12-77h-65.47l3.85,19h34.66l-13.48,69.95l43.33,26.55l1.93,40.48l-45.41,48.01l-43.18-13.32
		l26.96-140.57l-39.48-44.29l43.14-49.1l57.77,22.86v1.43h3.03l7.73,3.05l7.4-3.05h0.84v-0.98l56.89-23.31l46.31,50.07l-39.52,44.29
		l28.53,139.61L-349.44,345.12z M-295.85,501.1c-7.43,0-13.48-6.05-13.48-13.48c0-7.43,6.05-13.48,13.48-13.48
		c7.43,0,13.48,6.05,13.48,13.48C-282.37,495.05-288.42,501.1-295.85,501.1z"/>
	<path class="st2" d="M-621.29,356.68c0-11.19-5.65-21.08-14.24-26.98l14.84-62.34l-35.85-41.35v-111.5
		c16-4.12,23.4-16.59,23.4-31.29c0-18.05-14.54-32.74-32.59-32.74s-32.83,14.69-32.83,32.74c0,14.7,12.02,27.16,23.02,31.29v118.63
		l33.93,40.36l-12.35,52.61c-0.03,0-0.05,0-0.07,0c-18.05,0-32.74,13.6-32.74,31.65c0,18.05,14.69,32.19,32.74,32.19
		C-635.98,389.96-621.29,374.72-621.29,356.68z M-665.58,69.75c7.43,0,13.48,6.05,13.48,13.48c0,7.43-6.05,13.48-13.48,13.48
		c-7.43,0-13.48-6.05-13.48-13.48C-679.06,75.8-673.01,69.75-665.58,69.75z M-654.03,370.16c-7.43,0-13.48-6.05-13.48-13.48
		c0-7.43,6.05-13.48,13.48-13.48c7.43,0,13.48,6.05,13.48,13.48C-640.55,364.11-646.6,370.16-654.03,370.16z"/>
	<path class="st2" d="M-219.11,393.47l-34.9-162.09l44.47-43.98V33.64c16-4.12,23.28-16.59,23.28-31.29
		c0-18.05-14.6-32.74-32.65-32.74s-32.74,14.69-32.74,32.74c0,14.7,11.11,27.16,23.11,31.29v145.7l-46.39,45.74l36.88,172.03
		c-10.33,5.51-17.38,16.39-17.38,28.9c0,18.05,14.69,32.74,32.74,32.74s32.74-14.69,32.74-32.74
		C-189.94,409.16-202.73,395.25-219.11,393.47z M-218.82-11.13c7.43,0,13.48,6.05,13.48,13.48s-6.05,13.48-13.48,13.48
		S-232.3,9.78-232.3,2.35S-226.26-11.13-218.82-11.13z M-222.68,439.48c-7.43,0-13.48-6.05-13.48-13.48
		c0-7.43,6.05-13.48,13.48-13.48c7.43,0,13.48,6.05,13.48,13.48C-209.2,433.43-215.24,439.48-222.68,439.48z"/>
</g>
<g>
	<g>
		<path class="st2" d="M-970.1,168.43l-67.4-76.39l-71.25,31.45l-71.89-31.45l-69.65,76.39l46.22,50.55l-29.21,143.3l124.53,43.01
			l123.89-41.72l-29.53-146.35L-970.1,168.43z M-1108.75,384.11l-48.62-16.37l48.62-33.22l47.18,33.22L-1108.75,384.11z
			 M-1008.14,351.37l-30.69,5.78l-65.51-42.36v-39.16l45.61-28.72l-7.67-69.8h28.05v-19h-54.37l10.91,77h-56.49l14.12-77h-65.47
			l3.85,19h34.66l-13.48,71.25l43.33,27.2l1.93,40.8l-61.62,40.62l-26.96-5.69l26.96-140.53l-39.48-44.27l43.32-49.09l68.35,26.97
			l65.44-26.96l46.16,50.07l-39.6,44.29L-1008.14,351.37z"/>
	</g>
	<g>
		<path class="st2" d="M-1110.33,542.6l-142.65-112.15l-112.04-177.41l83.88-231.87l119.8-53.17l51.48,97.07l55.77-97.06
			l115.66,53.22l85.13,235.35l-109.59,175.23L-1110.33,542.6z M-1238.47,417.36l128.4,100.96l132.75-99.75l102.72-164.25
			l-79.2-218.95l-92.36-42.5l-64.38,112.04l-59.41-112.02l-95.88,42.55l-77.88,215.29L-1238.47,417.36z"/>
	</g>
</g>
<path class="st2" d="M-2297.78,68.76L-2297.78,68.76C-2297.78,68.75-2297.78,68.75-2297.78,68.76l-0.01-0.01
	c-0.08-0.08-0.16-0.16-0.24-0.24l-0.35-0.35c-0.01-0.01-0.02-0.01-0.02-0.02l-0.01-0.01l0,0c-55.57-54.87-148.81-54.7-204.05,0.54
	l-36.43,36.43l-33.21-33.2c-27.02-27.02-62.47-42.23-99.83-42.82c-37.83-0.68-73.28,13.84-100.09,40.65l-1.1,1.1
	c-56.43,56.42-57.82,150.37-3.05,205.14l232.8,232.8l138.8-138.8l0.66,0.65c3.88-3.88,7.41-7.88,10.68-11.99l90.37-90.37
	C-2245.72,211.12-2243.56,123.66-2297.78,68.76z M-2405.57,347.69l-41.1,41.1c9.78-26.06,11.39-49.81,10.39-67.47l0.78-0.26
	l-1.27-6.3c-1.4-14.25-4.26-23.29-4.64-24.41l-0.27,0.09l-19.07-94.53l26.78-29.5c22.58,29.41,49.44,73.57,49.99,117.85
	C-2383.7,307.69-2390.96,328.96-2405.57,347.69z M-2701.44,284.25c0.55-44.32,27.47-88.53,50.06-117.94l28.42,31.09l-19.87,97.47
	c-2.88,8.47-14,47.1,2.88,94.03l-29.93-29.93l0,0C-2691.17,337.68-2701.8,312.54-2701.44,284.25z M-2783.11,111.18
	c40.77-48.65,115.55-32.81,170.29-11.48c0,0-28.72,28.74-39.82,41.75c-16.26-12.99-52.66-37.19-91.42-30.38
	c-19.77,3.48-37.15,14.47-51.95,32.75C-2793.19,132.52-2788.88,121.53-2783.11,111.18z M-2485.51,110.54l39.47,42.82l-33.86,37.88
	l24.5,119.39l-25.72,4.94l-55.5-36.23v-33.48l38.48-22.29l-7.08-57.42h26.6v-16h-49.11l9.33,66h-48.31l12.08-66h-55.99l3.29,16
	h29.64l-11.53,58.65l37.05,22.12l1.65,34.32l-52.7,34.45l-23.06-5.01l23.05-120.25l-33.76-37.89l37.05-42l51.69,20.38
	c1.44,0.85,2.26,1.36,2.37,1.42l0.25-0.4l4.14,1.63l3.85-1.59l0.28,0.47c0.15-0.09,1.55-0.89,3.99-2.23L-2485.51,110.54z
	 M-2541.45,338.61l-41.58-14l41.58-28.41l40.12,28.25c-5.06,1.44-12.85,3.95-21.83,7.81L-2541.45,338.61z M-2584.44,383.91
	c-8.16,15.74-10.8,33.16-7.98,52c-37.62-42.31-41.99-84.41-39.74-110.52l38.56,13.32l-0.06,0.26c0.08,0.02,1.24,0.29,3.2,0.82
	l19.32,6.67c4.15,1.72,8.63,3.77,13.22,6.17C-2568.31,360.9-2577.84,371.19-2584.44,383.91z M-2523.95,350.84l71.21-23.98
	c0.54,26.82-5.9,67.25-39.94,106.82c2.29-17.99-0.47-34.65-8.31-49.77c-6.6-12.73-16.13-23.01-26.52-31.27
	C-2526.32,352.02-2525.13,351.41-2523.95,350.84z M-2469.69,101.13c58.62-22.13,140.37-39.85,182.04,10.36l0.26-0.22
	c6,12.1,9.82,25,11.44,38.19c-15.42-20.89-34.14-33.64-55.93-37.96c-42.16-8.35-83.12,17.4-100.53,30.39
	C-2443.69,128.62-2469.69,101.13-2469.69,101.13z M-2490.82,80.31c44.98-44.98,118.37-48.72,168.2-11.31
	c-61.46-19.95-142.62,10.09-188.25,31.36L-2490.82,80.31z M-2672.2,45.54c33.06,0.53,64.48,14.02,88.46,38l19.98,19.98
	c-40.2-20.65-117.87-53.4-179.59-36.36c20.24-14.07,44.12-21.64,69.16-21.64C-2673.53,45.53-2672.86,45.53-2672.2,45.54z
	 M-2799.9,180.75c15.59-31.32,35.3-49.33,58.64-53.46c31.98-5.65,63.88,15.62,78.19,26.95c-24.33,31.18-54.19,79.53-54.84,129.75
	c-0.14,10.55,1.05,20.7,3.5,30.45l-50.12-50.12C-2787.12,241.74-2798.86,211.59-2799.9,180.75z M-2568.78,460.07l0.32-0.13
	c-10.93-26.04-11.4-49.05-1.39-68.39c6.39-12.34,16.39-22.1,27.14-29.69c10.74,7.59,20.75,17.34,27.14,29.69
	c9.82,18.98,9.53,41.51-0.82,66.96l-26.98,26.98L-2568.78,460.07z M-2370.61,312.72c2.17-9.22,3.21-18.8,3.09-28.73
	c-0.64-49.96-30.2-98.08-54.46-129.27c15.7-11.56,51.75-34.02,86.91-27.06c23.88,4.73,43.68,22.62,58.87,53.11
	c-3.7,27.27-16.49,54.03-38.3,75.85L-2370.61,312.72z"/>
</svg>
