<?xml version="1.0" encoding="UTF-8" standalone="no"?>
<!-- Generator: Adobe Illustrator 23.0.2, SVG Export Plug-In . SVG Version: 6.00 Build 0)  -->

<svg
   xmlns:dc="http://purl.org/dc/elements/1.1/"
   xmlns:cc="http://creativecommons.org/ns#"
   xmlns:rdf="http://www.w3.org/1999/02/22-rdf-syntax-ns#"
   xmlns:svg="http://www.w3.org/2000/svg"
   xmlns="http://www.w3.org/2000/svg"
   xmlns:sodipodi="http://sodipodi.sourceforge.net/DTD/sodipodi-0.dtd"
   xmlns:inkscape="http://www.inkscape.org/namespaces/inkscape"
   version="1.1"
   id="Camada_1"
   x="0px"
   y="0px"
   viewBox="0 0 470.52 542.6"
   style="enable-background:new 0 0 470.52 542.6;"
   xml:space="preserve"
   sodipodi:docname="brandingR.svg"
   inkscape:version="0.92.4 (5da689c313, 2019-01-14)"><metadata
   id="metadata457"><rdf:RDF><cc:Work
       rdf:about=""><dc:format>image/svg+xml</dc:format><dc:type
         rdf:resource="http://purl.org/dc/dcmitype/StillImage" /><dc:title /></cc:Work></rdf:RDF></metadata><defs
   id="defs455" /><sodipodi:namedview
   pagecolor="#ffffff"
   bordercolor="#666666"
   borderopacity="1"
   objecttolerance="10"
   gridtolerance="10"
   guidetolerance="10"
   inkscape:pageopacity="0"
   inkscape:pageshadow="2"
   inkscape:window-width="2560"
   inkscape:window-height="1017"
   id="namedview453"
   showgrid="false"
   inkscape:zoom="0.15377553"
   inkscape:cx="5144.686"
   inkscape:cy="387.57674"
   inkscape:window-x="1358"
   inkscape:window-y="-8"
   inkscape:window-maximized="1"
   inkscape:current-layer="Camada_1" />
<style
   type="text/css"
   id="style2">
	.st0{fill:#424242;}
	.st1{fill:#FFFFFF;}
	.st2{fill:#967443;}
</style>





<g
   id="g326">
	<path
   class="st1"
   d="M-3442.18,882.62h40.54v11.88h-26.71v7.63h24.19v11.02h-24.19v7.99h27.07v11.88h-40.9V882.62z"
   id="path292" />
	<path
   class="st1"
   d="M-3398.19,882.62h15.63l11.45,31.9l11.45-31.9h15.34l-20.45,50.76h-12.96L-3398.19,882.62z"
   id="path294" />
	<path
   class="st1"
   d="M-3339.44,882.62h40.54v11.88h-26.71v7.63h24.19v11.02h-24.19v7.99h27.07v11.88h-40.9V882.62z"
   id="path296" />
	<path
   class="st1"
   d="M-3291.41,882.62h13.03l20.74,26.64v-26.64h13.83v50.4h-12.24l-21.53-27.65v27.65h-13.83V882.62z"
   id="path298" />
	<path
   class="st1"
   d="M-3222.58,894.87h-15.12v-12.24h44.21v12.24h-15.12v38.16h-13.97V894.87z"
   id="path300" />
	<path
   class="st1"
   d="M-3191.26,907.97v-0.14c0-14.47,11.67-26.21,27.22-26.21c15.55,0,27.07,11.59,27.07,26.07v0.14   c0,14.47-11.67,26.21-27.22,26.21C-3179.74,934.04-3191.26,922.44-3191.26,907.97z M-3151.23,907.97v-0.14   c0-7.27-5.26-13.61-12.96-13.61c-7.63,0-12.75,6.19-12.75,13.46v0.14c0,7.27,5.26,13.61,12.89,13.61   C-3156.34,921.44-3151.23,915.24-3151.23,907.97z"
   id="path302" />
	<path
   class="st1"
   d="M-3133.88,925.54l7.78-9.29c4.97,3.96,10.51,6.05,16.34,6.05c3.75,0,5.76-1.3,5.76-3.46v-0.14   c0-2.09-1.66-3.24-8.5-4.82c-10.73-2.45-19.01-5.47-19.01-15.84v-0.14c0-9.36,7.42-16.13,19.51-16.13c8.57,0,15.26,2.3,20.74,6.7   l-6.98,9.87c-4.61-3.24-9.65-4.97-14.11-4.97c-3.38,0-5.04,1.44-5.04,3.24v0.14c0,2.3,1.73,3.31,8.71,4.9   c11.59,2.52,18.79,6.26,18.79,15.7v0.14c0,10.3-8.14,16.42-20.38,16.42C-3119.19,933.89-3127.69,931.08-3133.88,925.54z"
   id="path304" />
	<path
   class="st1"
   d="M-3063.18,882.62h40.54v11.88h-26.71v7.63h24.19v11.02h-24.19v7.99h27.07v11.88h-40.9V882.62z"
   id="path306" />
	<path
   class="st1"
   d="M-2995.21,882.62h21.6c12.75,0,20.95,6.55,20.95,17.71v0.14c0,11.88-9.15,18.15-21.67,18.15h-6.91v14.4h-13.97   V882.62z M-2974.62,907.68c4.97,0,7.99-2.59,7.99-6.55v-0.14c0-4.32-3.02-6.62-8.06-6.62h-6.55v13.32H-2974.62z"
   id="path308" />
	<path
   class="st1"
   d="M-2946.75,882.62h23.83c7.7,0,13.03,2.02,16.42,5.47c2.95,2.88,4.46,6.77,4.46,11.74v0.14   c0,7.7-4.1,12.82-10.37,15.48l12.02,17.57h-16.13l-10.15-15.27h-0.14h-5.98v15.27h-13.97V882.62z M-2923.57,906.82   c4.75,0,7.49-2.3,7.49-5.98v-0.14c0-3.96-2.88-5.98-7.56-5.98h-9.14v12.1H-2923.57z"
   id="path310" />
	<path
   class="st1"
   d="M-2896.72,907.97v-0.14c0-14.47,11.67-26.21,27.22-26.21c15.55,0,27.07,11.59,27.07,26.07v0.14   c0,14.47-11.67,26.21-27.22,26.21S-2896.72,922.44-2896.72,907.97z M-2856.68,907.97v-0.14c0-7.27-5.26-13.61-12.96-13.61   c-7.63,0-12.75,6.19-12.75,13.46v0.14c0,7.27,5.26,13.61,12.89,13.61C-2861.79,921.44-2856.68,915.24-2856.68,907.97z"
   id="path312" />
	<path
   class="st1"
   d="M-2835.15,882.62h14.76l12.03,19.51l12.02-19.51h14.76v50.4h-13.9v-28.95l-12.89,19.73h-0.29l-12.82-19.59   v28.8h-13.68V882.62z"
   id="path314" />
	<path
   class="st1"
   d="M-2774.39,907.97v-0.14c0-14.47,11.67-26.21,27.22-26.21c15.55,0,27.07,11.59,27.07,26.07v0.14   c0,14.47-11.67,26.21-27.22,26.21S-2774.39,922.44-2774.39,907.97z M-2734.35,907.97v-0.14c0-7.27-5.26-13.61-12.96-13.61   c-7.63,0-12.75,6.19-12.75,13.46v0.14c0,7.27,5.26,13.61,12.89,13.61C-2739.46,921.44-2734.35,915.24-2734.35,907.97z"
   id="path316" />
	<path
   class="st1"
   d="M-2700.73,940.88l5.62-7.63c-11.23-2.81-19.44-12.6-19.44-25.27v-0.14c0-14.69,11.3-26.21,26.57-26.21   c10.3,0,16.92,4.32,21.39,10.51l-10.51,8.14c-2.88-3.6-6.19-5.9-11.02-5.9c-7.06,0-12.02,5.98-12.02,13.32v0.14   c0,7.56,4.97,13.46,12.02,13.46c5.26,0,8.35-2.45,11.38-6.12l10.51,7.49c-4.32,5.98-10.08,10.44-19.59,11.23l-4.03,11.59   L-2700.73,940.88z"
   id="path318" />
	<path
   class="st1"
   d="M-2662,907.97v-0.14c0-14.47,11.67-26.21,27.22-26.21c15.55,0,27.08,11.59,27.08,26.07v0.14   c0,14.47-11.67,26.21-27.22,26.21S-2662,922.44-2662,907.97z M-2649.97,877.94c1.51-7.13,3.96-10.73,8.93-10.73   c4.32,0,8.93,2.81,11.23,2.81c2.02,0,2.74-1.08,3.67-3.31l6.55,1.8c-1.51,7.13-3.96,10.73-8.93,10.73c-4.32,0-8.93-2.81-11.23-2.81   c-2.02,0-2.74,1.08-3.67,3.31L-2649.97,877.94z M-2621.96,907.97v-0.14c0-7.27-5.26-13.61-12.96-13.61   c-7.63,0-12.75,6.19-12.75,13.46v0.14c0,7.27,5.26,13.61,12.89,13.61C-2627.07,921.44-2621.96,915.24-2621.96,907.97z"
   id="path320" />
	<path
   class="st1"
   d="M-2600.44,882.62h40.54v11.88h-26.71v7.63h24.19v11.02h-24.19v7.99h27.07v11.88h-40.9V882.62z"
   id="path322" />
	<path
   class="st1"
   d="M-2556.23,925.54l7.78-9.29c4.97,3.96,10.51,6.05,16.35,6.05c3.74,0,5.76-1.3,5.76-3.46v-0.14   c0-2.09-1.66-3.24-8.5-4.82c-10.73-2.45-19.01-5.47-19.01-15.84v-0.14c0-9.36,7.42-16.13,19.51-16.13c8.57,0,15.27,2.3,20.74,6.7   l-6.98,9.87c-4.61-3.24-9.65-4.97-14.11-4.97c-3.38,0-5.04,1.44-5.04,3.24v0.14c0,2.3,1.73,3.31,8.71,4.9   c11.59,2.52,18.79,6.26,18.79,15.7v0.14c0,10.3-8.14,16.42-20.38,16.42C-2541.54,933.89-2550.04,931.08-2556.23,925.54z"
   id="path324" />
</g>
<g
   id="g356">
	<path
   class="st1"
   d="M-2147.65,882.62h19.44c18,0,28.44,10.37,28.44,24.91v0.14c0,14.55-10.58,25.35-28.73,25.35h-19.15V882.62z    M-2127.99,920.64c8.35,0,13.9-4.61,13.9-12.75v-0.14c0-8.06-5.54-12.75-13.9-12.75h-5.69v25.63H-2127.99z"
   id="path328" />
	<path
   class="st1"
   d="M-2092.57,882.62h40.54v11.88h-26.71v7.63h24.19v11.02h-24.19v7.99h27.07v11.88h-40.9V882.62z"
   id="path330" />
	<path
   class="st1"
   d="M-2048.36,925.54l7.78-9.29c4.97,3.96,10.51,6.05,16.34,6.05c3.75,0,5.76-1.3,5.76-3.46v-0.14   c0-2.09-1.66-3.24-8.5-4.82c-10.73-2.45-19.01-5.47-19.01-15.84v-0.14c0-9.36,7.42-16.13,19.51-16.13c8.57,0,15.26,2.3,20.74,6.7   l-6.98,9.87c-4.61-3.24-9.65-4.97-14.11-4.97c-3.38,0-5.04,1.44-5.04,3.24v0.14c0,2.3,1.73,3.31,8.71,4.9   c11.59,2.52,18.79,6.26,18.79,15.7v0.14c0,10.3-8.14,16.42-20.38,16.42C-2033.67,933.89-2042.17,931.08-2048.36,925.54z"
   id="path332" />
	<path
   class="st1"
   d="M-1997.6,882.62h40.54v11.88h-26.71v7.63h24.19v11.02h-24.19v7.99h27.07v11.88h-40.9V882.62z"
   id="path334" />
	<path
   class="st1"
   d="M-1949.58,882.62h13.03l20.74,26.64v-26.64h13.83v50.4h-12.24l-21.53-27.65v27.65h-13.83V882.62z"
   id="path336" />
	<path
   class="st1"
   d="M-1897.09,882.62h15.63l11.45,31.9l11.45-31.9h15.34l-20.45,50.76h-12.96L-1897.09,882.62z"
   id="path338" />
	<path
   class="st1"
   d="M-1843.31,907.97v-0.14c0-14.47,11.67-26.21,27.22-26.21c15.55,0,27.07,11.59,27.07,26.07v0.14   c0,14.47-11.67,26.21-27.22,26.21S-1843.31,922.44-1843.31,907.97z M-1803.27,907.97v-0.14c0-7.27-5.26-13.61-12.96-13.61   c-7.63,0-12.75,6.19-12.75,13.46v0.14c0,7.27,5.26,13.61,12.89,13.61C-1808.38,921.44-1803.27,915.24-1803.27,907.97z"
   id="path340" />
	<path
   class="st1"
   d="M-1781.75,882.62h13.97v38.16h24.41v12.24h-38.38V882.62z"
   id="path342" />
	<path
   class="st1"
   d="M-1737.11,882.62h14.04v50.4h-14.04V882.62z"
   id="path344" />
	<path
   class="st1"
   d="M-1713.85,882.62h14.76l12.03,19.51l12.02-19.51h14.76v50.4h-13.9v-28.95l-12.89,19.73h-0.29l-12.82-19.59   v28.8h-13.68V882.62z"
   id="path346" />
	<path
   class="st1"
   d="M-1651.35,882.62h40.54v11.88h-26.71v7.63h24.19v11.02h-24.19v7.99h27.07v11.88h-40.9V882.62z"
   id="path348" />
	<path
   class="st1"
   d="M-1603.33,882.62h13.03l20.74,26.64v-26.64h13.83v50.4h-12.24l-21.53-27.65v27.65h-13.83V882.62z"
   id="path350" />
	<path
   class="st1"
   d="M-1534.5,894.87h-15.12v-12.24h44.21v12.24h-15.12v38.16h-13.97V894.87z"
   id="path352" />
	<path
   class="st1"
   d="M-1503.18,907.97v-0.14c0-14.47,11.67-26.21,27.22-26.21c15.55,0,27.07,11.59,27.07,26.07v0.14   c0,14.47-11.67,26.21-27.22,26.21S-1503.18,922.44-1503.18,907.97z M-1463.14,907.97v-0.14c0-7.27-5.26-13.61-12.96-13.61   c-7.63,0-12.75,6.19-12.75,13.46v0.14c0,7.27,5.26,13.61,12.89,13.61C-1468.26,921.44-1463.14,915.24-1463.14,907.97z"
   id="path354" />
</g>
<g
   id="g384">
	<path
   class="st1"
   d="M-939.06,882.62h13.97v38.16h24.41v12.24h-38.38V882.62z"
   id="path358" />
	<path
   class="st1"
   d="M-894.42,882.62h14.04v50.4h-14.04V882.62z"
   id="path360" />
	<path
   class="st1"
   d="M-875.2,882.62h15.63l11.45,31.9l11.45-31.9h15.34l-20.45,50.76h-12.96L-875.2,882.62z"
   id="path362" />
	<path
   class="st1"
   d="M-816.45,882.62h40.54v11.88h-26.71v7.63h24.19v11.02h-24.19v7.99h27.07v11.88h-40.9V882.62z"
   id="path364" />
	<path
   class="st1"
   d="M-748.48,882.62h14.76l12.03,19.51l12.03-19.51h14.76v50.4h-13.9v-28.95l-12.89,19.73h-0.29l-12.82-19.59v28.8   h-13.68V882.62z"
   id="path366" />
	<path
   class="st1"
   d="M-668.56,882.26h13.47l21.46,50.76h-14.98l-3.67-9h-19.44l-3.6,9h-14.69L-668.56,882.26z M-656.32,913.16   l-5.62-14.33l-5.69,14.33H-656.32z"
   id="path368" />
	<path
   class="st1"
   d="M-628.74,882.62h23.83c7.7,0,13.03,2.02,16.42,5.47c2.95,2.88,4.46,6.77,4.46,11.74v0.14   c0,7.7-4.1,12.82-10.37,15.48l12.03,17.57h-16.13l-10.15-15.27h-0.14h-5.98v15.27h-13.97V882.62z M-605.56,906.82   c4.75,0,7.49-2.3,7.49-5.98v-0.14c0-3.96-2.88-5.98-7.56-5.98h-9.14v12.1H-605.56z"
   id="path370" />
	<path
   class="st1"
   d="M-576.98,882.62h13.97v20.45l17.35-20.45h16.56l-19.08,21.67l19.73,28.73h-16.78l-12.67-18.72l-5.11,5.69   v13.03h-13.97V882.62z"
   id="path372" />
	<path
   class="st1"
   d="M-524.42,882.62h40.54v11.88h-26.71v7.63h24.19v11.02h-24.19v7.99h27.07v11.88h-40.9V882.62z"
   id="path374" />
	<path
   class="st1"
   d="M-464.08,894.87h-15.12v-12.24h44.21v12.24h-15.12v38.16h-13.97V894.87z"
   id="path376" />
	<path
   class="st1"
   d="M-428.59,882.62h14.04v50.4h-14.04V882.62z"
   id="path378" />
	<path
   class="st1"
   d="M-405.33,882.62h13.03l20.74,26.64v-26.64h13.83v50.4h-12.24l-21.53-27.65v27.65h-13.82V882.62z"
   id="path380" />
	<path
   class="st1"
   d="M-350.54,907.97v-0.14c0-14.69,11.52-26.21,27.15-26.21c8.86,0,15.12,2.74,20.45,7.34l-8.21,9.86   c-3.6-3.02-7.2-4.75-12.17-4.75c-7.27,0-12.89,6.12-12.89,13.83v0.14c0,8.14,5.69,13.97,13.68,13.97c3.38,0,5.98-0.72,8.06-2.09   v-6.12h-9.94v-10.22h23.19v22.68c-5.33,4.39-12.75,7.78-21.89,7.78C-338.8,934.04-350.54,923.24-350.54,907.97z"
   id="path382" />
</g>
<g
   id="g400">
	<path
   class="st1"
   d="M422.87,882.62h19.44c18,0,28.44,10.37,28.44,24.91v0.14c0,14.55-10.58,25.35-28.73,25.35h-19.15V882.62z    M442.53,920.64c8.35,0,13.9-4.61,13.9-12.75v-0.14c0-8.06-5.54-12.75-13.9-12.75h-5.69v25.63H442.53z"
   id="path386" />
	<path
   class="st1"
   d="M478.24,882.62h14.04v50.4h-14.04V882.62z"
   id="path388" />
	<path
   class="st1"
   d="M499.76,907.97v-0.14c0-14.69,11.52-26.21,27.15-26.21c8.86,0,15.12,2.74,20.45,7.34l-8.21,9.86   c-3.6-3.02-7.2-4.75-12.17-4.75c-7.27,0-12.89,6.12-12.89,13.83v0.14c0,8.14,5.69,13.97,13.68,13.97c3.38,0,5.98-0.72,8.06-2.09   v-6.12h-9.94v-10.22h23.19v22.68c-5.33,4.39-12.75,7.78-21.89,7.78C511.5,934.04,499.76,923.24,499.76,907.97z"
   id="path390" />
	<path
   class="st1"
   d="M557.15,882.62h14.04v50.4h-14.04V882.62z"
   id="path392" />
	<path
   class="st1"
   d="M592.72,894.87h-15.12v-12.24h44.21v12.24h-15.12v38.16h-13.97V894.87z"
   id="path394" />
	<path
   class="st1"
   d="M638.87,882.26h13.47l21.46,50.76h-14.98l-3.67-9H635.7l-3.6,9h-14.69L638.87,882.26z M651.11,913.16   l-5.62-14.33l-5.69,14.33H651.11z"
   id="path396" />
	<path
   class="st1"
   d="M678.68,882.62h13.97v38.16h24.41v12.24h-38.38V882.62z"
   id="path398" />
</g>
<g
   id="g418">
	<path
   class="st1"
   d="M1540.81,870.88h25.85c6.34,0,10.8,1.58,13.75,4.54c2.02,2.02,3.24,4.68,3.24,8.14v0.14   c0,5.83-3.31,9.29-7.78,11.23c6.12,2.02,10.01,5.47,10.01,12.31v0.14c0,8.64-7.06,13.9-19.08,13.9h-25.99V870.88z M1563.2,890.97   c4.25,0,6.62-1.44,6.62-4.39v-0.14c0-2.74-2.16-4.32-6.34-4.32h-9.07v8.86H1563.2z M1565.22,910.05c4.25,0,6.7-1.66,6.7-4.61v-0.14   c0-2.74-2.16-4.54-6.84-4.54h-10.66v9.29H1565.22z"
   id="path402" />
	<path
   class="st1"
   d="M1592.29,870.88h23.83c7.71,0,13.03,2.02,16.42,5.47c2.95,2.88,4.46,6.77,4.46,11.74v0.14   c0,7.7-4.1,12.82-10.37,15.48l12.02,17.57h-16.13l-10.15-15.27h-0.14h-5.98v15.27h-13.97V870.88z M1615.48,895.08   c4.75,0,7.49-2.3,7.49-5.98v-0.14c0-3.96-2.88-5.98-7.56-5.98h-9.15v12.1H1615.48z"
   id="path404" />
	<path
   class="st1"
   d="M1660.62,870.52h13.46l21.46,50.76h-14.98l-3.67-9h-19.44l-3.6,9h-14.69L1660.62,870.52z M1672.86,901.41   l-5.62-14.33l-5.69,14.33H1672.86z"
   id="path406" />
	<path
   class="st1"
   d="M1700.43,870.88h13.03l20.74,26.64v-26.64h13.82v50.4h-12.24l-21.53-27.65v27.65h-13.83V870.88z"
   id="path408" />
	<path
   class="st1"
   d="M1756.95,870.88h19.44c18,0,28.44,10.37,28.44,24.91v0.14c0,14.55-10.59,25.35-28.73,25.35h-19.15V870.88z    M1776.61,908.9c8.35,0,13.9-4.61,13.9-12.75v-0.14c0-8.06-5.54-12.75-13.9-12.75h-5.69v25.63H1776.61z"
   id="path410" />
	<path
   class="st1"
   d="M1812.32,870.88h14.04v50.4h-14.04V870.88z"
   id="path412" />
	<path
   class="st1"
   d="M1835.58,870.88h13.03l20.74,26.64v-26.64h13.83v50.4h-12.24l-21.53-27.65v27.65h-13.82V870.88z"
   id="path414" />
	<path
   class="st1"
   d="M1890.37,896.23v-0.14c0-14.69,11.52-26.21,27.15-26.21c8.86,0,15.12,2.74,20.45,7.34l-8.21,9.86   c-3.6-3.02-7.2-4.75-12.17-4.75c-7.27,0-12.89,6.12-12.89,13.83v0.14c0,8.14,5.69,13.97,13.68,13.97c3.38,0,5.98-0.72,8.06-2.09   v-6.12h-9.94v-10.22h23.19v22.68c-5.33,4.39-12.75,7.78-21.89,7.78C1902.11,922.3,1890.37,911.5,1890.37,896.23z"
   id="path416" />
</g>

<path
   class="st2"
   d="M235.82,15.16l-225,129.08v258.29l225,129.08l225-129.08V144.24L235.82,15.16z M441.82,258.17L324.42,131.6  l43.09-19.41l74.32,43.22V258.17z M355.17,442.41L245.82,503.9v-77.22l97.54-32.51L355.17,442.41z M129.57,392.7l96.25,34.07v77.14  l-108.31-62.74L129.57,392.7z M240,408.82l-48.62-16.37L240,359.24l47.18,33.22L240,408.82z M313.23,242.59l-0.75,0.17l9.29,41.49  l18.84,91.84l-31.99,5.78l-66.81-42.37v-39.16l46.91-28.04l-6.37-69.12h24.45v-19h-50.77l10.91,77h-56.49l14.12-77h-65.47l3.85,19  h34.66l-13.48,70.56l43.33,26.86l1.93,40.63l-61.62,40.53l-26.96-5.73l26.96-140.55l-39.48-44.28l5.25-5.94l41.22-41.92l31.47,12.42  l32.27,14.54l23.11-10.15l43.79-18.04l46.16,50.07l-39.6,44.29L313.23,242.59z M311.61,117.17l-0.36-0.41l-61.37,27.09l42.87-76.42  l57.32,32.84L311.61,117.17z M168.11,116.76l-0.45,0.5l-37.44-16.87l57.27-32.81l39.16,74.8L168.11,116.76z M276.04,57.86  l-37.19,66.3L204.21,58l36.03-20.64L276.04,57.86z M107.39,112.21l45.52,20.02l-55,60.92l-1.76,0.17l-66.34,65.52V155.4  L107.39,112.21z M29.82,286.31l79.63-78.76l34.14,36.14l-8.79,45.81l-33.64,141.64l-71.34-39.78V286.31z M372.45,432.39  l-18.06-85.62L333.8,241.93l32.38-37.82l75.64,82.09v105.17L372.45,432.39z"
   id="path426"
   style="fill:#d82f5a;fill-opacity:1" />



</svg>