<?xml version="1.0" encoding="utf-8"?>
<!-- Generator: Adobe Illustrator 23.0.2, SVG Export Plug-In . SVG Version: 6.00 Build 0)  -->
<svg version="1.1" id="Camada_1" xmlns="http://www.w3.org/2000/svg" xmlns:xlink="http://www.w3.org/1999/xlink" x="0px" y="0px"
	 viewBox="0 0 604.95 568.76" style="enable-background:new 0 0 604.95 568.76;" xml:space="preserve">
<style type="text/css">
	.st0{fill:#424242;}
	.st1{fill:#FFFFFF;}
	.st2{fill:#967443;}
</style>
<g>
	<g>
		<path class="st0" d="M1454.31-1588.06c-156.34,0-283.53-127.19-283.53-283.53s127.19-283.53,283.53-283.53
			c34.62,0,68.45,6.17,100.56,18.35l-6.28,16.56c-30.09-11.4-61.81-17.19-94.28-17.19c-146.57,0-265.81,119.24-265.81,265.81
			s119.24,265.81,265.81,265.81s265.81-119.24,265.81-265.81c0-32.48-5.79-64.21-17.21-94.3l16.57-6.28
			c12.19,32.1,18.37,65.95,18.37,100.59C1737.83-1715.25,1610.65-1588.06,1454.31-1588.06z"/>
	</g>
	<g>
		
			<rect x="1397.42" y="-2017.77" transform="matrix(0.7071 -0.7071 0.7071 0.7071 1886.6982 537.0619)" class="st0" width="388.44" height="17.72"/>
	</g>
	<g>
		<polygon class="st0" points="1737.83,-2084.23 1666.95,-2084.23 1666.95,-2155.11 1684.67,-2155.11 1684.67,-2101.95 
			1737.83,-2101.95 		"/>
	</g>
	<g>
		<polygon class="st0" points="1702.39,-2048.79 1631.51,-2048.79 1631.51,-2119.67 1649.23,-2119.67 1649.23,-2066.51 
			1702.39,-2066.51 		"/>
	</g>
	<g>
		<path class="st0" d="M1454.31-1641.22c-127.02,0-230.37-103.34-230.37-230.37s103.34-230.37,230.37-230.37
			s230.37,103.34,230.37,230.37S1581.33-1641.22,1454.31-1641.22z M1454.31-2084.23c-117.25,0-212.65,95.39-212.65,212.65
			c0,117.25,95.39,212.65,212.65,212.65c117.25,0,212.64-95.39,212.64-212.65C1666.95-1988.83,1571.56-2084.23,1454.31-2084.23z"/>
	</g>
	<g>
		<path class="st0" d="M1454.31-1694.38c-97.71,0-177.2-79.49-177.2-177.2s79.5-177.2,177.2-177.2c97.71,0,177.2,79.49,177.2,177.2
			S1552.02-1694.38,1454.31-1694.38z M1454.31-2031.07c-87.94,0-159.48,71.55-159.48,159.48s71.54,159.48,159.48,159.48
			c87.94,0,159.48-71.55,159.48-159.48S1542.25-2031.07,1454.31-2031.07z"/>
	</g>
	<g>
		<path class="st0" d="M1454.31-1747.54c-68.4,0-124.04-55.64-124.04-124.04c0-68.4,55.64-124.04,124.04-124.04
			c68.4,0,124.04,55.64,124.04,124.04C1578.35-1803.18,1522.71-1747.54,1454.31-1747.54z M1454.31-1977.9
			c-58.63,0-106.32,47.69-106.32,106.32s47.7,106.32,106.32,106.32c58.63,0,106.32-47.69,106.32-106.32
			S1512.93-1977.9,1454.31-1977.9z"/>
	</g>
	<g>
		<path class="st0" d="M1454.31-1800.7c-39.08,0-70.88-31.8-70.88-70.88s31.8-70.88,70.88-70.88c39.08,0,70.88,31.8,70.88,70.88
			S1493.39-1800.7,1454.31-1800.7z M1454.31-1924.74c-29.31,0-53.16,23.85-53.16,53.16c0,29.31,23.85,53.16,53.16,53.16
			c29.31,0,53.16-23.85,53.16-53.16C1507.47-1900.9,1483.62-1924.74,1454.31-1924.74z"/>
	</g>
	<g>
		<circle class="st0" cx="1454.31" cy="-1871.58" r="17.72"/>
	</g>
	<g>
		<path class="st0" d="M1215.08-1588.06h-35.44c-3.07,0-5.92-1.59-7.54-4.21s-1.76-5.88-0.39-8.62l53.16-106.32l15.85,7.93
			l-46.75,93.5h17.43l59.43-59.43l12.53,12.53l-62.02,62.02C1219.68-1588.99,1217.43-1588.06,1215.08-1588.06z"/>
	</g>
	<g>
		<path class="st0" d="M1728.97-1588.06h-35.44c-2.35,0-4.6-0.93-6.26-2.6l-62.02-62.02l12.53-12.53l59.43,59.43h17.43l-46.75-93.5
			l15.85-7.93l53.16,106.32c1.37,2.74,1.22,6.01-0.39,8.62C1734.9-1589.65,1732.05-1588.06,1728.97-1588.06z"/>
	</g>
</g>
<g>
	<g>
		<path class="st0" d="M2949.15-1584.07H2343.2l-50.68-44.38v-33.04h280.87l22.1,19.35h101.37l22.1-19.35h280.87v33.04
			L2949.15-1584.07z M2352.35-1603.43H2940l37.73-33.04v-5.67h-249.62l-22.1,19.35h-119.67l-22.1-19.35h-249.62v5.67
			L2352.35-1603.43z"/>
	</g>
	<g>
		<path class="st0" d="M2358.82-1680.84h-22.1v-290.31c0-21.35,19.83-38.71,44.21-38.71h132.62v19.35h-132.62
			c-12.19,0-22.1,8.69-22.1,19.35V-1680.84z"/>
	</g>
	<g>
		<path class="st0" d="M2955.63-1680.84h-22.1v-290.31c0-10.67-9.91-19.35-22.1-19.35H2778.8v-19.35h132.62
			c24.38,0,44.21,17.36,44.21,38.71V-1680.84z"/>
	</g>
	<g>
		<polygon class="st0" points="2469.34,-1700.2 2380.93,-1700.2 2380.93,-1971.15 2535.65,-1971.15 2535.65,-1951.8 
			2403.03,-1951.8 2403.03,-1719.55 2469.34,-1719.55 		"/>
	</g>
	<g>
		<rect x="2624.07" y="-1816.32" class="st0" width="77.36" height="19.35"/>
	</g>
	<g>
		<rect x="2624.07" y="-1971.15" class="st0" width="77.36" height="19.35"/>
	</g>
	<g>
		<polygon class="st0" points="2911.42,-1700.2 2491.45,-1700.2 2491.45,-1758.26 2800.9,-1758.26 2800.9,-1738.9 2513.55,-1738.9 
			2513.55,-1719.55 2889.31,-1719.55 2889.31,-1951.8 2756.69,-1951.8 2756.69,-1971.15 2911.42,-1971.15 		"/>
	</g>
	<g>
		<polygon class="st0" points="2557.76,-1748.58 2535.65,-1748.58 2535.65,-1771.94 2579.86,-1810.65 2579.86,-1957.47 
			2535.65,-1996.17 2535.65,-2029.21 2590.91,-2029.21 2590.91,-2058.24 2613.02,-2058.24 2613.02,-2009.86 2557.76,-2009.86 
			2557.76,-2004.19 2601.97,-1965.48 2601.97,-1802.63 2557.76,-1763.93 		"/>
	</g>
	<g>
		<polygon class="st0" points="2756.69,-1748.58 2734.59,-1748.58 2734.59,-1763.93 2690.38,-1802.63 2690.38,-1965.48 
			2734.59,-2004.19 2734.59,-2009.86 2635.12,-2009.86 2635.12,-2029.21 2756.69,-2029.21 2756.69,-1996.17 2712.48,-1957.47 
			2712.48,-1810.65 2756.69,-1771.94 		"/>
	</g>
	<g>
		<rect x="2679.33" y="-2058.24" class="st0" width="22.1" height="38.71"/>
	</g>
	<g>
		<polygon class="st0" points="2734.59,-2087.27 2668.28,-2087.27 2668.28,-2125.98 2624.07,-2125.98 2624.07,-2087.27 
			2557.76,-2087.27 2557.76,-2106.63 2601.97,-2106.63 2601.97,-2145.33 2690.38,-2145.33 2690.38,-2106.63 2734.59,-2106.63 		"/>
	</g>
	<g>
		<polygon class="st0" points="2750.22,-2048.56 2542.13,-2048.56 2513.55,-2073.59 2513.55,-2145.33 2579.86,-2145.33 
			2579.86,-2125.98 2535.65,-2125.98 2535.65,-2081.6 2551.28,-2067.92 2741.06,-2067.92 2756.69,-2081.6 2756.69,-2125.98 
			2712.48,-2125.98 2712.48,-2145.33 2778.8,-2145.33 2778.8,-2073.59 		"/>
	</g>
	<g>
		<rect x="2635.12" y="-1903.41" class="st0" width="22.1" height="19.35"/>
	</g>
	<g>
		<rect x="2635.12" y="-1942.12" class="st0" width="22.1" height="19.35"/>
	</g>
	<g>
		<rect x="2635.12" y="-1864.7" class="st0" width="22.1" height="19.35"/>
	</g>
</g>
<g>
	<g>
		<g>
			<path class="st0" d="M3783.31-1858.08H3563.9c-4.85,0-8.78-3.93-8.78-8.78v-245.74c0-4.85,3.93-8.78,8.78-8.78h245.74
				c4.85,0,8.78,3.93,8.78,8.78v219.41h-17.55v-210.63h-228.19v228.19h210.63V-1858.08z"/>
		</g>
		<g>
			<path class="st0" d="M4108.04-1858.08h-219.41v-17.55h210.64v-228.19h-228.19v210.63h-17.55v-219.41c0-4.85,3.93-8.78,8.78-8.78
				h245.74c4.85,0,8.78,3.93,8.78,8.78v245.74C4116.82-1862.01,4112.89-1858.08,4108.04-1858.08z"/>
		</g>
		<g>
			<path class="st0" d="M3809.64-1559.69H3563.9c-4.85,0-8.78-3.93-8.78-8.78v-245.74c0-4.85,3.93-8.78,8.78-8.78h219.41v17.55
				h-210.63v228.19h228.19v-210.63h17.55v219.41C3818.42-1563.61,3814.49-1559.69,3809.64-1559.69z"/>
		</g>
		<g>
			<path class="st0" d="M4108.04-1559.69H3862.3c-4.85,0-8.78-3.93-8.78-8.78v-219.41h17.55v210.63h228.19v-228.19h-210.64v-17.55
				h219.41c4.85,0,8.78,3.93,8.78,8.78v245.74C4116.82-1563.61,4112.89-1559.69,4108.04-1559.69z"/>
		</g>
		<g>
			<path class="st0" d="M3756.98-1998.51h-26.33v-17.55h17.55v-35.11h-122.87v35.11h17.55v17.55h-26.33c-4.85,0-8.78-3.93-8.78-8.78
				v-52.66c0-4.85,3.93-8.78,8.78-8.78h140.42c4.85,0,8.78,3.93,8.78,8.78v52.66C3765.76-2002.43,3761.84-1998.51,3756.98-1998.51z"
				/>
		</g>
		<g>
			<path class="st0" d="M3713.1-1919.52h-17.55v-105.32c0-4.85,3.93-8.78,8.78-8.78h26.33v17.55h-17.55V-1919.52z"/>
		</g>
		<g>
			<path class="st0" d="M3678-1919.52h-17.55v-96.54h-17.55v-17.55h26.33c4.85,0,8.78,3.93,8.78,8.78V-1919.52z"/>
		</g>
		<g>
			<rect x="3651.67" y="-1928.3" class="st0" width="70.21" height="17.55"/>
		</g>
		<g>
			<path class="st0" d="M4022.85-1860.66l-99.11-99.11l-55.23,55.23l-12.41-12.41l61.44-61.44c3.43-3.43,8.98-3.43,12.41,0
				l105.32,105.32L4022.85-1860.66z"/>
		</g>
		<g>
			<path class="st0" d="M3973.82-1922.09l-12.41-12.41l87.76-87.76c3.43-3.43,8.98-3.43,12.41,0l52.66,52.66l-12.41,12.41
				l-46.45-46.45L3973.82-1922.09z"/>
		</g>
		<g>
			<path class="st0" d="M3967.62-1998.51c-19.36,0-35.11-15.74-35.11-35.11c0-19.36,15.74-35.11,35.11-35.11
				c19.36,0,35.11,15.74,35.11,35.11C4002.73-2014.25,3986.98-1998.51,3967.62-1998.51z M3967.62-2051.17
				c-9.68,0-17.55,7.88-17.55,17.55s7.88,17.55,17.55,17.55c9.68,0,17.55-7.88,17.55-17.55S3977.3-2051.17,3967.62-2051.17z"/>
		</g>
		<g>
			<rect x="3607.79" y="-1770.32" class="st0" width="157.98" height="17.55"/>
		</g>
		<g>
			<rect x="3607.79" y="-1735.21" class="st0" width="157.98" height="17.55"/>
		</g>
		<g>
			<rect x="3607.79" y="-1700.11" class="st0" width="157.98" height="17.55"/>
		</g>
		<g>
			<rect x="3607.79" y="-1665" class="st0" width="157.98" height="17.55"/>
		</g>
		<g>
			<rect x="3607.79" y="-1629.9" class="st0" width="87.76" height="17.55"/>
		</g>
		<g>
			
				<rect x="3970.32" y="-1765.93" transform="matrix(0.7071 -0.7071 0.7071 0.7071 2429.0061 2349.8279)" class="st0" width="161.35" height="17.55"/>
		</g>
		<g>
			<path class="st0" d="M3914.96-1612.34c-2.28,0-4.53-0.89-6.2-2.57c-2.57-2.57-3.29-6.45-1.82-9.77l35.11-78.99
				c0.44-0.99,1.05-1.88,1.82-2.64l114.09-114.09l12.41,12.41l-112.94,112.95l-25.18,56.64l56.64-25.18l112.95-112.94l12.41,12.41
				l-114.09,114.09c-0.76,0.76-1.65,1.38-2.64,1.82l-78.99,35.11C3917.38-1612.59,3916.17-1612.34,3914.96-1612.34z"/>
		</g>
		<g>
			
				<rect x="3963.23" y="-1709.2" transform="matrix(0.7071 -0.7071 0.7071 0.7071 2350.0178 2317.1099)" class="st0" width="17.55" height="62.06"/>
		</g>
		<g>
			<rect x="3914.96" y="-1629.9" class="st0" width="149.2" height="17.55"/>
		</g>
		<g>
			<path class="st0" d="M3862.3-1805.43h-52.66c-4.85,0-8.78-3.93-8.78-8.78v-52.66c0-4.85,3.93-8.78,8.78-8.78h52.66
				c4.85,0,8.78,3.93,8.78,8.78v52.66C3871.08-1809.35,3867.15-1805.43,3862.3-1805.43z M3818.42-1822.98h35.11v-35.11h-35.11
				V-1822.98z"/>
		</g>
	</g>
</g>
<g>
	<g>
		<g>
			<g>
				<path class="st0" d="M284.67-1800.48c-55.21,0-100.13-44.91-100.13-100.13c0-55.21,44.91-100.13,100.13-100.13
					c55.21,0,100.13,44.91,100.13,100.13C384.8-1845.4,339.88-1800.48,284.67-1800.48z M284.67-1980.71
					c-44.17,0-80.1,35.93-80.1,80.1c0,44.17,35.93,80.1,80.1,80.1c44.17,0,80.1-35.93,80.1-80.1
					C364.77-1944.77,328.84-1980.71,284.67-1980.71z"/>
			</g>
			<g>
				<g>
					<g>
						<rect x="184.55" y="-1730.39" class="st0" width="200.25" height="20.03"/>
					</g>
					<g>
						<rect x="184.55" y="-1690.34" class="st0" width="200.25" height="20.03"/>
					</g>
					<g>
						<polygon class="st0" points="310.05,-1600.23 259.29,-1600.23 239.26,-1630.27 184.55,-1630.27 184.55,-1650.29 
							249.98,-1650.29 270,-1620.26 299.34,-1620.26 319.36,-1650.29 384.8,-1650.29 384.8,-1630.27 330.08,-1630.27 						"/>
					</g>
					<g>
						<path class="st0" d="M364.77-1640.28h-20.03v-136.94l6.29-2.52c45.53-18.21,73.81-64.52,73.81-120.86
							c0-77.29-62.88-140.18-140.18-140.18c-77.29,0-140.18,62.88-140.18,140.18c0,56.34,28.28,102.66,73.81,120.86l6.29,2.52
							v136.94h-20.03v-123.58c-49.59-22.89-80.1-74.63-80.1-136.75c0-88.33,71.87-160.2,160.2-160.2
							c88.33,0,160.2,71.87,160.2,160.2c0,62.12-30.51,113.85-80.1,136.75V-1640.28z"/>
					</g>
				</g>
				<g>
					<polygon class="st0" points="301.95,-1843.66 261.9,-1923.76 228.74,-1890.59 164.52,-1890.59 164.52,-1910.62 
						220.45,-1910.62 267.39,-1957.56 307.44,-1877.46 340.6,-1910.62 404.82,-1910.62 404.82,-1890.59 348.89,-1890.59 					"/>
				</g>
			</g>
		</g>
		<g>
			<g>
				<path class="st0" d="M3.75-1947.12l-18.72-7.11c46.94-123.64,167.36-206.71,299.65-206.71h24.17l-67.15,67.15l-14.16-14.16
					l31.89-31.89C145.55-2130.08,44.75-2055.11,3.75-1947.12z"/>
			</g>
			<g>
				<path class="st0" d="M605.07-1816.36l-67.15-67.15l14.16-14.16l31.89,31.89c-9.74-113.89-84.73-214.68-192.74-255.68l7.11-18.72
					c123.65,46.93,206.74,167.35,206.74,299.65V-1816.36z"/>
			</g>
			<g>
				<path class="st0" d="M284.67-1520.13H260.5l67.15-67.15l14.16,14.16l-31.89,31.89c113.87-9.74,214.67-84.72,255.67-192.71
					l18.72,7.11C537.37-1603.2,416.96-1520.13,284.67-1520.13z"/>
			</g>
			<g>
				<path class="st0" d="M170.95-1540.9c-123.62-46.95-206.68-167.36-206.68-299.63v-24.17l67.15,67.15l-14.16,14.16l-31.89-31.89
					c9.74,113.86,84.71,214.66,192.68,255.66L170.95-1540.9z"/>
			</g>
		</g>
	</g>
</g>
<g>
	<g>
		<g>
			<path class="st0" d="M-631.11-1623.18c-1.02,0-2.05-0.15-3.04-0.45l-538.2-165.6c-5.46-1.69-8.53-7.48-6.85-12.94
				c1.67-5.47,7.49-8.54,12.93-6.85l524.81,161.49v-365.28l-524.81,161.49c-5.44,1.67-11.26-1.4-12.93-6.85
				c-1.68-5.46,1.38-11.25,6.85-12.94l538.2-165.6c3.12-0.95,6.54-0.38,9.19,1.57c2.64,1.95,4.2,5.04,4.2,8.33v393.3
				c0,3.29-1.56,6.38-4.2,8.33C-626.77-1623.88-628.92-1623.18-631.11-1623.18z"/>
		</g>
		<g>
			<path class="st0" d="M-1190.01-1768.08c-17.12,0-31.05-13.93-31.05-31.05v-62.1c0-17.12,13.93-31.05,31.05-31.05
				c17.12,0,31.05,13.93,31.05,31.05v62.1C-1158.96-1782.01-1172.89-1768.08-1190.01-1768.08z M-1190.01-1871.58
				c-5.71,0-10.35,4.64-10.35,10.35v62.1c0,5.71,4.64,10.35,10.35,10.35s10.35-4.64,10.35-10.35v-62.1
				C-1179.66-1866.94-1184.31-1871.58-1190.01-1871.58z"/>
		</g>
		<g>
			<path class="st0" d="M-600.06-1592.13c-22.83,0-41.4-18.57-41.4-41.4v-393.3c0-22.83,18.57-41.4,41.4-41.4
				c22.83,0,41.4,18.57,41.4,41.4v393.3C-558.66-1610.7-577.23-1592.13-600.06-1592.13z M-600.06-2047.53
				c-11.42,0-20.7,9.29-20.7,20.7v393.3c0,11.41,9.28,20.7,20.7,20.7c11.42,0,20.7-9.29,20.7-20.7v-393.3
				C-579.36-2038.24-588.65-2047.53-600.06-2047.53z"/>
		</g>
		<g>
			<rect x="-786.36" y="-1840.53" class="st0" width="20.7" height="20.7"/>
		</g>
		<g>
			<rect x="-744.96" y="-1840.53" class="st0" width="20.7" height="20.7"/>
		</g>
		<g>
			<rect x="-703.56" y="-1840.53" class="st0" width="20.7" height="20.7"/>
		</g>
		<g>
			<path class="st0" d="M-941.61-1654.23c-1.25,0-2.51-0.22-3.71-0.69l-134.55-51.75c-4-1.54-6.64-5.38-6.64-9.66v-51.75h20.7v44.64
				l113.85,43.78v-47.03h20.7v62.1c0,3.41-1.68,6.6-4.49,8.53C-937.5-1654.85-939.55-1654.23-941.61-1654.23z"/>
		</g>
		<g>
			<path class="st0" d="M-900.21-1592.13c-1.24,0-2.49-0.22-3.68-0.68l-217.35-82.8c-4.01-1.53-6.67-5.38-6.67-9.67v-93.15h20.7
				v86.01l196.65,74.92v-98.83h20.7v113.85c0,3.41-1.67,6.59-4.48,8.52C-896.09-1592.75-898.15-1592.13-900.21-1592.13z"/>
		</g>
		<g>
			<rect x="-848.46" y="-1964.73" class="st0" width="20.7" height="269.1"/>
		</g>
	</g>
</g>
<g>
	<path class="st1" d="M-1342.94,902.43h40.54v11.88h-26.71v7.63h24.19v11.02h-24.19v7.99h27.07v11.88h-40.9V902.43z"/>
	<path class="st1" d="M-1298.95,902.43h15.63l11.45,31.9l11.45-31.9h15.34l-20.45,50.76h-12.96L-1298.95,902.43z"/>
	<path class="st1" d="M-1240.2,902.43h40.54v11.88h-26.71v7.63h24.19v11.02h-24.19v7.99h27.07v11.88h-40.9V902.43z"/>
	<path class="st1" d="M-1192.18,902.43h13.03l20.74,26.64v-26.64h13.83v50.4h-12.24l-21.53-27.65v27.65h-13.83V902.43z"/>
	<path class="st1" d="M-1123.35,914.67h-15.12v-12.24h44.21v12.24h-15.12v38.16h-13.97V914.67z"/>
	<path class="st1" d="M-1092.03,927.77v-0.14c0-14.47,11.67-26.21,27.22-26.21c15.55,0,27.07,11.59,27.07,26.07v0.14
		c0,14.47-11.67,26.21-27.22,26.21C-1080.51,953.84-1092.03,942.24-1092.03,927.77z M-1051.99,927.77v-0.14
		c0-7.27-5.26-13.61-12.96-13.61c-7.63,0-12.75,6.19-12.75,13.46v0.14c0,7.27,5.26,13.61,12.89,13.61
		C-1057.1,941.24-1051.99,935.04-1051.99,927.77z"/>
	<path class="st1" d="M-1034.64,945.34l7.78-9.29c4.97,3.96,10.51,6.05,16.34,6.05c3.75,0,5.76-1.3,5.76-3.46v-0.14
		c0-2.09-1.66-3.24-8.5-4.82c-10.73-2.45-19.01-5.47-19.01-15.84v-0.14c0-9.36,7.42-16.13,19.51-16.13c8.57,0,15.26,2.3,20.74,6.7
		l-6.98,9.87c-4.61-3.24-9.65-4.97-14.11-4.97c-3.38,0-5.04,1.44-5.04,3.24v0.14c0,2.3,1.73,3.31,8.71,4.9
		c11.59,2.52,18.79,6.26,18.79,15.7v0.14c0,10.3-8.14,16.42-20.38,16.42C-1019.95,953.69-1028.45,950.89-1034.64,945.34z"/>
	<path class="st1" d="M-963.94,902.43h40.54v11.88h-26.71v7.63h24.19v11.02h-24.19v7.99h27.07v11.88h-40.9V902.43z"/>
	<path class="st1" d="M-895.97,902.43h21.6c12.75,0,20.95,6.55,20.95,17.71v0.14c0,11.88-9.15,18.15-21.67,18.15h-6.91v14.4h-13.97
		V902.43z M-875.38,927.48c4.97,0,7.99-2.59,7.99-6.55v-0.14c0-4.32-3.02-6.62-8.06-6.62h-6.55v13.32H-875.38z"/>
	<path class="st1" d="M-847.52,902.43h23.83c7.7,0,13.03,2.02,16.42,5.47c2.95,2.88,4.46,6.77,4.46,11.74v0.14
		c0,7.7-4.1,12.82-10.37,15.48l12.02,17.57h-16.13l-10.15-15.27h-0.14h-5.98v15.27h-13.97V902.43z M-824.33,926.62
		c4.75,0,7.49-2.3,7.49-5.98v-0.14c0-3.96-2.88-5.98-7.56-5.98h-9.14v12.1H-824.33z"/>
	<path class="st1" d="M-797.48,927.77v-0.14c0-14.47,11.67-26.21,27.22-26.21c15.55,0,27.07,11.59,27.07,26.07v0.14
		c0,14.47-11.67,26.21-27.22,26.21S-797.48,942.24-797.48,927.77z M-757.44,927.77v-0.14c0-7.27-5.26-13.61-12.96-13.61
		c-7.63,0-12.75,6.19-12.75,13.46v0.14c0,7.27,5.26,13.61,12.89,13.61C-762.56,941.24-757.44,935.04-757.44,927.77z"/>
	<path class="st1" d="M-735.92,902.43h14.76l12.03,19.51l12.02-19.51h14.76v50.4h-13.9v-28.95l-12.89,19.73h-0.29l-12.82-19.59v28.8
		h-13.68V902.43z"/>
	<path class="st1" d="M-675.15,927.77v-0.14c0-14.47,11.67-26.21,27.22-26.21c15.55,0,27.07,11.59,27.07,26.07v0.14
		c0,14.47-11.67,26.21-27.22,26.21S-675.15,942.24-675.15,927.77z M-635.12,927.77v-0.14c0-7.27-5.26-13.61-12.96-13.61
		c-7.63,0-12.75,6.19-12.75,13.46v0.14c0,7.27,5.26,13.61,12.89,13.61C-640.23,941.24-635.12,935.04-635.12,927.77z"/>
	<path class="st1" d="M-601.49,960.68l5.62-7.63c-11.23-2.81-19.44-12.6-19.44-25.27v-0.14c0-14.69,11.3-26.21,26.57-26.21
		c10.3,0,16.92,4.32,21.39,10.51l-10.51,8.14c-2.88-3.6-6.19-5.9-11.02-5.9c-7.06,0-12.02,5.98-12.02,13.32v0.14
		c0,7.56,4.97,13.46,12.02,13.46c5.26,0,8.35-2.45,11.38-6.12l10.51,7.49c-4.32,5.98-10.08,10.44-19.59,11.23l-4.03,11.59
		L-601.49,960.68z"/>
	<path class="st1" d="M-562.76,927.77v-0.14c0-14.47,11.67-26.21,27.22-26.21c15.55,0,27.08,11.59,27.08,26.07v0.14
		c0,14.47-11.67,26.21-27.22,26.21S-562.76,942.24-562.76,927.77z M-550.73,897.74c1.51-7.13,3.96-10.73,8.93-10.73
		c4.32,0,8.93,2.81,11.23,2.81c2.02,0,2.74-1.08,3.67-3.31l6.55,1.8c-1.51,7.13-3.96,10.73-8.93,10.73c-4.32,0-8.93-2.81-11.23-2.81
		c-2.02,0-2.74,1.08-3.67,3.31L-550.73,897.74z M-522.72,927.77v-0.14c0-7.27-5.26-13.61-12.96-13.61
		c-7.63,0-12.75,6.19-12.75,13.46v0.14c0,7.27,5.26,13.61,12.89,13.61C-527.84,941.24-522.72,935.04-522.72,927.77z"/>
	<path class="st1" d="M-501.2,902.43h40.54v11.88h-26.71v7.63h24.19v11.02h-24.19v7.99h27.07v11.88h-40.9V902.43z"/>
	<path class="st1" d="M-456.99,945.34l7.78-9.29c4.97,3.96,10.51,6.05,16.35,6.05c3.74,0,5.76-1.3,5.76-3.46v-0.14
		c0-2.09-1.66-3.24-8.5-4.82c-10.73-2.45-19.01-5.47-19.01-15.84v-0.14c0-9.36,7.42-16.13,19.51-16.13c8.57,0,15.27,2.3,20.74,6.7
		l-6.98,9.87c-4.61-3.24-9.65-4.97-14.11-4.97c-3.38,0-5.04,1.44-5.04,3.24v0.14c0,2.3,1.73,3.31,8.71,4.9
		c11.59,2.52,18.79,6.26,18.79,15.7v0.14c0,10.3-8.14,16.42-20.38,16.42C-442.31,953.69-450.8,950.89-456.99,945.34z"/>
</g>
<g>
	<path class="st1" d="M-48.41,902.43h19.44c18,0,28.44,10.37,28.44,24.91v0.14c0,14.55-10.58,25.35-28.73,25.35h-19.15V902.43z
		 M-28.76,940.45c8.35,0,13.9-4.61,13.9-12.75v-0.14c0-8.06-5.54-12.75-13.9-12.75h-5.69v25.63H-28.76z"/>
	<path class="st1" d="M6.67,902.43h40.54v11.88H20.49v7.63h24.19v11.02H20.49v7.99h27.07v11.88H6.67V902.43z"/>
	<path class="st1" d="M50.87,945.34l7.78-9.29c4.97,3.96,10.51,6.05,16.34,6.05c3.75,0,5.76-1.3,5.76-3.46v-0.14
		c0-2.09-1.66-3.24-8.5-4.82c-10.73-2.45-19.01-5.47-19.01-15.84v-0.14c0-9.36,7.42-16.13,19.51-16.13c8.57,0,15.26,2.3,20.74,6.7
		l-6.98,9.87c-4.61-3.24-9.65-4.97-14.11-4.97c-3.38,0-5.04,1.44-5.04,3.24v0.14c0,2.3,1.73,3.31,8.71,4.9
		c11.59,2.52,18.79,6.26,18.79,15.7v0.14c0,10.3-8.14,16.42-20.38,16.42C65.56,953.69,57.07,950.89,50.87,945.34z"/>
	<path class="st1" d="M101.63,902.43h40.54v11.88h-26.71v7.63h24.19v11.02h-24.19v7.99h27.07v11.88h-40.9V902.43z"/>
	<path class="st1" d="M149.66,902.43h13.03l20.74,26.64v-26.64h13.83v50.4h-12.24l-21.53-27.65v27.65h-13.83V902.43z"/>
	<path class="st1" d="M202.14,902.43h15.63l11.45,31.9l11.45-31.9h15.34l-20.45,50.76h-12.96L202.14,902.43z"/>
	<path class="st1" d="M255.93,927.77v-0.14c0-14.47,11.67-26.21,27.22-26.21c15.55,0,27.07,11.59,27.07,26.07v0.14
		c0,14.47-11.67,26.21-27.22,26.21S255.93,942.24,255.93,927.77z M295.96,927.77v-0.14c0-7.27-5.26-13.61-12.96-13.61
		c-7.63,0-12.75,6.19-12.75,13.46v0.14c0,7.27,5.26,13.61,12.89,13.61C290.85,941.24,295.96,935.04,295.96,927.77z"/>
	<path class="st1" d="M317.49,902.43h13.97v38.16h24.41v12.24h-38.38V902.43z"/>
	<path class="st1" d="M362.13,902.43h14.04v50.4h-14.04V902.43z"/>
	<path class="st1" d="M385.38,902.43h14.76l12.03,19.51l12.02-19.51h14.76v50.4h-13.9v-28.95l-12.89,19.73h-0.29l-12.82-19.59v28.8
		h-13.68V902.43z"/>
	<path class="st1" d="M447.88,902.43h40.54v11.88h-26.71v7.63h24.19v11.02h-24.19v7.99h27.07v11.88h-40.9V902.43z"/>
	<path class="st1" d="M495.9,902.43h13.03l20.74,26.64v-26.64h13.83v50.4h-12.24l-21.53-27.65v27.65H495.9V902.43z"/>
	<path class="st1" d="M564.74,914.67h-15.12v-12.24h44.21v12.24h-15.12v38.16h-13.97V914.67z"/>
	<path class="st1" d="M596.06,927.77v-0.14c0-14.47,11.67-26.21,27.22-26.21c15.55,0,27.07,11.59,27.07,26.07v0.14
		c0,14.47-11.67,26.21-27.22,26.21S596.06,942.24,596.06,927.77z M636.09,927.77v-0.14c0-7.27-5.26-13.61-12.96-13.61
		c-7.63,0-12.75,6.19-12.75,13.46v0.14c0,7.27,5.26,13.61,12.89,13.61C630.98,941.24,636.09,935.04,636.09,927.77z"/>
</g>
<g>
	<path class="st1" d="M1160.17,902.43h13.97v38.16h24.41v12.24h-38.38V902.43z"/>
	<path class="st1" d="M1204.81,902.43h14.04v50.4h-14.04V902.43z"/>
	<path class="st1" d="M1224.04,902.43h15.63l11.45,31.9l11.45-31.9h15.34l-20.45,50.76h-12.96L1224.04,902.43z"/>
	<path class="st1" d="M1282.79,902.43h40.54v11.88h-26.71v7.63h24.19v11.02h-24.19v7.99h27.07v11.88h-40.9V902.43z"/>
	<path class="st1" d="M1350.76,902.43h14.76l12.03,19.51l12.03-19.51h14.76v50.4h-13.9v-28.95l-12.89,19.73h-0.29l-12.82-19.59v28.8
		h-13.68V902.43z"/>
	<path class="st1" d="M1430.68,902.07h13.47l21.46,50.76h-14.98l-3.67-9h-19.44l-3.6,9h-14.69L1430.68,902.07z M1442.92,932.96
		l-5.62-14.33l-5.69,14.33H1442.92z"/>
	<path class="st1" d="M1470.49,902.43h23.83c7.7,0,13.03,2.02,16.42,5.47c2.95,2.88,4.46,6.77,4.46,11.74v0.14
		c0,7.7-4.1,12.82-10.37,15.48l12.03,17.57h-16.13l-10.15-15.27h-0.14h-5.98v15.27h-13.97V902.43z M1493.68,926.62
		c4.75,0,7.49-2.3,7.49-5.98v-0.14c0-3.96-2.88-5.98-7.56-5.98h-9.14v12.1H1493.68z"/>
	<path class="st1" d="M1522.26,902.43h13.97v20.45l17.35-20.45h16.56l-19.08,21.67l19.73,28.73h-16.78l-12.67-18.72l-5.11,5.69
		v13.03h-13.97V902.43z"/>
	<path class="st1" d="M1574.82,902.43h40.54v11.88h-26.71v7.63h24.19v11.02h-24.19v7.99h27.07v11.88h-40.9V902.43z"/>
	<path class="st1" d="M1635.15,914.67h-15.12v-12.24h44.21v12.24h-15.12v38.16h-13.97V914.67z"/>
	<path class="st1" d="M1670.65,902.43h14.04v50.4h-14.04V902.43z"/>
	<path class="st1" d="M1693.91,902.43h13.03l20.74,26.64v-26.64h13.83v50.4h-12.24l-21.53-27.65v27.65h-13.82V902.43z"/>
	<path class="st1" d="M1748.7,927.77v-0.14c0-14.69,11.52-26.21,27.15-26.21c8.86,0,15.12,2.74,20.45,7.34l-8.21,9.86
		c-3.6-3.02-7.2-4.75-12.17-4.75c-7.27,0-12.89,6.12-12.89,13.83v0.14c0,8.14,5.69,13.97,13.68,13.97c3.38,0,5.98-0.72,8.06-2.09
		v-6.12h-9.94v-10.22h23.19v22.68c-5.33,4.39-12.75,7.78-21.89,7.78C1760.43,953.84,1748.7,943.04,1748.7,927.77z"/>
</g>
<g>
	<path class="st1" d="M2522.1,902.43h19.44c18,0,28.44,10.37,28.44,24.91v0.14c0,14.55-10.58,25.35-28.73,25.35h-19.15V902.43z
		 M2541.76,940.45c8.35,0,13.9-4.61,13.9-12.75v-0.14c0-8.06-5.54-12.75-13.9-12.75h-5.69v25.63H2541.76z"/>
	<path class="st1" d="M2577.47,902.43h14.04v50.4h-14.04V902.43z"/>
	<path class="st1" d="M2599,927.77v-0.14c0-14.69,11.52-26.21,27.15-26.21c8.86,0,15.12,2.74,20.45,7.34l-8.21,9.86
		c-3.6-3.02-7.2-4.75-12.17-4.75c-7.27,0-12.89,6.12-12.89,13.83v0.14c0,8.14,5.69,13.97,13.68,13.97c3.38,0,5.98-0.72,8.06-2.09
		v-6.12h-9.94v-10.22h23.19v22.68c-5.33,4.39-12.75,7.78-21.89,7.78C2610.74,953.84,2599,943.04,2599,927.77z"/>
	<path class="st1" d="M2656.38,902.43h14.04v50.4h-14.04V902.43z"/>
	<path class="st1" d="M2691.95,914.67h-15.12v-12.24h44.21v12.24h-15.12v38.16h-13.97V914.67z"/>
	<path class="st1" d="M2738.1,902.07h13.47l21.46,50.76h-14.98l-3.67-9h-19.44l-3.6,9h-14.69L2738.1,902.07z M2750.34,932.96
		l-5.62-14.33l-5.69,14.33H2750.34z"/>
	<path class="st1" d="M2777.92,902.43h13.97v38.16h24.41v12.24h-38.38V902.43z"/>
</g>
<g>
	<path class="st1" d="M3640.05,890.68h25.85c6.34,0,10.8,1.58,13.75,4.54c2.02,2.02,3.24,4.68,3.24,8.14v0.14
		c0,5.83-3.31,9.29-7.78,11.23c6.12,2.02,10.01,5.47,10.01,12.31v0.14c0,8.64-7.06,13.9-19.08,13.9h-25.99V890.68z M3662.44,910.77
		c4.25,0,6.62-1.44,6.62-4.39v-0.14c0-2.74-2.16-4.32-6.34-4.32h-9.07v8.86H3662.44z M3664.46,929.86c4.25,0,6.7-1.66,6.7-4.61
		v-0.14c0-2.74-2.16-4.54-6.84-4.54h-10.66v9.29H3664.46z"/>
	<path class="st1" d="M3691.52,890.68h23.83c7.71,0,13.03,2.02,16.42,5.47c2.95,2.88,4.46,6.77,4.46,11.74v0.14
		c0,7.7-4.1,12.82-10.37,15.48l12.02,17.57h-16.13l-10.15-15.27h-0.14h-5.98v15.27h-13.97V890.68z M3714.71,914.88
		c4.75,0,7.49-2.3,7.49-5.98v-0.14c0-3.96-2.88-5.98-7.56-5.98h-9.15v12.1H3714.71z"/>
	<path class="st1" d="M3759.85,890.32h13.46l21.46,50.76h-14.98l-3.67-9h-19.44l-3.6,9h-14.69L3759.85,890.32z M3772.1,921.21
		l-5.62-14.33l-5.69,14.33H3772.1z"/>
	<path class="st1" d="M3799.67,890.68h13.03l20.74,26.64v-26.64h13.82v50.4h-12.24l-21.53-27.65v27.65h-13.83V890.68z"/>
	<path class="st1" d="M3856.19,890.68h19.44c18,0,28.44,10.37,28.44,24.91v0.14c0,14.55-10.59,25.35-28.73,25.35h-19.15V890.68z
		 M3875.85,928.7c8.35,0,13.9-4.61,13.9-12.75v-0.14c0-8.06-5.54-12.75-13.9-12.75h-5.69v25.63H3875.85z"/>
	<path class="st1" d="M3911.56,890.68h14.04v50.4h-14.04V890.68z"/>
	<path class="st1" d="M3934.81,890.68h13.03l20.74,26.64v-26.64h13.83v50.4h-12.24l-21.53-27.65v27.65h-13.82V890.68z"/>
	<path class="st1" d="M3989.6,916.03v-0.14c0-14.69,11.52-26.21,27.15-26.21c8.86,0,15.12,2.74,20.45,7.34l-8.21,9.86
		c-3.6-3.02-7.2-4.75-12.17-4.75c-7.27,0-12.89,6.12-12.89,13.83v0.14c0,8.14,5.69,13.97,13.68,13.97c3.38,0,5.98-0.72,8.06-2.09
		v-6.12h-9.94v-10.22h23.19v22.68c-5.33,4.39-12.75,7.78-21.89,7.78C4001.34,942.1,3989.6,931.3,3989.6,916.03z"/>
</g>
<g>
	<path class="st2" d="M206.11,261.39l-29.21,143.3l124.53,43.01l123.89-41.72l-29.53-146.35l44.29-48.78l-67.4-76.39l-71.25,31.45
		l-71.89-31.45l-69.65,76.39L206.11,261.39z M301.44,426.52l-48.62-16.37l48.62-33.22l47.18,33.22L301.44,426.52z M233.06,159.82
		l68.35,26.96l65.44-26.96L413,209.88l-39.6,44.29l28.64,139.61l-30.11,5.78l-64.93-42.36v-39.16l45.03-25.83l-8.24-66.92h28.21v-20
		h-54.53l10.91,77h-56.49l14.12-77h-65.47l3.85,20h34.66l-13.48,68.36l43.33,25.76l1.93,40.08l-61.62,40.26l-26.96-5.87
		l26.96-140.62l-39.48-44.31L233.06,159.82z"/>
	<path class="st2" d="M592.01,217.19l-93-52.23V76.52l-117.9-67l-78.7,44.44L223.78,9.52l-117.77,67v88.43l-92,52.23v133.19
		l92,52.91v90.39l123.48,63.78l72.88-41.73l73.01,41.73l123.63-63.78v-90.39l93-52.91V217.19z M381.2,31.66l98.8,56.06v66.35
		L322.29,65.02L381.2,31.66z M480.01,176.19v215.93l-177,101.42l-177-101.42V176.19l177-100.11L480.01,176.19z M126.01,87.72
		l98.14-56.06l59.24,33.36l-157.38,89.05V87.72z M33.01,339.21V228.42l73-41.35V381.1L33.01,339.21z M229.38,535.54l-103.38-53.59
		v-67.64l157.58,90.32L229.38,535.54z M480.01,481.94l-104.04,53.59l-53.87-30.91l157.91-90.32V481.94z M572.01,339.21l-73,41.89
		V187.07l73,41.35V339.21z"/>
</g>
<path class="st2" d="M2335.05,34.96l-225,129.08v258.29l225,129.08l225-129.08V164.04L2335.05,34.96z M2541.05,277.97l-117.4-126.57
	l43.09-19.41l74.32,43.22V277.97z M2454.41,462.21l-109.35,61.49v-77.22l97.54-32.51L2454.41,462.21z M2228.8,412.5l96.25,34.07
	v77.14l-108.31-62.74L2228.8,412.5z M2339.24,428.63l-48.62-16.37l48.62-33.22l47.18,33.22L2339.24,428.63z M2412.46,262.39
	l-0.75,0.17l9.29,41.49l18.84,91.84l-31.99,5.78l-66.81-42.37v-39.16l46.91-28.04l-6.37-69.12h24.45v-19h-50.77l10.91,77h-56.49
	l14.12-77h-65.47l3.85,19h34.66l-13.48,70.56l43.33,26.86l1.93,40.63l-61.62,40.53l-26.96-5.73l26.96-140.55l-39.48-44.28l5.25-5.94
	l41.22-41.92l31.47,12.42l32.27,14.54l23.11-10.15l43.79-18.04l46.16,50.07l-39.6,44.29L2412.46,262.39z M2410.85,136.97l-0.36-0.41
	l-61.37,27.09l42.87-76.42l57.32,32.84L2410.85,136.97z M2267.34,136.56l-0.45,0.5l-37.44-16.87l57.27-32.81l39.16,74.8
	L2267.34,136.56z M2375.28,77.66l-37.19,66.3l-34.64-66.17l36.03-20.64L2375.28,77.66z M2206.63,132.01l45.52,20.02l-55,60.92
	l-1.76,0.17l-66.34,65.52V175.2L2206.63,132.01z M2129.05,306.11l79.63-78.76l34.14,36.14l-8.79,45.81l-33.64,141.64l-71.34-39.78
	V306.11z M2471.69,452.19l-18.06-85.62l-20.59-104.84l32.38-37.82l75.64,82.09v105.17L2471.69,452.19z"/>
<g>
	<path class="st2" d="M1955.7,252.95V134.32c15-4.12,23.02-16.59,23.02-31.29c0-18.05-14.73-32.74-32.78-32.74
		c-18.05,0-33.04,14.69-33.04,32.74c0,14.7,11.81,27.16,22.81,31.29v111.5l-35.28,41.35l14.78,60.32
		c-10.45,5.48-17.53,16.41-17.53,29c0,18.05,14.72,32.74,32.77,32.74c18.05,0,32.75-14.69,32.75-32.74
		c0-16.75-12.65-30.58-28.89-32.49l-12.47-51.76L1955.7,252.95z M1945.88,89.55c7.43,0,13.48,6.05,13.48,13.48
		c0,7.43-6.05,13.48-13.48,13.48c-7.43,0-13.48-6.05-13.48-13.48C1932.4,95.6,1938.45,89.55,1945.88,89.55z M1943.96,376.48
		c0,7.43-6.05,13.48-13.48,13.48s-13.48-6.05-13.48-13.48c0-7.43,6.05-13.48,13.48-13.48S1943.96,369.04,1943.96,376.48z"/>
	<path class="st2" d="M1512.05,417.74l38.53-172.78l-45.88-45.78V53.44c15-4.12,23.21-16.59,23.21-31.29
		c0-18.05-14.64-32.74-32.69-32.74s-32.69,14.69-32.69,32.74c0,14.7,11.16,27.16,23.16,31.29v153.71l43.91,43.94l-36.25,162.07
		c-17.15,1.01-30.81,15.24-30.81,32.64c0,18.05,14.68,32.74,32.73,32.74c18.05,0,32.73-14.69,32.73-32.74
		C1528.01,433.89,1521.59,423.47,1512.05,417.74z M1495.27,8.67c7.43,0,13.48,6.05,13.48,13.48s-6.05,13.48-13.48,13.48
		s-13.48-6.05-13.48-13.48S1487.84,8.67,1495.27,8.67z M1495.27,459.28c-7.43,0-13.48-6.05-13.48-13.48
		c0-7.43,6.05-13.48,13.48-13.48s13.48,6.05,13.48,13.48C1508.75,453.23,1502.71,459.28,1495.27,459.28z"/>
	<path class="st2" d="M1816.7,477.62V361.07l-29.93-143.63l44.33-48.58l-0.1,0.05h0.7V-12.04c16-4.12,23.39-16.59,23.39-31.29
		c0-18.05-14.54-32.74-32.59-32.74s-32.82,14.69-32.82,32.74c0,14.7,12.02,27.16,23.02,31.29v160.15l-42-48.01V26.48
		c15-4.12,23.08-16.59,23.08-31.29c0-18.05-14.7-32.74-32.75-32.74c-18.05,0-33.09,14.69-33.09,32.74
		c0,14.7,11.76,27.16,22.76,31.29v71.25l-50,22.1V61.14c16-4.12,23.42-16.59,23.42-31.29c0-18.05-14.53-32.74-32.58-32.74
		s-32.84,14.69-32.84,32.74c0,14.7,12,27.16,23,31.29v58.03l-50-21.9V26.48c16-4.12,23.26-16.59,23.26-31.29
		c0-18.05-14.61-32.74-32.66-32.74c-18.05,0-32.72,14.69-32.72,32.74c0,14.7,11.12,27.16,23.12,31.29v74.42l-43,46.46V-12.04
		c16-4.12,23.45-16.59,23.45-31.29c0-18.05-14.52-32.74-32.57-32.74s-32.86,14.69-32.86,32.74c0,14.7,11.98,27.16,22.98,31.29
		v180.51l0.04,0.18l46.32,50.55l-29.15,143.3l2.44,113.62c-13.37,4.12-23.1,16.59-23.1,31.29c0,18.05,14.69,32.74,32.74,32.74
		s32.77-14.69,32.77-32.74c0-14.7-8.07-27.16-23.07-31.29V370l42,14.63v49.14c-11,4.12-22.96,16.59-22.96,31.29
		c0,18.05,14.76,32.74,32.81,32.74s32.5-14.69,32.5-32.74c0-14.7-7.35-27.16-23.35-31.29v-42.49l31,10.64v143.54
		c-11,4.12-22.92,16.59-22.92,31.29c0,18.05,14.78,32.74,32.83,32.74s32.47-14.69,32.47-32.74c0-14.7-7.37-27.16-23.37-31.29V402.55
		l31-10.38v41.6c-11,4.12-22.89,16.59-22.89,31.29c0,18.05,14.8,32.74,32.85,32.74c18.05,0,32.44-14.69,32.44-32.74
		c0-14.7-7.4-27.16-23.4-31.29v-48.09l47-15.57v105.11c-16,2.74-27.01,16.12-27.01,32.19c0,18.05,14.66,32.74,32.71,32.74
		c18.05,0,32.64-14.69,32.64-32.74C1836.05,494.18,1828.7,482.78,1816.7,477.62z M1822.64-56.8c7.43,0,13.48,6.05,13.48,13.48
		s-6.05,13.48-13.48,13.48s-13.48-6.05-13.48-13.48S1815.21-56.8,1822.64-56.8z M1560.75-56.8c7.43,0,13.48,6.05,13.48,13.48
		s-6.05,13.48-13.48,13.48s-13.48-6.05-13.48-13.48S1553.32-56.8,1560.75-56.8z M1580,520.9c-7.43,0-13.48-6.05-13.48-13.48
		c0-7.43,6.05-13.48,13.48-13.48c7.43,0,13.48,6.05,13.48,13.48C1593.48,514.85,1587.44,520.9,1580,520.9z M1641.63,478.54
		c-7.43,0-13.48-6.05-13.48-13.48c0-7.43,6.05-13.48,13.48-13.48c7.43,0,13.48,6.05,13.48,13.48
		C1655.11,472.49,1649.06,478.54,1641.63,478.54z M1741.76,478.54c-7.43,0-13.48-6.05-13.48-13.48c0-7.43,6.05-13.48,13.48-13.48
		c7.43,0,13.48,6.05,13.48,13.48C1755.24,472.49,1749.19,478.54,1741.76,478.54z M1761.02-18.29c7.43,0,13.48,6.05,13.48,13.48
		c0,7.43-6.05,13.48-13.48,13.48c-7.43,0-13.48-6.05-13.48-13.48C1747.54-12.24,1753.59-18.29,1761.02-18.29z M1691.69,16.37
		c7.43,0,13.48,6.05,13.48,13.48c0,7.43-6.05,13.48-13.48,13.48s-13.48-6.05-13.48-13.48C1678.21,22.42,1684.26,16.37,1691.69,16.37
		z M1622.37-18.29c7.43,0,13.48,6.05,13.48,13.48c0,7.43-6.05,13.48-13.48,13.48c-7.43,0-13.48-6.05-13.48-13.48
		C1608.89-12.24,1614.94-18.29,1622.37-18.29z M1691.69,590.23c-7.43,0-13.48-6.05-13.48-13.48c0-7.43,6.05-13.48,13.48-13.48
		s13.48,6.05,13.48,13.48C1705.17,584.18,1699.13,590.23,1691.69,590.23z M1692.49,384.34l-37.51-12.63l37.51-36.96l37.49,36.58
		L1692.49,384.34z M1749.79,364.92l-49.1-49.91v-39.16l43.72-27.43l-9.56-68.51h31.84v-19h-58.16l10.91,77h-56.49l14.12-77h-65.47
		l3.85,19h34.66l-13.48,69.95l43.33,26.55l1.93,40.48l-45.41,48.01l-43.18-13.32l26.96-140.57l-39.48-44.29l43.14-49.1l57.77,22.86
		v1.43h3.03l7.73,3.05l7.4-3.05h0.84v-0.98l56.89-23.31l46.31,50.07l-39.52,44.29l28.53,139.61L1749.79,364.92z M1803.38,520.9
		c-7.43,0-13.48-6.05-13.48-13.48c0-7.43,6.05-13.48,13.48-13.48s13.48,6.05,13.48,13.48
		C1816.86,514.85,1810.82,520.9,1803.38,520.9z"/>
	<path class="st2" d="M1477.94,376.48c0-11.19-5.65-21.08-14.24-26.98l14.84-62.34l-35.85-41.35v-111.5
		c16-4.12,23.4-16.59,23.4-31.29c0-18.05-14.54-32.74-32.59-32.74c-18.05,0-32.83,14.69-32.83,32.74c0,14.7,12.02,27.16,23.02,31.29
		v118.63l33.93,40.36l-12.35,52.61c-0.03,0-0.05,0-0.07,0c-18.05,0-32.74,13.6-32.74,31.65c0,18.05,14.69,32.19,32.74,32.19
		S1477.94,394.53,1477.94,376.48z M1433.65,89.55c7.43,0,13.48,6.05,13.48,13.48c0,7.43-6.05,13.48-13.48,13.48
		c-7.43,0-13.48-6.05-13.48-13.48C1420.17,95.6,1426.22,89.55,1433.65,89.55z M1445.21,389.96c-7.43,0-13.48-6.05-13.48-13.48
		c0-7.43,6.05-13.48,13.48-13.48c7.43,0,13.48,6.05,13.48,13.48C1458.69,383.91,1452.64,389.96,1445.21,389.96z"/>
	<path class="st2" d="M1880.12,413.27l-34.9-162.09l44.47-43.98V53.44c16-4.12,23.28-16.59,23.28-31.29
		c0-18.05-14.6-32.74-32.65-32.74c-18.05,0-32.74,14.69-32.74,32.74c0,14.7,11.11,27.16,23.11,31.29v145.7l-46.39,45.74
		l36.88,172.03c-10.33,5.51-17.38,16.39-17.38,28.9c0,18.05,14.69,32.74,32.74,32.74c18.05,0,32.74-14.69,32.74-32.74
		C1909.29,428.96,1896.5,415.05,1880.12,413.27z M1880.41,8.67c7.43,0,13.48,6.05,13.48,13.48s-6.05,13.48-13.48,13.48
		s-13.48-6.05-13.48-13.48S1872.98,8.67,1880.41,8.67z M1876.56,459.28c-7.43,0-13.48-6.05-13.48-13.48
		c0-7.43,6.05-13.48,13.48-13.48c7.43,0,13.48,6.05,13.48,13.48C1890.04,453.23,1883.99,459.28,1876.56,459.28z"/>
</g>
<g>
	<g>
		<path class="st2" d="M1129.13,188.23l-67.4-76.39l-71.25,31.45l-71.89-31.45l-69.65,76.39l46.22,50.55l-29.21,143.3l124.53,43.01
			l123.89-41.72l-29.53-146.35L1129.13,188.23z M990.48,403.91l-48.62-16.37l48.62-33.22l47.18,33.22L990.48,403.91z M1091.1,371.17
			l-30.69,5.78l-65.51-42.37v-39.16l45.61-28.72l-7.67-69.8h28.05v-19h-54.37l10.91,77h-56.49l14.12-77H909.6l3.85,19h34.66
			l-13.48,71.25l43.33,27.2l1.93,40.8l-61.62,40.62l-26.96-5.69l26.96-140.53l-39.48-44.27l43.32-49.09l68.35,26.97l65.44-26.96
			l46.16,50.07l-39.6,44.29L1091.1,371.17z"/>
	</g>
	<g>
		<path class="st2" d="M988.9,562.4L846.26,450.25L734.22,272.83L818.1,40.96l119.8-53.17l51.48,97.07l55.77-97.06l115.66,53.22
			l85.13,235.35l-109.59,175.23L988.9,562.4z M860.77,437.16l128.4,100.96l132.75-99.75l102.72-164.25l-79.2-218.95l-92.36-42.5
			L988.7,124.7L929.29,12.68l-95.88,42.55l-77.88,215.29L860.77,437.16z"/>
	</g>
</g>
<path class="st2" d="M-198.55,88.56L-198.55,88.56C-198.55,88.55-198.55,88.55-198.55,88.56l-0.01-0.01
	c-0.08-0.08-0.16-0.16-0.24-0.24l-0.35-0.35c-0.01-0.01-0.02-0.01-0.02-0.02l-0.01-0.01l0,0c-55.57-54.87-148.81-54.7-204.05,0.54
	l-36.43,36.43l-33.21-33.2c-27.02-27.02-62.47-42.23-99.84-42.82c-37.83-0.68-73.28,13.84-100.09,40.65l-1.1,1.1
	c-56.43,56.42-57.82,150.37-3.05,205.14l232.8,232.8l138.8-138.8l0.65,0.65c3.88-3.88,7.41-7.88,10.68-11.99l90.37-90.37
	C-146.49,230.92-144.33,143.46-198.55,88.56z M-306.34,367.49l-41.1,41.1c9.78-26.06,11.39-49.81,10.39-67.47l0.78-0.26l-1.27-6.3
	c-1.4-14.25-4.26-23.29-4.64-24.41l-0.27,0.09l-19.07-94.53l26.78-29.5c22.58,29.41,49.44,73.57,49.99,117.85
	C-284.46,327.49-291.73,348.76-306.34,367.49z M-602.21,304.05c0.55-44.32,27.47-88.53,50.06-117.94l28.42,31.09l-19.87,97.47
	c-2.88,8.47-14,47.1,2.88,94.03l-29.93-29.93l0,0C-591.94,357.48-602.56,332.34-602.21,304.05z M-683.87,130.98
	c40.77-48.65,115.55-32.81,170.29-11.48c0,0-28.72,28.74-39.82,41.75c-16.26-12.99-52.66-37.19-91.42-30.38
	c-19.77,3.48-37.15,14.47-51.95,32.75C-693.96,152.32-689.64,141.33-683.87,130.98z M-386.27,130.34l39.47,42.82l-33.86,37.88
	l24.5,119.39l-25.72,4.94l-55.5-36.23v-33.48l38.48-22.29l-7.08-57.42h26.6v-16h-49.11l9.33,66h-48.31l12.08-66h-55.99l3.29,16
	h29.64l-11.53,58.65l37.05,22.12l1.65,34.32l-52.7,34.45l-23.06-5.01l23.05-120.25l-33.76-37.89l37.05-42l51.69,20.38
	c1.44,0.85,2.26,1.36,2.37,1.42l0.25-0.4l4.14,1.63l3.85-1.59l0.28,0.47c0.15-0.09,1.55-0.89,3.99-2.23L-386.27,130.34z
	 M-442.21,358.42l-41.58-14l41.58-28.41l40.12,28.25c-5.06,1.44-12.85,3.95-21.83,7.81L-442.21,358.42z M-485.21,403.71
	c-8.16,15.74-10.8,33.16-7.98,52.01c-37.62-42.31-41.99-84.41-39.74-110.52l38.56,13.32l-0.06,0.26c0.08,0.02,1.24,0.29,3.2,0.82
	l19.32,6.67c4.15,1.72,8.63,3.77,13.22,6.17C-469.08,380.7-478.61,390.99-485.21,403.71z M-424.72,370.64l71.21-23.98
	c0.54,26.82-5.9,67.25-39.94,106.82c2.29-17.99-0.47-34.65-8.31-49.77c-6.6-12.73-16.13-23.01-26.52-31.27
	C-427.08,371.82-425.89,371.21-424.72,370.64z M-370.45,120.93c58.62-22.13,140.37-39.85,182.04,10.36l0.26-0.22
	c6,12.1,9.82,25,11.44,38.19c-15.42-20.89-34.14-33.64-55.93-37.96c-42.16-8.35-83.12,17.4-100.53,30.39
	C-344.46,148.42-370.45,120.93-370.45,120.93z M-391.58,100.11c44.98-44.98,118.37-48.72,168.2-11.31
	C-284.84,68.86-366,98.9-411.63,120.16L-391.58,100.11z M-572.96,65.34c33.06,0.53,64.48,14.02,88.46,38l19.98,19.98
	c-40.2-20.65-117.87-53.4-179.59-36.36c20.24-14.07,44.12-21.64,69.16-21.64C-574.29,65.33-573.63,65.33-572.96,65.34z
	 M-700.67,200.56c15.59-31.32,35.3-49.33,58.64-53.46c31.98-5.65,63.88,15.62,78.19,26.95c-24.33,31.18-54.19,79.53-54.84,129.75
	c-0.14,10.55,1.05,20.7,3.5,30.45l-50.12-50.12C-687.88,261.54-699.63,231.39-700.67,200.56z M-469.55,479.87l0.32-0.13
	c-10.93-26.04-11.4-49.05-1.39-68.39c6.39-12.34,16.39-22.1,27.14-29.69c10.74,7.59,20.75,17.34,27.14,29.69
	c9.82,18.98,9.53,41.51-0.82,66.96l-26.98,26.98L-469.55,479.87z M-271.37,332.52c2.17-9.22,3.21-18.8,3.09-28.73
	c-0.64-49.96-30.2-98.08-54.46-129.27c15.7-11.56,51.75-34.02,86.91-27.06c23.88,4.73,43.68,22.62,58.87,53.11
	c-3.7,27.27-16.49,54.03-38.3,75.85L-271.37,332.52z"/>
</svg>
