<?xml version="1.0" encoding="UTF-8" standalone="no"?>
<!-- Generator: Adobe Illustrator 23.0.2, SVG Export Plug-In . SVG Version: 6.00 Build 0)  -->

<svg
   xmlns:dc="http://purl.org/dc/elements/1.1/"
   xmlns:cc="http://creativecommons.org/ns#"
   xmlns:rdf="http://www.w3.org/1999/02/22-rdf-syntax-ns#"
   xmlns:svg="http://www.w3.org/2000/svg"
   xmlns="http://www.w3.org/2000/svg"
   xmlns:sodipodi="http://sodipodi.sourceforge.net/DTD/sodipodi-0.dtd"
   xmlns:inkscape="http://www.inkscape.org/namespaces/inkscape"
   version="1.1"
   id="Camada_1"
   x="0px"
   y="0px"
   viewBox="0 0 604.95 568.76"
   style="enable-background:new 0 0 604.95 568.76;"
   xml:space="preserve"
   sodipodi:docname="desenvolvimentoR.svg"
   inkscape:version="0.92.4 (5da689c313, 2019-01-14)"><metadata
   id="metadata457"><rdf:RDF><cc:Work
       rdf:about=""><dc:format>image/svg+xml</dc:format><dc:type
         rdf:resource="http://purl.org/dc/dcmitype/StillImage" /><dc:title /></cc:Work></rdf:RDF></metadata><defs
   id="defs455" /><sodipodi:namedview
   pagecolor="#ffffff"
   bordercolor="#666666"
   borderopacity="1"
   objecttolerance="10"
   gridtolerance="10"
   guidetolerance="10"
   inkscape:pageopacity="0"
   inkscape:pageshadow="2"
   inkscape:window-width="2560"
   inkscape:window-height="1017"
   id="namedview453"
   showgrid="false"
   inkscape:zoom="0.02593361"
   inkscape:cx="8448.1638"
   inkscape:cy="-324.03905"
   inkscape:window-x="1358"
   inkscape:window-y="-8"
   inkscape:window-maximized="1"
   inkscape:current-layer="Camada_1" />
<style
   type="text/css"
   id="style2">
	.st0{fill:#424242;}
	.st1{fill:#FFFFFF;}
	.st2{fill:#967443;}
</style>










<g
   id="g424"
   style="fill:#d82f5a;fill-opacity:1">
	<path
   class="st2"
   d="M206.11,261.39l-29.21,143.3l124.53,43.01l123.89-41.72l-29.53-146.35l44.29-48.78l-67.4-76.39l-71.25,31.45   l-71.89-31.45l-69.65,76.39L206.11,261.39z M301.44,426.52l-48.62-16.37l48.62-33.22l47.18,33.22L301.44,426.52z M233.06,159.82   l68.35,26.96l65.44-26.96L413,209.88l-39.6,44.29l28.64,139.61l-30.11,5.78l-64.93-42.36v-39.16l45.03-25.83l-8.24-66.92h28.21v-20   h-54.53l10.91,77h-56.49l14.12-77h-65.47l3.85,20h34.66l-13.48,68.36l43.33,25.76l1.93,40.08l-61.62,40.26l-26.96-5.87   l26.96-140.62l-39.48-44.31L233.06,159.82z"
   id="path420"
   style="fill:#d82f5a;fill-opacity:1" />
	<path
   class="st2"
   d="M592.01,217.19l-93-52.23V76.52l-117.9-67l-78.7,44.44L223.78,9.52l-117.77,67v88.43l-92,52.23v133.19   l92,52.91v90.39l123.48,63.78l72.88-41.73l73.01,41.73l123.63-63.78v-90.39l93-52.91V217.19z M381.2,31.66l98.8,56.06v66.35   L322.29,65.02L381.2,31.66z M480.01,176.19v215.93l-177,101.42l-177-101.42V176.19l177-100.11L480.01,176.19z M126.01,87.72   l98.14-56.06l59.24,33.36l-157.38,89.05V87.72z M33.01,339.21V228.42l73-41.35V381.1L33.01,339.21z M229.38,535.54l-103.38-53.59   v-67.64l157.58,90.32L229.38,535.54z M480.01,481.94l-104.04,53.59l-53.87-30.91l157.91-90.32V481.94z M572.01,339.21l-73,41.89   V187.07l73,41.35V339.21z"
   id="path422"
   style="fill:#d82f5a;fill-opacity:1" />
</g>




</svg>