<?xml version="1.0" encoding="UTF-8" standalone="no"?>
<!-- Generator: Adobe Illustrator 23.0.2, SVG Export Plug-In . SVG Version: 6.00 Build 0)  -->

<svg
   xmlns:dc="http://purl.org/dc/elements/1.1/"
   xmlns:cc="http://creativecommons.org/ns#"
   xmlns:rdf="http://www.w3.org/1999/02/22-rdf-syntax-ns#"
   xmlns:svg="http://www.w3.org/2000/svg"
   xmlns="http://www.w3.org/2000/svg"
   xmlns:sodipodi="http://sodipodi.sourceforge.net/DTD/sodipodi-0.dtd"
   xmlns:inkscape="http://www.inkscape.org/namespaces/inkscape"
   version="1.1"
   id="Camada_1"
   x="0px"
   y="0px"
   viewBox="0 0 592.54 704.23"
   style="enable-background:new 0 0 592.54 704.23;"
   xml:space="preserve"
   sodipodi:docname="digitalR.svg"
   inkscape:version="0.92.4 (5da689c313, 2019-01-14)"><metadata
   id="metadata457"><rdf:RDF><cc:Work
       rdf:about=""><dc:format>image/svg+xml</dc:format><dc:type
         rdf:resource="http://purl.org/dc/dcmitype/StillImage" /><dc:title /></cc:Work></rdf:RDF></metadata><defs
   id="defs455" /><sodipodi:namedview
   pagecolor="#ffffff"
   bordercolor="#666666"
   borderopacity="1"
   objecttolerance="10"
   gridtolerance="10"
   guidetolerance="10"
   inkscape:pageopacity="0"
   inkscape:pageshadow="2"
   inkscape:window-width="2560"
   inkscape:window-height="1017"
   id="namedview453"
   showgrid="false"
   inkscape:zoom="0.059241017"
   inkscape:cx="-679.84271"
   inkscape:cy="2753.2538"
   inkscape:window-x="1358"
   inkscape:window-y="-8"
   inkscape:window-maximized="1"
   inkscape:current-layer="Camada_1" />
<style
   type="text/css"
   id="style2">
	.st0{fill:#424242;}
	.st1{fill:#FFFFFF;}
	.st2{fill:#967443;}
</style>












<g
   id="g438"
   style="fill:#d82f5a;fill-opacity:1">
	<path
   class="st2"
   d="M562.76,336.71V218.08c15-4.12,23.02-16.59,23.02-31.29c0-18.05-14.73-32.74-32.78-32.74   s-33.04,14.69-33.04,32.74c0,14.7,11.81,27.16,22.81,31.29v111.5l-35.28,41.35l14.78,60.32c-10.45,5.48-17.53,16.41-17.53,29   c0,18.05,14.72,32.74,32.77,32.74s32.75-14.69,32.75-32.74c0-16.75-12.65-30.58-28.89-32.49l-12.47-51.76L562.76,336.71z    M552.94,173.31c7.43,0,13.48,6.05,13.48,13.48c0,7.43-6.05,13.48-13.48,13.48s-13.48-6.05-13.48-13.48   C539.46,179.36,545.51,173.31,552.94,173.31z M551.02,460.24c0,7.43-6.05,13.48-13.48,13.48c-7.43,0-13.48-6.05-13.48-13.48   c0-7.43,6.05-13.48,13.48-13.48C544.97,446.76,551.02,452.81,551.02,460.24z"
   id="path428"
   style="fill:#d82f5a;fill-opacity:1" />
	<path
   class="st2"
   d="M119.11,501.51l38.53-172.78l-45.88-45.78V137.2c15-4.12,23.21-16.59,23.21-31.29   c0-18.05-14.64-32.74-32.69-32.74c-18.05,0-32.69,14.69-32.69,32.74c0,14.7,11.16,27.16,23.16,31.29v153.71l43.91,43.94   l-36.25,162.07c-17.15,1.01-30.81,15.24-30.81,32.64c0,18.05,14.68,32.74,32.73,32.74s32.74-14.69,32.74-32.74   C135.07,517.65,128.65,507.23,119.11,501.51z M102.33,92.43c7.43,0,13.48,6.05,13.48,13.48s-6.05,13.48-13.48,13.48   s-13.48-6.05-13.48-13.48S94.9,92.43,102.33,92.43z M102.33,543.04c-7.43,0-13.48-6.05-13.48-13.48c0-7.43,6.05-13.48,13.48-13.48   s13.48,6.05,13.48,13.48C115.81,537,109.77,543.04,102.33,543.04z"
   id="path430"
   style="fill:#d82f5a;fill-opacity:1" />
	<path
   class="st2"
   d="M423.76,561.39V444.83l-29.93-143.63l44.33-48.58l-0.1,0.05h0.7V71.73c16-4.12,23.39-16.59,23.39-31.29   c0-18.05-14.54-32.74-32.59-32.74c-18.05,0-32.82,14.69-32.82,32.74c0,14.7,12.02,27.16,23.02,31.29v160.15l-42-48.01v-73.63   c15-4.12,23.08-16.59,23.08-31.29c0-18.05-14.7-32.74-32.75-32.74S335,60.9,335,78.95c0,14.7,11.76,27.16,22.76,31.29v71.25   l-50,22.1V144.9c16-4.12,23.42-16.59,23.42-31.29c0-18.05-14.53-32.74-32.58-32.74c-18.05,0-32.84,14.69-32.84,32.74   c0,14.7,12,27.16,23,31.29v58.03l-50-21.9v-70.79c16-4.12,23.26-16.59,23.26-31.29c0-18.05-14.61-32.74-32.66-32.74   s-32.72,14.69-32.72,32.74c0,14.7,11.12,27.16,23.12,31.29v74.42l-43,46.46V71.73c16-4.12,23.45-16.59,23.45-31.29   c0-18.05-14.52-32.74-32.57-32.74c-18.05,0-32.86,14.69-32.86,32.74c0,14.7,11.98,27.16,22.98,31.29v180.51l0.04,0.18l46.32,50.55   l-29.15,143.3l2.44,113.62c-13.37,4.12-23.1,16.59-23.1,31.29c0,18.05,14.69,32.74,32.74,32.74c18.05,0,32.77-14.69,32.77-32.74   c0-14.7-8.07-27.16-23.07-31.29V453.76l42,14.63v49.14c-11,4.12-22.96,16.59-22.96,31.29c0,18.05,14.76,32.74,32.81,32.74   c18.05,0,32.5-14.69,32.5-32.74c0-14.7-7.35-27.16-23.35-31.29v-42.49l31,10.64v143.54c-11,4.12-22.92,16.59-22.92,31.29   c0,18.05,14.78,32.74,32.83,32.74c18.05,0,32.47-14.69,32.47-32.74c0-14.7-7.37-27.16-23.37-31.29V486.31l31-10.38v41.6   c-11,4.12-22.89,16.59-22.89,31.29c0,18.05,14.8,32.74,32.85,32.74s32.44-14.69,32.44-32.74c0-14.7-7.4-27.16-23.4-31.29v-48.09   l47-15.57v105.11c-16,2.74-27.01,16.12-27.01,32.19c0,18.05,14.66,32.74,32.71,32.74s32.64-14.69,32.64-32.74   C443.11,577.94,435.76,566.54,423.76,561.39z M429.7,26.96c7.43,0,13.48,6.05,13.48,13.48s-6.05,13.48-13.48,13.48   c-7.43,0-13.48-6.05-13.48-13.48S422.27,26.96,429.7,26.96z M167.81,26.96c7.43,0,13.48,6.05,13.48,13.48s-6.05,13.48-13.48,13.48   s-13.48-6.05-13.48-13.48S160.38,26.96,167.81,26.96z M187.06,604.66c-7.43,0-13.48-6.05-13.48-13.48s6.05-13.48,13.48-13.48   c7.43,0,13.48,6.05,13.48,13.48S194.5,604.66,187.06,604.66z M248.69,562.3c-7.43,0-13.48-6.05-13.48-13.48   c0-7.43,6.05-13.48,13.48-13.48c7.43,0,13.48,6.05,13.48,13.48C262.17,556.25,256.12,562.3,248.69,562.3z M348.82,562.3   c-7.43,0-13.48-6.05-13.48-13.48c0-7.43,6.05-13.48,13.48-13.48c7.43,0,13.48,6.05,13.48,13.48   C362.3,556.25,356.25,562.3,348.82,562.3z M368.08,65.47c7.43,0,13.48,6.05,13.48,13.48c0,7.43-6.05,13.48-13.48,13.48   c-7.43,0-13.48-6.05-13.48-13.48C354.6,71.52,360.65,65.47,368.08,65.47z M298.75,100.14c7.43,0,13.48,6.05,13.48,13.48   c0,7.43-6.05,13.48-13.48,13.48c-7.43,0-13.48-6.05-13.48-13.48C285.27,106.18,291.32,100.14,298.75,100.14z M229.43,65.47   c7.43,0,13.48,6.05,13.48,13.48c0,7.43-6.05,13.48-13.48,13.48c-7.43,0-13.48-6.05-13.48-13.48   C215.95,71.52,222,65.47,229.43,65.47z M298.75,673.99c-7.43,0-13.48-6.05-13.48-13.48c0-7.43,6.05-13.48,13.48-13.48   c7.43,0,13.48,6.05,13.48,13.48C312.23,667.94,306.19,673.99,298.75,673.99z M299.55,468.1l-37.51-12.63l37.51-36.96l37.49,36.58   L299.55,468.1z M356.85,448.68l-49.1-49.91v-39.16l43.72-27.43l-9.56-68.51h31.84v-19H315.6l10.91,77h-56.49l14.12-77h-65.47   l3.85,19h34.66l-13.48,69.95l43.33,26.55l1.93,40.48l-45.41,48.01l-43.18-13.32l26.96-140.57l-39.48-44.29l43.14-49.1l57.77,22.86   v1.43h3.03l7.73,3.05l7.4-3.05h0.84v-0.98l56.89-23.31l46.31,50.07l-39.52,44.29l28.53,139.61L356.85,448.68z M410.44,604.66   c-7.43,0-13.48-6.05-13.48-13.48s6.05-13.48,13.48-13.48c7.43,0,13.48,6.05,13.48,13.48S417.87,604.66,410.44,604.66z"
   id="path432"
   style="fill:#d82f5a;fill-opacity:1" />
	<path
   class="st2"
   d="M85,460.24c0-11.19-5.65-21.08-14.24-26.98l14.84-62.34l-35.85-41.35v-111.5c16-4.12,23.4-16.59,23.4-31.29   c0-18.05-14.54-32.74-32.59-32.74S7.74,168.74,7.74,186.79c0,14.7,12.02,27.16,23.02,31.29v118.63l33.93,40.36l-12.35,52.61   c-0.03,0-0.05,0-0.07,0c-18.05,0-32.74,13.6-32.74,31.65c0,18.05,14.69,32.19,32.74,32.19C70.32,493.52,85,478.29,85,460.24z    M40.71,173.31c7.43,0,13.48,6.05,13.48,13.48c0,7.43-6.05,13.48-13.48,13.48c-7.43,0-13.48-6.05-13.48-13.48   C27.23,179.36,33.28,173.31,40.71,173.31z M52.27,473.72c-7.43,0-13.48-6.05-13.48-13.48c0-7.43,6.05-13.48,13.48-13.48   c7.43,0,13.48,6.05,13.48,13.48C65.75,467.67,59.7,473.72,52.27,473.72z"
   id="path434"
   style="fill:#d82f5a;fill-opacity:1" />
	<path
   class="st2"
   d="M487.18,497.03l-34.9-162.09l44.47-43.98V137.2c16-4.12,23.28-16.59,23.28-31.29   c0-18.05-14.6-32.74-32.65-32.74s-32.74,14.69-32.74,32.74c0,14.7,11.11,27.16,23.11,31.29v145.7l-46.39,45.74l36.88,172.03   c-10.33,5.51-17.38,16.39-17.38,28.9c0,18.05,14.69,32.74,32.74,32.74s32.74-14.69,32.74-32.74   C516.35,512.72,503.56,498.81,487.18,497.03z M487.47,92.43c7.43,0,13.48,6.05,13.48,13.48s-6.05,13.48-13.48,13.48   c-7.43,0-13.48-6.05-13.48-13.48S480.04,92.43,487.47,92.43z M483.62,543.04c-7.43,0-13.48-6.05-13.48-13.48   c0-7.43,6.05-13.48,13.48-13.48c7.43,0,13.48,6.05,13.48,13.48C497.1,537,491.05,543.04,483.62,543.04z"
   id="path436"
   style="fill:#d82f5a;fill-opacity:1" />
</g>


</svg>