<?xml version="1.0" encoding="UTF-8" standalone="no"?>
<!-- Generator: Adobe Illustrator 23.0.2, SVG Export Plug-In . SVG Version: 6.00 Build 0)  -->

<svg
   xmlns:dc="http://purl.org/dc/elements/1.1/"
   xmlns:cc="http://creativecommons.org/ns#"
   xmlns:rdf="http://www.w3.org/1999/02/22-rdf-syntax-ns#"
   xmlns:svg="http://www.w3.org/2000/svg"
   xmlns="http://www.w3.org/2000/svg"
   xmlns:sodipodi="http://sodipodi.sourceforge.net/DTD/sodipodi-0.dtd"
   xmlns:inkscape="http://www.inkscape.org/namespaces/inkscape"
   version="1.1"
   id="Camada_1"
   x="0px"
   y="0px"
   viewBox="0 0 592.54 704.23"
   style="enable-background:new 0 0 592.54 704.23;"
   xml:space="preserve"
   sodipodi:docname="digitalR.svg"
   inkscape:version="0.92.4 (5da689c313, 2019-01-14)"><metadata
   id="metadata457"><rdf:RDF><cc:Work
       rdf:about=""><dc:format>image/svg+xml</dc:format><dc:type
         rdf:resource="http://purl.org/dc/dcmitype/StillImage" /><dc:title></dc:title></cc:Work></rdf:RDF></metadata><defs
   id="defs455" /><sodipodi:namedview
   pagecolor="#ffffff"
   bordercolor="#666666"
   borderopacity="1"
   objecttolerance="10"
   gridtolerance="10"
   guidetolerance="10"
   inkscape:pageopacity="0"
   inkscape:pageshadow="2"
   inkscape:window-width="1366"
   inkscape:window-height="705"
   id="namedview453"
   showgrid="false"
   inkscape:zoom="0.3351178"
   inkscape:cx="296.26999"
   inkscape:cy="352.11499"
   inkscape:window-x="-8"
   inkscape:window-y="-8"
   inkscape:window-maximized="1"
   inkscape:current-layer="Camada_1" />
<style
   type="text/css"
   id="style2">
	.st0{fill:#424242;}
	.st1{fill:#FFFFFF;}
	.st2{fill:#967443;}
</style>
<g
   id="g48">
	<g
   id="g6">
		<path
   class="st0"
   d="M61.37-1504.29c-156.34,0-283.53-127.19-283.53-283.53s127.19-283.53,283.53-283.53    c34.62,0,68.45,6.17,100.56,18.35l-6.28,16.56c-30.09-11.4-61.81-17.19-94.28-17.19c-146.57,0-265.81,119.24-265.81,265.81    s119.24,265.81,265.81,265.81s265.81-119.24,265.81-265.81c0-32.48-5.79-64.21-17.21-94.3l16.57-6.28    c12.19,32.1,18.37,65.95,18.37,100.59C344.89-1631.49,217.7-1504.29,61.37-1504.29z"
   id="path4" />
	</g>
	<g
   id="g10">
		
			<rect
   x="4.48"
   y="-1934.01"
   transform="matrix(0.7071 -0.7071 0.7071 0.7071 1419.4862 -423.3625)"
   class="st0"
   width="388.44"
   height="17.72"
   id="rect8" />
	</g>
	<g
   id="g14">
		<polygon
   class="st0"
   points="344.89,-2000.46 274.01,-2000.46 274.01,-2071.35 291.73,-2071.35 291.73,-2018.18 344.89,-2018.18       "
   id="polygon12" />
	</g>
	<g
   id="g18">
		<polygon
   class="st0"
   points="309.45,-1965.02 238.57,-1965.02 238.57,-2035.91 256.29,-2035.91 256.29,-1982.74 309.45,-1982.74       "
   id="polygon16" />
	</g>
	<g
   id="g22">
		<path
   class="st0"
   d="M61.37-1557.45c-127.02,0-230.37-103.34-230.37-230.37s103.34-230.37,230.37-230.37    s230.37,103.34,230.37,230.37S188.39-1557.45,61.37-1557.45z M61.37-2000.46c-117.25,0-212.64,95.39-212.64,212.64    c0,117.25,95.39,212.65,212.64,212.65s212.64-95.39,212.64-212.65C274.01-1905.07,178.62-2000.46,61.37-2000.46z"
   id="path20" />
	</g>
	<g
   id="g26">
		<path
   class="st0"
   d="M61.37-1610.62c-97.71,0-177.2-79.49-177.2-177.2c0-97.71,79.5-177.2,177.2-177.2s177.2,79.49,177.2,177.2    C238.57-1690.11,159.07-1610.62,61.37-1610.62z M61.37-1947.3c-87.94,0-159.48,71.55-159.48,159.48s71.54,159.48,159.48,159.48    s159.48-71.55,159.48-159.48S149.31-1947.3,61.37-1947.3z"
   id="path24" />
	</g>
	<g
   id="g30">
		<path
   class="st0"
   d="M61.37-1663.78c-68.4,0-124.04-55.64-124.04-124.04c0-68.4,55.64-124.04,124.04-124.04    s124.04,55.64,124.04,124.04C185.41-1719.42,129.76-1663.78,61.37-1663.78z M61.37-1894.14c-58.63,0-106.32,47.69-106.32,106.32    S2.74-1681.5,61.37-1681.5s106.32-47.69,106.32-106.32S119.99-1894.14,61.37-1894.14z"
   id="path28" />
	</g>
	<g
   id="g34">
		<path
   class="st0"
   d="M61.37-1716.94c-39.08,0-70.88-31.8-70.88-70.88s31.8-70.88,70.88-70.88c39.08,0,70.88,31.8,70.88,70.88    S100.45-1716.94,61.37-1716.94z M61.37-1840.98c-29.31,0-53.16,23.85-53.16,53.16c0,29.31,23.85,53.16,53.16,53.16    c29.31,0,53.16-23.85,53.16-53.16C114.53-1817.13,90.68-1840.98,61.37-1840.98z"
   id="path32" />
	</g>
	<g
   id="g38">
		<circle
   class="st0"
   cx="61.37"
   cy="-1787.82"
   r="17.72"
   id="circle36" />
	</g>
	<g
   id="g42">
		<path
   class="st0"
   d="M-177.86-1504.29h-35.44c-3.07,0-5.92-1.59-7.54-4.21s-1.76-5.88-0.39-8.62l53.16-106.32l15.85,7.93    l-46.75,93.5h17.43l59.43-59.43l12.53,12.53l-62.02,62.02C-173.26-1505.23-175.51-1504.29-177.86-1504.29z"
   id="path40" />
	</g>
	<g
   id="g46">
		<path
   class="st0"
   d="M336.03-1504.29h-35.44c-2.35,0-4.6-0.93-6.26-2.6l-62.02-62.02l12.53-12.53l59.43,59.43h17.43l-46.75-93.5    l15.85-7.93l53.16,106.32c1.37,2.74,1.22,6.01-0.39,8.62S339.1-1504.29,336.03-1504.29z"
   id="path44" />
	</g>
</g>
<g
   id="g110">
	<g
   id="g52">
		<path
   class="st0"
   d="M1556.21-1500.31H950.26l-50.68-44.38v-33.04h280.87l22.1,19.35h101.37l22.1-19.35h280.87v33.04    L1556.21-1500.31z M959.41-1519.66h587.65l37.73-33.04v-5.67h-249.62l-22.1,19.35H1193.4l-22.1-19.35H921.68v5.67L959.41-1519.66z    "
   id="path50" />
	</g>
	<g
   id="g56">
		<path
   class="st0"
   d="M965.88-1597.08h-22.1v-290.31c0-21.35,19.83-38.71,44.21-38.71h132.62v19.35H987.99    c-12.19,0-22.1,8.68-22.1,19.35V-1597.08z"
   id="path54" />
	</g>
	<g
   id="g60">
		<path
   class="st0"
   d="M1562.69-1597.08h-22.1v-290.31c0-10.67-9.91-19.35-22.1-19.35h-132.62v-19.35h132.62    c24.38,0,44.21,17.36,44.21,38.71V-1597.08z"
   id="path58" />
	</g>
	<g
   id="g64">
		<polygon
   class="st0"
   points="1076.4,-1616.43 987.99,-1616.43 987.99,-1887.39 1142.71,-1887.39 1142.71,-1868.03     1010.09,-1868.03 1010.09,-1635.79 1076.4,-1635.79   "
   id="polygon62" />
	</g>
	<g
   id="g68">
		<rect
   x="1231.13"
   y="-1732.56"
   class="st0"
   width="77.36"
   height="19.35"
   id="rect66" />
	</g>
	<g
   id="g72">
		<rect
   x="1231.13"
   y="-1887.39"
   class="st0"
   width="77.36"
   height="19.35"
   id="rect70" />
	</g>
	<g
   id="g76">
		<polygon
   class="st0"
   points="1518.48,-1616.43 1098.51,-1616.43 1098.51,-1674.49 1407.96,-1674.49 1407.96,-1655.14     1120.61,-1655.14 1120.61,-1635.79 1496.37,-1635.79 1496.37,-1868.03 1363.75,-1868.03 1363.75,-1887.39 1518.48,-1887.39   "
   id="polygon74" />
	</g>
	<g
   id="g80">
		<polygon
   class="st0"
   points="1164.82,-1664.82 1142.71,-1664.82 1142.71,-1688.18 1186.92,-1726.89 1186.92,-1873.7     1142.71,-1912.41 1142.71,-1945.45 1197.97,-1945.45 1197.97,-1974.48 1220.08,-1974.48 1220.08,-1926.09 1164.82,-1926.09     1164.82,-1920.42 1209.03,-1881.72 1209.03,-1718.87 1164.82,-1680.16   "
   id="polygon78" />
	</g>
	<g
   id="g84">
		<polygon
   class="st0"
   points="1363.75,-1664.82 1341.65,-1664.82 1341.65,-1680.16 1297.44,-1718.87 1297.44,-1881.72     1341.65,-1920.42 1341.65,-1926.09 1242.18,-1926.09 1242.18,-1945.45 1363.75,-1945.45 1363.75,-1912.41 1319.54,-1873.7     1319.54,-1726.89 1363.75,-1688.18   "
   id="polygon82" />
	</g>
	<g
   id="g88">
		<rect
   x="1286.39"
   y="-1974.48"
   class="st0"
   width="22.1"
   height="38.71"
   id="rect86" />
	</g>
	<g
   id="g92">
		<polygon
   class="st0"
   points="1341.65,-2003.51 1275.34,-2003.51 1275.34,-2042.22 1231.13,-2042.22 1231.13,-2003.51     1164.82,-2003.51 1164.82,-2022.86 1209.03,-2022.86 1209.03,-2061.57 1297.44,-2061.57 1297.44,-2022.86 1341.65,-2022.86   "
   id="polygon90" />
	</g>
	<g
   id="g96">
		<polygon
   class="st0"
   points="1357.28,-1964.8 1149.19,-1964.8 1120.61,-1989.83 1120.61,-2061.57 1186.92,-2061.57     1186.92,-2042.22 1142.71,-2042.22 1142.71,-1997.84 1158.34,-1984.16 1348.12,-1984.16 1363.75,-1997.84 1363.75,-2042.22     1319.54,-2042.22 1319.54,-2061.57 1385.86,-2061.57 1385.86,-1989.83   "
   id="polygon94" />
	</g>
	<g
   id="g100">
		<rect
   x="1242.18"
   y="-1819.65"
   class="st0"
   width="22.1"
   height="19.35"
   id="rect98" />
	</g>
	<g
   id="g104">
		<rect
   x="1242.18"
   y="-1858.36"
   class="st0"
   width="22.1"
   height="19.35"
   id="rect102" />
	</g>
	<g
   id="g108">
		<rect
   x="1242.18"
   y="-1780.94"
   class="st0"
   width="22.1"
   height="19.35"
   id="rect106" />
	</g>
</g>
<g
   id="g198">
	<g
   id="g196">
		<g
   id="g114">
			<path
   class="st0"
   d="M2390.37-1774.32h-219.41c-4.85,0-8.78-3.93-8.78-8.78v-245.74c0-4.85,3.93-8.78,8.78-8.78h245.74     c4.85,0,8.78,3.93,8.78,8.78v219.41h-17.55v-210.63h-228.19v228.19h210.64V-1774.32z"
   id="path112" />
		</g>
		<g
   id="g118">
			<path
   class="st0"
   d="M2715.1-1774.32h-219.41v-17.55h210.64v-228.19h-228.19v210.63h-17.55v-219.41c0-4.85,3.93-8.78,8.78-8.78     h245.74c4.85,0,8.78,3.93,8.78,8.78v245.74C2723.88-1778.25,2719.95-1774.32,2715.1-1774.32z"
   id="path116" />
		</g>
		<g
   id="g122">
			<path
   class="st0"
   d="M2416.7-1475.92h-245.74c-4.85,0-8.78-3.93-8.78-8.78v-245.74c0-4.85,3.93-8.78,8.78-8.78h219.41v17.55     h-210.64v228.19h228.19v-210.63h17.55v219.41C2425.48-1479.85,2421.55-1475.92,2416.7-1475.92z"
   id="path120" />
		</g>
		<g
   id="g126">
			<path
   class="st0"
   d="M2715.1-1475.92h-245.74c-4.85,0-8.78-3.93-8.78-8.78v-219.41h17.55v210.63h228.19v-228.19h-210.64v-17.55     h219.41c4.85,0,8.78,3.93,8.78,8.78v245.74C2723.88-1479.85,2719.95-1475.92,2715.1-1475.92z"
   id="path124" />
		</g>
		<g
   id="g130">
			<path
   class="st0"
   d="M2364.04-1914.75h-26.33v-17.55h17.55v-35.11H2232.4v35.11h17.55v17.55h-26.33c-4.85,0-8.78-3.93-8.78-8.78     v-52.66c0-4.85,3.93-8.78,8.78-8.78h140.42c4.85,0,8.78,3.93,8.78,8.78v52.66C2372.82-1918.67,2368.89-1914.75,2364.04-1914.75z"
   id="path128" />
		</g>
		<g
   id="g134">
			<path
   class="st0"
   d="M2320.16-1835.76h-17.55v-105.32c0-4.85,3.93-8.78,8.78-8.78h26.33v17.55h-17.55V-1835.76z"
   id="path132" />
		</g>
		<g
   id="g138">
			<path
   class="st0"
   d="M2285.06-1835.76h-17.55v-96.54h-17.55v-17.55h26.33c4.85,0,8.78,3.93,8.78,8.78V-1835.76z"
   id="path136" />
		</g>
		<g
   id="g142">
			<rect
   x="2258.73"
   y="-1844.53"
   class="st0"
   width="70.21"
   height="17.55"
   id="rect140" />
		</g>
		<g
   id="g146">
			<path
   class="st0"
   d="M2629.91-1776.89l-99.11-99.11l-55.23,55.23l-12.41-12.41l61.44-61.44c3.43-3.43,8.98-3.43,12.41,0     l105.32,105.32L2629.91-1776.89z"
   id="path144" />
		</g>
		<g
   id="g150">
			<path
   class="st0"
   d="M2580.88-1838.33l-12.41-12.41l87.76-87.76c3.43-3.43,8.98-3.43,12.41,0l52.66,52.66l-12.41,12.41     l-46.45-46.45L2580.88-1838.33z"
   id="path148" />
		</g>
		<g
   id="g154">
			<path
   class="st0"
   d="M2574.68-1914.75c-19.36,0-35.11-15.74-35.11-35.11s15.74-35.11,35.11-35.11s35.11,15.74,35.11,35.11     S2594.04-1914.75,2574.68-1914.75z M2574.68-1967.4c-9.68,0-17.55,7.88-17.55,17.55s7.88,17.55,17.55,17.55     s17.55-7.88,17.55-17.55S2584.35-1967.4,2574.68-1967.4z"
   id="path152" />
		</g>
		<g
   id="g158">
			<rect
   x="2214.84"
   y="-1686.56"
   class="st0"
   width="157.98"
   height="17.55"
   id="rect156" />
		</g>
		<g
   id="g162">
			<rect
   x="2214.84"
   y="-1651.45"
   class="st0"
   width="157.98"
   height="17.55"
   id="rect160" />
		</g>
		<g
   id="g166">
			<rect
   x="2214.84"
   y="-1616.35"
   class="st0"
   width="157.98"
   height="17.55"
   id="rect164" />
		</g>
		<g
   id="g170">
			<rect
   x="2214.84"
   y="-1581.24"
   class="st0"
   width="157.98"
   height="17.55"
   id="rect168" />
		</g>
		<g
   id="g174">
			<rect
   x="2214.84"
   y="-1546.13"
   class="st0"
   width="87.76"
   height="17.55"
   id="rect172" />
		</g>
		<g
   id="g178">
			
				<rect
   x="2577.38"
   y="-1682.17"
   transform="matrix(0.7071 -0.7071 0.7071 0.7071 1961.7941 1389.4034)"
   class="st0"
   width="161.35"
   height="17.55"
   id="rect176" />
		</g>
		<g
   id="g182">
			<path
   class="st0"
   d="M2522.02-1528.58c-2.28,0-4.53-0.89-6.2-2.57c-2.57-2.57-3.29-6.45-1.82-9.77l35.11-78.99     c0.44-0.99,1.05-1.88,1.82-2.64l114.09-114.09l12.41,12.41l-112.94,112.95l-25.18,56.64l56.64-25.18l112.95-112.94l12.41,12.41     l-114.09,114.09c-0.76,0.76-1.65,1.38-2.64,1.82l-78.99,35.11C2524.44-1528.83,2523.23-1528.58,2522.02-1528.58z"
   id="path180" />
		</g>
		<g
   id="g186">
			
				<rect
   x="2570.29"
   y="-1625.43"
   transform="matrix(0.7071 -0.7071 0.7071 0.7071 1882.8059 1356.6855)"
   class="st0"
   width="17.55"
   height="62.06"
   id="rect184" />
		</g>
		<g
   id="g190">
			<rect
   x="2522.02"
   y="-1546.13"
   class="st0"
   width="149.2"
   height="17.55"
   id="rect188" />
		</g>
		<g
   id="g194">
			<path
   class="st0"
   d="M2469.36-1721.66h-52.66c-4.85,0-8.78-3.93-8.78-8.78v-52.66c0-4.85,3.93-8.78,8.78-8.78h52.66     c4.85,0,8.78,3.93,8.78,8.78v52.66C2478.14-1725.59,2474.21-1721.66,2469.36-1721.66z M2425.48-1739.22h35.11v-35.11h-35.11     V-1739.22z"
   id="path192" />
		</g>
	</g>
</g>
<g
   id="g250">
	<g
   id="g248">
		<g
   id="g228">
			<g
   id="g202">
				<path
   class="st0"
   d="M-1108.27-1716.72c-55.21,0-100.13-44.91-100.13-100.13c0-55.21,44.91-100.13,100.13-100.13      c55.21,0,100.13,44.91,100.13,100.13C-1008.14-1761.63-1053.06-1716.72-1108.27-1716.72z M-1108.27-1896.94      c-44.17,0-80.1,35.93-80.1,80.1c0,44.17,35.93,80.1,80.1,80.1c44.17,0,80.1-35.93,80.1-80.1      C-1028.17-1861.01-1064.1-1896.94-1108.27-1896.94z"
   id="path200" />
			</g>
			<g
   id="g226">
				<g
   id="g220">
					<g
   id="g206">
						<rect
   x="-1208.39"
   y="-1646.63"
   class="st0"
   width="200.25"
   height="20.03"
   id="rect204" />
					</g>
					<g
   id="g210">
						<rect
   x="-1208.39"
   y="-1606.58"
   class="st0"
   width="200.25"
   height="20.03"
   id="rect208" />
					</g>
					<g
   id="g214">
						<polygon
   class="st0"
   points="-1082.89,-1516.47 -1133.65,-1516.47 -1153.68,-1546.51 -1208.39,-1546.51 -1208.39,-1566.53         -1142.96,-1566.53 -1122.94,-1536.49 -1093.6,-1536.49 -1073.58,-1566.53 -1008.14,-1566.53 -1008.14,-1546.51         -1062.86,-1546.51       "
   id="polygon212" />
					</g>
					<g
   id="g218">
						<path
   class="st0"
   d="M-1028.17-1556.52h-20.03v-136.94l6.29-2.52c45.53-18.21,73.81-64.52,73.81-120.86        c0-77.29-62.88-140.18-140.18-140.18c-77.29,0-140.18,62.88-140.18,140.18c0,56.34,28.28,102.66,73.81,120.86l6.29,2.52        v136.94h-20.03v-123.58c-49.59-22.89-80.1-74.63-80.1-136.75c0-88.33,71.87-160.2,160.2-160.2        c88.33,0,160.2,71.87,160.2,160.2c0,62.12-30.51,113.85-80.1,136.75V-1556.52z"
   id="path216" />
					</g>
				</g>
				<g
   id="g224">
					<polygon
   class="st0"
   points="-1090.99,-1759.89 -1131.04,-1839.99 -1164.2,-1806.83 -1228.42,-1806.83 -1228.42,-1826.86        -1172.49,-1826.86 -1125.55,-1873.8 -1085.5,-1793.7 -1052.34,-1826.86 -988.12,-1826.86 -988.12,-1806.83 -1044.05,-1806.83             "
   id="polygon222" />
				</g>
			</g>
		</g>
		<g
   id="g246">
			<g
   id="g232">
				<path
   class="st0"
   d="M-1389.19-1863.35l-18.72-7.11c46.94-123.64,167.36-206.71,299.65-206.71h24.17l-67.15,67.15l-14.16-14.16      l31.89-31.89C-1247.39-2046.32-1348.19-1971.34-1389.19-1863.35z"
   id="path230" />
			</g>
			<g
   id="g236">
				<path
   class="st0"
   d="M-787.87-1732.6l-67.15-67.15l14.16-14.16l31.89,31.89c-9.74-113.89-84.73-214.68-192.74-255.68l7.11-18.72      c123.65,46.93,206.74,167.35,206.74,299.65V-1732.6z"
   id="path234" />
			</g>
			<g
   id="g240">
				<path
   class="st0"
   d="M-1108.27-1436.37h-24.17l67.16-67.15l14.16,14.16l-31.89,31.89c113.87-9.74,214.67-84.72,255.67-192.71      l18.72,7.11C-855.57-1519.44-975.98-1436.37-1108.27-1436.37z"
   id="path238" />
			</g>
			<g
   id="g244">
				<path
   class="st0"
   d="M-1221.99-1457.14c-123.62-46.95-206.68-167.36-206.68-299.63v-24.17l67.15,67.15l-14.16,14.16      l-31.89-31.89c9.74,113.86,84.71,214.66,192.68,255.66L-1221.99-1457.14z"
   id="path242" />
			</g>
		</g>
	</g>
</g>
<g
   id="g290">
	<g
   id="g288">
		<g
   id="g254">
			<path
   class="st0"
   d="M-2024.05-1539.42c-1.02,0-2.05-0.15-3.04-0.45l-538.2-165.6c-5.46-1.69-8.53-7.48-6.85-12.94     c1.67-5.47,7.49-8.54,12.93-6.85l524.81,161.49v-365.28l-524.81,161.49c-5.44,1.67-11.26-1.4-12.93-6.85     c-1.68-5.46,1.38-11.25,6.85-12.94l538.2-165.6c3.12-0.95,6.54-0.38,9.19,1.57c2.64,1.95,4.2,5.04,4.2,8.33v393.3     c0,3.29-1.56,6.38-4.2,8.33C-2019.71-1540.12-2021.87-1539.42-2024.05-1539.42z"
   id="path252" />
		</g>
		<g
   id="g258">
			<path
   class="st0"
   d="M-2582.95-1684.32c-17.12,0-31.05-13.93-31.05-31.05v-62.1c0-17.12,13.93-31.05,31.05-31.05     c17.12,0,31.05,13.93,31.05,31.05v62.1C-2551.9-1698.25-2565.83-1684.32-2582.95-1684.32z M-2582.95-1787.82     c-5.71,0-10.35,4.64-10.35,10.35v62.1c0,5.71,4.64,10.35,10.35,10.35c5.71,0,10.35-4.64,10.35-10.35v-62.1     C-2572.6-1783.18-2577.25-1787.82-2582.95-1787.82z"
   id="path256" />
		</g>
		<g
   id="g262">
			<path
   class="st0"
   d="M-1993-1508.37c-22.83,0-41.4-18.57-41.4-41.4v-393.3c0-22.83,18.57-41.4,41.4-41.4     c22.83,0,41.4,18.57,41.4,41.4v393.3C-1951.6-1526.94-1970.18-1508.37-1993-1508.37z M-1993-1963.77     c-11.42,0-20.7,9.29-20.7,20.7v393.3c0,11.41,9.28,20.7,20.7,20.7c11.42,0,20.7-9.29,20.7-20.7v-393.3     C-1972.3-1954.48-1981.59-1963.77-1993-1963.77z"
   id="path260" />
		</g>
		<g
   id="g266">
			<rect
   x="-2179.3"
   y="-1756.77"
   class="st0"
   width="20.7"
   height="20.7"
   id="rect264" />
		</g>
		<g
   id="g270">
			<rect
   x="-2137.9"
   y="-1756.77"
   class="st0"
   width="20.7"
   height="20.7"
   id="rect268" />
		</g>
		<g
   id="g274">
			<rect
   x="-2096.5"
   y="-1756.77"
   class="st0"
   width="20.7"
   height="20.7"
   id="rect272" />
		</g>
		<g
   id="g278">
			<path
   class="st0"
   d="M-2334.55-1570.47c-1.25,0-2.51-0.22-3.71-0.69l-134.55-51.75c-4-1.54-6.64-5.38-6.64-9.66v-51.75h20.7     v44.64l113.85,43.78v-47.03h20.7v62.1c0,3.41-1.68,6.6-4.49,8.53C-2330.44-1571.09-2332.49-1570.47-2334.55-1570.47z"
   id="path276" />
		</g>
		<g
   id="g282">
			<path
   class="st0"
   d="M-2293.15-1508.37c-1.24,0-2.49-0.22-3.68-0.68l-217.35-82.8c-4.01-1.53-6.67-5.38-6.67-9.67v-93.15h20.7     v86.01l196.65,74.92v-98.83h20.7v113.85c0,3.41-1.67,6.59-4.48,8.52C-2289.03-1508.99-2291.09-1508.37-2293.15-1508.37z"
   id="path280" />
		</g>
		<g
   id="g286">
			<rect
   x="-2241.4"
   y="-1880.97"
   class="st0"
   width="20.7"
   height="269.1"
   id="rect284" />
		</g>
	</g>
</g>
<g
   id="g326">
	<path
   class="st1"
   d="M-2735.89,986.19h40.54v11.88h-26.71v7.63h24.19v11.02h-24.19v7.99h27.07v11.88h-40.9V986.19z"
   id="path292" />
	<path
   class="st1"
   d="M-2691.89,986.19h15.63l11.45,31.9l11.45-31.9h15.34l-20.45,50.76h-12.96L-2691.89,986.19z"
   id="path294" />
	<path
   class="st1"
   d="M-2633.14,986.19h40.54v11.88h-26.71v7.63h24.19v11.02h-24.19v7.99h27.07v11.88h-40.9V986.19z"
   id="path296" />
	<path
   class="st1"
   d="M-2585.12,986.19h13.03l20.74,26.64v-26.64h13.83v50.4h-12.24l-21.53-27.65v27.65h-13.83V986.19z"
   id="path298" />
	<path
   class="st1"
   d="M-2516.29,998.43h-15.12v-12.24h44.21v12.24h-15.12v38.16h-13.97V998.43z"
   id="path300" />
	<path
   class="st1"
   d="M-2484.97,1011.53v-0.14c0-14.47,11.67-26.21,27.22-26.21c15.55,0,27.07,11.59,27.07,26.07v0.14   c0,14.47-11.67,26.21-27.22,26.21C-2473.45,1037.6-2484.97,1026.01-2484.97,1011.53z M-2444.93,1011.53v-0.14   c0-7.27-5.26-13.61-12.96-13.61c-7.63,0-12.75,6.19-12.75,13.46v0.14c0,7.27,5.26,13.61,12.89,13.61   C-2450.05,1025-2444.93,1018.81-2444.93,1011.53z"
   id="path302" />
	<path
   class="st1"
   d="M-2427.58,1029.1l7.78-9.29c4.97,3.96,10.51,6.05,16.34,6.05c3.75,0,5.76-1.3,5.76-3.46v-0.14   c0-2.09-1.66-3.24-8.5-4.82c-10.73-2.45-19.01-5.47-19.01-15.84v-0.14c0-9.36,7.42-16.13,19.51-16.13c8.57,0,15.26,2.3,20.74,6.7   l-6.98,9.87c-4.61-3.24-9.65-4.97-14.11-4.97c-3.38,0-5.04,1.44-5.04,3.24v0.14c0,2.3,1.73,3.31,8.71,4.9   c11.59,2.52,18.79,6.26,18.79,15.7v0.14c0,10.3-8.14,16.42-20.38,16.42C-2412.9,1037.46-2421.39,1034.65-2427.58,1029.1z"
   id="path304" />
	<path
   class="st1"
   d="M-2356.88,986.19h40.54v11.88h-26.71v7.63h24.19v11.02h-24.19v7.99h27.07v11.88h-40.9V986.19z"
   id="path306" />
	<path
   class="st1"
   d="M-2288.91,986.19h21.6c12.75,0,20.95,6.55,20.95,17.71v0.14c0,11.88-9.15,18.15-21.67,18.15h-6.91v14.4h-13.97   V986.19z M-2268.32,1011.25c4.97,0,7.99-2.59,7.99-6.55v-0.14c0-4.32-3.02-6.62-8.06-6.62h-6.55v13.32H-2268.32z"
   id="path308" />
	<path
   class="st1"
   d="M-2240.46,986.19h23.83c7.7,0,13.03,2.02,16.42,5.47c2.95,2.88,4.46,6.77,4.46,11.74v0.14   c0,7.7-4.1,12.82-10.37,15.48l12.02,17.57h-16.13l-10.15-15.27h-0.14h-5.98v15.27h-13.97V986.19z M-2217.27,1010.38   c4.75,0,7.49-2.3,7.49-5.98v-0.14c0-3.96-2.88-5.98-7.56-5.98h-9.14v12.1H-2217.27z"
   id="path310" />
	<path
   class="st1"
   d="M-2190.42,1011.53v-0.14c0-14.47,11.67-26.21,27.22-26.21c15.55,0,27.07,11.59,27.07,26.07v0.14   c0,14.47-11.67,26.21-27.22,26.21S-2190.42,1026.01-2190.42,1011.53z M-2150.39,1011.53v-0.14c0-7.27-5.26-13.61-12.96-13.61   c-7.63,0-12.75,6.19-12.75,13.46v0.14c0,7.27,5.26,13.61,12.89,13.61C-2155.5,1025-2150.39,1018.81-2150.39,1011.53z"
   id="path312" />
	<path
   class="st1"
   d="M-2128.86,986.19h14.76l12.03,19.51l12.02-19.51h14.76v50.4h-13.9v-28.95l-12.89,19.73h-0.29l-12.82-19.59   v28.8h-13.68V986.19z"
   id="path314" />
	<path
   class="st1"
   d="M-2068.09,1011.53v-0.14c0-14.47,11.67-26.21,27.22-26.21c15.55,0,27.07,11.59,27.07,26.07v0.14   c0,14.47-11.67,26.21-27.22,26.21S-2068.09,1026.01-2068.09,1011.53z M-2028.06,1011.53v-0.14c0-7.27-5.26-13.61-12.96-13.61   c-7.63,0-12.75,6.19-12.75,13.46v0.14c0,7.27,5.26,13.61,12.89,13.61C-2033.17,1025-2028.06,1018.81-2028.06,1011.53z"
   id="path316" />
	<path
   class="st1"
   d="M-1994.44,1044.44l5.62-7.63c-11.23-2.81-19.44-12.6-19.44-25.27v-0.14c0-14.69,11.3-26.21,26.57-26.21   c10.3,0,16.92,4.32,21.39,10.51l-10.51,8.14c-2.88-3.6-6.19-5.9-11.02-5.9c-7.06,0-12.02,5.98-12.02,13.32v0.14   c0,7.56,4.97,13.46,12.02,13.46c5.26,0,8.35-2.45,11.38-6.12l10.51,7.49c-4.32,5.98-10.08,10.44-19.59,11.23l-4.03,11.59   L-1994.44,1044.44z"
   id="path318" />
	<path
   class="st1"
   d="M-1955.7,1011.53v-0.14c0-14.47,11.67-26.21,27.22-26.21c15.55,0,27.08,11.59,27.08,26.07v0.14   c0,14.47-11.67,26.21-27.22,26.21S-1955.7,1026.01-1955.7,1011.53z M-1943.68,981.51c1.51-7.13,3.96-10.73,8.93-10.73   c4.32,0,8.93,2.81,11.23,2.81c2.02,0,2.74-1.08,3.67-3.31l6.55,1.8c-1.51,7.13-3.96,10.73-8.93,10.73c-4.32,0-8.93-2.81-11.23-2.81   c-2.02,0-2.74,1.08-3.67,3.31L-1943.68,981.51z M-1915.67,1011.53v-0.14c0-7.27-5.26-13.61-12.96-13.61   c-7.63,0-12.75,6.19-12.75,13.46v0.14c0,7.27,5.26,13.61,12.89,13.61C-1920.78,1025-1915.67,1018.81-1915.67,1011.53z"
   id="path320" />
	<path
   class="st1"
   d="M-1894.14,986.19h40.54v11.88h-26.71v7.63h24.19v11.02h-24.19v7.99h27.07v11.88h-40.9V986.19z"
   id="path322" />
	<path
   class="st1"
   d="M-1849.93,1029.1l7.78-9.29c4.97,3.96,10.51,6.05,16.35,6.05c3.74,0,5.76-1.3,5.76-3.46v-0.14   c0-2.09-1.66-3.24-8.5-4.82c-10.73-2.45-19.01-5.47-19.01-15.84v-0.14c0-9.36,7.42-16.13,19.51-16.13c8.57,0,15.27,2.3,20.74,6.7   l-6.98,9.87c-4.61-3.24-9.65-4.97-14.11-4.97c-3.38,0-5.04,1.44-5.04,3.24v0.14c0,2.3,1.73,3.31,8.71,4.9   c11.59,2.52,18.79,6.26,18.79,15.7v0.14c0,10.3-8.14,16.42-20.38,16.42C-1835.25,1037.46-1843.74,1034.65-1849.93,1029.1z"
   id="path324" />
</g>
<g
   id="g356">
	<path
   class="st1"
   d="M-1441.35,986.19h19.44c18,0,28.44,10.37,28.44,24.91v0.14c0,14.55-10.58,25.35-28.73,25.35h-19.15V986.19z    M-1421.7,1024.21c8.35,0,13.9-4.61,13.9-12.75v-0.14c0-8.06-5.54-12.75-13.9-12.75h-5.69v25.63H-1421.7z"
   id="path328" />
	<path
   class="st1"
   d="M-1386.27,986.19h40.54v11.88h-26.71v7.63h24.19v11.02h-24.19v7.99h27.07v11.88h-40.9V986.19z"
   id="path330" />
	<path
   class="st1"
   d="M-1342.07,1029.1l7.78-9.29c4.97,3.96,10.51,6.05,16.34,6.05c3.75,0,5.76-1.3,5.76-3.46v-0.14   c0-2.09-1.66-3.24-8.5-4.82c-10.73-2.45-19.01-5.47-19.01-15.84v-0.14c0-9.36,7.42-16.13,19.51-16.13c8.57,0,15.26,2.3,20.74,6.7   l-6.98,9.87c-4.61-3.24-9.65-4.97-14.11-4.97c-3.38,0-5.04,1.44-5.04,3.24v0.14c0,2.3,1.73,3.31,8.71,4.9   c11.59,2.52,18.79,6.26,18.79,15.7v0.14c0,10.3-8.14,16.42-20.38,16.42C-1327.38,1037.46-1335.87,1034.65-1342.07,1029.1z"
   id="path332" />
	<path
   class="st1"
   d="M-1291.31,986.19h40.54v11.88h-26.71v7.63h24.19v11.02h-24.19v7.99h27.07v11.88h-40.9V986.19z"
   id="path334" />
	<path
   class="st1"
   d="M-1243.28,986.19h13.03l20.74,26.64v-26.64h13.83v50.4h-12.24l-21.53-27.65v27.65h-13.83V986.19z"
   id="path336" />
	<path
   class="st1"
   d="M-1190.8,986.19h15.63l11.45,31.9l11.45-31.9h15.34l-20.45,50.76h-12.96L-1190.8,986.19z"
   id="path338" />
	<path
   class="st1"
   d="M-1137.01,1011.53v-0.14c0-14.47,11.67-26.21,27.22-26.21c15.55,0,27.07,11.59,27.07,26.07v0.14   c0,14.47-11.67,26.21-27.22,26.21S-1137.01,1026.01-1137.01,1011.53z M-1096.98,1011.53v-0.14c0-7.27-5.26-13.61-12.96-13.61   c-7.63,0-12.75,6.19-12.75,13.46v0.14c0,7.27,5.26,13.61,12.89,13.61C-1102.09,1025-1096.98,1018.81-1096.98,1011.53z"
   id="path340" />
	<path
   class="st1"
   d="M-1075.45,986.19h13.97v38.16h24.41v12.24h-38.38V986.19z"
   id="path342" />
	<path
   class="st1"
   d="M-1030.81,986.19h14.04v50.4h-14.04V986.19z"
   id="path344" />
	<path
   class="st1"
   d="M-1007.56,986.19h14.76l12.03,19.51l12.02-19.51h14.76v50.4h-13.9v-28.95l-12.89,19.73h-0.29l-12.82-19.59   v28.8h-13.68V986.19z"
   id="path346" />
	<path
   class="st1"
   d="M-945.06,986.19h40.54v11.88h-26.71v7.63h24.19v11.02h-24.19v7.99h27.07v11.88h-40.9V986.19z"
   id="path348" />
	<path
   class="st1"
   d="M-897.04,986.19H-884l20.74,26.64v-26.64h13.83v50.4h-12.24l-21.53-27.65v27.65h-13.83V986.19z"
   id="path350" />
	<path
   class="st1"
   d="M-828.2,998.43h-15.12v-12.24h44.21v12.24h-15.12v38.16h-13.97V998.43z"
   id="path352" />
	<path
   class="st1"
   d="M-796.89,1011.53v-0.14c0-14.47,11.67-26.21,27.22-26.21c15.55,0,27.07,11.59,27.07,26.07v0.14   c0,14.47-11.67,26.21-27.22,26.21S-796.89,1026.01-796.89,1011.53z M-756.85,1011.53v-0.14c0-7.27-5.26-13.61-12.96-13.61   c-7.63,0-12.75,6.19-12.75,13.46v0.14c0,7.27,5.26,13.61,12.89,13.61C-761.96,1025-756.85,1018.81-756.85,1011.53z"
   id="path354" />
</g>
<g
   id="g384">
	<path
   class="st1"
   d="M-232.77,986.19h13.97v38.16h24.41v12.24h-38.38V986.19z"
   id="path358" />
	<path
   class="st1"
   d="M-188.13,986.19h14.04v50.4h-14.04V986.19z"
   id="path360" />
	<path
   class="st1"
   d="M-168.91,986.19h15.63l11.45,31.9l11.45-31.9h15.34l-20.45,50.76h-12.96L-168.91,986.19z"
   id="path362" />
	<path
   class="st1"
   d="M-110.15,986.19h40.54v11.88h-26.71v7.63h24.19v11.02h-24.19v7.99h27.07v11.88h-40.9V986.19z"
   id="path364" />
	<path
   class="st1"
   d="M-42.19,986.19h14.76l12.03,19.51l12.03-19.51h14.76v50.4h-13.9v-28.95l-12.89,19.73h-0.29l-12.82-19.59v28.8   h-13.68V986.19z"
   id="path366" />
	<path
   class="st1"
   d="M37.73,985.83H51.2l21.46,50.76H57.68l-3.67-9H34.57l-3.6,9H16.28L37.73,985.83z M49.98,1016.72l-5.62-14.33   l-5.69,14.33H49.98z"
   id="path368" />
	<path
   class="st1"
   d="M77.55,986.19h23.83c7.7,0,13.03,2.02,16.42,5.47c2.95,2.88,4.46,6.77,4.46,11.74v0.14   c0,7.7-4.1,12.82-10.37,15.48l12.03,17.57h-16.13l-10.15-15.27H97.5h-5.98v15.27H77.55V986.19z M100.74,1010.38   c4.75,0,7.49-2.3,7.49-5.98v-0.14c0-3.96-2.88-5.98-7.56-5.98h-9.14v12.1H100.74z"
   id="path370" />
	<path
   class="st1"
   d="M129.32,986.19h13.97v20.45l17.35-20.45h16.56l-19.08,21.67l19.73,28.73h-16.78l-12.67-18.72l-5.11,5.69v13.03   h-13.97V986.19z"
   id="path372" />
	<path
   class="st1"
   d="M181.88,986.19h40.54v11.88H195.7v7.63h24.19v11.02H195.7v7.99h27.07v11.88h-40.9V986.19z"
   id="path374" />
	<path
   class="st1"
   d="M242.21,998.43h-15.12v-12.24h44.21v12.24h-15.12v38.16h-13.97V998.43z"
   id="path376" />
	<path
   class="st1"
   d="M277.71,986.19h14.04v50.4h-14.04V986.19z"
   id="path378" />
	<path
   class="st1"
   d="M300.97,986.19H314l20.74,26.64v-26.64h13.83v50.4h-12.24l-21.53-27.65v27.65h-13.82V986.19z"
   id="path380" />
	<path
   class="st1"
   d="M355.76,1011.53v-0.14c0-14.69,11.52-26.21,27.15-26.21c8.86,0,15.12,2.74,20.45,7.34l-8.21,9.86   c-3.6-3.02-7.2-4.75-12.17-4.75c-7.27,0-12.89,6.12-12.89,13.83v0.14c0,8.14,5.69,13.97,13.68,13.97c3.38,0,5.98-0.72,8.06-2.09   v-6.12h-9.94v-10.22h23.19v22.68c-5.33,4.39-12.75,7.78-21.89,7.78C367.49,1037.6,355.76,1026.8,355.76,1011.53z"
   id="path382" />
</g>
<g
   id="g400">
	<path
   class="st1"
   d="M1129.16,986.19h19.44c18,0,28.44,10.37,28.44,24.91v0.14c0,14.55-10.58,25.35-28.73,25.35h-19.15V986.19z    M1148.82,1024.21c8.35,0,13.9-4.61,13.9-12.75v-0.14c0-8.06-5.54-12.75-13.9-12.75h-5.69v25.63H1148.82z"
   id="path386" />
	<path
   class="st1"
   d="M1184.53,986.19h14.04v50.4h-14.04V986.19z"
   id="path388" />
	<path
   class="st1"
   d="M1206.06,1011.53v-0.14c0-14.69,11.52-26.21,27.15-26.21c8.86,0,15.12,2.74,20.45,7.34l-8.21,9.86   c-3.6-3.02-7.2-4.75-12.17-4.75c-7.27,0-12.89,6.12-12.89,13.83v0.14c0,8.14,5.69,13.97,13.68,13.97c3.38,0,5.98-0.72,8.06-2.09   v-6.12h-9.94v-10.22h23.19v22.68c-5.33,4.39-12.75,7.78-21.89,7.78C1217.8,1037.6,1206.06,1026.8,1206.06,1011.53z"
   id="path390" />
	<path
   class="st1"
   d="M1263.44,986.19h14.04v50.4h-14.04V986.19z"
   id="path392" />
	<path
   class="st1"
   d="M1299.01,998.43h-15.12v-12.24h44.21v12.24h-15.12v38.16h-13.97V998.43z"
   id="path394" />
	<path
   class="st1"
   d="M1345.16,985.83h13.47l21.46,50.76h-14.98l-3.67-9h-19.44l-3.6,9h-14.69L1345.16,985.83z M1357.4,1016.72   l-5.62-14.33l-5.69,14.33H1357.4z"
   id="path396" />
	<path
   class="st1"
   d="M1384.98,986.19h13.97v38.16h24.41v12.24h-38.38V986.19z"
   id="path398" />
</g>
<g
   id="g418">
	<path
   class="st1"
   d="M2247.1,974.45h25.85c6.34,0,10.8,1.58,13.75,4.54c2.02,2.02,3.24,4.68,3.24,8.14v0.14   c0,5.83-3.31,9.29-7.78,11.23c6.12,2.02,10.01,5.47,10.01,12.31v0.14c0,8.64-7.06,13.9-19.08,13.9h-25.99V974.45z M2269.5,994.54   c4.25,0,6.62-1.44,6.62-4.39V990c0-2.74-2.16-4.32-6.34-4.32h-9.07v8.86H2269.5z M2271.51,1013.62c4.25,0,6.7-1.66,6.7-4.61v-0.14   c0-2.74-2.16-4.54-6.84-4.54h-10.66v9.29H2271.51z"
   id="path402" />
	<path
   class="st1"
   d="M2298.58,974.45h23.83c7.71,0,13.03,2.02,16.42,5.47c2.95,2.88,4.46,6.77,4.46,11.74v0.14   c0,7.7-4.1,12.82-10.37,15.48l12.02,17.57h-16.13l-10.15-15.27h-0.14h-5.98v15.27h-13.97V974.45z M2321.77,998.64   c4.75,0,7.49-2.3,7.49-5.98v-0.14c0-3.96-2.88-5.98-7.56-5.98h-9.15v12.1H2321.77z"
   id="path404" />
	<path
   class="st1"
   d="M2366.91,974.09h13.46l21.46,50.76h-14.98l-3.67-9h-19.44l-3.6,9h-14.69L2366.91,974.09z M2379.15,1004.98   l-5.62-14.33l-5.69,14.33H2379.15z"
   id="path406" />
	<path
   class="st1"
   d="M2406.73,974.45h13.03l20.74,26.64v-26.64h13.82v50.4h-12.24l-21.53-27.65v27.65h-13.83V974.45z"
   id="path408" />
	<path
   class="st1"
   d="M2463.25,974.45h19.44c18,0,28.44,10.37,28.44,24.91v0.14c0,14.55-10.59,25.35-28.73,25.35h-19.15V974.45z    M2482.91,1012.47c8.35,0,13.9-4.61,13.9-12.75v-0.14c0-8.06-5.54-12.75-13.9-12.75h-5.69v25.63H2482.91z"
   id="path410" />
	<path
   class="st1"
   d="M2518.62,974.45h14.04v50.4h-14.04V974.45z"
   id="path412" />
	<path
   class="st1"
   d="M2541.87,974.45h13.03l20.74,26.64v-26.64h13.83v50.4h-12.24l-21.53-27.65v27.65h-13.82V974.45z"
   id="path414" />
	<path
   class="st1"
   d="M2596.66,999.79v-0.14c0-14.69,11.52-26.21,27.15-26.21c8.86,0,15.12,2.74,20.45,7.34l-8.21,9.86   c-3.6-3.02-7.2-4.75-12.17-4.75c-7.27,0-12.89,6.12-12.89,13.83v0.14c0,8.14,5.69,13.97,13.68,13.97c3.38,0,5.98-0.72,8.06-2.09   v-6.12h-9.94V995.4h23.19v22.68c-5.33,4.39-12.75,7.78-21.89,7.78C2608.4,1025.86,2596.66,1015.06,2596.66,999.79z"
   id="path416" />
</g>
<g
   id="g424">
	<path
   class="st2"
   d="M-1186.83,345.16l-29.21,143.3l124.53,43.01l123.89-41.72l-29.53-146.35l44.29-48.78l-67.4-76.39l-71.25,31.45   l-71.89-31.45l-69.65,76.39L-1186.83,345.16z M-1091.51,510.28l-48.62-16.37l48.62-33.22l47.18,33.22L-1091.51,510.28z    M-1159.88,243.58l68.35,26.96l65.44-26.96l46.16,50.07l-39.6,44.29l28.64,139.61l-30.11,5.78l-64.93-42.37V401.8l45.03-25.83   l-8.24-66.92h28.21v-20h-54.53l10.91,77h-56.49l14.12-77h-65.47l3.85,20h34.66l-13.48,68.36l43.33,25.76l1.93,40.08l-61.62,40.26   l-26.96-5.87l26.96-140.62l-39.48-44.31L-1159.88,243.58z"
   id="path420" />
	<path
   class="st2"
   d="M-800.93,300.95l-93-52.23v-88.43l-117.9-67l-78.7,44.44l-78.63-44.44l-117.77,67v88.43l-92,52.23v133.19   l92,52.91v90.39l123.48,63.78l72.88-41.73l73.01,41.73l123.63-63.78v-90.39l93-52.91V300.95z M-1011.74,115.42l98.8,56.06v66.35   l-157.71-89.05L-1011.74,115.42z M-912.93,259.95v215.93l-177,101.42l-177-101.42V259.95l177-100.11L-912.93,259.95z    M-1266.93,171.49l98.14-56.06l59.24,33.36l-157.38,89.05V171.49z M-1359.93,422.97V312.19l73-41.35v194.02L-1359.93,422.97z    M-1163.56,619.3l-103.38-53.59v-67.64l157.58,90.32L-1163.56,619.3z M-912.93,565.71l-104.04,53.59l-53.87-30.91l157.91-90.32   V565.71z M-820.93,422.97l-73,41.89V270.84l73,41.35V422.97z"
   id="path422" />
</g>
<path
   class="st2"
   d="M942.11,118.72l-225,129.08v258.29l225,129.08l225-129.08V247.81L942.11,118.72z M1148.11,361.73l-117.4-126.57  l43.09-19.41l74.32,43.22V361.73z M1061.47,545.98l-109.35,61.49v-77.22l97.54-32.51L1061.47,545.98z M835.86,496.26l96.25,34.07  v77.14l-108.31-62.74L835.86,496.26z M946.3,512.39l-48.62-16.37l48.62-33.22l47.18,33.22L946.3,512.39z M1019.52,346.15l-0.75,0.17  l9.29,41.49l18.84,91.84l-31.99,5.78l-66.81-42.37v-39.16l46.91-28.04l-6.37-69.12h24.45v-19h-50.77l10.91,77h-56.49l14.12-77  h-65.47l3.85,19h34.66l-13.48,70.56l43.33,26.86l1.93,40.63l-61.62,40.53l-26.96-5.73l26.96-140.55l-39.48-44.28l5.25-5.94  l41.22-41.92l31.47,12.42l32.27,14.54l23.11-10.15l43.79-18.04l46.16,50.07l-39.6,44.29L1019.52,346.15z M1017.9,220.73l-0.36-0.41  l-61.37,27.09L999.04,171l57.32,32.84L1017.9,220.73z M874.4,220.33l-0.45,0.5l-37.44-16.87l57.27-32.81l39.16,74.8L874.4,220.33z   M982.34,161.43l-37.19,66.3l-34.64-66.17l36.03-20.64L982.34,161.43z M813.69,215.78l45.52,20.02l-54.99,60.92l-1.76,0.17  l-66.34,65.52V258.96L813.69,215.78z M736.11,389.88l79.63-78.76l34.14,36.14l-8.79,45.81l-33.64,141.64l-71.34-39.78V389.88z   M1078.75,535.96l-18.06-85.62L1040.1,345.5l32.38-37.82l75.64,82.09v105.17L1078.75,535.96z"
   id="path426" />
<g
   id="g438"
   style="fill:#d82f5a;fill-opacity:1">
	<path
   class="st2"
   d="M562.76,336.71V218.08c15-4.12,23.02-16.59,23.02-31.29c0-18.05-14.73-32.74-32.78-32.74   s-33.04,14.69-33.04,32.74c0,14.7,11.81,27.16,22.81,31.29v111.5l-35.28,41.35l14.78,60.32c-10.45,5.48-17.53,16.41-17.53,29   c0,18.05,14.72,32.74,32.77,32.74s32.75-14.69,32.75-32.74c0-16.75-12.65-30.58-28.89-32.49l-12.47-51.76L562.76,336.71z    M552.94,173.31c7.43,0,13.48,6.05,13.48,13.48c0,7.43-6.05,13.48-13.48,13.48s-13.48-6.05-13.48-13.48   C539.46,179.36,545.51,173.31,552.94,173.31z M551.02,460.24c0,7.43-6.05,13.48-13.48,13.48c-7.43,0-13.48-6.05-13.48-13.48   c0-7.43,6.05-13.48,13.48-13.48C544.97,446.76,551.02,452.81,551.02,460.24z"
   id="path428"
   style="fill:#d82f5a;fill-opacity:1" />
	<path
   class="st2"
   d="M119.11,501.51l38.53-172.78l-45.88-45.78V137.2c15-4.12,23.21-16.59,23.21-31.29   c0-18.05-14.64-32.74-32.69-32.74c-18.05,0-32.69,14.69-32.69,32.74c0,14.7,11.16,27.16,23.16,31.29v153.71l43.91,43.94   l-36.25,162.07c-17.15,1.01-30.81,15.24-30.81,32.64c0,18.05,14.68,32.74,32.73,32.74s32.74-14.69,32.74-32.74   C135.07,517.65,128.65,507.23,119.11,501.51z M102.33,92.43c7.43,0,13.48,6.05,13.48,13.48s-6.05,13.48-13.48,13.48   s-13.48-6.05-13.48-13.48S94.9,92.43,102.33,92.43z M102.33,543.04c-7.43,0-13.48-6.05-13.48-13.48c0-7.43,6.05-13.48,13.48-13.48   s13.48,6.05,13.48,13.48C115.81,537,109.77,543.04,102.33,543.04z"
   id="path430"
   style="fill:#d82f5a;fill-opacity:1" />
	<path
   class="st2"
   d="M423.76,561.39V444.83l-29.93-143.63l44.33-48.58l-0.1,0.05h0.7V71.73c16-4.12,23.39-16.59,23.39-31.29   c0-18.05-14.54-32.74-32.59-32.74c-18.05,0-32.82,14.69-32.82,32.74c0,14.7,12.02,27.16,23.02,31.29v160.15l-42-48.01v-73.63   c15-4.12,23.08-16.59,23.08-31.29c0-18.05-14.7-32.74-32.75-32.74S335,60.9,335,78.95c0,14.7,11.76,27.16,22.76,31.29v71.25   l-50,22.1V144.9c16-4.12,23.42-16.59,23.42-31.29c0-18.05-14.53-32.74-32.58-32.74c-18.05,0-32.84,14.69-32.84,32.74   c0,14.7,12,27.16,23,31.29v58.03l-50-21.9v-70.79c16-4.12,23.26-16.59,23.26-31.29c0-18.05-14.61-32.74-32.66-32.74   s-32.72,14.69-32.72,32.74c0,14.7,11.12,27.16,23.12,31.29v74.42l-43,46.46V71.73c16-4.12,23.45-16.59,23.45-31.29   c0-18.05-14.52-32.74-32.57-32.74c-18.05,0-32.86,14.69-32.86,32.74c0,14.7,11.98,27.16,22.98,31.29v180.51l0.04,0.18l46.32,50.55   l-29.15,143.3l2.44,113.62c-13.37,4.12-23.1,16.59-23.1,31.29c0,18.05,14.69,32.74,32.74,32.74c18.05,0,32.77-14.69,32.77-32.74   c0-14.7-8.07-27.16-23.07-31.29V453.76l42,14.63v49.14c-11,4.12-22.96,16.59-22.96,31.29c0,18.05,14.76,32.74,32.81,32.74   c18.05,0,32.5-14.69,32.5-32.74c0-14.7-7.35-27.16-23.35-31.29v-42.49l31,10.64v143.54c-11,4.12-22.92,16.59-22.92,31.29   c0,18.05,14.78,32.74,32.83,32.74c18.05,0,32.47-14.69,32.47-32.74c0-14.7-7.37-27.16-23.37-31.29V486.31l31-10.38v41.6   c-11,4.12-22.89,16.59-22.89,31.29c0,18.05,14.8,32.74,32.85,32.74s32.44-14.69,32.44-32.74c0-14.7-7.4-27.16-23.4-31.29v-48.09   l47-15.57v105.11c-16,2.74-27.01,16.12-27.01,32.19c0,18.05,14.66,32.74,32.71,32.74s32.64-14.69,32.64-32.74   C443.11,577.94,435.76,566.54,423.76,561.39z M429.7,26.96c7.43,0,13.48,6.05,13.48,13.48s-6.05,13.48-13.48,13.48   c-7.43,0-13.48-6.05-13.48-13.48S422.27,26.96,429.7,26.96z M167.81,26.96c7.43,0,13.48,6.05,13.48,13.48s-6.05,13.48-13.48,13.48   s-13.48-6.05-13.48-13.48S160.38,26.96,167.81,26.96z M187.06,604.66c-7.43,0-13.48-6.05-13.48-13.48s6.05-13.48,13.48-13.48   c7.43,0,13.48,6.05,13.48,13.48S194.5,604.66,187.06,604.66z M248.69,562.3c-7.43,0-13.48-6.05-13.48-13.48   c0-7.43,6.05-13.48,13.48-13.48c7.43,0,13.48,6.05,13.48,13.48C262.17,556.25,256.12,562.3,248.69,562.3z M348.82,562.3   c-7.43,0-13.48-6.05-13.48-13.48c0-7.43,6.05-13.48,13.48-13.48c7.43,0,13.48,6.05,13.48,13.48   C362.3,556.25,356.25,562.3,348.82,562.3z M368.08,65.47c7.43,0,13.48,6.05,13.48,13.48c0,7.43-6.05,13.48-13.48,13.48   c-7.43,0-13.48-6.05-13.48-13.48C354.6,71.52,360.65,65.47,368.08,65.47z M298.75,100.14c7.43,0,13.48,6.05,13.48,13.48   c0,7.43-6.05,13.48-13.48,13.48c-7.43,0-13.48-6.05-13.48-13.48C285.27,106.18,291.32,100.14,298.75,100.14z M229.43,65.47   c7.43,0,13.48,6.05,13.48,13.48c0,7.43-6.05,13.48-13.48,13.48c-7.43,0-13.48-6.05-13.48-13.48   C215.95,71.52,222,65.47,229.43,65.47z M298.75,673.99c-7.43,0-13.48-6.05-13.48-13.48c0-7.43,6.05-13.48,13.48-13.48   c7.43,0,13.48,6.05,13.48,13.48C312.23,667.94,306.19,673.99,298.75,673.99z M299.55,468.1l-37.51-12.63l37.51-36.96l37.49,36.58   L299.55,468.1z M356.85,448.68l-49.1-49.91v-39.16l43.72-27.43l-9.56-68.51h31.84v-19H315.6l10.91,77h-56.49l14.12-77h-65.47   l3.85,19h34.66l-13.48,69.95l43.33,26.55l1.93,40.48l-45.41,48.01l-43.18-13.32l26.96-140.57l-39.48-44.29l43.14-49.1l57.77,22.86   v1.43h3.03l7.73,3.05l7.4-3.05h0.84v-0.98l56.89-23.31l46.31,50.07l-39.52,44.29l28.53,139.61L356.85,448.68z M410.44,604.66   c-7.43,0-13.48-6.05-13.48-13.48s6.05-13.48,13.48-13.48c7.43,0,13.48,6.05,13.48,13.48S417.87,604.66,410.44,604.66z"
   id="path432"
   style="fill:#d82f5a;fill-opacity:1" />
	<path
   class="st2"
   d="M85,460.24c0-11.19-5.65-21.08-14.24-26.98l14.84-62.34l-35.85-41.35v-111.5c16-4.12,23.4-16.59,23.4-31.29   c0-18.05-14.54-32.74-32.59-32.74S7.74,168.74,7.74,186.79c0,14.7,12.02,27.16,23.02,31.29v118.63l33.93,40.36l-12.35,52.61   c-0.03,0-0.05,0-0.07,0c-18.05,0-32.74,13.6-32.74,31.65c0,18.05,14.69,32.19,32.74,32.19C70.32,493.52,85,478.29,85,460.24z    M40.71,173.31c7.43,0,13.48,6.05,13.48,13.48c0,7.43-6.05,13.48-13.48,13.48c-7.43,0-13.48-6.05-13.48-13.48   C27.23,179.36,33.28,173.31,40.71,173.31z M52.27,473.72c-7.43,0-13.48-6.05-13.48-13.48c0-7.43,6.05-13.48,13.48-13.48   c7.43,0,13.48,6.05,13.48,13.48C65.75,467.67,59.7,473.72,52.27,473.72z"
   id="path434"
   style="fill:#d82f5a;fill-opacity:1" />
	<path
   class="st2"
   d="M487.18,497.03l-34.9-162.09l44.47-43.98V137.2c16-4.12,23.28-16.59,23.28-31.29   c0-18.05-14.6-32.74-32.65-32.74s-32.74,14.69-32.74,32.74c0,14.7,11.11,27.16,23.11,31.29v145.7l-46.39,45.74l36.88,172.03   c-10.33,5.51-17.38,16.39-17.38,28.9c0,18.05,14.69,32.74,32.74,32.74s32.74-14.69,32.74-32.74   C516.35,512.72,503.56,498.81,487.18,497.03z M487.47,92.43c7.43,0,13.48,6.05,13.48,13.48s-6.05,13.48-13.48,13.48   c-7.43,0-13.48-6.05-13.48-13.48S480.04,92.43,487.47,92.43z M483.62,543.04c-7.43,0-13.48-6.05-13.48-13.48   c0-7.43,6.05-13.48,13.48-13.48c7.43,0,13.48,6.05,13.48,13.48C497.1,537,491.05,543.04,483.62,543.04z"
   id="path436"
   style="fill:#d82f5a;fill-opacity:1" />
</g>
<g
   id="g448">
	<g
   id="g442">
		<path
   class="st2"
   d="M-263.81,271.99l-67.4-76.39l-71.25,31.45l-71.89-31.45L-544,271.99l46.22,50.55l-29.21,143.3l124.53,43.01    l123.89-41.72l-29.53-146.35L-263.81,271.99z M-402.46,487.67l-48.62-16.37l48.62-33.22l47.18,33.22L-402.46,487.67z     M-301.84,454.93l-30.69,5.78l-65.51-42.36v-39.16l45.61-28.72l-7.67-69.8h28.05v-19h-54.37l10.91,77h-56.49l14.12-77h-65.47    l3.85,19h34.66l-13.48,71.25l43.33,27.2l1.93,40.8l-61.62,40.62l-26.96-5.69l26.96-140.53l-39.48-44.27l43.32-49.09l68.35,26.97    l65.44-26.96l46.16,50.07l-39.6,44.29L-301.84,454.93z"
   id="path440" />
	</g>
	<g
   id="g446">
		<path
   class="st2"
   d="M-404.04,646.17l-142.65-112.15L-658.72,356.6l83.88-231.87l119.8-53.17l51.48,97.07l55.77-97.06    l115.66,53.22l85.13,235.35L-256.6,535.38L-404.04,646.17z M-532.17,520.92l128.4,100.96l132.75-99.75l102.72-164.25l-79.2-218.95    l-92.36-42.5l-64.38,112.04l-59.41-112.02L-559.53,139l-77.88,215.29L-532.17,520.92z"
   id="path444" />
	</g>
</g>
<path
   class="st2"
   d="M-1591.49,172.32L-1591.49,172.32C-1591.49,172.32-1591.49,172.32-1591.49,172.32l-0.01-0.01  c-0.08-0.08-0.16-0.16-0.24-0.24l-0.35-0.35c-0.01-0.01-0.02-0.01-0.02-0.02l-0.01-0.01l0,0c-55.57-54.87-148.81-54.7-204.05,0.54  l-36.43,36.43l-33.21-33.2c-27.02-27.02-62.47-42.23-99.84-42.82c-37.83-0.68-73.28,13.84-100.09,40.65l-1.1,1.1  c-56.43,56.42-57.82,150.37-3.05,205.14l232.8,232.8l138.8-138.8l0.66,0.65c3.88-3.88,7.41-7.88,10.68-11.99l90.37-90.37  C-1539.43,314.69-1537.27,227.22-1591.49,172.32z M-1699.28,451.25l-41.1,41.1c9.78-26.06,11.39-49.81,10.39-67.47l0.78-0.26  l-1.27-6.3c-1.4-14.25-4.26-23.29-4.64-24.41l-0.27,0.09l-19.07-94.53l26.78-29.5c22.58,29.41,49.44,73.57,49.99,117.85  C-1677.4,411.25-1684.67,432.52-1699.28,451.25z M-1995.15,387.82c0.55-44.32,27.47-88.53,50.06-117.94l28.42,31.09l-19.87,97.47  c-2.88,8.47-14,47.1,2.88,94.03l-29.93-29.93l0,0C-1984.88,441.24-1995.5,416.1-1995.15,387.82z M-2076.81,214.74  c40.77-48.65,115.55-32.81,170.29-11.48c0,0-28.72,28.74-39.82,41.75c-16.26-12.99-52.66-37.19-91.42-30.38  c-19.77,3.48-37.15,14.47-51.95,32.75C-2086.9,236.09-2082.58,225.1-2076.81,214.74z M-1779.22,214.1l39.47,42.82l-33.86,37.88  l24.5,119.39l-25.72,4.94l-55.5-36.23v-33.48l38.48-22.29l-7.08-57.42h26.6v-16h-49.11l9.33,66h-48.31l12.08-66h-55.99l3.29,16  h29.64l-11.53,58.65l37.05,22.12l1.65,34.32l-52.7,34.45l-23.06-5.01l23.05-120.25l-33.76-37.89l37.05-42l51.69,20.38  c1.44,0.85,2.26,1.36,2.37,1.42l0.25-0.4l4.14,1.63l3.85-1.59l0.28,0.47c0.15-0.09,1.55-0.89,3.99-2.23L-1779.22,214.1z   M-1835.15,442.18l-41.58-14l41.58-28.41l40.12,28.25c-5.06,1.44-12.85,3.95-21.83,7.81L-1835.15,442.18z M-1878.15,487.47  c-8.16,15.74-10.8,33.16-7.98,52c-37.62-42.31-41.99-84.41-39.74-110.52l38.56,13.32l-0.06,0.26c0.08,0.02,1.24,0.29,3.2,0.82  l19.32,6.67c4.15,1.72,8.63,3.77,13.22,6.17C-1862.02,464.46-1871.55,474.75-1878.15,487.47z M-1817.66,454.4l71.21-23.98  c0.54,26.82-5.9,67.25-39.94,106.82c2.29-17.99-0.47-34.65-8.31-49.77c-6.6-12.73-16.13-23.01-26.52-31.27  C-1820.02,455.58-1818.83,454.98-1817.66,454.4z M-1763.39,204.69c58.62-22.13,140.37-39.85,182.04,10.36l0.26-0.22  c6,12.1,9.82,25,11.44,38.19c-15.42-20.89-34.14-33.64-55.93-37.96c-42.16-8.35-83.12,17.4-100.53,30.39  C-1737.4,232.18-1763.39,204.69-1763.39,204.69z M-1784.53,183.88c44.98-44.98,118.37-48.72,168.2-11.31  c-61.46-19.95-142.62,10.09-188.25,31.36L-1784.53,183.88z M-1965.9,149.11c33.06,0.53,64.48,14.02,88.46,38l19.98,19.98  c-40.2-20.65-117.87-53.4-179.59-36.36c20.24-14.07,44.12-21.64,69.16-21.64C-1967.23,149.09-1966.57,149.09-1965.9,149.11z   M-2093.61,284.32c15.59-31.32,35.3-49.33,58.64-53.46c31.98-5.65,63.88,15.62,78.19,26.95c-24.33,31.18-54.19,79.53-54.84,129.75  c-0.14,10.55,1.05,20.7,3.5,30.45l-50.12-50.12C-2080.82,345.3-2092.57,315.15-2093.61,284.32z M-1862.49,563.64l0.32-0.13  c-10.93-26.04-11.4-49.05-1.39-68.39c6.39-12.34,16.39-22.1,27.14-29.69c10.74,7.59,20.75,17.34,27.14,29.69  c9.82,18.98,9.53,41.51-0.82,66.96l-26.98,26.98L-1862.49,563.64z M-1664.31,416.29c2.17-9.22,3.21-18.8,3.09-28.73  c-0.64-49.96-30.2-98.08-54.46-129.27c15.7-11.56,51.75-34.02,86.91-27.06c23.88,4.73,43.68,22.62,58.87,53.11  c-3.7,27.27-16.49,54.03-38.3,75.85L-1664.31,416.29z"
   id="path450" />
</svg>