<?xml version="1.0" encoding="utf-8"?>
<!-- Generator: Adobe Illustrator 22.1.0, SVG Export Plug-In . SVG Version: 6.00 Build 0)  -->
<svg version="1.1" xmlns="http://www.w3.org/2000/svg" xmlns:xlink="http://www.w3.org/1999/xlink" x="0px" y="0px"
	 viewBox="0 0 388.6 153.4" style="enable-background:new 0 0 388.6 153.4;" xml:space="preserve">
<style type="text/css">
	.st0{fill:#6F7071;}
	.st1{fill:#FFFFFF;}
	.st2{fill:#64696C;}
</style>
<g id="Layer_1">
	<g>
		<g>
			<g>
				<path class="st0" d="M92.1,20.8v63.1c0,11.3-9.2,20.5-20.5,20.5H0V0.3h71.5C82.9,0.3,92.1,9.5,92.1,20.8z M69.5,27
					c0-4.3-3.4-7.7-7.7-7.7H22.6v66.1h39.2c4.3,0,7.7-3.4,7.7-7.7V27z"/>
				<path class="st0" d="M195.3,0.3v83.6c0,11.3-9.2,20.5-20.5,20.5h-51c-11.3,0-20.5-9.2-20.5-20.5V0.3h22.6v77.4
					c0,4.3,3.4,7.7,7.7,7.7H165c4.3,0,7.7-3.4,7.7-7.7V0.3H195.3z"/>
				<path class="st0" d="M229.1,19.3v23.6h54.1v19h-54.1v15.9c0,4.3,3.4,7.7,7.7,7.7h56.6v19H227c-11.3,0-20.5-9.2-20.5-20.5V0.3
					h86.9v19H229.1z"/>
				<path class="st0" d="M324.1,19.3v23.6h54.1v19h-54.1v15.9c0,4.3,3.4,7.7,7.7,7.7h56.6v19H322c-11.3,0-20.5-9.2-20.5-20.5V0.3
					h86.9v19H324.1z"/>
			</g>
			<g>
				<path class="st0" d="M15.8,146.9c0,4.4-1.7,6.5-5.3,6.5H0v-24.3l9,0c4.2,0,7,1.6,7,6.2c0,2.9-0.8,4.8-3.4,6
					C14.1,141.8,15.8,144.4,15.8,146.9z M10.4,130.4l-9.1,0v10.4h5.7c3.7,0,7.8,0,7.8-5.4C14.8,132.9,13.3,130.4,10.4,130.4z
					 M1.3,152.2l7.8,0c3.5,0,5.5-1.1,5.5-5c0-2.5-1.4-5-4.7-5.3H1.3V152.2z"/>
				<path class="st0" d="M94.1,153.4h-1.4l-4.4-9.6h-9l0.1,9.6H78v-24.3h9.9c3.9,0,6,3.2,6,7.2c0,3.1-1.4,6.6-4.3,7.3L94.1,153.4z
					 M92.5,136.3c0-3.8-1.9-6.1-4.7-6.1h-8.6v12.2l7.4,0C89.8,142.4,92.5,141.7,92.5,136.3z"/>
				<path class="st0" d="M153.1,153.4l8.7-24.3h2c1.2,3,3.3,8.9,5.8,16c1,2.7,2,5.5,3,8.3h-1.4l-2.9-8.2h-10.8l-2.7,8.2H153.1z
					 M162.8,130.1c-0.4,1.3-1.4,4.1-2.1,5.8l-2.8,7.9h9.8L162.8,130.1z"/>
				<path class="st0" d="M238.7,138.5c1.1,0.7,2.7,1.3,4.2,1.8c3.2,1,7.2,2.4,7.2,6.6c0,3.6-2.9,6.4-7.3,6.4h-0.9
					c-1.6,0-5.2-0.4-7.6-5.5l1-0.6c1.6,2.9,3.6,4.8,7.1,4.8c3.3,0,6.3-2.1,6.3-4.9c0-3.3-3.2-4.4-6.5-5.7c-1.4-0.5-2.9-1.1-4.2-1.8
					c-1.7-1-2.9-2.4-2.9-4.6c0-3.5,2.9-6.1,6.9-6.1c2.9,0,5.2,1.2,7.2,4.3l-0.9,0.6c-1.7-2.1-3.1-3.8-6.1-3.8c-3.4,0-5.7,2-5.7,4.7
					C236.4,136.4,237.1,137.5,238.7,138.5z"/>
				<path class="st0" d="M311.9,153.4v-24.3h1.3v24.3H311.9z"/>
				<path class="st0" d="M388.6,152.5v0.4v0.5H375v-24.3h1.3v23.2h12.3C388.6,152.5,388.6,152.4,388.6,152.5z"/>
			</g>
		</g>
	</g>
	<g>
		<g>
			<path class="st1" d="M1270.7,515.1c4.3-0.5,8.9-0.1,12.5,2.2c2,1.3,3.7,3,5.1,5c1.3,2,2.3,4.2,3.1,6.5c1.6,4.5,2.4,9.3,4.2,13.8
				c1.6,4.1,3.9,7.8,5.5,11.9c0.8,2,1.4,4.2,1.6,6.3c0.2,2.2,0,4.4-0.7,6.5c-1,2.7-3,5-5.3,6.9c-2.2,1.9-4.7,3.4-7.1,5.2
				c-8,5.9-14.4,13.9-18.3,23c-1-4.5,0-9.4,2.7-13.2c1.4-1.9,3.2-3.5,4.8-5.2c1.7-1.7,3.3-3.5,4.2-5.7c1.4-3.3,1.2-7,0.2-10.5
				c-1-3.4-2.6-6.6-3.9-10c-2-5.2-3.3-10.6-5.2-15.8c-1.9-5.2-4.6-10.3-8.9-13.8c-5.2-4.3-12.4-5.8-19.1-5.3
				c-6.7,0.5-13.2,2.8-19.5,5.3c-11.8,4.7-23.3,10.4-34.5,16.4c-7.4,3.9-14.6,8-21.8,12.3c3.2-2.9,6.4-5.8,9.5-8.9
				c6.5-6.4,12.7-13.2,20.6-17.9c8.5-5,18.4-7.1,28.2-8.3c9.8-1.2,19.7-1.7,29.3-4C1262.3,516.9,1266.4,515.6,1270.7,515.1z"/>
			<path class="st1" d="M500.8,454.9c5.7-5.5,13-9.1,20.6-11.2c7.6-2,15.6-2.5,23.5-2.3c12.4,0.3,24.9,2.2,37.3,1
				c19.8-1.9,38.5-11.7,52.9-25.5c4.5-4.4,8.8-9.2,11.3-15c1.3-2.9,2.1-6,2.3-9.1c0.2-3.1-0.3-6.3-1.6-9.2
				c-2.1-4.7-6.1-8.3-10.7-10.6c-4.6-2.3-9.7-3.3-14.8-3.9c-11.8-1.2-23.8,0.3-35.1,3.9c-10.4,3.3-20.2,8.4-28.9,14.9
				c3.7-5.5,8.4-10.2,13.9-14c13-9,29.3-11.6,44.9-14.2c13.7-2.2,27.5-4.6,40.1-10.5c4-1.8,7.9-4.1,11-7.2c3.1-3.2,5.3-7.3,5.3-11.7
				c0-2.6-0.7-5.1-1.9-7.4c-1.3-2.2-3-4.2-5.1-5.7c-5.1-3.7-12-4.8-18-2.8c5.1-2.5,10.6-4.4,16.1-5.6c9.8-2.1,19.8-2,29.8-2.3
				c5.2-0.1,10.5-0.4,15.2-2.6c3.9-1.8,7.1-4.8,10.7-7.2c3.8-2.5,8-4.3,12.3-5.8c14.7-5.2,30.8-6.9,46-3.7c15,3.2,28.8,11.1,40,21.5
				c7.8,7.2,14.5,15.6,19.7,24.8c-0.3-2.5-0.3-5-0.2-7.5c0.1-3.1,0.5-6.2,0.1-9.3c-0.4-3.3-1.8-6.3-2.8-9.4
				c-1.1-3.2-1.8-6.5-2.3-9.8c3,2.4,5.2,5.7,6.1,9.4c0.9,3.6,0.6,7.3,1.5,10.9c1,4.4,3.6,8.2,6.2,11.8c1.3,1.7,2.6,3.4,3.9,5.1
				c2.2-3.3,3.5-7.2,3.9-11.1c0.4-4.7-0.5-9.4-0.5-14.1c0-3.4,0.6-6.8,1.7-10c1.1,4.2,2,8.5,2.7,12.8c1.4,7.8,2.2,15.6,2.5,23.5v0.3
				c0.3-7.9,1.1-15.7,2.5-23.5c0.7-4.3,1.7-8.6,2.7-12.8c1.1,3.2,1.7,6.6,1.7,10c0.1,4.7-0.9,9.4-0.5,14.1c0.4,4,1.7,7.8,3.9,11.1
				c1.3-1.7,2.6-3.4,3.9-5.1c2.6-3.6,5.2-7.5,6.3-11.8c0.8-3.6,0.6-7.3,1.5-10.9c0.9-3.7,3.1-7.1,6.1-9.4c-0.4,3.3-1.2,6.6-2.3,9.8
				c-1,3.1-2.4,6.2-2.8,9.4c-0.4,3.1,0,6.2,0.1,9.3c0.1,2.5,0,5-0.2,7.5c5.3-9.2,12-17.6,19.7-24.8c11.3-10.4,25-18.4,40-21.5
				c15.3-3.2,31.3-1.5,46,3.7c4.3,1.5,8.5,3.3,12.3,5.8c3.6,2.4,6.8,5.4,10.7,7.2c4.7,2.2,10,2.5,15.2,2.6c10,0.3,20,0.2,29.8,2.3
				c5.6,1.2,11,3.1,16.1,5.6c-6-2-12.9-0.9-18,2.8c-2.1,1.5-3.9,3.5-5.1,5.7c-1.3,2.2-2,4.8-1.9,7.4c0,4.4,2.2,8.6,5.3,11.7
				c3.1,3.2,7,5.4,11,7.2c12.6,5.8,26.4,8.2,40.1,10.5c15.6,2.6,31.9,5.2,44.9,14.2c5.4,3.7,10.2,8.5,13.9,14
				c-8.7-6.5-18.5-11.6-28.9-14.9c-11.3-3.6-23.3-5.1-35.1-3.9c-5.1,0.5-10.2,1.6-14.8,3.9c-4.6,2.3-8.6,5.9-10.7,10.6
				c-1.3,2.9-1.8,6.1-1.6,9.2c0.2,3.1,1,6.2,2.2,9.1c2.5,5.8,6.8,10.6,11.3,15c14.4,13.8,33,23.6,52.9,25.5
				c12.4,1.2,24.8-0.7,37.3-1c7.9-0.2,15.9,0.3,23.5,2.3c7.6,2,14.9,5.7,20.6,11.2c7.9,7.7,12.1,18.9,11.3,29.9
				c-3.6-5.8-8-11-13.1-15.5c-9.9-8.9-22.2-15-35.2-17.8c-12.1-2.6-24.6-2.5-36.8-4.3c-12.2-1.8-24.1-5.5-35.4-10.4
				c-10.4-4.6-20.4-10.3-29.1-17.7c-7.9-6.8-14.6-15-19-24.4c-2-4.4-3.5-9-4.1-13.8c-0.6-4.8-0.3-9.7,1.2-14.3
				c1.4-4.2,3.9-8.1,7.1-11.2c-6.1-4.4-12.1-8.9-18-13.5c-3.1-2.4-6.2-4.8-8.7-7.9c-2.5-3-4.4-6.7-4.6-10.6
				c-0.2-2.5,0.4-5.1,1.6-7.4c1.2-2.3,3-4.2,5.2-5.5c-8.9-2.9-18.6-3.3-27.8-1.3c-4.7,1.1-9.3,2.8-14.1,3.7
				c-4.8,0.9-9.9,0.9-14.2-1.3c-3.6-1.8-6.3-5-8.8-8.2c-2.5-3.2-4.8-6.6-8.1-9c-2.8-2.1-6.1-3.5-9.5-4.1c-3.4-0.6-6.9-0.6-10.4,0
				c-6.8,1.2-13.2,4.3-19.2,7.8c-14.2,8.1-27.3,18.3-37.8,30.9c-13,15.6-21.5,34.7-25.6,54.7c-4.8,23.5-3.3,47.8-2.6,71.8
				c1.3,44.7,0,89.5-4,134.1v-0.3c-4-44.6-5.3-89.3-4-134.1c0.7-24,2.2-48.3-2.6-71.9c-4-19.9-12.6-39-25.6-54.6
				c-10.4-12.6-23.6-22.7-37.8-30.9c-6-3.5-12.4-6.6-19.2-7.8c-3.4-0.6-6.9-0.7-10.4,0c-3.4,0.6-6.7,2-9.5,4.1
				c-3.2,2.5-5.6,5.8-8.1,9c-2.5,3.2-5.2,6.4-8.8,8.2c-4.3,2.2-9.5,2.1-14.2,1.3c-4.8-0.9-9.3-2.6-14.1-3.7
				c-9.2-2-18.9-1.6-27.8,1.3c2.2,1.3,4,3.2,5.2,5.5c1.2,2.3,1.7,4.8,1.6,7.4c-0.2,3.9-2.1,7.6-4.6,10.6c-2.5,3-5.6,5.5-8.7,7.9
				c-5.9,4.6-11.9,9.1-18,13.5c3.2,3.1,5.7,7,7.1,11.3c1.5,4.6,1.8,9.5,1.2,14.3c-0.6,4.8-2.1,9.4-4.1,13.8
				c-4.4,9.4-11.1,17.7-19,24.4c-8.6,7.4-18.7,13.1-29.1,17.7c-11.3,5-23.2,8.7-35.4,10.5c-12.2,1.8-24.7,1.7-36.8,4.3
				c-13,2.9-25.3,9-35.2,17.8c-5.1,4.5-9.5,9.8-13.1,15.5C488.7,473.8,492.9,462.6,500.8,454.9z"/>
			<path class="st1" d="M412.2,561.6c0.2-2.2,0.8-4.3,1.6-6.3c1.6-4.1,3.9-7.8,5.5-11.9c1.8-4.5,2.6-9.2,4.2-13.8
				c0.8-2.3,1.8-4.5,3.1-6.5c1.3-2,3-3.8,5.1-5c3.7-2.3,8.2-2.7,12.5-2.2c4.3,0.5,8.5,1.8,12.7,2.8c9.6,2.2,19.5,2.7,29.3,4
				c9.8,1.2,19.7,3.3,28.2,8.3c7.9,4.6,14.1,11.5,20.6,17.9c3.1,3,6.3,6,9.5,8.9c-7.2-4.2-14.5-8.3-21.8-12.3
				c-11.2-6-22.7-11.6-34.5-16.4c-6.3-2.5-12.8-4.8-19.5-5.3c-6.7-0.5-13.9,1-19.1,5.3c-4.3,3.5-7,8.6-8.9,13.8
				c-1.9,5.2-3.2,10.6-5.2,15.8c-1.3,3.3-2.9,6.5-3.9,10c-1,3.4-1.2,7.2,0.2,10.5c0.9,2.2,2.6,4,4.2,5.7c1.7,1.7,3.5,3.3,4.8,5.2
				c2.7,3.8,3.7,8.7,2.7,13.2c-4-9.1-10.3-17.1-18.3-23c-2.4-1.7-4.8-3.3-7.1-5.2c-2.2-1.9-4.2-4.2-5.3-6.9
				C412.2,566,412,563.8,412.2,561.6z"/>
			<path class="st1" d="M437.6,942.7c-7.3,11.7-12.2,24.9-14.4,38.5c-9.8-28.2-15.5-57.8-16.6-87.6c-1.6-41.4,5.4-83,20.4-121.6
				c14.1-36.5,35.1-69.8,52.1-105c10.6-21.8,19.7-44.2,27.2-67.2c-7.2,28.6-15.8,56.8-25.7,84.6c-15.7,44.1-34.9,87.2-44.6,133
				c-6.3,29.7-8.5,60.5-4.5,90.7c0.4,2.8,0.8,5.7,2.1,8.2c0.6,1.3,1.5,2.5,2.5,3.4c1.1,1,2.3,1.7,3.7,2c2,0.4,4.1,0,6-0.8
				c1.9-0.8,3.6-1.9,5.4-3c4.9-2.9,10.3-4.9,15.9-6C455.2,919.9,445.1,930.5,437.6,942.7z"/>
			<path class="st1" d="M682.3,1101.3c-5.8,5.4-10.9,11.5-15.1,18.1c-9.4,14.8-14.4,32.3-15.1,49.9c-0.4,9.1,0.4,18.3,2.3,27.2
				c-5.4-14-8.5-28.8-9.1-43.8c-0.7-17.1,1.9-34.4,7.6-50.6c-11.3,13.1-19.6,28.7-24.2,45.3c-3.8,13.7-5,28.1-5.3,42.3
				c-0.2,10.3,0,20.7,0.8,31c-29.9-29.2-54.6-63.8-72.3-101.6c-16.1-34.5-26.6-71.9-28.2-109.9c-0.8-19.3,0.6-38.7,4.2-57.7
				c-1.7,45.9,6.1,92.1,22.8,134.9c12.8,32.7,30.7,63.3,52.9,90.4c2.8-19,9.7-37.4,20.3-53.6c14.2-21.6,34.8-39,58.5-49.3
				L682.3,1101.3z"/>
			<path class="st1" d="M693.5,894.3c-6.5-38-22.1-74.3-25.7-112.8c-0.5-5.6-0.8-11.3-1.7-16.8c-0.9-5.6-2.5-11.1-5.4-15.9
				c-3.2-5.3-7.9-9.6-13.1-13c-5.2-3.4-10.8-6.1-16.3-8.9c-11.5-5.7-23-11.8-35.6-14.1c-10.6-1.9-21.8-1.1-31.9,2.9
				c-7.6,2.9-14.5,7.6-20.1,13.5c4.9-8.3,11.8-15.5,19.8-20.8c4.5-3,9.5-5.4,14.8-6.8c5.3-1.4,10.8-1.7,16.2-0.6
				c9.7,2,17.8,8.5,26,14c6,4,12.3,7.6,18.9,10.4c5.1,2.2,10.4,3.8,15.7,5.2c4.3,1.1,8.7,2,13.1,2.7c-3.5-1.1-6.8-2.8-9.7-5.1
				c-4-3.2-7.2-7.4-11.2-10.6c-3.9-3.1-8.6-5.1-13.1-7.1c-5.1-2.2-10.1-4.6-15.1-7c5,1.3,10.1,2.4,15.2,3.6c2.5,0.5,5,1.1,7.5,1.1
				c2.5,0,5.1-0.6,7.2-2.1c1.5-1.1,2.6-2.6,3.2-4.4c0.6-1.7,0.6-3.7,0.1-5.4c-0.4-1.5-1.3-2.9-2.3-4.1c-1-1.2-2.2-2.2-3.4-3.2
				c-0.9-0.7-1.9-1.4-2.9-2.1l3.9-1.6c2.7,1.7,5,4,6.7,6.7c1,1.7,1.8,3.5,2.2,5.4c0.4,1.9,0.4,3.9-0.1,5.8c-0.7,2.8-2.5,5.3-3,8.2
				c-0.3,1.7-0.2,3.5,0.3,5.3c0.5,1.7,1.3,3.3,2.2,4.8c3.1,5,7.9,8.9,13.5,10.8c2.7,0.9,5.5,1.4,8.3,1.3c-3.1,2.7-5.7,6-7.5,9.6
				c-4.3,8.8-4,19.2-2.7,28.9c3.3,24,12.3,47.1,24.8,67.8c8.2,13.5,17.9,26.3,23,41.2c2.2,6.3,3.4,12.9,4,19.6
				c1.6,19.7-3.2,39.3-3.2,59c0,10.5,1.4,21.3,6.3,30.6c2.4,4.7,5.7,8.9,9.8,12.2c4.1,3.3,9,5.6,14.2,6.4c7.6,1.2,15.3-1,23-1.6
				c4.1-0.3,8.3-0.3,12.3,0.2c-10.3,0.9-20.2,4.7-28.5,10.9c-3,2.2-5.7,4.8-8,7.7c-2.2,3-3.9,6.4-4.7,10c-0.9,4.6-0.3,9.6,1.9,13.8
				c-15.3-15.1-26.9-33.8-33.8-54.1C697.9,963.5,699.3,928.2,693.5,894.3z"/>
			<path class="st1" d="M855.8,1197.2c-5,12.6-15.1,22.4-23.5,33.1c-2.8,3.6-5.4,7.3-7.4,11.4c-2,4.1-3.3,8.6-3.3,13.1
				c0,4.4,1.2,8.7,3.4,12.5c1.6,2.6,3.6,4.9,6.1,6.8c1.1,0.7,2.2,1.4,3.3,2.1c-1.2-0.6-2.3-1.3-3.3-2.1
				c-17.2-11.2-33.5-23.9-48.5-37.9c-18.4-17.3-35.3-37-44.9-60.4c-4.6-11.3-7.5-23.3-8.5-35.5c3.3,23.5,13.2,46.1,28.3,64.4
				c12.1,14.7,27.6,26.7,44.9,34.7c0.2-7.5,3.3-14.9,8.5-20.3c4.5-4.6,10.2-7.6,16-10.3c5.8-2.8,11.6-5.4,16.6-9.4
				c5.2-4.2,9.1-9.9,11.8-16c1.5-3.4,2.5-7,3.2-10.7C859.8,1180.9,858.9,1189.5,855.8,1197.2z"/>
			<path class="st1" d="M980.4,1176.1c-9.6,23.4-26.4,43.1-44.9,60.4c-15,14-31.3,26.7-48.5,37.9c-1.1,0.8-2.2,1.5-3.3,2.2
				c1.1-0.7,2.2-1.4,3.3-2.2c2.4-1.9,4.5-4.1,6-6.7c2.2-3.7,3.5-8.1,3.4-12.5c0-4.6-1.3-9-3.3-13.1c-2-4.1-4.6-7.8-7.4-11.4
				c-8.4-10.7-18.5-20.5-23.5-33.1c-3.1-7.8-4-16.3-2.7-24.6c0.7,3.7,1.7,7.3,3.2,10.7c2.6,6.1,6.6,11.8,11.8,16
				c4.9,4,10.8,6.7,16.6,9.4c5.8,2.8,11.5,5.8,16,10.3c5.3,5.4,8.4,12.8,8.5,20.3c17.3-8.1,32.7-20,44.9-34.7
				c15.1-18.3,25-40.9,28.3-64.4C987.9,1152.8,985,1164.8,980.4,1176.1z"/>
			<path class="st1" d="M1018.7,993.1c-6.9,20.3-18.6,39-33.8,54.1c2.1-4.2,2.8-9.2,1.9-13.8c-0.7-3.6-2.4-7.1-4.7-10
				c-2.2-3-5-5.5-8-7.7c-8.2-6.2-18.2-10-28.5-10.9c4.1-0.5,8.2-0.6,12.3-0.2c7.7,0.6,15.4,2.8,23,1.6c5.2-0.8,10.1-3.1,14.2-6.4
				c4.1-3.3,7.4-7.5,9.8-12.2c4.9-9.3,6.3-20.1,6.3-30.6c0-19.7-4.7-39.4-3.2-59c0.5-6.7,1.8-13.3,4-19.6
				c5.1-14.9,14.9-27.7,23-41.2c12.6-20.7,21.5-43.8,24.8-67.8c1.3-9.7,1.6-20.1-2.7-28.9c-1.8-3.7-4.4-7-7.5-9.6
				c2.8,0,5.7-0.4,8.3-1.3c5.6-1.9,10.4-5.8,13.5-10.8c0.9-1.5,1.7-3.1,2.2-4.8c0.5-1.7,0.6-3.5,0.3-5.3c-0.5-2.9-2.3-5.4-3-8.2
				c-0.5-1.9-0.5-3.9-0.1-5.8c0.4-1.9,1.2-3.7,2.2-5.4c1.7-2.7,4-5,6.7-6.7l3.9,1.6c-1,0.7-1.9,1.4-2.9,2.1c-1.2,1-2.4,2-3.4,3.2
				c-1,1.2-1.8,2.6-2.3,4.1c-0.5,1.8-0.5,3.7,0.1,5.4c0.6,1.7,1.7,3.3,3.2,4.4c2,1.5,4.6,2.1,7.2,2.1c2.5,0,5-0.5,7.5-1.1
				c5.1-1.1,10.1-2.3,15.2-3.6c-5,2.4-10,4.7-15.1,7c-4.6,2-9.2,4-13.1,7.1c-4.1,3.2-7.2,7.4-11.2,10.6c-2.9,2.3-6.2,4-9.7,5.1
				c4.4-0.7,8.8-1.6,13.1-2.7c5.3-1.4,10.6-3.1,15.7-5.2c6.6-2.8,12.9-6.4,18.9-10.4c8.2-5.5,16.3-12,26-14
				c5.3-1.1,10.9-0.8,16.2,0.6c5.3,1.4,10.2,3.8,14.8,6.8c8.1,5.3,14.9,12.5,19.8,20.8c-5.6-5.9-12.5-10.5-20.1-13.5
				c-10.1-3.9-21.2-4.8-31.9-2.9c-12.6,2.3-24.1,8.4-35.6,14.1c-5.6,2.8-11.2,5.4-16.3,8.9c-5.2,3.4-9.9,7.7-13.1,13
				c-2.9,4.8-4.5,10.4-5.4,15.9c-0.9,5.6-1.2,11.2-1.7,16.8c-3.6,38.4-19.2,74.7-25.7,112.8C1028.3,925.2,1029.7,960.5,1018.7,993.1
				z"/>
			<path class="st1" d="M1194.5,1009.4c-1.7,38-12.1,75.4-28.2,109.9c-17.7,37.9-42.3,72.5-72.3,101.6c0.7-10.3,1-20.6,0.8-31
				c-0.3-14.2-1.5-28.6-5.3-42.3c-4.6-16.6-12.9-32.3-24.2-45.3c5.7,16.2,8.2,33.5,7.6,50.6c-0.6,15-3.7,29.8-9.1,43.8
				c1.9-8.9,2.6-18.1,2.3-27.2c-0.7-17.6-5.7-35-15.1-49.9c-4.2-6.7-9.3-12.8-15.1-18.1l-0.1-27.4c23.7,10.3,44.4,27.6,58.5,49.3
				c10.5,16.1,17.5,34.5,20.3,53.6c22.2-27.1,40.2-57.8,52.9-90.4c16.7-42.8,24.5-89,22.8-134.9
				C1193.9,970.7,1195.3,990.1,1194.5,1009.4z"/>
			<path class="st1" d="M1311.6,893.8c-1.2,29.8-6.8,59.5-16.6,87.6c-2.2-13.6-7.1-26.8-14.4-38.5c-7.6-12.2-17.7-22.8-29.5-31
				c5.6,1.1,11,3.2,15.9,6c1.8,1,3.5,2.2,5.4,3c1.9,0.8,4,1.2,6,0.8c1.4-0.3,2.7-1,3.7-2c1.1-1,1.9-2.1,2.5-3.4
				c1.3-2.5,1.7-5.4,2.1-8.2c4-30.1,1.8-60.9-4.5-90.7c-9.7-45.8-28.8-88.9-44.6-133c-9.9-27.8-18.5-56-25.7-84.6
				c7.5,23,16.6,45.5,27.2,67.2c17.1,35.2,38,68.6,52.1,105C1306.2,810.8,1313.2,852.5,1311.6,893.8z"/>
			<path class="st1" d="M982.8,591c2-2.8,6.6-3.9,8.3-5.7c-6-2-13.3-5.4-19.3-8.7c-5.1,20.7-21.7,24.3-28.8,37.6
				c-9.3,19.2-10.4,40.3-11.4,62.2l2.3,2.4c2.2,18.4,3.2,37.4,6.2,55.4c0.5,24.3,13.3,45.8,7.3,70.6c-5.9,0.9-10.5,7.1-15,10.1
				c-5,2.6-11.7,6.6-11.5,12.7c-1.2-0.2-2.6,2.1-3.7,0.1l0.5-0.4c-1.4-5.6-7.9-2.6-12.1-3.4c-16.1,5.5-33.9,6.5-50.7,11
				c-15.4-9.3-34.4-12.3-53.6-11.5c-4.1-2.6-4.1-7.4-6.2-11.6c-4.8-4.8-9-11-16.4-9.6c-6.9-37.6,4-76.8,11.8-113
				c-0.9-28.3,10.7-60.2-10.8-82.4c-7.8-9.4-22.3-19.1-25.6-31.1c-5.8-0.6-21.5,0.5-22.7,1.7c3.5,5,4.3,11.2,7.9,14.1
				c-2.8,5.1-9.5,4.3-13.8,7.4c-6.2,5.6-16.6,9.9-21.1,18.6l6.7,14.8c16.6-10.8,10.3,10.7,22.6,10.4c12.9,6.8,25.8,14.8,39.9,17.5
				c3.7,8.8,1.8,19.5,2.7,29.7c0.1,34.8-3,70.4-1.9,104.3v3.9c-4.8,7.5,5.7,14.8,5.6,22.1c0.1,16.7,18.4,24.1,28.8,34.4
				c10.9,2.6,19.8,10.3,30.3,13.8c16.4,8.5,22.6,24.7,22.3,42.4c-9.9,4.4-19.8,9.2-29.9,13.7c-18.1,6.1-26.3,30.2-48.6,25.2
				c-5.4-2.3-10.1-10.5-11.1-16.1c0,0-1.6,11.8-3.9,23.9c1.1,3.8,5.4,5.6,8.4,7.5c3.4,0.9,8.5,1.7,11.8-0.6
				c15-12.2,35.2-11.9,53.5-16.1c15.9-2.6,33.8-6,50-2c19.5-0.6,33.5,11.2,50.9,14.7c6-3.3,13.2-13.2,14.4-21.2
				c-4.3,1.2-7.7,2.7-11.8,2.3c-19.8,3.2-30.5-16.7-46.4-23.1c-8.4-4.6-23.1,3.1-28-7.9c-2.6-15.9,0-34.4,13.8-44.7
				c17.8-10.1,39.6-13.8,53.8-30.2c11.2-12.8,12.2-30.5,12.7-47.9c-0.5-7-5.6-82.1-4.3-109c3.8-13.1,7.1-14.8,13.5-20.1
				c34.6-6.1,55.5-16.6,57.4-47.2C1017.9,610.8,994.8,608.4,982.8,591z M734.6,616.9c0,0,12-0.9,22.5,0.7c7.6,1.2,14,5.7,15.8,2.8
				C772.8,620.5,756.5,659.6,734.6,616.9z M956,624.4c1.7,2.9,8.2-1.6,15.8-2.8c10.5-1.6,22.5-0.7,22.5-0.7
				C972.3,663.5,956,624.4,956,624.4z"/>
		</g>
		<g>
			<g>
				<path class="st1" d="M619.5,1379.3v147.8c0,26.6-21.5,48.1-48.1,48.1H403.7v-244h167.6C597.9,1331.1,619.5,1352.7,619.5,1379.3z
					 M566.5,1393.7c0-10-8.1-18-18-18h-91.8v155h91.8c10,0,18-8.1,18-18V1393.7z"/>
				<path class="st1" d="M861.4,1331.1v195.9c0,26.6-21.5,48.1-48.1,48.1H693.8c-26.6,0-48.1-21.5-48.1-48.1v-195.9h52.9v181.5
					c0,10,8.1,18,18,18h73.8c10,0,18-8.1,18-18v-181.5H861.4z"/>
				<path class="st1" d="M940.5,1375.7v55.2h126.7v44.5H940.5v37.2c0,10,8.1,18,18,18h132.7v44.5H935.7c-26.6,0-48.1-21.5-48.1-48.1
					v-195.9h203.7v44.5H940.5z"/>
				<path class="st1" d="M1163.3,1375.7v55.2H1290v44.5h-126.7v37.2c0,10,8.1,18,18,18h132.7v44.5h-155.6
					c-26.6,0-48.1-21.5-48.1-48.1v-195.9h203.7v44.5H1163.3z"/>
			</g>
			<g>
				<path class="st1" d="M440.8,1674.8c0,10.3-4.1,15.2-12.5,15.2h-24.6v-56.9l21-0.1c9.9,0,16.4,3.6,16.4,14.5
					c0,6.8-1.9,11.4-8,14.1C436.7,1662.8,440.8,1668.9,440.8,1674.8z M428,1636.1l-21.3-0.1v24.3H420c8.6,0,18.3-0.1,18.3-12.6
					C438.3,1642,435,1636.1,428,1636.1z M406.7,1687.3l18.3,0.1c8.2,0,13-2.5,13-11.7c0-5.9-3.3-11.6-10.9-12.4h-20.4V1687.3z"/>
				<path class="st1" d="M624.1,1690h-3.4l-10.3-22.4h-21.2l0.2,22.4h-2.9v-56.9h23.1c9.1,0,14.1,7.5,14.1,16.9
					c0,7.2-3.3,15.4-10.2,17.1L624.1,1690z M620.6,1649.9c0-8.8-4.4-14.3-11-14.3h-20.1v28.7l17.4,0.1
					C614.3,1664.2,620.6,1662.6,620.6,1649.9z"/>
				<path class="st1" d="M762.4,1690l20.5-56.9h4.6c2.8,7.1,7.8,20.9,13.6,37.4c2.3,6.4,4.7,12.8,7,19.5h-3.3l-6.9-19.2h-25.3
					l-6.3,19.2H762.4z M785.3,1635.5c-1,3.1-3.4,9.7-4.8,13.5l-6.6,18.5h22.9L785.3,1635.5z"/>
				<path class="st1" d="M963.1,1655.2c2.6,1.7,6.3,3,9.9,4.2c7.5,2.5,16.9,5.7,16.9,15.5c0,8.4-6.8,15.1-17,15.1h-2.1
					c-3.8,0-12.1-1-17.8-12.9l2.4-1.4c3.8,6.8,8.4,11.4,16.5,11.4c7.6,0,14.8-5,14.8-11.4c0-7.7-7.5-10.3-15.3-13.3
					c-3.4-1.2-6.9-2.5-9.8-4.2c-4-2.4-6.9-5.6-6.9-10.9c0-8.3,6.8-14.2,16.3-14.2c6.9,0,12.1,2.9,16.8,10.1l-2.2,1.4
					c-3.9-5-7.2-8.8-14.4-8.8c-7.9,0-13.4,4.7-13.4,10.9C957.8,1650.1,959.4,1652.8,963.1,1655.2z"/>
				<path class="st1" d="M1134.7,1690v-56.9h3v56.9H1134.7z"/>
				<path class="st1" d="M1314.5,1687.9v0.8v1.2h-31.9v-56.9h3v54.4h28.9C1314.4,1688,1314.5,1687.7,1314.5,1687.9z"/>
			</g>
		</g>
	</g>
	<g>
		<g>
			<path class="st2" d="M108.7,515.1c4.3-0.5,8.9-0.1,12.5,2.2c2,1.3,3.7,3,5.1,5c1.3,2,2.3,4.2,3.1,6.5c1.6,4.5,2.4,9.3,4.2,13.8
				c1.6,4.1,3.9,7.8,5.5,11.9c0.8,2,1.4,4.2,1.6,6.3c0.2,2.2,0,4.4-0.7,6.5c-1,2.7-3,5-5.3,6.9c-2.2,1.9-4.7,3.4-7.1,5.2
				c-8,5.9-14.4,13.9-18.3,23c-1-4.5,0-9.4,2.7-13.2c1.4-1.9,3.2-3.5,4.8-5.2c1.7-1.7,3.3-3.5,4.2-5.7c1.4-3.3,1.2-7,0.2-10.5
				c-1-3.4-2.6-6.6-3.9-10c-2-5.2-3.3-10.6-5.2-15.8c-1.9-5.2-4.6-10.3-8.9-13.8c-5.2-4.3-12.4-5.8-19.1-5.3
				c-6.7,0.5-13.2,2.8-19.5,5.3c-11.8,4.7-23.3,10.4-34.5,16.4c-7.4,3.9-14.6,8-21.8,12.3c3.2-2.9,6.4-5.8,9.5-8.9
				c6.5-6.4,12.7-13.2,20.6-17.9c8.5-5,18.4-7.1,28.2-8.3c9.8-1.2,19.7-1.7,29.3-4C100.2,516.9,104.4,515.6,108.7,515.1z"/>
			<path class="st2" d="M-661.3,454.9c5.7-5.5,13-9.1,20.6-11.2c7.6-2,15.6-2.5,23.5-2.3c12.4,0.3,24.9,2.2,37.3,1
				c19.8-1.9,38.5-11.7,52.9-25.5c4.5-4.4,8.8-9.2,11.3-15c1.3-2.9,2.1-6,2.3-9.1c0.2-3.1-0.3-6.3-1.6-9.2
				c-2.1-4.7-6.1-8.3-10.7-10.6c-4.6-2.3-9.7-3.3-14.8-3.9c-11.8-1.2-23.8,0.3-35.1,3.9c-10.4,3.3-20.2,8.4-28.9,14.9
				c3.7-5.5,8.4-10.2,13.9-14c13-9,29.3-11.6,44.9-14.2c13.7-2.2,27.5-4.6,40.1-10.5c4-1.8,7.9-4.1,11-7.2c3.1-3.2,5.3-7.3,5.3-11.7
				c0-2.6-0.7-5.1-1.9-7.4c-1.3-2.2-3-4.2-5.1-5.7c-5.1-3.7-12-4.8-18-2.8c5.1-2.5,10.6-4.4,16.1-5.6c9.8-2.1,19.8-2,29.8-2.3
				c5.2-0.1,10.5-0.4,15.2-2.6c3.9-1.8,7.1-4.8,10.7-7.2c3.8-2.5,8-4.3,12.3-5.8c14.7-5.2,30.8-6.9,46-3.7c15,3.2,28.8,11.1,40,21.5
				c7.8,7.2,14.5,15.6,19.7,24.8c-0.3-2.5-0.3-5-0.2-7.5c0.1-3.1,0.5-6.2,0.1-9.3c-0.4-3.3-1.8-6.3-2.8-9.4
				c-1.1-3.2-1.8-6.5-2.3-9.8c3,2.4,5.2,5.7,6.1,9.4c0.9,3.6,0.6,7.3,1.5,10.9c1,4.4,3.6,8.2,6.3,11.8c1.3,1.7,2.6,3.4,3.9,5.1
				c2.2-3.3,3.5-7.2,3.9-11.1c0.4-4.7-0.5-9.4-0.5-14.1c0-3.4,0.6-6.8,1.7-10c1.1,4.2,2,8.5,2.7,12.8c1.4,7.8,2.2,15.6,2.5,23.5v0.3
				c0.3-7.9,1.1-15.7,2.5-23.5c0.7-4.3,1.7-8.6,2.7-12.8c1.1,3.2,1.7,6.6,1.7,10c0.1,4.7-0.9,9.4-0.5,14.1c0.4,4,1.7,7.8,3.9,11.1
				c1.3-1.7,2.6-3.4,3.9-5.1c2.6-3.6,5.2-7.5,6.3-11.8c0.8-3.6,0.6-7.3,1.5-10.9c0.9-3.7,3.1-7.1,6.1-9.4c-0.4,3.3-1.2,6.6-2.3,9.8
				c-1,3.1-2.4,6.2-2.8,9.4c-0.4,3.1,0,6.2,0.1,9.3c0.1,2.5,0,5-0.2,7.5c5.3-9.2,12-17.6,19.7-24.8c11.3-10.4,25-18.4,40-21.5
				c15.3-3.2,31.3-1.5,46,3.7c4.3,1.5,8.5,3.3,12.3,5.8c3.6,2.4,6.8,5.4,10.7,7.2c4.7,2.2,10,2.5,15.2,2.6c10,0.3,20,0.2,29.8,2.3
				c5.6,1.2,11,3.1,16.1,5.6c-6-2-12.9-0.9-18,2.8c-2.1,1.5-3.9,3.5-5.1,5.7c-1.3,2.2-2,4.8-1.9,7.4c0,4.4,2.2,8.6,5.3,11.7
				c3.1,3.2,7,5.4,11,7.2c12.6,5.8,26.4,8.2,40.1,10.5c15.6,2.6,31.9,5.2,44.9,14.2c5.4,3.7,10.2,8.5,13.9,14
				c-8.7-6.5-18.5-11.6-28.9-14.9c-11.3-3.6-23.3-5.1-35.1-3.9c-5.1,0.5-10.2,1.6-14.8,3.9c-4.6,2.3-8.6,5.9-10.7,10.6
				c-1.3,2.9-1.8,6.1-1.6,9.2c0.2,3.1,1,6.2,2.2,9.1c2.5,5.8,6.8,10.6,11.3,15c14.4,13.8,33,23.6,52.9,25.5
				c12.4,1.2,24.8-0.7,37.3-1c7.9-0.2,15.9,0.3,23.5,2.3c7.6,2,14.9,5.7,20.6,11.2c7.9,7.7,12.1,18.9,11.3,29.9
				c-3.6-5.8-8-11-13.1-15.5c-9.9-8.9-22.2-15-35.2-17.8c-12.1-2.6-24.6-2.5-36.8-4.3c-12.2-1.8-24.1-5.5-35.4-10.4
				c-10.4-4.6-20.4-10.3-29.1-17.7c-7.9-6.8-14.6-15-19-24.4c-2-4.4-3.5-9-4.1-13.8c-0.6-4.8-0.3-9.7,1.2-14.3
				c1.4-4.2,3.9-8.1,7.1-11.2c-6.1-4.4-12.1-8.9-18-13.5c-3.1-2.4-6.2-4.8-8.7-7.9c-2.5-3-4.4-6.7-4.6-10.6
				c-0.2-2.5,0.4-5.1,1.6-7.4c1.2-2.3,3-4.2,5.2-5.5c-8.9-2.9-18.6-3.3-27.8-1.3c-4.7,1.1-9.3,2.8-14.1,3.7
				c-4.8,0.9-9.9,0.9-14.2-1.3c-3.6-1.8-6.3-5-8.8-8.2c-2.5-3.2-4.8-6.6-8.1-9c-2.8-2.1-6.1-3.5-9.5-4.1c-3.4-0.6-6.9-0.6-10.4,0
				c-6.8,1.2-13.2,4.3-19.2,7.8c-14.2,8.1-27.3,18.3-37.8,30.9c-13,15.6-21.5,34.7-25.6,54.7c-4.8,23.5-3.3,47.8-2.6,71.8
				c1.3,44.7,0,89.5-4,134.1v-0.3c-4-44.6-5.3-89.3-4-134.1c0.7-24,2.2-48.3-2.6-71.9c-4-19.9-12.6-39-25.6-54.6
				c-10.4-12.6-23.6-22.7-37.8-30.9c-6-3.5-12.4-6.6-19.2-7.8c-3.4-0.6-6.9-0.7-10.4,0c-3.4,0.6-6.7,2-9.5,4.1
				c-3.2,2.5-5.6,5.8-8.1,9c-2.5,3.2-5.2,6.4-8.8,8.2c-4.3,2.2-9.5,2.1-14.2,1.3c-4.8-0.9-9.3-2.6-14.1-3.7
				c-9.2-2-18.9-1.6-27.8,1.3c2.2,1.3,4,3.2,5.2,5.5c1.2,2.3,1.7,4.8,1.6,7.4c-0.2,3.9-2.1,7.6-4.6,10.6c-2.5,3-5.6,5.5-8.7,7.9
				c-5.9,4.6-11.9,9.1-18,13.5c3.2,3.1,5.7,7,7.1,11.3c1.5,4.6,1.8,9.5,1.2,14.3c-0.6,4.8-2.1,9.4-4.1,13.8
				c-4.4,9.4-11.1,17.7-19,24.4c-8.6,7.4-18.7,13.1-29.1,17.7c-11.3,5-23.2,8.7-35.4,10.5c-12.2,1.8-24.7,1.7-36.8,4.3
				c-13,2.9-25.3,9-35.2,17.8c-5.1,4.5-9.5,9.8-13.1,15.5C-673.4,473.8-669.2,462.6-661.3,454.9z"/>
			<path class="st2" d="M-749.9,561.6c0.2-2.2,0.8-4.3,1.6-6.3c1.6-4.1,3.9-7.8,5.5-11.9c1.8-4.5,2.6-9.2,4.2-13.8
				c0.8-2.3,1.8-4.5,3.1-6.5c1.3-2,3-3.8,5.1-5c3.7-2.3,8.2-2.7,12.5-2.2c4.3,0.5,8.5,1.8,12.7,2.8c9.6,2.2,19.5,2.7,29.3,4
				c9.8,1.2,19.7,3.3,28.2,8.3c7.9,4.6,14.1,11.5,20.6,17.9c3.1,3,6.3,6,9.5,8.9c-7.2-4.2-14.5-8.3-21.8-12.3
				c-11.2-6-22.7-11.6-34.5-16.4c-6.3-2.5-12.8-4.8-19.5-5.3c-6.7-0.5-13.9,1-19.1,5.3c-4.3,3.5-7,8.6-8.9,13.8
				c-1.9,5.2-3.2,10.6-5.2,15.8c-1.3,3.3-2.9,6.5-3.9,10c-1,3.4-1.2,7.2,0.2,10.5c0.9,2.2,2.6,4,4.2,5.7c1.7,1.7,3.5,3.3,4.8,5.2
				c2.7,3.8,3.7,8.7,2.7,13.2c-4-9.1-10.3-17.1-18.3-23c-2.4-1.7-4.8-3.3-7.1-5.2c-2.2-1.9-4.2-4.2-5.3-6.9
				C-749.9,566-750.1,563.8-749.9,561.6z"/>
			<path class="st2" d="M-724.5,942.7c-7.3,11.7-12.2,24.9-14.4,38.5c-9.8-28.2-15.5-57.8-16.6-87.6c-1.6-41.4,5.4-83,20.4-121.6
				c14.1-36.5,35.1-69.8,52.1-105c10.6-21.8,19.7-44.2,27.2-67.2c-7.2,28.6-15.8,56.8-25.7,84.6c-15.7,44.1-34.9,87.2-44.6,133
				c-6.3,29.7-8.5,60.5-4.5,90.7c0.4,2.8,0.8,5.7,2.1,8.2c0.6,1.3,1.5,2.5,2.5,3.4c1.1,1,2.3,1.7,3.7,2c2,0.4,4.1,0,6-0.8
				c1.9-0.8,3.6-1.9,5.4-3c4.9-2.9,10.3-4.9,15.9-6C-706.9,919.9-717,930.5-724.5,942.7z"/>
			<path class="st2" d="M-479.8,1101.3c-5.8,5.4-10.9,11.5-15.1,18.1c-9.4,14.8-14.4,32.3-15.1,49.9c-0.4,9.1,0.4,18.3,2.3,27.2
				c-5.4-14-8.5-28.8-9.1-43.8c-0.7-17.1,1.9-34.4,7.6-50.6c-11.3,13.1-19.6,28.7-24.2,45.3c-3.8,13.7-5,28.1-5.3,42.3
				c-0.2,10.3,0,20.7,0.8,31c-29.9-29.2-54.6-63.8-72.3-101.6c-16.1-34.5-26.6-71.9-28.2-109.9c-0.8-19.3,0.6-38.7,4.2-57.7
				c-1.7,45.9,6.1,92.1,22.8,134.9c12.8,32.7,30.7,63.3,52.9,90.4c2.8-19,9.7-37.4,20.3-53.6c14.2-21.6,34.8-39,58.5-49.3
				L-479.8,1101.3z"/>
			<path class="st2" d="M-468.5,894.3c-6.5-38-22.1-74.3-25.7-112.8c-0.5-5.6-0.8-11.3-1.7-16.8c-0.9-5.6-2.5-11.1-5.4-15.9
				c-3.2-5.3-7.9-9.6-13.1-13c-5.2-3.4-10.8-6.1-16.3-8.9c-11.5-5.7-23-11.8-35.6-14.1c-10.6-1.9-21.8-1.1-31.9,2.9
				c-7.6,2.9-14.5,7.6-20.1,13.5c4.9-8.3,11.8-15.5,19.8-20.8c4.5-3,9.5-5.4,14.8-6.8c5.3-1.4,10.8-1.7,16.2-0.6
				c9.7,2,17.8,8.5,26,14c6,4,12.3,7.6,18.9,10.4c5.1,2.2,10.4,3.8,15.7,5.2c4.3,1.1,8.7,2,13.1,2.7c-3.5-1.1-6.8-2.8-9.7-5.1
				c-4-3.2-7.2-7.4-11.2-10.6c-3.9-3.1-8.6-5.1-13.1-7.1c-5.1-2.2-10.1-4.6-15.1-7c5,1.3,10.1,2.4,15.2,3.6c2.5,0.5,5,1.1,7.5,1.1
				c2.5,0,5.1-0.6,7.2-2.1c1.5-1.1,2.6-2.6,3.2-4.4c0.6-1.7,0.6-3.7,0.1-5.4c-0.4-1.5-1.3-2.9-2.3-4.1c-1-1.2-2.2-2.2-3.4-3.2
				c-0.9-0.7-1.9-1.4-2.9-2.1l3.9-1.6c2.7,1.7,5,4,6.7,6.7c1,1.7,1.8,3.5,2.2,5.4c0.4,1.9,0.4,3.9-0.1,5.8c-0.7,2.8-2.5,5.3-3,8.2
				c-0.3,1.7-0.2,3.5,0.3,5.3c0.5,1.7,1.3,3.3,2.2,4.8c3.1,5,7.9,8.9,13.5,10.8c2.7,0.9,5.5,1.4,8.3,1.3c-3.1,2.7-5.7,6-7.5,9.6
				c-4.3,8.8-4,19.2-2.7,28.9c3.3,24,12.3,47.1,24.8,67.8c8.2,13.5,17.9,26.3,23,41.2c2.2,6.3,3.4,12.9,4,19.6
				c1.6,19.7-3.2,39.3-3.2,59c0,10.5,1.4,21.3,6.3,30.6c2.4,4.7,5.7,8.9,9.8,12.2c4.1,3.3,9,5.6,14.2,6.4c7.6,1.2,15.3-1,23-1.6
				c4.1-0.3,8.3-0.3,12.3,0.2c-10.3,0.9-20.2,4.7-28.5,10.9c-3,2.2-5.7,4.8-8,7.7c-2.2,3-3.9,6.4-4.7,10c-0.9,4.6-0.3,9.6,1.9,13.8
				c-15.3-15.1-26.9-33.8-33.8-54.1C-464.2,963.5-462.8,928.2-468.5,894.3z"/>
			<path class="st2" d="M-306.2,1197.2c-5,12.6-15.1,22.4-23.5,33.1c-2.8,3.6-5.4,7.3-7.4,11.4c-2,4.1-3.3,8.6-3.3,13.1
				c0,4.4,1.2,8.7,3.4,12.5c1.6,2.6,3.6,4.9,6.1,6.8c1.1,0.7,2.2,1.4,3.3,2.1c-1.2-0.6-2.3-1.3-3.3-2.1
				c-17.2-11.2-33.5-23.9-48.5-37.9c-18.4-17.3-35.3-37-44.9-60.4c-4.6-11.3-7.5-23.3-8.5-35.5c3.3,23.5,13.2,46.1,28.3,64.4
				c12.1,14.7,27.6,26.7,44.9,34.7c0.2-7.5,3.3-14.9,8.5-20.3c4.5-4.6,10.2-7.6,16-10.3c5.8-2.8,11.6-5.4,16.6-9.4
				c5.2-4.2,9.1-9.9,11.8-16c1.5-3.4,2.5-7,3.2-10.7C-302.3,1180.9-303.2,1189.5-306.2,1197.2z"/>
			<path class="st2" d="M-181.7,1176.1c-9.6,23.4-26.4,43.1-44.9,60.4c-15,14-31.3,26.7-48.5,37.9c-1.1,0.8-2.2,1.5-3.3,2.2
				c1.1-0.7,2.2-1.4,3.3-2.2c2.4-1.9,4.5-4.1,6-6.7c2.2-3.7,3.5-8.1,3.4-12.5c0-4.6-1.3-9-3.3-13.1c-2-4.1-4.6-7.8-7.4-11.4
				c-8.4-10.7-18.5-20.5-23.5-33.1c-3.1-7.8-4-16.3-2.7-24.6c0.7,3.7,1.7,7.3,3.2,10.7c2.6,6.1,6.6,11.8,11.8,16
				c4.9,4,10.8,6.7,16.6,9.4c5.8,2.8,11.5,5.8,16,10.3c5.3,5.4,8.4,12.8,8.5,20.3c17.3-8.1,32.7-20,44.9-34.7
				c15.1-18.3,25-40.9,28.3-64.4C-174.2,1152.8-177,1164.8-181.7,1176.1z"/>
			<path class="st2" d="M-143.3,993.1c-6.9,20.3-18.6,39-33.8,54.1c2.1-4.2,2.8-9.2,1.9-13.8c-0.7-3.6-2.4-7.1-4.7-10
				c-2.2-3-5-5.5-8-7.7c-8.2-6.2-18.2-10-28.5-10.9c4.1-0.5,8.2-0.6,12.3-0.2c7.7,0.6,15.4,2.8,23,1.6c5.2-0.8,10.1-3.1,14.2-6.4
				c4.1-3.3,7.4-7.5,9.8-12.2c4.9-9.3,6.3-20.1,6.3-30.6c0-19.7-4.7-39.4-3.2-59c0.5-6.7,1.8-13.3,4-19.6
				c5.1-14.9,14.9-27.7,23-41.2c12.6-20.7,21.5-43.8,24.8-67.8c1.3-9.7,1.6-20.1-2.7-28.9c-1.8-3.7-4.4-7-7.5-9.6
				c2.8,0,5.7-0.4,8.3-1.3c5.6-1.9,10.4-5.8,13.5-10.8c0.9-1.5,1.7-3.1,2.2-4.8c0.5-1.7,0.6-3.5,0.3-5.3c-0.5-2.9-2.3-5.4-3-8.2
				c-0.5-1.9-0.5-3.9-0.1-5.8c0.4-1.9,1.2-3.7,2.2-5.4c1.7-2.7,4-5,6.7-6.7l3.9,1.6c-1,0.7-1.9,1.4-2.9,2.1c-1.2,1-2.4,2-3.4,3.2
				c-1,1.2-1.8,2.6-2.3,4.1c-0.5,1.8-0.5,3.7,0.1,5.4c0.6,1.7,1.7,3.3,3.2,4.4c2,1.5,4.6,2.1,7.2,2.1c2.5,0,5-0.5,7.5-1.1
				c5.1-1.1,10.1-2.3,15.2-3.6c-5,2.4-10,4.7-15.1,7c-4.6,2-9.2,4-13.1,7.1c-4.1,3.2-7.2,7.4-11.2,10.6c-2.9,2.3-6.2,4-9.7,5.1
				c4.4-0.7,8.8-1.6,13.1-2.7c5.3-1.4,10.6-3.1,15.7-5.2c6.6-2.8,12.9-6.4,18.9-10.4c8.2-5.5,16.3-12,26-14
				c5.3-1.1,10.9-0.8,16.2,0.6c5.3,1.4,10.2,3.8,14.8,6.8c8.1,5.3,14.9,12.5,19.8,20.8c-5.6-5.9-12.5-10.5-20.1-13.5
				c-10.1-3.9-21.2-4.8-31.9-2.9c-12.6,2.3-24.1,8.4-35.6,14.1c-5.6,2.8-11.2,5.4-16.3,8.9c-5.2,3.4-9.9,7.7-13.1,13
				c-2.9,4.8-4.5,10.4-5.4,15.9c-0.9,5.6-1.2,11.2-1.7,16.8c-3.6,38.4-19.2,74.7-25.7,112.8C-133.8,925.2-132.3,960.5-143.3,993.1z"
				/>
			<path class="st2" d="M32.4,1009.4c-1.7,38-12.1,75.4-28.2,109.9c-17.7,37.9-42.3,72.5-72.3,101.6c0.7-10.3,1-20.6,0.8-31
				c-0.3-14.2-1.5-28.6-5.3-42.3c-4.6-16.6-12.9-32.3-24.2-45.3c5.7,16.2,8.2,33.5,7.6,50.6c-0.6,15-3.7,29.8-9.1,43.8
				c1.9-8.9,2.6-18.1,2.3-27.2c-0.7-17.6-5.7-35-15.1-49.9c-4.2-6.7-9.3-12.8-15.1-18.1l-0.1-27.4c23.7,10.3,44.4,27.6,58.5,49.3
				c10.5,16.1,17.5,34.5,20.3,53.6c22.2-27.1,40.2-57.8,52.9-90.4c16.7-42.8,24.5-89,22.8-134.9C31.8,970.7,33.3,990.1,32.4,1009.4z
				"/>
			<path class="st2" d="M149.5,893.8c-1.2,29.8-6.8,59.5-16.6,87.6c-2.2-13.6-7.1-26.8-14.4-38.5c-7.6-12.2-17.7-22.8-29.5-31
				c5.6,1.1,11,3.2,15.9,6c1.8,1,3.5,2.2,5.4,3c1.9,0.8,4,1.2,6,0.8c1.4-0.3,2.7-1,3.7-2c1.1-1,1.9-2.1,2.5-3.4
				c1.3-2.5,1.7-5.4,2.1-8.2c4-30.1,1.8-60.9-4.5-90.7c-9.7-45.8-28.8-88.9-44.6-133c-9.9-27.8-18.5-56-25.7-84.6
				c7.5,23,16.6,45.5,27.2,67.2c17.1,35.2,38,68.6,52.1,105C144.1,810.8,151.1,852.5,149.5,893.8z"/>
			<path class="st2" d="M-179.2,591c2-2.8,6.6-3.9,8.3-5.7c-6-2-13.3-5.4-19.3-8.7c-5.1,20.7-21.7,24.3-28.8,37.6
				c-9.3,19.2-10.4,40.3-11.4,62.2l2.3,2.4c2.2,18.4,3.2,37.4,6.2,55.4c0.5,24.3,13.3,45.8,7.3,70.6c-5.9,0.9-10.5,7.1-15,10.1
				c-5,2.6-11.7,6.6-11.5,12.7c-1.2-0.2-2.6,2.1-3.7,0.1l0.5-0.4c-1.4-5.6-7.9-2.6-12.1-3.4c-16.1,5.5-33.9,6.5-50.7,11
				c-15.4-9.3-34.4-12.3-53.6-11.5c-4.1-2.6-4.1-7.4-6.2-11.6c-4.8-4.8-9-11-16.4-9.6c-6.9-37.6,4-76.8,11.8-113
				c-0.9-28.3,10.7-60.2-10.8-82.4c-7.8-9.4-22.3-19.1-25.6-31.1c-5.8-0.6-21.5,0.5-22.7,1.7c3.5,5,4.3,11.2,7.9,14.1
				c-2.8,5.1-9.5,4.3-13.8,7.4c-6.2,5.6-16.6,9.9-21.1,18.6l6.7,14.8c16.6-10.8,10.3,10.7,22.6,10.4c12.9,6.8,25.8,14.8,39.9,17.5
				c3.7,8.8,1.8,19.5,2.7,29.7c0.1,34.8-3,70.4-1.9,104.3v3.9c-4.8,7.5,5.7,14.8,5.6,22.1c0.1,16.7,18.4,24.1,28.8,34.4
				c10.9,2.6,19.8,10.3,30.3,13.8c16.4,8.5,22.6,24.7,22.3,42.4c-9.9,4.4-19.8,9.2-29.9,13.7c-18.1,6.1-26.3,30.2-48.6,25.2
				c-5.4-2.3-10.1-10.5-11.1-16.1c0,0-1.6,11.8-3.9,23.9c1.1,3.8,5.4,5.6,8.4,7.5c3.4,0.9,8.5,1.7,11.8-0.6
				c15-12.2,35.2-11.9,53.5-16.1c15.9-2.6,33.8-6,50-2c19.5-0.6,33.5,11.2,50.9,14.7c6-3.3,13.2-13.2,14.4-21.2
				c-4.3,1.2-7.7,2.7-11.8,2.3c-19.8,3.2-30.5-16.7-46.4-23.1c-8.4-4.6-23.1,3.1-28-7.9c-2.6-15.9,0-34.4,13.8-44.7
				c17.8-10.1,39.6-13.8,53.8-30.2c11.2-12.8,12.2-30.5,12.7-47.9c-0.5-7-5.6-82.1-4.3-109c3.8-13.1,7.1-14.8,13.5-20.1
				c34.6-6.1,55.5-16.6,57.4-47.2C-144.2,610.8-167.3,608.4-179.2,591z M-427.5,616.9c0,0,12-0.9,22.5,0.7c7.6,1.2,14,5.7,15.8,2.8
				C-389.2,620.5-405.6,659.6-427.5,616.9z M-206.1,624.4c1.7,2.9,8.2-1.6,15.8-2.8c10.5-1.6,22.5-0.7,22.5-0.7
				C-189.7,663.5-206.1,624.4-206.1,624.4z"/>
		</g>
		<g>
			<g>
				<path class="st2" d="M-542.6,1379.3v147.8c0,26.6-21.5,48.1-48.1,48.1h-167.6v-244h167.6
					C-564.2,1331.1-542.6,1352.7-542.6,1379.3z M-595.5,1393.7c0-10-8.1-18-18-18h-91.8v155h91.8c10,0,18-8.1,18-18V1393.7z"/>
				<path class="st2" d="M-300.7,1331.1v195.9c0,26.6-21.5,48.1-48.1,48.1h-119.5c-26.6,0-48.1-21.5-48.1-48.1v-195.9h52.9v181.5
					c0,10,8.1,18,18,18h73.8c10,0,18-8.1,18-18v-181.5H-300.7z"/>
				<path class="st2" d="M-221.5,1375.7v55.2h126.7v44.5h-126.7v37.2c0,10,8.1,18,18,18h132.7v44.5h-155.6
					c-26.6,0-48.1-21.5-48.1-48.1v-195.9h203.7v44.5H-221.5z"/>
				<path class="st2" d="M1.2,1375.7v55.2H128v44.5H1.2v37.2c0,10,8.1,18,18,18H152v44.5H-3.6c-26.6,0-48.1-21.5-48.1-48.1v-195.9
					H152v44.5H1.2z"/>
			</g>
			<g>
				<path class="st2" d="M-721.2,1674.8c0,10.3-4.1,15.2-12.5,15.2h-24.6v-56.9l21-0.1c9.9,0,16.4,3.6,16.4,14.5
					c0,6.8-1.9,11.4-8,14.1C-725.3,1662.8-721.2,1668.9-721.2,1674.8z M-734.1,1636.1l-21.3-0.1v24.3h13.3c8.6,0,18.3-0.1,18.3-12.6
					C-723.8,1642-727.1,1636.1-734.1,1636.1z M-755.4,1687.3l18.3,0.1c8.2,0,13-2.5,13-11.7c0-5.9-3.3-11.6-10.9-12.4h-20.4V1687.3z
					"/>
				<path class="st2" d="M-537.9,1690h-3.4l-10.3-22.4h-21.2l0.2,22.4h-2.9v-56.9h23.1c9.1,0,14.1,7.5,14.1,16.9
					c0,7.2-3.3,15.4-10.2,17.1L-537.9,1690z M-541.5,1649.9c0-8.8-4.4-14.3-11-14.3h-20.1v28.7l17.4,0.1
					C-547.8,1664.2-541.5,1662.6-541.5,1649.9z"/>
				<path class="st2" d="M-399.7,1690l20.5-56.9h4.6c2.8,7.1,7.8,20.9,13.6,37.4c2.3,6.4,4.7,12.8,7,19.5h-3.3l-6.9-19.2h-25.3
					l-6.3,19.2H-399.7z M-376.8,1635.5c-1,3.1-3.4,9.7-4.8,13.5l-6.6,18.5h22.9L-376.8,1635.5z"/>
				<path class="st2" d="M-199,1655.2c2.6,1.7,6.3,3,9.9,4.2c7.5,2.5,16.9,5.7,16.9,15.5c0,8.4-6.8,15.1-17,15.1h-2.1
					c-3.8,0-12.1-1-17.8-12.9l2.4-1.4c3.8,6.8,8.4,11.4,16.5,11.4c7.6,0,14.8-5,14.8-11.4c0-7.7-7.5-10.3-15.3-13.3
					c-3.4-1.2-6.9-2.5-9.8-4.2c-4-2.4-6.9-5.6-6.9-10.9c0-8.3,6.8-14.2,16.3-14.2c6.9,0,12.1,2.9,16.8,10.1l-2.2,1.4
					c-3.9-5-7.2-8.8-14.4-8.8c-7.9,0-13.4,4.7-13.4,10.9C-204.2,1650.1-202.6,1652.8-199,1655.2z"/>
				<path class="st2" d="M-27.4,1690v-56.9h3v56.9H-27.4z"/>
				<path class="st2" d="M152.4,1687.9v0.8v1.2h-31.9v-56.9h3v54.4h28.9C152.3,1688,152.4,1687.7,152.4,1687.9z"/>
			</g>
		</g>
	</g>
</g>
<g id="Layer_2">
</g>
</svg>
