<?xml version="1.0" encoding="UTF-8" standalone="no"?>
<svg
   xmlns:dc="http://purl.org/dc/elements/1.1/"
   xmlns:cc="http://creativecommons.org/ns#"
   xmlns:rdf="http://www.w3.org/1999/02/22-rdf-syntax-ns#"
   xmlns:svg="http://www.w3.org/2000/svg"
   xmlns="http://www.w3.org/2000/svg"
   xml:space="preserve"
   style="enable-background:new 0 0 1080 1080;"
   viewBox="0 0 1080 1080"
   y="0px"
   x="0px"
   id="Camada_1"
   version="1.1"><metadata
   id="metadata425"><rdf:RDF><cc:Work
       rdf:about=""><dc:format>image/svg+xml</dc:format><dc:type
         rdf:resource="http://purl.org/dc/dcmitype/StillImage" /><dc:title></dc:title></cc:Work></rdf:RDF></metadata><defs
   id="defs423" />
<style
   id="style2"
   type="text/css">
	.st0{fill:#424242;}
</style>
<g
   id="g48">
	<g
   id="g6">
		<path
   id="path4"
   d="M1718.56,815.14c-156.34,0-283.53-127.19-283.53-283.53s127.19-283.53,283.53-283.53    c34.62,0,68.45,6.17,100.56,18.35l-6.28,16.56c-30.09-11.4-61.81-17.19-94.28-17.19c-146.57,0-265.81,119.24-265.81,265.81    S1572,797.42,1718.56,797.42s265.81-119.24,265.81-265.81c0-32.48-5.79-64.21-17.21-94.3l16.57-6.28    c12.19,32.1,18.37,65.95,18.37,100.59C2002.09,687.95,1874.9,815.14,1718.56,815.14z"
   class="st0" />
	</g>
	<g
   id="g10">
		
			<rect
   id="rect8"
   height="17.72"
   width="388.44"
   class="st0"
   transform="matrix(0.7071 -0.7071 0.7071 0.7071 264.7818 1427.7966)"
   y="385.42"
   x="1661.68" />
	</g>
	<g
   id="g14">
		<polygon
   id="polygon12"
   points="2002.09,318.97 1931.21,318.97 1931.21,248.09 1948.93,248.09 1948.93,301.25 2002.09,301.25   "
   class="st0" />
	</g>
	<g
   id="g18">
		<polygon
   id="polygon16"
   points="1966.65,354.41 1895.76,354.41 1895.76,283.53 1913.49,283.53 1913.49,336.69 1966.65,336.69   "
   class="st0" />
	</g>
	<g
   id="g22">
		<path
   id="path20"
   d="M1718.56,761.98c-127.02,0-230.37-103.34-230.37-230.37s103.34-230.37,230.37-230.37    s230.37,103.34,230.37,230.37S1845.58,761.98,1718.56,761.98z M1718.56,318.97c-117.25,0-212.65,95.39-212.65,212.65    s95.39,212.64,212.65,212.64c117.25,0,212.64-95.39,212.64-212.64S1835.81,318.97,1718.56,318.97z"
   class="st0" />
	</g>
	<g
   id="g26">
		<path
   id="path24"
   d="M1718.56,708.82c-97.71,0-177.2-79.49-177.2-177.2s79.5-177.2,177.2-177.2c97.71,0,177.2,79.49,177.2,177.2    S1816.27,708.82,1718.56,708.82z M1718.56,372.13c-87.94,0-159.48,71.55-159.48,159.48s71.54,159.48,159.48,159.48    c87.94,0,159.48-71.55,159.48-159.48S1806.5,372.13,1718.56,372.13z"
   class="st0" />
	</g>
	<g
   id="g30">
		<path
   id="path28"
   d="M1718.56,655.65c-68.4,0-124.04-55.64-124.04-124.04s55.64-124.04,124.04-124.04    c68.4,0,124.04,55.64,124.04,124.04S1786.96,655.65,1718.56,655.65z M1718.56,425.29c-58.63,0-106.32,47.69-106.32,106.32    s47.7,106.32,106.32,106.32c58.63,0,106.32-47.69,106.32-106.32S1777.19,425.29,1718.56,425.29z"
   class="st0" />
	</g>
	<g
   id="g34">
		<path
   id="path32"
   d="M1718.56,602.49c-39.08,0-70.88-31.8-70.88-70.88s31.8-70.88,70.88-70.88c39.08,0,70.88,31.8,70.88,70.88    S1757.64,602.49,1718.56,602.49z M1718.56,478.45c-29.31,0-53.16,23.85-53.16,53.16c0,29.31,23.85,53.16,53.16,53.16    c29.31,0,53.16-23.85,53.16-53.16C1771.72,502.3,1747.88,478.45,1718.56,478.45z"
   class="st0" />
	</g>
	<g
   id="g38">
		<circle
   id="circle36"
   r="17.72"
   cy="531.61"
   cx="1718.56"
   class="st0" />
	</g>
	<g
   id="g42">
		<path
   id="path40"
   d="M1479.34,815.14h-35.44c-3.07,0-5.92-1.59-7.54-4.21c-1.61-2.61-1.76-5.88-0.39-8.62l53.16-106.32l15.85,7.93    l-46.75,93.5h17.43l59.43-59.43l12.53,12.53l-62.02,62.02C1483.94,814.2,1481.68,815.14,1479.34,815.14z"
   class="st0" />
	</g>
	<g
   id="g46">
		<path
   id="path44"
   d="M1993.23,815.14h-35.44c-2.35,0-4.6-0.93-6.26-2.6l-62.02-62.02l12.53-12.53l59.43,59.43h17.43l-46.75-93.5    l15.85-7.93l53.16,106.32c1.37,2.74,1.22,6.01-0.39,8.62C1999.15,813.55,1996.3,815.14,1993.23,815.14z"
   class="st0" />
	</g>
</g>
<g
   id="g110">
	<g
   id="g52">
		<path
   id="path50"
   d="M3208.49,803.85h-605.95l-50.68-44.38v-33.04h280.87l22.1,19.35h101.37l22.1-19.35h280.87v33.04    L3208.49,803.85z M2611.69,784.5h587.65l37.73-33.04v-5.67h-249.62l-22.1,19.35h-119.67l-22.1-19.35h-249.62v5.67L2611.69,784.5z"
   class="st0" />
	</g>
	<g
   id="g56">
		<path
   id="path54"
   d="M2618.16,707.09h-22.1V416.78c0-21.35,19.83-38.71,44.21-38.71h132.62v19.35h-132.62    c-12.19,0-22.1,8.69-22.1,19.35V707.09z"
   class="st0" />
	</g>
	<g
   id="g60">
		<path
   id="path58"
   d="M3214.96,707.09h-22.1V416.78c0-10.67-9.91-19.35-22.1-19.35h-132.62v-19.35h132.62    c24.38,0,44.21,17.36,44.21,38.71V707.09z"
   class="st0" />
	</g>
	<g
   id="g64">
		<polygon
   id="polygon62"
   points="2728.68,687.73 2640.26,687.73 2640.26,416.78 2794.99,416.78 2794.99,436.13 2662.37,436.13     2662.37,668.38 2728.68,668.38   "
   class="st0" />
	</g>
	<g
   id="g68">
		<rect
   id="rect66"
   height="19.35"
   width="77.36"
   class="st0"
   y="571.61"
   x="2883.41" />
	</g>
	<g
   id="g72">
		<rect
   id="rect70"
   height="19.35"
   width="77.36"
   class="st0"
   y="416.78"
   x="2883.41" />
	</g>
	<g
   id="g76">
		<polygon
   id="polygon74"
   points="3170.75,687.73 2750.78,687.73 2750.78,629.67 3060.24,629.67 3060.24,649.02 2772.89,649.02     2772.89,668.38 3148.65,668.38 3148.65,436.13 3016.03,436.13 3016.03,416.78 3170.75,416.78   "
   class="st0" />
	</g>
	<g
   id="g80">
		<polygon
   id="polygon78"
   points="2817.09,639.35 2794.99,639.35 2794.99,615.99 2839.2,577.28 2839.2,430.46 2794.99,391.75     2794.99,358.72 2850.25,358.72 2850.25,329.68 2872.35,329.68 2872.35,378.07 2817.09,378.07 2817.09,383.74 2861.3,422.45     2861.3,585.29 2817.09,624   "
   class="st0" />
	</g>
	<g
   id="g84">
		<polygon
   id="polygon82"
   points="3016.03,639.35 2993.92,639.35 2993.92,624 2949.72,585.29 2949.72,422.45 2993.92,383.74     2993.92,378.07 2894.46,378.07 2894.46,358.72 3016.03,358.72 3016.03,391.75 2971.82,430.46 2971.82,577.28 3016.03,615.99   "
   class="st0" />
	</g>
	<g
   id="g88">
		<rect
   id="rect86"
   height="38.71"
   width="22.1"
   class="st0"
   y="329.68"
   x="2938.67" />
	</g>
	<g
   id="g92">
		<polygon
   id="polygon90"
   points="2993.92,300.65 2927.61,300.65 2927.61,261.95 2883.41,261.95 2883.41,300.65 2817.09,300.65     2817.09,281.3 2861.3,281.3 2861.3,242.59 2949.72,242.59 2949.72,281.3 2993.92,281.3   "
   class="st0" />
	</g>
	<g
   id="g96">
		<polygon
   id="polygon94"
   points="3009.55,339.36 2801.47,339.36 2772.89,314.34 2772.89,242.59 2839.2,242.59 2839.2,261.95     2794.99,261.95 2794.99,306.32 2810.62,320.01 3000.4,320.01 3016.03,306.32 3016.03,261.95 2971.82,261.95 2971.82,242.59     3038.13,242.59 3038.13,314.34   "
   class="st0" />
	</g>
	<g
   id="g100">
		<rect
   id="rect98"
   height="19.35"
   width="22.1"
   class="st0"
   y="484.52"
   x="2894.46" />
	</g>
	<g
   id="g104">
		<rect
   id="rect102"
   height="19.35"
   width="22.1"
   class="st0"
   y="445.81"
   x="2894.46" />
	</g>
	<g
   id="g108">
		<rect
   id="rect106"
   height="19.35"
   width="22.1"
   class="st0"
   y="523.22"
   x="2894.46" />
	</g>
</g>
<g
   id="g198">
	<g
   id="g196">
		<g
   id="g114">
			<path
   id="path112"
   d="M4023.02,501.48h-219.41c-4.85,0-8.78-3.93-8.78-8.78V246.96c0-4.85,3.93-8.78,8.78-8.78h245.74     c4.85,0,8.78,3.93,8.78,8.78v219.41h-17.55V255.74h-228.19v228.19h210.63V501.48z"
   class="st0" />
		</g>
		<g
   id="g118">
			<path
   id="path116"
   d="M4347.75,501.48h-219.41v-17.55h210.64V255.74h-228.19v210.63h-17.55V246.96c0-4.85,3.93-8.78,8.78-8.78     h245.74c4.85,0,8.78,3.93,8.78,8.78V492.7C4356.53,497.55,4352.6,501.48,4347.75,501.48z"
   class="st0" />
		</g>
		<g
   id="g122">
			<path
   id="path120"
   d="M4049.35,799.88h-245.74c-4.85,0-8.78-3.93-8.78-8.78V545.36c0-4.85,3.93-8.78,8.78-8.78h219.41v17.55     h-210.63v228.19h228.19V571.69h17.55V791.1C4058.13,795.95,4054.2,799.88,4049.35,799.88z"
   class="st0" />
		</g>
		<g
   id="g126">
			<path
   id="path124"
   d="M4347.75,799.88h-245.74c-4.85,0-8.78-3.93-8.78-8.78V571.69h17.55v210.63h228.19V554.14h-210.64v-17.55     h219.41c4.85,0,8.78,3.93,8.78,8.78V791.1C4356.53,795.95,4352.6,799.88,4347.75,799.88z"
   class="st0" />
		</g>
		<g
   id="g130">
			<path
   id="path128"
   d="M3996.69,361.05h-26.33V343.5h17.55v-35.11h-122.87v35.11h17.55v17.55h-26.33c-4.85,0-8.78-3.93-8.78-8.78     v-52.66c0-4.85,3.93-8.78,8.78-8.78h140.42c4.85,0,8.78,3.93,8.78,8.78v52.66C4005.47,357.13,4001.54,361.05,3996.69,361.05z"
   class="st0" />
		</g>
		<g
   id="g134">
			<path
   id="path132"
   d="M3952.81,440.04h-17.55V334.72c0-4.85,3.93-8.78,8.78-8.78h26.33v17.55h-17.55V440.04z"
   class="st0" />
		</g>
		<g
   id="g138">
			<path
   id="path136"
   d="M3917.71,440.04h-17.55V343.5h-17.55v-17.55h26.33c4.85,0,8.78,3.93,8.78,8.78V440.04z"
   class="st0" />
		</g>
		<g
   id="g142">
			<rect
   id="rect140"
   height="17.55"
   width="70.21"
   class="st0"
   y="431.26"
   x="3891.38" />
		</g>
		<g
   id="g146">
			<path
   id="path144"
   d="M4262.56,498.9l-99.11-99.11l-55.23,55.23l-12.41-12.41l61.44-61.44c3.43-3.43,8.98-3.43,12.41,0     l105.32,105.32L4262.56,498.9z"
   class="st0" />
		</g>
		<g
   id="g150">
			<path
   id="path148"
   d="M4213.53,437.47l-12.41-12.41l87.76-87.76c3.43-3.43,8.98-3.43,12.41,0l52.66,52.66l-12.41,12.41     l-46.45-46.45L4213.53,437.47z"
   class="st0" />
		</g>
		<g
   id="g154">
			<path
   id="path152"
   d="M4207.33,361.05c-19.36,0-35.11-15.74-35.11-35.11c0-19.36,15.74-35.11,35.11-35.11s35.11,15.74,35.11,35.11     C4242.44,345.31,4226.69,361.05,4207.33,361.05z M4207.33,308.39c-9.68,0-17.55,7.88-17.55,17.55c0,9.68,7.88,17.55,17.55,17.55     c9.68,0,17.55-7.88,17.55-17.55C4224.88,316.27,4217,308.39,4207.33,308.39z"
   class="st0" />
		</g>
		<g
   id="g158">
			<rect
   id="rect156"
   height="17.55"
   width="157.98"
   class="st0"
   y="589.24"
   x="3847.49" />
		</g>
		<g
   id="g162">
			<rect
   id="rect160"
   height="17.55"
   width="157.98"
   class="st0"
   y="624.35"
   x="3847.49" />
		</g>
		<g
   id="g166">
			<rect
   id="rect164"
   height="17.55"
   width="157.98"
   class="st0"
   y="659.45"
   x="3847.49" />
		</g>
		<g
   id="g170">
			<rect
   id="rect168"
   height="17.55"
   width="157.98"
   class="st0"
   y="694.56"
   x="3847.49" />
		</g>
		<g
   id="g174">
			<rect
   id="rect172"
   height="17.55"
   width="87.76"
   class="st0"
   y="729.66"
   x="3847.49" />
		</g>
		<g
   id="g178">
			
				<rect
   id="rect176"
   height="17.55"
   width="161.35"
   class="st0"
   transform="matrix(0.7071 -0.7071 0.7071 0.7071 830.7535 3210.4272)"
   y="593.63"
   x="4210.03" />
		</g>
		<g
   id="g182">
			<path
   id="path180"
   d="M4154.67,747.22c-2.28,0-4.53-0.89-6.21-2.57c-2.57-2.57-3.29-6.45-1.82-9.77l35.11-78.99     c0.44-0.99,1.06-1.88,1.82-2.64l114.09-114.09l12.41,12.41l-112.94,112.95l-25.18,56.64l56.64-25.18l112.95-112.94l12.41,12.41     l-114.09,114.09c-0.76,0.76-1.65,1.38-2.64,1.82l-78.99,35.11C4157.09,746.97,4155.88,747.22,4154.67,747.22z"
   class="st0" />
		</g>
		<g
   id="g186">
			
				<rect
   id="rect184"
   height="62.06"
   width="17.55"
   class="st0"
   transform="matrix(0.7071 -0.7071 0.7071 0.7071 751.7654 3177.7095)"
   y="650.36"
   x="4202.94" />
		</g>
		<g
   id="g190">
			<rect
   id="rect188"
   height="17.55"
   width="149.2"
   class="st0"
   y="729.66"
   x="4154.67" />
		</g>
		<g
   id="g194">
			<path
   id="path192"
   d="M4102.01,554.14h-52.66c-4.85,0-8.78-3.93-8.78-8.78V492.7c0-4.85,3.93-8.78,8.78-8.78h52.66     c4.85,0,8.78,3.93,8.78,8.78v52.66C4110.79,550.21,4106.86,554.14,4102.01,554.14z M4058.13,536.58h35.11v-35.11h-35.11V536.58z"
   class="st0" />
		</g>
	</g>
</g>
<g
   style="fill:#ffffff"
   id="g250">
	<g
   style="fill:#ffffff"
   id="g248">
		<g
   style="fill:#ffffff"
   id="g228">
			<g
   style="fill:#ffffff"
   id="g202">
				<path
   style="fill:#ffffff"
   id="path200"
   d="M540,580.05c-55.21,0-100.13-44.91-100.13-100.13S484.79,379.8,540,379.8      c55.21,0,100.13,44.91,100.13,100.13S595.21,580.05,540,580.05z M540,399.82c-44.17,0-80.1,35.93-80.1,80.1      s35.93,80.1,80.1,80.1c44.17,0,80.1-35.93,80.1-80.1S584.17,399.82,540,399.82z"
   class="st0" />
			</g>
			<g
   style="fill:#ffffff"
   id="g226">
				<g
   style="fill:#ffffff"
   id="g220">
					<g
   style="fill:#ffffff"
   id="g206">
						<rect
   style="fill:#ffffff"
   id="rect204"
   height="20.03"
   width="200.25"
   class="st0"
   y="650.14"
   x="439.87" />
					</g>
					<g
   style="fill:#ffffff"
   id="g210">
						<rect
   style="fill:#ffffff"
   id="rect208"
   height="20.03"
   width="200.25"
   class="st0"
   y="690.19"
   x="439.87" />
					</g>
					<g
   style="fill:#ffffff"
   id="g214">
						<polygon
   style="fill:#ffffff"
   id="polygon212"
   points="565.38,780.3 514.62,780.3 494.59,750.26 439.87,750.26 439.87,730.24 505.31,730.24         525.33,760.28 554.67,760.28 574.69,730.24 640.13,730.24 640.13,750.26 585.41,750.26       "
   class="st0" />
					</g>
					<g
   style="fill:#ffffff"
   id="g218">
						<path
   style="fill:#ffffff"
   id="path216"
   d="M620.1,740.25h-20.03V603.31l6.29-2.52c45.53-18.21,73.81-64.52,73.81-120.86        c0-77.29-62.88-140.18-140.18-140.18c-77.29,0-140.18,62.88-140.18,140.18c0,56.34,28.28,102.66,73.81,120.86l6.29,2.52        v136.94H459.9V616.67c-49.59-22.89-80.1-74.63-80.1-136.75c0-88.33,71.87-160.2,160.2-160.2c88.33,0,160.2,71.87,160.2,160.2        c0,62.12-30.51,113.85-80.1,136.75V740.25z"
   class="st0" />
					</g>
				</g>
				<g
   style="fill:#ffffff"
   id="g224">
					<polygon
   style="fill:#ffffff"
   id="polygon222"
   points="557.28,536.88 517.23,456.78 484.07,489.94 419.85,489.94 419.85,469.91 475.78,469.91        522.72,422.97 562.77,503.07 595.93,469.91 660.15,469.91 660.15,489.94 604.22,489.94      "
   class="st0" />
				</g>
			</g>
		</g>
		<g
   style="fill:#ffffff"
   id="g246">
			<g
   style="fill:#ffffff"
   id="g232">
				<path
   style="fill:#ffffff"
   id="path230"
   d="M259.08,433.42l-18.72-7.11C287.3,302.67,407.71,219.6,540,219.6h24.17l-67.15,67.15l-14.16-14.16      l31.89-31.89C400.88,250.45,300.08,325.42,259.08,433.42z"
   class="st0" />
			</g>
			<g
   style="fill:#ffffff"
   id="g236">
				<path
   style="fill:#ffffff"
   id="path234"
   d="M860.4,564.17l-67.15-67.15l14.16-14.16l31.89,31.89c-9.74-113.89-84.73-214.68-192.74-255.68l7.11-18.72      C777.32,287.28,860.4,407.7,860.4,540V564.17z"
   class="st0" />
			</g>
			<g
   style="fill:#ffffff"
   id="g240">
				<path
   style="fill:#ffffff"
   id="path238"
   d="M540,860.4h-24.17l67.15-67.15l14.16,14.16l-31.89,31.89c113.87-9.74,214.67-84.72,255.67-192.71      l18.72,7.11C792.7,777.33,672.29,860.4,540,860.4z"
   class="st0" />
			</g>
			<g
   style="fill:#ffffff"
   id="g244">
				<path
   style="fill:#ffffff"
   id="path242"
   d="M426.28,839.63C302.66,792.68,219.6,672.27,219.6,540v-24.17l67.15,67.15l-14.16,14.16l-31.89-31.89      c9.74,113.86,84.71,214.66,192.68,255.66L426.28,839.63z"
   class="st0" />
			</g>
		</g>
	</g>
</g>
<g
   id="g290">
	<g
   id="g288">
		<g
   id="g254">
			<path
   id="path252"
   d="M-379.81,747c-1.02,0-2.05-0.15-3.04-0.45l-538.2-165.6c-5.46-1.69-8.53-7.48-6.85-12.94     c1.67-5.47,7.49-8.54,12.93-6.85l524.81,161.49V357.36l-524.81,161.49c-5.44,1.67-11.26-1.4-12.93-6.85     c-1.68-5.46,1.38-11.25,6.85-12.94l538.2-165.6c3.12-0.95,6.54-0.38,9.19,1.57c2.64,1.95,4.2,5.04,4.2,8.33v393.3     c0,3.29-1.56,6.38-4.2,8.33C-375.47,746.3-377.62,747-379.81,747z"
   class="st0" />
		</g>
		<g
   id="g258">
			<path
   id="path256"
   d="M-938.71,602.1c-17.12,0-31.05-13.93-31.05-31.05v-62.1c0-17.12,13.93-31.05,31.05-31.05     c17.12,0,31.05,13.93,31.05,31.05v62.1C-907.66,588.17-921.59,602.1-938.71,602.1z M-938.71,498.6     c-5.71,0-10.35,4.64-10.35,10.35v62.1c0,5.71,4.64,10.35,10.35,10.35s10.35-4.64,10.35-10.35v-62.1     C-928.36,503.24-933,498.6-938.71,498.6z"
   class="st0" />
		</g>
		<g
   id="g262">
			<path
   id="path260"
   d="M-348.76,778.05c-22.83,0-41.4-18.57-41.4-41.4v-393.3c0-22.83,18.57-41.4,41.4-41.4     c22.83,0,41.4,18.57,41.4,41.4v393.3C-307.36,759.48-325.93,778.05-348.76,778.05z M-348.76,322.65c-11.42,0-20.7,9.29-20.7,20.7     v393.3c0,11.41,9.28,20.7,20.7,20.7c11.42,0,20.7-9.29,20.7-20.7v-393.3C-328.06,331.94-337.35,322.65-348.76,322.65z"
   class="st0" />
		</g>
		<g
   id="g266">
			<rect
   id="rect264"
   height="20.7"
   width="20.7"
   class="st0"
   y="529.65"
   x="-535.06" />
		</g>
		<g
   id="g270">
			<rect
   id="rect268"
   height="20.7"
   width="20.7"
   class="st0"
   y="529.65"
   x="-493.66" />
		</g>
		<g
   id="g274">
			<rect
   id="rect272"
   height="20.7"
   width="20.7"
   class="st0"
   y="529.65"
   x="-452.26" />
		</g>
		<g
   id="g278">
			<path
   id="path276"
   d="M-690.31,715.95c-1.25,0-2.51-0.22-3.71-0.69l-134.55-51.75c-4-1.54-6.64-5.38-6.64-9.66V602.1h20.7v44.64     l113.85,43.78V643.5h20.7v62.1c0,3.41-1.68,6.6-4.49,8.53C-686.2,715.33-688.25,715.95-690.31,715.95z"
   class="st0" />
		</g>
		<g
   id="g282">
			<path
   id="path280"
   d="M-648.91,778.05c-1.24,0-2.49-0.22-3.68-0.68l-217.35-82.8c-4.01-1.53-6.67-5.38-6.67-9.67v-93.15h20.7     v86.01l196.65,74.92v-98.83h20.7V767.7c0,3.41-1.67,6.59-4.48,8.52C-644.79,777.43-646.84,778.05-648.91,778.05z"
   class="st0" />
		</g>
		<g
   id="g286">
			<rect
   id="rect284"
   height="269.1"
   width="20.7"
   class="st0"
   y="405.45"
   x="-597.16" />
		</g>
	</g>
</g>
<g
   id="g326">
	<path
   id="path292"
   d="M-1105.95,1158.94h40.54v11.88h-26.71v7.63h24.19v11.02h-24.19v7.99h27.07v11.88h-40.9V1158.94z" />
	<path
   id="path294"
   d="M-1061.96,1158.94h15.63l11.45,31.9l11.45-31.9h15.34l-20.45,50.76h-12.96L-1061.96,1158.94z" />
	<path
   id="path296"
   d="M-1003.21,1158.94h40.54v11.88h-26.71v7.63h24.19v11.02h-24.19v7.99h27.07v11.88h-40.9V1158.94z" />
	<path
   id="path298"
   d="M-955.19,1158.94h13.03l20.74,26.64v-26.64h13.83v50.4h-12.24l-21.53-27.65v27.65h-13.83V1158.94z" />
	<path
   id="path300"
   d="M-886.35,1171.18h-15.12v-12.24h44.21v12.24h-15.12v38.16h-13.97V1171.18z" />
	<path
   id="path302"
   d="M-855.04,1184.28v-0.14c0-14.47,11.67-26.21,27.22-26.21c15.55,0,27.07,11.59,27.07,26.07v0.14   c0,14.47-11.67,26.21-27.22,26.21C-843.51,1210.35-855.04,1198.76-855.04,1184.28z M-815,1184.28v-0.14   c0-7.27-5.26-13.61-12.96-13.61c-7.63,0-12.75,6.19-12.75,13.46v0.14c0,7.27,5.26,13.61,12.89,13.61   C-820.11,1197.75-815,1191.56-815,1184.28z" />
	<path
   id="path304"
   d="M-797.65,1201.85l7.78-9.29c4.97,3.96,10.51,6.05,16.34,6.05c3.75,0,5.76-1.3,5.76-3.46v-0.14c0-2.09-1.66-3.24-8.5-4.82   c-10.73-2.45-19.01-5.47-19.01-15.84v-0.14c0-9.36,7.42-16.13,19.51-16.13c8.57,0,15.26,2.3,20.74,6.7l-6.98,9.87   c-4.61-3.24-9.65-4.97-14.11-4.97c-3.38,0-5.04,1.44-5.04,3.24v0.14c0,2.3,1.73,3.31,8.71,4.9c11.59,2.52,18.79,6.26,18.79,15.7   v0.14c0,10.3-8.14,16.42-20.38,16.42C-782.96,1210.21-791.46,1207.4-797.65,1201.85z" />
	<path
   id="path306"
   d="M-726.95,1158.94h40.54v11.88h-26.71v7.63h24.19v11.02h-24.19v7.99h27.07v11.88h-40.9V1158.94z" />
	<path
   id="path308"
   d="M-658.98,1158.94h21.6c12.75,0,20.95,6.55,20.95,17.71v0.14c0,11.88-9.15,18.15-21.67,18.15h-6.91v14.4h-13.97V1158.94z    M-638.39,1183.99c4.97,0,7.99-2.59,7.99-6.55v-0.14c0-4.32-3.02-6.62-8.06-6.62h-6.55v13.32H-638.39z" />
	<path
   id="path310"
   d="M-610.53,1158.94h23.83c7.7,0,13.03,2.02,16.42,5.47c2.95,2.88,4.46,6.77,4.46,11.74v0.14c0,7.7-4.1,12.82-10.37,15.48   l12.02,17.57h-16.13l-10.15-15.27h-0.14h-5.98v15.27h-13.97V1158.94z M-587.34,1183.13c4.75,0,7.49-2.3,7.49-5.98v-0.14   c0-3.96-2.88-5.98-7.56-5.98h-9.14v12.1H-587.34z" />
	<path
   id="path312"
   d="M-560.49,1184.28v-0.14c0-14.47,11.67-26.21,27.22-26.21c15.55,0,27.07,11.59,27.07,26.07v0.14   c0,14.47-11.67,26.21-27.22,26.21S-560.49,1198.76-560.49,1184.28z M-520.45,1184.28v-0.14c0-7.27-5.26-13.61-12.96-13.61   c-7.63,0-12.75,6.19-12.75,13.46v0.14c0,7.27,5.26,13.61,12.89,13.61C-525.56,1197.75-520.45,1191.56-520.45,1184.28z" />
	<path
   id="path314"
   d="M-498.93,1158.94h14.76l12.03,19.51l12.02-19.51h14.76v50.4h-13.9v-28.95l-12.89,19.73h-0.29l-12.82-19.59v28.8h-13.68   V1158.94z" />
	<path
   id="path316"
   d="M-438.16,1184.28v-0.14c0-14.47,11.67-26.21,27.22-26.21c15.55,0,27.07,11.59,27.07,26.07v0.14   c0,14.47-11.67,26.21-27.22,26.21S-438.16,1198.76-438.16,1184.28z M-398.12,1184.28v-0.14c0-7.27-5.26-13.61-12.96-13.61   c-7.63,0-12.75,6.19-12.75,13.46v0.14c0,7.27,5.26,13.61,12.89,13.61C-403.24,1197.75-398.12,1191.56-398.12,1184.28z" />
	<path
   id="path318"
   d="M-364.5,1217.19l5.62-7.63c-11.23-2.81-19.44-12.6-19.44-25.27v-0.14c0-14.69,11.3-26.21,26.57-26.21   c10.3,0,16.92,4.32,21.39,10.51l-10.51,8.14c-2.88-3.6-6.19-5.9-11.02-5.9c-7.06,0-12.02,5.98-12.02,13.32v0.14   c0,7.56,4.97,13.46,12.02,13.46c5.26,0,8.35-2.45,11.38-6.12l10.51,7.49c-4.32,5.98-10.08,10.44-19.59,11.23l-4.03,11.59   L-364.5,1217.19z" />
	<path
   id="path320"
   d="M-325.77,1184.28v-0.14c0-14.47,11.67-26.21,27.22-26.21c15.55,0,27.08,11.59,27.08,26.07v0.14   c0,14.47-11.67,26.21-27.22,26.21S-325.77,1198.76-325.77,1184.28z M-313.74,1154.26c1.51-7.13,3.96-10.73,8.93-10.73   c4.32,0,8.93,2.81,11.23,2.81c2.02,0,2.74-1.08,3.67-3.31l6.55,1.8c-1.51,7.13-3.96,10.73-8.93,10.73c-4.32,0-8.93-2.81-11.23-2.81   c-2.02,0-2.74,1.08-3.67,3.31L-313.74,1154.26z M-285.73,1184.28v-0.14c0-7.27-5.26-13.61-12.96-13.61   c-7.63,0-12.75,6.19-12.75,13.46v0.14c0,7.27,5.26,13.61,12.89,13.61C-290.85,1197.75-285.73,1191.56-285.73,1184.28z" />
	<path
   id="path322"
   d="M-264.21,1158.94h40.54v11.88h-26.71v7.63h24.19v11.02h-24.19v7.99h27.07v11.88h-40.9V1158.94z" />
	<path
   id="path324"
   d="M-220,1201.85l7.78-9.29c4.97,3.96,10.51,6.05,16.35,6.05c3.74,0,5.76-1.3,5.76-3.46v-0.14c0-2.09-1.66-3.24-8.5-4.82   c-10.73-2.45-19.01-5.47-19.01-15.84v-0.14c0-9.36,7.42-16.13,19.51-16.13c8.57,0,15.27,2.3,20.74,6.7l-6.98,9.87   c-4.61-3.24-9.65-4.97-14.11-4.97c-3.38,0-5.04,1.44-5.04,3.24v0.14c0,2.3,1.73,3.31,8.71,4.9c11.59,2.52,18.79,6.26,18.79,15.7   v0.14c0,10.3-8.14,16.42-20.38,16.42C-205.31,1210.21-213.81,1207.4-220,1201.85z" />
</g>
<g
   id="g356">
	<path
   id="path328"
   d="M188.58,1158.94h19.44c18,0,28.44,10.37,28.44,24.91v0.14c0,14.55-10.58,25.35-28.73,25.35h-19.15V1158.94z    M208.24,1196.96c8.35,0,13.9-4.61,13.9-12.75v-0.14c0-8.06-5.54-12.75-13.9-12.75h-5.69v25.63H208.24z" />
	<path
   id="path330"
   d="M243.66,1158.94h40.54v11.88h-26.71v7.63h24.19v11.02h-24.19v7.99h27.07v11.88h-40.9V1158.94z" />
	<path
   id="path332"
   d="M287.87,1201.85l7.78-9.29c4.97,3.96,10.51,6.05,16.34,6.05c3.75,0,5.76-1.3,5.76-3.46v-0.14c0-2.09-1.66-3.24-8.5-4.82   c-10.73-2.45-19.01-5.47-19.01-15.84v-0.14c0-9.36,7.42-16.13,19.51-16.13c8.57,0,15.26,2.3,20.74,6.7l-6.98,9.87   c-4.61-3.24-9.65-4.97-14.11-4.97c-3.38,0-5.04,1.44-5.04,3.24v0.14c0,2.3,1.73,3.31,8.71,4.9c11.59,2.52,18.79,6.26,18.79,15.7   v0.14c0,10.3-8.14,16.42-20.38,16.42C302.56,1210.21,294.06,1207.4,287.87,1201.85z" />
	<path
   id="path334"
   d="M338.63,1158.94h40.54v11.88h-26.71v7.63h24.19v11.02h-24.19v7.99h27.07v11.88h-40.9V1158.94z" />
	<path
   id="path336"
   d="M386.65,1158.94h13.03l20.74,26.64v-26.64h13.83v50.4H422l-21.53-27.65v27.65h-13.83V1158.94z" />
	<path
   id="path338"
   d="M439.14,1158.94h15.63l11.45,31.9l11.45-31.9H493l-20.45,50.76h-12.96L439.14,1158.94z" />
	<path
   id="path340"
   d="M492.92,1184.28v-0.14c0-14.47,11.67-26.21,27.22-26.21c15.55,0,27.07,11.59,27.07,26.07v0.14   c0,14.47-11.67,26.21-27.22,26.21C504.44,1210.35,492.92,1198.76,492.92,1184.28z M532.96,1184.28v-0.14   c0-7.27-5.26-13.61-12.96-13.61c-7.63,0-12.75,6.19-12.75,13.46v0.14c0,7.27,5.26,13.61,12.89,13.61   C527.84,1197.75,532.96,1191.56,532.96,1184.28z" />
	<path
   id="path342"
   d="M554.48,1158.94h13.97v38.16h24.41v12.24h-38.38V1158.94z" />
	<path
   id="path344"
   d="M599.12,1158.94h14.04v50.4h-14.04V1158.94z" />
	<path
   id="path346"
   d="M622.38,1158.94h14.76l12.03,19.51l12.02-19.51h14.76v50.4h-13.9v-28.95l-12.89,19.73h-0.29l-12.82-19.59v28.8h-13.68   V1158.94z" />
	<path
   id="path348"
   d="M684.87,1158.94h40.54v11.88H698.7v7.63h24.19v11.02H698.7v7.99h27.07v11.88h-40.9V1158.94z" />
	<path
   id="path350"
   d="M732.9,1158.94h13.03l20.74,26.64v-26.64h13.83v50.4h-12.24l-21.53-27.65v27.65H732.9V1158.94z" />
	<path
   id="path352"
   d="M801.73,1171.18h-15.12v-12.24h44.21v12.24H815.7v38.16h-13.97V1171.18z" />
	<path
   id="path354"
   d="M833.05,1184.28v-0.14c0-14.47,11.67-26.21,27.22-26.21c15.55,0,27.07,11.59,27.07,26.07v0.14   c0,14.47-11.67,26.21-27.22,26.21S833.05,1198.76,833.05,1184.28z M873.08,1184.28v-0.14c0-7.27-5.26-13.61-12.96-13.61   c-7.63,0-12.75,6.19-12.75,13.46v0.14c0,7.27,5.26,13.61,12.89,13.61C867.97,1197.75,873.08,1191.56,873.08,1184.28z" />
</g>
<g
   id="g384">
	<path
   id="path358"
   d="M1397.16,1158.94h13.97v38.16h24.41v12.24h-38.38V1158.94z" />
	<path
   id="path360"
   d="M1441.8,1158.94h14.04v50.4h-14.04V1158.94z" />
	<path
   id="path362"
   d="M1461.03,1158.94h15.63l11.45,31.9l11.45-31.9h15.34l-20.45,50.76h-12.96L1461.03,1158.94z" />
	<path
   id="path364"
   d="M1519.78,1158.94h40.54v11.88h-26.71v7.63h24.19v11.02h-24.19v7.99h27.07v11.88h-40.9V1158.94z" />
	<path
   id="path366"
   d="M1587.75,1158.94h14.76l12.03,19.51l12.03-19.51h14.76v50.4h-13.9v-28.95l-12.89,19.73h-0.29l-12.82-19.59v28.8h-13.68   V1158.94z" />
	<path
   id="path368"
   d="M1667.67,1158.58h13.47l21.46,50.76h-14.98l-3.67-9h-19.44l-3.6,9h-14.69L1667.67,1158.58z M1679.91,1189.47l-5.62-14.33   l-5.69,14.33H1679.91z" />
	<path
   id="path370"
   d="M1707.48,1158.94h23.83c7.7,0,13.03,2.02,16.42,5.47c2.95,2.88,4.46,6.77,4.46,11.74v0.14c0,7.7-4.1,12.82-10.37,15.48   l12.03,17.57h-16.13l-10.15-15.27h-0.14h-5.98v15.27h-13.97V1158.94z M1730.67,1183.13c4.75,0,7.49-2.3,7.49-5.98v-0.14   c0-3.96-2.88-5.98-7.56-5.98h-9.14v12.1H1730.67z" />
	<path
   id="path372"
   d="M1759.25,1158.94h13.97v20.45l17.35-20.45h16.56l-19.08,21.67l19.73,28.73h-16.78l-12.67-18.72l-5.11,5.69v13.03h-13.97   V1158.94z" />
	<path
   id="path374"
   d="M1811.81,1158.94h40.54v11.88h-26.71v7.63h24.19v11.02h-24.19v7.99h27.07v11.88h-40.9V1158.94z" />
	<path
   id="path376"
   d="M1872.15,1171.18h-15.12v-12.24h44.21v12.24h-15.12v38.16h-13.97V1171.18z" />
	<path
   id="path378"
   d="M1907.64,1158.94h14.04v50.4h-14.04V1158.94z" />
	<path
   id="path380"
   d="M1930.9,1158.94h13.03l20.74,26.64v-26.64h13.83v50.4h-12.24l-21.53-27.65v27.65h-13.82V1158.94z" />
	<path
   id="path382"
   d="M1985.69,1184.28v-0.14c0-14.69,11.52-26.21,27.15-26.21c8.86,0,15.12,2.74,20.45,7.34l-8.21,9.86   c-3.6-3.02-7.2-4.75-12.17-4.75c-7.27,0-12.89,6.12-12.89,13.83v0.14c0,8.14,5.69,13.97,13.68,13.97c3.38,0,5.98-0.72,8.06-2.09   v-6.12h-9.94v-10.22h23.19v22.68c-5.33,4.39-12.75,7.78-21.89,7.78C1997.43,1210.35,1985.69,1199.55,1985.69,1184.28z" />
</g>
<g
   id="g400">
	<path
   id="path386"
   d="M2759.1,1158.94h19.44c18,0,28.44,10.37,28.44,24.91v0.14c0,14.55-10.58,25.35-28.73,25.35h-19.15V1158.94z    M2778.75,1196.96c8.35,0,13.9-4.61,13.9-12.75v-0.14c0-8.06-5.54-12.75-13.9-12.75h-5.69v25.63H2778.75z" />
	<path
   id="path388"
   d="M2814.46,1158.94h14.04v50.4h-14.04V1158.94z" />
	<path
   id="path390"
   d="M2835.99,1184.28v-0.14c0-14.69,11.52-26.21,27.15-26.21c8.86,0,15.12,2.74,20.45,7.34l-8.21,9.86   c-3.6-3.02-7.2-4.75-12.17-4.75c-7.27,0-12.89,6.12-12.89,13.83v0.14c0,8.14,5.69,13.97,13.68,13.97c3.38,0,5.98-0.72,8.06-2.09   v-6.12h-9.94v-10.22h23.19v22.68c-5.33,4.39-12.75,7.78-21.89,7.78C2847.73,1210.35,2835.99,1199.55,2835.99,1184.28z" />
	<path
   id="path392"
   d="M2893.37,1158.94h14.04v50.4h-14.04V1158.94z" />
	<path
   id="path394"
   d="M2928.94,1171.18h-15.12v-12.24h44.21v12.24h-15.12v38.16h-13.97V1171.18z" />
	<path
   id="path396"
   d="M2975.1,1158.58h13.47l21.46,50.76h-14.98l-3.67-9h-19.44l-3.6,9h-14.69L2975.1,1158.58z M2987.34,1189.47l-5.62-14.33   l-5.69,14.33H2987.34z" />
	<path
   id="path398"
   d="M3014.91,1158.94h13.97v38.16h24.41v12.24h-38.38V1158.94z" />
</g>
<g
   id="g418">
	<path
   id="path402"
   d="M3877.04,1147.2h25.85c6.34,0,10.8,1.58,13.75,4.54c2.02,2.02,3.24,4.68,3.24,8.14v0.14c0,5.83-3.31,9.29-7.78,11.23   c6.12,2.02,10.01,5.47,10.01,12.31v0.14c0,8.64-7.06,13.9-19.08,13.9h-25.99V1147.2z M3899.43,1167.29c4.25,0,6.62-1.44,6.62-4.39   v-0.14c0-2.74-2.16-4.32-6.34-4.32h-9.07v8.86H3899.43z M3901.45,1186.37c4.25,0,6.7-1.66,6.7-4.61v-0.14   c0-2.74-2.16-4.54-6.84-4.54h-10.66v9.29H3901.45z" />
	<path
   id="path404"
   d="M3928.52,1147.2h23.83c7.71,0,13.03,2.02,16.42,5.47c2.95,2.88,4.46,6.77,4.46,11.74v0.14c0,7.7-4.1,12.82-10.37,15.48   l12.02,17.57h-16.13l-10.15-15.27h-0.14h-5.98v15.27h-13.97V1147.2z M3951.7,1171.39c4.75,0,7.49-2.3,7.49-5.98v-0.14   c0-3.96-2.88-5.98-7.56-5.98h-9.15v12.1H3951.7z" />
	<path
   id="path406"
   d="M3996.85,1146.84h13.46l21.46,50.76h-14.98l-3.67-9h-19.44l-3.6,9h-14.69L3996.85,1146.84z M4009.09,1177.73l-5.62-14.33   l-5.69,14.33H4009.09z" />
	<path
   id="path408"
   d="M4036.66,1147.2h13.03l20.74,26.64v-26.64h13.82v50.4h-12.24l-21.53-27.65v27.65h-13.83V1147.2z" />
	<path
   id="path410"
   d="M4093.18,1147.2h19.44c18,0,28.44,10.37,28.44,24.91v0.14c0,14.55-10.59,25.35-28.73,25.35h-19.15V1147.2z    M4112.84,1185.22c8.35,0,13.9-4.61,13.9-12.75v-0.14c0-8.06-5.54-12.75-13.9-12.75h-5.69v25.63H4112.84z" />
	<path
   id="path412"
   d="M4148.55,1147.2h14.04v50.4h-14.04V1147.2z" />
	<path
   id="path414"
   d="M4171.81,1147.2h13.03l20.74,26.64v-26.64h13.83v50.4h-12.24l-21.53-27.65v27.65h-13.82V1147.2z" />
	<path
   id="path416"
   d="M4226.6,1172.54v-0.14c0-14.69,11.52-26.21,27.15-26.21c8.86,0,15.12,2.74,20.45,7.34l-8.21,9.86   c-3.6-3.02-7.2-4.75-12.17-4.75c-7.27,0-12.89,6.12-12.89,13.83v0.14c0,8.14,5.69,13.97,13.68,13.97c3.38,0,5.98-0.72,8.06-2.09   v-6.12h-9.94v-10.22h23.19v22.68c-5.33,4.39-12.75,7.78-21.89,7.78C4238.33,1198.61,4226.6,1187.81,4226.6,1172.54z" />
</g>
</svg>