<?xml version="1.0" encoding="UTF-8" standalone="no"?>
<svg
   xmlns:dc="http://purl.org/dc/elements/1.1/"
   xmlns:cc="http://creativecommons.org/ns#"
   xmlns:rdf="http://www.w3.org/1999/02/22-rdf-syntax-ns#"
   xmlns:svg="http://www.w3.org/2000/svg"
   xmlns="http://www.w3.org/2000/svg"
   xml:space="preserve"
   style="enable-background:new 0 0 1080 1080;"
   viewBox="0 0 1080 1080"
   y="0px"
   x="0px"
   id="Camada_1"
   version="1.1"><metadata
   id="metadata425"><rdf:RDF><cc:Work
       rdf:about=""><dc:format>image/svg+xml</dc:format><dc:type
         rdf:resource="http://purl.org/dc/dcmitype/StillImage" /><dc:title></dc:title></cc:Work></rdf:RDF></metadata><defs
   id="defs423" />
<style
   id="style2"
   type="text/css">
	.st0{fill:#424242;}
</style>
<g
   id="g48">
	<g
   id="g6">
		<path
   id="path4"
   d="M-1817.12,836.11c-156.34,0-283.53-127.19-283.53-283.53s127.19-283.53,283.53-283.53    c34.62,0,68.45,6.17,100.56,18.35l-6.28,16.56c-30.09-11.4-61.81-17.19-94.28-17.19c-146.57,0-265.81,119.24-265.81,265.81    s119.24,265.81,265.81,265.81s265.81-119.24,265.81-265.81c0-32.48-5.79-64.21-17.21-94.3l16.57-6.28    c12.19,32.1,18.37,65.95,18.37,100.59C-1533.59,708.92-1660.78,836.11-1817.12,836.11z"
   class="st0" />
	</g>
	<g
   id="g10">
		
			<rect
   id="rect8"
   height="17.72"
   width="388.44"
   class="st0"
   transform="matrix(0.7071 -0.7071 0.7071 0.7071 -785.6241 -1066.166)"
   y="406.39"
   x="-1874.01" />
	</g>
	<g
   id="g14">
		<polygon
   id="polygon12"
   points="-1533.59,339.94 -1604.48,339.94 -1604.48,269.06 -1586.76,269.06 -1586.76,322.22 -1533.59,322.22       "
   class="st0" />
	</g>
	<g
   id="g18">
		<polygon
   id="polygon16"
   points="-1569.04,375.38 -1639.92,375.38 -1639.92,304.5 -1622.2,304.5 -1622.2,357.66 -1569.04,357.66   "
   class="st0" />
	</g>
	<g
   id="g22">
		<path
   id="path20"
   d="M-1817.12,782.95c-127.02,0-230.37-103.34-230.37-230.37s103.34-230.37,230.37-230.37    s230.37,103.34,230.37,230.37S-1690.1,782.95-1817.12,782.95z M-1817.12,339.94c-117.25,0-212.65,95.39-212.65,212.65    s95.39,212.64,212.65,212.64c117.25,0,212.65-95.39,212.65-212.64S-1699.87,339.94-1817.12,339.94z"
   class="st0" />
	</g>
	<g
   id="g26">
		<path
   id="path24"
   d="M-1817.12,729.79c-97.71,0-177.2-79.49-177.2-177.2s79.5-177.2,177.2-177.2s177.2,79.49,177.2,177.2    S-1719.41,729.79-1817.12,729.79z M-1817.12,393.1c-87.94,0-159.48,71.55-159.48,159.48s71.54,159.48,159.48,159.48    s159.48-71.55,159.48-159.48S-1729.18,393.1-1817.12,393.1z"
   class="st0" />
	</g>
	<g
   id="g30">
		<path
   id="path28"
   d="M-1817.12,676.63c-68.4,0-124.04-55.64-124.04-124.04s55.64-124.04,124.04-124.04    c68.4,0,124.04,55.64,124.04,124.04S-1748.72,676.63-1817.12,676.63z M-1817.12,446.26c-58.63,0-106.32,47.69-106.32,106.32    s47.7,106.32,106.32,106.32s106.32-47.69,106.32-106.32S-1758.5,446.26-1817.12,446.26z"
   class="st0" />
	</g>
	<g
   id="g34">
		<path
   id="path32"
   d="M-1817.12,623.46c-39.08,0-70.88-31.8-70.88-70.88c0-39.08,31.8-70.88,70.88-70.88s70.88,31.8,70.88,70.88    C-1746.24,591.67-1778.04,623.46-1817.12,623.46z M-1817.12,499.42c-29.31,0-53.16,23.85-53.16,53.16s23.85,53.16,53.16,53.16    c29.31,0,53.16-23.85,53.16-53.16S-1787.81,499.42-1817.12,499.42z"
   class="st0" />
	</g>
	<g
   id="g38">
		<circle
   id="circle36"
   r="17.72"
   cy="552.58"
   cx="-1817.12"
   class="st0" />
	</g>
	<g
   id="g42">
		<path
   id="path40"
   d="M-2056.35,836.11h-35.44c-3.07,0-5.92-1.59-7.54-4.21c-1.61-2.61-1.76-5.88-0.39-8.62l53.16-106.32    l15.85,7.93l-46.75,93.5h17.43l59.43-59.43l12.53,12.53l-62.02,62.02C-2051.74,835.17-2054,836.11-2056.35,836.11z"
   class="st0" />
	</g>
	<g
   id="g46">
		<path
   id="path44"
   d="M-1542.45,836.11h-35.44c-2.35,0-4.6-0.93-6.26-2.6l-62.02-62.02l12.53-12.53l59.43,59.43h17.43l-46.75-93.5    l15.85-7.93l53.16,106.32c1.37,2.74,1.22,6.01-0.39,8.62C-1536.53,834.52-1539.38,836.11-1542.45,836.11z"
   class="st0" />
	</g>
</g>
<g
   id="g110">
	<g
   id="g52">
		<path
   id="path50"
   d="M-327.2,824.83h-605.95l-50.68-44.38v-33.04h280.87l22.1,19.35h101.37l22.1-19.35h280.87v33.04L-327.2,824.83    z M-924,805.47h587.65l37.73-33.04v-5.67h-249.62l-22.1,19.35h-119.67l-22.1-19.35h-249.62v5.67L-924,805.47z"
   class="st0" />
	</g>
	<g
   id="g56">
		<path
   id="path54"
   d="M-917.52,728.06h-22.1V437.75c0-21.35,19.83-38.71,44.21-38.71h132.62v19.35h-132.62    c-12.19,0-22.1,8.69-22.1,19.35V728.06z"
   class="st0" />
	</g>
	<g
   id="g60">
		<path
   id="path58"
   d="M-320.72,728.06h-22.1V437.75c0-10.67-9.91-19.35-22.1-19.35h-132.62v-19.35h132.62    c24.38,0,44.21,17.36,44.21,38.71V728.06z"
   class="st0" />
	</g>
	<g
   id="g64">
		<polygon
   id="polygon62"
   points="-807,708.7 -895.42,708.7 -895.42,437.75 -740.69,437.75 -740.69,457.1 -873.31,457.1     -873.31,689.35 -807,689.35   "
   class="st0" />
	</g>
	<g
   id="g68">
		<rect
   id="rect66"
   height="19.35"
   width="77.36"
   class="st0"
   y="592.58"
   x="-652.28" />
	</g>
	<g
   id="g72">
		<rect
   id="rect70"
   height="19.35"
   width="77.36"
   class="st0"
   y="437.75"
   x="-652.28" />
	</g>
	<g
   id="g76">
		<polygon
   id="polygon74"
   points="-364.93,708.7 -784.9,708.7 -784.9,650.64 -475.45,650.64 -475.45,669.99 -762.79,669.99     -762.79,689.35 -387.03,689.35 -387.03,457.1 -519.65,457.1 -519.65,437.75 -364.93,437.75   "
   class="st0" />
	</g>
	<g
   id="g80">
		<polygon
   id="polygon78"
   points="-718.59,660.32 -740.69,660.32 -740.69,636.96 -696.48,598.25 -696.48,451.43 -740.69,412.72     -740.69,379.69 -685.43,379.69 -685.43,350.66 -663.33,350.66 -663.33,399.04 -718.59,399.04 -718.59,404.71 -674.38,443.42     -674.38,606.26 -718.59,644.97   "
   class="st0" />
	</g>
	<g
   id="g84">
		<polygon
   id="polygon82"
   points="-519.65,660.32 -541.76,660.32 -541.76,644.97 -585.96,606.26 -585.96,443.42 -541.76,404.71     -541.76,399.04 -641.22,399.04 -641.22,379.69 -519.65,379.69 -519.65,412.72 -563.86,451.43 -563.86,598.25 -519.65,636.96   "
   class="st0" />
	</g>
	<g
   id="g88">
		<rect
   id="rect86"
   height="38.71"
   width="22.1"
   class="st0"
   y="350.66"
   x="-597.02" />
	</g>
	<g
   id="g92">
		<polygon
   id="polygon90"
   points="-541.76,321.62 -608.07,321.62 -608.07,282.92 -652.28,282.92 -652.28,321.62 -718.59,321.62     -718.59,302.27 -674.38,302.27 -674.38,263.56 -585.96,263.56 -585.96,302.27 -541.76,302.27   "
   class="st0" />
	</g>
	<g
   id="g96">
		<polygon
   id="polygon94"
   points="-526.13,360.33 -734.22,360.33 -762.79,335.31 -762.79,263.56 -696.48,263.56 -696.48,282.92     -740.69,282.92 -740.69,327.29 -725.06,340.98 -535.28,340.98 -519.65,327.29 -519.65,282.92 -563.86,282.92 -563.86,263.56     -497.55,263.56 -497.55,335.31   "
   class="st0" />
	</g>
	<g
   id="g100">
		<rect
   id="rect98"
   height="19.35"
   width="22.1"
   class="st0"
   y="505.49"
   x="-641.22" />
	</g>
	<g
   id="g104">
		<rect
   id="rect102"
   height="19.35"
   width="22.1"
   class="st0"
   y="466.78"
   x="-641.22" />
	</g>
	<g
   id="g108">
		<rect
   id="rect106"
   height="19.35"
   width="22.1"
   class="st0"
   y="544.19"
   x="-641.22" />
	</g>
</g>
<g
   style="fill:#ffffff"
   id="g198">
	<g
   style="fill:#ffffff"
   id="g196">
		<g
   style="fill:#ffffff"
   id="g114">
			<path
   style="fill:#ffffff"
   id="path112"
   d="M487.34,522.45H267.93c-4.85,0-8.78-3.93-8.78-8.78V267.93c0-4.85,3.93-8.78,8.78-8.78h245.74     c4.85,0,8.78,3.93,8.78,8.78v219.41h-17.55V276.71H276.71v228.19h210.63V522.45z"
   class="st0" />
		</g>
		<g
   style="fill:#ffffff"
   id="g118">
			<path
   style="fill:#ffffff"
   id="path116"
   d="M812.07,522.45H592.66v-17.55h210.63V276.71H575.11v210.63h-17.55V267.93c0-4.85,3.93-8.78,8.78-8.78h245.74     c4.85,0,8.78,3.93,8.78,8.78v245.74C820.85,518.52,816.92,522.45,812.07,522.45z"
   class="st0" />
		</g>
		<g
   style="fill:#ffffff"
   id="g122">
			<path
   style="fill:#ffffff"
   id="path120"
   d="M513.67,820.85H267.93c-4.85,0-8.78-3.93-8.78-8.78V566.33c0-4.85,3.93-8.78,8.78-8.78h219.41v17.55H276.71     v228.19h228.19V592.66h17.55v219.41C522.45,816.92,518.52,820.85,513.67,820.85z"
   class="st0" />
		</g>
		<g
   style="fill:#ffffff"
   id="g126">
			<path
   style="fill:#ffffff"
   id="path124"
   d="M812.07,820.85H566.33c-4.85,0-8.78-3.93-8.78-8.78V592.66h17.55v210.63h228.19V575.11H592.66v-17.55h219.41     c4.85,0,8.78,3.93,8.78,8.78v245.74C820.85,816.92,816.92,820.85,812.07,820.85z"
   class="st0" />
		</g>
		<g
   style="fill:#ffffff"
   id="g130">
			<path
   style="fill:#ffffff"
   id="path128"
   d="M461.01,382.02h-26.33v-17.55h17.55v-35.11H329.37v35.11h17.55v17.55h-26.33c-4.85,0-8.78-3.93-8.78-8.78     v-52.66c0-4.85,3.93-8.78,8.78-8.78h140.42c4.85,0,8.78,3.93,8.78,8.78v52.66C469.79,378.1,465.86,382.02,461.01,382.02z"
   class="st0" />
		</g>
		<g
   style="fill:#ffffff"
   id="g134">
			<path
   style="fill:#ffffff"
   id="path132"
   d="M417.13,461.01h-17.55V355.69c0-4.85,3.93-8.78,8.78-8.78h26.33v17.55h-17.55V461.01z"
   class="st0" />
		</g>
		<g
   style="fill:#ffffff"
   id="g138">
			<path
   style="fill:#ffffff"
   id="path136"
   d="M382.02,461.01h-17.55v-96.54h-17.55v-17.55h26.33c4.85,0,8.78,3.93,8.78,8.78V461.01z"
   class="st0" />
		</g>
		<g
   style="fill:#ffffff"
   id="g142">
			<rect
   style="fill:#ffffff"
   id="rect140"
   height="17.55"
   width="70.21"
   class="st0"
   y="452.24"
   x="355.69" />
		</g>
		<g
   style="fill:#ffffff"
   id="g146">
			<path
   style="fill:#ffffff"
   id="path144"
   d="M726.88,519.88l-99.11-99.11l-55.23,55.23l-12.41-12.41l61.44-61.44c3.43-3.43,8.98-3.43,12.41,0     l105.32,105.32L726.88,519.88z"
   class="st0" />
		</g>
		<g
   style="fill:#ffffff"
   id="g150">
			<path
   style="fill:#ffffff"
   id="path148"
   d="M677.85,458.44l-12.41-12.41l87.76-87.76c3.43-3.43,8.98-3.43,12.41,0l52.66,52.66l-12.41,12.41     l-46.45-46.45L677.85,458.44z"
   class="st0" />
		</g>
		<g
   style="fill:#ffffff"
   id="g154">
			<path
   style="fill:#ffffff"
   id="path152"
   d="M671.65,382.02c-19.36,0-35.11-15.74-35.11-35.11s15.74-35.11,35.11-35.11c19.36,0,35.11,15.74,35.11,35.11     S691.01,382.02,671.65,382.02z M671.65,329.37c-9.68,0-17.55,7.88-17.55,17.55c0,9.68,7.88,17.55,17.55,17.55     c9.68,0,17.55-7.88,17.55-17.55C689.2,337.24,681.32,329.37,671.65,329.37z"
   class="st0" />
		</g>
		<g
   style="fill:#ffffff"
   id="g158">
			<rect
   style="fill:#ffffff"
   id="rect156"
   height="17.55"
   width="157.98"
   class="st0"
   y="610.21"
   x="311.81" />
		</g>
		<g
   style="fill:#ffffff"
   id="g162">
			<rect
   style="fill:#ffffff"
   id="rect160"
   height="17.55"
   width="157.98"
   class="st0"
   y="645.32"
   x="311.81" />
		</g>
		<g
   style="fill:#ffffff"
   id="g166">
			<rect
   style="fill:#ffffff"
   id="rect164"
   height="17.55"
   width="157.98"
   class="st0"
   y="680.42"
   x="311.81" />
		</g>
		<g
   style="fill:#ffffff"
   id="g170">
			<rect
   style="fill:#ffffff"
   id="rect168"
   height="17.55"
   width="157.98"
   class="st0"
   y="715.53"
   x="311.81" />
		</g>
		<g
   style="fill:#ffffff"
   id="g174">
			<rect
   style="fill:#ffffff"
   id="rect172"
   height="17.55"
   width="87.76"
   class="st0"
   y="750.63"
   x="311.81" />
		</g>
		<g
   style="fill:#ffffff"
   id="g178">
			
				<rect
   style="fill:#ffffff"
   id="rect176"
   height="17.55"
   width="161.35"
   class="st0"
   transform="matrix(0.7071 -0.7071 0.7071 0.7071 -219.6525 716.4647)"
   y="614.6"
   x="674.35" />
		</g>
		<g
   style="fill:#ffffff"
   id="g182">
			<path
   style="fill:#ffffff"
   id="path180"
   d="M618.99,768.19c-2.28,0-4.53-0.89-6.2-2.57c-2.57-2.57-3.29-6.45-1.82-9.77l35.11-78.99     c0.44-0.99,1.05-1.88,1.82-2.64l114.09-114.09l12.41,12.41L661.46,685.48l-25.18,56.64l56.64-25.18l112.95-112.94l12.41,12.41     L704.18,730.51c-0.76,0.76-1.65,1.38-2.64,1.82l-78.99,35.11C621.41,767.94,620.2,768.19,618.99,768.19z"
   class="st0" />
		</g>
		<g
   style="fill:#ffffff"
   id="g186">
			
				<rect
   style="fill:#ffffff"
   id="rect184"
   height="62.06"
   width="17.55"
   class="st0"
   transform="matrix(0.7071 -0.7071 0.7071 0.7071 -298.6406 683.7468)"
   y="671.33"
   x="667.26" />
		</g>
		<g
   style="fill:#ffffff"
   id="g190">
			<rect
   style="fill:#ffffff"
   id="rect188"
   height="17.55"
   width="149.2"
   class="st0"
   y="750.63"
   x="618.99" />
		</g>
		<g
   style="fill:#ffffff"
   id="g194">
			<path
   style="fill:#ffffff"
   id="path192"
   d="M566.33,575.11h-52.66c-4.85,0-8.78-3.93-8.78-8.78v-52.66c0-4.85,3.93-8.78,8.78-8.78h52.66     c4.85,0,8.78,3.93,8.78,8.78v52.66C575.11,571.18,571.18,575.11,566.33,575.11z M522.45,557.55h35.11v-35.11h-35.11V557.55z"
   class="st0" />
		</g>
	</g>
</g>
<g
   id="g250">
	<g
   id="g248">
		<g
   id="g228">
			<g
   id="g202">
				<path
   id="path200"
   d="M-2995.68,601.02c-55.21,0-100.13-44.91-100.13-100.13s44.91-100.13,100.13-100.13      c55.21,0,100.12,44.91,100.12,100.13S-2940.47,601.02-2995.68,601.02z M-2995.68,420.8c-44.17,0-80.1,35.93-80.1,80.1      s35.93,80.1,80.1,80.1c44.17,0,80.1-35.93,80.1-80.1S-2951.52,420.8-2995.68,420.8z"
   class="st0" />
			</g>
			<g
   id="g226">
				<g
   id="g220">
					<g
   id="g206">
						<rect
   id="rect204"
   height="20.03"
   width="200.25"
   class="st0"
   y="671.11"
   x="-3095.81" />
					</g>
					<g
   id="g210">
						<rect
   id="rect208"
   height="20.03"
   width="200.25"
   class="st0"
   y="711.16"
   x="-3095.81" />
					</g>
					<g
   id="g214">
						<polygon
   id="polygon212"
   points="-2970.3,801.27 -3021.07,801.27 -3041.09,771.23 -3095.81,771.23 -3095.81,751.21         -3030.37,751.21 -3010.35,781.25 -2981.02,781.25 -2960.99,751.21 -2895.56,751.21 -2895.56,771.23 -2950.27,771.23       "
   class="st0" />
					</g>
					<g
   id="g218">
						<path
   id="path216"
   d="M-2915.58,761.22h-20.03V624.28l6.29-2.52c45.53-18.21,73.81-64.52,73.81-120.86        c0-77.29-62.88-140.18-140.18-140.18c-77.29,0-140.18,62.88-140.18,140.18c0,56.34,28.28,102.66,73.81,120.86l6.29,2.52        v136.94h-20.02V637.64c-49.59-22.89-80.1-74.63-80.1-136.75c0-88.33,71.87-160.2,160.2-160.2c88.33,0,160.2,71.87,160.2,160.2        c0,62.12-30.51,113.85-80.1,136.75V761.22z"
   class="st0" />
					</g>
				</g>
				<g
   id="g224">
					<polygon
   id="polygon222"
   points="-2978.4,557.85 -3018.45,477.75 -3051.61,510.91 -3115.83,510.91 -3115.83,490.88 -3059.9,490.88        -3012.96,443.94 -2972.91,524.04 -2939.75,490.88 -2875.53,490.88 -2875.53,510.91 -2931.46,510.91      "
   class="st0" />
				</g>
			</g>
		</g>
		<g
   id="g246">
			<g
   id="g232">
				<path
   id="path230"
   d="M-3276.6,454.39l-18.72-7.11c46.94-123.64,167.36-206.71,299.65-206.71h24.17l-67.16,67.15l-14.16-14.16      l31.89-31.89C-3134.81,271.42-3235.61,346.4-3276.6,454.39z"
   class="st0" />
			</g>
			<g
   id="g236">
				<path
   id="path234"
   d="M-2675.28,585.14l-67.15-67.15l14.16-14.16l31.89,31.89c-9.74-113.89-84.73-214.68-192.74-255.68      l7.11-18.72c123.65,46.93,206.74,167.35,206.74,299.65V585.14z"
   class="st0" />
			</g>
			<g
   id="g240">
				<path
   id="path238"
   d="M-2995.68,881.37h-24.17l67.16-67.15l14.16,14.16l-31.89,31.89c113.87-9.74,214.67-84.72,255.67-192.71      l18.72,7.11C-2742.98,798.3-2863.39,881.37-2995.68,881.37z"
   class="st0" />
			</g>
			<g
   id="g244">
				<path
   id="path242"
   d="M-3109.4,860.6c-123.62-46.95-206.68-167.36-206.68-299.63V536.8l67.15,67.15l-14.16,14.16l-31.89-31.89      c9.74,113.86,84.71,214.66,192.68,255.66L-3109.4,860.6z"
   class="st0" />
			</g>
		</g>
	</g>
</g>
<g
   id="g290">
	<g
   id="g288">
		<g
   id="g254">
			<path
   id="path252"
   d="M-3915.49,767.97c-1.02,0-2.05-0.15-3.04-0.45l-538.2-165.6c-5.46-1.69-8.53-7.48-6.85-12.94     c1.67-5.47,7.49-8.54,12.93-6.85l524.81,161.49V378.33l-524.81,161.49c-5.44,1.67-11.26-1.4-12.93-6.85     c-1.68-5.46,1.38-11.25,6.85-12.94l538.2-165.6c3.12-0.95,6.54-0.38,9.19,1.57c2.64,1.95,4.2,5.04,4.2,8.33v393.3     c0,3.29-1.56,6.38-4.2,8.33C-3911.15,767.27-3913.31,767.97-3915.49,767.97z"
   class="st0" />
		</g>
		<g
   id="g258">
			<path
   id="path256"
   d="M-4474.39,623.07c-17.12,0-31.05-13.93-31.05-31.05v-62.1c0-17.12,13.93-31.05,31.05-31.05     s31.05,13.93,31.05,31.05v62.1C-4443.34,609.14-4457.27,623.07-4474.39,623.07z M-4474.39,519.57c-5.71,0-10.35,4.64-10.35,10.35     v62.1c0,5.71,4.64,10.35,10.35,10.35s10.35-4.64,10.35-10.35v-62.1C-4464.04,524.21-4468.69,519.57-4474.39,519.57z"
   class="st0" />
		</g>
		<g
   id="g262">
			<path
   id="path260"
   d="M-3884.44,799.02c-22.83,0-41.4-18.57-41.4-41.4v-393.3c0-22.83,18.57-41.4,41.4-41.4     c22.83,0,41.4,18.57,41.4,41.4v393.3C-3843.04,780.45-3861.62,799.02-3884.44,799.02z M-3884.44,343.62     c-11.42,0-20.7,9.29-20.7,20.7v393.3c0,11.41,9.28,20.7,20.7,20.7c11.42,0,20.7-9.29,20.7-20.7v-393.3     C-3863.74,352.91-3873.03,343.62-3884.44,343.62z"
   class="st0" />
		</g>
		<g
   id="g266">
			<rect
   id="rect264"
   height="20.7"
   width="20.7"
   class="st0"
   y="550.62"
   x="-4070.74" />
		</g>
		<g
   id="g270">
			<rect
   id="rect268"
   height="20.7"
   width="20.7"
   class="st0"
   y="550.62"
   x="-4029.34" />
		</g>
		<g
   id="g274">
			<rect
   id="rect272"
   height="20.7"
   width="20.7"
   class="st0"
   y="550.62"
   x="-3987.94" />
		</g>
		<g
   id="g278">
			<path
   id="path276"
   d="M-4225.99,736.92c-1.25,0-2.51-0.22-3.71-0.69l-134.55-51.75c-4-1.54-6.64-5.38-6.64-9.66v-51.75h20.7v44.64     l113.85,43.78v-47.03h20.7v62.1c0,3.41-1.68,6.6-4.49,8.53C-4221.88,736.3-4223.93,736.92-4225.99,736.92z"
   class="st0" />
		</g>
		<g
   id="g282">
			<path
   id="path280"
   d="M-4184.59,799.02c-1.24,0-2.49-0.22-3.68-0.68l-217.35-82.8c-4.01-1.53-6.67-5.38-6.67-9.67v-93.15h20.7     v86.01l196.65,74.92v-98.83h20.7v113.85c0,3.41-1.67,6.59-4.48,8.52C-4180.47,798.4-4182.53,799.02-4184.59,799.02z"
   class="st0" />
		</g>
		<g
   id="g286">
			<rect
   id="rect284"
   height="269.1"
   width="20.7"
   class="st0"
   y="426.42"
   x="-4132.84" />
		</g>
	</g>
</g>
<g
   id="g326">
	<path
   id="path292"
   d="M-4641.63,1179.91h40.54v11.88h-26.71v7.63h24.19v11.02h-24.19v7.99h27.07v11.88h-40.9V1179.91z" />
	<path
   id="path294"
   d="M-4597.64,1179.91h15.63l11.45,31.9l11.45-31.9h15.34l-20.45,50.76h-12.96L-4597.64,1179.91z" />
	<path
   id="path296"
   d="M-4538.89,1179.91h40.54v11.88h-26.71v7.63h24.19v11.02h-24.19v7.99h27.07v11.88h-40.9V1179.91z" />
	<path
   id="path298"
   d="M-4490.87,1179.91h13.03l20.74,26.64v-26.64h13.83v50.4h-12.24l-21.53-27.65v27.65h-13.83V1179.91z" />
	<path
   id="path300"
   d="M-4422.04,1192.15h-15.12v-12.24h44.21v12.24h-15.12v38.16h-13.97V1192.15z" />
	<path
   id="path302"
   d="M-4390.72,1205.25v-0.14c0-14.47,11.67-26.21,27.22-26.21c15.55,0,27.07,11.59,27.07,26.07v0.14   c0,14.47-11.67,26.21-27.22,26.21C-4379.2,1231.32-4390.72,1219.73-4390.72,1205.25z M-4350.68,1205.25v-0.14   c0-7.27-5.26-13.61-12.96-13.61c-7.63,0-12.75,6.19-12.75,13.46v0.14c0,7.27,5.26,13.61,12.89,13.61   C-4355.79,1218.72-4350.68,1212.53-4350.68,1205.25z" />
	<path
   id="path304"
   d="M-4333.33,1222.82l7.78-9.29c4.97,3.96,10.51,6.05,16.34,6.05c3.75,0,5.76-1.3,5.76-3.46v-0.14c0-2.09-1.66-3.24-8.5-4.82   c-10.73-2.45-19.01-5.47-19.01-15.84v-0.14c0-9.36,7.42-16.13,19.51-16.13c8.57,0,15.26,2.3,20.74,6.7l-6.98,9.87   c-4.61-3.24-9.65-4.97-14.11-4.97c-3.38,0-5.04,1.44-5.04,3.24v0.14c0,2.3,1.73,3.31,8.71,4.9c11.59,2.52,18.79,6.26,18.79,15.7   v0.14c0,10.3-8.14,16.42-20.38,16.42C-4318.64,1231.18-4327.14,1228.37-4333.33,1222.82z" />
	<path
   id="path306"
   d="M-4262.63,1179.91h40.54v11.88h-26.71v7.63h24.19v11.02h-24.19v7.99h27.07v11.88h-40.9V1179.91z" />
	<path
   id="path308"
   d="M-4194.66,1179.91h21.6c12.75,0,20.95,6.55,20.95,17.71v0.14c0,11.88-9.15,18.15-21.67,18.15h-6.91v14.4h-13.97V1179.91z    M-4174.07,1204.97c4.97,0,7.99-2.59,7.99-6.55v-0.14c0-4.32-3.02-6.62-8.06-6.62h-6.55v13.32H-4174.07z" />
	<path
   id="path310"
   d="M-4146.21,1179.91h23.83c7.7,0,13.03,2.02,16.42,5.47c2.95,2.88,4.46,6.77,4.46,11.74v0.14c0,7.7-4.1,12.82-10.37,15.48   l12.02,17.57h-16.13l-10.15-15.27h-0.14h-5.98v15.27h-13.97V1179.91z M-4123.02,1204.1c4.75,0,7.49-2.3,7.49-5.98v-0.14   c0-3.96-2.88-5.98-7.56-5.98h-9.14v12.1H-4123.02z" />
	<path
   id="path312"
   d="M-4096.17,1205.25v-0.14c0-14.47,11.67-26.21,27.22-26.21c15.55,0,27.07,11.59,27.07,26.07v0.14   c0,14.47-11.67,26.21-27.22,26.21S-4096.17,1219.73-4096.17,1205.25z M-4056.13,1205.25v-0.14c0-7.27-5.26-13.61-12.96-13.61   c-7.63,0-12.75,6.19-12.75,13.46v0.14c0,7.27,5.26,13.61,12.89,13.61C-4061.25,1218.72-4056.13,1212.53-4056.13,1205.25z" />
	<path
   id="path314"
   d="M-4034.61,1179.91h14.76l12.03,19.51l12.02-19.51h14.76v50.4h-13.9v-28.95l-12.89,19.73h-0.29l-12.82-19.59v28.8h-13.68   V1179.91z" />
	<path
   id="path316"
   d="M-3973.84,1205.25v-0.14c0-14.47,11.67-26.21,27.22-26.21c15.55,0,27.07,11.59,27.07,26.07v0.14   c0,14.47-11.67,26.21-27.22,26.21S-3973.84,1219.73-3973.84,1205.25z M-3933.81,1205.25v-0.14c0-7.27-5.26-13.61-12.96-13.61   c-7.63,0-12.75,6.19-12.75,13.46v0.14c0,7.27,5.26,13.61,12.89,13.61C-3938.92,1218.72-3933.81,1212.53-3933.81,1205.25z" />
	<path
   id="path318"
   d="M-3900.18,1238.16l5.62-7.63c-11.23-2.81-19.44-12.6-19.44-25.27v-0.14c0-14.69,11.3-26.21,26.57-26.21   c10.3,0,16.92,4.32,21.39,10.51l-10.51,8.14c-2.88-3.6-6.19-5.9-11.02-5.9c-7.06,0-12.02,5.98-12.02,13.32v0.14   c0,7.56,4.97,13.46,12.02,13.46c5.26,0,8.35-2.45,11.38-6.12l10.51,7.49c-4.32,5.98-10.08,10.44-19.59,11.23l-4.03,11.59   L-3900.18,1238.16z" />
	<path
   id="path320"
   d="M-3861.45,1205.25v-0.14c0-14.47,11.67-26.21,27.22-26.21c15.55,0,27.08,11.59,27.08,26.07v0.14   c0,14.47-11.67,26.21-27.22,26.21S-3861.45,1219.73-3861.45,1205.25z M-3849.42,1175.23c1.51-7.13,3.96-10.73,8.93-10.73   c4.32,0,8.93,2.81,11.23,2.81c2.02,0,2.74-1.08,3.67-3.31l6.55,1.8c-1.51,7.13-3.96,10.73-8.93,10.73c-4.32,0-8.93-2.81-11.23-2.81   c-2.02,0-2.74,1.08-3.67,3.31L-3849.42,1175.23z M-3821.42,1205.25v-0.14c0-7.27-5.26-13.61-12.96-13.61   c-7.63,0-12.75,6.19-12.75,13.46v0.14c0,7.27,5.26,13.61,12.89,13.61C-3826.53,1218.72-3821.42,1212.53-3821.42,1205.25z" />
	<path
   id="path322"
   d="M-3799.89,1179.91h40.54v11.88h-26.71v7.63h24.19v11.02h-24.19v7.99h27.07v11.88h-40.9V1179.91z" />
	<path
   id="path324"
   d="M-3755.68,1222.82l7.78-9.29c4.97,3.96,10.51,6.05,16.35,6.05c3.74,0,5.76-1.3,5.76-3.46v-0.14c0-2.09-1.66-3.24-8.5-4.82   c-10.73-2.45-19.01-5.47-19.01-15.84v-0.14c0-9.36,7.42-16.13,19.51-16.13c8.57,0,15.27,2.3,20.74,6.7l-6.98,9.87   c-4.61-3.24-9.65-4.97-14.11-4.97c-3.38,0-5.04,1.44-5.04,3.24v0.14c0,2.3,1.73,3.31,8.71,4.9c11.59,2.52,18.79,6.26,18.79,15.7   v0.14c0,10.3-8.14,16.42-20.38,16.42C-3741,1231.18-3749.49,1228.37-3755.68,1222.82z" />
</g>
<g
   id="g356">
	<path
   id="path328"
   d="M-3347.1,1179.91h19.44c18,0,28.44,10.37,28.44,24.91v0.14c0,14.55-10.58,25.35-28.73,25.35h-19.15V1179.91z    M-3327.45,1217.93c8.35,0,13.9-4.61,13.9-12.75v-0.14c0-8.06-5.54-12.75-13.9-12.75h-5.69v25.63H-3327.45z" />
	<path
   id="path330"
   d="M-3292.02,1179.91h40.54v11.88h-26.71v7.63h24.19v11.02h-24.19v7.99h27.07v11.88h-40.9V1179.91z" />
	<path
   id="path332"
   d="M-3247.82,1222.82l7.78-9.29c4.97,3.96,10.51,6.05,16.34,6.05c3.75,0,5.76-1.3,5.76-3.46v-0.14c0-2.09-1.66-3.24-8.5-4.82   c-10.73-2.45-19.01-5.47-19.01-15.84v-0.14c0-9.36,7.42-16.13,19.51-16.13c8.57,0,15.26,2.3,20.74,6.7l-6.98,9.87   c-4.61-3.24-9.65-4.97-14.11-4.97c-3.38,0-5.04,1.44-5.04,3.24v0.14c0,2.3,1.73,3.31,8.71,4.9c11.59,2.52,18.79,6.26,18.79,15.7   v0.14c0,10.3-8.14,16.42-20.38,16.42C-3233.13,1231.18-3241.62,1228.37-3247.82,1222.82z" />
	<path
   id="path334"
   d="M-3197.06,1179.91h40.54v11.88h-26.71v7.63h24.19v11.02h-24.19v7.99h27.07v11.88h-40.9V1179.91z" />
	<path
   id="path336"
   d="M-3149.03,1179.91h13.03l20.74,26.64v-26.64h13.83v50.4h-12.24l-21.53-27.65v27.65h-13.83V1179.91z" />
	<path
   id="path338"
   d="M-3096.55,1179.91h15.63l11.45,31.9l11.45-31.9h15.34l-20.45,50.76h-12.96L-3096.55,1179.91z" />
	<path
   id="path340"
   d="M-3042.76,1205.25v-0.14c0-14.47,11.67-26.21,27.22-26.21c15.55,0,27.07,11.59,27.07,26.07v0.14   c0,14.47-11.67,26.21-27.22,26.21S-3042.76,1219.73-3042.76,1205.25z M-3002.73,1205.25v-0.14c0-7.27-5.26-13.61-12.96-13.61   c-7.63,0-12.75,6.19-12.75,13.46v0.14c0,7.27,5.26,13.61,12.89,13.61C-3007.84,1218.72-3002.73,1212.53-3002.73,1205.25z" />
	<path
   id="path342"
   d="M-2981.2,1179.91h13.97v38.16h24.41v12.24h-38.38V1179.91z" />
	<path
   id="path344"
   d="M-2936.56,1179.91h14.04v50.4h-14.04V1179.91z" />
	<path
   id="path346"
   d="M-2913.31,1179.91h14.76l12.03,19.51l12.02-19.51h14.76v50.4h-13.9v-28.95l-12.89,19.73h-0.29l-12.82-19.59v28.8h-13.68   V1179.91z" />
	<path
   id="path348"
   d="M-2850.81,1179.91h40.54v11.88h-26.71v7.63h24.19v11.02h-24.19v7.99h27.07v11.88h-40.9V1179.91z" />
	<path
   id="path350"
   d="M-2802.79,1179.91h13.03l20.74,26.64v-26.64h13.83v50.4h-12.24l-21.53-27.65v27.65h-13.83V1179.91z" />
	<path
   id="path352"
   d="M-2733.95,1192.15h-15.12v-12.24h44.21v12.24h-15.12v38.16h-13.97V1192.15z" />
	<path
   id="path354"
   d="M-2702.63,1205.25v-0.14c0-14.47,11.67-26.21,27.22-26.21c15.55,0,27.07,11.59,27.07,26.07v0.14   c0,14.47-11.67,26.21-27.22,26.21S-2702.63,1219.73-2702.63,1205.25z M-2662.6,1205.25v-0.14c0-7.27-5.26-13.61-12.96-13.61   c-7.63,0-12.75,6.19-12.75,13.46v0.14c0,7.27,5.26,13.61,12.89,13.61C-2667.71,1218.72-2662.6,1212.53-2662.6,1205.25z" />
</g>
<g
   id="g384">
	<path
   id="path358"
   d="M-2138.52,1179.91h13.97v38.16h24.41v12.24h-38.38V1179.91z" />
	<path
   id="path360"
   d="M-2093.88,1179.91h14.04v50.4h-14.04V1179.91z" />
	<path
   id="path362"
   d="M-2074.65,1179.91h15.63l11.45,31.9l11.45-31.9h15.34l-20.45,50.76h-12.96L-2074.65,1179.91z" />
	<path
   id="path364"
   d="M-2015.9,1179.91h40.54v11.88h-26.71v7.63h24.19v11.02h-24.19v7.99h27.07v11.88h-40.9V1179.91z" />
	<path
   id="path366"
   d="M-1947.93,1179.91h14.76l12.03,19.51l12.03-19.51h14.76v50.4h-13.9v-28.95l-12.89,19.73h-0.29l-12.82-19.59v28.8h-13.68   V1179.91z" />
	<path
   id="path368"
   d="M-1868.01,1179.55h13.47l21.46,50.76h-14.98l-3.67-9h-19.44l-3.6,9h-14.69L-1868.01,1179.55z M-1855.77,1210.44   l-5.62-14.33l-5.69,14.33H-1855.77z" />
	<path
   id="path370"
   d="M-1828.2,1179.91h23.83c7.7,0,13.03,2.02,16.42,5.47c2.95,2.88,4.46,6.77,4.46,11.74v0.14c0,7.7-4.1,12.82-10.37,15.48   l12.03,17.57h-16.13l-10.15-15.27h-0.14h-5.98v15.27h-13.97V1179.91z M-1805.01,1204.1c4.75,0,7.49-2.3,7.49-5.98v-0.14   c0-3.96-2.88-5.98-7.56-5.98h-9.14v12.1H-1805.01z" />
	<path
   id="path372"
   d="M-1776.43,1179.91h13.97v20.45l17.35-20.45h16.56l-19.08,21.67l19.73,28.73h-16.78l-12.67-18.72l-5.11,5.69v13.03h-13.97   V1179.91z" />
	<path
   id="path374"
   d="M-1723.87,1179.91h40.54v11.88h-26.71v7.63h24.19v11.02h-24.19v7.99h27.07v11.88h-40.9V1179.91z" />
	<path
   id="path376"
   d="M-1663.54,1192.15h-15.12v-12.24h44.21v12.24h-15.12v38.16h-13.97V1192.15z" />
	<path
   id="path378"
   d="M-1628.04,1179.91h14.04v50.4h-14.04V1179.91z" />
	<path
   id="path380"
   d="M-1604.78,1179.91h13.03l20.74,26.64v-26.64h13.83v50.4h-12.24l-21.53-27.65v27.65h-13.82V1179.91z" />
	<path
   id="path382"
   d="M-1549.99,1205.25v-0.14c0-14.69,11.52-26.21,27.15-26.21c8.86,0,15.12,2.74,20.45,7.34l-8.21,9.86   c-3.6-3.02-7.2-4.75-12.17-4.75c-7.27,0-12.89,6.12-12.89,13.83v0.14c0,8.14,5.69,13.97,13.68,13.97c3.38,0,5.98-0.72,8.06-2.09   v-6.12h-9.94v-10.22h23.19v22.68c-5.33,4.39-12.75,7.78-21.89,7.78C-1538.26,1231.32-1549.99,1220.52-1549.99,1205.25z" />
</g>
<g
   id="g400">
	<path
   id="path386"
   d="M-776.59,1179.91h19.44c18,0,28.44,10.37,28.44,24.91v0.14c0,14.55-10.58,25.35-28.73,25.35h-19.15V1179.91z    M-756.93,1217.93c8.35,0,13.9-4.61,13.9-12.75v-0.14c0-8.06-5.54-12.75-13.9-12.75h-5.69v25.63H-756.93z" />
	<path
   id="path388"
   d="M-721.22,1179.91h14.04v50.4h-14.04V1179.91z" />
	<path
   id="path390"
   d="M-699.69,1205.25v-0.14c0-14.69,11.52-26.21,27.15-26.21c8.86,0,15.12,2.74,20.45,7.34l-8.21,9.86   c-3.6-3.02-7.2-4.75-12.17-4.75c-7.27,0-12.89,6.12-12.89,13.83v0.14c0,8.14,5.69,13.97,13.68,13.97c3.38,0,5.98-0.72,8.06-2.09   v-6.12h-9.94v-10.22h23.19v22.68c-5.33,4.39-12.75,7.78-21.89,7.78C-687.95,1231.32-699.69,1220.52-699.69,1205.25z" />
	<path
   id="path392"
   d="M-642.31,1179.91h14.04v50.4h-14.04V1179.91z" />
	<path
   id="path394"
   d="M-606.74,1192.15h-15.12v-12.24h44.21v12.24h-15.12v38.16h-13.97V1192.15z" />
	<path
   id="path396"
   d="M-560.59,1179.55h13.47l21.46,50.76h-14.98l-3.67-9h-19.44l-3.6,9h-14.69L-560.59,1179.55z M-548.35,1210.44l-5.62-14.33   l-5.69,14.33H-548.35z" />
	<path
   id="path398"
   d="M-520.77,1179.91h13.97v38.16h24.41v12.24h-38.38V1179.91z" />
</g>
<g
   id="g418">
	<path
   id="path402"
   d="M341.36,1168.17h25.85c6.34,0,10.8,1.58,13.75,4.54c2.02,2.02,3.24,4.68,3.24,8.14v0.14c0,5.83-3.31,9.29-7.78,11.23   c6.12,2.02,10.01,5.47,10.01,12.31v0.14c0,8.64-7.06,13.9-19.08,13.9h-25.99V1168.17z M363.75,1188.26c4.25,0,6.62-1.44,6.62-4.39   v-0.14c0-2.74-2.16-4.32-6.34-4.32h-9.07v8.86H363.75z M365.77,1207.34c4.25,0,6.7-1.66,6.7-4.61v-0.14c0-2.74-2.16-4.54-6.84-4.54   h-10.66v9.29H365.77z" />
	<path
   id="path404"
   d="M392.84,1168.17h23.83c7.71,0,13.03,2.02,16.42,5.47c2.95,2.88,4.46,6.77,4.46,11.74v0.14c0,7.7-4.1,12.82-10.37,15.48   l12.02,17.57h-16.13l-10.15-15.27h-0.14h-5.98v15.27h-13.97V1168.17z M416.02,1192.36c4.75,0,7.49-2.3,7.49-5.98v-0.14   c0-3.96-2.88-5.98-7.56-5.98h-9.15v12.1H416.02z" />
	<path
   id="path406"
   d="M461.17,1167.81h13.46l21.46,50.76h-14.98l-3.67-9H458l-3.6,9h-14.69L461.17,1167.81z M473.41,1198.7l-5.62-14.33   l-5.69,14.33H473.41z" />
	<path
   id="path408"
   d="M500.98,1168.17h13.03l20.74,26.64v-26.64h13.82v50.4h-12.24l-21.53-27.65v27.65h-13.83V1168.17z" />
	<path
   id="path410"
   d="M557.5,1168.17h19.44c18,0,28.44,10.37,28.44,24.91v0.14c0,14.55-10.59,25.35-28.73,25.35H557.5V1168.17z M577.16,1206.19   c8.35,0,13.9-4.61,13.9-12.75v-0.14c0-8.06-5.54-12.75-13.9-12.75h-5.69v25.63H577.16z" />
	<path
   id="path412"
   d="M612.87,1168.17h14.04v50.4h-14.04V1168.17z" />
	<path
   id="path414"
   d="M636.12,1168.17h13.03l20.74,26.64v-26.64h13.83v50.4h-12.24l-21.53-27.65v27.65h-13.82V1168.17z" />
	<path
   id="path416"
   d="M690.92,1193.51v-0.14c0-14.69,11.52-26.21,27.15-26.21c8.86,0,15.12,2.74,20.45,7.34l-8.21,9.86   c-3.6-3.02-7.2-4.75-12.17-4.75c-7.27,0-12.89,6.12-12.89,13.83v0.14c0,8.14,5.69,13.97,13.68,13.97c3.38,0,5.98-0.72,8.06-2.09   v-6.12h-9.94v-10.22h23.19v22.68c-5.33,4.39-12.75,7.78-21.89,7.78C702.65,1219.58,690.92,1208.78,690.92,1193.51z" />
</g>
</svg>