<?xml version="1.0" encoding="UTF-8" standalone="no"?>
<svg
   xmlns:dc="http://purl.org/dc/elements/1.1/"
   xmlns:cc="http://creativecommons.org/ns#"
   xmlns:rdf="http://www.w3.org/1999/02/22-rdf-syntax-ns#"
   xmlns:svg="http://www.w3.org/2000/svg"
   xmlns="http://www.w3.org/2000/svg"
   xml:space="preserve"
   style="enable-background:new 0 0 1080 1080;"
   viewBox="0 0 1080 1080"
   y="0px"
   x="0px"
   id="Camada_1"
   version="1.1"><metadata
   id="metadata425"><rdf:RDF><cc:Work
       rdf:about=""><dc:format>image/svg+xml</dc:format><dc:type
         rdf:resource="http://purl.org/dc/dcmitype/StillImage" /><dc:title></dc:title></cc:Work></rdf:RDF></metadata><defs
   id="defs423" />
<style
   id="style2"
   type="text/css">
	.st0{fill:#424242;}
</style>
<g
   id="g48">
	<g
   id="g6">
		<path
   id="path4"
   d="M2897.12,815.14c-156.34,0-283.53-127.19-283.53-283.53s127.19-283.53,283.53-283.53    c34.62,0,68.45,6.17,100.56,18.35L2991.4,283c-30.09-11.4-61.81-17.19-94.28-17.19c-146.57,0-265.81,119.24-265.81,265.81    s119.24,265.81,265.81,265.81c146.57,0,265.81-119.24,265.81-265.81c0-32.48-5.79-64.21-17.21-94.3l16.57-6.28    c12.19,32.1,18.37,65.95,18.37,100.59C3180.65,687.95,3053.46,815.14,2897.12,815.14z"
   class="st0" />
	</g>
	<g
   id="g10">
		
			<rect
   id="rect8"
   height="17.72"
   width="388.44"
   class="st0"
   transform="matrix(0.7071 -0.7071 0.7071 0.7071 609.9742 2261.165)"
   y="385.42"
   x="2840.24" />
	</g>
	<g
   id="g14">
		<polygon
   id="polygon12"
   points="3180.65,318.97 3109.77,318.97 3109.77,248.09 3127.49,248.09 3127.49,301.25 3180.65,301.25   "
   class="st0" />
	</g>
	<g
   id="g18">
		<polygon
   id="polygon16"
   points="3145.21,354.41 3074.33,354.41 3074.33,283.53 3092.05,283.53 3092.05,336.69 3145.21,336.69   "
   class="st0" />
	</g>
	<g
   id="g22">
		<path
   id="path20"
   d="M2897.12,761.98c-127.02,0-230.37-103.34-230.37-230.37s103.34-230.37,230.37-230.37    c127.02,0,230.37,103.34,230.37,230.37S3024.15,761.98,2897.12,761.98z M2897.12,318.97c-117.25,0-212.65,95.39-212.65,212.65    s95.39,212.64,212.65,212.64c117.25,0,212.64-95.39,212.64-212.64S3014.37,318.97,2897.12,318.97z"
   class="st0" />
	</g>
	<g
   id="g26">
		<path
   id="path24"
   d="M2897.12,708.82c-97.71,0-177.2-79.49-177.2-177.2s79.5-177.2,177.2-177.2c97.71,0,177.2,79.49,177.2,177.2    S2994.83,708.82,2897.12,708.82z M2897.12,372.13c-87.94,0-159.48,71.55-159.48,159.48s71.54,159.48,159.48,159.48    c87.94,0,159.48-71.55,159.48-159.48S2985.06,372.13,2897.12,372.13z"
   class="st0" />
	</g>
	<g
   id="g30">
		<path
   id="path28"
   d="M2897.12,655.65c-68.4,0-124.04-55.64-124.04-124.04s55.64-124.04,124.04-124.04    c68.4,0,124.04,55.64,124.04,124.04S2965.52,655.65,2897.12,655.65z M2897.12,425.29c-58.63,0-106.32,47.69-106.32,106.32    s47.7,106.32,106.32,106.32c58.63,0,106.32-47.69,106.32-106.32S2955.75,425.29,2897.12,425.29z"
   class="st0" />
	</g>
	<g
   id="g34">
		<path
   id="path32"
   d="M2897.12,602.49c-39.08,0-70.88-31.8-70.88-70.88s31.8-70.88,70.88-70.88c39.08,0,70.88,31.8,70.88,70.88    S2936.2,602.49,2897.12,602.49z M2897.12,478.45c-29.31,0-53.16,23.85-53.16,53.16c0,29.31,23.85,53.16,53.16,53.16    c29.31,0,53.16-23.85,53.16-53.16C2950.28,502.3,2926.44,478.45,2897.12,478.45z"
   class="st0" />
	</g>
	<g
   id="g38">
		<circle
   id="circle36"
   r="17.72"
   cy="531.61"
   cx="2897.12"
   class="st0" />
	</g>
	<g
   id="g42">
		<path
   id="path40"
   d="M2657.9,815.14h-35.44c-3.07,0-5.92-1.59-7.54-4.21c-1.61-2.61-1.76-5.88-0.39-8.62l53.16-106.32l15.85,7.93    l-46.75,93.5h17.43l59.43-59.43l12.53,12.53l-62.02,62.02C2662.5,814.2,2660.24,815.14,2657.9,815.14z"
   class="st0" />
	</g>
	<g
   id="g46">
		<path
   id="path44"
   d="M3171.79,815.14h-35.44c-2.35,0-4.6-0.93-6.26-2.6l-62.02-62.02l12.53-12.53l59.43,59.43h17.43l-46.75-93.5    l15.85-7.93l53.16,106.32c1.37,2.74,1.22,6.01-0.39,8.62C3177.71,813.55,3174.86,815.14,3171.79,815.14z"
   class="st0" />
	</g>
</g>
<g
   id="g110">
	<g
   id="g52">
		<path
   id="path50"
   d="M4387.05,803.85h-605.95l-50.68-44.38v-33.04h280.87l22.1,19.35h101.37l22.1-19.35h280.87v33.04    L4387.05,803.85z M3790.25,784.5h587.65l37.73-33.04v-5.67h-249.62l-22.1,19.35h-119.67l-22.1-19.35h-249.62v5.67L3790.25,784.5z"
   class="st0" />
	</g>
	<g
   id="g56">
		<path
   id="path54"
   d="M3796.72,707.09h-22.1V416.78c0-21.35,19.83-38.71,44.21-38.71h132.62v19.35h-132.62    c-12.19,0-22.1,8.69-22.1,19.35V707.09z"
   class="st0" />
	</g>
	<g
   id="g60">
		<path
   id="path58"
   d="M4393.52,707.09h-22.1V416.78c0-10.67-9.91-19.35-22.1-19.35h-132.62v-19.35h132.62    c24.38,0,44.21,17.36,44.21,38.71V707.09z"
   class="st0" />
	</g>
	<g
   id="g64">
		<polygon
   id="polygon62"
   points="3907.24,687.73 3818.83,687.73 3818.83,416.78 3973.55,416.78 3973.55,436.13 3840.93,436.13     3840.93,668.38 3907.24,668.38   "
   class="st0" />
	</g>
	<g
   id="g68">
		<rect
   id="rect66"
   height="19.35"
   width="77.36"
   class="st0"
   y="571.61"
   x="4061.97" />
	</g>
	<g
   id="g72">
		<rect
   id="rect70"
   height="19.35"
   width="77.36"
   class="st0"
   y="416.78"
   x="4061.97" />
	</g>
	<g
   id="g76">
		<polygon
   id="polygon74"
   points="4349.32,687.73 3929.34,687.73 3929.34,629.67 4238.8,629.67 4238.8,649.02 3951.45,649.02     3951.45,668.38 4327.21,668.38 4327.21,436.13 4194.59,436.13 4194.59,416.78 4349.32,416.78   "
   class="st0" />
	</g>
	<g
   id="g80">
		<polygon
   id="polygon78"
   points="3995.66,639.35 3973.55,639.35 3973.55,615.99 4017.76,577.28 4017.76,430.46 3973.55,391.75     3973.55,358.72 4028.81,358.72 4028.81,329.68 4050.91,329.68 4050.91,378.07 3995.66,378.07 3995.66,383.74 4039.86,422.45     4039.86,585.29 3995.66,624   "
   class="st0" />
	</g>
	<g
   id="g84">
		<polygon
   id="polygon82"
   points="4194.59,639.35 4172.49,639.35 4172.49,624 4128.28,585.29 4128.28,422.45 4172.49,383.74     4172.49,378.07 4073.02,378.07 4073.02,358.72 4194.59,358.72 4194.59,391.75 4150.38,430.46 4150.38,577.28 4194.59,615.99   "
   class="st0" />
	</g>
	<g
   id="g88">
		<rect
   id="rect86"
   height="38.71"
   width="22.1"
   class="st0"
   y="329.68"
   x="4117.23" />
	</g>
	<g
   id="g92">
		<polygon
   id="polygon90"
   points="4172.49,300.65 4106.17,300.65 4106.17,261.95 4061.97,261.95 4061.97,300.65 3995.66,300.65     3995.66,281.3 4039.86,281.3 4039.86,242.59 4128.28,242.59 4128.28,281.3 4172.49,281.3   "
   class="st0" />
	</g>
	<g
   id="g96">
		<polygon
   id="polygon94"
   points="4188.11,339.36 3980.03,339.36 3951.45,314.34 3951.45,242.59 4017.76,242.59 4017.76,261.95     3973.55,261.95 3973.55,306.32 3989.18,320.01 4178.96,320.01 4194.59,306.32 4194.59,261.95 4150.38,261.95 4150.38,242.59     4216.69,242.59 4216.69,314.34   "
   class="st0" />
	</g>
	<g
   id="g100">
		<rect
   id="rect98"
   height="19.35"
   width="22.1"
   class="st0"
   y="484.52"
   x="4073.02" />
	</g>
	<g
   id="g104">
		<rect
   id="rect102"
   height="19.35"
   width="22.1"
   class="st0"
   y="445.81"
   x="4073.02" />
	</g>
	<g
   id="g108">
		<rect
   id="rect106"
   height="19.35"
   width="22.1"
   class="st0"
   y="523.22"
   x="4073.02" />
	</g>
</g>
<g
   id="g198">
	<g
   id="g196">
		<g
   id="g114">
			<path
   id="path112"
   d="M5201.58,501.48h-219.41c-4.85,0-8.78-3.93-8.78-8.78V246.96c0-4.85,3.93-8.78,8.78-8.78h245.74     c4.85,0,8.78,3.93,8.78,8.78v219.41h-17.55V255.74h-228.19v228.19h210.63V501.48z"
   class="st0" />
		</g>
		<g
   id="g118">
			<path
   id="path116"
   d="M5526.31,501.48H5306.9v-17.55h210.63V255.74h-228.19v210.63h-17.55V246.96c0-4.85,3.93-8.78,8.78-8.78     h245.74c4.85,0,8.78,3.93,8.78,8.78V492.7C5535.09,497.55,5531.16,501.48,5526.31,501.48z"
   class="st0" />
		</g>
		<g
   id="g122">
			<path
   id="path120"
   d="M5227.91,799.88h-245.74c-4.85,0-8.78-3.93-8.78-8.78V545.36c0-4.85,3.93-8.78,8.78-8.78h219.41v17.55     h-210.63v228.19h228.19V571.69h17.55V791.1C5236.69,795.95,5232.76,799.88,5227.91,799.88z"
   class="st0" />
		</g>
		<g
   id="g126">
			<path
   id="path124"
   d="M5526.31,799.88h-245.74c-4.85,0-8.78-3.93-8.78-8.78V571.69h17.55v210.63h228.19V554.14H5306.9v-17.55     h219.41c4.85,0,8.78,3.93,8.78,8.78V791.1C5535.09,795.95,5531.16,799.88,5526.31,799.88z"
   class="st0" />
		</g>
		<g
   id="g130">
			<path
   id="path128"
   d="M5175.25,361.05h-26.33V343.5h17.55v-35.11h-122.87v35.11h17.55v17.55h-26.33c-4.85,0-8.78-3.93-8.78-8.78     v-52.66c0-4.85,3.93-8.78,8.78-8.78h140.42c4.85,0,8.78,3.93,8.78,8.78v52.66C5184.03,357.13,5180.11,361.05,5175.25,361.05z"
   class="st0" />
		</g>
		<g
   id="g134">
			<path
   id="path132"
   d="M5131.37,440.04h-17.55V334.72c0-4.85,3.93-8.78,8.78-8.78h26.33v17.55h-17.55V440.04z"
   class="st0" />
		</g>
		<g
   id="g138">
			<path
   id="path136"
   d="M5096.27,440.04h-17.55V343.5h-17.55v-17.55h26.33c4.85,0,8.78,3.93,8.78,8.78V440.04z"
   class="st0" />
		</g>
		<g
   id="g142">
			<rect
   id="rect140"
   height="17.55"
   width="70.21"
   class="st0"
   y="431.26"
   x="5069.94" />
		</g>
		<g
   id="g146">
			<path
   id="path144"
   d="M5441.12,498.9l-99.11-99.11l-55.23,55.23l-12.41-12.41l61.44-61.44c3.43-3.43,8.98-3.43,12.41,0     l105.32,105.32L5441.12,498.9z"
   class="st0" />
		</g>
		<g
   id="g150">
			<path
   id="path148"
   d="M5392.09,437.47l-12.41-12.41l87.76-87.76c3.43-3.43,8.98-3.43,12.41,0l52.66,52.66l-12.41,12.41     l-46.45-46.45L5392.09,437.47z"
   class="st0" />
		</g>
		<g
   id="g154">
			<path
   id="path152"
   d="M5385.89,361.05c-19.36,0-35.11-15.74-35.11-35.11c0-19.36,15.74-35.11,35.11-35.11s35.11,15.74,35.11,35.11     C5421,345.31,5405.25,361.05,5385.89,361.05z M5385.89,308.39c-9.68,0-17.55,7.88-17.55,17.55c0,9.68,7.88,17.55,17.55,17.55     c9.68,0,17.55-7.88,17.55-17.55C5403.44,316.27,5395.57,308.39,5385.89,308.39z"
   class="st0" />
		</g>
		<g
   id="g158">
			<rect
   id="rect156"
   height="17.55"
   width="157.98"
   class="st0"
   y="589.24"
   x="5026.06" />
		</g>
		<g
   id="g162">
			<rect
   id="rect160"
   height="17.55"
   width="157.98"
   class="st0"
   y="624.35"
   x="5026.06" />
		</g>
		<g
   id="g166">
			<rect
   id="rect164"
   height="17.55"
   width="157.98"
   class="st0"
   y="659.45"
   x="5026.06" />
		</g>
		<g
   id="g170">
			<rect
   id="rect168"
   height="17.55"
   width="157.98"
   class="st0"
   y="694.56"
   x="5026.06" />
		</g>
		<g
   id="g174">
			<rect
   id="rect172"
   height="17.55"
   width="87.76"
   class="st0"
   y="729.66"
   x="5026.06" />
		</g>
		<g
   id="g178">
			
				<rect
   id="rect176"
   height="17.55"
   width="161.35"
   class="st0"
   transform="matrix(0.7071 -0.7071 0.7071 0.7071 1175.9459 4043.7957)"
   y="593.63"
   x="5388.59" />
		</g>
		<g
   id="g182">
			<path
   id="path180"
   d="M5333.23,747.22c-2.28,0-4.53-0.89-6.21-2.57c-2.57-2.57-3.29-6.45-1.82-9.77l35.11-78.99     c0.44-0.99,1.06-1.88,1.82-2.64l114.09-114.09l12.41,12.41L5375.7,664.51l-25.18,56.64l56.64-25.18l112.95-112.94l12.41,12.41     l-114.09,114.09c-0.76,0.76-1.65,1.38-2.64,1.82l-78.99,35.11C5335.65,746.97,5334.44,747.22,5333.23,747.22z"
   class="st0" />
		</g>
		<g
   id="g186">
			
				<rect
   id="rect184"
   height="62.06"
   width="17.55"
   class="st0"
   transform="matrix(0.7071 -0.7071 0.7071 0.7071 1096.9579 4011.0776)"
   y="650.36"
   x="5381.5" />
		</g>
		<g
   id="g190">
			<rect
   id="rect188"
   height="17.55"
   width="149.2"
   class="st0"
   y="729.66"
   x="5333.23" />
		</g>
		<g
   id="g194">
			<path
   id="path192"
   d="M5280.57,554.14h-52.66c-4.85,0-8.78-3.93-8.78-8.78V492.7c0-4.85,3.93-8.78,8.78-8.78h52.66     c4.85,0,8.78,3.93,8.78,8.78v52.66C5289.35,550.21,5285.42,554.14,5280.57,554.14z M5236.69,536.58h35.11v-35.11h-35.11V536.58z"
   class="st0" />
		</g>
	</g>
</g>
<g
   id="g250">
	<g
   id="g248">
		<g
   id="g228">
			<g
   id="g202">
				<path
   id="path200"
   d="M1718.56,580.05c-55.21,0-100.13-44.91-100.13-100.13s44.91-100.13,100.13-100.13      c55.21,0,100.13,44.91,100.13,100.13S1773.77,580.05,1718.56,580.05z M1718.56,399.82c-44.17,0-80.1,35.93-80.1,80.1      s35.93,80.1,80.1,80.1c44.17,0,80.1-35.93,80.1-80.1S1762.73,399.82,1718.56,399.82z"
   class="st0" />
			</g>
			<g
   id="g226">
				<g
   id="g220">
					<g
   id="g206">
						<rect
   id="rect204"
   height="20.03"
   width="200.25"
   class="st0"
   y="650.14"
   x="1618.44" />
					</g>
					<g
   id="g210">
						<rect
   id="rect208"
   height="20.03"
   width="200.25"
   class="st0"
   y="690.19"
   x="1618.44" />
					</g>
					<g
   id="g214">
						<polygon
   id="polygon212"
   points="1743.94,780.3 1693.18,780.3 1673.15,750.26 1618.44,750.26 1618.44,730.24 1683.87,730.24         1703.89,760.28 1733.23,760.28 1753.25,730.24 1818.69,730.24 1818.69,750.26 1763.97,750.26       "
   class="st0" />
					</g>
					<g
   id="g218">
						<path
   id="path216"
   d="M1798.66,740.25h-20.03V603.31l6.29-2.52c45.53-18.21,73.81-64.52,73.81-120.86        c0-77.29-62.88-140.18-140.18-140.18c-77.29,0-140.18,62.88-140.18,140.18c0,56.34,28.28,102.66,73.81,120.86l6.29,2.52        v136.94h-20.03V616.67c-49.59-22.89-80.1-74.63-80.1-136.75c0-88.33,71.87-160.2,160.2-160.2c88.33,0,160.2,71.87,160.2,160.2        c0,62.12-30.51,113.85-80.1,136.75V740.25z"
   class="st0" />
					</g>
				</g>
				<g
   id="g224">
					<polygon
   id="polygon222"
   points="1735.84,536.88 1695.79,456.78 1662.63,489.94 1598.41,489.94 1598.41,469.91 1654.34,469.91        1701.28,422.97 1741.33,503.07 1774.49,469.91 1838.71,469.91 1838.71,489.94 1782.78,489.94      "
   class="st0" />
				</g>
			</g>
		</g>
		<g
   id="g246">
			<g
   id="g232">
				<path
   id="path230"
   d="M1437.64,433.42l-18.72-7.11c46.94-123.64,167.36-206.71,299.65-206.71h24.17l-67.15,67.15l-14.16-14.16      l31.89-31.89C1579.44,250.45,1478.64,325.42,1437.64,433.42z"
   class="st0" />
			</g>
			<g
   id="g236">
				<path
   id="path234"
   d="M2038.96,564.17l-67.15-67.15l14.16-14.16l31.89,31.89c-9.74-113.89-84.73-214.68-192.74-255.68l7.11-18.72      c123.65,46.93,206.74,167.35,206.74,299.65V564.17z"
   class="st0" />
			</g>
			<g
   id="g240">
				<path
   id="path238"
   d="M1718.56,860.4h-24.17l67.16-67.15l14.16,14.16l-31.89,31.89c113.87-9.74,214.67-84.72,255.67-192.71      l18.72,7.11C1971.26,777.33,1850.85,860.4,1718.56,860.4z"
   class="st0" />
			</g>
			<g
   id="g244">
				<path
   id="path242"
   d="M1604.84,839.63c-123.62-46.95-206.68-167.36-206.68-299.63v-24.17l67.15,67.15l-14.16,14.16l-31.89-31.89      c9.74,113.86,84.71,214.66,192.68,255.66L1604.84,839.63z"
   class="st0" />
			</g>
		</g>
	</g>
</g>
<g
   style="fill:#ffffff"
   id="g290">
	<g
   style="fill:#ffffff"
   id="g288">
		<g
   style="fill:#ffffff"
   id="g254">
			<path
   style="fill:#ffffff"
   id="path252"
   d="M798.75,747c-1.02,0-2.05-0.15-3.04-0.45l-538.2-165.6c-5.46-1.69-8.53-7.48-6.85-12.94     c1.67-5.47,7.49-8.54,12.93-6.85L788.4,722.64V357.36L263.59,518.85c-5.44,1.67-11.26-1.4-12.93-6.85     c-1.68-5.46,1.38-11.25,6.85-12.94l538.2-165.6c3.12-0.95,6.54-0.38,9.19,1.57c2.64,1.95,4.2,5.04,4.2,8.33v393.3     c0,3.29-1.56,6.38-4.2,8.33C803.1,746.3,800.94,747,798.75,747z"
   class="st0" />
		</g>
		<g
   style="fill:#ffffff"
   id="g258">
			<path
   style="fill:#ffffff"
   id="path256"
   d="M239.85,602.1c-17.12,0-31.05-13.93-31.05-31.05v-62.1c0-17.12,13.93-31.05,31.05-31.05     s31.05,13.93,31.05,31.05v62.1C270.9,588.17,256.97,602.1,239.85,602.1z M239.85,498.6c-5.71,0-10.35,4.64-10.35,10.35v62.1     c0,5.71,4.64,10.35,10.35,10.35s10.35-4.64,10.35-10.35v-62.1C250.2,503.24,245.56,498.6,239.85,498.6z"
   class="st0" />
		</g>
		<g
   style="fill:#ffffff"
   id="g262">
			<path
   style="fill:#ffffff"
   id="path260"
   d="M829.8,778.05c-22.83,0-41.4-18.57-41.4-41.4v-393.3c0-22.83,18.57-41.4,41.4-41.4     c22.83,0,41.4,18.57,41.4,41.4v393.3C871.2,759.48,852.63,778.05,829.8,778.05z M829.8,322.65c-11.42,0-20.7,9.29-20.7,20.7     v393.3c0,11.41,9.28,20.7,20.7,20.7s20.7-9.29,20.7-20.7v-393.3C850.5,331.94,841.22,322.65,829.8,322.65z"
   class="st0" />
		</g>
		<g
   style="fill:#ffffff"
   id="g266">
			<rect
   style="fill:#ffffff"
   id="rect264"
   height="20.7"
   width="20.7"
   class="st0"
   y="529.65"
   x="643.5" />
		</g>
		<g
   style="fill:#ffffff"
   id="g270">
			<rect
   style="fill:#ffffff"
   id="rect268"
   height="20.7"
   width="20.7"
   class="st0"
   y="529.65"
   x="684.9" />
		</g>
		<g
   style="fill:#ffffff"
   id="g274">
			<rect
   style="fill:#ffffff"
   id="rect272"
   height="20.7"
   width="20.7"
   class="st0"
   y="529.65"
   x="726.3" />
		</g>
		<g
   style="fill:#ffffff"
   id="g278">
			<path
   style="fill:#ffffff"
   id="path276"
   d="M488.25,715.95c-1.25,0-2.51-0.22-3.71-0.69l-134.55-51.75c-4-1.54-6.64-5.38-6.64-9.66V602.1h20.7v44.64     l113.85,43.78V643.5h20.7v62.1c0,3.41-1.68,6.6-4.49,8.53C492.36,715.33,490.31,715.95,488.25,715.95z"
   class="st0" />
		</g>
		<g
   style="fill:#ffffff"
   id="g282">
			<path
   style="fill:#ffffff"
   id="path280"
   d="M529.65,778.05c-1.24,0-2.49-0.22-3.68-0.68l-217.35-82.8c-4.01-1.53-6.67-5.38-6.67-9.67v-93.15h20.7v86.01     l196.65,74.92v-98.83H540V767.7c0,3.41-1.67,6.59-4.48,8.52C533.77,777.43,531.72,778.05,529.65,778.05z"
   class="st0" />
		</g>
		<g
   style="fill:#ffffff"
   id="g286">
			<rect
   style="fill:#ffffff"
   id="rect284"
   height="269.1"
   width="20.7"
   class="st0"
   y="405.45"
   x="581.4" />
		</g>
	</g>
</g>
<g
   id="g326">
	<path
   id="path292"
   d="M72.61,1158.94h40.54v11.88H86.43v7.63h24.19v11.02H86.43v7.99h27.07v11.88h-40.9V1158.94z" />
	<path
   id="path294"
   d="M116.6,1158.94h15.63l11.45,31.9l11.45-31.9h15.34l-20.45,50.76h-12.96L116.6,1158.94z" />
	<path
   id="path296"
   d="M175.35,1158.94h40.54v11.88h-26.71v7.63h24.19v11.02h-24.19v7.99h27.07v11.88h-40.9V1158.94z" />
	<path
   id="path298"
   d="M223.37,1158.94h13.03l20.74,26.64v-26.64h13.83v50.4h-12.24l-21.53-27.65v27.65h-13.83V1158.94z" />
	<path
   id="path300"
   d="M292.21,1171.18h-15.12v-12.24h44.21v12.24h-15.12v38.16h-13.97V1171.18z" />
	<path
   id="path302"
   d="M323.53,1184.28v-0.14c0-14.47,11.67-26.21,27.22-26.21c15.55,0,27.07,11.59,27.07,26.07v0.14   c0,14.47-11.67,26.21-27.22,26.21C335.05,1210.35,323.53,1198.76,323.53,1184.28z M363.56,1184.28v-0.14   c0-7.27-5.26-13.61-12.96-13.61c-7.63,0-12.75,6.19-12.75,13.46v0.14c0,7.27,5.26,13.61,12.89,13.61   C358.45,1197.75,363.56,1191.56,363.56,1184.28z" />
	<path
   id="path304"
   d="M380.91,1201.85l7.78-9.29c4.97,3.96,10.51,6.05,16.34,6.05c3.75,0,5.76-1.3,5.76-3.46v-0.14c0-2.09-1.66-3.24-8.5-4.82   c-10.73-2.45-19.01-5.47-19.01-15.84v-0.14c0-9.36,7.42-16.13,19.51-16.13c8.57,0,15.26,2.3,20.74,6.7l-6.98,9.87   c-4.61-3.24-9.65-4.97-14.11-4.97c-3.38,0-5.04,1.44-5.04,3.24v0.14c0,2.3,1.73,3.31,8.71,4.9c11.59,2.52,18.79,6.26,18.79,15.7   v0.14c0,10.3-8.14,16.42-20.38,16.42C395.6,1210.21,387.1,1207.4,380.91,1201.85z" />
	<path
   id="path306"
   d="M451.61,1158.94h40.54v11.88h-26.71v7.63h24.19v11.02h-24.19v7.99h27.07v11.88h-40.9V1158.94z" />
	<path
   id="path308"
   d="M519.58,1158.94h21.6c12.75,0,20.95,6.55,20.95,17.71v0.14c0,11.88-9.15,18.15-21.67,18.15h-6.91v14.4h-13.97V1158.94z    M540.17,1183.99c4.97,0,7.99-2.59,7.99-6.55v-0.14c0-4.32-3.02-6.62-8.06-6.62h-6.55v13.32H540.17z" />
	<path
   id="path310"
   d="M568.03,1158.94h23.83c7.7,0,13.03,2.02,16.42,5.47c2.95,2.88,4.46,6.77,4.46,11.74v0.14c0,7.7-4.1,12.82-10.37,15.48   l12.02,17.57h-16.13l-10.15-15.27h-0.14H582v15.27h-13.97V1158.94z M591.22,1183.13c4.75,0,7.49-2.3,7.49-5.98v-0.14   c0-3.96-2.88-5.98-7.56-5.98H582v12.1H591.22z" />
	<path
   id="path312"
   d="M618.07,1184.28v-0.14c0-14.47,11.67-26.21,27.22-26.21c15.55,0,27.07,11.59,27.07,26.07v0.14   c0,14.47-11.67,26.21-27.22,26.21S618.07,1198.76,618.07,1184.28z M658.11,1184.28v-0.14c0-7.27-5.26-13.61-12.96-13.61   c-7.63,0-12.75,6.19-12.75,13.46v0.14c0,7.27,5.26,13.61,12.89,13.61C653,1197.75,658.11,1191.56,658.11,1184.28z" />
	<path
   id="path314"
   d="M679.63,1158.94h14.76l12.03,19.51l12.02-19.51h14.76v50.4h-13.9v-28.95l-12.89,19.73h-0.29l-12.82-19.59v28.8h-13.68   V1158.94z" />
	<path
   id="path316"
   d="M740.4,1184.28v-0.14c0-14.47,11.67-26.21,27.22-26.21c15.55,0,27.07,11.59,27.07,26.07v0.14   c0,14.47-11.67,26.21-27.22,26.21S740.4,1198.76,740.4,1184.28z M780.44,1184.28v-0.14c0-7.27-5.26-13.61-12.96-13.61   c-7.63,0-12.75,6.19-12.75,13.46v0.14c0,7.27,5.26,13.61,12.89,13.61C775.32,1197.75,780.44,1191.56,780.44,1184.28z" />
	<path
   id="path318"
   d="M814.06,1217.19l5.62-7.63c-11.23-2.81-19.44-12.6-19.44-25.27v-0.14c0-14.69,11.3-26.21,26.57-26.21   c10.3,0,16.92,4.32,21.39,10.51l-10.51,8.14c-2.88-3.6-6.19-5.9-11.02-5.9c-7.06,0-12.02,5.98-12.02,13.32v0.14   c0,7.56,4.97,13.46,12.02,13.46c5.26,0,8.35-2.45,11.38-6.12l10.51,7.49c-4.32,5.98-10.08,10.44-19.59,11.23l-4.03,11.59   L814.06,1217.19z" />
	<path
   id="path320"
   d="M852.79,1184.28v-0.14c0-14.47,11.67-26.21,27.22-26.21c15.55,0,27.08,11.59,27.08,26.07v0.14   c0,14.47-11.67,26.21-27.22,26.21S852.79,1198.76,852.79,1184.28z M864.82,1154.26c1.51-7.13,3.96-10.73,8.93-10.73   c4.32,0,8.93,2.81,11.23,2.81c2.02,0,2.74-1.08,3.67-3.31l6.55,1.8c-1.51,7.13-3.96,10.73-8.93,10.73c-4.32,0-8.93-2.81-11.23-2.81   c-2.02,0-2.74,1.08-3.67,3.31L864.82,1154.26z M892.83,1184.28v-0.14c0-7.27-5.26-13.61-12.96-13.61   c-7.63,0-12.75,6.19-12.75,13.46v0.14c0,7.27,5.26,13.61,12.89,13.61C887.72,1197.75,892.83,1191.56,892.83,1184.28z" />
	<path
   id="path322"
   d="M914.35,1158.94h40.54v11.88h-26.71v7.63h24.19v11.02h-24.19v7.99h27.07v11.88h-40.9V1158.94z" />
	<path
   id="path324"
   d="M958.56,1201.85l7.78-9.29c4.97,3.96,10.51,6.05,16.35,6.05c3.74,0,5.76-1.3,5.76-3.46v-0.14c0-2.09-1.66-3.24-8.5-4.82   c-10.73-2.45-19.01-5.47-19.01-15.84v-0.14c0-9.36,7.42-16.13,19.51-16.13c8.57,0,15.27,2.3,20.74,6.7l-6.98,9.87   c-4.61-3.24-9.65-4.97-14.11-4.97c-3.38,0-5.04,1.44-5.04,3.24v0.14c0,2.3,1.73,3.31,8.71,4.9c11.59,2.52,18.79,6.26,18.79,15.7   v0.14c0,10.3-8.14,16.42-20.38,16.42C973.25,1210.21,964.75,1207.4,958.56,1201.85z" />
</g>
<g
   id="g356">
	<path
   id="path328"
   d="M1367.14,1158.94h19.44c18,0,28.44,10.37,28.44,24.91v0.14c0,14.55-10.58,25.35-28.73,25.35h-19.15V1158.94z    M1386.8,1196.96c8.35,0,13.9-4.61,13.9-12.75v-0.14c0-8.06-5.54-12.75-13.9-12.75h-5.69v25.63H1386.8z" />
	<path
   id="path330"
   d="M1422.22,1158.94h40.54v11.88h-26.71v7.63h24.19v11.02h-24.19v7.99h27.07v11.88h-40.9V1158.94z" />
	<path
   id="path332"
   d="M1466.43,1201.85l7.78-9.29c4.97,3.96,10.51,6.05,16.34,6.05c3.75,0,5.76-1.3,5.76-3.46v-0.14c0-2.09-1.66-3.24-8.5-4.82   c-10.73-2.45-19.01-5.47-19.01-15.84v-0.14c0-9.36,7.42-16.13,19.51-16.13c8.57,0,15.26,2.3,20.74,6.7l-6.98,9.87   c-4.61-3.24-9.65-4.97-14.11-4.97c-3.38,0-5.04,1.44-5.04,3.24v0.14c0,2.3,1.73,3.31,8.71,4.9c11.59,2.52,18.79,6.26,18.79,15.7   v0.14c0,10.3-8.14,16.42-20.38,16.42C1481.12,1210.21,1472.62,1207.4,1466.43,1201.85z" />
	<path
   id="path334"
   d="M1517.19,1158.94h40.54v11.88h-26.71v7.63h24.19v11.02h-24.19v7.99h27.07v11.88h-40.9V1158.94z" />
	<path
   id="path336"
   d="M1565.21,1158.94h13.03l20.74,26.64v-26.64h13.83v50.4h-12.24l-21.53-27.65v27.65h-13.83V1158.94z" />
	<path
   id="path338"
   d="M1617.7,1158.94h15.63l11.45,31.9l11.45-31.9h15.34l-20.45,50.76h-12.96L1617.7,1158.94z" />
	<path
   id="path340"
   d="M1671.48,1184.28v-0.14c0-14.47,11.67-26.21,27.22-26.21c15.55,0,27.07,11.59,27.07,26.07v0.14   c0,14.47-11.67,26.21-27.22,26.21S1671.48,1198.76,1671.48,1184.28z M1711.52,1184.28v-0.14c0-7.27-5.26-13.61-12.96-13.61   c-7.63,0-12.75,6.19-12.75,13.46v0.14c0,7.27,5.26,13.61,12.89,13.61C1706.4,1197.75,1711.52,1191.56,1711.52,1184.28z" />
	<path
   id="path342"
   d="M1733.04,1158.94h13.97v38.16h24.41v12.24h-38.38V1158.94z" />
	<path
   id="path344"
   d="M1777.68,1158.94h14.04v50.4h-14.04V1158.94z" />
	<path
   id="path346"
   d="M1800.94,1158.94h14.76l12.03,19.51l12.02-19.51h14.76v50.4h-13.9v-28.95l-12.89,19.73h-0.29l-12.82-19.59v28.8h-13.68   V1158.94z" />
	<path
   id="path348"
   d="M1863.43,1158.94h40.54v11.88h-26.71v7.63h24.19v11.02h-24.19v7.99h27.07v11.88h-40.9V1158.94z" />
	<path
   id="path350"
   d="M1911.46,1158.94h13.03l20.74,26.64v-26.64h13.83v50.4h-12.24l-21.53-27.65v27.65h-13.83V1158.94z" />
	<path
   id="path352"
   d="M1980.29,1171.18h-15.12v-12.24h44.21v12.24h-15.12v38.16h-13.97V1171.18z" />
	<path
   id="path354"
   d="M2011.61,1184.28v-0.14c0-14.47,11.67-26.21,27.22-26.21c15.55,0,27.07,11.59,27.07,26.07v0.14   c0,14.47-11.67,26.21-27.22,26.21C2023.13,1210.35,2011.61,1198.76,2011.61,1184.28z M2051.64,1184.28v-0.14   c0-7.27-5.26-13.61-12.96-13.61c-7.63,0-12.75,6.19-12.75,13.46v0.14c0,7.27,5.26,13.61,12.89,13.61   C2046.53,1197.75,2051.64,1191.56,2051.64,1184.28z" />
</g>
<g
   id="g384">
	<path
   id="path358"
   d="M2575.73,1158.94h13.97v38.16h24.41v12.24h-38.38V1158.94z" />
	<path
   id="path360"
   d="M2620.36,1158.94h14.04v50.4h-14.04V1158.94z" />
	<path
   id="path362"
   d="M2639.59,1158.94h15.63l11.45,31.9l11.45-31.9h15.34L2673,1209.7h-12.96L2639.59,1158.94z" />
	<path
   id="path364"
   d="M2698.34,1158.94h40.54v11.88h-26.71v7.63h24.19v11.02h-24.19v7.99h27.07v11.88h-40.9V1158.94z" />
	<path
   id="path366"
   d="M2766.31,1158.94h14.76l12.03,19.51l12.03-19.51h14.76v50.4h-13.9v-28.95l-12.89,19.73h-0.29l-12.82-19.59v28.8h-13.68   V1158.94z" />
	<path
   id="path368"
   d="M2846.23,1158.58h13.47l21.46,50.76h-14.98l-3.67-9h-19.44l-3.6,9h-14.69L2846.23,1158.58z M2858.47,1189.47l-5.62-14.33   l-5.69,14.33H2858.47z" />
	<path
   id="path370"
   d="M2886.04,1158.94h23.83c7.7,0,13.03,2.02,16.42,5.47c2.95,2.88,4.46,6.77,4.46,11.74v0.14c0,7.7-4.1,12.82-10.37,15.48   l12.03,17.57h-16.13l-10.15-15.27h-0.14h-5.98v15.27h-13.97V1158.94z M2909.23,1183.13c4.75,0,7.49-2.3,7.49-5.98v-0.14   c0-3.96-2.88-5.98-7.56-5.98h-9.14v12.1H2909.23z" />
	<path
   id="path372"
   d="M2937.81,1158.94h13.97v20.45l17.35-20.45h16.56l-19.08,21.67l19.73,28.73h-16.78l-12.67-18.72l-5.11,5.69v13.03h-13.97   V1158.94z" />
	<path
   id="path374"
   d="M2990.37,1158.94h40.54v11.88h-26.71v7.63h24.19v11.02h-24.19v7.99h27.07v11.88h-40.9V1158.94z" />
	<path
   id="path376"
   d="M3050.71,1171.18h-15.12v-12.24h44.21v12.24h-15.12v38.16h-13.97V1171.18z" />
	<path
   id="path378"
   d="M3086.2,1158.94h14.04v50.4h-14.04V1158.94z" />
	<path
   id="path380"
   d="M3109.46,1158.94h13.03l20.74,26.64v-26.64h13.83v50.4h-12.24l-21.53-27.65v27.65h-13.82V1158.94z" />
	<path
   id="path382"
   d="M3164.25,1184.28v-0.14c0-14.69,11.52-26.21,27.15-26.21c8.86,0,15.12,2.74,20.45,7.34l-8.21,9.86   c-3.6-3.02-7.2-4.75-12.17-4.75c-7.27,0-12.89,6.12-12.89,13.83v0.14c0,8.14,5.69,13.97,13.68,13.97c3.38,0,5.98-0.72,8.06-2.09   v-6.12h-9.94v-10.22h23.19v22.68c-5.33,4.39-12.75,7.78-21.89,7.78C3175.99,1210.35,3164.25,1199.55,3164.25,1184.28z" />
</g>
<g
   id="g400">
	<path
   id="path386"
   d="M3937.66,1158.94h19.44c18,0,28.44,10.37,28.44,24.91v0.14c0,14.55-10.58,25.35-28.73,25.35h-19.15V1158.94z    M3957.31,1196.96c8.35,0,13.9-4.61,13.9-12.75v-0.14c0-8.06-5.54-12.75-13.9-12.75h-5.69v25.63H3957.31z" />
	<path
   id="path388"
   d="M3993.02,1158.94h14.04v50.4h-14.04V1158.94z" />
	<path
   id="path390"
   d="M4014.55,1184.28v-0.14c0-14.69,11.52-26.21,27.15-26.21c8.86,0,15.12,2.74,20.45,7.34l-8.21,9.86   c-3.6-3.02-7.2-4.75-12.17-4.75c-7.27,0-12.89,6.12-12.89,13.83v0.14c0,8.14,5.69,13.97,13.68,13.97c3.38,0,5.98-0.72,8.06-2.09   v-6.12h-9.94v-10.22h23.19v22.68c-5.33,4.39-12.75,7.78-21.89,7.78C4026.29,1210.35,4014.55,1199.55,4014.55,1184.28z" />
	<path
   id="path392"
   d="M4071.94,1158.94h14.04v50.4h-14.04V1158.94z" />
	<path
   id="path394"
   d="M4107.5,1171.18h-15.12v-12.24h44.21v12.24h-15.12v38.16h-13.97V1171.18z" />
	<path
   id="path396"
   d="M4153.66,1158.58h13.47l21.46,50.76h-14.98l-3.67-9h-19.44l-3.6,9h-14.69L4153.66,1158.58z M4165.9,1189.47l-5.62-14.33   l-5.69,14.33H4165.9z" />
	<path
   id="path398"
   d="M4193.47,1158.94h13.97v38.16h24.41v12.24h-38.38V1158.94z" />
</g>
<g
   id="g418">
	<path
   id="path402"
   d="M5055.6,1147.2h25.85c6.34,0,10.8,1.58,13.75,4.54c2.02,2.02,3.24,4.68,3.24,8.14v0.14c0,5.83-3.31,9.29-7.78,11.23   c6.12,2.02,10.01,5.47,10.01,12.31v0.14c0,8.64-7.06,13.9-19.08,13.9h-25.99V1147.2z M5077.99,1167.29c4.25,0,6.62-1.44,6.62-4.39   v-0.14c0-2.74-2.16-4.32-6.34-4.32h-9.07v8.86H5077.99z M5080.01,1186.37c4.25,0,6.7-1.66,6.7-4.61v-0.14   c0-2.74-2.16-4.54-6.84-4.54h-10.66v9.29H5080.01z" />
	<path
   id="path404"
   d="M5107.08,1147.2h23.83c7.71,0,13.03,2.02,16.42,5.47c2.95,2.88,4.46,6.77,4.46,11.74v0.14c0,7.7-4.1,12.82-10.37,15.48   l12.02,17.57h-16.13l-10.15-15.27h-0.14h-5.98v15.27h-13.97V1147.2z M5130.26,1171.39c4.75,0,7.49-2.3,7.49-5.98v-0.14   c0-3.96-2.88-5.98-7.56-5.98h-9.15v12.1H5130.26z" />
	<path
   id="path406"
   d="M5175.41,1146.84h13.46l21.46,50.76h-14.98l-3.67-9h-19.44l-3.6,9h-14.69L5175.41,1146.84z M5187.65,1177.73l-5.62-14.33   l-5.69,14.33H5187.65z" />
	<path
   id="path408"
   d="M5215.22,1147.2h13.03l20.74,26.64v-26.64h13.82v50.4h-12.24l-21.53-27.65v27.65h-13.83V1147.2z" />
	<path
   id="path410"
   d="M5271.74,1147.2h19.44c18,0,28.44,10.37,28.44,24.91v0.14c0,14.55-10.59,25.35-28.73,25.35h-19.15V1147.2z M5291.4,1185.22   c8.35,0,13.9-4.61,13.9-12.75v-0.14c0-8.06-5.54-12.75-13.9-12.75h-5.69v25.63H5291.4z" />
	<path
   id="path412"
   d="M5327.11,1147.2h14.04v50.4h-14.04V1147.2z" />
	<path
   id="path414"
   d="M5350.37,1147.2h13.03l20.74,26.64v-26.64h13.83v50.4h-12.24l-21.53-27.65v27.65h-13.82V1147.2z" />
	<path
   id="path416"
   d="M5405.16,1172.54v-0.14c0-14.69,11.52-26.21,27.15-26.21c8.86,0,15.12,2.74,20.45,7.34l-8.21,9.86   c-3.6-3.02-7.2-4.75-12.17-4.75c-7.27,0-12.89,6.12-12.89,13.83v0.14c0,8.14,5.69,13.97,13.68,13.97c3.38,0,5.98-0.72,8.06-2.09   v-6.12h-9.94v-10.22h23.19v22.68c-5.33,4.39-12.75,7.78-21.89,7.78C5416.89,1198.61,5405.16,1187.81,5405.16,1172.54z" />
</g>
</svg>