<?xml version="1.0" encoding="UTF-8" standalone="no"?>
<svg
   xmlns:dc="http://purl.org/dc/elements/1.1/"
   xmlns:cc="http://creativecommons.org/ns#"
   xmlns:rdf="http://www.w3.org/1999/02/22-rdf-syntax-ns#"
   xmlns:svg="http://www.w3.org/2000/svg"
   xmlns="http://www.w3.org/2000/svg"
   xml:space="preserve"
   style="enable-background:new 0 0 1080 1080;"
   viewBox="0 0 1080 1080"
   y="0px"
   x="0px"
   id="Camada_1"
   version="1.1"><metadata
   id="metadata425"><rdf:RDF><cc:Work
       rdf:about=""><dc:format>image/svg+xml</dc:format><dc:type
         rdf:resource="http://purl.org/dc/dcmitype/StillImage" /><dc:title></dc:title></cc:Work></rdf:RDF></metadata><defs
   id="defs423" />
<style
   id="style2"
   type="text/css">
	.st0{fill:#424242;}
</style>
<g
   id="g48">
	<g
   id="g6">
		<path
   id="path4"
   d="M-646.95,831.91c-156.34,0-283.53-127.19-283.53-283.53s127.19-283.53,283.53-283.53    c34.62,0,68.45,6.17,100.56,18.35l-6.28,16.56c-30.09-11.4-61.81-17.19-94.28-17.19c-146.57,0-265.81,119.24-265.81,265.81    s119.24,265.81,265.81,265.81s265.81-119.24,265.81-265.81c0-32.48-5.79-64.21-17.21-94.3l16.57-6.28    c12.19,32.1,18.37,65.95,18.37,100.59C-363.42,704.72-490.61,831.91-646.95,831.91z"
   class="st0" />
	</g>
	<g
   id="g10">
		
			<rect
   id="rect8"
   height="17.72"
   width="388.44"
   class="st0"
   transform="matrix(0.7071 -0.7071 0.7071 0.7071 -439.9229 -239.9576)"
   y="402.2"
   x="-703.83" />
	</g>
	<g
   id="g14">
		<polygon
   id="polygon12"
   points="-363.42,335.74 -434.3,335.74 -434.3,264.86 -416.58,264.86 -416.58,318.02 -363.42,318.02   "
   class="st0" />
	</g>
	<g
   id="g18">
		<polygon
   id="polygon16"
   points="-398.86,371.18 -469.74,371.18 -469.74,300.3 -452.02,300.3 -452.02,353.46 -398.86,353.46   "
   class="st0" />
	</g>
	<g
   id="g22">
		<path
   id="path20"
   d="M-646.95,778.75c-127.02,0-230.37-103.34-230.37-230.37s103.34-230.37,230.37-230.37    s230.37,103.34,230.37,230.37S-519.93,778.75-646.95,778.75z M-646.95,335.74c-117.25,0-212.65,95.39-212.65,212.64    s95.39,212.65,212.65,212.65c117.25,0,212.64-95.39,212.64-212.65S-529.7,335.74-646.95,335.74z"
   class="st0" />
	</g>
	<g
   id="g26">
		<path
   id="path24"
   d="M-646.95,725.59c-97.71,0-177.2-79.49-177.2-177.2s79.5-177.2,177.2-177.2s177.2,79.49,177.2,177.2    S-549.24,725.59-646.95,725.59z M-646.95,388.9c-87.94,0-159.48,71.55-159.48,159.48c0,87.94,71.54,159.48,159.48,159.48    s159.48-71.55,159.48-159.48C-487.47,460.45-559.01,388.9-646.95,388.9z"
   class="st0" />
	</g>
	<g
   id="g30">
		<path
   id="path28"
   d="M-646.95,672.43c-68.4,0-124.04-55.64-124.04-124.04s55.64-124.04,124.04-124.04    c68.4,0,124.04,55.64,124.04,124.04S-578.55,672.43-646.95,672.43z M-646.95,442.07c-58.63,0-106.32,47.69-106.32,106.32    c0,58.63,47.7,106.32,106.32,106.32c58.63,0,106.32-47.69,106.32-106.32C-540.63,489.76-588.32,442.07-646.95,442.07z"
   class="st0" />
	</g>
	<g
   id="g34">
		<path
   id="path32"
   d="M-646.95,619.27c-39.08,0-70.88-31.8-70.88-70.88c0-39.08,31.8-70.88,70.88-70.88    c39.08,0,70.88,31.8,70.88,70.88C-576.07,587.47-607.87,619.27-646.95,619.27z M-646.95,495.23c-29.31,0-53.16,23.85-53.16,53.16    c0,29.31,23.85,53.16,53.16,53.16c29.31,0,53.16-23.85,53.16-53.16C-593.79,519.07-617.63,495.23-646.95,495.23z"
   class="st0" />
	</g>
	<g
   id="g38">
		<circle
   id="circle36"
   r="17.72"
   cy="548.39"
   cx="-646.95"
   class="st0" />
	</g>
	<g
   id="g42">
		<path
   id="path40"
   d="M-886.17,831.91h-35.44c-3.07,0-5.92-1.59-7.54-4.21c-1.61-2.61-1.76-5.88-0.39-8.62l53.16-106.32l15.85,7.93    l-46.75,93.5h17.43l59.43-59.43l12.53,12.53l-62.02,62.02C-881.57,830.98-883.83,831.91-886.17,831.91z"
   class="st0" />
	</g>
	<g
   id="g46">
		<path
   id="path44"
   d="M-372.28,831.91h-35.44c-2.35,0-4.6-0.93-6.26-2.6l-62.02-62.02l12.53-12.53l59.43,59.43h17.43l-46.75-93.5    l15.85-7.93l53.16,106.32c1.37,2.74,1.22,6.01-0.39,8.62C-366.36,830.32-369.21,831.91-372.28,831.91z"
   class="st0" />
	</g>
</g>
<g
   style="fill:#ffffff"
   id="g110">
	<g
   style="fill:#ffffff"
   id="g52">
		<path
   style="fill:#ffffff"
   id="path50"
   d="M842.98,820.63H237.02l-50.68-44.38v-33.04h280.87l22.1,19.35h101.37l22.1-19.35h280.87v33.04L842.98,820.63z     M246.18,801.28h587.65l37.73-33.04v-5.67H621.94l-22.1,19.35H480.16l-22.1-19.35H208.44v5.67L246.18,801.28z"
   class="st0" />
	</g>
	<g
   style="fill:#ffffff"
   id="g56">
		<path
   style="fill:#ffffff"
   id="path54"
   d="M252.65,723.86h-22.1V433.55c0-21.35,19.83-38.71,44.21-38.71h132.62v19.35H274.76    c-12.19,0-22.1,8.69-22.1,19.35V723.86z"
   class="st0" />
	</g>
	<g
   style="fill:#ffffff"
   id="g60">
		<path
   style="fill:#ffffff"
   id="path58"
   d="M849.45,723.86h-22.1V433.55c0-10.67-9.91-19.35-22.1-19.35H672.62v-19.35h132.62    c24.38,0,44.21,17.36,44.21,38.71V723.86z"
   class="st0" />
	</g>
	<g
   style="fill:#ffffff"
   id="g64">
		<polygon
   style="fill:#ffffff"
   id="polygon62"
   points="363.17,704.51 274.76,704.51 274.76,433.55 429.48,433.55 429.48,452.91 296.86,452.91     296.86,685.15 363.17,685.15   "
   class="st0" />
	</g>
	<g
   style="fill:#ffffff"
   id="g68">
		<rect
   style="fill:#ffffff"
   id="rect66"
   height="19.35"
   width="77.36"
   class="st0"
   y="588.38"
   x="517.9" />
	</g>
	<g
   style="fill:#ffffff"
   id="g72">
		<rect
   style="fill:#ffffff"
   id="rect70"
   height="19.35"
   width="77.36"
   class="st0"
   y="433.55"
   x="517.9" />
	</g>
	<g
   style="fill:#ffffff"
   id="g76">
		<polygon
   style="fill:#ffffff"
   id="polygon74"
   points="805.24,704.51 385.27,704.51 385.27,646.45 694.73,646.45 694.73,665.8 407.38,665.8 407.38,685.15     783.14,685.15 783.14,452.91 650.52,452.91 650.52,433.55 805.24,433.55   "
   class="st0" />
	</g>
	<g
   style="fill:#ffffff"
   id="g80">
		<polygon
   style="fill:#ffffff"
   id="polygon78"
   points="451.59,656.12 429.48,656.12 429.48,632.76 473.69,594.05 473.69,447.24 429.48,408.53     429.48,375.49 484.74,375.49 484.74,346.46 506.84,346.46 506.84,394.85 451.59,394.85 451.59,400.52 495.79,439.22     495.79,602.07 451.59,640.78   "
   class="st0" />
	</g>
	<g
   style="fill:#ffffff"
   id="g84">
		<polygon
   style="fill:#ffffff"
   id="polygon82"
   points="650.52,656.12 628.41,656.12 628.41,640.78 584.21,602.07 584.21,439.22 628.41,400.52     628.41,394.85 528.95,394.85 528.95,375.49 650.52,375.49 650.52,408.53 606.31,447.24 606.31,594.05 650.52,632.76   "
   class="st0" />
	</g>
	<g
   style="fill:#ffffff"
   id="g88">
		<rect
   style="fill:#ffffff"
   id="rect86"
   height="38.71"
   width="22.1"
   class="st0"
   y="346.46"
   x="573.16" />
	</g>
	<g
   style="fill:#ffffff"
   id="g92">
		<polygon
   style="fill:#ffffff"
   id="polygon90"
   points="628.41,317.43 562.1,317.43 562.1,278.72 517.9,278.72 517.9,317.43 451.59,317.43 451.59,298.08     495.79,298.08 495.79,259.37 584.21,259.37 584.21,298.08 628.41,298.08   "
   class="st0" />
	</g>
	<g
   style="fill:#ffffff"
   id="g96">
		<polygon
   style="fill:#ffffff"
   id="polygon94"
   points="644.04,356.14 435.96,356.14 407.38,331.11 407.38,259.37 473.69,259.37 473.69,278.72     429.48,278.72 429.48,323.1 445.11,336.78 634.89,336.78 650.52,323.1 650.52,278.72 606.31,278.72 606.31,259.37 672.62,259.37     672.62,331.11   "
   class="st0" />
	</g>
	<g
   style="fill:#ffffff"
   id="g100">
		<rect
   style="fill:#ffffff"
   id="rect98"
   height="19.35"
   width="22.1"
   class="st0"
   y="501.29"
   x="528.95" />
	</g>
	<g
   style="fill:#ffffff"
   id="g104">
		<rect
   style="fill:#ffffff"
   id="rect102"
   height="19.35"
   width="22.1"
   class="st0"
   y="462.58"
   x="528.95" />
	</g>
	<g
   style="fill:#ffffff"
   id="g108">
		<rect
   style="fill:#ffffff"
   id="rect106"
   height="19.35"
   width="22.1"
   class="st0"
   y="540"
   x="528.95" />
	</g>
</g>
<g
   id="g198">
	<g
   id="g196">
		<g
   id="g114">
			<path
   id="path112"
   d="M1657.51,518.25H1438.1c-4.85,0-8.78-3.93-8.78-8.78V263.74c0-4.85,3.93-8.78,8.78-8.78h245.74     c4.85,0,8.78,3.93,8.78,8.78v219.41h-17.55V272.51h-228.19V500.7h210.63V518.25z"
   class="st0" />
		</g>
		<g
   id="g118">
			<path
   id="path116"
   d="M1982.24,518.25h-219.41V500.7h210.63V272.51h-228.19v210.63h-17.55V263.74c0-4.85,3.93-8.78,8.78-8.78     h245.74c4.85,0,8.78,3.93,8.78,8.78v245.74C1991.02,514.33,1987.09,518.25,1982.24,518.25z"
   class="st0" />
		</g>
		<g
   id="g122">
			<path
   id="path120"
   d="M1683.84,816.65H1438.1c-4.85,0-8.78-3.93-8.78-8.78V562.14c0-4.85,3.93-8.78,8.78-8.78h219.41v17.55     h-210.63V799.1h228.19V588.46h17.55v219.41C1692.62,812.73,1688.69,816.65,1683.84,816.65z"
   class="st0" />
		</g>
		<g
   id="g126">
			<path
   id="path124"
   d="M1982.24,816.65H1736.5c-4.85,0-8.78-3.93-8.78-8.78V588.46h17.55V799.1h228.19V570.91h-210.63v-17.55     h219.41c4.85,0,8.78,3.93,8.78,8.78v245.74C1991.02,812.73,1987.09,816.65,1982.24,816.65z"
   class="st0" />
		</g>
		<g
   id="g130">
			<path
   id="path128"
   d="M1631.18,377.83h-26.33v-17.55h17.55v-35.11h-122.87v35.11h17.55v17.55h-26.33c-4.85,0-8.78-3.93-8.78-8.78     v-52.66c0-4.85,3.93-8.78,8.78-8.78h140.42c4.85,0,8.78,3.93,8.78,8.78v52.66C1639.96,373.9,1636.04,377.83,1631.18,377.83z"
   class="st0" />
		</g>
		<g
   id="g134">
			<path
   id="path132"
   d="M1587.3,456.82h-17.55V351.5c0-4.85,3.93-8.78,8.78-8.78h26.33v17.55h-17.55V456.82z"
   class="st0" />
		</g>
		<g
   id="g138">
			<path
   id="path136"
   d="M1552.2,456.82h-17.55v-96.54h-17.55v-17.55h26.33c4.85,0,8.78,3.93,8.78,8.78V456.82z"
   class="st0" />
		</g>
		<g
   id="g142">
			<rect
   id="rect140"
   height="17.55"
   width="70.21"
   class="st0"
   y="448.04"
   x="1525.87" />
		</g>
		<g
   id="g146">
			<path
   id="path144"
   d="M1897.05,515.68l-99.11-99.11l-55.23,55.23l-12.41-12.41l61.44-61.44c3.43-3.43,8.98-3.43,12.41,0     l105.32,105.32L1897.05,515.68z"
   class="st0" />
		</g>
		<g
   id="g150">
			<path
   id="path148"
   d="M1848.02,454.25l-12.41-12.41l87.76-87.76c3.43-3.43,8.98-3.43,12.41,0l52.66,52.66l-12.41,12.41     l-46.45-46.45L1848.02,454.25z"
   class="st0" />
		</g>
		<g
   id="g154">
			<path
   id="path152"
   d="M1841.82,377.83c-19.36,0-35.11-15.74-35.11-35.11c0-19.36,15.74-35.11,35.11-35.11     c19.36,0,35.11,15.74,35.11,35.11C1876.93,362.09,1861.18,377.83,1841.82,377.83z M1841.82,325.17     c-9.68,0-17.55,7.88-17.55,17.55c0,9.68,7.88,17.55,17.55,17.55c9.68,0,17.55-7.88,17.55-17.55     C1859.37,333.05,1851.5,325.17,1841.82,325.17z"
   class="st0" />
		</g>
		<g
   id="g158">
			<rect
   id="rect156"
   height="17.55"
   width="157.98"
   class="st0"
   y="606.02"
   x="1481.98" />
		</g>
		<g
   id="g162">
			<rect
   id="rect160"
   height="17.55"
   width="157.98"
   class="st0"
   y="641.12"
   x="1481.98" />
		</g>
		<g
   id="g166">
			<rect
   id="rect164"
   height="17.55"
   width="157.98"
   class="st0"
   y="676.23"
   x="1481.98" />
		</g>
		<g
   id="g170">
			<rect
   id="rect168"
   height="17.55"
   width="157.98"
   class="st0"
   y="711.33"
   x="1481.98" />
		</g>
		<g
   id="g174">
			<rect
   id="rect172"
   height="17.55"
   width="87.76"
   class="st0"
   y="746.44"
   x="1481.98" />
		</g>
		<g
   id="g178">
			
				<rect
   id="rect176"
   height="17.55"
   width="161.35"
   class="st0"
   transform="matrix(0.7071 -0.7071 0.7071 0.7071 126.0488 1542.6731)"
   y="610.41"
   x="1844.52" />
		</g>
		<g
   id="g182">
			<path
   id="path180"
   d="M1789.16,763.99c-2.28,0-4.53-0.89-6.2-2.57c-2.57-2.57-3.29-6.45-1.82-9.77l35.11-78.99     c0.44-0.99,1.05-1.88,1.82-2.64l114.09-114.09l12.41,12.41l-112.94,112.95l-25.18,56.64l56.64-25.18l112.95-112.94l12.41,12.41     l-114.09,114.09c-0.76,0.76-1.65,1.38-2.64,1.82l-78.99,35.11C1791.58,763.75,1790.37,763.99,1789.16,763.99z"
   class="st0" />
		</g>
		<g
   id="g186">
			
				<rect
   id="rect184"
   height="62.06"
   width="17.55"
   class="st0"
   transform="matrix(0.7071 -0.7071 0.7071 0.7071 47.0607 1509.9551)"
   y="667.14"
   x="1837.43" />
		</g>
		<g
   id="g190">
			<rect
   id="rect188"
   height="17.55"
   width="149.2"
   class="st0"
   y="746.44"
   x="1789.16" />
		</g>
		<g
   id="g194">
			<path
   id="path192"
   d="M1736.5,570.91h-52.66c-4.85,0-8.78-3.93-8.78-8.78v-52.66c0-4.85,3.93-8.78,8.78-8.78h52.66     c4.85,0,8.78,3.93,8.78,8.78v52.66C1745.28,566.99,1741.35,570.91,1736.5,570.91z M1692.62,553.36h35.11v-35.11h-35.11V553.36z"
   class="st0" />
		</g>
	</g>
</g>
<g
   id="g250">
	<g
   id="g248">
		<g
   id="g228">
			<g
   id="g202">
				<path
   id="path200"
   d="M-1825.51,596.83c-55.21,0-100.13-44.91-100.13-100.13s44.91-100.13,100.13-100.13      c55.21,0,100.13,44.91,100.13,100.13S-1770.3,596.83-1825.51,596.83z M-1825.51,416.6c-44.17,0-80.1,35.93-80.1,80.1      s35.93,80.1,80.1,80.1c44.17,0,80.1-35.93,80.1-80.1S-1781.34,416.6-1825.51,416.6z"
   class="st0" />
			</g>
			<g
   id="g226">
				<g
   id="g220">
					<g
   id="g206">
						<rect
   id="rect204"
   height="20.03"
   width="200.25"
   class="st0"
   y="666.91"
   x="-1925.63" />
					</g>
					<g
   id="g210">
						<rect
   id="rect208"
   height="20.03"
   width="200.25"
   class="st0"
   y="706.96"
   x="-1925.63" />
					</g>
					<g
   id="g214">
						<polygon
   id="polygon212"
   points="-1800.13,797.08 -1850.89,797.08 -1870.92,767.04 -1925.63,767.04 -1925.63,747.01         -1860.2,747.01 -1840.18,777.05 -1810.84,777.05 -1790.82,747.01 -1725.38,747.01 -1725.38,767.04 -1780.1,767.04       "
   class="st0" />
					</g>
					<g
   id="g218">
						<path
   id="path216"
   d="M-1745.41,757.03h-20.03V620.08l6.29-2.52c45.53-18.21,73.81-64.52,73.81-120.86        c0-77.29-62.88-140.18-140.18-140.18c-77.29,0-140.18,62.88-140.18,140.18c0,56.34,28.28,102.66,73.81,120.86l6.29,2.52        v136.94h-20.03V633.45c-49.59-22.89-80.1-74.63-80.1-136.75c0-88.33,71.87-160.2,160.2-160.2c88.33,0,160.2,71.87,160.2,160.2        c0,62.12-30.51,113.85-80.1,136.75V757.03z"
   class="st0" />
					</g>
				</g>
				<g
   id="g224">
					<polygon
   id="polygon222"
   points="-1808.23,553.65 -1848.28,473.55 -1881.44,506.71 -1945.66,506.71 -1945.66,486.69        -1889.73,486.69 -1842.79,439.75 -1802.74,519.85 -1769.58,486.69 -1705.36,486.69 -1705.36,506.71 -1761.29,506.71      "
   class="st0" />
				</g>
			</g>
		</g>
		<g
   id="g246">
			<g
   id="g232">
				<path
   id="path230"
   d="M-2106.43,450.19l-18.72-7.11c46.94-123.64,167.36-206.71,299.65-206.71h24.17l-67.15,67.15l-14.16-14.16      l31.89-31.89C-1964.63,267.23-2065.43,342.2-2106.43,450.19z"
   class="st0" />
			</g>
			<g
   id="g236">
				<path
   id="path234"
   d="M-1505.11,580.95l-67.15-67.15l14.16-14.16l31.89,31.89c-9.74-113.89-84.73-214.68-192.74-255.68      l7.11-18.72c123.65,46.93,206.74,167.35,206.74,299.65V580.95z"
   class="st0" />
			</g>
			<g
   id="g240">
				<path
   id="path238"
   d="M-1825.51,877.18h-24.17l67.15-67.15l14.16,14.16l-31.89,31.89c113.87-9.74,214.67-84.72,255.67-192.71      l18.72,7.11C-1572.81,794.11-1693.22,877.18-1825.51,877.18z"
   class="st0" />
			</g>
			<g
   id="g244">
				<path
   id="path242"
   d="M-1939.23,856.41c-123.62-46.95-206.68-167.36-206.68-299.63v-24.17l67.15,67.15l-14.16,14.16l-31.89-31.89      c9.74,113.86,84.71,214.66,192.68,255.66L-1939.23,856.41z"
   class="st0" />
			</g>
		</g>
	</g>
</g>
<g
   id="g290">
	<g
   id="g288">
		<g
   id="g254">
			<path
   id="path252"
   d="M-2745.32,763.78c-1.02,0-2.05-0.15-3.04-0.45l-538.2-165.6c-5.46-1.69-8.53-7.48-6.85-12.94     c1.67-5.47,7.49-8.54,12.93-6.85l524.81,161.49V374.14l-524.81,161.49c-5.44,1.67-11.26-1.4-12.93-6.85     c-1.68-5.46,1.38-11.25,6.85-12.94l538.2-165.6c3.12-0.95,6.54-0.38,9.19,1.57c2.64,1.95,4.2,5.04,4.2,8.33v393.3     c0,3.29-1.56,6.38-4.2,8.33C-2740.97,763.08-2743.13,763.78-2745.32,763.78z"
   class="st0" />
		</g>
		<g
   id="g258">
			<path
   id="path256"
   d="M-3304.22,618.88c-17.12,0-31.05-13.93-31.05-31.05v-62.1c0-17.12,13.93-31.05,31.05-31.05     s31.05,13.93,31.05,31.05v62.1C-3273.17,604.95-3287.1,618.88-3304.22,618.88z M-3304.22,515.38c-5.71,0-10.35,4.64-10.35,10.35     v62.1c0,5.71,4.64,10.35,10.35,10.35c5.71,0,10.35-4.64,10.35-10.35v-62.1C-3293.87,520.02-3298.51,515.38-3304.22,515.38z"
   class="st0" />
		</g>
		<g
   id="g262">
			<path
   id="path260"
   d="M-2714.27,794.83c-22.83,0-41.4-18.57-41.4-41.4v-393.3c0-22.83,18.57-41.4,41.4-41.4     c22.83,0,41.4,18.57,41.4,41.4v393.3C-2672.87,776.26-2691.44,794.83-2714.27,794.83z M-2714.27,339.43     c-11.42,0-20.7,9.29-20.7,20.7v393.3c0,11.41,9.28,20.7,20.7,20.7c11.42,0,20.7-9.29,20.7-20.7v-393.3     C-2693.57,348.72-2702.85,339.43-2714.27,339.43z"
   class="st0" />
		</g>
		<g
   id="g266">
			<rect
   id="rect264"
   height="20.7"
   width="20.7"
   class="st0"
   y="546.43"
   x="-2900.57" />
		</g>
		<g
   id="g270">
			<rect
   id="rect268"
   height="20.7"
   width="20.7"
   class="st0"
   y="546.43"
   x="-2859.17" />
		</g>
		<g
   id="g274">
			<rect
   id="rect272"
   height="20.7"
   width="20.7"
   class="st0"
   y="546.43"
   x="-2817.77" />
		</g>
		<g
   id="g278">
			<path
   id="path276"
   d="M-3055.82,732.73c-1.25,0-2.51-0.22-3.71-0.69l-134.55-51.75c-4-1.54-6.64-5.38-6.64-9.66v-51.75h20.7v44.64     l113.85,43.78v-47.03h20.7v62.1c0,3.41-1.68,6.6-4.49,8.53C-3051.71,732.11-3053.76,732.73-3055.82,732.73z"
   class="st0" />
		</g>
		<g
   id="g282">
			<path
   id="path280"
   d="M-3014.42,794.83c-1.24,0-2.49-0.22-3.68-0.68l-217.35-82.8c-4.01-1.53-6.67-5.38-6.67-9.67v-93.15h20.7     v86.01l196.65,74.92v-98.83h20.7v113.85c0,3.41-1.67,6.59-4.48,8.52C-3010.3,794.21-3012.35,794.83-3014.42,794.83z"
   class="st0" />
		</g>
		<g
   id="g286">
			<rect
   id="rect284"
   height="269.1"
   width="20.7"
   class="st0"
   y="422.23"
   x="-2962.67" />
		</g>
	</g>
</g>
<g
   id="g326">
	<path
   id="path292"
   d="M-3471.46,1175.71h40.54v11.88h-26.71v7.63h24.19v11.02h-24.19v7.99h27.07v11.88h-40.9V1175.71z" />
	<path
   id="path294"
   d="M-3427.47,1175.71h15.63l11.45,31.9l11.45-31.9h15.34l-20.45,50.76h-12.96L-3427.47,1175.71z" />
	<path
   id="path296"
   d="M-3368.72,1175.71h40.54v11.88h-26.71v7.63h24.19v11.02h-24.19v7.99h27.07v11.88h-40.9V1175.71z" />
	<path
   id="path298"
   d="M-3320.7,1175.71h13.03l20.74,26.64v-26.64h13.83v50.4h-12.24l-21.53-27.65v27.65h-13.83V1175.71z" />
	<path
   id="path300"
   d="M-3251.86,1187.95h-15.12v-12.24h44.21v12.24h-15.12v38.16h-13.97V1187.95z" />
	<path
   id="path302"
   d="M-3220.55,1201.06v-0.14c0-14.47,11.67-26.21,27.22-26.21c15.55,0,27.07,11.59,27.07,26.07v0.14   c0,14.47-11.67,26.21-27.22,26.21C-3209.02,1227.13-3220.55,1215.53-3220.55,1201.06z M-3180.51,1201.06v-0.14   c0-7.27-5.26-13.61-12.96-13.61c-7.63,0-12.75,6.19-12.75,13.46v0.14c0,7.27,5.26,13.61,12.89,13.61   C-3185.62,1214.53-3180.51,1208.33-3180.51,1201.06z" />
	<path
   id="path304"
   d="M-3163.16,1218.63l7.78-9.29c4.97,3.96,10.51,6.05,16.34,6.05c3.75,0,5.76-1.3,5.76-3.46v-0.14c0-2.09-1.66-3.24-8.5-4.82   c-10.73-2.45-19.01-5.47-19.01-15.84v-0.14c0-9.36,7.42-16.13,19.51-16.13c8.57,0,15.26,2.3,20.74,6.7l-6.98,9.87   c-4.61-3.24-9.65-4.97-14.11-4.97c-3.38,0-5.04,1.44-5.04,3.24v0.14c0,2.3,1.73,3.31,8.71,4.9c11.59,2.52,18.79,6.26,18.79,15.7   v0.14c0,10.3-8.14,16.42-20.38,16.42C-3148.47,1226.98-3156.97,1224.17-3163.16,1218.63z" />
	<path
   id="path306"
   d="M-3092.46,1175.71h40.54v11.88h-26.71v7.63h24.19v11.02h-24.19v7.99h27.07v11.88h-40.9V1175.71z" />
	<path
   id="path308"
   d="M-3024.49,1175.71h21.6c12.75,0,20.95,6.55,20.95,17.71v0.14c0,11.88-9.15,18.15-21.67,18.15h-6.91v14.4h-13.97V1175.71z    M-3003.9,1200.77c4.97,0,7.99-2.59,7.99-6.55v-0.14c0-4.32-3.02-6.62-8.06-6.62h-6.55v13.32H-3003.9z" />
	<path
   id="path310"
   d="M-2976.04,1175.71h23.83c7.7,0,13.03,2.02,16.42,5.47c2.95,2.88,4.47,6.77,4.47,11.74v0.14c0,7.7-4.1,12.82-10.37,15.48   l12.02,17.57h-16.13l-10.15-15.27h-0.14h-5.98v15.27h-13.97V1175.71z M-2952.85,1199.91c4.75,0,7.49-2.3,7.49-5.98v-0.14   c0-3.96-2.88-5.98-7.56-5.98h-9.14v12.1H-2952.85z" />
	<path
   id="path312"
   d="M-2926,1201.06v-0.14c0-14.47,11.67-26.21,27.22-26.21c15.55,0,27.07,11.59,27.07,26.07v0.14   c0,14.47-11.67,26.21-27.22,26.21S-2926,1215.53-2926,1201.06z M-2885.96,1201.06v-0.14c0-7.27-5.26-13.61-12.96-13.61   c-7.63,0-12.75,6.19-12.75,13.46v0.14c0,7.27,5.26,13.61,12.89,13.61C-2891.07,1214.53-2885.96,1208.33-2885.96,1201.06z" />
	<path
   id="path314"
   d="M-2864.44,1175.71h14.76l12.03,19.51l12.02-19.51h14.76v50.4h-13.9v-28.95l-12.89,19.73h-0.29l-12.82-19.59v28.8h-13.68   V1175.71z" />
	<path
   id="path316"
   d="M-2803.67,1201.06v-0.14c0-14.47,11.67-26.21,27.22-26.21c15.55,0,27.07,11.59,27.07,26.07v0.14   c0,14.47-11.67,26.21-27.22,26.21S-2803.67,1215.53-2803.67,1201.06z M-2763.63,1201.06v-0.14c0-7.27-5.26-13.61-12.96-13.61   c-7.63,0-12.75,6.19-12.75,13.46v0.14c0,7.27,5.26,13.61,12.89,13.61C-2768.75,1214.53-2763.63,1208.33-2763.63,1201.06z" />
	<path
   id="path318"
   d="M-2730.01,1233.97l5.62-7.63c-11.23-2.81-19.44-12.6-19.44-25.27v-0.14c0-14.69,11.3-26.21,26.57-26.21   c10.3,0,16.92,4.32,21.39,10.51l-10.51,8.14c-2.88-3.6-6.19-5.9-11.02-5.9c-7.06,0-12.02,5.98-12.02,13.32v0.14   c0,7.56,4.97,13.46,12.02,13.46c5.26,0,8.35-2.45,11.38-6.12l10.51,7.49c-4.32,5.98-10.08,10.44-19.59,11.23l-4.03,11.59   L-2730.01,1233.97z" />
	<path
   id="path320"
   d="M-2691.28,1201.06v-0.14c0-14.47,11.67-26.21,27.22-26.21c15.55,0,27.08,11.59,27.08,26.07v0.14   c0,14.47-11.67,26.21-27.22,26.21S-2691.28,1215.53-2691.28,1201.06z M-2679.25,1171.03c1.51-7.13,3.96-10.73,8.93-10.73   c4.32,0,8.93,2.81,11.23,2.81c2.02,0,2.74-1.08,3.67-3.31l6.55,1.8c-1.51,7.13-3.96,10.73-8.93,10.73c-4.32,0-8.93-2.81-11.23-2.81   c-2.02,0-2.74,1.08-3.67,3.31L-2679.25,1171.03z M-2651.24,1201.06v-0.14c0-7.27-5.26-13.61-12.96-13.61   c-7.63,0-12.75,6.19-12.75,13.46v0.14c0,7.27,5.26,13.61,12.89,13.61C-2656.35,1214.53-2651.24,1208.33-2651.24,1201.06z" />
	<path
   id="path322"
   d="M-2629.72,1175.71h40.54v11.88h-26.71v7.63h24.19v11.02h-24.19v7.99h27.07v11.88h-40.9V1175.71z" />
	<path
   id="path324"
   d="M-2585.51,1218.63l7.78-9.29c4.97,3.96,10.51,6.05,16.35,6.05c3.74,0,5.76-1.3,5.76-3.46v-0.14c0-2.09-1.66-3.24-8.5-4.82   c-10.73-2.45-19.01-5.47-19.01-15.84v-0.14c0-9.36,7.42-16.13,19.51-16.13c8.57,0,15.27,2.3,20.74,6.7l-6.98,9.87   c-4.61-3.24-9.65-4.97-14.11-4.97c-3.38,0-5.04,1.44-5.04,3.24v0.14c0,2.3,1.73,3.31,8.71,4.9c11.59,2.52,18.79,6.26,18.79,15.7   v0.14c0,10.3-8.14,16.42-20.38,16.42C-2570.82,1226.98-2579.32,1224.17-2585.51,1218.63z" />
</g>
<g
   id="g356">
	<path
   id="path328"
   d="M-2176.93,1175.71h19.44c18,0,28.44,10.37,28.44,24.91v0.14c0,14.55-10.58,25.35-28.73,25.35h-19.15V1175.71z    M-2157.27,1213.73c8.35,0,13.9-4.61,13.9-12.75v-0.14c0-8.06-5.54-12.75-13.9-12.75h-5.69v25.63H-2157.27z" />
	<path
   id="path330"
   d="M-2121.85,1175.71h40.54v11.88h-26.71v7.63h24.19v11.02h-24.19v7.99h27.07v11.88h-40.9V1175.71z" />
	<path
   id="path332"
   d="M-2077.64,1218.63l7.78-9.29c4.97,3.96,10.51,6.05,16.34,6.05c3.75,0,5.76-1.3,5.76-3.46v-0.14c0-2.09-1.66-3.24-8.5-4.82   c-10.73-2.45-19.01-5.47-19.01-15.84v-0.14c0-9.36,7.42-16.13,19.51-16.13c8.57,0,15.26,2.3,20.74,6.7l-6.98,9.87   c-4.61-3.24-9.65-4.97-14.11-4.97c-3.38,0-5.04,1.44-5.04,3.24v0.14c0,2.3,1.73,3.31,8.71,4.9c11.59,2.52,18.79,6.26,18.79,15.7   v0.14c0,10.3-8.14,16.42-20.38,16.42C-2062.95,1226.98-2071.45,1224.17-2077.64,1218.63z" />
	<path
   id="path334"
   d="M-2026.88,1175.71h40.54v11.88h-26.71v7.63h24.19v11.02h-24.19v7.99h27.07v11.88h-40.9V1175.71z" />
	<path
   id="path336"
   d="M-1978.86,1175.71h13.03l20.74,26.64v-26.64h13.83v50.4h-12.24l-21.53-27.65v27.65h-13.83V1175.71z" />
	<path
   id="path338"
   d="M-1926.37,1175.71h15.63l11.45,31.9l11.45-31.9h15.34l-20.45,50.76h-12.96L-1926.37,1175.71z" />
	<path
   id="path340"
   d="M-1872.59,1201.06v-0.14c0-14.47,11.67-26.21,27.22-26.21c15.55,0,27.07,11.59,27.07,26.07v0.14   c0,14.47-11.67,26.21-27.22,26.21S-1872.59,1215.53-1872.59,1201.06z M-1832.55,1201.06v-0.14c0-7.27-5.26-13.61-12.96-13.61   c-7.63,0-12.75,6.19-12.75,13.46v0.14c0,7.27,5.26,13.61,12.89,13.61C-1837.67,1214.53-1832.55,1208.33-1832.55,1201.06z" />
	<path
   id="path342"
   d="M-1811.03,1175.71h13.97v38.16h24.41v12.24h-38.38V1175.71z" />
	<path
   id="path344"
   d="M-1766.39,1175.71h14.04v50.4h-14.04V1175.71z" />
	<path
   id="path346"
   d="M-1743.13,1175.71h14.76l12.03,19.51l12.02-19.51h14.76v50.4h-13.9v-28.95l-12.89,19.73h-0.29l-12.82-19.59v28.8h-13.68   V1175.71z" />
	<path
   id="path348"
   d="M-1680.64,1175.71h40.54v11.88h-26.71v7.63h24.19v11.02h-24.19v7.99h27.07v11.88h-40.9V1175.71z" />
	<path
   id="path350"
   d="M-1632.61,1175.71h13.03l20.74,26.64v-26.64h13.83v50.4h-12.24l-21.53-27.65v27.65h-13.83V1175.71z" />
	<path
   id="path352"
   d="M-1563.78,1187.95h-15.12v-12.24h44.21v12.24h-15.12v38.16h-13.97V1187.95z" />
	<path
   id="path354"
   d="M-1532.46,1201.06v-0.14c0-14.47,11.67-26.21,27.22-26.21c15.55,0,27.07,11.59,27.07,26.07v0.14   c0,14.47-11.67,26.21-27.22,26.21S-1532.46,1215.53-1532.46,1201.06z M-1492.43,1201.06v-0.14c0-7.27-5.26-13.61-12.96-13.61   c-7.63,0-12.75,6.19-12.75,13.46v0.14c0,7.27,5.26,13.61,12.89,13.61C-1497.54,1214.53-1492.43,1208.33-1492.43,1201.06z" />
</g>
<g
   id="g384">
	<path
   id="path358"
   d="M-968.35,1175.71h13.97v38.16h24.41v12.24h-38.38V1175.71z" />
	<path
   id="path360"
   d="M-923.71,1175.71h14.04v50.4h-14.04V1175.71z" />
	<path
   id="path362"
   d="M-904.48,1175.71h15.63l11.45,31.9l11.45-31.9h15.34l-20.45,50.76h-12.96L-904.48,1175.71z" />
	<path
   id="path364"
   d="M-845.73,1175.71h40.54v11.88h-26.71v7.63h24.19v11.02h-24.19v7.99h27.07v11.88h-40.9V1175.71z" />
	<path
   id="path366"
   d="M-777.76,1175.71H-763l12.03,19.51l12.03-19.51h14.76v50.4h-13.9v-28.95l-12.89,19.73h-0.29l-12.82-19.59v28.8h-13.68   V1175.71z" />
	<path
   id="path368"
   d="M-697.84,1175.35h13.47l21.46,50.76h-14.98l-3.67-9h-19.44l-3.6,9h-14.69L-697.84,1175.35z M-685.6,1206.24l-5.62-14.33   l-5.69,14.33H-685.6z" />
	<path
   id="path370"
   d="M-658.03,1175.71h23.83c7.7,0,13.03,2.02,16.42,5.47c2.95,2.88,4.46,6.77,4.46,11.74v0.14c0,7.7-4.1,12.82-10.37,15.48   l12.03,17.57h-16.13l-10.15-15.27h-0.14h-5.98v15.27h-13.97V1175.71z M-634.84,1199.91c4.75,0,7.49-2.3,7.49-5.98v-0.14   c0-3.96-2.88-5.98-7.56-5.98h-9.14v12.1H-634.84z" />
	<path
   id="path372"
   d="M-606.26,1175.71h13.97v20.45l17.35-20.45h16.56l-19.08,21.67l19.73,28.73h-16.78l-12.67-18.72l-5.11,5.69v13.03h-13.97   V1175.71z" />
	<path
   id="path374"
   d="M-553.7,1175.71h40.54v11.88h-26.71v7.63h24.19v11.02h-24.19v7.99h27.07v11.88h-40.9V1175.71z" />
	<path
   id="path376"
   d="M-493.36,1187.95h-15.12v-12.24h44.21v12.24h-15.12v38.16h-13.97V1187.95z" />
	<path
   id="path378"
   d="M-457.87,1175.71h14.04v50.4h-14.04V1175.71z" />
	<path
   id="path380"
   d="M-434.61,1175.71h13.03l20.74,26.64v-26.64h13.83v50.4h-12.24l-21.53-27.65v27.65h-13.82V1175.71z" />
	<path
   id="path382"
   d="M-379.82,1201.06v-0.14c0-14.69,11.52-26.21,27.15-26.21c8.86,0,15.12,2.74,20.45,7.34l-8.21,9.86   c-3.6-3.02-7.2-4.75-12.17-4.75c-7.27,0-12.89,6.12-12.89,13.83v0.14c0,8.14,5.69,13.97,13.68,13.97c3.38,0,5.98-0.72,8.06-2.09   v-6.12h-9.94v-10.22h23.19v22.68c-5.33,4.39-12.75,7.78-21.89,7.78C-368.08,1227.13-379.82,1216.32-379.82,1201.06z" />
</g>
<g
   id="g400">
	<path
   id="path386"
   d="M393.59,1175.71h19.44c18,0,28.44,10.37,28.44,24.91v0.14c0,14.55-10.58,25.35-28.73,25.35h-19.15V1175.71z    M413.24,1213.73c8.35,0,13.9-4.61,13.9-12.75v-0.14c0-8.06-5.54-12.75-13.9-12.75h-5.69v25.63H413.24z" />
	<path
   id="path388"
   d="M448.95,1175.71h14.04v50.4h-14.04V1175.71z" />
	<path
   id="path390"
   d="M470.48,1201.06v-0.14c0-14.69,11.52-26.21,27.15-26.21c8.86,0,15.12,2.74,20.45,7.34l-8.21,9.86   c-3.6-3.02-7.2-4.75-12.17-4.75c-7.27,0-12.89,6.12-12.89,13.83v0.14c0,8.14,5.69,13.97,13.68,13.97c3.38,0,5.98-0.72,8.06-2.09   v-6.12h-9.94v-10.22h23.19v22.68c-5.33,4.39-12.75,7.78-21.89,7.78C482.22,1227.13,470.48,1216.32,470.48,1201.06z" />
	<path
   id="path392"
   d="M527.86,1175.71h14.04v50.4h-14.04V1175.71z" />
	<path
   id="path394"
   d="M563.43,1187.95h-15.12v-12.24h44.21v12.24H577.4v38.16h-13.97V1187.95z" />
	<path
   id="path396"
   d="M609.59,1175.35h13.47l21.46,50.76h-14.98l-3.67-9h-19.44l-3.6,9h-14.69L609.59,1175.35z M621.83,1206.24l-5.62-14.33   l-5.69,14.33H621.83z" />
	<path
   id="path398"
   d="M649.4,1175.71h13.97v38.16h24.41v12.24H649.4V1175.71z" />
</g>
<g
   id="g418">
	<path
   id="path402"
   d="M1511.53,1163.97h25.85c6.34,0,10.8,1.58,13.75,4.54c2.02,2.02,3.24,4.68,3.24,8.14v0.14c0,5.83-3.31,9.29-7.78,11.23   c6.12,2.02,10.01,5.47,10.01,12.31v0.14c0,8.64-7.06,13.9-19.08,13.9h-25.99V1163.97z M1533.92,1184.06c4.25,0,6.62-1.44,6.62-4.39   v-0.14c0-2.74-2.16-4.32-6.34-4.32h-9.07v8.86H1533.92z M1535.94,1203.14c4.25,0,6.7-1.66,6.7-4.61v-0.14   c0-2.74-2.16-4.54-6.84-4.54h-10.66v9.29H1535.94z" />
	<path
   id="path404"
   d="M1563.01,1163.97h23.83c7.71,0,13.03,2.02,16.42,5.47c2.95,2.88,4.46,6.77,4.46,11.74v0.14c0,7.7-4.1,12.82-10.37,15.48   l12.02,17.57h-16.13l-10.15-15.27h-0.14h-5.98v15.27h-13.97V1163.97z M1586.19,1188.17c4.75,0,7.49-2.3,7.49-5.98v-0.14   c0-3.96-2.88-5.98-7.56-5.98h-9.15v12.1H1586.19z" />
	<path
   id="path406"
   d="M1631.34,1163.61h13.46l21.46,50.76h-14.98l-3.67-9h-19.44l-3.6,9h-14.69L1631.34,1163.61z M1643.58,1194.5l-5.62-14.33   l-5.69,14.33H1643.58z" />
	<path
   id="path408"
   d="M1671.15,1163.97h13.03l20.74,26.64v-26.64h13.82v50.4h-12.24l-21.53-27.65v27.65h-13.83V1163.97z" />
	<path
   id="path410"
   d="M1727.67,1163.97h19.44c18,0,28.44,10.37,28.44,24.91v0.14c0,14.55-10.59,25.35-28.73,25.35h-19.15V1163.97z    M1747.33,1201.99c8.35,0,13.9-4.61,13.9-12.75v-0.14c0-8.06-5.54-12.75-13.9-12.75h-5.69v25.63H1747.33z" />
	<path
   id="path412"
   d="M1783.04,1163.97h14.04v50.4h-14.04V1163.97z" />
	<path
   id="path414"
   d="M1806.3,1163.97h13.03l20.74,26.64v-26.64h13.83v50.4h-12.24l-21.53-27.65v27.65h-13.82V1163.97z" />
	<path
   id="path416"
   d="M1861.09,1189.32v-0.14c0-14.69,11.52-26.21,27.15-26.21c8.86,0,15.12,2.74,20.45,7.34l-8.21,9.86   c-3.6-3.02-7.2-4.75-12.17-4.75c-7.27,0-12.89,6.12-12.89,13.83v0.14c0,8.14,5.69,13.97,13.68,13.97c3.38,0,5.98-0.72,8.06-2.09   v-6.12h-9.94v-10.22h23.19v22.68c-5.33,4.39-12.75,7.78-21.89,7.78C1872.82,1215.38,1861.09,1204.58,1861.09,1189.32z" />
</g>
</svg>