<?xml version="1.0" encoding="UTF-8" standalone="no"?>
<svg
   xmlns:dc="http://purl.org/dc/elements/1.1/"
   xmlns:cc="http://creativecommons.org/ns#"
   xmlns:rdf="http://www.w3.org/1999/02/22-rdf-syntax-ns#"
   xmlns:svg="http://www.w3.org/2000/svg"
   xmlns="http://www.w3.org/2000/svg"
   xml:space="preserve"
   style="enable-background:new 0 0 1080 1080;"
   viewBox="0 0 1080 1080"
   y="0px"
   x="0px"
   id="Camada_1"
   version="1.1"><metadata
   id="metadata425"><rdf:RDF><cc:Work
       rdf:about=""><dc:format>image/svg+xml</dc:format><dc:type
         rdf:resource="http://purl.org/dc/dcmitype/StillImage" /><dc:title></dc:title></cc:Work></rdf:RDF></metadata><defs
   id="defs423" />
<style
   id="style2"
   type="text/css">
	.st0{fill:#424242;}
</style>
<g
   style="fill:#ffffff"
   id="g48">
	<g
   style="fill:#ffffff"
   id="g6">
		<path
   style="fill:#ffffff"
   id="path4"
   d="M540,823.53c-156.34,0-283.53-127.19-283.53-283.53S383.66,256.47,540,256.47    c34.62,0,68.45,6.17,100.56,18.35l-6.28,16.56c-30.09-11.4-61.81-17.19-94.28-17.19c-146.57,0-265.81,119.24-265.81,265.81    S393.43,805.81,540,805.81S805.81,686.57,805.81,540c0-32.48-5.79-64.21-17.21-94.3l16.57-6.28    c12.19,32.1,18.37,65.95,18.37,100.59C823.53,696.33,696.34,823.53,540,823.53z"
   class="st0" />
	</g>
	<g
   style="fill:#ffffff"
   id="g10">
		
			<rect
   style="fill:#ffffff"
   id="rect8"
   height="17.72"
   width="388.44"
   class="st0"
   transform="matrix(0.7071 -0.7071 0.7071 0.7071 -86.3421 596.8853)"
   y="393.81"
   x="483.11" />
	</g>
	<g
   style="fill:#ffffff"
   id="g14">
		<polygon
   style="fill:#ffffff"
   id="polygon12"
   points="823.53,327.36 752.65,327.36 752.65,256.47 770.37,256.47 770.37,309.63 823.53,309.63   "
   class="st0" />
	</g>
	<g
   style="fill:#ffffff"
   id="g18">
		<polygon
   style="fill:#ffffff"
   id="polygon16"
   points="788.09,362.8 717.2,362.8 717.2,291.91 734.92,291.91 734.92,345.08 788.09,345.08   "
   class="st0" />
	</g>
	<g
   style="fill:#ffffff"
   id="g22">
		<path
   style="fill:#ffffff"
   id="path20"
   d="M540,770.37c-127.02,0-230.37-103.34-230.37-230.37S412.98,309.63,540,309.63S770.37,412.97,770.37,540    S667.02,770.37,540,770.37z M540,327.36c-117.25,0-212.64,95.39-212.64,212.64S422.75,752.65,540,752.65S752.65,657.25,752.65,540    S657.25,327.36,540,327.36z"
   class="st0" />
	</g>
	<g
   style="fill:#ffffff"
   id="g26">
		<path
   style="fill:#ffffff"
   id="path24"
   d="M540,717.2c-97.71,0-177.2-79.49-177.2-177.2s79.5-177.2,177.2-177.2S717.2,442.29,717.2,540    S637.71,717.2,540,717.2z M540,380.52c-87.94,0-159.48,71.55-159.48,159.48S452.06,699.48,540,699.48S699.48,627.94,699.48,540    S627.94,380.52,540,380.52z"
   class="st0" />
	</g>
	<g
   style="fill:#ffffff"
   id="g30">
		<path
   style="fill:#ffffff"
   id="path28"
   d="M540,664.04c-68.4,0-124.04-55.64-124.04-124.04S471.6,415.96,540,415.96S664.04,471.6,664.04,540    S608.4,664.04,540,664.04z M540,433.68c-58.63,0-106.32,47.69-106.32,106.32S481.37,646.32,540,646.32    c58.63,0,106.32-47.69,106.32-106.32S598.63,433.68,540,433.68z"
   class="st0" />
	</g>
	<g
   style="fill:#ffffff"
   id="g34">
		<path
   style="fill:#ffffff"
   id="path32"
   d="M540,610.88c-39.08,0-70.88-31.8-70.88-70.88s31.8-70.88,70.88-70.88s70.88,31.8,70.88,70.88    S579.08,610.88,540,610.88z M540,486.84c-29.31,0-53.16,23.85-53.16,53.16s23.85,53.16,53.16,53.16    c29.31,0,53.16-23.85,53.16-53.16S569.31,486.84,540,486.84z"
   class="st0" />
	</g>
	<g
   style="fill:#ffffff"
   id="g38">
		<circle
   style="fill:#ffffff"
   id="circle36"
   r="17.72"
   cy="540"
   cx="540"
   class="st0" />
	</g>
	<g
   style="fill:#ffffff"
   id="g42">
		<path
   style="fill:#ffffff"
   id="path40"
   d="M300.77,823.53h-35.44c-3.07,0-5.92-1.59-7.54-4.21c-1.61-2.61-1.76-5.88-0.39-8.62l53.16-106.32l15.85,7.93    l-46.75,93.5h17.43l59.43-59.43l12.53,12.53l-62.02,62.02C305.38,822.59,303.12,823.53,300.77,823.53z"
   class="st0" />
	</g>
	<g
   style="fill:#ffffff"
   id="g46">
		<path
   style="fill:#ffffff"
   id="path44"
   d="M814.67,823.53h-35.44c-2.35,0-4.6-0.93-6.26-2.6l-62.02-62.02l12.53-12.53l59.43,59.43h17.43l-46.75-93.5    l15.85-7.93l53.16,106.32c1.37,2.74,1.22,6.01-0.39,8.62C820.59,821.93,817.74,823.53,814.67,823.53z"
   class="st0" />
	</g>
</g>
<g
   id="g110">
	<g
   id="g52">
		<path
   id="path50"
   d="M2029.93,812.24h-605.95l-50.68-44.38v-33.04h280.87l22.1,19.35h101.37l22.1-19.35h280.87v33.04    L2029.93,812.24z M1433.12,792.89h587.65l37.73-33.04v-5.67h-249.62l-22.1,19.35h-119.67l-22.1-19.35h-249.62v5.67L1433.12,792.89    z"
   class="st0" />
	</g>
	<g
   id="g56">
		<path
   id="path54"
   d="M1439.6,715.47h-22.1V425.17c0-21.35,19.83-38.71,44.21-38.71h132.62v19.35H1461.7    c-12.19,0-22.1,8.69-22.1,19.35V715.47z"
   class="st0" />
	</g>
	<g
   id="g60">
		<path
   id="path58"
   d="M2036.4,715.47h-22.1V425.17c0-10.67-9.91-19.35-22.1-19.35h-132.62v-19.35h132.62    c24.38,0,44.21,17.36,44.21,38.71V715.47z"
   class="st0" />
	</g>
	<g
   id="g64">
		<polygon
   id="polygon62"
   points="1550.12,696.12 1461.7,696.12 1461.7,425.17 1616.43,425.17 1616.43,444.52 1483.81,444.52     1483.81,676.77 1550.12,676.77   "
   class="st0" />
	</g>
	<g
   id="g68">
		<rect
   id="rect66"
   height="19.35"
   width="77.36"
   class="st0"
   y="580"
   x="1704.85" />
	</g>
	<g
   id="g72">
		<rect
   id="rect70"
   height="19.35"
   width="77.36"
   class="st0"
   y="425.17"
   x="1704.85" />
	</g>
	<g
   id="g76">
		<polygon
   id="polygon74"
   points="1992.19,696.12 1572.22,696.12 1572.22,638.06 1881.68,638.06 1881.68,657.41 1594.33,657.41     1594.33,676.77 1970.09,676.77 1970.09,444.52 1837.47,444.52 1837.47,425.17 1992.19,425.17   "
   class="st0" />
	</g>
	<g
   id="g80">
		<polygon
   id="polygon78"
   points="1638.53,647.73 1616.43,647.73 1616.43,624.37 1660.64,585.67 1660.64,438.85 1616.43,400.14     1616.43,367.1 1671.69,367.1 1671.69,338.07 1693.79,338.07 1693.79,386.46 1638.53,386.46 1638.53,392.13 1682.74,430.84     1682.74,593.68 1638.53,632.39   "
   class="st0" />
	</g>
	<g
   id="g84">
		<polygon
   id="polygon82"
   points="1837.47,647.73 1815.36,647.73 1815.36,632.39 1771.16,593.68 1771.16,430.84 1815.36,392.13     1815.36,386.46 1715.9,386.46 1715.9,367.1 1837.47,367.1 1837.47,400.14 1793.26,438.85 1793.26,585.67 1837.47,624.37   "
   class="st0" />
	</g>
	<g
   id="g88">
		<rect
   id="rect86"
   height="38.71"
   width="22.1"
   class="st0"
   y="338.07"
   x="1760.1" />
	</g>
	<g
   id="g92">
		<polygon
   id="polygon90"
   points="1815.36,309.04 1749.05,309.04 1749.05,270.33 1704.85,270.33 1704.85,309.04 1638.53,309.04     1638.53,289.69 1682.74,289.69 1682.74,250.98 1771.16,250.98 1771.16,289.69 1815.36,289.69   "
   class="st0" />
	</g>
	<g
   id="g96">
		<polygon
   id="polygon94"
   points="1830.99,347.75 1622.91,347.75 1594.33,322.73 1594.33,250.98 1660.64,250.98 1660.64,270.33     1616.43,270.33 1616.43,314.71 1632.06,328.4 1821.84,328.4 1837.47,314.71 1837.47,270.33 1793.26,270.33 1793.26,250.98     1859.57,250.98 1859.57,322.73   "
   class="st0" />
	</g>
	<g
   id="g100">
		<rect
   id="rect98"
   height="19.35"
   width="22.1"
   class="st0"
   y="492.9"
   x="1715.9" />
	</g>
	<g
   id="g104">
		<rect
   id="rect102"
   height="19.35"
   width="22.1"
   class="st0"
   y="454.2"
   x="1715.9" />
	</g>
	<g
   id="g108">
		<rect
   id="rect106"
   height="19.35"
   width="22.1"
   class="st0"
   y="531.61"
   x="1715.9" />
	</g>
</g>
<g
   id="g198">
	<g
   id="g196">
		<g
   id="g114">
			<path
   id="path112"
   d="M2844.46,509.86h-219.41c-4.85,0-8.78-3.93-8.78-8.78V255.35c0-4.85,3.93-8.78,8.78-8.78h245.74     c4.85,0,8.78,3.93,8.78,8.78v219.41h-17.55V264.12h-228.19v228.19h210.63V509.86z"
   class="st0" />
		</g>
		<g
   id="g118">
			<path
   id="path116"
   d="M3169.19,509.86h-219.41v-17.55h210.63V264.12h-228.19v210.63h-17.55V255.35c0-4.85,3.93-8.78,8.78-8.78     h245.74c4.85,0,8.78,3.93,8.78,8.78v245.74C3177.97,505.94,3174.04,509.86,3169.19,509.86z"
   class="st0" />
		</g>
		<g
   id="g122">
			<path
   id="path120"
   d="M2870.79,808.26h-245.74c-4.85,0-8.78-3.93-8.78-8.78V553.75c0-4.85,3.93-8.78,8.78-8.78h219.41v17.55     h-210.63v228.19h228.19V580.08h17.55v219.41C2879.57,804.34,2875.64,808.26,2870.79,808.26z"
   class="st0" />
		</g>
		<g
   id="g126">
			<path
   id="path124"
   d="M3169.19,808.26h-245.74c-4.85,0-8.78-3.93-8.78-8.78V580.08h17.55v210.63h228.19V562.52h-210.63v-17.55     h219.41c4.85,0,8.78,3.93,8.78,8.78v245.74C3177.97,804.34,3174.04,808.26,3169.19,808.26z"
   class="st0" />
		</g>
		<g
   id="g130">
			<path
   id="path128"
   d="M2818.13,369.44h-26.33v-17.55h17.55v-35.11h-122.87v35.11h17.55v17.55h-26.33c-4.85,0-8.78-3.93-8.78-8.78     v-52.66c0-4.85,3.93-8.78,8.78-8.78h140.42c4.85,0,8.78,3.93,8.78,8.78v52.66C2826.91,365.52,2822.98,369.44,2818.13,369.44z"
   class="st0" />
		</g>
		<g
   id="g134">
			<path
   id="path132"
   d="M2774.25,448.43h-17.55V343.11c0-4.85,3.93-8.78,8.78-8.78h26.33v17.55h-17.55V448.43z"
   class="st0" />
		</g>
		<g
   id="g138">
			<path
   id="path136"
   d="M2739.15,448.43h-17.55v-96.54h-17.55v-17.55h26.33c4.85,0,8.78,3.93,8.78,8.78V448.43z"
   class="st0" />
		</g>
		<g
   id="g142">
			<rect
   id="rect140"
   height="17.55"
   width="70.21"
   class="st0"
   y="439.65"
   x="2712.82" />
		</g>
		<g
   id="g146">
			<path
   id="path144"
   d="M3084,507.29l-99.11-99.11l-55.23,55.23L2917.25,451l61.44-61.44c3.43-3.43,8.98-3.43,12.41,0l105.32,105.32     L3084,507.29z"
   class="st0" />
		</g>
		<g
   id="g150">
			<path
   id="path148"
   d="M3034.97,445.86l-12.41-12.41l87.76-87.76c3.43-3.43,8.98-3.43,12.41,0l52.66,52.66l-12.41,12.41     l-46.45-46.45L3034.97,445.86z"
   class="st0" />
		</g>
		<g
   id="g154">
			<path
   id="path152"
   d="M3028.77,369.44c-19.36,0-35.11-15.74-35.11-35.11c0-19.36,15.74-35.11,35.11-35.11     c19.36,0,35.11,15.74,35.11,35.11C3063.87,353.7,3048.13,369.44,3028.77,369.44z M3028.77,316.78c-9.68,0-17.55,7.88-17.55,17.55     c0,9.68,7.88,17.55,17.55,17.55s17.55-7.88,17.55-17.55C3046.32,324.66,3038.44,316.78,3028.77,316.78z"
   class="st0" />
		</g>
		<g
   id="g158">
			<rect
   id="rect156"
   height="17.55"
   width="157.98"
   class="st0"
   y="597.63"
   x="2668.93" />
		</g>
		<g
   id="g162">
			<rect
   id="rect160"
   height="17.55"
   width="157.98"
   class="st0"
   y="632.73"
   x="2668.93" />
		</g>
		<g
   id="g166">
			<rect
   id="rect164"
   height="17.55"
   width="157.98"
   class="st0"
   y="667.84"
   x="2668.93" />
		</g>
		<g
   id="g170">
			<rect
   id="rect168"
   height="17.55"
   width="157.98"
   class="st0"
   y="702.95"
   x="2668.93" />
		</g>
		<g
   id="g174">
			<rect
   id="rect172"
   height="17.55"
   width="87.76"
   class="st0"
   y="738.05"
   x="2668.93" />
		</g>
		<g
   id="g178">
			
				<rect
   id="rect176"
   height="17.55"
   width="161.35"
   class="st0"
   transform="matrix(0.7071 -0.7071 0.7071 0.7071 479.6296 2379.5159)"
   y="602.02"
   x="3031.47" />
		</g>
		<g
   id="g182">
			<path
   id="path180"
   d="M2976.11,755.61c-2.28,0-4.53-0.89-6.21-2.57c-2.57-2.57-3.29-6.45-1.82-9.77l35.11-78.99     c0.44-0.99,1.05-1.88,1.82-2.64l114.09-114.09l12.41,12.41L3018.58,672.9l-25.18,56.64l56.64-25.18l112.95-112.94l12.41,12.41     L3061.3,717.93c-0.76,0.76-1.65,1.38-2.64,1.82l-78.99,35.11C2978.53,755.36,2977.32,755.61,2976.11,755.61z"
   class="st0" />
		</g>
		<g
   id="g186">
			
				<rect
   id="rect184"
   height="62.06"
   width="17.55"
   class="st0"
   transform="matrix(0.7071 -0.7071 0.7071 0.7071 400.6415 2346.7981)"
   y="658.75"
   x="3024.38" />
		</g>
		<g
   id="g190">
			<rect
   id="rect188"
   height="17.55"
   width="149.2"
   class="st0"
   y="738.05"
   x="2976.11" />
		</g>
		<g
   id="g194">
			<path
   id="path192"
   d="M2923.45,562.52h-52.66c-4.85,0-8.78-3.93-8.78-8.78v-52.66c0-4.85,3.93-8.78,8.78-8.78h52.66     c4.85,0,8.78,3.93,8.78,8.78v52.66C2932.23,558.6,2928.3,562.52,2923.45,562.52z M2879.57,544.97h35.11v-35.11h-35.11V544.97z"
   class="st0" />
		</g>
	</g>
</g>
<g
   id="g250">
	<g
   id="g248">
		<g
   id="g228">
			<g
   id="g202">
				<path
   id="path200"
   d="M-638.56,588.44c-55.21,0-100.13-44.91-100.13-100.13s44.91-100.13,100.13-100.13      c55.21,0,100.13,44.91,100.13,100.13S-583.35,588.44-638.56,588.44z M-638.56,408.21c-44.17,0-80.1,35.93-80.1,80.1      s35.93,80.1,80.1,80.1c44.17,0,80.1-35.93,80.1-80.1S-594.39,408.21-638.56,408.21z"
   class="st0" />
			</g>
			<g
   id="g226">
				<g
   id="g220">
					<g
   id="g206">
						<rect
   id="rect204"
   height="20.03"
   width="200.25"
   class="st0"
   y="658.53"
   x="-738.69" />
					</g>
					<g
   id="g210">
						<rect
   id="rect208"
   height="20.03"
   width="200.25"
   class="st0"
   y="698.58"
   x="-738.69" />
					</g>
					<g
   id="g214">
						<polygon
   id="polygon212"
   points="-613.18,788.69 -663.94,788.69 -683.97,758.65 -738.69,758.65 -738.69,738.63 -673.25,738.63         -653.23,768.66 -623.89,768.66 -603.87,738.63 -538.44,738.63 -538.44,758.65 -593.15,758.65       "
   class="st0" />
					</g>
					<g
   id="g218">
						<path
   id="path216"
   d="M-558.46,748.64h-20.03V611.7l6.29-2.52c45.53-18.21,73.81-64.52,73.81-120.86        c0-77.29-62.88-140.18-140.18-140.18c-77.29,0-140.18,62.88-140.18,140.18c0,56.34,28.28,102.66,73.81,120.86l6.29,2.52        v136.94h-20.03V625.06c-49.59-22.89-80.1-74.63-80.1-136.75c0-88.33,71.87-160.2,160.2-160.2c88.33,0,160.2,71.87,160.2,160.2        c0,62.12-30.51,113.85-80.1,136.75V748.64z"
   class="st0" />
					</g>
				</g>
				<g
   id="g224">
					<polygon
   id="polygon222"
   points="-621.28,545.26 -661.33,465.16 -694.49,498.33 -758.71,498.33 -758.71,478.3 -702.78,478.3        -655.84,431.36 -615.79,511.46 -582.63,478.3 -518.41,478.3 -518.41,498.33 -574.34,498.33      "
   class="st0" />
				</g>
			</g>
		</g>
		<g
   id="g246">
			<g
   id="g232">
				<path
   id="path230"
   d="M-919.48,441.81l-18.72-7.11c46.94-123.64,167.36-206.71,299.65-206.71h24.17l-67.15,67.15l-14.16-14.16      l31.89-31.89C-777.68,258.84-878.48,333.81-919.48,441.81z"
   class="st0" />
			</g>
			<g
   id="g236">
				<path
   id="path234"
   d="M-318.16,572.56l-67.15-67.15l14.16-14.16l31.89,31.89C-349,409.24-424,308.45-532.01,267.46l7.11-18.72      c123.65,46.93,206.74,167.35,206.74,299.65V572.56z"
   class="st0" />
			</g>
			<g
   id="g240">
				<path
   id="path238"
   d="M-638.56,868.79h-24.17l67.15-67.15l14.16,14.16l-31.89,31.89c113.87-9.74,214.67-84.72,255.67-192.71      l18.72,7.11C-385.86,785.72-506.27,868.79-638.56,868.79z"
   class="st0" />
			</g>
			<g
   id="g244">
				<path
   id="path242"
   d="M-752.28,848.02c-123.62-46.95-206.68-167.36-206.68-299.63v-24.17l67.15,67.15l-14.16,14.16l-31.89-31.89      c9.74,113.86,84.71,214.66,192.68,255.66L-752.28,848.02z"
   class="st0" />
			</g>
		</g>
	</g>
</g>
<g
   id="g290">
	<g
   id="g288">
		<g
   id="g254">
			<path
   id="path252"
   d="M-1558.37,755.39c-1.02,0-2.05-0.15-3.04-0.45l-538.2-165.6c-5.46-1.69-8.53-7.48-6.85-12.94     c1.67-5.47,7.49-8.54,12.93-6.85l524.81,161.49V365.75l-524.81,161.49c-5.44,1.67-11.26-1.4-12.93-6.85     c-1.68-5.46,1.39-11.25,6.85-12.94l538.2-165.6c3.12-0.95,6.54-0.38,9.19,1.57c2.64,1.95,4.2,5.04,4.2,8.33v393.3     c0,3.29-1.56,6.38-4.2,8.33C-1554.03,754.69-1556.18,755.39-1558.37,755.39z"
   class="st0" />
		</g>
		<g
   id="g258">
			<path
   id="path256"
   d="M-2117.27,610.49c-17.12,0-31.05-13.93-31.05-31.05v-62.1c0-17.12,13.93-31.05,31.05-31.05     c17.12,0,31.05,13.93,31.05,31.05v62.1C-2086.22,596.56-2100.15,610.49-2117.27,610.49z M-2117.27,506.99     c-5.71,0-10.35,4.64-10.35,10.35v62.1c0,5.71,4.64,10.35,10.35,10.35c5.71,0,10.35-4.64,10.35-10.35v-62.1     C-2106.92,511.63-2111.57,506.99-2117.27,506.99z"
   class="st0" />
		</g>
		<g
   id="g262">
			<path
   id="path260"
   d="M-1527.32,786.44c-22.83,0-41.4-18.57-41.4-41.4v-393.3c0-22.83,18.57-41.4,41.4-41.4     c22.83,0,41.4,18.57,41.4,41.4v393.3C-1485.92,767.87-1504.49,786.44-1527.32,786.44z M-1527.32,331.04     c-11.42,0-20.7,9.29-20.7,20.7v393.3c0,11.41,9.28,20.7,20.7,20.7s20.7-9.29,20.7-20.7v-393.3     C-1506.62,340.33-1515.91,331.04-1527.32,331.04z"
   class="st0" />
		</g>
		<g
   id="g266">
			<rect
   id="rect264"
   height="20.7"
   width="20.7"
   class="st0"
   y="538.04"
   x="-1713.62" />
		</g>
		<g
   id="g270">
			<rect
   id="rect268"
   height="20.7"
   width="20.7"
   class="st0"
   y="538.04"
   x="-1672.22" />
		</g>
		<g
   id="g274">
			<rect
   id="rect272"
   height="20.7"
   width="20.7"
   class="st0"
   y="538.04"
   x="-1630.82" />
		</g>
		<g
   id="g278">
			<path
   id="path276"
   d="M-1868.87,724.34c-1.25,0-2.51-0.22-3.71-0.69l-134.55-51.75c-4-1.54-6.64-5.38-6.64-9.66v-51.75h20.7v44.64     l113.85,43.78v-47.03h20.7v62.1c0,3.41-1.68,6.6-4.49,8.53C-1864.76,723.72-1866.81,724.34-1868.87,724.34z"
   class="st0" />
		</g>
		<g
   id="g282">
			<path
   id="path280"
   d="M-1827.47,786.44c-1.24,0-2.49-0.22-3.68-0.68l-217.35-82.8c-4.01-1.53-6.67-5.38-6.67-9.67v-93.15h20.7     v86.01l196.65,74.92v-98.83h20.7v113.85c0,3.41-1.67,6.59-4.48,8.52C-1823.35,785.82-1825.4,786.44-1827.47,786.44z"
   class="st0" />
		</g>
		<g
   id="g286">
			<rect
   id="rect284"
   height="269.1"
   width="20.7"
   class="st0"
   y="413.84"
   x="-1775.72" />
		</g>
	</g>
</g>
<g
   id="g326">
	<path
   id="path292"
   d="M-2284.51,1167.33h40.54v11.88h-26.71v7.63h24.19v11.02h-24.19v7.99h27.07v11.88h-40.9V1167.33z" />
	<path
   id="path294"
   d="M-2240.52,1167.33h15.63l11.45,31.9l11.45-31.9h15.34l-20.45,50.76h-12.96L-2240.52,1167.33z" />
	<path
   id="path296"
   d="M-2181.77,1167.33h40.54v11.88h-26.71v7.63h24.19v11.02h-24.19v7.99h27.07v11.88h-40.9V1167.33z" />
	<path
   id="path298"
   d="M-2133.75,1167.33h13.03l20.74,26.64v-26.64h13.83v50.4h-12.24l-21.53-27.65v27.65h-13.83V1167.33z" />
	<path
   id="path300"
   d="M-2064.91,1179.57h-15.12v-12.24h44.21v12.24h-15.12v38.16h-13.97V1179.57z" />
	<path
   id="path302"
   d="M-2033.6,1192.67v-0.14c0-14.47,11.67-26.21,27.22-26.21c15.55,0,27.07,11.59,27.07,26.07v0.14   c0,14.47-11.67,26.21-27.22,26.21C-2022.07,1218.74-2033.6,1207.14-2033.6,1192.67z M-1993.56,1192.67v-0.14   c0-7.27-5.26-13.61-12.96-13.61c-7.63,0-12.75,6.19-12.75,13.46v0.14c0,7.27,5.26,13.61,12.89,13.61   C-1998.67,1206.14-1993.56,1199.94-1993.56,1192.67z" />
	<path
   id="path304"
   d="M-1976.21,1210.24l7.78-9.29c4.97,3.96,10.51,6.05,16.34,6.05c3.75,0,5.76-1.3,5.76-3.46v-0.14c0-2.09-1.66-3.24-8.5-4.82   c-10.73-2.45-19.01-5.47-19.01-15.84v-0.14c0-9.36,7.42-16.13,19.51-16.13c8.57,0,15.26,2.3,20.74,6.7l-6.98,9.87   c-4.61-3.24-9.65-4.97-14.11-4.97c-3.38,0-5.04,1.44-5.04,3.24v0.14c0,2.3,1.73,3.31,8.71,4.9c11.59,2.52,18.79,6.26,18.79,15.7   v0.14c0,10.3-8.14,16.42-20.38,16.42C-1961.52,1218.59-1970.02,1215.79-1976.21,1210.24z" />
	<path
   id="path306"
   d="M-1905.51,1167.33h40.54v11.88h-26.71v7.63h24.19v11.02h-24.19v7.99h27.07v11.88h-40.9V1167.33z" />
	<path
   id="path308"
   d="M-1837.54,1167.33h21.6c12.75,0,20.95,6.55,20.95,17.71v0.14c0,11.88-9.15,18.15-21.67,18.15h-6.91v14.4h-13.97V1167.33z    M-1816.95,1192.38c4.97,0,7.99-2.59,7.99-6.55v-0.14c0-4.32-3.02-6.62-8.06-6.62h-6.55v13.32H-1816.95z" />
	<path
   id="path310"
   d="M-1789.09,1167.33h23.83c7.7,0,13.03,2.02,16.42,5.47c2.95,2.88,4.46,6.77,4.46,11.74v0.14c0,7.7-4.1,12.82-10.37,15.48   l12.02,17.57h-16.13l-10.15-15.27h-0.14h-5.98v15.27h-13.97V1167.33z M-1765.9,1191.52c4.75,0,7.49-2.3,7.49-5.98v-0.14   c0-3.96-2.88-5.98-7.56-5.98h-9.14v12.1H-1765.9z" />
	<path
   id="path312"
   d="M-1739.05,1192.67v-0.14c0-14.47,11.67-26.21,27.22-26.21c15.55,0,27.07,11.59,27.07,26.07v0.14   c0,14.47-11.67,26.21-27.22,26.21S-1739.05,1207.14-1739.05,1192.67z M-1699.01,1192.67v-0.14c0-7.27-5.26-13.61-12.96-13.61   c-7.63,0-12.75,6.19-12.75,13.46v0.14c0,7.27,5.26,13.61,12.89,13.61C-1704.13,1206.14-1699.01,1199.94-1699.01,1192.67z" />
	<path
   id="path314"
   d="M-1677.49,1167.33h14.76l12.03,19.51l12.02-19.51h14.76v50.4h-13.9v-28.95l-12.89,19.73h-0.29l-12.82-19.59v28.8h-13.68   V1167.33z" />
	<path
   id="path316"
   d="M-1616.72,1192.67v-0.14c0-14.47,11.67-26.21,27.22-26.21c15.55,0,27.07,11.59,27.07,26.07v0.14   c0,14.47-11.67,26.21-27.22,26.21S-1616.72,1207.14-1616.72,1192.67z M-1576.69,1192.67v-0.14c0-7.27-5.26-13.61-12.96-13.61   c-7.63,0-12.75,6.19-12.75,13.46v0.14c0,7.27,5.26,13.61,12.89,13.61C-1581.8,1206.14-1576.69,1199.94-1576.69,1192.67z" />
	<path
   id="path318"
   d="M-1543.06,1225.58l5.62-7.63c-11.23-2.81-19.44-12.6-19.44-25.27v-0.14c0-14.69,11.3-26.21,26.57-26.21   c10.3,0,16.92,4.32,21.39,10.51l-10.51,8.14c-2.88-3.6-6.19-5.9-11.02-5.9c-7.06,0-12.02,5.98-12.02,13.32v0.14   c0,7.56,4.97,13.46,12.02,13.46c5.26,0,8.35-2.45,11.38-6.12l10.51,7.49c-4.32,5.98-10.08,10.44-19.59,11.23l-4.03,11.59   L-1543.06,1225.58z" />
	<path
   id="path320"
   d="M-1504.33,1192.67v-0.14c0-14.47,11.67-26.21,27.22-26.21c15.55,0,27.08,11.59,27.08,26.07v0.14   c0,14.47-11.67,26.21-27.22,26.21S-1504.33,1207.14-1504.33,1192.67z M-1492.3,1162.64c1.51-7.13,3.96-10.73,8.93-10.73   c4.32,0,8.93,2.81,11.23,2.81c2.02,0,2.74-1.08,3.67-3.31l6.55,1.8c-1.51,7.13-3.96,10.73-8.93,10.73c-4.32,0-8.93-2.81-11.23-2.81   c-2.02,0-2.74,1.08-3.67,3.31L-1492.3,1162.64z M-1464.29,1192.67v-0.14c0-7.27-5.26-13.61-12.96-13.61   c-7.63,0-12.75,6.19-12.75,13.46v0.14c0,7.27,5.26,13.61,12.89,13.61C-1469.41,1206.14-1464.29,1199.94-1464.29,1192.67z" />
	<path
   id="path322"
   d="M-1442.77,1167.33h40.54v11.88h-26.71v7.63h24.19v11.02h-24.19v7.99h27.07v11.88h-40.9V1167.33z" />
	<path
   id="path324"
   d="M-1398.56,1210.24l7.78-9.29c4.97,3.96,10.51,6.05,16.35,6.05c3.74,0,5.76-1.3,5.76-3.46v-0.14c0-2.09-1.66-3.24-8.5-4.82   c-10.73-2.45-19.01-5.47-19.01-15.84v-0.14c0-9.36,7.42-16.13,19.51-16.13c8.57,0,15.27,2.3,20.74,6.7l-6.98,9.87   c-4.61-3.24-9.65-4.97-14.11-4.97c-3.38,0-5.04,1.44-5.04,3.24v0.14c0,2.3,1.73,3.31,8.71,4.9c11.59,2.52,18.79,6.26,18.79,15.7   v0.14c0,10.3-8.14,16.42-20.38,16.42C-1383.87,1218.59-1392.37,1215.79-1398.56,1210.24z" />
</g>
<g
   id="g356">
	<path
   id="path328"
   d="M-989.98,1167.33h19.44c18,0,28.44,10.37,28.44,24.91v0.14c0,14.55-10.58,25.35-28.73,25.35h-19.15V1167.33z    M-970.32,1205.34c8.35,0,13.9-4.61,13.9-12.75v-0.14c0-8.06-5.54-12.75-13.9-12.75h-5.69v25.63H-970.32z" />
	<path
   id="path330"
   d="M-934.9,1167.33h40.54v11.88h-26.71v7.63h24.19v11.02h-24.19v7.99H-894v11.88h-40.9V1167.33z" />
	<path
   id="path332"
   d="M-890.69,1210.24l7.78-9.29c4.97,3.96,10.51,6.05,16.34,6.05c3.75,0,5.76-1.3,5.76-3.46v-0.14c0-2.09-1.66-3.24-8.5-4.82   c-10.73-2.45-19.01-5.47-19.01-15.84v-0.14c0-9.36,7.42-16.13,19.51-16.13c8.57,0,15.26,2.3,20.74,6.7l-6.98,9.87   c-4.61-3.24-9.65-4.97-14.11-4.97c-3.38,0-5.04,1.44-5.04,3.24v0.14c0,2.3,1.73,3.31,8.71,4.9c11.59,2.52,18.79,6.26,18.79,15.7   v0.14c0,10.3-8.14,16.42-20.38,16.42C-876.01,1218.59-884.5,1215.79-890.69,1210.24z" />
	<path
   id="path334"
   d="M-839.93,1167.33h40.54v11.88h-26.71v7.63h24.19v11.02h-24.19v7.99h27.07v11.88h-40.9V1167.33z" />
	<path
   id="path336"
   d="M-791.91,1167.33h13.03l20.74,26.64v-26.64h13.83v50.4h-12.24l-21.53-27.65v27.65h-13.83V1167.33z" />
	<path
   id="path338"
   d="M-739.42,1167.33h15.63l11.45,31.9l11.45-31.9h15.34l-20.45,50.76h-12.96L-739.42,1167.33z" />
	<path
   id="path340"
   d="M-685.64,1192.67v-0.14c0-14.47,11.67-26.21,27.22-26.21c15.55,0,27.07,11.59,27.07,26.07v0.14   c0,14.47-11.67,26.21-27.22,26.21S-685.64,1207.14-685.64,1192.67z M-645.6,1192.67v-0.14c0-7.27-5.26-13.61-12.96-13.61   c-7.63,0-12.75,6.19-12.75,13.46v0.14c0,7.27,5.26,13.61,12.89,13.61C-650.72,1206.14-645.6,1199.94-645.6,1192.67z" />
	<path
   id="path342"
   d="M-624.08,1167.33h13.97v38.16h24.41v12.24h-38.38V1167.33z" />
	<path
   id="path344"
   d="M-579.44,1167.33h14.04v50.4h-14.04V1167.33z" />
	<path
   id="path346"
   d="M-556.18,1167.33h14.76l12.03,19.51l12.02-19.51h14.76v50.4h-13.9v-28.95l-12.89,19.73h-0.29l-12.82-19.59v28.8h-13.68   V1167.33z" />
	<path
   id="path348"
   d="M-493.69,1167.33h40.54v11.88h-26.71v7.63h24.19v11.02h-24.19v7.99h27.07v11.88h-40.9V1167.33z" />
	<path
   id="path350"
   d="M-445.66,1167.33h13.03l20.74,26.64v-26.64h13.83v50.4h-12.24l-21.53-27.65v27.65h-13.83V1167.33z" />
	<path
   id="path352"
   d="M-376.83,1179.57h-15.12v-12.24h44.21v12.24h-15.12v38.16h-13.97V1179.57z" />
	<path
   id="path354"
   d="M-345.51,1192.67v-0.14c0-14.47,11.67-26.21,27.22-26.21c15.55,0,27.07,11.59,27.07,26.07v0.14   c0,14.47-11.67,26.21-27.22,26.21S-345.51,1207.14-345.51,1192.67z M-305.48,1192.67v-0.14c0-7.27-5.26-13.61-12.96-13.61   c-7.63,0-12.75,6.19-12.75,13.46v0.14c0,7.27,5.26,13.61,12.89,13.61C-310.59,1206.14-305.48,1199.94-305.48,1192.67z" />
</g>
<g
   id="g384">
	<path
   id="path358"
   d="M218.6,1167.33h13.97v38.16h24.41v12.24H218.6V1167.33z" />
	<path
   id="path360"
   d="M263.24,1167.33h14.04v50.4h-14.04V1167.33z" />
	<path
   id="path362"
   d="M282.47,1167.33h15.63l11.45,31.9l11.45-31.9h15.34l-20.45,50.76h-12.96L282.47,1167.33z" />
	<path
   id="path364"
   d="M341.22,1167.33h40.54v11.88h-26.71v7.63h24.19v11.02h-24.19v7.99h27.07v11.88h-40.9V1167.33z" />
	<path
   id="path366"
   d="M409.19,1167.33h14.76l12.03,19.51l12.03-19.51h14.76v50.4h-13.9v-28.95l-12.89,19.73h-0.29l-12.82-19.59v28.8h-13.68   V1167.33z" />
	<path
   id="path368"
   d="M489.11,1166.96h13.47l21.46,50.76h-14.98l-3.67-9h-19.44l-3.6,9h-14.69L489.11,1166.96z M501.35,1197.86l-5.62-14.33   l-5.69,14.33H501.35z" />
	<path
   id="path370"
   d="M528.92,1167.33h23.83c7.7,0,13.03,2.02,16.42,5.47c2.95,2.88,4.46,6.77,4.46,11.74v0.14c0,7.7-4.1,12.82-10.37,15.48   l12.03,17.57h-16.13l-10.15-15.27h-0.14h-5.98v15.27h-13.97V1167.33z M552.11,1191.52c4.75,0,7.49-2.3,7.49-5.98v-0.14   c0-3.96-2.88-5.98-7.56-5.98h-9.14v12.1H552.11z" />
	<path
   id="path372"
   d="M580.69,1167.33h13.97v20.45l17.35-20.45h16.56L609.49,1189l19.73,28.73h-16.78l-12.67-18.72l-5.11,5.69v13.03h-13.97   V1167.33z" />
	<path
   id="path374"
   d="M633.25,1167.33h40.54v11.88h-26.71v7.63h24.19v11.02h-24.19v7.99h27.07v11.88h-40.9V1167.33z" />
	<path
   id="path376"
   d="M693.59,1179.57h-15.12v-12.24h44.21v12.24h-15.12v38.16h-13.97V1179.57z" />
	<path
   id="path378"
   d="M729.08,1167.33h14.04v50.4h-14.04V1167.33z" />
	<path
   id="path380"
   d="M752.34,1167.33h13.03l20.74,26.64v-26.64h13.83v50.4h-12.24l-21.53-27.65v27.65h-13.82V1167.33z" />
	<path
   id="path382"
   d="M807.13,1192.67v-0.14c0-14.69,11.52-26.21,27.15-26.21c8.86,0,15.12,2.74,20.45,7.34l-8.21,9.86   c-3.6-3.02-7.2-4.75-12.17-4.75c-7.27,0-12.89,6.12-12.89,13.83v0.14c0,8.14,5.69,13.97,13.68,13.97c3.38,0,5.98-0.72,8.06-2.09   v-6.12h-9.94v-10.22h23.19v22.68c-5.33,4.39-12.75,7.78-21.89,7.78C818.86,1218.74,807.13,1207.94,807.13,1192.67z" />
</g>
<g
   id="g400">
	<path
   id="path386"
   d="M1580.53,1167.33h19.44c18,0,28.44,10.37,28.44,24.91v0.14c0,14.55-10.58,25.35-28.73,25.35h-19.15V1167.33z    M1600.19,1205.34c8.35,0,13.9-4.61,13.9-12.75v-0.14c0-8.06-5.54-12.75-13.9-12.75h-5.69v25.63H1600.19z" />
	<path
   id="path388"
   d="M1635.9,1167.33h14.04v50.4h-14.04V1167.33z" />
	<path
   id="path390"
   d="M1657.43,1192.67v-0.14c0-14.69,11.52-26.21,27.15-26.21c8.86,0,15.12,2.74,20.45,7.34l-8.21,9.86   c-3.6-3.02-7.2-4.75-12.17-4.75c-7.27,0-12.89,6.12-12.89,13.83v0.14c0,8.14,5.69,13.97,13.68,13.97c3.38,0,5.98-0.72,8.06-2.09   v-6.12h-9.94v-10.22h23.19v22.68c-5.33,4.39-12.75,7.78-21.89,7.78C1669.17,1218.74,1657.43,1207.94,1657.43,1192.67z" />
	<path
   id="path392"
   d="M1714.81,1167.33h14.04v50.4h-14.04V1167.33z" />
	<path
   id="path394"
   d="M1750.38,1179.57h-15.12v-12.24h44.21v12.24h-15.12v38.16h-13.97V1179.57z" />
	<path
   id="path396"
   d="M1796.53,1166.96H1810l21.46,50.76h-14.98l-3.67-9h-19.44l-3.6,9h-14.69L1796.53,1166.96z M1808.78,1197.86l-5.62-14.33   l-5.69,14.33H1808.78z" />
	<path
   id="path398"
   d="M1836.35,1167.33h13.97v38.16h24.41v12.24h-38.38V1167.33z" />
</g>
<g
   id="g418">
	<path
   id="path402"
   d="M2698.48,1155.58h25.85c6.34,0,10.8,1.58,13.75,4.54c2.02,2.02,3.24,4.68,3.24,8.14v0.14c0,5.83-3.31,9.29-7.78,11.23   c6.12,2.02,10.01,5.47,10.01,12.31v0.14c0,8.64-7.06,13.9-19.08,13.9h-25.99V1155.58z M2720.87,1175.67c4.25,0,6.62-1.44,6.62-4.39   v-0.14c0-2.74-2.16-4.32-6.34-4.32h-9.07v8.86H2720.87z M2722.89,1194.75c4.25,0,6.7-1.66,6.7-4.61V1190   c0-2.74-2.16-4.54-6.84-4.54h-10.66v9.29H2722.89z" />
	<path
   id="path404"
   d="M2749.96,1155.58h23.83c7.71,0,13.03,2.02,16.42,5.47c2.95,2.88,4.46,6.77,4.46,11.74v0.14c0,7.7-4.1,12.82-10.37,15.48   l12.02,17.57h-16.13l-10.15-15.27h-0.14h-5.98v15.27h-13.97V1155.58z M2773.14,1179.78c4.75,0,7.49-2.3,7.49-5.98v-0.14   c0-3.96-2.88-5.98-7.56-5.98h-9.15v12.1H2773.14z" />
	<path
   id="path406"
   d="M2818.29,1155.22h13.46l21.46,50.76h-14.98l-3.67-9h-19.44l-3.6,9h-14.69L2818.29,1155.22z M2830.53,1186.11l-5.62-14.33   l-5.69,14.33H2830.53z" />
	<path
   id="path408"
   d="M2858.1,1155.58h13.03l20.74,26.64v-26.64h13.82v50.4h-12.24l-21.53-27.65v27.65h-13.83V1155.58z" />
	<path
   id="path410"
   d="M2914.62,1155.58h19.44c18,0,28.44,10.37,28.44,24.91v0.14c0,14.55-10.59,25.35-28.73,25.35h-19.15V1155.58z    M2934.28,1193.6c8.35,0,13.9-4.61,13.9-12.75v-0.14c0-8.06-5.54-12.75-13.9-12.75h-5.69v25.63H2934.28z" />
	<path
   id="path412"
   d="M2969.99,1155.58h14.04v50.4h-14.04V1155.58z" />
	<path
   id="path414"
   d="M2993.25,1155.58h13.03l20.74,26.64v-26.64h13.83v50.4h-12.24l-21.53-27.65v27.65h-13.82V1155.58z" />
	<path
   id="path416"
   d="M3048.04,1180.93v-0.14c0-14.69,11.52-26.21,27.15-26.21c8.86,0,15.12,2.74,20.45,7.34l-8.21,9.86   c-3.6-3.02-7.2-4.75-12.17-4.75c-7.27,0-12.89,6.12-12.89,13.83v0.14c0,8.14,5.69,13.97,13.68,13.97c3.38,0,5.98-0.72,8.06-2.09   v-6.12h-9.94v-10.22h23.19v22.68c-5.33,4.39-12.75,7.78-21.89,7.78C3059.77,1207,3048.04,1196.2,3048.04,1180.93z" />
</g>
</svg>