<?xml version="1.0" encoding="UTF-8" standalone="no"?>
<!-- Generator: Adobe Illustrator 23.0.2, SVG Export Plug-In . SVG Version: 6.00 Build 0)  -->

<svg
   xmlns:dc="http://purl.org/dc/elements/1.1/"
   xmlns:cc="http://creativecommons.org/ns#"
   xmlns:rdf="http://www.w3.org/1999/02/22-rdf-syntax-ns#"
   xmlns:svg="http://www.w3.org/2000/svg"
   xmlns="http://www.w3.org/2000/svg"
   xmlns:sodipodi="http://sodipodi.sourceforge.net/DTD/sodipodi-0.dtd"
   xmlns:inkscape="http://www.inkscape.org/namespaces/inkscape"
   version="1.1"
   id="Camada_1"
   x="0px"
   y="0px"
   viewBox="0 0 574.96 505.14"
   style="enable-background:new 0 0 574.96 505.14;"
   xml:space="preserve"
   sodipodi:docname="eventospromoR.svg"
   inkscape:version="0.92.4 (5da689c313, 2019-01-14)"><metadata
   id="metadata457"><rdf:RDF><cc:Work
       rdf:about=""><dc:format>image/svg+xml</dc:format><dc:type
         rdf:resource="http://purl.org/dc/dcmitype/StillImage" /><dc:title /></cc:Work></rdf:RDF></metadata><defs
   id="defs455" /><sodipodi:namedview
   pagecolor="#ffffff"
   bordercolor="#666666"
   borderopacity="1"
   objecttolerance="10"
   gridtolerance="10"
   guidetolerance="10"
   inkscape:pageopacity="0"
   inkscape:pageshadow="2"
   inkscape:window-width="2560"
   inkscape:window-height="1017"
   id="namedview453"
   showgrid="false"
   inkscape:zoom="0.041294789"
   inkscape:cx="4511.516"
   inkscape:cy="3921.4145"
   inkscape:window-x="1358"
   inkscape:window-y="-8"
   inkscape:window-maximized="1"
   inkscape:current-layer="Camada_1" />
<style
   type="text/css"
   id="style2">
	.st0{fill:#424242;}
	.st1{fill:#FFFFFF;}
	.st2{fill:#967443;}
</style>














<path
   class="st2"
   d="M528.43,51.33L528.43,51.33C528.43,51.33,528.43,51.33,528.43,51.33l-0.01-0.01c-0.08-0.08-0.16-0.16-0.24-0.24  l-0.35-0.35c-0.01-0.01-0.02-0.01-0.02-0.02l-0.01-0.01l0,0C472.23-4.16,378.99-4,323.75,51.24l-36.43,36.43l-33.21-33.2  c-27.02-27.02-62.47-42.23-99.84-42.82C116.45,10.97,81,25.49,54.18,52.3l-1.1,1.1c-56.43,56.42-57.82,150.37-3.05,205.14  l232.8,232.8l138.8-138.8l0.65,0.65c3.88-3.88,7.41-7.88,10.68-11.99l90.37-90.37C580.49,193.69,582.65,106.23,528.43,51.33z   M420.64,330.26l-41.1,41.1c9.78-26.06,11.39-49.81,10.39-67.47l0.78-0.26l-1.27-6.3c-1.4-14.25-4.26-23.29-4.64-24.41l-0.27,0.09  l-19.07-94.53l26.78-29.5c22.58,29.41,49.44,73.57,49.99,117.85C442.52,290.26,435.25,311.53,420.64,330.26z M124.77,266.82  c0.55-44.32,27.47-88.53,50.06-117.94l28.42,31.09l-19.87,97.47c-2.88,8.47-14,47.1,2.88,94.03l-29.93-29.93l0,0  C135.04,320.25,124.42,295.11,124.77,266.82z M43.1,93.75C83.88,45.1,158.65,60.94,213.39,82.28c0,0-28.72,28.74-39.82,41.75  c-16.26-12.99-52.66-37.19-91.42-30.38c-19.77,3.48-37.15,14.47-51.95,32.75C33.02,115.1,37.33,104.11,43.1,93.75z M340.7,93.11  l39.47,42.82l-33.86,37.88l24.5,119.39l-25.72,4.94l-55.5-36.23v-33.48l38.48-22.29l-7.08-57.42h26.6v-16h-49.11l9.33,66h-48.31  l12.08-66H215.6l3.29,16h29.64l-11.53,58.65l37.05,22.12l1.65,34.32l-52.7,34.45l-23.06-5.01l23.05-120.25l-33.76-37.89l37.05-42  l51.69,20.38c1.44,0.85,2.26,1.36,2.37,1.42l0.25-0.4l4.14,1.63l3.85-1.59l0.28,0.47c0.15-0.09,1.55-0.89,3.99-2.23L340.7,93.11z   M284.76,321.19l-41.58-14l41.58-28.41l40.12,28.25c-5.06,1.44-12.85,3.95-21.83,7.81L284.76,321.19z M241.77,366.48  c-8.16,15.74-10.8,33.16-7.98,52.01c-37.62-42.31-41.99-84.41-39.74-110.52l38.56,13.32l-0.06,0.26c0.08,0.02,1.24,0.29,3.2,0.82  l19.32,6.67c4.15,1.72,8.63,3.77,13.22,6.17C257.9,343.47,248.37,353.76,241.77,366.48z M302.26,333.41l71.21-23.98  c0.54,26.82-5.9,67.25-39.94,106.82c2.29-17.99-0.47-34.65-8.31-49.77c-6.6-12.73-16.13-23.01-26.52-31.27  C299.9,334.59,301.08,333.99,302.26,333.41z M356.52,83.7c58.62-22.13,140.37-39.85,182.04,10.36l0.26-0.22  c6,12.1,9.82,25,11.44,38.19c-15.42-20.89-34.14-33.64-55.93-37.96c-42.16-8.35-83.12,17.4-100.53,30.39  C382.52,111.19,356.52,83.7,356.52,83.7z M335.39,62.89c44.98-44.98,118.37-48.72,168.2-11.31  c-61.46-19.95-142.62,10.09-188.25,31.36L335.39,62.89z M154.01,28.11c33.06,0.53,64.48,14.02,88.46,38l19.98,19.98  c-40.2-20.65-117.87-53.4-179.59-36.36c20.24-14.07,44.12-21.64,69.16-21.64C152.68,28.1,153.35,28.1,154.01,28.11z M26.31,163.33  C41.9,132,61.61,114,84.95,109.87c31.98-5.65,63.88,15.62,78.19,26.95c-24.33,31.18-54.19,79.53-54.84,129.75  c-0.14,10.55,1.05,20.7,3.5,30.45L61.68,246.9C39.1,224.31,27.35,194.16,26.31,163.33z M257.43,442.65l0.32-0.13  c-10.93-26.04-11.4-49.05-1.39-68.39c6.39-12.34,16.39-22.1,27.14-29.69c10.74,7.59,20.75,17.34,27.14,29.69  c9.82,18.98,9.53,41.51-0.82,66.96l-26.98,26.98L257.43,442.65z M455.6,295.29c2.17-9.22,3.21-18.8,3.09-28.73  c-0.64-49.96-30.2-98.08-54.46-129.27c15.7-11.56,51.75-34.02,86.91-27.06c23.88,4.73,43.68,22.62,58.87,53.11  c-3.7,27.27-16.49,54.03-38.3,75.85L455.6,295.29z"
   id="path450"
   style="fill:#d82f5a;fill-opacity:1" />
</svg>