<?xml version="1.0" encoding="UTF-8" standalone="no"?>
<!-- Generator: Adobe Illustrator 23.0.2, SVG Export Plug-In . SVG Version: 6.00 Build 0)  -->

<svg
   xmlns:dc="http://purl.org/dc/elements/1.1/"
   xmlns:cc="http://creativecommons.org/ns#"
   xmlns:rdf="http://www.w3.org/1999/02/22-rdf-syntax-ns#"
   xmlns:svg="http://www.w3.org/2000/svg"
   xmlns="http://www.w3.org/2000/svg"
   xmlns:sodipodi="http://sodipodi.sourceforge.net/DTD/sodipodi-0.dtd"
   xmlns:inkscape="http://www.inkscape.org/namespaces/inkscape"
   version="1.1"
   id="Camada_1"
   x="0px"
   y="0px"
   viewBox="0 0 574.96 505.14"
   style="enable-background:new 0 0 574.96 505.14;"
   xml:space="preserve"
   sodipodi:docname="eventospromoR.svg"
   inkscape:version="0.92.4 (5da689c313, 2019-01-14)"><metadata
   id="metadata457"><rdf:RDF><cc:Work
       rdf:about=""><dc:format>image/svg+xml</dc:format><dc:type
         rdf:resource="http://purl.org/dc/dcmitype/StillImage" /><dc:title></dc:title></cc:Work></rdf:RDF></metadata><defs
   id="defs455" /><sodipodi:namedview
   pagecolor="#ffffff"
   bordercolor="#666666"
   borderopacity="1"
   objecttolerance="10"
   gridtolerance="10"
   guidetolerance="10"
   inkscape:pageopacity="0"
   inkscape:pageshadow="2"
   inkscape:window-width="1366"
   inkscape:window-height="705"
   id="namedview453"
   showgrid="false"
   inkscape:zoom="0.4671972"
   inkscape:cx="287.48001"
   inkscape:cy="252.57001"
   inkscape:window-x="-8"
   inkscape:window-y="-8"
   inkscape:window-maximized="1"
   inkscape:current-layer="Camada_1" />
<style
   type="text/css"
   id="style2">
	.st0{fill:#424242;}
	.st1{fill:#FFFFFF;}
	.st2{fill:#967443;}
</style>
<g
   id="g48">
	<g
   id="g6">
		<path
   class="st0"
   d="M2181.28-1625.28c-156.34,0-283.53-127.19-283.53-283.53s127.19-283.53,283.53-283.53    c34.62,0,68.45,6.17,100.56,18.35l-6.28,16.56c-30.09-11.4-61.81-17.19-94.28-17.19c-146.57,0-265.81,119.24-265.81,265.81    S2034.72-1643,2181.28-1643s265.81-119.24,265.81-265.81c0-32.48-5.79-64.21-17.21-94.3l16.57-6.28    c12.19,32.1,18.37,65.95,18.37,100.59C2464.81-1752.48,2337.62-1625.28,2181.28-1625.28z"
   id="path4" />
	</g>
	<g
   id="g10">
		
			<rect
   x="2124.4"
   y="-2055"
   transform="matrix(0.7071 -0.7071 0.7071 0.7071 2125.9487 1040.2081)"
   class="st0"
   width="388.44"
   height="17.72"
   id="rect8" />
	</g>
	<g
   id="g14">
		<polygon
   class="st0"
   points="2464.81,-2121.45 2393.93,-2121.45 2393.93,-2192.34 2411.65,-2192.34 2411.65,-2139.18     2464.81,-2139.18   "
   id="polygon12" />
	</g>
	<g
   id="g18">
		<polygon
   class="st0"
   points="2429.37,-2086.01 2358.49,-2086.01 2358.49,-2156.9 2376.21,-2156.9 2376.21,-2103.73     2429.37,-2103.73   "
   id="polygon16" />
	</g>
	<g
   id="g22">
		<path
   class="st0"
   d="M2181.28-1678.44c-127.02,0-230.37-103.34-230.37-230.37s103.34-230.37,230.37-230.37    s230.37,103.34,230.37,230.37S2308.31-1678.44,2181.28-1678.44z M2181.28-2121.45c-117.25,0-212.65,95.39-212.65,212.65    s95.39,212.65,212.65,212.65s212.65-95.39,212.65-212.65S2298.53-2121.45,2181.28-2121.45z"
   id="path20" />
	</g>
	<g
   id="g26">
		<path
   class="st0"
   d="M2181.28-1731.61c-97.71,0-177.2-79.49-177.2-177.2s79.5-177.2,177.2-177.2s177.2,79.49,177.2,177.2    S2278.99-1731.61,2181.28-1731.61z M2181.28-2068.29c-87.94,0-159.48,71.55-159.48,159.48s71.54,159.48,159.48,159.48    s159.48-71.55,159.48-159.48S2269.22-2068.29,2181.28-2068.29z"
   id="path24" />
	</g>
	<g
   id="g30">
		<path
   class="st0"
   d="M2181.28-1784.77c-68.4,0-124.04-55.64-124.04-124.04s55.64-124.04,124.04-124.04s124.04,55.64,124.04,124.04    S2249.68-1784.77,2181.28-1784.77z M2181.28-2015.13c-58.63,0-106.32,47.69-106.32,106.32s47.7,106.32,106.32,106.32    s106.32-47.69,106.32-106.32S2239.91-2015.13,2181.28-2015.13z"
   id="path28" />
	</g>
	<g
   id="g34">
		<path
   class="st0"
   d="M2181.28-1837.93c-39.08,0-70.88-31.8-70.88-70.88s31.8-70.88,70.88-70.88s70.88,31.8,70.88,70.88    S2220.37-1837.93,2181.28-1837.93z M2181.28-1961.97c-29.31,0-53.16,23.85-53.16,53.16s23.85,53.16,53.16,53.16    s53.16-23.85,53.16-53.16S2210.6-1961.97,2181.28-1961.97z"
   id="path32" />
	</g>
	<g
   id="g38">
		<circle
   class="st0"
   cx="2181.28"
   cy="-1908.81"
   r="17.72"
   id="circle36" />
	</g>
	<g
   id="g42">
		<path
   class="st0"
   d="M1942.06-1625.28h-35.44c-3.07,0-5.92-1.59-7.54-4.2c-1.61-2.61-1.76-5.88-0.39-8.62l53.16-106.32l15.85,7.93    l-46.75,93.5h17.43l59.43-59.43l12.53,12.53l-62.02,62.02C1946.66-1626.22,1944.41-1625.28,1942.06-1625.28z"
   id="path40" />
	</g>
	<g
   id="g46">
		<path
   class="st0"
   d="M2455.95-1625.28h-35.44c-2.35,0-4.6-0.93-6.26-2.6l-62.02-62.02l12.53-12.53l59.43,59.43h17.43l-46.75-93.5    l15.85-7.93l53.16,106.32c1.37,2.74,1.22,6.01-0.39,8.62C2461.87-1626.88,2459.02-1625.28,2455.95-1625.28z"
   id="path44" />
	</g>
</g>
<g
   id="g110">
	<g
   id="g52">
		<path
   class="st0"
   d="M3676.13-1621.3h-605.95l-50.68-44.38v-33.04h280.87l22.1,19.35h101.37l22.1-19.35h280.87v33.04    L3676.13-1621.3z M3079.33-1640.65h587.65l37.73-33.04v-5.67h-249.62l-22.1,19.35h-119.67l-22.1-19.35h-249.62v5.67    L3079.33-1640.65z"
   id="path50" />
	</g>
	<g
   id="g56">
		<path
   class="st0"
   d="M3085.8-1718.07h-22.1v-290.31c0-21.35,19.83-38.71,44.21-38.71h132.62v19.35h-132.62    c-12.19,0-22.1,8.69-22.1,19.35V-1718.07z"
   id="path54" />
	</g>
	<g
   id="g60">
		<path
   class="st0"
   d="M3682.6-1718.07h-22.1v-290.31c0-10.67-9.91-19.35-22.1-19.35h-132.62v-19.35h132.62    c24.38,0,44.21,17.36,44.21,38.71V-1718.07z"
   id="path58" />
	</g>
	<g
   id="g64">
		<polygon
   class="st0"
   points="3196.32,-1737.42 3107.91,-1737.42 3107.91,-2008.38 3262.63,-2008.38 3262.63,-1989.02     3130.01,-1989.02 3130.01,-1756.78 3196.32,-1756.78   "
   id="polygon62" />
	</g>
	<g
   id="g68">
		<rect
   x="3351.05"
   y="-1853.55"
   class="st0"
   width="77.36"
   height="19.35"
   id="rect66" />
	</g>
	<g
   id="g72">
		<rect
   x="3351.05"
   y="-2008.38"
   class="st0"
   width="77.36"
   height="19.35"
   id="rect70" />
	</g>
	<g
   id="g76">
		<polygon
   class="st0"
   points="3638.39,-1737.42 3218.42,-1737.42 3218.42,-1795.48 3527.88,-1795.48 3527.88,-1776.13     3240.53,-1776.13 3240.53,-1756.78 3616.29,-1756.78 3616.29,-1989.02 3483.67,-1989.02 3483.67,-2008.38 3638.39,-2008.38   "
   id="polygon74" />
	</g>
	<g
   id="g80">
		<polygon
   class="st0"
   points="3284.73,-1785.81 3262.63,-1785.81 3262.63,-1809.17 3306.84,-1847.88 3306.84,-1994.69     3262.63,-2033.4 3262.63,-2066.44 3317.89,-2066.44 3317.89,-2095.47 3339.99,-2095.47 3339.99,-2047.09 3284.73,-2047.09     3284.73,-2041.42 3328.94,-2002.71 3328.94,-1839.86 3284.73,-1801.15   "
   id="polygon78" />
	</g>
	<g
   id="g84">
		<polygon
   class="st0"
   points="3483.67,-1785.81 3461.56,-1785.81 3461.56,-1801.15 3417.36,-1839.86 3417.36,-2002.71     3461.56,-2041.42 3461.56,-2047.09 3362.1,-2047.09 3362.1,-2066.44 3483.67,-2066.44 3483.67,-2033.4 3439.46,-1994.69     3439.46,-1847.88 3483.67,-1809.17   "
   id="polygon82" />
	</g>
	<g
   id="g88">
		<rect
   x="3406.31"
   y="-2095.47"
   class="st0"
   width="22.1"
   height="38.71"
   id="rect86" />
	</g>
	<g
   id="g92">
		<polygon
   class="st0"
   points="3461.56,-2124.5 3395.25,-2124.5 3395.25,-2163.21 3351.05,-2163.21 3351.05,-2124.5     3284.73,-2124.5 3284.73,-2143.85 3328.94,-2143.85 3328.94,-2182.56 3417.36,-2182.56 3417.36,-2143.85 3461.56,-2143.85   "
   id="polygon90" />
	</g>
	<g
   id="g96">
		<polygon
   class="st0"
   points="3477.19,-2085.79 3269.11,-2085.79 3240.53,-2110.82 3240.53,-2182.56 3306.84,-2182.56     3306.84,-2163.21 3262.63,-2163.21 3262.63,-2118.83 3278.26,-2105.15 3468.04,-2105.15 3483.67,-2118.83 3483.67,-2163.21     3439.46,-2163.21 3439.46,-2182.56 3505.77,-2182.56 3505.77,-2110.82   "
   id="polygon94" />
	</g>
	<g
   id="g100">
		<rect
   x="3362.1"
   y="-1940.64"
   class="st0"
   width="22.1"
   height="19.35"
   id="rect98" />
	</g>
	<g
   id="g104">
		<rect
   x="3362.1"
   y="-1979.35"
   class="st0"
   width="22.1"
   height="19.35"
   id="rect102" />
	</g>
	<g
   id="g108">
		<rect
   x="3362.1"
   y="-1901.93"
   class="st0"
   width="22.1"
   height="19.35"
   id="rect106" />
	</g>
</g>
<g
   id="g198">
	<g
   id="g196">
		<g
   id="g114">
			<path
   class="st0"
   d="M4510.29-1895.31h-219.41c-4.85,0-8.78-3.93-8.78-8.78v-245.74c0-4.85,3.93-8.78,8.78-8.78h245.74     c4.85,0,8.78,3.93,8.78,8.78v219.41h-17.55v-210.63h-228.19v228.19h210.63V-1895.31z"
   id="path112" />
		</g>
		<g
   id="g118">
			<path
   class="st0"
   d="M4835.02-1895.31h-219.41v-17.55h210.63v-228.19h-228.19v210.63h-17.55v-219.41c0-4.85,3.93-8.78,8.78-8.78     h245.74c4.85,0,8.78,3.93,8.78,8.78v245.74C4843.8-1899.24,4839.87-1895.31,4835.02-1895.31z"
   id="path116" />
		</g>
		<g
   id="g122">
			<path
   class="st0"
   d="M4536.62-1596.91h-245.74c-4.85,0-8.78-3.93-8.78-8.78v-245.74c0-4.85,3.93-8.78,8.78-8.78h219.41v17.55     h-210.63v228.19h228.19v-210.63h17.55v219.41C4545.4-1600.84,4541.47-1596.91,4536.62-1596.91z"
   id="path120" />
		</g>
		<g
   id="g126">
			<path
   class="st0"
   d="M4835.02-1596.91h-245.74c-4.85,0-8.78-3.93-8.78-8.78v-219.41h17.55v210.63h228.19v-228.19h-210.63v-17.55     h219.41c4.85,0,8.78,3.93,8.78,8.78v245.74C4843.8-1600.84,4839.87-1596.91,4835.02-1596.91z"
   id="path124" />
		</g>
		<g
   id="g130">
			<path
   class="st0"
   d="M4483.96-2035.74h-26.33v-17.55h17.55v-35.11h-122.87v35.11h17.55v17.55h-26.33c-4.85,0-8.78-3.93-8.78-8.78     v-52.66c0-4.85,3.93-8.78,8.78-8.78h140.42c4.85,0,8.78,3.93,8.78,8.78v52.66C4492.74-2039.66,4488.81-2035.74,4483.96-2035.74z"
   id="path128" />
		</g>
		<g
   id="g134">
			<path
   class="st0"
   d="M4440.08-1956.75h-17.55v-105.32c0-4.85,3.93-8.78,8.78-8.78h26.33v17.55h-17.55V-1956.75z"
   id="path132" />
		</g>
		<g
   id="g138">
			<path
   class="st0"
   d="M4404.97-1956.75h-17.55v-96.54h-17.55v-17.55h26.33c4.85,0,8.78,3.93,8.78,8.78V-1956.75z"
   id="path136" />
		</g>
		<g
   id="g142">
			<rect
   x="4378.64"
   y="-1965.52"
   class="st0"
   width="70.21"
   height="17.55"
   id="rect140" />
		</g>
		<g
   id="g146">
			<path
   class="st0"
   d="M4749.83-1897.88l-99.11-99.11l-55.23,55.23l-12.41-12.41l61.44-61.44c3.43-3.43,8.98-3.43,12.41,0     l105.32,105.32L4749.83-1897.88z"
   id="path144" />
		</g>
		<g
   id="g150">
			<path
   class="st0"
   d="M4700.8-1959.32l-12.41-12.41l87.76-87.76c3.43-3.43,8.98-3.43,12.41,0l52.66,52.66l-12.41,12.41     l-46.45-46.45L4700.8-1959.32z"
   id="path148" />
		</g>
		<g
   id="g154">
			<path
   class="st0"
   d="M4694.6-2035.74c-19.36,0-35.11-15.74-35.11-35.11c0-19.36,15.74-35.11,35.11-35.11s35.11,15.74,35.11,35.11     C4729.7-2051.48,4713.96-2035.74,4694.6-2035.74z M4694.6-2088.39c-9.68,0-17.55,7.88-17.55,17.55s7.88,17.55,17.55,17.55     c9.68,0,17.55-7.88,17.55-17.55S4704.27-2088.39,4694.6-2088.39z"
   id="path152" />
		</g>
		<g
   id="g158">
			<rect
   x="4334.76"
   y="-1807.55"
   class="st0"
   width="157.98"
   height="17.55"
   id="rect156" />
		</g>
		<g
   id="g162">
			<rect
   x="4334.76"
   y="-1772.44"
   class="st0"
   width="157.98"
   height="17.55"
   id="rect160" />
		</g>
		<g
   id="g166">
			<rect
   x="4334.76"
   y="-1737.34"
   class="st0"
   width="157.98"
   height="17.55"
   id="rect164" />
		</g>
		<g
   id="g170">
			<rect
   x="4334.76"
   y="-1702.23"
   class="st0"
   width="157.98"
   height="17.55"
   id="rect168" />
		</g>
		<g
   id="g174">
			<rect
   x="4334.76"
   y="-1667.12"
   class="st0"
   width="87.76"
   height="17.55"
   id="rect172" />
		</g>
		<g
   id="g178">
			
				<rect
   x="4697.3"
   y="-1803.16"
   transform="matrix(0.7071 -0.7071 0.7071 0.7071 2668.2566 2852.9741)"
   class="st0"
   width="161.35"
   height="17.55"
   id="rect176" />
		</g>
		<g
   id="g182">
			<path
   class="st0"
   d="M4641.94-1649.57c-2.28,0-4.52-0.89-6.21-2.57c-2.57-2.57-3.29-6.45-1.82-9.77l35.11-78.99     c0.44-0.99,1.05-1.88,1.82-2.64l114.09-114.09l12.41,12.41l-112.94,112.95l-25.18,56.64l56.64-25.18l112.95-112.94l12.41,12.41     l-114.09,114.09c-0.76,0.76-1.65,1.38-2.64,1.82l-78.99,35.11C4644.35-1649.82,4643.15-1649.57,4641.94-1649.57z"
   id="path180" />
		</g>
		<g
   id="g186">
			
				<rect
   x="4690.21"
   y="-1746.42"
   transform="matrix(0.7071 -0.7071 0.7071 0.7071 2589.2686 2820.2561)"
   class="st0"
   width="17.55"
   height="62.06"
   id="rect184" />
		</g>
		<g
   id="g190">
			<rect
   x="4641.94"
   y="-1667.12"
   class="st0"
   width="149.2"
   height="17.55"
   id="rect188" />
		</g>
		<g
   id="g194">
			<path
   class="st0"
   d="M4589.28-1842.65h-52.66c-4.85,0-8.78-3.93-8.78-8.78v-52.66c0-4.85,3.93-8.78,8.78-8.78h52.66     c4.85,0,8.78,3.93,8.78,8.78v52.66C4598.06-1846.58,4594.13-1842.65,4589.28-1842.65z M4545.4-1860.21h35.11v-35.11h-35.11     V-1860.21z"
   id="path192" />
		</g>
	</g>
</g>
<g
   id="g250">
	<g
   id="g248">
		<g
   id="g228">
			<g
   id="g202">
				<path
   class="st0"
   d="M1011.65-1837.71c-55.21,0-100.13-44.91-100.13-100.13c0-55.21,44.91-100.13,100.13-100.13      c55.21,0,100.13,44.91,100.13,100.13C1111.77-1882.62,1066.86-1837.71,1011.65-1837.71z M1011.65-2017.94      c-44.17,0-80.1,35.93-80.1,80.1c0,44.17,35.93,80.1,80.1,80.1c44.17,0,80.1-35.93,80.1-80.1      C1091.75-1982,1055.81-2017.94,1011.65-2017.94z"
   id="path200" />
			</g>
			<g
   id="g226">
				<g
   id="g220">
					<g
   id="g206">
						<rect
   x="911.52"
   y="-1767.62"
   class="st0"
   width="200.25"
   height="20.03"
   id="rect204" />
					</g>
					<g
   id="g210">
						<rect
   x="911.52"
   y="-1727.57"
   class="st0"
   width="200.25"
   height="20.03"
   id="rect208" />
					</g>
					<g
   id="g214">
						<polygon
   class="st0"
   points="1037.03,-1637.46 986.26,-1637.46 966.24,-1667.5 911.52,-1667.5 911.52,-1687.52         976.96,-1687.52 996.98,-1657.48 1026.31,-1657.48 1046.34,-1687.52 1111.77,-1687.52 1111.77,-1667.5 1057.06,-1667.5               "
   id="polygon212" />
					</g>
					<g
   id="g218">
						<path
   class="st0"
   d="M1091.75-1677.51h-20.03v-136.94l6.29-2.52c45.53-18.21,73.81-64.52,73.81-120.86        c0-77.29-62.88-140.18-140.18-140.18c-77.29,0-140.18,62.88-140.18,140.18c0,56.34,28.28,102.66,73.81,120.86l6.29,2.52        v136.94h-20.03v-123.58c-49.59-22.89-80.1-74.63-80.1-136.75c0-88.33,71.87-160.2,160.2-160.2        c88.33,0,160.2,71.87,160.2,160.2c0,62.12-30.51,113.85-80.1,136.75V-1677.51z"
   id="path216" />
					</g>
				</g>
				<g
   id="g224">
					<polygon
   class="st0"
   points="1028.93,-1880.88 988.88,-1960.98 955.72,-1927.82 891.5,-1927.82 891.5,-1947.85        947.43,-1947.85 994.37,-1994.79 1034.42,-1914.69 1067.58,-1947.85 1131.8,-1947.85 1131.8,-1927.82 1075.87,-1927.82             "
   id="polygon222" />
				</g>
			</g>
		</g>
		<g
   id="g246">
			<g
   id="g232">
				<path
   class="st0"
   d="M730.73-1984.34l-18.72-7.11c46.94-123.64,167.36-206.71,299.65-206.71h24.17l-67.15,67.15l-14.16-14.16      l31.89-31.89C872.52-2167.31,771.72-2092.33,730.73-1984.34z"
   id="path230" />
			</g>
			<g
   id="g236">
				<path
   class="st0"
   d="M1332.05-1853.59l-67.15-67.15l14.16-14.16l31.89,31.89c-9.74-113.89-84.73-214.68-192.74-255.68      l7.11-18.72c123.65,46.93,206.74,167.35,206.74,299.65V-1853.59z"
   id="path234" />
			</g>
			<g
   id="g240">
				<path
   class="st0"
   d="M1011.65-1557.36h-24.17l67.16-67.15l14.16,14.16l-31.89,31.89c113.87-9.74,214.67-84.72,255.67-192.71      l18.72,7.11C1264.35-1640.43,1143.94-1557.36,1011.65-1557.36z"
   id="path238" />
			</g>
			<g
   id="g244">
				<path
   class="st0"
   d="M897.93-1578.13c-123.62-46.95-206.68-167.36-206.68-299.63v-24.17l67.15,67.15l-14.16,14.16l-31.89-31.89      c9.74,113.86,84.71,214.66,192.68,255.66L897.93-1578.13z"
   id="path242" />
			</g>
		</g>
	</g>
</g>
<g
   id="g290">
	<g
   id="g288">
		<g
   id="g254">
			<path
   class="st0"
   d="M95.86-1660.41c-1.02,0-2.05-0.15-3.04-0.45l-538.2-165.6c-5.46-1.69-8.53-7.48-6.85-12.94     c1.67-5.47,7.49-8.54,12.93-6.85l524.81,161.49v-365.28l-524.81,161.49c-5.44,1.67-11.26-1.4-12.93-6.85     c-1.68-5.46,1.38-11.25,6.85-12.94l538.2-165.6c3.12-0.95,6.54-0.38,9.19,1.57c2.64,1.95,4.2,5.04,4.2,8.33v393.3     c0,3.29-1.56,6.38-4.2,8.33C100.21-1661.11,98.05-1660.41,95.86-1660.41z"
   id="path252" />
		</g>
		<g
   id="g258">
			<path
   class="st0"
   d="M-463.04-1805.31c-17.12,0-31.05-13.93-31.05-31.05v-62.1c0-17.12,13.93-31.05,31.05-31.05     s31.05,13.93,31.05,31.05v62.1C-431.99-1819.24-445.91-1805.31-463.04-1805.31z M-463.04-1908.81c-5.71,0-10.35,4.64-10.35,10.35     v62.1c0,5.71,4.64,10.35,10.35,10.35c5.71,0,10.35-4.64,10.35-10.35v-62.1C-452.69-1904.17-457.33-1908.81-463.04-1908.81z"
   id="path256" />
		</g>
		<g
   id="g262">
			<path
   class="st0"
   d="M126.91-1629.36c-22.83,0-41.4-18.57-41.4-41.4v-393.3c0-22.83,18.57-41.4,41.4-41.4     c22.83,0,41.4,18.57,41.4,41.4v393.3C168.31-1647.93,149.74-1629.36,126.91-1629.36z M126.91-2084.76     c-11.42,0-20.7,9.29-20.7,20.7v393.3c0,11.41,9.28,20.7,20.7,20.7s20.7-9.29,20.7-20.7v-393.3     C147.61-2075.47,138.33-2084.76,126.91-2084.76z"
   id="path260" />
		</g>
		<g
   id="g266">
			<rect
   x="-59.39"
   y="-1877.76"
   class="st0"
   width="20.7"
   height="20.7"
   id="rect264" />
		</g>
		<g
   id="g270">
			<rect
   x="-17.99"
   y="-1877.76"
   class="st0"
   width="20.7"
   height="20.7"
   id="rect268" />
		</g>
		<g
   id="g274">
			<rect
   x="23.41"
   y="-1877.76"
   class="st0"
   width="20.7"
   height="20.7"
   id="rect272" />
		</g>
		<g
   id="g278">
			<path
   class="st0"
   d="M-214.64-1691.46c-1.25,0-2.51-0.22-3.71-0.69l-134.55-51.75c-4-1.54-6.64-5.38-6.64-9.66v-51.75h20.7v44.64     l113.85,43.78v-47.03h20.7v62.1c0,3.41-1.68,6.6-4.49,8.53C-210.53-1692.08-212.57-1691.46-214.64-1691.46z"
   id="path276" />
		</g>
		<g
   id="g282">
			<path
   class="st0"
   d="M-173.24-1629.36c-1.24,0-2.49-0.22-3.68-0.68l-217.35-82.8c-4.01-1.53-6.67-5.38-6.67-9.67v-93.15h20.7     v86.01l196.65,74.92v-98.83h20.7v113.85c0,3.41-1.67,6.59-4.48,8.52C-169.11-1629.98-171.17-1629.36-173.24-1629.36z"
   id="path280" />
		</g>
		<g
   id="g286">
			<rect
   x="-121.49"
   y="-2001.96"
   class="st0"
   width="20.7"
   height="269.1"
   id="rect284" />
		</g>
	</g>
</g>
<g
   id="g326">
	<path
   class="st1"
   d="M-615.97,865.2h40.54v11.88h-26.71v7.63h24.19v11.02h-24.19v7.99h27.07v11.88h-40.9V865.2z"
   id="path292" />
	<path
   class="st1"
   d="M-571.98,865.2h15.63l11.45,31.9l11.45-31.9h15.34l-20.45,50.76h-12.96L-571.98,865.2z"
   id="path294" />
	<path
   class="st1"
   d="M-513.23,865.2h40.54v11.88h-26.71v7.63h24.19v11.02h-24.19v7.99h27.07v11.88h-40.9V865.2z"
   id="path296" />
	<path
   class="st1"
   d="M-465.2,865.2h13.03l20.74,26.64V865.2h13.83v50.4h-12.24l-21.53-27.65v27.65h-13.83V865.2z"
   id="path298" />
	<path
   class="st1"
   d="M-396.37,877.44h-15.12V865.2h44.21v12.24h-15.12v38.16h-13.97V877.44z"
   id="path300" />
	<path
   class="st1"
   d="M-365.05,890.54v-0.14c0-14.47,11.67-26.21,27.22-26.21c15.55,0,27.07,11.59,27.07,26.07v0.14   c0,14.47-11.67,26.21-27.22,26.21C-353.53,916.61-365.05,905.02-365.05,890.54z M-325.02,890.54v-0.14   c0-7.27-5.26-13.61-12.96-13.61c-7.63,0-12.75,6.19-12.75,13.46v0.14c0,7.27,5.26,13.61,12.89,13.61   C-330.13,904.01-325.02,897.82-325.02,890.54z"
   id="path302" />
	<path
   class="st1"
   d="M-307.67,908.11l7.78-9.29c4.97,3.96,10.51,6.05,16.34,6.05c3.75,0,5.76-1.3,5.76-3.46v-0.14   c0-2.09-1.66-3.24-8.5-4.82c-10.73-2.45-19.01-5.47-19.01-15.84v-0.14c0-9.36,7.42-16.13,19.51-16.13c8.57,0,15.26,2.3,20.74,6.7   l-6.98,9.87c-4.61-3.24-9.65-4.97-14.11-4.97c-3.38,0-5.04,1.44-5.04,3.24v0.14c0,2.3,1.73,3.31,8.71,4.9   c11.59,2.52,18.79,6.26,18.79,15.7v0.14c0,10.3-8.14,16.42-20.38,16.42C-292.98,916.47-301.47,913.66-307.67,908.11z"
   id="path304" />
	<path
   class="st1"
   d="M-236.96,865.2h40.54v11.88h-26.71v7.63h24.19v11.02h-24.19v7.99h27.07v11.88h-40.9V865.2z"
   id="path306" />
	<path
   class="st1"
   d="M-169,865.2h21.6c12.75,0,20.95,6.55,20.95,17.71v0.14c0,11.88-9.15,18.15-21.67,18.15h-6.91v14.4H-169V865.2z    M-148.4,890.26c4.97,0,7.99-2.59,7.99-6.55v-0.14c0-4.32-3.02-6.62-8.06-6.62h-6.55v13.32H-148.4z"
   id="path308" />
	<path
   class="st1"
   d="M-120.54,865.2h23.83c7.7,0,13.03,2.02,16.42,5.47c2.95,2.88,4.46,6.77,4.46,11.74v0.14   c0,7.7-4.1,12.82-10.37,15.48l12.02,17.57H-90.3l-10.15-15.27h-0.14h-5.98v15.27h-13.97V865.2z M-97.36,889.39   c4.75,0,7.49-2.3,7.49-5.98v-0.14c0-3.96-2.88-5.98-7.56-5.98h-9.14v12.1H-97.36z"
   id="path310" />
	<path
   class="st1"
   d="M-70.5,890.54v-0.14c0-14.47,11.67-26.21,27.22-26.21c15.55,0,27.07,11.59,27.07,26.07v0.14   c0,14.47-11.67,26.21-27.22,26.21S-70.5,905.02-70.5,890.54z M-30.47,890.54v-0.14c0-7.27-5.26-13.61-12.96-13.61   c-7.63,0-12.75,6.19-12.75,13.46v0.14c0,7.27,5.26,13.61,12.89,13.61C-35.58,904.01-30.47,897.82-30.47,890.54z"
   id="path312" />
	<path
   class="st1"
   d="M-8.94,865.2H5.82l12.03,19.51l12.02-19.51h14.76v50.4h-13.9v-28.95l-12.89,19.73h-0.29L4.74,886.8v28.8H-8.94   V865.2z"
   id="path314" />
	<path
   class="st1"
   d="M51.82,890.54v-0.14c0-14.47,11.67-26.21,27.22-26.21c15.55,0,27.07,11.59,27.07,26.07v0.14   c0,14.47-11.67,26.21-27.22,26.21S51.82,905.02,51.82,890.54z M91.86,890.54v-0.14c0-7.27-5.26-13.61-12.96-13.61   c-7.63,0-12.75,6.19-12.75,13.46v0.14c0,7.27,5.26,13.61,12.89,13.61C86.75,904.01,91.86,897.82,91.86,890.54z"
   id="path316" />
	<path
   class="st1"
   d="M125.48,923.45l5.62-7.63c-11.23-2.81-19.44-12.6-19.44-25.27v-0.14c0-14.69,11.3-26.21,26.57-26.21   c10.3,0,16.92,4.32,21.39,10.51l-10.51,8.14c-2.88-3.6-6.19-5.9-11.02-5.9c-7.06,0-12.02,5.98-12.02,13.32v0.14   c0,7.56,4.97,13.46,12.02,13.46c5.26,0,8.35-2.45,11.38-6.12l10.51,7.49c-4.32,5.98-10.08,10.44-19.59,11.23l-4.03,11.59   L125.48,923.45z"
   id="path318" />
	<path
   class="st1"
   d="M164.22,890.54v-0.14c0-14.47,11.67-26.21,27.22-26.21c15.55,0,27.08,11.59,27.08,26.07v0.14   c0,14.47-11.67,26.21-27.22,26.21S164.22,905.02,164.22,890.54z M176.24,860.52c1.51-7.13,3.96-10.73,8.93-10.73   c4.32,0,8.93,2.81,11.23,2.81c2.02,0,2.74-1.08,3.67-3.31l6.55,1.8c-1.51,7.13-3.96,10.73-8.93,10.73c-4.32,0-8.93-2.81-11.23-2.81   c-2.02,0-2.74,1.08-3.67,3.31L176.24,860.52z M204.25,890.54v-0.14c0-7.27-5.26-13.61-12.96-13.61c-7.63,0-12.75,6.19-12.75,13.46   v0.14c0,7.27,5.26,13.61,12.89,13.61C199.14,904.01,204.25,897.82,204.25,890.54z"
   id="path320" />
	<path
   class="st1"
   d="M225.78,865.2h40.54v11.88H239.6v7.63h24.19v11.02H239.6v7.99h27.07v11.88h-40.9V865.2z"
   id="path322" />
	<path
   class="st1"
   d="M269.98,908.11l7.78-9.29c4.97,3.96,10.51,6.05,16.35,6.05c3.74,0,5.76-1.3,5.76-3.46v-0.14   c0-2.09-1.66-3.24-8.5-4.82c-10.73-2.45-19.01-5.47-19.01-15.84v-0.14c0-9.36,7.42-16.13,19.51-16.13c8.57,0,15.27,2.3,20.74,6.7   l-6.98,9.87c-4.61-3.24-9.65-4.97-14.11-4.97c-3.38,0-5.04,1.44-5.04,3.24v0.14c0,2.3,1.73,3.31,8.71,4.9   c11.59,2.52,18.79,6.26,18.79,15.7v0.14c0,10.3-8.14,16.42-20.38,16.42C284.67,916.47,276.18,913.66,269.98,908.11z"
   id="path324" />
</g>
<g
   id="g356">
	<path
   class="st1"
   d="M678.56,865.2h19.44c18,0,28.44,10.37,28.44,24.91v0.14c0,14.55-10.58,25.35-28.73,25.35h-19.15V865.2z    M698.22,903.22c8.35,0,13.9-4.61,13.9-12.75v-0.14c0-8.06-5.54-12.75-13.9-12.75h-5.69v25.63H698.22z"
   id="path328" />
	<path
   class="st1"
   d="M733.64,865.2h40.54v11.88h-26.71v7.63h24.19v11.02h-24.19v7.99h27.07v11.88h-40.9V865.2z"
   id="path330" />
	<path
   class="st1"
   d="M777.85,908.11l7.78-9.29c4.97,3.96,10.51,6.05,16.34,6.05c3.75,0,5.76-1.3,5.76-3.46v-0.14   c0-2.09-1.66-3.24-8.5-4.82c-10.73-2.45-19.01-5.47-19.01-15.84v-0.14c0-9.36,7.42-16.13,19.51-16.13c8.57,0,15.26,2.3,20.74,6.7   l-6.98,9.87c-4.61-3.24-9.65-4.97-14.11-4.97c-3.38,0-5.04,1.44-5.04,3.24v0.14c0,2.3,1.73,3.31,8.71,4.9   c11.59,2.52,18.79,6.26,18.79,15.7v0.14c0,10.3-8.14,16.42-20.38,16.42C792.54,916.47,784.04,913.66,777.85,908.11z"
   id="path332" />
	<path
   class="st1"
   d="M828.61,865.2h40.54v11.88h-26.71v7.63h24.19v11.02h-24.19v7.99h27.07v11.88h-40.9V865.2z"
   id="path334" />
	<path
   class="st1"
   d="M876.63,865.2h13.03l20.74,26.64V865.2h13.83v50.4h-12.24l-21.53-27.65v27.65h-13.83V865.2z"
   id="path336" />
	<path
   class="st1"
   d="M929.12,865.2h15.63l11.45,31.9l11.45-31.9h15.34l-20.45,50.76h-12.96L929.12,865.2z"
   id="path338" />
	<path
   class="st1"
   d="M982.9,890.54v-0.14c0-14.47,11.67-26.21,27.22-26.21c15.55,0,27.07,11.59,27.07,26.07v0.14   c0,14.47-11.67,26.21-27.22,26.21C994.43,916.61,982.9,905.02,982.9,890.54z M1022.94,890.54v-0.14c0-7.27-5.26-13.61-12.96-13.61   c-7.63,0-12.75,6.19-12.75,13.46v0.14c0,7.27,5.26,13.61,12.89,13.61C1017.83,904.01,1022.94,897.82,1022.94,890.54z"
   id="path340" />
	<path
   class="st1"
   d="M1044.47,865.2h13.97v38.16h24.41v12.24h-38.38V865.2z"
   id="path342" />
	<path
   class="st1"
   d="M1089.1,865.2h14.04v50.4h-14.04V865.2z"
   id="path344" />
	<path
   class="st1"
   d="M1112.36,865.2h14.76l12.03,19.51l12.02-19.51h14.76v50.4h-13.9v-28.95l-12.89,19.73h-0.29l-12.82-19.59v28.8   h-13.68V865.2z"
   id="path346" />
	<path
   class="st1"
   d="M1174.86,865.2h40.54v11.88h-26.71v7.63h24.19v11.02h-24.19v7.99h27.07v11.88h-40.9V865.2z"
   id="path348" />
	<path
   class="st1"
   d="M1222.88,865.2h13.03l20.74,26.64V865.2h13.83v50.4h-12.24l-21.53-27.65v27.65h-13.83V865.2z"
   id="path350" />
	<path
   class="st1"
   d="M1291.71,877.44h-15.12V865.2h44.21v12.24h-15.12v38.16h-13.97V877.44z"
   id="path352" />
	<path
   class="st1"
   d="M1323.03,890.54v-0.14c0-14.47,11.67-26.21,27.22-26.21c15.55,0,27.07,11.59,27.07,26.07v0.14   c0,14.47-11.67,26.21-27.22,26.21S1323.03,905.02,1323.03,890.54z M1363.07,890.54v-0.14c0-7.27-5.26-13.61-12.96-13.61   c-7.63,0-12.75,6.19-12.75,13.46v0.14c0,7.27,5.26,13.61,12.89,13.61C1357.95,904.01,1363.07,897.82,1363.07,890.54z"
   id="path354" />
</g>
<g
   id="g384">
	<path
   class="st1"
   d="M1887.15,865.2h13.97v38.16h24.41v12.24h-38.38V865.2z"
   id="path358" />
	<path
   class="st1"
   d="M1931.79,865.2h14.04v50.4h-14.04V865.2z"
   id="path360" />
	<path
   class="st1"
   d="M1951.01,865.2h15.63l11.45,31.9l11.45-31.9h15.34l-20.45,50.76h-12.96L1951.01,865.2z"
   id="path362" />
	<path
   class="st1"
   d="M2009.76,865.2h40.54v11.88h-26.71v7.63h24.19v11.02h-24.19v7.99h27.07v11.88h-40.9V865.2z"
   id="path364" />
	<path
   class="st1"
   d="M2077.73,865.2h14.76l12.03,19.51l12.03-19.51h14.76v50.4h-13.9v-28.95l-12.89,19.73h-0.29l-12.82-19.59v28.8   h-13.68V865.2z"
   id="path366" />
	<path
   class="st1"
   d="M2157.65,864.84h13.47l21.46,50.76h-14.98l-3.67-9h-19.44l-3.6,9h-14.69L2157.65,864.84z M2169.89,895.73   l-5.62-14.33l-5.69,14.33H2169.89z"
   id="path368" />
	<path
   class="st1"
   d="M2197.47,865.2h23.83c7.7,0,13.03,2.02,16.42,5.47c2.95,2.88,4.46,6.77,4.46,11.74v0.14   c0,7.7-4.1,12.82-10.37,15.48l12.03,17.57h-16.13l-10.15-15.27h-0.14h-5.98v15.27h-13.97V865.2z M2220.65,889.39   c4.75,0,7.49-2.3,7.49-5.98v-0.14c0-3.96-2.88-5.98-7.56-5.98h-9.14v12.1H2220.65z"
   id="path370" />
	<path
   class="st1"
   d="M2249.24,865.2h13.97v20.45l17.35-20.45h16.56l-19.08,21.67l19.73,28.73h-16.78l-12.67-18.72l-5.11,5.69v13.03   h-13.97V865.2z"
   id="path372" />
	<path
   class="st1"
   d="M2301.79,865.2h40.54v11.88h-26.71v7.63h24.19v11.02h-24.19v7.99h27.07v11.88h-40.9V865.2z"
   id="path374" />
	<path
   class="st1"
   d="M2362.13,877.44h-15.12V865.2h44.21v12.24h-15.12v38.16h-13.97V877.44z"
   id="path376" />
	<path
   class="st1"
   d="M2397.62,865.2h14.04v50.4h-14.04V865.2z"
   id="path378" />
	<path
   class="st1"
   d="M2420.88,865.2h13.03l20.74,26.64V865.2h13.83v50.4h-12.24l-21.53-27.65v27.65h-13.82V865.2z"
   id="path380" />
	<path
   class="st1"
   d="M2475.67,890.54v-0.14c0-14.69,11.52-26.21,27.15-26.21c8.86,0,15.12,2.74,20.45,7.34l-8.21,9.86   c-3.6-3.02-7.2-4.75-12.17-4.75c-7.27,0-12.89,6.12-12.89,13.83v0.14c0,8.14,5.69,13.97,13.68,13.97c3.38,0,5.98-0.72,8.06-2.09   v-6.12h-9.94v-10.22H2525v22.68c-5.33,4.39-12.75,7.78-21.89,7.78C2487.41,916.61,2475.67,905.81,2475.67,890.54z"
   id="path382" />
</g>
<g
   id="g400">
	<path
   class="st1"
   d="M3249.08,865.2h19.44c18,0,28.44,10.37,28.44,24.91v0.14c0,14.55-10.58,25.35-28.73,25.35h-19.15V865.2z    M3268.74,903.22c8.35,0,13.9-4.61,13.9-12.75v-0.14c0-8.06-5.54-12.75-13.9-12.75h-5.69v25.63H3268.74z"
   id="path386" />
	<path
   class="st1"
   d="M3304.45,865.2h14.04v50.4h-14.04V865.2z"
   id="path388" />
	<path
   class="st1"
   d="M3325.98,890.54v-0.14c0-14.69,11.52-26.21,27.15-26.21c8.86,0,15.12,2.74,20.45,7.34l-8.21,9.86   c-3.6-3.02-7.2-4.75-12.17-4.75c-7.27,0-12.89,6.12-12.89,13.83v0.14c0,8.14,5.69,13.97,13.68,13.97c3.38,0,5.98-0.72,8.06-2.09   v-6.12h-9.94v-10.22h23.19v22.68c-5.33,4.39-12.75,7.78-21.89,7.78C3337.71,916.61,3325.98,905.81,3325.98,890.54z"
   id="path390" />
	<path
   class="st1"
   d="M3383.36,865.2h14.04v50.4h-14.04V865.2z"
   id="path392" />
	<path
   class="st1"
   d="M3418.93,877.44h-15.12V865.2h44.21v12.24h-15.12v38.16h-13.97V877.44z"
   id="path394" />
	<path
   class="st1"
   d="M3465.08,864.84h13.47L3500,915.6h-14.98l-3.67-9h-19.44l-3.6,9h-14.69L3465.08,864.84z M3477.32,895.73   l-5.62-14.33l-5.69,14.33H3477.32z"
   id="path396" />
	<path
   class="st1"
   d="M3504.9,865.2h13.97v38.16h24.41v12.24h-38.38V865.2z"
   id="path398" />
</g>
<g
   id="g418">
	<path
   class="st1"
   d="M4367.02,853.46h25.85c6.34,0,10.8,1.58,13.75,4.54c2.02,2.02,3.24,4.68,3.24,8.14v0.14   c0,5.83-3.31,9.29-7.78,11.23c6.12,2.02,10.01,5.47,10.01,12.31v0.14c0,8.64-7.06,13.9-19.08,13.9h-25.99V853.46z M4389.42,873.55   c4.25,0,6.62-1.44,6.62-4.39v-0.14c0-2.74-2.16-4.32-6.34-4.32h-9.07v8.86H4389.42z M4391.43,892.63c4.25,0,6.7-1.66,6.7-4.61   v-0.14c0-2.74-2.16-4.54-6.84-4.54h-10.66v9.29H4391.43z"
   id="path402" />
	<path
   class="st1"
   d="M4418.5,853.46h23.83c7.71,0,13.03,2.02,16.42,5.47c2.95,2.88,4.46,6.77,4.46,11.74v0.14   c0,7.7-4.1,12.82-10.37,15.48l12.02,17.57h-16.13l-10.15-15.27h-0.14h-5.98v15.27h-13.97V853.46z M4441.69,877.65   c4.75,0,7.49-2.3,7.49-5.98v-0.14c0-3.96-2.88-5.98-7.56-5.98h-9.15v12.1H4441.69z"
   id="path404" />
	<path
   class="st1"
   d="M4486.83,853.1h13.46l21.46,50.76h-14.98l-3.67-9h-19.44l-3.6,9h-14.69L4486.83,853.1z M4499.07,883.99   l-5.62-14.33l-5.69,14.33H4499.07z"
   id="path406" />
	<path
   class="st1"
   d="M4526.65,853.46h13.03l20.74,26.64v-26.64h13.82v50.4H4562l-21.53-27.65v27.65h-13.83V853.46z"
   id="path408" />
	<path
   class="st1"
   d="M4583.17,853.46h19.44c18,0,28.44,10.37,28.44,24.91v0.14c0,14.55-10.59,25.35-28.73,25.35h-19.15V853.46z    M4602.82,891.48c8.35,0,13.9-4.61,13.9-12.75v-0.14c0-8.06-5.54-12.75-13.9-12.75h-5.69v25.63H4602.82z"
   id="path410" />
	<path
   class="st1"
   d="M4638.53,853.46h14.04v50.4h-14.04V853.46z"
   id="path412" />
	<path
   class="st1"
   d="M4661.79,853.46h13.03l20.74,26.64v-26.64h13.83v50.4h-12.24l-21.53-27.65v27.65h-13.82V853.46z"
   id="path414" />
	<path
   class="st1"
   d="M4716.58,878.8v-0.14c0-14.69,11.52-26.21,27.15-26.21c8.86,0,15.12,2.74,20.45,7.34l-8.21,9.86   c-3.6-3.02-7.2-4.75-12.17-4.75c-7.27,0-12.89,6.12-12.89,13.83v0.14c0,8.14,5.69,13.97,13.68,13.97c3.38,0,5.98-0.72,8.06-2.09   v-6.12h-9.94v-10.22h23.19v22.68c-5.33,4.39-12.75,7.78-21.89,7.78C4728.32,904.87,4716.58,894.07,4716.58,878.8z"
   id="path416" />
</g>
<g
   id="g424">
	<path
   class="st2"
   d="M933.09,224.17l-29.21,143.3l124.53,43.01l123.89-41.72l-29.53-146.35l44.29-48.78l-67.4-76.39l-71.25,31.45   l-71.89-31.45l-69.65,76.39L933.09,224.17z M1028.41,389.29l-48.62-16.37l48.62-33.22l47.18,33.22L1028.41,389.29z M960.03,122.59   l68.35,26.96l65.44-26.96l46.16,50.07l-39.6,44.29l28.64,139.61l-30.11,5.78l-64.93-42.36v-39.16l45.03-25.83l-8.24-66.92h28.21   v-20h-54.53l10.91,77h-56.49l14.12-77h-65.47l3.85,20h34.66l-13.48,68.36l43.33,25.76l1.93,40.08l-61.62,40.26l-26.96-5.87   l26.96-140.62l-39.48-44.31L960.03,122.59z"
   id="path420" />
	<path
   class="st2"
   d="M1318.98,179.96l-93-52.23V39.3l-117.9-67l-78.7,44.44L950.76-27.7l-117.77,67v88.43l-92,52.23v133.19   l92,52.91v90.39l123.48,63.78l72.88-41.73l73.01,41.73l123.63-63.78v-90.39l93-52.91V179.96z M1108.18-5.57l98.8,56.06v66.35   l-157.71-89.05L1108.18-5.57z M1206.98,138.96v215.93l-177,101.42l-177-101.42V138.96l177-100.11L1206.98,138.96z M852.98,50.5   l98.14-56.06l59.24,33.36l-157.38,89.05V50.5z M759.98,301.98V191.2l73-41.35v194.02L759.98,301.98z M956.36,498.31l-103.38-53.59   v-67.64l157.58,90.32L956.36,498.31z M1206.98,444.72l-104.04,53.59l-53.87-30.91l157.91-90.32V444.72z M1298.98,301.98l-73,41.89   V149.85l73,41.35V301.98z"
   id="path422" />
</g>
<path
   class="st2"
   d="M3062.03-2.27l-225,129.08V385.1l225,129.08l225-129.08V126.81L3062.03-2.27z M3268.03,240.74l-117.4-126.57  l43.09-19.41l74.32,43.22V240.74z M3181.39,424.98l-109.35,61.49v-77.22l97.54-32.51L3181.39,424.98z M2955.78,375.27l96.25,34.07  v77.14l-108.31-62.74L2955.78,375.27z M3066.21,391.4l-48.62-16.37l48.62-33.22l47.18,33.22L3066.21,391.4z M3139.44,225.16  l-0.75,0.17l9.29,41.49l18.84,91.84l-31.99,5.78l-66.81-42.37v-39.16l46.91-28.04l-6.37-69.12h24.45v-19h-50.77l10.91,77h-56.49  l14.12-77h-65.47l3.85,19h34.66l-13.48,70.56l43.33,26.86l1.93,40.63L2994,364.34l-26.96-5.73L2994,218.06l-39.48-44.28l5.25-5.94  l41.22-41.92l31.47,12.42l32.27,14.54l23.11-10.15l43.79-18.04l46.16,50.07l-39.6,44.29L3139.44,225.16z M3137.82,99.74l-0.36-0.41  l-61.37,27.09l42.87-76.42l57.32,32.84L3137.82,99.74z M2994.32,99.34l-0.45,0.5l-37.44-16.87l57.27-32.81l39.16,74.8L2994.32,99.34  z M3102.25,40.44l-37.19,66.3l-34.64-66.17l36.03-20.64L3102.25,40.44z M2933.6,94.79l45.52,20.02l-55,60.92l-1.76,0.17  l-66.34,65.52V137.97L2933.6,94.79z M2856.03,268.89l79.63-78.76l34.14,36.14l-8.79,45.81l-33.64,141.64l-71.34-39.78V268.89z   M3198.66,414.97l-18.06-85.62l-20.59-104.84l32.38-37.82l75.64,82.09v105.17L3198.66,414.97z"
   id="path426" />
<g
   id="g438">
	<path
   class="st2"
   d="M2682.67,215.72V97.09c15-4.12,23.02-16.59,23.02-31.29c0-18.05-14.73-32.74-32.78-32.74   s-33.04,14.69-33.04,32.74c0,14.7,11.81,27.16,22.81,31.29v111.5l-35.28,41.35l14.78,60.32c-10.45,5.48-17.53,16.41-17.53,29   c0,18.05,14.72,32.74,32.77,32.74s32.75-14.69,32.75-32.74c0-16.75-12.65-30.58-28.89-32.49l-12.47-51.76L2682.67,215.72z    M2672.86,52.32c7.43,0,13.48,6.05,13.48,13.48c0,7.43-6.05,13.48-13.48,13.48c-7.43,0-13.48-6.05-13.48-13.48   C2659.38,58.37,2665.43,52.32,2672.86,52.32z M2670.94,339.25c0,7.43-6.05,13.48-13.48,13.48s-13.48-6.05-13.48-13.48   c0-7.43,6.05-13.48,13.48-13.48S2670.94,331.82,2670.94,339.25z"
   id="path428" />
	<path
   class="st2"
   d="M2239.03,380.52l38.53-172.78l-45.88-45.78V16.21c15-4.12,23.21-16.59,23.21-31.29   c0-18.05-14.64-32.74-32.69-32.74s-32.69,14.69-32.69,32.74c0,14.7,11.16,27.16,23.16,31.29v153.71l43.91,43.94l-36.25,162.07   c-17.15,1.01-30.81,15.24-30.81,32.64c0,18.05,14.68,32.74,32.73,32.74c18.05,0,32.74-14.69,32.74-32.74   C2254.99,396.66,2248.57,386.24,2239.03,380.52z M2222.25-28.56c7.43,0,13.48,6.05,13.48,13.48s-6.05,13.48-13.48,13.48   s-13.48-6.05-13.48-13.48S2214.82-28.56,2222.25-28.56z M2222.25,422.05c-7.43,0-13.48-6.05-13.48-13.48   c0-7.43,6.05-13.48,13.48-13.48s13.48,6.05,13.48,13.48C2235.73,416,2229.68,422.05,2222.25,422.05z"
   id="path430" />
	<path
   class="st2"
   d="M2543.67,440.4V323.84l-29.93-143.63l44.33-48.58l-0.1,0.05h0.7V-49.26c16-4.12,23.39-16.59,23.39-31.29   c0-18.05-14.54-32.74-32.59-32.74s-32.82,14.69-32.82,32.74c0,14.7,12.02,27.16,23.02,31.29v160.15l-42-48.01v-73.63   c15-4.12,23.08-16.59,23.08-31.29c0-18.05-14.7-32.74-32.75-32.74c-18.05,0-33.09,14.69-33.09,32.74   c0,14.7,11.76,27.16,22.76,31.29V60.5l-50,22.1V23.91c16-4.12,23.42-16.59,23.42-31.29c0-18.05-14.53-32.74-32.58-32.74   s-32.84,14.69-32.84,32.74c0,14.7,12,27.16,23,31.29v58.03l-50-21.9v-70.79c16-4.12,23.26-16.59,23.26-31.29   c0-18.05-14.61-32.74-32.66-32.74s-32.72,14.69-32.72,32.74c0,14.7,11.12,27.16,23.12,31.29v74.42l-43,46.46V-49.26   c16-4.12,23.45-16.59,23.45-31.29c0-18.05-14.52-32.74-32.57-32.74s-32.86,14.69-32.86,32.74c0,14.7,11.98,27.16,22.98,31.29   v180.51l0.04,0.18l46.32,50.55l-29.15,143.3l2.44,113.62c-13.37,4.12-23.1,16.59-23.1,31.29c0,18.05,14.69,32.74,32.74,32.74   s32.77-14.69,32.77-32.74c0-14.7-8.07-27.16-23.07-31.29V332.77l42,14.63v49.14c-11,4.12-22.96,16.59-22.96,31.29   c0,18.05,14.76,32.74,32.81,32.74s32.5-14.69,32.5-32.74c0-14.7-7.35-27.16-23.35-31.29v-42.49l31,10.64v143.54   c-11,4.12-22.92,16.59-22.92,31.29c0,18.05,14.78,32.74,32.83,32.74s32.47-14.69,32.47-32.74c0-14.7-7.37-27.16-23.37-31.29V365.32   l31-10.38v41.6c-11,4.12-22.89,16.59-22.89,31.29c0,18.05,14.8,32.74,32.85,32.74c18.05,0,32.44-14.69,32.44-32.74   c0-14.7-7.4-27.16-23.4-31.29v-48.09l47-15.57V438c-16,2.74-27.01,16.12-27.01,32.19c0,18.05,14.66,32.74,32.71,32.74   s32.64-14.69,32.64-32.74C2563.03,456.95,2555.67,445.55,2543.67,440.4z M2549.62-94.03c7.43,0,13.48,6.05,13.48,13.48   s-6.05,13.48-13.48,13.48s-13.48-6.05-13.48-13.48S2542.19-94.03,2549.62-94.03z M2287.72-94.03c7.43,0,13.48,6.05,13.48,13.48   s-6.05,13.48-13.48,13.48s-13.48-6.05-13.48-13.48S2280.29-94.03,2287.72-94.03z M2306.98,483.67c-7.43,0-13.48-6.05-13.48-13.48   c0-7.43,6.05-13.48,13.48-13.48c7.43,0,13.48,6.05,13.48,13.48C2320.46,477.63,2314.41,483.67,2306.98,483.67z M2368.6,441.31   c-7.43,0-13.48-6.05-13.48-13.48c0-7.43,6.05-13.48,13.48-13.48c7.43,0,13.48,6.05,13.48,13.48   C2382.08,435.26,2376.03,441.31,2368.6,441.31z M2468.74,441.31c-7.43,0-13.48-6.05-13.48-13.48c0-7.43,6.05-13.48,13.48-13.48   c7.43,0,13.48,6.05,13.48,13.48C2482.22,435.26,2476.17,441.31,2468.74,441.31z M2488-55.52c7.43,0,13.48,6.05,13.48,13.48   c0,7.43-6.05,13.48-13.48,13.48s-13.48-6.05-13.48-13.48C2474.52-49.47,2480.56-55.52,2488-55.52z M2418.67-20.85   c7.43,0,13.48,6.05,13.48,13.48c0,7.43-6.05,13.48-13.48,13.48s-13.48-6.05-13.48-13.48C2405.19-14.81,2411.24-20.85,2418.67-20.85   z M2349.35-55.52c7.43,0,13.48,6.05,13.48,13.48c0,7.43-6.05,13.48-13.48,13.48c-7.43,0-13.48-6.05-13.48-13.48   C2335.87-49.47,2341.91-55.52,2349.35-55.52z M2418.67,553c-7.43,0-13.48-6.05-13.48-13.48s6.05-13.48,13.48-13.48   s13.48,6.05,13.48,13.48S2426.1,553,2418.67,553z M2419.47,347.11l-37.51-12.63l37.51-36.96l37.49,36.58L2419.47,347.11z    M2476.77,327.69l-49.1-49.91v-39.16l43.72-27.43l-9.56-68.51h31.84v-19h-58.16l10.91,77h-56.49l14.12-77h-65.47l3.85,19h34.66   l-13.48,69.95l43.33,26.55l1.93,40.48l-45.41,48.01l-43.18-13.32l26.96-140.57l-39.48-44.29l43.14-49.1l57.77,22.86v1.43h3.03   l7.73,3.05l7.4-3.05h0.84v-0.98l56.89-23.31l46.31,50.07l-39.52,44.29l28.53,139.61L2476.77,327.69z M2530.36,483.67   c-7.43,0-13.48-6.05-13.48-13.48c0-7.43,6.05-13.48,13.48-13.48c7.43,0,13.48,6.05,13.48,13.48   C2543.84,477.63,2537.79,483.67,2530.36,483.67z"
   id="path432" />
	<path
   class="st2"
   d="M2204.92,339.25c0-11.19-5.65-21.08-14.24-26.98l14.84-62.34l-35.85-41.35V97.09   c16-4.12,23.4-16.59,23.4-31.29c0-18.05-14.54-32.74-32.59-32.74s-32.83,14.69-32.83,32.74c0,14.7,12.02,27.16,23.02,31.29v118.63   l33.93,40.36l-12.35,52.61c-0.03,0-0.05,0-0.07,0c-18.05,0-32.74,13.6-32.74,31.65c0,18.05,14.69,32.19,32.74,32.19   S2204.92,357.3,2204.92,339.25z M2160.63,52.32c7.43,0,13.48,6.05,13.48,13.48c0,7.43-6.05,13.48-13.48,13.48   s-13.48-6.05-13.48-13.48C2147.15,58.37,2153.2,52.32,2160.63,52.32z M2172.18,352.73c-7.43,0-13.48-6.05-13.48-13.48   c0-7.43,6.05-13.48,13.48-13.48c7.43,0,13.48,6.05,13.48,13.48C2185.66,346.68,2179.62,352.73,2172.18,352.73z"
   id="path434" />
	<path
   class="st2"
   d="M2607.1,376.04l-34.9-162.09l44.47-43.98V16.21c16-4.12,23.28-16.59,23.28-31.29   c0-18.05-14.6-32.74-32.65-32.74c-18.05,0-32.74,14.69-32.74,32.74c0,14.7,11.11,27.16,23.11,31.29v145.7l-46.39,45.74   l36.88,172.03c-10.33,5.51-17.38,16.39-17.38,28.9c0,18.05,14.69,32.74,32.74,32.74s32.74-14.69,32.74-32.74   C2636.27,391.73,2623.48,377.82,2607.1,376.04z M2607.39-28.56c7.43,0,13.48,6.05,13.48,13.48s-6.05,13.48-13.48,13.48   s-13.48-6.05-13.48-13.48S2599.96-28.56,2607.39-28.56z M2603.54,422.05c-7.43,0-13.48-6.05-13.48-13.48   c0-7.43,6.05-13.48,13.48-13.48s13.48,6.05,13.48,13.48C2617.02,416,2610.97,422.05,2603.54,422.05z"
   id="path436" />
</g>
<g
   id="g448">
	<g
   id="g442">
		<path
   class="st2"
   d="M1856.11,151l-67.4-76.39l-71.25,31.45l-71.89-31.45L1575.92,151l46.22,50.55l-29.21,143.3l124.53,43.01    l123.89-41.72l-29.53-146.35L1856.11,151z M1717.46,366.68l-48.62-16.37l48.62-33.22l47.18,33.22L1717.46,366.68z M1818.08,333.94    l-30.69,5.78l-65.51-42.37V258.2l45.61-28.72l-7.67-69.8h28.05v-19h-54.37l10.91,77h-56.49l14.12-77h-65.47l3.85,19h34.66    l-13.48,71.25l43.33,27.2l1.93,40.8l-61.62,40.62l-26.96-5.69l26.96-140.53l-39.48-44.27l43.32-49.09l68.35,26.97l65.44-26.96    l46.16,50.07l-39.6,44.29L1818.08,333.94z"
   id="path440" />
	</g>
	<g
   id="g446">
		<path
   class="st2"
   d="M1715.88,525.18l-142.65-112.15L1461.2,235.61l83.88-231.87l119.8-53.17l51.48,97.07l55.77-97.06    l115.66,53.22l85.13,235.35l-109.59,175.23L1715.88,525.18z M1587.74,399.93l128.4,100.96l132.75-99.75l102.72-164.25    l-79.2-218.95l-92.36-42.5l-64.38,112.04l-59.41-112.02l-95.88,42.55l-77.88,215.29L1587.74,399.93z"
   id="path444" />
	</g>
</g>
<path
   class="st2"
   d="M528.43,51.33L528.43,51.33C528.43,51.33,528.43,51.33,528.43,51.33l-0.01-0.01c-0.08-0.08-0.16-0.16-0.24-0.24  l-0.35-0.35c-0.01-0.01-0.02-0.01-0.02-0.02l-0.01-0.01l0,0C472.23-4.16,378.99-4,323.75,51.24l-36.43,36.43l-33.21-33.2  c-27.02-27.02-62.47-42.23-99.84-42.82C116.45,10.97,81,25.49,54.18,52.3l-1.1,1.1c-56.43,56.42-57.82,150.37-3.05,205.14  l232.8,232.8l138.8-138.8l0.65,0.65c3.88-3.88,7.41-7.88,10.68-11.99l90.37-90.37C580.49,193.69,582.65,106.23,528.43,51.33z   M420.64,330.26l-41.1,41.1c9.78-26.06,11.39-49.81,10.39-67.47l0.78-0.26l-1.27-6.3c-1.4-14.25-4.26-23.29-4.64-24.41l-0.27,0.09  l-19.07-94.53l26.78-29.5c22.58,29.41,49.44,73.57,49.99,117.85C442.52,290.26,435.25,311.53,420.64,330.26z M124.77,266.82  c0.55-44.32,27.47-88.53,50.06-117.94l28.42,31.09l-19.87,97.47c-2.88,8.47-14,47.1,2.88,94.03l-29.93-29.93l0,0  C135.04,320.25,124.42,295.11,124.77,266.82z M43.1,93.75C83.88,45.1,158.65,60.94,213.39,82.28c0,0-28.72,28.74-39.82,41.75  c-16.26-12.99-52.66-37.19-91.42-30.38c-19.77,3.48-37.15,14.47-51.95,32.75C33.02,115.1,37.33,104.11,43.1,93.75z M340.7,93.11  l39.47,42.82l-33.86,37.88l24.5,119.39l-25.72,4.94l-55.5-36.23v-33.48l38.48-22.29l-7.08-57.42h26.6v-16h-49.11l9.33,66h-48.31  l12.08-66H215.6l3.29,16h29.64l-11.53,58.65l37.05,22.12l1.65,34.32l-52.7,34.45l-23.06-5.01l23.05-120.25l-33.76-37.89l37.05-42  l51.69,20.38c1.44,0.85,2.26,1.36,2.37,1.42l0.25-0.4l4.14,1.63l3.85-1.59l0.28,0.47c0.15-0.09,1.55-0.89,3.99-2.23L340.7,93.11z   M284.76,321.19l-41.58-14l41.58-28.41l40.12,28.25c-5.06,1.44-12.85,3.95-21.83,7.81L284.76,321.19z M241.77,366.48  c-8.16,15.74-10.8,33.16-7.98,52.01c-37.62-42.31-41.99-84.41-39.74-110.52l38.56,13.32l-0.06,0.26c0.08,0.02,1.24,0.29,3.2,0.82  l19.32,6.67c4.15,1.72,8.63,3.77,13.22,6.17C257.9,343.47,248.37,353.76,241.77,366.48z M302.26,333.41l71.21-23.98  c0.54,26.82-5.9,67.25-39.94,106.82c2.29-17.99-0.47-34.65-8.31-49.77c-6.6-12.73-16.13-23.01-26.52-31.27  C299.9,334.59,301.08,333.99,302.26,333.41z M356.52,83.7c58.62-22.13,140.37-39.85,182.04,10.36l0.26-0.22  c6,12.1,9.82,25,11.44,38.19c-15.42-20.89-34.14-33.64-55.93-37.96c-42.16-8.35-83.12,17.4-100.53,30.39  C382.52,111.19,356.52,83.7,356.52,83.7z M335.39,62.89c44.98-44.98,118.37-48.72,168.2-11.31  c-61.46-19.95-142.62,10.09-188.25,31.36L335.39,62.89z M154.01,28.11c33.06,0.53,64.48,14.02,88.46,38l19.98,19.98  c-40.2-20.65-117.87-53.4-179.59-36.36c20.24-14.07,44.12-21.64,69.16-21.64C152.68,28.1,153.35,28.1,154.01,28.11z M26.31,163.33  C41.9,132,61.61,114,84.95,109.87c31.98-5.65,63.88,15.62,78.19,26.95c-24.33,31.18-54.19,79.53-54.84,129.75  c-0.14,10.55,1.05,20.7,3.5,30.45L61.68,246.9C39.1,224.31,27.35,194.16,26.31,163.33z M257.43,442.65l0.32-0.13  c-10.93-26.04-11.4-49.05-1.39-68.39c6.39-12.34,16.39-22.1,27.14-29.69c10.74,7.59,20.75,17.34,27.14,29.69  c9.82,18.98,9.53,41.51-0.82,66.96l-26.98,26.98L257.43,442.65z M455.6,295.29c2.17-9.22,3.21-18.8,3.09-28.73  c-0.64-49.96-30.2-98.08-54.46-129.27c15.7-11.56,51.75-34.02,86.91-27.06c23.88,4.73,43.68,22.62,58.87,53.11  c-3.7,27.27-16.49,54.03-38.3,75.85L455.6,295.29z"
   id="path450"
   style="fill:#d82f5a;fill-opacity:1" />
</svg>