<?xml version="1.0" encoding="utf-8"?>
<!-- Generator: Adobe Illustrator 23.0.2, SVG Export Plug-In . SVG Version: 6.00 Build 0)  -->
<svg version="1.1" id="Camada_1" xmlns="http://www.w3.org/2000/svg" xmlns:xlink="http://www.w3.org/1999/xlink" x="0px" y="0px"
	 viewBox="0 0 530.5 600.53" style="enable-background:new 0 0 530.5 600.53;" xml:space="preserve">
<style type="text/css">
	.st0{fill:#424242;}
	.st1{fill:#FFFFFF;}
	.st2{fill:#967443;}
</style>
<g>
	<g>
		<path class="st0" d="M732.5-1564.27c-156.34,0-283.53-127.19-283.53-283.53s127.19-283.53,283.53-283.53
			c34.62,0,68.45,6.17,100.56,18.35l-6.28,16.56c-30.09-11.4-61.81-17.19-94.28-17.19c-146.57,0-265.81,119.24-265.81,265.81
			s119.24,265.81,265.81,265.81s265.81-119.24,265.81-265.81c0-32.48-5.79-64.21-17.21-94.3l16.57-6.28
			c12.19,32.1,18.37,65.95,18.37,100.59C1016.03-1691.46,888.84-1564.27,732.5-1564.27z"/>
	</g>
	<g>
		
			<rect x="675.62" y="-1993.99" transform="matrix(0.7071 -0.7071 0.7071 0.7071 1658.468 33.6343)" class="st0" width="388.44" height="17.72"/>
	</g>
	<g>
		<polygon class="st0" points="1016.03,-2060.44 945.15,-2060.44 945.15,-2131.32 962.87,-2131.32 962.87,-2078.16 
			1016.03,-2078.16 		"/>
	</g>
	<g>
		<polygon class="st0" points="980.59,-2025 909.71,-2025 909.71,-2095.88 927.43,-2095.88 927.43,-2042.72 980.59,-2042.72 		"/>
	</g>
	<g>
		<path class="st0" d="M732.5-1617.43c-127.02,0-230.37-103.34-230.37-230.37s103.34-230.37,230.37-230.37
			s230.37,103.34,230.37,230.37S859.52-1617.43,732.5-1617.43z M732.5-2060.44c-117.25,0-212.65,95.39-212.65,212.65
			c0,117.25,95.39,212.65,212.65,212.65s212.64-95.39,212.64-212.65C945.15-1965.05,849.75-2060.44,732.5-2060.44z"/>
	</g>
	<g>
		<path class="st0" d="M732.5-1670.59c-97.71,0-177.2-79.49-177.2-177.2c0-97.71,79.5-177.2,177.2-177.2s177.2,79.49,177.2,177.2
			C909.71-1750.08,830.21-1670.59,732.5-1670.59z M732.5-2007.28c-87.94,0-159.48,71.55-159.48,159.48s71.54,159.48,159.48,159.48
			s159.48-71.55,159.48-159.48S820.44-2007.28,732.5-2007.28z"/>
	</g>
	<g>
		<path class="st0" d="M732.5-1723.75c-68.4,0-124.04-55.64-124.04-124.04c0-68.4,55.64-124.04,124.04-124.04
			s124.04,55.64,124.04,124.04C856.54-1779.4,800.9-1723.75,732.5-1723.75z M732.5-1954.12c-58.63,0-106.32,47.69-106.32,106.32
			s47.7,106.32,106.32,106.32c58.63,0,106.32-47.69,106.32-106.32S791.13-1954.12,732.5-1954.12z"/>
	</g>
	<g>
		<path class="st0" d="M732.5-1776.92c-39.08,0-70.88-31.8-70.88-70.88c0-39.08,31.8-70.88,70.88-70.88
			c39.08,0,70.88,31.8,70.88,70.88C803.38-1808.71,771.58-1776.92,732.5-1776.92z M732.5-1900.96c-29.31,0-53.16,23.85-53.16,53.16
			c0,29.31,23.85,53.16,53.16,53.16c29.31,0,53.16-23.85,53.16-53.16C785.66-1877.11,761.82-1900.96,732.5-1900.96z"/>
	</g>
	<g>
		<circle class="st0" cx="732.5" cy="-1847.8" r="17.72"/>
	</g>
	<g>
		<path class="st0" d="M493.28-1564.27h-35.44c-3.07,0-5.92-1.59-7.54-4.21c-1.61-2.61-1.76-5.88-0.39-8.62l53.16-106.32l15.85,7.93
			l-46.75,93.5h17.43l59.43-59.43l12.53,12.53l-62.02,62.02C497.88-1565.21,495.62-1564.27,493.28-1564.27z"/>
	</g>
	<g>
		<path class="st0" d="M1007.17-1564.27h-35.44c-2.35,0-4.6-0.93-6.26-2.6l-62.02-62.02l12.53-12.53l59.43,59.43h17.43l-46.75-93.5
			l15.85-7.93l53.16,106.32c1.37,2.74,1.22,6.01-0.39,8.62C1013.09-1565.86,1010.24-1564.27,1007.17-1564.27z"/>
	</g>
</g>
<g>
	<g>
		<path class="st0" d="M2227.34-1560.29h-605.95l-50.68-44.38v-33.04h280.87l22.1,19.35h101.37l22.1-19.35h280.87v33.04
			L2227.34-1560.29z M1630.54-1579.64h587.65l37.73-33.04v-5.67h-249.62l-22.1,19.35h-119.67l-22.1-19.35h-249.62v5.67
			L1630.54-1579.64z"/>
	</g>
	<g>
		<path class="st0" d="M1637.02-1657.06h-22.1v-290.31c0-21.35,19.83-38.71,44.21-38.71h132.62v19.35h-132.62
			c-12.19,0-22.1,8.68-22.1,19.35V-1657.06z"/>
	</g>
	<g>
		<path class="st0" d="M2233.82-1657.06h-22.1v-290.31c0-10.67-9.91-19.35-22.1-19.35h-132.62v-19.35h132.62
			c24.38,0,44.21,17.36,44.21,38.71V-1657.06z"/>
	</g>
	<g>
		<polygon class="st0" points="1747.54,-1676.41 1659.12,-1676.41 1659.12,-1947.37 1813.85,-1947.37 1813.85,-1928.01 
			1681.23,-1928.01 1681.23,-1695.76 1747.54,-1695.76 		"/>
	</g>
	<g>
		<rect x="1902.26" y="-1792.53" class="st0" width="77.36" height="19.35"/>
	</g>
	<g>
		<rect x="1902.26" y="-1947.37" class="st0" width="77.36" height="19.35"/>
	</g>
	<g>
		<polygon class="st0" points="2189.61,-1676.41 1769.64,-1676.41 1769.64,-1734.47 2079.09,-1734.47 2079.09,-1715.12 
			1791.74,-1715.12 1791.74,-1695.76 2167.51,-1695.76 2167.51,-1928.01 2034.89,-1928.01 2034.89,-1947.37 2189.61,-1947.37 		"/>
	</g>
	<g>
		<polygon class="st0" points="1835.95,-1724.8 1813.85,-1724.8 1813.85,-1748.16 1858.06,-1786.86 1858.06,-1933.68 
			1813.85,-1972.39 1813.85,-2005.43 1869.11,-2005.43 1869.11,-2034.46 1891.21,-2034.46 1891.21,-1986.07 1835.95,-1986.07 
			1835.95,-1980.4 1880.16,-1941.7 1880.16,-1778.85 1835.95,-1740.14 		"/>
	</g>
	<g>
		<polygon class="st0" points="2034.89,-1724.8 2012.78,-1724.8 2012.78,-1740.14 1968.57,-1778.85 1968.57,-1941.7 
			2012.78,-1980.4 2012.78,-1986.07 1913.32,-1986.07 1913.32,-2005.43 2034.89,-2005.43 2034.89,-1972.39 1990.68,-1933.68 
			1990.68,-1786.86 2034.89,-1748.16 		"/>
	</g>
	<g>
		<rect x="1957.52" y="-2034.46" class="st0" width="22.1" height="38.71"/>
	</g>
	<g>
		<polygon class="st0" points="2012.78,-2063.49 1946.47,-2063.49 1946.47,-2102.2 1902.26,-2102.2 1902.26,-2063.49 
			1835.95,-2063.49 1835.95,-2082.84 1880.16,-2082.84 1880.16,-2121.55 1968.57,-2121.55 1968.57,-2082.84 2012.78,-2082.84 		"/>
	</g>
	<g>
		<polygon class="st0" points="2028.41,-2024.78 1820.32,-2024.78 1791.74,-2049.8 1791.74,-2121.55 1858.06,-2121.55 
			1858.06,-2102.2 1813.85,-2102.2 1813.85,-2057.82 1829.48,-2044.13 2019.26,-2044.13 2034.89,-2057.82 2034.89,-2102.2 
			1990.68,-2102.2 1990.68,-2121.55 2056.99,-2121.55 2056.99,-2049.8 		"/>
	</g>
	<g>
		<rect x="1913.32" y="-1879.63" class="st0" width="22.1" height="19.35"/>
	</g>
	<g>
		<rect x="1913.32" y="-1918.33" class="st0" width="22.1" height="19.35"/>
	</g>
	<g>
		<rect x="1913.32" y="-1840.92" class="st0" width="22.1" height="19.35"/>
	</g>
</g>
<g>
	<g>
		<g>
			<path class="st0" d="M3061.51-1834.3H2842.1c-4.85,0-8.78-3.93-8.78-8.78v-245.74c0-4.85,3.93-8.78,8.78-8.78h245.74
				c4.85,0,8.78,3.93,8.78,8.78v219.41h-17.55v-210.63h-228.19v228.19h210.64V-1834.3z"/>
		</g>
		<g>
			<path class="st0" d="M3386.24-1834.3h-219.41v-17.55h210.64v-228.19h-228.19v210.63h-17.55v-219.41c0-4.85,3.93-8.78,8.78-8.78
				h245.74c4.85,0,8.78,3.93,8.78,8.78v245.74C3395.01-1838.23,3391.09-1834.3,3386.24-1834.3z"/>
		</g>
		<g>
			<path class="st0" d="M3087.84-1535.9H2842.1c-4.85,0-8.78-3.93-8.78-8.78v-245.74c0-4.85,3.93-8.78,8.78-8.78h219.41v17.55
				h-210.64v228.19h228.19v-210.63h17.55v219.41C3096.61-1539.83,3092.69-1535.9,3087.84-1535.9z"/>
		</g>
		<g>
			<path class="st0" d="M3386.24-1535.9H3140.5c-4.85,0-8.78-3.93-8.78-8.78v-219.41h17.55v210.63h228.19v-228.19h-210.64v-17.55
				h219.41c4.85,0,8.78,3.93,8.78,8.78v245.74C3395.01-1539.83,3391.09-1535.9,3386.24-1535.9z"/>
		</g>
		<g>
			<path class="st0" d="M3035.18-1974.72h-26.33v-17.55h17.55v-35.11h-122.87v35.11h17.55v17.55h-26.33c-4.85,0-8.78-3.93-8.78-8.78
				v-52.66c0-4.85,3.93-8.78,8.78-8.78h140.42c4.85,0,8.78,3.93,8.78,8.78v52.66C3043.96-1978.65,3040.03-1974.72,3035.18-1974.72z"
				/>
		</g>
		<g>
			<path class="st0" d="M2991.3-1895.74h-17.55v-105.32c0-4.85,3.93-8.78,8.78-8.78h26.33v17.55h-17.55V-1895.74z"/>
		</g>
		<g>
			<path class="st0" d="M2956.19-1895.74h-17.55v-96.54h-17.55v-17.55h26.33c4.85,0,8.78,3.93,8.78,8.78V-1895.74z"/>
		</g>
		<g>
			<rect x="2929.86" y="-1904.51" class="st0" width="70.21" height="17.55"/>
		</g>
		<g>
			<path class="st0" d="M3301.04-1836.87l-99.11-99.11l-55.23,55.23l-12.41-12.41l61.44-61.44c3.43-3.43,8.98-3.43,12.41,0
				l105.32,105.32L3301.04-1836.87z"/>
		</g>
		<g>
			<path class="st0" d="M3252.02-1898.31l-12.41-12.41l87.76-87.76c3.43-3.43,8.98-3.43,12.41,0l52.66,52.66l-12.41,12.41
				l-46.45-46.45L3252.02-1898.31z"/>
		</g>
		<g>
			<path class="st0" d="M3245.81-1974.72c-19.36,0-35.11-15.74-35.11-35.11s15.74-35.11,35.11-35.11s35.11,15.74,35.11,35.11
				S3265.18-1974.72,3245.81-1974.72z M3245.81-2027.38c-9.68,0-17.55,7.88-17.55,17.55s7.88,17.55,17.55,17.55
				s17.55-7.88,17.55-17.55S3255.49-2027.38,3245.81-2027.38z"/>
		</g>
		<g>
			<rect x="2885.98" y="-1746.54" class="st0" width="157.98" height="17.55"/>
		</g>
		<g>
			<rect x="2885.98" y="-1711.43" class="st0" width="157.98" height="17.55"/>
		</g>
		<g>
			<rect x="2885.98" y="-1676.32" class="st0" width="157.98" height="17.55"/>
		</g>
		<g>
			<rect x="2885.98" y="-1641.22" class="st0" width="157.98" height="17.55"/>
		</g>
		<g>
			<rect x="2885.98" y="-1606.11" class="st0" width="87.76" height="17.55"/>
		</g>
		<g>
			
				<rect x="3248.51" y="-1742.15" transform="matrix(0.7071 -0.7071 0.7071 0.7071 2200.7759 1846.4003)" class="st0" width="161.35" height="17.55"/>
		</g>
		<g>
			<path class="st0" d="M3193.16-1588.56c-2.28,0-4.53-0.89-6.2-2.57c-2.57-2.57-3.29-6.45-1.82-9.77l35.11-78.99
				c0.44-0.99,1.05-1.88,1.82-2.64l114.09-114.09l12.41,12.41l-112.94,112.95l-25.18,56.64l56.64-25.18l112.95-112.94l12.41,12.41
				l-114.09,114.09c-0.76,0.76-1.65,1.38-2.64,1.82l-78.99,35.11C3195.57-1588.81,3194.36-1588.56,3193.16-1588.56z"/>
		</g>
		<g>
			
				<rect x="3241.43" y="-1685.41" transform="matrix(0.7071 -0.7071 0.7071 0.7071 2121.7876 1813.6823)" class="st0" width="17.55" height="62.06"/>
		</g>
		<g>
			<rect x="3193.16" y="-1606.11" class="st0" width="149.2" height="17.55"/>
		</g>
		<g>
			<path class="st0" d="M3140.5-1781.64h-52.66c-4.85,0-8.78-3.93-8.78-8.78v-52.66c0-4.85,3.93-8.78,8.78-8.78h52.66
				c4.85,0,8.78,3.93,8.78,8.78v52.66C3149.27-1785.57,3145.35-1781.64,3140.5-1781.64z M3096.61-1799.19h35.11v-35.11h-35.11
				V-1799.19z"/>
		</g>
	</g>
</g>
<g>
	<g>
		<g>
			<g>
				<path class="st0" d="M-437.13-1776.7c-55.21,0-100.13-44.91-100.13-100.13c0-55.21,44.91-100.13,100.13-100.13
					c55.21,0,100.13,44.91,100.13,100.13C-337.01-1821.61-381.92-1776.7-437.13-1776.7z M-437.13-1956.92
					c-44.17,0-80.1,35.93-80.1,80.1c0,44.17,35.93,80.1,80.1,80.1c44.17,0,80.1-35.93,80.1-80.1
					C-357.03-1920.99-392.97-1956.92-437.13-1956.92z"/>
			</g>
			<g>
				<g>
					<g>
						<rect x="-537.26" y="-1706.61" class="st0" width="200.25" height="20.03"/>
					</g>
					<g>
						<rect x="-537.26" y="-1666.56" class="st0" width="200.25" height="20.03"/>
					</g>
					<g>
						<polygon class="st0" points="-411.75,-1576.45 -462.52,-1576.45 -482.54,-1606.48 -537.26,-1606.48 -537.26,-1626.51 
							-471.83,-1626.51 -451.8,-1596.47 -422.47,-1596.47 -402.44,-1626.51 -337.01,-1626.51 -337.01,-1606.48 -391.73,-1606.48 
													"/>
					</g>
					<g>
						<path class="st0" d="M-357.03-1616.5h-20.03v-136.94l6.29-2.52c45.53-18.21,73.81-64.52,73.81-120.86
							c0-77.29-62.88-140.18-140.18-140.18c-77.29,0-140.18,62.88-140.18,140.18c0,56.34,28.28,102.66,73.81,120.86l6.29,2.52
							v136.94h-20.03v-123.58c-49.59-22.89-80.1-74.63-80.1-136.75c0-88.33,71.87-160.2,160.2-160.2
							c88.33,0,160.2,71.87,160.2,160.2c0,62.12-30.51,113.85-80.1,136.75V-1616.5z"/>
					</g>
				</g>
				<g>
					<polygon class="st0" points="-419.85,-1819.87 -459.9,-1899.97 -493.06,-1866.81 -557.28,-1866.81 -557.28,-1886.84 
						-501.36,-1886.84 -454.42,-1933.77 -414.37,-1853.67 -381.21,-1886.84 -316.98,-1886.84 -316.98,-1866.81 -372.91,-1866.81 
											"/>
				</g>
			</g>
		</g>
		<g>
			<g>
				<path class="st0" d="M-718.06-1923.33l-18.72-7.11c46.94-123.64,167.36-206.71,299.65-206.71h24.17l-67.15,67.15l-14.16-14.16
					l31.89-31.89C-576.26-2106.3-677.06-2031.32-718.06-1923.33z"/>
			</g>
			<g>
				<path class="st0" d="M-116.73-1792.58l-67.15-67.15l14.16-14.16l31.89,31.89c-9.74-113.89-84.73-214.68-192.74-255.68
					l7.11-18.72c123.65,46.93,206.74,167.35,206.74,299.65V-1792.58z"/>
			</g>
			<g>
				<path class="st0" d="M-437.13-1496.35h-24.17l67.15-67.15l14.16,14.16l-31.89,31.89c113.87-9.74,214.67-84.72,255.67-192.71
					l18.72,7.11C-184.43-1579.42-304.85-1496.35-437.13-1496.35z"/>
			</g>
			<g>
				<path class="st0" d="M-550.86-1517.12c-123.62-46.95-206.68-167.36-206.68-299.63v-24.17l67.15,67.15l-14.16,14.16l-31.89-31.89
					c9.74,113.86,84.71,214.66,192.68,255.66L-550.86-1517.12z"/>
			</g>
		</g>
	</g>
</g>
<g>
	<g>
		<g>
			<path class="st0" d="M-1352.92-1599.4c-1.02,0-2.05-0.15-3.04-0.45l-538.2-165.6c-5.46-1.69-8.53-7.48-6.85-12.94
				c1.67-5.47,7.49-8.54,12.93-6.85l524.81,161.49v-365.28l-524.81,161.49c-5.44,1.67-11.26-1.4-12.93-6.85
				c-1.68-5.46,1.38-11.25,6.85-12.94l538.2-165.6c3.12-0.95,6.54-0.38,9.19,1.57c2.64,1.95,4.2,5.04,4.2,8.33v393.3
				c0,3.29-1.56,6.38-4.2,8.33C-1348.57-1600.1-1350.73-1599.4-1352.92-1599.4z"/>
		</g>
		<g>
			<path class="st0" d="M-1911.82-1744.3c-17.12,0-31.05-13.93-31.05-31.05v-62.1c0-17.12,13.93-31.05,31.05-31.05
				c17.12,0,31.05,13.93,31.05,31.05v62.1C-1880.77-1758.23-1894.7-1744.3-1911.82-1744.3z M-1911.82-1847.8
				c-5.71,0-10.35,4.64-10.35,10.35v62.1c0,5.71,4.64,10.35,10.35,10.35s10.35-4.64,10.35-10.35v-62.1
				C-1901.47-1843.16-1906.11-1847.8-1911.82-1847.8z"/>
		</g>
		<g>
			<path class="st0" d="M-1321.87-1568.35c-22.83,0-41.4-18.57-41.4-41.4v-393.3c0-22.83,18.57-41.4,41.4-41.4
				c22.83,0,41.4,18.57,41.4,41.4v393.3C-1280.47-1586.91-1299.04-1568.35-1321.87-1568.35z M-1321.87-2023.75
				c-11.42,0-20.7,9.29-20.7,20.7v393.3c0,11.41,9.28,20.7,20.7,20.7s20.7-9.29,20.7-20.7v-393.3
				C-1301.17-2014.46-1310.45-2023.75-1321.87-2023.75z"/>
		</g>
		<g>
			<rect x="-1508.17" y="-1816.75" class="st0" width="20.7" height="20.7"/>
		</g>
		<g>
			<rect x="-1466.77" y="-1816.75" class="st0" width="20.7" height="20.7"/>
		</g>
		<g>
			<rect x="-1425.37" y="-1816.75" class="st0" width="20.7" height="20.7"/>
		</g>
		<g>
			<path class="st0" d="M-1663.42-1630.45c-1.25,0-2.51-0.22-3.71-0.69l-134.55-51.75c-4-1.54-6.64-5.38-6.64-9.66v-51.75h20.7
				v44.64l113.85,43.78v-47.03h20.7v62.1c0,3.41-1.68,6.6-4.49,8.53C-1659.31-1631.06-1661.36-1630.45-1663.42-1630.45z"/>
		</g>
		<g>
			<path class="st0" d="M-1622.02-1568.35c-1.24,0-2.49-0.22-3.68-0.68l-217.35-82.8c-4.01-1.53-6.67-5.38-6.67-9.67v-93.15h20.7
				v86.01l196.65,74.92v-98.83h20.7v113.85c0,3.41-1.67,6.59-4.48,8.52C-1617.89-1568.96-1619.95-1568.35-1622.02-1568.35z"/>
		</g>
		<g>
			<rect x="-1570.27" y="-1940.95" class="st0" width="20.7" height="269.1"/>
		</g>
	</g>
</g>
<g>
	<path class="st1" d="M-2064.75,926.21h40.54v11.88h-26.71v7.63h24.19v11.02h-24.19v7.99h27.07v11.88h-40.9V926.21z"/>
	<path class="st1" d="M-2020.76,926.21h15.63l11.45,31.9l11.45-31.9h15.34l-20.45,50.76h-12.96L-2020.76,926.21z"/>
	<path class="st1" d="M-1962.01,926.21h40.54v11.88h-26.71v7.63h24.19v11.02h-24.19v7.99h27.07v11.88h-40.9V926.21z"/>
	<path class="st1" d="M-1913.98,926.21h13.03l20.74,26.64v-26.64h13.83v50.4h-12.24l-21.53-27.65v27.65h-13.83V926.21z"/>
	<path class="st1" d="M-1845.15,938.45h-15.12v-12.24h44.21v12.24h-15.12v38.16h-13.97V938.45z"/>
	<path class="st1" d="M-1813.83,951.56v-0.14c0-14.47,11.67-26.21,27.22-26.21c15.55,0,27.07,11.59,27.07,26.07v0.14
		c0,14.47-11.67,26.21-27.22,26.21C-1802.31,977.62-1813.83,966.03-1813.83,951.56z M-1773.8,951.56v-0.14
		c0-7.27-5.26-13.61-12.96-13.61c-7.63,0-12.75,6.19-12.75,13.46v0.14c0,7.27,5.26,13.61,12.89,13.61
		C-1778.91,965.02-1773.8,958.83-1773.8,951.56z"/>
	<path class="st1" d="M-1756.45,969.13l7.78-9.29c4.97,3.96,10.51,6.05,16.34,6.05c3.75,0,5.76-1.3,5.76-3.46v-0.14
		c0-2.09-1.66-3.24-8.5-4.82c-10.73-2.45-19.01-5.47-19.01-15.84v-0.14c0-9.36,7.42-16.13,19.51-16.13c8.57,0,15.26,2.3,20.74,6.7
		l-6.98,9.87c-4.61-3.24-9.65-4.97-14.11-4.97c-3.38,0-5.04,1.44-5.04,3.24v0.14c0,2.3,1.73,3.31,8.71,4.9
		c11.59,2.52,18.79,6.26,18.79,15.7v0.14c0,10.3-8.14,16.42-20.38,16.42C-1741.76,977.48-1750.26,974.67-1756.45,969.13z"/>
	<path class="st1" d="M-1685.75,926.21h40.54v11.88h-26.71v7.63h24.19v11.02h-24.19v7.99h27.07v11.88h-40.9V926.21z"/>
	<path class="st1" d="M-1617.78,926.21h21.6c12.75,0,20.95,6.55,20.95,17.71v0.14c0,11.88-9.15,18.15-21.67,18.15h-6.91v14.4h-13.97
		V926.21z M-1597.19,951.27c4.97,0,7.99-2.59,7.99-6.55v-0.14c0-4.32-3.02-6.62-8.06-6.62h-6.55v13.32H-1597.19z"/>
	<path class="st1" d="M-1569.32,926.21h23.83c7.7,0,13.03,2.02,16.42,5.47c2.95,2.88,4.46,6.77,4.46,11.74v0.14
		c0,7.7-4.1,12.82-10.37,15.48l12.02,17.57h-16.13l-10.15-15.27h-0.14h-5.98v15.27h-13.97V926.21z M-1546.14,950.4
		c4.75,0,7.49-2.3,7.49-5.98v-0.14c0-3.96-2.88-5.98-7.56-5.98h-9.14v12.1H-1546.14z"/>
	<path class="st1" d="M-1519.29,951.56v-0.14c0-14.47,11.67-26.21,27.22-26.21c15.55,0,27.07,11.59,27.07,26.07v0.14
		c0,14.47-11.67,26.21-27.22,26.21S-1519.29,966.03-1519.29,951.56z M-1479.25,951.56v-0.14c0-7.27-5.26-13.61-12.96-13.61
		c-7.63,0-12.75,6.19-12.75,13.46v0.14c0,7.27,5.26,13.61,12.89,13.61C-1484.36,965.02-1479.25,958.83-1479.25,951.56z"/>
	<path class="st1" d="M-1457.73,926.21h14.76l12.03,19.51l12.02-19.51h14.76v50.4h-13.9v-28.95l-12.89,19.73h-0.29l-12.82-19.59
		v28.8h-13.68V926.21z"/>
	<path class="st1" d="M-1396.96,951.56v-0.14c0-14.47,11.67-26.21,27.22-26.21c15.55,0,27.07,11.59,27.07,26.07v0.14
		c0,14.47-11.67,26.21-27.22,26.21S-1396.96,966.03-1396.96,951.56z M-1356.92,951.56v-0.14c0-7.27-5.26-13.61-12.96-13.61
		c-7.63,0-12.75,6.19-12.75,13.46v0.14c0,7.27,5.26,13.61,12.89,13.61C-1362.03,965.02-1356.92,958.83-1356.92,951.56z"/>
	<path class="st1" d="M-1323.3,984.46l5.62-7.63c-11.23-2.81-19.44-12.6-19.44-25.27v-0.14c0-14.69,11.3-26.21,26.57-26.21
		c10.3,0,16.92,4.32,21.39,10.51l-10.51,8.14c-2.88-3.6-6.19-5.9-11.02-5.9c-7.06,0-12.02,5.98-12.02,13.32v0.14
		c0,7.56,4.97,13.46,12.02,13.46c5.26,0,8.35-2.45,11.38-6.12l10.51,7.49c-4.32,5.98-10.08,10.44-19.59,11.23l-4.03,11.59
		L-1323.3,984.46z"/>
	<path class="st1" d="M-1284.57,951.56v-0.14c0-14.47,11.67-26.21,27.22-26.21c15.55,0,27.08,11.59,27.08,26.07v0.14
		c0,14.47-11.67,26.21-27.22,26.21S-1284.57,966.03-1284.57,951.56z M-1272.54,921.53c1.51-7.13,3.96-10.73,8.93-10.73
		c4.32,0,8.93,2.81,11.23,2.81c2.02,0,2.74-1.08,3.67-3.31l6.55,1.8c-1.51,7.13-3.96,10.73-8.93,10.73c-4.32,0-8.93-2.81-11.23-2.81
		c-2.02,0-2.74,1.08-3.67,3.31L-1272.54,921.53z M-1244.53,951.56v-0.14c0-7.27-5.26-13.61-12.96-13.61
		c-7.63,0-12.75,6.19-12.75,13.46v0.14c0,7.27,5.26,13.61,12.89,13.61C-1249.64,965.02-1244.53,958.83-1244.53,951.56z"/>
	<path class="st1" d="M-1223.01,926.21h40.54v11.88h-26.71v7.63h24.19v11.02h-24.19v7.99h27.07v11.88h-40.9V926.21z"/>
	<path class="st1" d="M-1178.8,969.13l7.78-9.29c4.97,3.96,10.51,6.05,16.35,6.05c3.74,0,5.76-1.3,5.76-3.46v-0.14
		c0-2.09-1.66-3.24-8.5-4.82c-10.73-2.45-19.01-5.47-19.01-15.84v-0.14c0-9.36,7.42-16.13,19.51-16.13c8.57,0,15.27,2.3,20.74,6.7
		l-6.98,9.87c-4.61-3.24-9.65-4.97-14.11-4.97c-3.38,0-5.04,1.44-5.04,3.24v0.14c0,2.3,1.73,3.31,8.71,4.9
		c11.59,2.52,18.79,6.26,18.79,15.7v0.14c0,10.3-8.14,16.42-20.38,16.42C-1164.11,977.48-1172.61,974.67-1178.8,969.13z"/>
</g>
<g>
	<path class="st1" d="M-770.22,926.21h19.44c18,0,28.44,10.37,28.44,24.91v0.14c0,14.55-10.58,25.35-28.73,25.35h-19.15V926.21z
		 M-750.56,964.23c8.35,0,13.9-4.61,13.9-12.75v-0.14c0-8.06-5.54-12.75-13.9-12.75h-5.69v25.63H-750.56z"/>
	<path class="st1" d="M-715.14,926.21h40.54v11.88h-26.71v7.63h24.19v11.02h-24.19v7.99h27.07v11.88h-40.9V926.21z"/>
	<path class="st1" d="M-670.93,969.13l7.78-9.29c4.97,3.96,10.51,6.05,16.34,6.05c3.75,0,5.76-1.3,5.76-3.46v-0.14
		c0-2.09-1.66-3.24-8.5-4.82c-10.73-2.45-19.01-5.47-19.01-15.84v-0.14c0-9.36,7.42-16.13,19.51-16.13c8.57,0,15.26,2.3,20.74,6.7
		l-6.98,9.87c-4.61-3.24-9.65-4.97-14.11-4.97c-3.38,0-5.04,1.44-5.04,3.24v0.14c0,2.3,1.73,3.31,8.71,4.9
		c11.59,2.52,18.79,6.26,18.79,15.7v0.14c0,10.3-8.14,16.42-20.38,16.42C-656.24,977.48-664.74,974.67-670.93,969.13z"/>
	<path class="st1" d="M-620.17,926.21h40.54v11.88h-26.71v7.63h24.19v11.02h-24.19v7.99h27.07v11.88h-40.9V926.21z"/>
	<path class="st1" d="M-572.15,926.21h13.03l20.74,26.64v-26.64h13.83v50.4h-12.24l-21.53-27.65v27.65h-13.83V926.21z"/>
	<path class="st1" d="M-519.66,926.21h15.63l11.45,31.9l11.45-31.9h15.34l-20.45,50.76h-12.96L-519.66,926.21z"/>
	<path class="st1" d="M-465.88,951.56v-0.14c0-14.47,11.67-26.21,27.22-26.21c15.55,0,27.07,11.59,27.07,26.07v0.14
		c0,14.47-11.67,26.21-27.22,26.21S-465.88,966.03-465.88,951.56z M-425.84,951.56v-0.14c0-7.27-5.26-13.61-12.96-13.61
		c-7.63,0-12.75,6.19-12.75,13.46v0.14c0,7.27,5.26,13.61,12.89,13.61C-430.95,965.02-425.84,958.83-425.84,951.56z"/>
	<path class="st1" d="M-404.32,926.21h13.97v38.16h24.41v12.24h-38.38V926.21z"/>
	<path class="st1" d="M-359.68,926.21h14.04v50.4h-14.04V926.21z"/>
	<path class="st1" d="M-336.42,926.21h14.76l12.03,19.51l12.02-19.51h14.76v50.4h-13.9v-28.95l-12.89,19.73h-0.29l-12.82-19.59v28.8
		h-13.68V926.21z"/>
	<path class="st1" d="M-273.93,926.21h40.54v11.88h-26.71v7.63h24.19v11.02h-24.19v7.99h27.07v11.88h-40.9V926.21z"/>
	<path class="st1" d="M-225.9,926.21h13.03l20.74,26.64v-26.64h13.83v50.4h-12.24l-21.53-27.65v27.65h-13.83V926.21z"/>
	<path class="st1" d="M-157.07,938.45h-15.12v-12.24h44.21v12.24h-15.12v38.16h-13.97V938.45z"/>
	<path class="st1" d="M-125.75,951.56v-0.14c0-14.47,11.67-26.21,27.22-26.21c15.55,0,27.07,11.59,27.07,26.07v0.14
		c0,14.47-11.67,26.21-27.22,26.21S-125.75,966.03-125.75,951.56z M-85.72,951.56v-0.14c0-7.27-5.26-13.61-12.96-13.61
		c-7.63,0-12.75,6.19-12.75,13.46v0.14c0,7.27,5.26,13.61,12.89,13.61C-90.83,965.02-85.72,958.83-85.72,951.56z"/>
</g>
<g>
	<path class="st1" d="M438.37,926.21h13.97v38.16h24.41v12.24h-38.38V926.21z"/>
	<path class="st1" d="M483.01,926.21h14.04v50.4h-14.04V926.21z"/>
	<path class="st1" d="M502.23,926.21h15.63l11.45,31.9l11.45-31.9h15.34l-20.45,50.76h-12.96L502.23,926.21z"/>
	<path class="st1" d="M560.98,926.21h40.54v11.88h-26.71v7.63H599v11.02h-24.19v7.99h27.07v11.88h-40.9V926.21z"/>
	<path class="st1" d="M628.95,926.21h14.76l12.03,19.51l12.03-19.51h14.76v50.4h-13.9v-28.95l-12.89,19.73h-0.29l-12.82-19.59v28.8
		h-13.68V926.21z"/>
	<path class="st1" d="M708.87,925.85h13.47l21.46,50.76h-14.98l-3.67-9H705.7l-3.6,9h-14.69L708.87,925.85z M721.11,956.74
		l-5.62-14.33l-5.69,14.33H721.11z"/>
	<path class="st1" d="M748.69,926.21h23.83c7.7,0,13.03,2.02,16.42,5.47c2.95,2.88,4.46,6.77,4.46,11.74v0.14
		c0,7.7-4.1,12.82-10.37,15.48l12.03,17.57h-16.13l-10.15-15.27h-0.14h-5.98v15.27h-13.97V926.21z M771.87,950.4
		c4.75,0,7.49-2.3,7.49-5.98v-0.14c0-3.96-2.88-5.98-7.56-5.98h-9.14v12.1H771.87z"/>
	<path class="st1" d="M800.45,926.21h13.97v20.45l17.35-20.45h16.56l-19.08,21.67l19.73,28.73h-16.78l-12.67-18.72l-5.11,5.69v13.03
		h-13.97V926.21z"/>
	<path class="st1" d="M853.01,926.21h40.54v11.88h-26.71v7.63h24.19v11.02h-24.19v7.99h27.07v11.88h-40.9V926.21z"/>
	<path class="st1" d="M913.35,938.45h-15.12v-12.24h44.21v12.24h-15.12v38.16h-13.97V938.45z"/>
	<path class="st1" d="M948.84,926.21h14.04v50.4h-14.04V926.21z"/>
	<path class="st1" d="M972.1,926.21h13.03l20.74,26.64v-26.64h13.83v50.4h-12.24l-21.53-27.65v27.65H972.1V926.21z"/>
	<path class="st1" d="M1026.89,951.56v-0.14c0-14.69,11.52-26.21,27.15-26.21c8.86,0,15.12,2.74,20.45,7.34l-8.21,9.86
		c-3.6-3.02-7.2-4.75-12.17-4.75c-7.27,0-12.89,6.12-12.89,13.83v0.14c0,8.14,5.69,13.97,13.68,13.97c3.38,0,5.98-0.72,8.06-2.09
		v-6.12h-9.94v-10.22h23.19v22.68c-5.33,4.39-12.75,7.78-21.89,7.78C1038.63,977.62,1026.89,966.82,1026.89,951.56z"/>
</g>
<g>
	<path class="st1" d="M1800.3,926.21h19.44c18,0,28.44,10.37,28.44,24.91v0.14c0,14.55-10.58,25.35-28.73,25.35h-19.15V926.21z
		 M1819.95,964.23c8.35,0,13.9-4.61,13.9-12.75v-0.14c0-8.06-5.54-12.75-13.9-12.75h-5.69v25.63H1819.95z"/>
	<path class="st1" d="M1855.67,926.21h14.04v50.4h-14.04V926.21z"/>
	<path class="st1" d="M1877.19,951.56v-0.14c0-14.69,11.52-26.21,27.15-26.21c8.86,0,15.12,2.74,20.45,7.34l-8.21,9.86
		c-3.6-3.02-7.2-4.75-12.17-4.75c-7.27,0-12.89,6.12-12.89,13.83v0.14c0,8.14,5.69,13.97,13.68,13.97c3.38,0,5.98-0.72,8.06-2.09
		v-6.12h-9.94v-10.22h23.19v22.68c-5.33,4.39-12.75,7.78-21.89,7.78C1888.93,977.62,1877.19,966.82,1877.19,951.56z"/>
	<path class="st1" d="M1934.58,926.21h14.04v50.4h-14.04V926.21z"/>
	<path class="st1" d="M1970.14,938.45h-15.12v-12.24h44.21v12.24h-15.12v38.16h-13.97V938.45z"/>
	<path class="st1" d="M2016.3,925.85h13.47l21.46,50.76h-14.98l-3.67-9h-19.44l-3.6,9h-14.69L2016.3,925.85z M2028.54,956.74
		l-5.62-14.33l-5.69,14.33H2028.54z"/>
	<path class="st1" d="M2056.11,926.21h13.97v38.16h24.41v12.24h-38.38V926.21z"/>
</g>
<g>
	<path class="st1" d="M2918.24,914.47h25.85c6.34,0,10.8,1.58,13.75,4.54c2.02,2.02,3.24,4.68,3.24,8.14v0.14
		c0,5.83-3.31,9.29-7.78,11.23c6.12,2.02,10.01,5.47,10.01,12.31v0.14c0,8.64-7.06,13.9-19.08,13.9h-25.99V914.47z M2940.63,934.56
		c4.25,0,6.62-1.44,6.62-4.39v-0.14c0-2.74-2.16-4.32-6.34-4.32h-9.07v8.86H2940.63z M2942.65,953.64c4.25,0,6.7-1.66,6.7-4.61
		v-0.14c0-2.74-2.16-4.54-6.84-4.54h-10.66v9.29H2942.65z"/>
	<path class="st1" d="M2969.72,914.47h23.83c7.71,0,13.03,2.02,16.42,5.47c2.95,2.88,4.46,6.77,4.46,11.74v0.14
		c0,7.7-4.1,12.82-10.37,15.48l12.02,17.57h-16.13l-10.15-15.27h-0.14h-5.98v15.27h-13.97V914.47z M2992.9,938.66
		c4.75,0,7.49-2.3,7.49-5.98v-0.14c0-3.96-2.88-5.98-7.56-5.98h-9.15v12.1H2992.9z"/>
	<path class="st1" d="M3038.05,914.11h13.46l21.46,50.76h-14.98l-3.67-9h-19.44l-3.6,9h-14.69L3038.05,914.11z M3050.29,945
		l-5.62-14.33l-5.69,14.33H3050.29z"/>
	<path class="st1" d="M3077.86,914.47h13.03l20.74,26.64v-26.64h13.82v50.4h-12.24l-21.53-27.65v27.65h-13.83V914.47z"/>
	<path class="st1" d="M3134.38,914.47h19.44c18,0,28.44,10.37,28.44,24.91v0.14c0,14.55-10.59,25.35-28.73,25.35h-19.15V914.47z
		 M3154.04,952.49c8.35,0,13.9-4.61,13.9-12.75v-0.14c0-8.06-5.54-12.75-13.9-12.75h-5.69v25.63H3154.04z"/>
	<path class="st1" d="M3189.75,914.47h14.04v50.4h-14.04V914.47z"/>
	<path class="st1" d="M3213.01,914.47h13.03l20.74,26.64v-26.64h13.83v50.4h-12.24l-21.53-27.65v27.65h-13.82V914.47z"/>
	<path class="st1" d="M3267.8,939.81v-0.14c0-14.69,11.52-26.21,27.15-26.21c8.86,0,15.12,2.74,20.45,7.34l-8.21,9.86
		c-3.6-3.02-7.2-4.75-12.17-4.75c-7.27,0-12.89,6.12-12.89,13.83v0.14c0,8.14,5.69,13.97,13.68,13.97c3.38,0,5.98-0.72,8.06-2.09
		v-6.12h-9.94v-10.22h23.19v22.68c-5.33,4.39-12.75,7.78-21.89,7.78C3279.54,965.88,3267.8,955.08,3267.8,939.81z"/>
</g>
<g>
	<path class="st2" d="M-515.69,285.18l-29.21,143.3l124.53,43.01l123.89-41.72l-29.53-146.35l44.29-48.78l-67.4-76.39l-71.25,31.45
		l-71.89-31.45l-69.65,76.39L-515.69,285.18z M-420.37,450.3l-48.62-16.37l48.62-33.22l47.18,33.22L-420.37,450.3z M-488.75,183.6
		l68.35,26.96l65.44-26.96l46.16,50.07l-39.6,44.29l28.64,139.61l-30.11,5.78l-64.93-42.37v-39.16l45.03-25.83l-8.24-66.92h28.21
		v-20h-54.53l10.91,77h-56.49l14.12-77h-65.47l3.85,20h34.66l-13.48,68.36l43.33,25.76l1.93,40.08l-61.62,40.26l-26.96-5.87
		l26.96-140.62l-39.48-44.31L-488.75,183.6z"/>
	<path class="st2" d="M-129.8,240.97l-93-52.23v-88.43l-117.9-67l-78.7,44.44l-78.63-44.44l-117.77,67v88.43l-92,52.23v133.19
		l92,52.91v90.39l123.48,63.78l72.88-41.73l73.01,41.73l123.63-63.78v-90.39l93-52.91V240.97z M-340.6,55.45l98.81,56.06v66.35
		L-399.51,88.8L-340.6,55.45z M-241.8,199.98V415.9l-177,101.42l-177-101.42V199.98l177-100.11L-241.8,199.98z M-595.8,111.51
		l98.14-56.06l59.24,33.36l-157.38,89.05V111.51z M-688.8,362.99V252.21l73-41.35v194.02L-688.8,362.99z M-492.42,559.32
		l-103.38-53.59v-67.64l157.58,90.32L-492.42,559.32z M-241.8,505.73l-104.04,53.59l-53.87-30.91l157.91-90.32V505.73z
		 M-149.8,362.99l-73,41.89V210.86l73,41.35V362.99z"/>
</g>
<path class="st2" d="M1613.25,58.74l-225,129.08v258.29l225,129.08l225-129.08V187.83L1613.25,58.74z M1819.25,301.75l-117.4-126.57
	l43.09-19.41l74.32,43.22V301.75z M1732.6,486l-109.35,61.49v-77.22l97.54-32.51L1732.6,486z M1507,436.28l96.25,34.07v77.14
	l-108.31-62.74L1507,436.28z M1617.43,452.41l-48.62-16.37l48.62-33.22l47.18,33.22L1617.43,452.41z M1690.66,286.17l-0.75,0.17
	l9.29,41.49l18.84,91.84l-31.99,5.78l-66.81-42.37v-39.16l46.91-28.04l-6.37-69.12h24.45v-19h-50.77l10.91,77h-56.49l14.12-77
	h-65.47l3.85,19h34.66l-13.48,70.56l43.33,26.86l1.93,40.63l-61.62,40.53l-26.96-5.73l26.96-140.55l-39.48-44.28l5.25-5.94
	l41.22-41.92l31.47,12.42l32.27,14.54l23.11-10.15l43.79-18.04l46.16,50.07l-39.6,44.29L1690.66,286.17z M1689.04,160.76l-0.36-0.41
	l-61.37,27.09l42.87-76.42l57.32,32.84L1689.04,160.76z M1545.54,160.35l-0.45,0.5l-37.44-16.87l57.27-32.81l39.16,74.8
	L1545.54,160.35z M1653.47,101.45l-37.19,66.3l-34.64-66.17l36.03-20.64L1653.47,101.45z M1484.82,155.8l45.52,20.02l-54.99,60.92
	l-1.76,0.17l-66.34,65.52V198.99L1484.82,155.8z M1407.25,329.9l79.63-78.76l34.14,36.14l-8.79,45.81l-33.64,141.64l-71.34-39.78
	V329.9z M1749.88,475.98l-18.06-85.62l-20.59-104.84l32.38-37.82l75.64,82.09v105.17L1749.88,475.98z"/>
<g>
	<path class="st2" d="M1233.89,276.73V158.1c15-4.12,23.02-16.59,23.02-31.29c0-18.05-14.73-32.74-32.78-32.74
		c-18.05,0-33.04,14.69-33.04,32.74c0,14.7,11.81,27.16,22.81,31.29v111.5l-35.28,41.35l14.78,60.32
		c-10.45,5.48-17.53,16.41-17.53,29c0,18.05,14.72,32.74,32.77,32.74c18.05,0,32.75-14.69,32.75-32.74
		c0-16.75-12.65-30.58-28.89-32.49L1200.03,316L1233.89,276.73z M1224.08,113.33c7.43,0,13.48,6.05,13.48,13.48
		c0,7.43-6.05,13.48-13.48,13.48s-13.48-6.05-13.48-13.48C1210.6,119.38,1216.65,113.33,1224.08,113.33z M1222.15,400.26
		c0,7.43-6.05,13.48-13.48,13.48c-7.43,0-13.48-6.05-13.48-13.48c0-7.43,6.05-13.48,13.48-13.48
		C1216.1,386.78,1222.15,392.83,1222.15,400.26z"/>
	<path class="st2" d="M790.25,441.53l38.53-172.78l-45.88-45.78V77.22c15-4.12,23.21-16.59,23.21-31.29
		c0-18.05-14.64-32.74-32.69-32.74c-18.05,0-32.68,14.69-32.68,32.74c0,14.7,11.16,27.16,23.16,31.29v153.71l43.91,43.94
		l-36.25,162.07c-17.15,1.01-30.81,15.24-30.81,32.64c0,18.05,14.68,32.74,32.73,32.74s32.73-14.69,32.73-32.74
		C806.21,457.67,799.79,447.25,790.25,441.53z M773.47,32.46c7.43,0,13.48,6.05,13.48,13.48s-6.05,13.48-13.48,13.48
		c-7.43,0-13.48-6.05-13.48-13.48S766.04,32.46,773.47,32.46z M773.47,483.06c-7.43,0-13.48-6.05-13.48-13.48
		c0-7.43,6.05-13.48,13.48-13.48c7.43,0,13.48,6.05,13.48,13.48C786.95,477.02,780.9,483.06,773.47,483.06z"/>
	<path class="st2" d="M1094.89,501.41V384.86l-29.93-143.63l44.33-48.58l-0.1,0.05h0.7V11.75c16-4.12,23.39-16.59,23.39-31.29
		c0-18.05-14.54-32.74-32.59-32.74s-32.82,14.69-32.82,32.74c0,14.7,12.02,27.16,23.02,31.29V171.9l-42-48.01V50.26
		c15-4.12,23.08-16.59,23.08-31.29c0-18.05-14.7-32.74-32.75-32.74c-18.05,0-33.09,14.69-33.09,32.74
		c0,14.7,11.76,27.16,22.76,31.29v71.25l-50,22.1V84.92c16-4.12,23.42-16.59,23.42-31.29c0-18.05-14.53-32.74-32.58-32.74
		c-18.05,0-32.84,14.69-32.84,32.74c0,14.7,12,27.16,23,31.29v58.03l-50-21.9V50.26c16-4.12,23.26-16.59,23.26-31.29
		c0-18.05-14.61-32.74-32.66-32.74s-32.72,14.69-32.72,32.74c0,14.7,11.12,27.16,23.12,31.29v74.42l-43,46.46V11.75
		c16-4.12,23.45-16.59,23.45-31.29c0-18.05-14.52-32.74-32.57-32.74c-18.05,0-32.86,14.69-32.86,32.74
		c0,14.7,11.98,27.16,22.98,31.29v180.51l0.04,0.18l46.32,50.55L846.1,386.3l2.44,113.62c-13.37,4.12-23.1,16.59-23.1,31.29
		c0,18.05,14.69,32.74,32.74,32.74c18.05,0,32.77-14.69,32.77-32.74c0-14.7-8.07-27.16-23.07-31.29V393.78l42,14.63v49.14
		c-11,4.12-22.96,16.59-22.96,31.29c0,18.05,14.76,32.74,32.81,32.74c18.05,0,32.5-14.69,32.5-32.74c0-14.7-7.35-27.16-23.35-31.29
		v-42.49l31,10.64v143.54c-11,4.12-22.92,16.59-22.92,31.29c0,18.05,14.78,32.74,32.83,32.74c18.05,0,32.47-14.69,32.47-32.74
		c0-14.7-7.37-27.16-23.37-31.29V426.33l31-10.38v41.6c-11,4.12-22.89,16.59-22.89,31.29c0,18.05,14.8,32.74,32.85,32.74
		c18.05,0,32.44-14.69,32.44-32.74c0-14.7-7.4-27.16-23.4-31.29v-48.09l47-15.56v105.11c-16,2.74-27.01,16.12-27.01,32.19
		c0,18.05,14.66,32.74,32.71,32.74c18.05,0,32.64-14.69,32.64-32.74C1114.24,517.97,1106.89,506.56,1094.89,501.41z M1100.83-33.02
		c7.43,0,13.48,6.05,13.48,13.48s-6.05,13.48-13.48,13.48c-7.43,0-13.48-6.05-13.48-13.48S1093.4-33.02,1100.83-33.02z
		 M838.94-33.02c7.43,0,13.48,6.05,13.48,13.48s-6.05,13.48-13.48,13.48s-13.48-6.05-13.48-13.48S831.51-33.02,838.94-33.02z
		 M858.2,544.69c-7.43,0-13.48-6.05-13.48-13.48s6.05-13.48,13.48-13.48s13.48,6.05,13.48,13.48S865.63,544.69,858.2,544.69z
		 M919.82,502.32c-7.43,0-13.48-6.05-13.48-13.48c0-7.43,6.05-13.48,13.48-13.48c7.43,0,13.48,6.05,13.48,13.48
		C933.3,496.27,927.25,502.32,919.82,502.32z M1019.96,502.32c-7.43,0-13.48-6.05-13.48-13.48c0-7.43,6.05-13.48,13.48-13.48
		c7.43,0,13.48,6.05,13.48,13.48C1033.44,496.27,1027.39,502.32,1019.96,502.32z M1039.21,5.5c7.43,0,13.48,6.05,13.48,13.48
		c0,7.43-6.05,13.48-13.48,13.48c-7.43,0-13.48-6.05-13.48-13.48C1025.73,11.54,1031.78,5.5,1039.21,5.5z M969.89,40.16
		c7.43,0,13.48,6.05,13.48,13.48c0,7.43-6.05,13.48-13.48,13.48s-13.48-6.05-13.48-13.48C956.41,46.21,962.46,40.16,969.89,40.16z
		 M900.56,5.5c7.43,0,13.48,6.05,13.48,13.48c0,7.43-6.05,13.48-13.48,13.48c-7.43,0-13.48-6.05-13.48-13.48
		C887.08,11.54,893.13,5.5,900.56,5.5z M969.89,614.01c-7.43,0-13.48-6.05-13.48-13.48c0-7.43,6.05-13.48,13.48-13.48
		s13.48,6.05,13.48,13.48C983.37,607.96,977.32,614.01,969.89,614.01z M970.68,408.12l-37.51-12.63l37.51-36.96l37.49,36.58
		L970.68,408.12z M1027.99,388.71l-49.1-49.91v-39.16l43.72-27.43l-9.56-68.51h31.84v-19h-58.16l10.91,77h-56.49l14.12-77h-65.47
		l3.85,19h34.66l-13.48,69.95l43.33,26.55l1.93,40.48l-45.41,48.01l-43.18-13.32l26.96-140.57l-39.48-44.29l43.14-49.1l57.77,22.86
		v1.43h3.03l7.73,3.05l7.4-3.05h0.84v-0.98l56.89-23.31l46.31,50.07l-39.52,44.29l28.53,139.61L1027.99,388.71z M1081.58,544.69
		c-7.43,0-13.48-6.05-13.48-13.48s6.05-13.48,13.48-13.48s13.48,6.05,13.48,13.48S1089.01,544.69,1081.58,544.69z"/>
	<path class="st2" d="M756.14,400.26c0-11.19-5.65-21.08-14.24-26.98l14.84-62.34l-35.85-41.35V158.1c16-4.12,23.4-16.59,23.4-31.29
		c0-18.05-14.54-32.74-32.59-32.74s-32.83,14.69-32.83,32.74c0,14.7,12.02,27.16,23.02,31.29v118.63l33.93,40.36l-12.35,52.61
		c-0.03,0-0.05,0-0.07,0c-18.05,0-32.74,13.6-32.74,31.65c0,18.05,14.69,32.19,32.74,32.19
		C741.45,433.54,756.14,418.31,756.14,400.26z M711.85,113.33c7.43,0,13.48,6.05,13.48,13.48c0,7.43-6.05,13.48-13.48,13.48
		c-7.43,0-13.48-6.05-13.48-13.48C698.37,119.38,704.41,113.33,711.85,113.33z M723.4,413.74c-7.43,0-13.48-6.05-13.48-13.48
		c0-7.43,6.05-13.48,13.48-13.48c7.43,0,13.48,6.05,13.48,13.48C736.88,407.69,730.83,413.74,723.4,413.74z"/>
	<path class="st2" d="M1158.32,437.05l-34.9-162.09l44.47-43.98V77.22c16-4.12,23.28-16.59,23.28-31.29
		c0-18.05-14.6-32.74-32.65-32.74c-18.05,0-32.74,14.69-32.74,32.74c0,14.7,11.11,27.16,23.11,31.29v145.7l-46.39,45.74
		l36.88,172.03c-10.33,5.51-17.38,16.39-17.38,28.9c0,18.05,14.69,32.74,32.74,32.74c18.05,0,32.74-14.69,32.74-32.74
		C1187.49,452.74,1174.7,438.83,1158.32,437.05z M1158.6,32.46c7.43,0,13.48,6.05,13.48,13.48s-6.05,13.48-13.48,13.48
		s-13.48-6.05-13.48-13.48S1151.17,32.46,1158.6,32.46z M1154.75,483.06c-7.43,0-13.48-6.05-13.48-13.48
		c0-7.43,6.05-13.48,13.48-13.48c7.43,0,13.48,6.05,13.48,13.48C1168.23,477.02,1162.19,483.06,1154.75,483.06z"/>
</g>
<g>
	<g>
		<path class="st2" d="M407.32,212.02l-67.4-76.39l-71.25,31.45l-71.89-31.45l-69.65,76.39l46.22,50.55l-29.21,143.3l124.53,43.01
			l123.89-41.72L363.03,260.8L407.32,212.02z M268.68,427.69l-48.62-16.37l48.62-33.22l47.18,33.22L268.68,427.69z M369.29,394.96
			l-30.69,5.78l-65.51-42.36v-39.16l45.61-28.72l-7.67-69.8h28.05v-19h-54.37l10.91,77h-56.49l14.12-77H187.8l3.85,19h34.66
			l-13.48,71.25l43.33,27.2l1.93,40.8l-61.62,40.62l-26.96-5.69l26.96-140.53l-39.48-44.27l43.32-49.09l68.35,26.97l65.44-26.96
			l46.16,50.07l-39.6,44.29L369.29,394.96z"/>
	</g>
	<g>
		<path class="st2" d="M267.1,586.19L124.45,474.03L12.41,296.62L96.29,64.75l119.8-53.17l51.48,97.07l55.77-97.06L439,64.82
			l85.13,235.35L414.54,475.4L267.1,586.19z M138.96,460.95l128.4,100.96l132.75-99.75L502.83,297.9l-79.2-218.95l-92.36-42.5
			l-64.38,112.04L207.49,36.47l-95.88,42.55L33.73,294.31L138.96,460.95z"/>
	</g>
</g>
<path class="st2" d="M-920.36,112.35L-920.36,112.35C-920.36,112.34-920.36,112.34-920.36,112.35l-0.01-0.01
	c-0.08-0.08-0.16-0.16-0.24-0.24l-0.35-0.35c-0.01-0.01-0.02-0.01-0.02-0.02l-0.01-0.01l0,0c-55.57-54.87-148.81-54.7-204.05,0.54
	l-36.43,36.43l-33.21-33.2c-27.02-27.02-62.47-42.23-99.84-42.82c-37.83-0.68-73.28,13.84-100.09,40.65l-1.1,1.1
	c-56.43,56.42-57.82,150.37-3.05,205.14l232.8,232.8l138.8-138.8l0.66,0.65c3.88-3.88,7.41-7.88,10.68-11.99l90.37-90.37
	C-868.29,254.71-866.13,167.25-920.36,112.35z M-1028.14,391.27l-41.1,41.1c9.78-26.06,11.39-49.81,10.39-67.47l0.78-0.26l-1.27-6.3
	c-1.4-14.25-4.26-23.29-4.64-24.41l-0.27,0.09l-19.07-94.53l26.78-29.5c22.58,29.41,49.44,73.57,49.99,117.85
	C-1006.27,351.27-1013.53,372.55-1028.14,391.27z M-1324.02,327.84c0.55-44.32,27.47-88.53,50.06-117.94l28.42,31.09l-19.87,97.47
	c-2.88,8.47-14,47.1,2.88,94.03l-29.93-29.93l0,0C-1313.74,381.26-1324.37,356.12-1324.02,327.84z M-1405.68,154.76
	c40.77-48.65,115.55-32.81,170.29-11.48c0,0-28.72,28.74-39.82,41.75c-16.26-12.99-52.66-37.19-91.42-30.38
	c-19.77,3.48-37.15,14.47-51.95,32.75C-1415.76,176.11-1411.45,165.12-1405.68,154.76z M-1108.08,154.12l39.47,42.82l-33.86,37.88
	l24.5,119.39l-25.72,4.94l-55.5-36.23v-33.48l38.48-22.29l-7.08-57.42h26.6v-16h-49.11l9.33,66h-48.31l12.08-66h-55.99l3.29,16
	h29.64l-11.53,58.65l37.05,22.12l1.65,34.32l-52.7,34.45l-23.06-5.01l23.05-120.25l-33.76-37.89l37.05-42l51.69,20.38
	c1.44,0.85,2.26,1.36,2.37,1.42l0.25-0.4l4.14,1.63l3.85-1.59l0.28,0.47c0.15-0.09,1.55-0.89,3.99-2.23L-1108.08,154.12z
	 M-1164.02,382.2l-41.58-14l41.58-28.41l40.12,28.25c-5.06,1.44-12.85,3.95-21.83,7.81L-1164.02,382.2z M-1207.01,427.5
	c-8.16,15.74-10.8,33.16-7.98,52.01c-37.62-42.31-41.99-84.41-39.74-110.52l38.56,13.32l-0.06,0.26c0.08,0.02,1.24,0.29,3.2,0.82
	l19.32,6.67c4.15,1.72,8.63,3.77,13.22,6.17C-1190.88,404.48-1200.41,414.77-1207.01,427.5z M-1146.52,394.42l71.21-23.98
	c0.54,26.82-5.9,67.25-39.94,106.82c2.29-17.99-0.47-34.65-8.31-49.77c-6.6-12.73-16.13-23.01-26.52-31.27
	C-1148.89,395.6-1147.7,395-1146.52,394.42z M-1092.26,144.71c58.62-22.13,140.37-39.85,182.04,10.36l0.26-0.22
	c6,12.1,9.82,25,11.44,38.19c-15.42-20.89-34.14-33.64-55.93-37.96c-42.16-8.35-83.12,17.4-100.53,30.39
	C-1066.27,172.2-1092.26,144.71-1092.26,144.71z M-1113.39,123.9c44.98-44.98,118.37-48.72,168.2-11.31
	c-61.46-19.95-142.62,10.09-188.25,31.36L-1113.39,123.9z M-1294.77,89.13c33.06,0.53,64.48,14.02,88.46,38l19.98,19.98
	c-40.2-20.65-117.87-53.4-179.59-36.36c20.24-14.07,44.12-21.64,69.16-21.64C-1296.1,89.11-1295.43,89.12-1294.77,89.13z
	 M-1422.47,224.34c15.59-31.32,35.3-49.33,58.64-53.46c31.98-5.65,63.88,15.62,78.19,26.95c-24.33,31.18-54.19,79.53-54.84,129.75
	c-0.14,10.55,1.05,20.7,3.5,30.45l-50.12-50.12C-1409.69,285.32-1421.43,255.17-1422.47,224.34z M-1191.35,503.66l0.32-0.13
	c-10.93-26.04-11.4-49.05-1.39-68.39c6.39-12.34,16.39-22.1,27.14-29.69c10.74,7.59,20.75,17.34,27.14,29.69
	c9.82,18.98,9.53,41.51-0.82,66.96l-26.98,26.98L-1191.35,503.66z M-993.18,356.31c2.17-9.22,3.21-18.8,3.09-28.73
	c-0.64-49.96-30.2-98.08-54.46-129.27c15.7-11.56,51.75-34.02,86.91-27.06c23.88,4.73,43.68,22.62,58.87,53.11
	c-3.7,27.27-16.49,54.03-38.3,75.85L-993.18,356.31z"/>
</svg>
