<?xml version="1.0" encoding="UTF-8" standalone="no"?>
<!-- Generator: Adobe Illustrator 23.0.2, SVG Export Plug-In . SVG Version: 6.00 Build 0)  -->

<svg
   xmlns:dc="http://purl.org/dc/elements/1.1/"
   xmlns:cc="http://creativecommons.org/ns#"
   xmlns:rdf="http://www.w3.org/1999/02/22-rdf-syntax-ns#"
   xmlns:svg="http://www.w3.org/2000/svg"
   xmlns="http://www.w3.org/2000/svg"
   xmlns:sodipodi="http://sodipodi.sourceforge.net/DTD/sodipodi-0.dtd"
   xmlns:inkscape="http://www.inkscape.org/namespaces/inkscape"
   version="1.1"
   id="Camada_1"
   x="0px"
   y="0px"
   viewBox="0 0 530.5 600.53"
   style="enable-background:new 0 0 530.5 600.53;"
   xml:space="preserve"
   sodipodi:docname="livemarketingR.svg"
   inkscape:version="0.92.4 (5da689c313, 2019-01-14)"><metadata
   id="metadata457"><rdf:RDF><cc:Work
       rdf:about=""><dc:format>image/svg+xml</dc:format><dc:type
         rdf:resource="http://purl.org/dc/dcmitype/StillImage" /><dc:title /></cc:Work></rdf:RDF></metadata><defs
   id="defs455" /><sodipodi:namedview
   pagecolor="#ffffff"
   bordercolor="#666666"
   borderopacity="1"
   objecttolerance="10"
   gridtolerance="10"
   guidetolerance="10"
   inkscape:pageopacity="0"
   inkscape:pageshadow="2"
   inkscape:window-width="2560"
   inkscape:window-height="1017"
   id="namedview453"
   showgrid="false"
   inkscape:zoom="0.049123272"
   inkscape:cx="5827.7148"
   inkscape:cy="-1264.7637"
   inkscape:window-x="1358"
   inkscape:window-y="-8"
   inkscape:window-maximized="1"
   inkscape:current-layer="Camada_1" />
<style
   type="text/css"
   id="style2">
	.st0{fill:#424242;}
	.st1{fill:#FFFFFF;}
	.st2{fill:#967443;}
</style>













<g
   id="g448"
   style="fill:#d82f5a;fill-opacity:1">
	<g
   id="g442"
   style="fill:#d82f5a;fill-opacity:1">
		<path
   class="st2"
   d="M407.32,212.02l-67.4-76.39l-71.25,31.45l-71.89-31.45l-69.65,76.39l46.22,50.55l-29.21,143.3l124.53,43.01    l123.89-41.72L363.03,260.8L407.32,212.02z M268.68,427.69l-48.62-16.37l48.62-33.22l47.18,33.22L268.68,427.69z M369.29,394.96    l-30.69,5.78l-65.51-42.36v-39.16l45.61-28.72l-7.67-69.8h28.05v-19h-54.37l10.91,77h-56.49l14.12-77H187.8l3.85,19h34.66    l-13.48,71.25l43.33,27.2l1.93,40.8l-61.62,40.62l-26.96-5.69l26.96-140.53l-39.48-44.27l43.32-49.09l68.35,26.97l65.44-26.96    l46.16,50.07l-39.6,44.29L369.29,394.96z"
   id="path440"
   style="fill:#d82f5a;fill-opacity:1" />
	</g>
	<g
   id="g446"
   style="fill:#d82f5a;fill-opacity:1">
		<path
   class="st2"
   d="M267.1,586.19L124.45,474.03L12.41,296.62L96.29,64.75l119.8-53.17l51.48,97.07l55.77-97.06L439,64.82    l85.13,235.35L414.54,475.4L267.1,586.19z M138.96,460.95l128.4,100.96l132.75-99.75L502.83,297.9l-79.2-218.95l-92.36-42.5    l-64.38,112.04L207.49,36.47l-95.88,42.55L33.73,294.31L138.96,460.95z"
   id="path444"
   style="fill:#d82f5a;fill-opacity:1" />
	</g>
</g>

</svg>