<svg xmlns="http://www.w3.org/2000/svg" viewBox="0 0 388.6 153.1"><defs><style>.cls-1{fill:#fff;}</style></defs><title>Ativo 1</title><g id="Camada_2" data-name="Camada 2"><g id="Camada_1-2" data-name="Camada 1"><path class="cls-1" d="M92.1,20.5V83.6a20.53,20.53,0,0,1-20.5,20.5H0V0H71.5A20.55,20.55,0,0,1,92.1,20.5ZM69.5,26.7A7.64,7.64,0,0,0,61.8,19H22.6V85.1H61.8a7.64,7.64,0,0,0,7.7-7.7Z"/><path class="cls-1" d="M195.3,0V83.6a20.53,20.53,0,0,1-20.5,20.5h-51a20.53,20.53,0,0,1-20.5-20.5V0h22.6V77.4a7.64,7.64,0,0,0,7.7,7.7H165a7.64,7.64,0,0,0,7.7-7.7V0Z"/><path class="cls-1" d="M229.1,19V42.6h54.1v19H229.1V77.5a7.64,7.64,0,0,0,7.7,7.7h56.6v19H227a20.53,20.53,0,0,1-20.5-20.5V0h86.9V19Z"/><path class="cls-1" d="M324.1,19V42.6h54.1v19H324.1V77.5a7.64,7.64,0,0,0,7.7,7.7h56.6v19H322a20.53,20.53,0,0,1-20.5-20.5V0h86.9V19Z"/><path class="cls-1" d="M15.8,146.6c0,4.4-1.7,6.5-5.3,6.5H0V128.8H9c4.2,0,7,1.6,7,6.2,0,2.9-.8,4.8-3.4,6C14.1,141.5,15.8,144.1,15.8,146.6Zm-5.4-16.5H1.3v10.4H7c3.7,0,7.8,0,7.8-5.4C14.8,132.6,13.3,130.1,10.4,130.1ZM1.3,151.9H9.1c3.5,0,5.5-1.1,5.5-5a5,5,0,0,0-4.7-5.3H1.3Z"/><path class="cls-1" d="M94.1,153.1H92.7l-4.4-9.6h-9l.1,9.6H78V128.8h9.9c3.9,0,6,3.2,6,7.2,0,3.1-1.4,6.6-4.3,7.3ZM92.5,136c0-3.8-1.9-6.1-4.7-6.1H79.2v12.2h7.4C89.8,142.1,92.5,141.4,92.5,136Z"/><path class="cls-1" d="M153.1,153.1l8.7-24.3h2c1.2,3,3.3,8.9,5.8,16,1,2.7,2,5.5,3,8.3h-1.4l-2.9-8.2H157.5l-2.7,8.2Zm9.7-23.3c-.4,1.3-1.4,4.1-2.1,5.8l-2.8,7.9h9.8Z"/><path class="cls-1" d="M238.7,138.2a20.41,20.41,0,0,0,4.2,1.8c3.2,1,7.2,2.4,7.2,6.6,0,3.6-2.9,6.4-7.3,6.4h-.9c-1.6,0-5.2-.4-7.6-5.5l1-.6c1.6,2.9,3.6,4.8,7.1,4.8,3.3,0,6.3-2.1,6.3-4.9,0-3.3-3.2-4.4-6.5-5.7a31.22,31.22,0,0,1-4.2-1.8,5.13,5.13,0,0,1-2.9-4.6c0-3.5,2.9-6.1,6.9-6.1,2.9,0,5.2,1.2,7.2,4.3l-.9.6c-1.7-2.1-3.1-3.8-6.1-3.8-3.4,0-5.7,2-5.7,4.7A3.86,3.86,0,0,0,238.7,138.2Z"/><path class="cls-1" d="M311.9,153.1V128.8h1.3v24.3Z"/><path class="cls-1" d="M388.6,152.2v.9H375V128.8h1.3V152h12.3Z"/></g></g></svg>