<?xml version="1.0" encoding="utf-8"?>
<!-- Generator: Adobe Illustrator 22.1.0, SVG Export Plug-In . SVG Version: 6.00 Build 0)  -->
<svg version="1.1" id="Layer_1" xmlns="http://www.w3.org/2000/svg" xmlns:xlink="http://www.w3.org/1999/xlink" x="0px" y="0px"
	 viewBox="0 0 388.6 599.2" style="enable-background:new 0 0 388.6 599.2;" xml:space="preserve">
<style type="text/css">
	.st0{fill:#64696C;}
	.st1{fill:#FFFFFF;}
</style>
<g>
	<g>
		<path class="st0" d="M369.9,97.9c1.8-0.2,3.8,0,5.4,0.9c0.9,0.5,1.6,1.3,2.2,2.2c0.6,0.9,1,1.8,1.3,2.8c0.7,1.9,1,4,1.8,5.9
			c0.7,1.7,1.7,3.3,2.3,5.1c0.3,0.9,0.6,1.8,0.7,2.7c0.1,0.9,0,1.9-0.3,2.8c-0.4,1.2-1.3,2.1-2.2,2.9c-1,0.8-2,1.5-3,2.2
			c-3.4,2.5-6.1,5.9-7.8,9.8c-0.4-1.9,0-4,1.2-5.6c0.6-0.8,1.4-1.5,2.1-2.2c0.7-0.7,1.4-1.5,1.8-2.4c0.6-1.4,0.5-3,0.1-4.5
			c-0.4-1.5-1.1-2.8-1.6-4.3c-0.9-2.2-1.4-4.5-2.2-6.7c-0.8-2.2-2-4.4-3.8-5.9c-2.2-1.8-5.3-2.5-8.1-2.2c-2.9,0.2-5.6,1.2-8.3,2.2
			c-5,2-9.9,4.4-14.7,7c-3.1,1.7-6.2,3.4-9.3,5.2c1.4-1.2,2.7-2.5,4.1-3.8c2.8-2.7,5.4-5.7,8.8-7.6c3.6-2.1,7.9-3,12-3.5
			c4.2-0.5,8.4-0.7,12.5-1.7C366.3,98.7,368.1,98.1,369.9,97.9z"/>
		<path class="st0" d="M41.4,72.2c2.4-2.4,5.5-3.9,8.8-4.8c3.3-0.9,6.7-1.1,10-1c5.3,0.1,10.6,0.9,15.9,0.4
			c8.5-0.8,16.4-5,22.6-10.9c1.9-1.9,3.7-3.9,4.8-6.4c0.5-1.2,0.9-2.5,1-3.9c0.1-1.3-0.1-2.7-0.7-3.9c-0.9-2-2.6-3.5-4.6-4.5
			c-2-1-4.1-1.4-6.3-1.6c-5-0.5-10.2,0.1-15,1.6c-4.4,1.4-8.6,3.6-12.3,6.4c1.6-2.3,3.6-4.4,5.9-6c5.6-3.8,12.5-5,19.2-6.1
			c5.8-1,11.8-2,17.1-4.5c1.7-0.8,3.4-1.7,4.7-3.1c1.3-1.3,2.2-3.1,2.3-5c0-1.1-0.3-2.2-0.8-3.1c-0.5-1-1.3-1.8-2.2-2.4
			c-2.2-1.6-5.1-2.1-7.7-1.2c2.2-1.1,4.5-1.9,6.9-2.4c4.2-0.9,8.5-0.8,12.7-1c2.2-0.1,4.5-0.2,6.5-1.1c1.7-0.8,3-2,4.6-3.1
			c1.6-1.1,3.4-1.8,5.2-2.5c6.3-2.2,13.1-3,19.6-1.6c6.4,1.4,12.3,4.8,17.1,9.2c3.3,3.1,6.2,6.6,8.4,10.6c-0.1-1.1-0.1-2.1-0.1-3.2
			c0.1-1.3,0.2-2.7,0-4c-0.2-1.4-0.8-2.7-1.2-4c-0.5-1.4-0.8-2.8-1-4.2c1.3,1,2.2,2.4,2.6,4c0.4,1.5,0.3,3.1,0.6,4.7
			c0.4,1.9,1.5,3.5,2.7,5c0.5,0.7,1.1,1.5,1.6,2.2c0.9-1.4,1.5-3.1,1.6-4.8c0.2-2-0.2-4-0.2-6c0-1.4,0.3-2.9,0.7-4.3
			c0.5,1.8,0.8,3.6,1.2,5.5c0.6,3.3,0.9,6.7,1.1,10v0.1c0.1-3.4,0.5-6.7,1.1-10c0.3-1.8,0.7-3.7,1.2-5.5c0.5,1.4,0.7,2.8,0.7,4.3
			c0,2-0.4,4-0.2,6c0.2,1.7,0.7,3.3,1.6,4.8c0.6-0.7,1.1-1.4,1.6-2.2c1.1-1.5,2.2-3.2,2.7-5c0.4-1.5,0.2-3.1,0.6-4.7
			c0.4-1.6,1.3-3,2.6-4c-0.2,1.4-0.5,2.8-1,4.2c-0.4,1.3-1,2.6-1.2,4c-0.2,1.3,0,2.6,0,4c0,1.1,0,2.1-0.1,3.2
			c2.2-3.9,5.1-7.5,8.4-10.6c4.8-4.4,10.7-7.8,17.1-9.2c6.5-1.4,13.4-0.6,19.6,1.6c1.8,0.6,3.6,1.4,5.2,2.5c1.5,1,2.9,2.3,4.6,3.1
			c2,0.9,4.3,1.1,6.5,1.1c4.3,0.1,8.5,0.1,12.7,1c2.4,0.5,4.7,1.3,6.9,2.4c-2.6-0.8-5.5-0.4-7.7,1.2c-0.9,0.6-1.6,1.5-2.2,2.4
			c-0.5,1-0.8,2.1-0.8,3.1c0,1.9,1,3.7,2.3,5c1.3,1.3,3,2.3,4.7,3.1c5.4,2.5,11.3,3.5,17.1,4.5c6.7,1.1,13.6,2.2,19.2,6.1
			c2.3,1.6,4.3,3.6,5.9,6c-3.7-2.8-7.9-4.9-12.3-6.4c-4.8-1.5-10-2.2-15-1.6c-2.2,0.2-4.3,0.7-6.3,1.6c-2,1-3.7,2.5-4.6,4.5
			c-0.5,1.2-0.8,2.6-0.7,3.9c0.1,1.3,0.4,2.7,1,3.9c1.1,2.5,2.9,4.5,4.8,6.4c6.1,5.9,14.1,10.1,22.5,10.9c5.3,0.5,10.6-0.3,15.9-0.4
			c3.4-0.1,6.8,0.1,10,1c3.3,0.9,6.4,2.4,8.8,4.8c3.4,3.3,5.2,8.1,4.8,12.8c-1.5-2.5-3.4-4.7-5.6-6.6c-4.2-3.8-9.5-6.4-15-7.6
			c-5.2-1.1-10.5-1.1-15.7-1.9c-5.2-0.8-10.3-2.3-15.1-4.5c-4.4-2-8.7-4.4-12.4-7.5c-3.4-2.9-6.2-6.4-8.1-10.4
			c-0.9-1.9-1.5-3.9-1.8-5.9c-0.3-2-0.1-4.1,0.5-6.1c0.6-1.8,1.6-3.5,3-4.8c-2.6-1.9-5.1-3.8-7.7-5.8c-1.3-1-2.7-2.1-3.7-3.4
			c-1.1-1.3-1.9-2.9-2-4.5c-0.1-1.1,0.2-2.2,0.7-3.1c0.5-1,1.3-1.8,2.2-2.3c-3.8-1.2-8-1.4-11.9-0.5c-2,0.5-4,1.2-6,1.6
			c-2,0.4-4.2,0.4-6.1-0.5c-1.5-0.8-2.7-2.1-3.8-3.5c-1.1-1.4-2.1-2.8-3.4-3.8c-1.2-0.9-2.6-1.5-4-1.7c-1.5-0.3-3-0.2-4.4,0
			c-2.9,0.5-5.6,1.8-8.2,3.3c-6.1,3.5-11.7,7.8-16.1,13.2c-5.5,6.7-9.2,14.8-10.9,23.3c-2,10-1.4,20.4-1.1,30.7
			c0.6,19.1,0,38.2-1.7,57.2v-0.1c-1.7-19-2.3-38.1-1.7-57.2c0.3-10.2,0.9-20.6-1.1-30.7c-1.7-8.5-5.4-16.6-10.9-23.3
			C176.7,13,171.1,8.7,165,5.2c-2.6-1.5-5.3-2.8-8.2-3.3c-1.5-0.2-3-0.3-4.4,0c-1.5,0.3-2.9,0.8-4,1.7c-1.4,1-2.4,2.5-3.4,3.8
			c-1.1,1.4-2.2,2.7-3.8,3.5c-1.8,0.9-4,0.9-6.1,0.5c-2-0.4-4-1.1-6-1.6c-3.9-0.9-8.1-0.7-11.9,0.5c0.9,0.6,1.7,1.4,2.2,2.3
			c0.5,1,0.7,2.1,0.7,3.1c-0.1,1.7-0.9,3.2-2,4.5c-1.1,1.3-2.4,2.3-3.7,3.4c-2.5,2-5.1,3.9-7.7,5.8c1.4,1.3,2.4,3,3,4.8
			c0.7,2,0.8,4.1,0.5,6.1c-0.3,2-0.9,4-1.8,5.9c-1.9,4-4.7,7.5-8.1,10.4c-3.7,3.2-8,5.6-12.4,7.5c-4.8,2.1-9.9,3.7-15.1,4.5
			c-5.2,0.8-10.6,0.7-15.7,1.9c-5.5,1.2-10.8,3.8-15,7.6c-2.2,1.9-4,4.2-5.6,6.6C36.2,80.3,38.1,75.5,41.4,72.2z"/>
		<path class="st0" d="M3.6,117.7c0.1-0.9,0.4-1.8,0.7-2.7c0.7-1.7,1.7-3.3,2.3-5.1c0.7-1.9,1.1-3.9,1.8-5.9c0.3-1,0.8-1.9,1.3-2.8
			c0.6-0.9,1.3-1.6,2.2-2.2c1.6-1,3.5-1.2,5.4-0.9c1.8,0.2,3.6,0.8,5.4,1.2c4.1,1,8.3,1.2,12.5,1.7c4.2,0.5,8.4,1.4,12,3.5
			c3.4,2,6,4.9,8.8,7.6c1.3,1.3,2.7,2.6,4.1,3.8c-3.1-1.8-6.2-3.6-9.3-5.2c-4.8-2.6-9.7-5-14.7-7c-2.7-1.1-5.4-2-8.3-2.2
			c-2.9-0.2-5.9,0.4-8.1,2.2c-1.8,1.5-3,3.7-3.8,5.9c-0.8,2.2-1.4,4.5-2.2,6.7c-0.6,1.4-1.2,2.8-1.6,4.3c-0.4,1.5-0.5,3.1,0.1,4.5
			c0.4,0.9,1.1,1.7,1.8,2.4c0.7,0.7,1.5,1.4,2.1,2.2c1.1,1.6,1.6,3.7,1.2,5.6c-1.7-3.9-4.4-7.3-7.8-9.8c-1-0.7-2.1-1.4-3-2.2
			c-1-0.8-1.8-1.8-2.2-2.9C3.6,119.6,3.5,118.7,3.6,117.7z"/>
		<path class="st0" d="M14.4,280.3c-3.1,5-5.2,10.6-6.1,16.4c-4.2-12-6.6-24.7-7.1-37.4c-0.7-17.6,2.3-35.4,8.7-51.9
			c6-15.6,15-29.8,22.2-44.8c4.5-9.3,8.4-18.9,11.6-28.7c-3.1,12.2-6.7,24.3-11,36.1c-6.7,18.8-14.9,37.2-19,56.7
			c-2.7,12.7-3.6,25.8-1.9,38.7c0.2,1.2,0.3,2.4,0.9,3.5c0.3,0.5,0.6,1,1.1,1.5c0.4,0.4,1,0.7,1.6,0.8c0.9,0.2,1.7,0,2.5-0.3
			c0.8-0.3,1.5-0.8,2.3-1.3c2.1-1.2,4.4-2.1,6.8-2.6C22,270.6,17.7,275.1,14.4,280.3z"/>
		<path class="st0" d="M118.9,348c-2.5,2.3-4.6,4.9-6.4,7.7c-4,6.3-6.1,13.8-6.4,21.3c-0.2,3.9,0.2,7.8,1,11.6
			c-2.3-6-3.6-12.3-3.9-18.7c-0.3-7.3,0.8-14.7,3.2-21.6c-4.8,5.6-8.4,12.2-10.3,19.3c-1.6,5.9-2.1,12-2.3,18.1
			c-0.1,4.4,0,8.8,0.3,13.2c-12.8-12.4-23.3-27.2-30.8-43.4c-6.9-14.7-11.3-30.7-12-46.9c-0.4-8.2,0.2-16.5,1.8-24.6
			c-0.7,19.6,2.6,39.3,9.7,57.6c5.5,13.9,13.1,27,22.6,38.6c1.2-8.1,4.2-16,8.6-22.8c6-9.2,14.8-16.6,25-21L118.9,348z"/>
		<path class="st0" d="M123.7,259.7c-2.8-16.2-9.4-31.7-11-48.1c-0.2-2.4-0.3-4.8-0.7-7.2c-0.4-2.4-1-4.7-2.3-6.8
			c-1.4-2.3-3.4-4.1-5.6-5.5c-2.2-1.5-4.6-2.6-7-3.8c-4.9-2.4-9.8-5-15.2-6c-4.5-0.8-9.3-0.5-13.6,1.2c-3.2,1.3-6.2,3.2-8.6,5.8
			c2.1-3.5,5-6.6,8.5-8.9c1.9-1.3,4.1-2.3,6.3-2.9c2.2-0.6,4.6-0.7,6.9-0.3c4.1,0.9,7.6,3.6,11.1,6c2.6,1.7,5.2,3.2,8.1,4.4
			c2.2,0.9,4.4,1.6,6.7,2.2c1.8,0.5,3.7,0.9,5.6,1.2c-1.5-0.5-2.9-1.2-4.1-2.2c-1.7-1.4-3.1-3.2-4.8-4.5c-1.7-1.3-3.7-2.2-5.6-3
			c-2.2-1-4.3-1.9-6.4-3c2.2,0.5,4.3,1,6.5,1.5c1.1,0.2,2.1,0.5,3.2,0.5c1.1,0,2.2-0.3,3.1-0.9c0.6-0.5,1.1-1.1,1.4-1.9
			c0.3-0.7,0.3-1.6,0.1-2.3c-0.2-0.6-0.5-1.2-1-1.7c-0.4-0.5-0.9-1-1.5-1.4c-0.4-0.3-0.8-0.6-1.2-0.9l1.7-0.7
			c1.2,0.7,2.1,1.7,2.8,2.9c0.4,0.7,0.8,1.5,0.9,2.3c0.2,0.8,0.2,1.7,0,2.5c-0.3,1.2-1.1,2.3-1.3,3.5c-0.1,0.7-0.1,1.5,0.1,2.2
			c0.2,0.7,0.5,1.4,0.9,2.1c1.3,2.1,3.4,3.8,5.7,4.6c1.1,0.4,2.3,0.6,3.6,0.6c-1.3,1.1-2.4,2.5-3.2,4.1c-1.8,3.8-1.7,8.2-1.1,12.3
			c1.4,10.2,5.2,20.1,10.6,28.9c3.5,5.8,7.7,11.2,9.8,17.6c0.9,2.7,1.5,5.5,1.7,8.4c0.7,8.4-1.3,16.8-1.4,25.2
			c0,4.5,0.6,9.1,2.7,13.1c1,2,2.4,3.8,4.2,5.2c1.7,1.4,3.8,2.4,6.1,2.7c3.3,0.5,6.5-0.4,9.8-0.7c1.8-0.1,3.5-0.1,5.3,0.1
			c-4.4,0.4-8.6,2-12.1,4.6c-1.3,1-2.4,2-3.4,3.3c-1,1.3-1.7,2.7-2,4.3c-0.4,2-0.1,4.1,0.8,5.9c-6.5-6.4-11.5-14.4-14.4-23.1
			C125.5,289.2,126.1,274.1,123.7,259.7z"/>
		<path class="st0" d="M192.9,388.9c-2.1,5.4-6.5,9.6-10,14.1c-1.2,1.5-2.3,3.1-3.2,4.9c-0.8,1.7-1.4,3.7-1.4,5.6
			c0,1.9,0.5,3.7,1.5,5.3c0.7,1.1,1.6,2.1,2.6,2.9c0.5,0.3,0.9,0.6,1.4,0.9c-0.5-0.3-1-0.6-1.4-0.9c-7.4-4.8-14.3-10.2-20.7-16.2
			c-7.9-7.4-15-15.8-19.1-25.8c-2-4.8-3.2-10-3.6-15.2c1.4,10,5.6,19.7,12.1,27.5c5.2,6.3,11.8,11.4,19.1,14.8
			c0.1-3.2,1.4-6.4,3.6-8.7c1.9-1.9,4.4-3.2,6.8-4.4c2.5-1.2,5-2.3,7.1-4c2.2-1.8,3.9-4.2,5-6.8c0.6-1.5,1.1-3,1.4-4.6
			C194.6,381.9,194.2,385.6,192.9,388.9z"/>
		<path class="st0" d="M246.1,379.9c-4.1,10-11.3,18.4-19.1,25.8c-6.4,6-13.3,11.4-20.7,16.2c-0.4,0.3-0.9,0.7-1.4,0.9
			c0.5-0.3,0.9-0.6,1.4-0.9c1-0.8,1.9-1.8,2.6-2.9c1-1.6,1.5-3.5,1.5-5.3c0-1.9-0.6-3.9-1.4-5.6c-0.8-1.7-2-3.3-3.2-4.9
			c-3.6-4.6-7.9-8.7-10-14.1c-1.3-3.3-1.7-7-1.1-10.5c0.3,1.6,0.7,3.1,1.4,4.6c1.1,2.6,2.8,5,5,6.8c2.1,1.7,4.6,2.9,7.1,4
			c2.5,1.2,4.9,2.5,6.8,4.4c2.2,2.3,3.6,5.5,3.6,8.7c7.4-3.4,14-8.5,19.1-14.8c6.4-7.8,10.7-17.4,12.1-27.5
			C249.3,370,248,375.1,246.1,379.9z"/>
		<path class="st0" d="M262.4,301.8c-2.9,8.7-7.9,16.7-14.4,23.1c0.9-1.8,1.2-3.9,0.8-5.9c-0.3-1.6-1-3-2-4.3
			c-1-1.3-2.1-2.4-3.4-3.3c-3.5-2.6-7.8-4.3-12.1-4.6c1.7-0.2,3.5-0.2,5.3-0.1c3.3,0.3,6.6,1.2,9.8,0.7c2.2-0.3,4.3-1.3,6.1-2.7
			c1.7-1.4,3.2-3.2,4.2-5.2c2.1-4,2.7-8.6,2.7-13.1c0-8.4-2-16.8-1.4-25.2c0.2-2.8,0.8-5.7,1.7-8.4c2.2-6.4,6.3-11.8,9.8-17.6
			c5.4-8.8,9.2-18.7,10.6-28.9c0.6-4.1,0.7-8.6-1.1-12.3c-0.8-1.6-1.9-3-3.2-4.1c1.2,0,2.4-0.2,3.6-0.6c2.4-0.8,4.4-2.5,5.7-4.6
			c0.4-0.6,0.7-1.3,0.9-2.1c0.2-0.7,0.3-1.5,0.1-2.2c-0.2-1.2-1-2.3-1.3-3.5c-0.2-0.8-0.2-1.7,0-2.5c0.2-0.8,0.5-1.6,0.9-2.3
			c0.7-1.2,1.7-2.1,2.8-2.9l1.7,0.7c-0.4,0.3-0.8,0.6-1.2,0.9c-0.5,0.4-1,0.9-1.5,1.4c-0.4,0.5-0.8,1.1-1,1.7
			c-0.2,0.8-0.2,1.6,0.1,2.3c0.3,0.7,0.7,1.4,1.4,1.9c0.9,0.6,2,0.9,3.1,0.9c1.1,0,2.1-0.2,3.2-0.5c2.2-0.5,4.3-1,6.5-1.5
			c-2.1,1-4.3,2-6.4,3c-1.9,0.9-3.9,1.7-5.6,3c-1.7,1.4-3.1,3.2-4.8,4.5c-1.2,1-2.6,1.7-4.1,2.2c1.9-0.3,3.7-0.7,5.6-1.2
			c2.3-0.6,4.5-1.3,6.7-2.2c2.8-1.2,5.5-2.7,8.1-4.4c3.5-2.4,7-5.1,11.1-6c2.3-0.5,4.7-0.3,6.9,0.3c2.2,0.6,4.4,1.6,6.3,2.9
			c3.4,2.3,6.4,5.3,8.5,8.9c-2.4-2.5-5.3-4.5-8.6-5.8c-4.3-1.7-9.1-2-13.6-1.2c-5.4,1-10.3,3.6-15.2,6c-2.4,1.2-4.8,2.3-7,3.8
			c-2.2,1.5-4.2,3.3-5.6,5.5c-1.2,2.1-1.9,4.4-2.3,6.8c-0.4,2.4-0.5,4.8-0.7,7.2c-1.6,16.4-8.2,31.9-11,48.1
			C266.5,272.9,267.1,287.9,262.4,301.8z"/>
		<path class="st0" d="M337.4,308.8c-0.7,16.2-5.2,32.2-12,46.9c-7.6,16.2-18.1,30.9-30.8,43.4c0.3-4.4,0.4-8.8,0.3-13.2
			c-0.1-6.1-0.6-12.2-2.3-18c-1.9-7.1-5.5-13.8-10.3-19.3c2.4,6.9,3.5,14.3,3.2,21.6c-0.3,6.4-1.6,12.7-3.9,18.7
			c0.8-3.8,1.1-7.7,1-11.6c-0.3-7.5-2.4-14.9-6.4-21.3c-1.8-2.8-4-5.4-6.4-7.7l0-11.7c10.1,4.4,18.9,11.8,25,21
			c4.5,6.9,7.5,14.7,8.6,22.8c9.5-11.6,17.1-24.6,22.6-38.6c7.1-18.3,10.5-38,9.7-57.6C337.2,292.3,337.8,300.5,337.4,308.8z"/>
		<path class="st0" d="M387.4,259.5c-0.5,12.7-2.9,25.4-7.1,37.4c-0.9-5.8-3-11.4-6.1-16.4c-3.2-5.2-7.5-9.7-12.6-13.2
			c2.4,0.5,4.7,1.4,6.8,2.6c0.8,0.4,1.5,0.9,2.3,1.3c0.8,0.3,1.7,0.5,2.5,0.3c0.6-0.1,1.1-0.4,1.6-0.8c0.5-0.4,0.8-0.9,1.1-1.5
			c0.5-1.1,0.7-2.3,0.9-3.5c1.7-12.9,0.8-26-1.9-38.7c-4.1-19.5-12.3-37.9-19-56.7c-4.2-11.8-7.9-23.9-11-36.1
			c3.2,9.8,7.1,19.4,11.6,28.7c7.3,15,16.2,29.2,22.2,44.8C385,224.1,388.1,241.8,387.4,259.5z"/>
		<path class="st0" d="M247.1,130.3c0.8-1.2,2.8-1.7,3.5-2.5c-2.6-0.8-5.7-2.3-8.2-3.7c-2.2,8.8-9.3,10.4-12.3,16.1
			c-4,8.2-4.4,17.2-4.8,26.5l1,1c0.9,7.9,1.4,15.9,2.7,23.7c0.2,10.4,5.7,19.5,3.1,30.1c-2.5,0.4-4.5,3-6.4,4.3
			c-2.1,1.1-5,2.8-4.9,5.4c-0.5-0.1-1.1,0.9-1.6,0.1l0.2-0.2c-0.6-2.4-3.4-1.1-5.2-1.5c-6.9,2.3-14.5,2.8-21.6,4.7
			c-6.6-4-14.7-5.3-22.9-4.9c-1.8-1.1-1.8-3.2-2.7-5c-2-2-3.9-4.7-7-4.1c-2.9-16.1,1.7-32.8,5.1-48.2c-0.4-12.1,4.6-25.7-4.6-35.2
			c-3.3-4-9.5-8.1-10.9-13.3c-2.5-0.3-9.2,0.2-9.7,0.7c1.5,2.1,1.8,4.8,3.4,6c-1.2,2.2-4.1,1.8-5.9,3.2c-2.7,2.4-7.1,4.2-9,7.9
			l2.9,6.3c7.1-4.6,4.4,4.6,9.6,4.4c5.5,2.9,11,6.3,17,7.4c1.6,3.8,0.8,8.3,1.1,12.7c0.1,14.9-1.3,30-0.8,44.5v1.7
			c-2,3.2,2.4,6.3,2.4,9.4c0,7.1,7.9,10.3,12.3,14.7c4.6,1.1,8.4,4.4,12.9,5.9c7,3.6,9.6,10.5,9.5,18.1c-4.2,1.9-8.4,3.9-12.8,5.8
			c-7.7,2.6-11.2,12.9-20.7,10.7c-2.3-1-4.3-4.5-4.7-6.9c0,0-0.7,5.1-1.7,10.2c0.5,1.6,2.3,2.4,3.6,3.2c1.5,0.4,3.6,0.7,5.1-0.3
			c6.4-5.2,15-5.1,22.8-6.9c6.8-1.1,14.4-2.6,21.3-0.8c8.3-0.3,14.3,4.8,21.7,6.3c2.6-1.4,5.6-5.6,6.1-9.1c-1.8,0.5-3.3,1.1-5.1,1
			c-8.4,1.4-13-7.1-19.8-9.8c-3.6-2-9.9,1.3-11.9-3.4c-1.1-6.8,0-14.7,5.9-19.1c7.6-4.3,16.9-5.9,22.9-12.9c4.8-5.5,5.2-13,5.4-20.4
			c-0.2-3-2.4-35-1.8-46.5c1.6-5.6,3-6.3,5.8-8.6c14.8-2.6,23.7-7.1,24.5-20.1C262.1,138.7,252.2,137.7,247.1,130.3z M141.2,141.3
			c0,0,5.1-0.4,9.6,0.3c3.2,0.5,6,2.4,6.7,1.2C157.5,142.8,150.5,159.5,141.2,141.3z M235.6,144.5c0.7,1.2,3.5-0.7,6.7-1.2
			c4.5-0.7,9.6-0.3,9.6-0.3C242.6,161.2,235.6,144.5,235.6,144.5z"/>
	</g>
	<g>
		<g>
			<path class="st0" d="M92.1,466.6v63.1c0,11.3-9.2,20.5-20.5,20.5H0V446.1h71.5C82.9,446.1,92.1,455.3,92.1,466.6z M69.5,472.8
				c0-4.3-3.4-7.7-7.7-7.7H22.6v66.1h39.2c4.3,0,7.7-3.4,7.7-7.7V472.8z"/>
			<path class="st0" d="M195.3,446.1v83.6c0,11.3-9.2,20.5-20.5,20.5h-51c-11.3,0-20.5-9.2-20.5-20.5v-83.6h22.6v77.4
				c0,4.3,3.4,7.7,7.7,7.7H165c4.3,0,7.7-3.4,7.7-7.7v-77.4H195.3z"/>
			<path class="st0" d="M229.1,465.1v23.6h54.1v19h-54.1v15.9c0,4.3,3.4,7.7,7.7,7.7h56.6v19H227c-11.3,0-20.5-9.2-20.5-20.5v-83.6
				h86.9v19H229.1z"/>
			<path class="st0" d="M324.1,465.1v23.6h54.1v19h-54.1v15.9c0,4.3,3.4,7.7,7.7,7.7h56.6v19H322c-11.3,0-20.5-9.2-20.5-20.5v-83.6
				h86.9v19H324.1z"/>
		</g>
		<g>
			<path class="st0" d="M15.8,592.7c0,4.4-1.7,6.5-5.3,6.5H0v-24.3l9,0c4.2,0,7,1.6,7,6.2c0,2.9-0.8,4.8-3.4,6
				C14.1,587.6,15.8,590.2,15.8,592.7z M10.4,576.2l-9.1,0v10.4h5.7c3.7,0,7.8,0,7.8-5.4C14.8,578.7,13.3,576.2,10.4,576.2z
				 M1.3,598l7.8,0c3.5,0,5.5-1.1,5.5-5c0-2.5-1.4-5-4.7-5.3H1.3V598z"/>
			<path class="st0" d="M94.1,599.2h-1.4l-4.4-9.6h-9l0.1,9.6H78v-24.3h9.9c3.9,0,6,3.2,6,7.2c0,3.1-1.4,6.6-4.3,7.3L94.1,599.2z
				 M92.5,582.1c0-3.8-1.9-6.1-4.7-6.1h-8.6v12.2l7.4,0C89.8,588.2,92.5,587.5,92.5,582.1z"/>
			<path class="st0" d="M153.1,599.2l8.7-24.3h2c1.2,3,3.3,8.9,5.8,16c1,2.7,2,5.5,3,8.3h-1.4l-2.9-8.2h-10.8l-2.7,8.2H153.1z
				 M162.8,575.9c-0.4,1.3-1.4,4.1-2.1,5.8l-2.8,7.9h9.8L162.8,575.9z"/>
			<path class="st0" d="M238.7,584.3c1.1,0.7,2.7,1.3,4.2,1.8c3.2,1,7.2,2.4,7.2,6.6c0,3.6-2.9,6.4-7.3,6.4h-0.9
				c-1.6,0-5.2-0.4-7.6-5.5l1-0.6c1.6,2.9,3.6,4.8,7.1,4.8c3.3,0,6.3-2.1,6.3-4.9c0-3.3-3.2-4.4-6.5-5.7c-1.4-0.5-2.9-1-4.2-1.8
				c-1.7-1-2.9-2.4-2.9-4.6c0-3.5,2.9-6.1,6.9-6.1c2.9,0,5.2,1.2,7.2,4.3l-0.9,0.6c-1.7-2.1-3.1-3.8-6.1-3.8c-3.4,0-5.7,2-5.7,4.7
				C236.4,582.1,237.1,583.3,238.7,584.3z"/>
			<path class="st0" d="M311.9,599.2v-24.3h1.3v24.3H311.9z"/>
			<path class="st0" d="M388.6,598.3v0.4v0.5H375v-24.3h1.3v23.2h12.3C388.6,598.3,388.6,598.2,388.6,598.3z"/>
		</g>
	</g>
</g>
<g>
	<g>
		<path class="st1" d="M1280.7,948.9c4.3-0.5,8.9-0.1,12.5,2.2c2,1.3,3.7,3,5.1,5c1.3,2,2.3,4.2,3.1,6.5c1.6,4.5,2.4,9.3,4.2,13.8
			c1.6,4.1,3.9,7.8,5.5,11.9c0.8,2,1.4,4.2,1.6,6.3c0.2,2.2,0,4.4-0.7,6.5c-1,2.7-3,5-5.3,6.9c-2.2,1.9-4.7,3.4-7.1,5.2
			c-8,5.9-14.4,13.9-18.3,23c-1-4.5,0-9.4,2.7-13.2c1.4-1.9,3.2-3.5,4.8-5.2c1.7-1.7,3.3-3.5,4.2-5.7c1.4-3.3,1.2-7,0.2-10.5
			c-1-3.4-2.6-6.6-3.9-10c-2-5.2-3.3-10.6-5.2-15.8c-1.9-5.2-4.6-10.3-8.9-13.8c-5.2-4.3-12.4-5.8-19.1-5.3
			c-6.7,0.5-13.2,2.8-19.5,5.3c-11.8,4.7-23.3,10.4-34.5,16.4c-7.4,3.9-14.6,8-21.8,12.3c3.2-2.9,6.4-5.8,9.5-8.9
			c6.5-6.4,12.7-13.2,20.6-17.9c8.5-5,18.4-7.1,28.2-8.3c9.8-1.2,19.7-1.7,29.3-4C1272.3,950.7,1276.4,949.4,1280.7,948.9z"/>
		<path class="st1" d="M510.8,888.7c5.7-5.5,13-9.1,20.6-11.2c7.6-2,15.6-2.5,23.5-2.3c12.4,0.3,24.9,2.2,37.3,1
			c19.8-1.9,38.5-11.7,52.9-25.5c4.5-4.4,8.8-9.2,11.3-15c1.3-2.9,2.1-6,2.3-9.1c0.2-3.1-0.3-6.3-1.6-9.2
			c-2.1-4.7-6.1-8.3-10.7-10.6c-4.6-2.3-9.7-3.3-14.8-3.9c-11.8-1.2-23.8,0.3-35.1,3.9c-10.4,3.3-20.2,8.4-28.9,14.9
			c3.7-5.5,8.4-10.2,13.9-14c13-9,29.3-11.6,44.9-14.2c13.7-2.2,27.5-4.6,40.1-10.5c4-1.8,7.9-4.1,11-7.2c3.1-3.2,5.3-7.3,5.3-11.7
			c0-2.6-0.7-5.1-1.9-7.4c-1.3-2.2-3-4.2-5.1-5.7c-5.1-3.7-12-4.8-18-2.8c5.1-2.5,10.6-4.4,16.1-5.6c9.8-2.1,19.8-2,29.8-2.3
			c5.2-0.1,10.5-0.4,15.2-2.6c3.9-1.8,7.1-4.8,10.7-7.2c3.8-2.5,8-4.3,12.3-5.8c14.7-5.2,30.8-6.9,46-3.7c15,3.2,28.8,11.1,40,21.5
			c7.8,7.2,14.5,15.6,19.7,24.8c-0.3-2.5-0.3-5-0.2-7.5c0.1-3.1,0.5-6.2,0.1-9.3c-0.4-3.3-1.8-6.3-2.8-9.4c-1.1-3.2-1.8-6.5-2.3-9.8
			c3,2.4,5.2,5.7,6.1,9.4c0.9,3.6,0.6,7.3,1.5,10.9c1,4.4,3.6,8.2,6.2,11.8c1.3,1.7,2.6,3.4,3.9,5.1c2.2-3.3,3.5-7.2,3.9-11.1
			c0.4-4.7-0.5-9.4-0.5-14.1c0-3.4,0.6-6.8,1.7-10c1.1,4.2,2,8.5,2.7,12.8c1.4,7.8,2.2,15.6,2.5,23.5v0.3c0.3-7.9,1.1-15.7,2.5-23.5
			c0.7-4.3,1.7-8.6,2.7-12.8c1.1,3.2,1.7,6.6,1.7,10c0.1,4.7-0.9,9.4-0.5,14.1c0.4,4,1.7,7.8,3.9,11.1c1.3-1.7,2.6-3.4,3.9-5.1
			c2.6-3.6,5.2-7.5,6.3-11.8c0.8-3.6,0.6-7.3,1.5-10.9c0.9-3.7,3.1-7.1,6.1-9.4c-0.4,3.3-1.2,6.6-2.3,9.8c-1,3.1-2.4,6.2-2.8,9.4
			c-0.4,3.1,0,6.2,0.1,9.3c0.1,2.5,0,5-0.2,7.5c5.3-9.2,12-17.6,19.7-24.8c11.3-10.4,25-18.4,40-21.5c15.3-3.2,31.3-1.5,46,3.7
			c4.3,1.5,8.5,3.3,12.3,5.8c3.6,2.4,6.8,5.4,10.7,7.2c4.7,2.2,10,2.5,15.2,2.6c10,0.3,20,0.2,29.8,2.3c5.6,1.2,11,3.1,16.1,5.6
			c-6-2-12.9-0.9-18,2.8c-2.1,1.5-3.9,3.5-5.1,5.7c-1.3,2.2-2,4.8-1.9,7.4c0,4.4,2.2,8.6,5.3,11.7c3.1,3.2,7,5.4,11,7.2
			c12.6,5.8,26.4,8.2,40.1,10.5c15.6,2.6,31.9,5.2,44.9,14.2c5.4,3.7,10.2,8.5,13.9,14c-8.7-6.5-18.5-11.6-28.9-14.9
			c-11.3-3.6-23.3-5.1-35.1-3.9c-5.1,0.5-10.2,1.6-14.8,3.9c-4.6,2.3-8.6,5.9-10.7,10.6c-1.3,2.9-1.8,6.1-1.6,9.2
			c0.2,3.1,1,6.2,2.2,9.1c2.5,5.8,6.8,10.6,11.3,15c14.4,13.8,33,23.6,52.9,25.5c12.4,1.2,24.8-0.7,37.3-1
			c7.9-0.2,15.9,0.3,23.5,2.3c7.6,2,14.9,5.7,20.6,11.2c7.9,7.7,12.1,18.9,11.3,29.9c-3.6-5.8-8-11-13.1-15.5
			c-9.9-8.9-22.2-15-35.2-17.8c-12.1-2.6-24.6-2.5-36.8-4.3c-12.2-1.8-24.1-5.5-35.4-10.4c-10.4-4.6-20.4-10.3-29.1-17.7
			c-7.9-6.8-14.6-15-19-24.4c-2-4.4-3.5-9-4.1-13.8c-0.6-4.8-0.3-9.7,1.2-14.3c1.4-4.2,3.9-8.1,7.1-11.2c-6.1-4.4-12.1-8.9-18-13.5
			c-3.1-2.4-6.2-4.8-8.7-7.9c-2.5-3-4.4-6.7-4.6-10.6c-0.2-2.5,0.4-5.1,1.6-7.4c1.2-2.3,3-4.2,5.2-5.5c-8.9-2.9-18.6-3.3-27.8-1.3
			c-4.7,1.1-9.3,2.8-14.1,3.7c-4.8,0.9-9.9,0.9-14.2-1.3c-3.6-1.8-6.3-5-8.8-8.2c-2.5-3.2-4.8-6.6-8.1-9c-2.8-2.1-6.1-3.5-9.5-4.1
			c-3.4-0.6-6.9-0.6-10.4,0c-6.8,1.2-13.2,4.3-19.2,7.8c-14.2,8.1-27.3,18.3-37.8,30.9c-13,15.6-21.5,34.7-25.6,54.7
			c-4.8,23.5-3.3,47.8-2.6,71.8c1.3,44.7,0,89.5-4,134.1v-0.3c-4-44.6-5.3-89.3-4-134.1c0.7-24,2.2-48.3-2.6-71.9
			c-4-19.9-12.6-39-25.6-54.6c-10.4-12.6-23.6-22.7-37.8-30.9c-6-3.5-12.4-6.6-19.2-7.8c-3.4-0.6-6.9-0.7-10.4,0
			c-3.4,0.6-6.7,2-9.5,4.1c-3.2,2.5-5.6,5.8-8.1,9c-2.5,3.2-5.2,6.4-8.8,8.2c-4.3,2.2-9.5,2.1-14.2,1.3c-4.8-0.9-9.3-2.6-14.1-3.7
			c-9.2-2-18.9-1.6-27.8,1.3c2.2,1.3,4,3.2,5.2,5.5c1.2,2.3,1.7,4.8,1.6,7.4c-0.2,3.9-2.1,7.6-4.6,10.6c-2.5,3-5.6,5.5-8.7,7.9
			c-5.9,4.6-11.9,9.1-18,13.5c3.2,3.1,5.7,7,7.1,11.3c1.5,4.6,1.8,9.5,1.2,14.3c-0.6,4.8-2.1,9.4-4.1,13.8
			c-4.4,9.4-11.1,17.7-19,24.4c-8.6,7.4-18.7,13.1-29.1,17.7c-11.3,5-23.2,8.7-35.4,10.5c-12.2,1.8-24.7,1.7-36.8,4.3
			c-13,2.9-25.3,9-35.2,17.8c-5.1,4.5-9.5,9.8-13.1,15.5C498.7,907.6,502.9,896.4,510.8,888.7z"/>
		<path class="st1" d="M422.2,995.4c0.2-2.2,0.8-4.3,1.6-6.3c1.6-4.1,3.9-7.8,5.5-11.9c1.8-4.5,2.6-9.2,4.2-13.8
			c0.8-2.3,1.8-4.5,3.1-6.5c1.3-2,3-3.8,5.1-5c3.7-2.3,8.2-2.7,12.5-2.2c4.3,0.5,8.5,1.8,12.7,2.8c9.6,2.2,19.5,2.7,29.3,4
			c9.8,1.2,19.7,3.3,28.2,8.3c7.9,4.6,14.1,11.5,20.6,17.9c3.1,3,6.3,6,9.5,8.9c-7.2-4.2-14.5-8.3-21.8-12.3
			c-11.2-6-22.7-11.6-34.5-16.4c-6.3-2.5-12.8-4.8-19.5-5.3c-6.7-0.5-13.9,1-19.1,5.3c-4.3,3.5-7,8.6-8.9,13.8
			c-1.9,5.2-3.2,10.6-5.2,15.8c-1.3,3.3-2.9,6.5-3.9,10c-1,3.4-1.2,7.2,0.2,10.5c0.9,2.2,2.6,4,4.2,5.7c1.7,1.7,3.5,3.3,4.8,5.2
			c2.7,3.8,3.7,8.7,2.7,13.2c-4-9.1-10.3-17.1-18.3-23c-2.4-1.7-4.8-3.3-7.1-5.2c-2.2-1.9-4.2-4.2-5.3-6.9
			C422.2,999.8,422,997.6,422.2,995.4z"/>
		<path class="st1" d="M447.6,1376.5c-7.3,11.7-12.2,24.9-14.4,38.5c-9.8-28.2-15.5-57.8-16.6-87.6c-1.6-41.4,5.4-83,20.4-121.6
			c14.1-36.5,35.1-69.8,52.1-105c10.6-21.8,19.7-44.2,27.2-67.2c-7.2,28.6-15.8,56.8-25.7,84.6c-15.7,44.1-34.9,87.2-44.6,133
			c-6.3,29.7-8.5,60.5-4.5,90.7c0.4,2.8,0.8,5.7,2.1,8.2c0.6,1.3,1.5,2.5,2.5,3.4c1.1,1,2.3,1.7,3.7,2c2,0.4,4.1,0,6-0.8
			c1.9-0.8,3.6-1.9,5.4-3c4.9-2.9,10.3-4.9,15.9-6C465.2,1353.6,455.1,1364.3,447.6,1376.5z"/>
		<path class="st1" d="M692.3,1535.1c-5.8,5.4-10.9,11.5-15.1,18.1c-9.4,14.8-14.4,32.3-15.1,49.9c-0.4,9.1,0.4,18.3,2.3,27.2
			c-5.4-14-8.5-28.8-9.1-43.8c-0.7-17.1,1.9-34.4,7.6-50.6c-11.3,13.1-19.6,28.7-24.2,45.3c-3.8,13.7-5,28.1-5.3,42.3
			c-0.2,10.3,0,20.7,0.8,31c-29.9-29.2-54.6-63.8-72.3-101.6c-16.1-34.5-26.6-71.9-28.2-109.9c-0.8-19.3,0.6-38.7,4.2-57.7
			c-1.7,45.9,6.1,92.1,22.8,134.9c12.8,32.7,30.7,63.3,52.9,90.4c2.8-19,9.7-37.4,20.3-53.6c14.2-21.6,34.8-39,58.5-49.3
			L692.3,1535.1z"/>
		<path class="st1" d="M703.5,1328.1c-6.5-38-22.1-74.3-25.7-112.8c-0.5-5.6-0.8-11.3-1.7-16.8c-0.9-5.6-2.5-11.1-5.4-15.9
			c-3.2-5.3-7.9-9.6-13.1-13c-5.2-3.4-10.8-6.1-16.3-8.9c-11.5-5.7-23-11.8-35.6-14.1c-10.6-1.9-21.8-1.1-31.9,2.9
			c-7.6,2.9-14.5,7.6-20.1,13.5c4.9-8.3,11.8-15.5,19.8-20.8c4.5-3,9.5-5.4,14.8-6.8c5.3-1.4,10.8-1.7,16.2-0.6
			c9.7,2,17.8,8.5,26,14c6,4,12.3,7.6,18.9,10.4c5.1,2.2,10.4,3.8,15.7,5.2c4.3,1.1,8.7,2,13.1,2.7c-3.5-1.1-6.8-2.8-9.7-5.1
			c-4-3.2-7.2-7.4-11.2-10.6c-3.9-3.1-8.6-5.1-13.1-7.1c-5.1-2.2-10.1-4.6-15.1-7c5,1.3,10.1,2.4,15.2,3.6c2.5,0.5,5,1.1,7.5,1.1
			c2.5,0,5.1-0.6,7.2-2.1c1.5-1.1,2.6-2.6,3.2-4.4c0.6-1.7,0.6-3.7,0.1-5.4c-0.4-1.5-1.3-2.9-2.3-4.1c-1-1.2-2.2-2.2-3.4-3.2
			c-0.9-0.7-1.9-1.4-2.9-2.1l3.9-1.6c2.7,1.7,5,4,6.7,6.7c1,1.7,1.8,3.5,2.2,5.4c0.4,1.9,0.4,3.9-0.1,5.8c-0.7,2.8-2.5,5.3-3,8.2
			c-0.3,1.7-0.2,3.5,0.3,5.3c0.5,1.7,1.3,3.3,2.2,4.8c3.1,5,7.9,8.9,13.5,10.8c2.7,0.9,5.5,1.4,8.3,1.3c-3.1,2.7-5.7,6-7.5,9.6
			c-4.3,8.8-4,19.2-2.7,28.9c3.3,24,12.3,47.1,24.8,67.8c8.2,13.5,17.9,26.3,23,41.2c2.2,6.3,3.4,12.9,4,19.6
			c1.6,19.7-3.2,39.3-3.2,59c0,10.5,1.4,21.3,6.3,30.6c2.4,4.7,5.7,8.9,9.8,12.2c4.1,3.3,9,5.6,14.2,6.4c7.6,1.2,15.3-1,23-1.6
			c4.1-0.3,8.3-0.3,12.3,0.2c-10.3,0.9-20.2,4.7-28.5,10.9c-3,2.2-5.7,4.8-8,7.7c-2.2,3-3.9,6.4-4.7,10c-0.9,4.6-0.3,9.6,1.9,13.8
			c-15.3-15.1-26.9-33.8-33.8-54.1C707.9,1397.3,709.3,1362,703.5,1328.1z"/>
		<path class="st1" d="M865.8,1631c-5,12.6-15.1,22.4-23.5,33.1c-2.8,3.6-5.4,7.3-7.4,11.4c-2,4.1-3.3,8.6-3.3,13.1
			c0,4.4,1.2,8.7,3.4,12.5c1.6,2.6,3.6,4.9,6.1,6.8c1.1,0.7,2.2,1.4,3.3,2.1c-1.2-0.6-2.3-1.3-3.3-2.1
			c-17.2-11.2-33.5-23.9-48.5-37.9c-18.4-17.3-35.3-37-44.9-60.4c-4.6-11.3-7.5-23.3-8.5-35.5c3.3,23.5,13.2,46.1,28.3,64.4
			c12.1,14.7,27.6,26.7,44.9,34.7c0.2-7.5,3.3-14.9,8.5-20.3c4.5-4.6,10.2-7.6,16-10.3c5.8-2.8,11.6-5.4,16.6-9.4
			c5.2-4.2,9.1-9.9,11.8-16c1.5-3.4,2.5-7,3.2-10.7C869.8,1614.7,868.9,1623.2,865.8,1631z"/>
		<path class="st1" d="M990.4,1609.9c-9.6,23.4-26.4,43.1-44.9,60.4c-15,14-31.3,26.7-48.5,37.9c-1.1,0.8-2.2,1.5-3.3,2.2
			c1.1-0.7,2.2-1.4,3.3-2.2c2.4-1.9,4.5-4.1,6-6.7c2.2-3.7,3.5-8.1,3.4-12.5c0-4.6-1.3-9-3.3-13.1c-2-4.1-4.6-7.8-7.4-11.4
			c-8.4-10.7-18.5-20.5-23.5-33.1c-3.1-7.8-4-16.3-2.7-24.6c0.7,3.7,1.7,7.3,3.2,10.7c2.6,6.1,6.6,11.8,11.8,16
			c4.9,4,10.8,6.7,16.6,9.4c5.8,2.8,11.5,5.8,16,10.3c5.3,5.4,8.4,12.8,8.5,20.3c17.3-8.1,32.7-20,44.9-34.7
			c15.1-18.3,25-40.9,28.3-64.4C997.9,1586.5,995,1598.6,990.4,1609.9z"/>
		<path class="st1" d="M1028.7,1426.8c-6.9,20.3-18.6,39-33.8,54.1c2.1-4.2,2.8-9.2,1.9-13.8c-0.7-3.6-2.4-7.1-4.7-10
			c-2.2-3-5-5.5-8-7.7c-8.2-6.2-18.2-10-28.5-10.9c4.1-0.5,8.2-0.6,12.3-0.2c7.7,0.6,15.4,2.8,23,1.6c5.2-0.8,10.1-3.1,14.2-6.4
			c4.1-3.3,7.4-7.5,9.8-12.2c4.9-9.3,6.3-20.1,6.3-30.6c0-19.7-4.7-39.4-3.2-59c0.5-6.7,1.8-13.3,4-19.6c5.1-14.9,14.9-27.7,23-41.2
			c12.6-20.7,21.5-43.8,24.8-67.8c1.3-9.7,1.6-20.1-2.7-28.9c-1.8-3.7-4.4-7-7.5-9.6c2.8,0,5.7-0.4,8.3-1.3
			c5.6-1.9,10.4-5.8,13.5-10.8c0.9-1.5,1.7-3.1,2.2-4.8c0.5-1.7,0.6-3.5,0.3-5.3c-0.5-2.9-2.3-5.4-3-8.2c-0.5-1.9-0.5-3.9-0.1-5.8
			c0.4-1.9,1.2-3.7,2.2-5.4c1.7-2.7,4-5,6.7-6.7l3.9,1.6c-1,0.7-1.9,1.4-2.9,2.1c-1.2,1-2.4,2-3.4,3.2c-1,1.2-1.8,2.6-2.3,4.1
			c-0.5,1.8-0.5,3.7,0.1,5.4c0.6,1.7,1.7,3.3,3.2,4.4c2,1.5,4.6,2.1,7.2,2.1c2.5,0,5-0.5,7.5-1.1c5.1-1.1,10.1-2.3,15.2-3.6
			c-5,2.4-10,4.7-15.1,7c-4.6,2-9.2,4-13.1,7.1c-4.1,3.2-7.2,7.4-11.2,10.6c-2.9,2.3-6.2,4-9.7,5.1c4.4-0.7,8.8-1.6,13.1-2.7
			c5.3-1.4,10.6-3.1,15.7-5.2c6.6-2.8,12.9-6.4,18.9-10.4c8.2-5.5,16.3-12,26-14c5.3-1.1,10.9-0.8,16.2,0.6
			c5.3,1.4,10.2,3.8,14.8,6.8c8.1,5.3,14.9,12.5,19.8,20.8c-5.6-5.9-12.5-10.5-20.1-13.5c-10.1-3.9-21.2-4.8-31.9-2.9
			c-12.6,2.3-24.1,8.4-35.6,14.1c-5.6,2.8-11.2,5.4-16.3,8.9c-5.2,3.4-9.9,7.7-13.1,13c-2.9,4.8-4.5,10.4-5.4,15.9
			c-0.9,5.6-1.2,11.2-1.7,16.8c-3.6,38.4-19.2,74.7-25.7,112.8C1038.3,1359,1039.7,1394.3,1028.7,1426.8z"/>
		<path class="st1" d="M1204.5,1443.2c-1.7,38-12.1,75.4-28.2,109.9c-17.7,37.9-42.3,72.5-72.3,101.6c0.7-10.3,1-20.6,0.8-31
			c-0.3-14.2-1.5-28.6-5.3-42.3c-4.6-16.6-12.9-32.3-24.2-45.3c5.7,16.2,8.2,33.5,7.6,50.6c-0.6,15-3.7,29.8-9.1,43.8
			c1.9-8.9,2.6-18.1,2.3-27.2c-0.7-17.6-5.7-35-15.1-49.9c-4.2-6.7-9.3-12.8-15.1-18.1l-0.1-27.4c23.7,10.3,44.4,27.6,58.5,49.3
			c10.5,16.1,17.5,34.5,20.3,53.6c22.2-27.1,40.2-57.8,52.9-90.4c16.7-42.8,24.5-89,22.8-134.9
			C1203.9,1404.5,1205.3,1423.9,1204.5,1443.2z"/>
		<path class="st1" d="M1321.6,1327.6c-1.2,29.8-6.8,59.5-16.6,87.6c-2.2-13.6-7.1-26.8-14.4-38.5c-7.6-12.2-17.7-22.8-29.5-31
			c5.6,1.1,11,3.2,15.9,6c1.8,1,3.5,2.2,5.4,3c1.9,0.8,4,1.2,6,0.8c1.4-0.3,2.7-1,3.7-2c1.1-1,1.9-2.1,2.5-3.4
			c1.3-2.5,1.7-5.4,2.1-8.2c4-30.1,1.8-60.9-4.5-90.7c-9.7-45.8-28.8-88.9-44.6-133c-9.9-27.8-18.5-56-25.7-84.6
			c7.5,23,16.6,45.5,27.2,67.2c17.1,35.2,38,68.6,52.1,105C1316.2,1244.6,1323.2,1286.3,1321.6,1327.6z"/>
		<path class="st1" d="M992.8,1024.8c2-2.8,6.6-3.9,8.3-5.7c-6-2-13.3-5.4-19.3-8.7c-5.1,20.7-21.7,24.3-28.8,37.6
			c-9.3,19.2-10.4,40.3-11.4,62.2l2.3,2.4c2.2,18.4,3.2,37.4,6.2,55.4c0.5,24.3,13.3,45.8,7.3,70.6c-5.9,0.9-10.5,7.1-15,10.1
			c-5,2.6-11.7,6.6-11.5,12.7c-1.2-0.2-2.6,2.1-3.7,0.1l0.5-0.4c-1.4-5.6-7.9-2.6-12.1-3.4c-16.1,5.5-33.9,6.5-50.7,11
			c-15.4-9.3-34.4-12.3-53.6-11.5c-4.1-2.6-4.1-7.4-6.2-11.6c-4.8-4.8-9-11-16.4-9.6c-6.9-37.6,4-76.8,11.8-113
			c-0.9-28.3,10.7-60.2-10.8-82.4c-7.8-9.4-22.3-19.1-25.6-31.1c-5.8-0.6-21.5,0.5-22.7,1.7c3.5,5,4.3,11.2,7.9,14.1
			c-2.8,5.1-9.5,4.3-13.8,7.4c-6.2,5.6-16.6,9.9-21.1,18.6l6.7,14.8c16.6-10.8,10.3,10.7,22.6,10.4c12.9,6.8,25.8,14.8,39.9,17.5
			c3.7,8.8,1.8,19.5,2.7,29.7c0.1,34.8-3,70.4-1.9,104.3v3.9c-4.8,7.5,5.7,14.8,5.6,22.1c0.1,16.7,18.4,24.1,28.8,34.4
			c10.9,2.6,19.8,10.3,30.3,13.8c16.4,8.5,22.6,24.7,22.3,42.4c-9.9,4.4-19.8,9.2-29.9,13.7c-18.1,6.1-26.3,30.2-48.6,25.2
			c-5.4-2.3-10.1-10.5-11.1-16.1c0,0-1.6,11.8-3.9,23.9c1.1,3.8,5.4,5.6,8.4,7.5c3.4,0.9,8.5,1.7,11.8-0.6
			c15-12.2,35.2-11.9,53.5-16.1c15.9-2.6,33.8-6,50-2c19.5-0.6,33.5,11.2,50.9,14.7c6-3.3,13.2-13.2,14.4-21.2
			c-4.3,1.2-7.7,2.7-11.8,2.3c-19.8,3.2-30.5-16.7-46.4-23.1c-8.4-4.6-23.1,3.1-28-7.9c-2.6-15.9,0-34.4,13.8-44.7
			c17.8-10.1,39.6-13.8,53.8-30.2c11.2-12.8,12.2-30.5,12.7-47.9c-0.5-7-5.6-82.1-4.3-109c3.8-13.1,7.1-14.8,13.5-20.1
			c34.6-6.1,55.5-16.6,57.4-47.2C1027.9,1044.6,1004.8,1042.2,992.8,1024.8z M744.6,1050.7c0,0,12-0.9,22.5,0.7
			c7.6,1.2,14,5.7,15.8,2.8C782.8,1054.3,766.5,1093.4,744.6,1050.7z M966,1058.2c1.7,2.9,8.2-1.6,15.8-2.8
			c10.5-1.6,22.5-0.7,22.5-0.7C982.3,1097.3,966,1058.2,966,1058.2z"/>
	</g>
	<g>
		<g>
			<path class="st1" d="M629.5,1813.1v147.8c0,26.6-21.5,48.1-48.1,48.1H413.7v-244h167.6C607.9,1764.9,629.5,1786.5,629.5,1813.1z
				 M576.5,1827.5c0-10-8.1-18-18-18h-91.8v155h91.8c10,0,18-8.1,18-18V1827.5z"/>
			<path class="st1" d="M871.4,1764.9v195.9c0,26.6-21.5,48.1-48.1,48.1H703.8c-26.6,0-48.1-21.5-48.1-48.1v-195.9h52.9v181.5
				c0,10,8.1,18,18,18h73.8c10,0,18-8.1,18-18v-181.5H871.4z"/>
			<path class="st1" d="M950.5,1809.4v55.2h126.7v44.5H950.5v37.2c0,10,8.1,18,18,18h132.7v44.5H945.7c-26.6,0-48.1-21.5-48.1-48.1
				v-195.9h203.7v44.5H950.5z"/>
			<path class="st1" d="M1173.3,1809.4v55.2H1300v44.5h-126.7v37.2c0,10,8.1,18,18,18h132.7v44.5h-155.6
				c-26.6,0-48.1-21.5-48.1-48.1v-195.9h203.7v44.5H1173.3z"/>
		</g>
		<g>
			<path class="st1" d="M450.8,2108.6c0,10.3-4.1,15.2-12.5,15.2h-24.6v-56.9l21-0.1c9.9,0,16.4,3.6,16.4,14.5
				c0,6.8-1.9,11.4-8,14.1C446.7,2096.6,450.8,2102.7,450.8,2108.6z M438,2069.9l-21.3-0.1v24.3H430c8.6,0,18.3-0.1,18.3-12.6
				C448.3,2075.8,445,2069.9,438,2069.9z M416.7,2121.1l18.3,0.1c8.2,0,13-2.5,13-11.7c0-5.9-3.3-11.6-10.9-12.4h-20.4V2121.1z"/>
			<path class="st1" d="M634.1,2123.7h-3.4l-10.3-22.4h-21.2l0.2,22.4h-2.9v-56.9h23.1c9.1,0,14.1,7.5,14.1,16.9
				c0,7.2-3.3,15.4-10.2,17.1L634.1,2123.7z M630.6,2083.7c0-8.8-4.4-14.3-11-14.3h-20.1v28.7l17.4,0.1
				C624.3,2098,630.6,2096.4,630.6,2083.7z"/>
			<path class="st1" d="M772.4,2123.7l20.5-56.9h4.6c2.8,7.1,7.8,20.9,13.6,37.4c2.3,6.4,4.7,12.8,7,19.5h-3.3l-6.9-19.2h-25.3
				l-6.3,19.2H772.4z M795.3,2069.3c-1,3.1-3.4,9.7-4.8,13.5l-6.6,18.5h22.9L795.3,2069.3z"/>
			<path class="st1" d="M973.1,2089c2.6,1.7,6.3,3,9.9,4.2c7.5,2.5,16.9,5.7,16.9,15.5c0,8.4-6.8,15.1-17,15.1h-2.1
				c-3.8,0-12.1-1-17.8-12.9l2.4-1.4c3.8,6.8,8.4,11.4,16.5,11.4c7.6,0,14.8-5,14.8-11.4c0-7.7-7.5-10.3-15.3-13.3
				c-3.4-1.2-6.9-2.5-9.8-4.2c-4-2.4-6.9-5.6-6.9-10.9c0-8.3,6.8-14.2,16.3-14.2c6.9,0,12.1,2.9,16.8,10.1l-2.2,1.4
				c-3.9-5-7.2-8.8-14.4-8.8c-7.9,0-13.4,4.7-13.4,10.9C967.8,2083.9,969.4,2086.6,973.1,2089z"/>
			<path class="st1" d="M1144.7,2123.7v-56.9h3v56.9H1144.7z"/>
			<path class="st1" d="M1324.5,2121.7v0.8v1.2h-31.9v-56.9h3v54.4h28.9C1324.4,2121.8,1324.5,2121.5,1324.5,2121.7z"/>
		</g>
	</g>
</g>
<g>
	<g>
		<path class="st0" d="M118.7,948.9c4.3-0.5,8.9-0.1,12.5,2.2c2,1.3,3.7,3,5.1,5c1.3,2,2.3,4.2,3.1,6.5c1.6,4.5,2.4,9.3,4.2,13.8
			c1.6,4.1,3.9,7.8,5.5,11.9c0.8,2,1.4,4.2,1.6,6.3c0.2,2.2,0,4.4-0.7,6.5c-1,2.7-3,5-5.3,6.9c-2.2,1.9-4.7,3.4-7.1,5.2
			c-8,5.9-14.4,13.9-18.3,23c-1-4.5,0-9.4,2.7-13.2c1.4-1.9,3.2-3.5,4.8-5.2c1.7-1.7,3.3-3.5,4.2-5.7c1.4-3.3,1.2-7,0.2-10.5
			c-1-3.4-2.6-6.6-3.9-10c-2-5.2-3.3-10.6-5.2-15.8c-1.9-5.2-4.6-10.3-8.9-13.8c-5.2-4.3-12.4-5.8-19.1-5.3
			c-6.7,0.5-13.2,2.8-19.5,5.3c-11.8,4.7-23.3,10.4-34.5,16.4c-7.4,3.9-14.6,8-21.8,12.3c3.2-2.9,6.4-5.8,9.5-8.9
			c6.5-6.4,12.7-13.2,20.6-17.9c8.5-5,18.4-7.1,28.2-8.3c9.8-1.2,19.7-1.7,29.3-4C110.2,950.7,114.4,949.4,118.7,948.9z"/>
		<path class="st0" d="M-651.3,888.7c5.7-5.5,13-9.1,20.6-11.2c7.6-2,15.6-2.5,23.5-2.3c12.4,0.3,24.9,2.2,37.3,1
			c19.8-1.9,38.5-11.7,52.9-25.5c4.5-4.4,8.8-9.2,11.3-15c1.3-2.9,2.1-6,2.3-9.1c0.2-3.1-0.3-6.3-1.6-9.2
			c-2.1-4.7-6.1-8.3-10.7-10.6c-4.6-2.3-9.7-3.3-14.8-3.9c-11.8-1.2-23.8,0.3-35.1,3.9c-10.4,3.3-20.2,8.4-28.9,14.9
			c3.7-5.5,8.4-10.2,13.9-14c13-9,29.3-11.6,44.9-14.2c13.7-2.2,27.5-4.6,40.1-10.5c4-1.8,7.9-4.1,11-7.2c3.1-3.2,5.3-7.3,5.3-11.7
			c0-2.6-0.7-5.1-1.9-7.4c-1.3-2.2-3-4.2-5.1-5.7c-5.1-3.7-12-4.8-18-2.8c5.1-2.5,10.6-4.4,16.1-5.6c9.8-2.1,19.8-2,29.8-2.3
			c5.2-0.1,10.5-0.4,15.2-2.6c3.9-1.8,7.1-4.8,10.7-7.2c3.8-2.5,8-4.3,12.3-5.8c14.7-5.2,30.8-6.9,46-3.7c15,3.2,28.8,11.1,40,21.5
			c7.8,7.2,14.5,15.6,19.7,24.8c-0.3-2.5-0.3-5-0.2-7.5c0.1-3.1,0.5-6.2,0.1-9.3c-0.4-3.3-1.8-6.3-2.8-9.4c-1.1-3.2-1.8-6.5-2.3-9.8
			c3,2.4,5.2,5.7,6.1,9.4c0.9,3.6,0.6,7.3,1.5,10.9c1,4.4,3.6,8.2,6.3,11.8c1.3,1.7,2.6,3.4,3.9,5.1c2.2-3.3,3.5-7.2,3.9-11.1
			c0.4-4.7-0.5-9.4-0.5-14.1c0-3.4,0.6-6.8,1.7-10c1.1,4.2,2,8.5,2.7,12.8c1.4,7.8,2.2,15.6,2.5,23.5v0.3c0.3-7.9,1.1-15.7,2.5-23.5
			c0.7-4.3,1.7-8.6,2.7-12.8c1.1,3.2,1.7,6.6,1.7,10c0.1,4.7-0.9,9.4-0.5,14.1c0.4,4,1.7,7.8,3.9,11.1c1.3-1.7,2.6-3.4,3.9-5.1
			c2.6-3.6,5.2-7.5,6.3-11.8c0.8-3.6,0.6-7.3,1.5-10.9c0.9-3.7,3.1-7.1,6.1-9.4c-0.4,3.3-1.2,6.6-2.3,9.8c-1,3.1-2.4,6.2-2.8,9.4
			c-0.4,3.1,0,6.2,0.1,9.3c0.1,2.5,0,5-0.2,7.5c5.3-9.2,12-17.6,19.7-24.8c11.3-10.4,25-18.4,40-21.5c15.3-3.2,31.3-1.5,46,3.7
			c4.3,1.5,8.5,3.3,12.3,5.8c3.6,2.4,6.8,5.4,10.7,7.2c4.7,2.2,10,2.5,15.2,2.6c10,0.3,20,0.2,29.8,2.3c5.6,1.2,11,3.1,16.1,5.6
			c-6-2-12.9-0.9-18,2.8c-2.1,1.5-3.9,3.5-5.1,5.7c-1.3,2.2-2,4.8-1.9,7.4c0,4.4,2.2,8.6,5.3,11.7c3.1,3.2,7,5.4,11,7.2
			c12.6,5.8,26.4,8.2,40.1,10.5c15.6,2.6,31.9,5.2,44.9,14.2c5.4,3.7,10.2,8.5,13.9,14c-8.7-6.5-18.5-11.6-28.9-14.9
			c-11.3-3.6-23.3-5.1-35.1-3.9c-5.1,0.5-10.2,1.6-14.8,3.9c-4.6,2.3-8.6,5.9-10.7,10.6c-1.3,2.9-1.8,6.1-1.6,9.2
			c0.2,3.1,1,6.2,2.2,9.1c2.5,5.8,6.8,10.6,11.3,15c14.4,13.8,33,23.6,52.9,25.5c12.4,1.2,24.8-0.7,37.3-1
			c7.9-0.2,15.9,0.3,23.5,2.3c7.6,2,14.9,5.7,20.6,11.2c7.9,7.7,12.1,18.9,11.3,29.9c-3.6-5.8-8-11-13.1-15.5
			c-9.9-8.9-22.2-15-35.2-17.8c-12.1-2.6-24.6-2.5-36.8-4.3c-12.2-1.8-24.1-5.5-35.4-10.4c-10.4-4.6-20.4-10.3-29.1-17.7
			c-7.9-6.8-14.6-15-19-24.4c-2-4.4-3.5-9-4.1-13.8c-0.6-4.8-0.3-9.7,1.2-14.3c1.4-4.2,3.9-8.1,7.1-11.2c-6.1-4.4-12.1-8.9-18-13.5
			c-3.1-2.4-6.2-4.8-8.7-7.9c-2.5-3-4.4-6.7-4.6-10.6c-0.2-2.5,0.4-5.1,1.6-7.4c1.2-2.3,3-4.2,5.2-5.5c-8.9-2.9-18.6-3.3-27.8-1.3
			c-4.7,1.1-9.3,2.8-14.1,3.7c-4.8,0.9-9.9,0.9-14.2-1.3c-3.6-1.8-6.3-5-8.8-8.2c-2.5-3.2-4.8-6.6-8.1-9c-2.8-2.1-6.1-3.5-9.5-4.1
			c-3.4-0.6-6.9-0.6-10.4,0c-6.8,1.2-13.2,4.3-19.2,7.8c-14.2,8.1-27.3,18.3-37.8,30.9c-13,15.6-21.5,34.7-25.6,54.7
			c-4.8,23.5-3.3,47.8-2.6,71.8c1.3,44.7,0,89.5-4,134.1v-0.3c-4-44.6-5.3-89.3-4-134.1c0.7-24,2.2-48.3-2.6-71.9
			c-4-19.9-12.6-39-25.6-54.6c-10.4-12.6-23.6-22.7-37.8-30.9c-6-3.5-12.4-6.6-19.2-7.8c-3.4-0.6-6.9-0.7-10.4,0
			c-3.4,0.6-6.7,2-9.5,4.1c-3.2,2.5-5.6,5.8-8.1,9c-2.5,3.2-5.2,6.4-8.8,8.2c-4.3,2.2-9.5,2.1-14.2,1.3c-4.8-0.9-9.3-2.6-14.1-3.7
			c-9.2-2-18.9-1.6-27.8,1.3c2.2,1.3,4,3.2,5.2,5.5c1.2,2.3,1.7,4.8,1.6,7.4c-0.2,3.9-2.1,7.6-4.6,10.6c-2.5,3-5.6,5.5-8.7,7.9
			c-5.9,4.6-11.9,9.1-18,13.5c3.2,3.1,5.7,7,7.1,11.3c1.5,4.6,1.8,9.5,1.2,14.3c-0.6,4.8-2.1,9.4-4.1,13.8
			c-4.4,9.4-11.1,17.7-19,24.4c-8.6,7.4-18.7,13.1-29.1,17.7c-11.3,5-23.2,8.7-35.4,10.5c-12.2,1.8-24.7,1.7-36.8,4.3
			c-13,2.9-25.3,9-35.2,17.8c-5.1,4.5-9.5,9.8-13.1,15.5C-663.4,907.6-659.2,896.4-651.3,888.7z"/>
		<path class="st0" d="M-739.9,995.4c0.2-2.2,0.8-4.3,1.6-6.3c1.6-4.1,3.9-7.8,5.5-11.9c1.8-4.5,2.6-9.2,4.2-13.8
			c0.8-2.3,1.8-4.5,3.1-6.5c1.3-2,3-3.8,5.1-5c3.7-2.3,8.2-2.7,12.5-2.2c4.3,0.5,8.5,1.8,12.7,2.8c9.6,2.2,19.5,2.7,29.3,4
			c9.8,1.2,19.7,3.3,28.2,8.3c7.9,4.6,14.1,11.5,20.6,17.9c3.1,3,6.3,6,9.5,8.9c-7.2-4.2-14.5-8.3-21.8-12.3
			c-11.2-6-22.7-11.6-34.5-16.4c-6.3-2.5-12.8-4.8-19.5-5.3c-6.7-0.5-13.9,1-19.1,5.3c-4.3,3.5-7,8.6-8.9,13.8
			c-1.9,5.2-3.2,10.6-5.2,15.8c-1.3,3.3-2.9,6.5-3.9,10c-1,3.4-1.2,7.2,0.2,10.5c0.9,2.2,2.6,4,4.2,5.7c1.7,1.7,3.5,3.3,4.8,5.2
			c2.7,3.8,3.7,8.7,2.7,13.2c-4-9.1-10.3-17.1-18.3-23c-2.4-1.7-4.8-3.3-7.1-5.2c-2.2-1.9-4.2-4.2-5.3-6.9
			C-739.9,999.8-740.1,997.6-739.9,995.4z"/>
		<path class="st0" d="M-714.5,1376.5c-7.3,11.7-12.2,24.9-14.4,38.5c-9.8-28.2-15.5-57.8-16.6-87.6c-1.6-41.4,5.4-83,20.4-121.6
			c14.1-36.5,35.1-69.8,52.1-105c10.6-21.8,19.7-44.2,27.2-67.2c-7.2,28.6-15.8,56.8-25.7,84.6c-15.7,44.1-34.9,87.2-44.6,133
			c-6.3,29.7-8.5,60.5-4.5,90.7c0.4,2.8,0.8,5.7,2.1,8.2c0.6,1.3,1.5,2.5,2.5,3.4s2.3,1.7,3.7,2c2,0.4,4.1,0,6-0.8
			c1.9-0.8,3.6-1.9,5.4-3c4.9-2.9,10.3-4.9,15.9-6C-696.9,1353.6-707,1364.3-714.5,1376.5z"/>
		<path class="st0" d="M-469.8,1535.1c-5.8,5.4-10.9,11.5-15.1,18.1c-9.4,14.8-14.4,32.3-15.1,49.9c-0.4,9.1,0.4,18.3,2.3,27.2
			c-5.4-14-8.5-28.8-9.1-43.8c-0.7-17.1,1.9-34.4,7.6-50.6c-11.3,13.1-19.6,28.7-24.2,45.3c-3.8,13.7-5,28.1-5.3,42.3
			c-0.2,10.3,0,20.7,0.8,31c-29.9-29.2-54.6-63.8-72.3-101.6c-16.1-34.5-26.6-71.9-28.2-109.9c-0.8-19.3,0.6-38.7,4.2-57.7
			c-1.7,45.9,6.1,92.1,22.8,134.9c12.8,32.7,30.7,63.3,52.9,90.4c2.8-19,9.7-37.4,20.3-53.6c14.2-21.6,34.8-39,58.5-49.3
			L-469.8,1535.1z"/>
		<path class="st0" d="M-458.5,1328.1c-6.5-38-22.1-74.3-25.7-112.8c-0.5-5.6-0.8-11.3-1.7-16.8c-0.9-5.6-2.5-11.1-5.4-15.9
			c-3.2-5.3-7.9-9.6-13.1-13c-5.2-3.4-10.8-6.1-16.3-8.9c-11.5-5.7-23-11.8-35.6-14.1c-10.6-1.9-21.8-1.1-31.9,2.9
			c-7.6,2.9-14.5,7.6-20.1,13.5c4.9-8.3,11.8-15.5,19.8-20.8c4.5-3,9.5-5.4,14.8-6.8c5.3-1.4,10.8-1.7,16.2-0.6
			c9.7,2,17.8,8.5,26,14c6,4,12.3,7.6,18.9,10.4c5.1,2.2,10.4,3.8,15.7,5.2c4.3,1.1,8.7,2,13.1,2.7c-3.5-1.1-6.8-2.8-9.7-5.1
			c-4-3.2-7.2-7.4-11.2-10.6c-3.9-3.1-8.6-5.1-13.1-7.1c-5.1-2.2-10.1-4.6-15.1-7c5,1.3,10.1,2.4,15.2,3.6c2.5,0.5,5,1.1,7.5,1.1
			c2.5,0,5.1-0.6,7.2-2.1c1.5-1.1,2.6-2.6,3.2-4.4c0.6-1.7,0.6-3.7,0.1-5.4c-0.4-1.5-1.3-2.9-2.3-4.1c-1-1.2-2.2-2.2-3.4-3.2
			c-0.9-0.7-1.9-1.4-2.9-2.1l3.9-1.6c2.7,1.7,5,4,6.7,6.7c1,1.7,1.8,3.5,2.2,5.4c0.4,1.9,0.4,3.9-0.1,5.8c-0.7,2.8-2.5,5.3-3,8.2
			c-0.3,1.7-0.2,3.5,0.3,5.3c0.5,1.7,1.3,3.3,2.2,4.8c3.1,5,7.9,8.9,13.5,10.8c2.7,0.9,5.5,1.4,8.3,1.3c-3.1,2.7-5.7,6-7.5,9.6
			c-4.3,8.8-4,19.2-2.7,28.9c3.3,24,12.3,47.1,24.8,67.8c8.2,13.5,17.9,26.3,23,41.2c2.2,6.3,3.4,12.9,4,19.6
			c1.6,19.7-3.2,39.3-3.2,59c0,10.5,1.4,21.3,6.3,30.6c2.4,4.7,5.7,8.9,9.8,12.2c4.1,3.3,9,5.6,14.2,6.4c7.6,1.2,15.3-1,23-1.6
			c4.1-0.3,8.3-0.3,12.3,0.2c-10.3,0.9-20.2,4.7-28.5,10.9c-3,2.2-5.7,4.8-8,7.7c-2.2,3-3.9,6.4-4.7,10c-0.9,4.6-0.3,9.6,1.9,13.8
			c-15.3-15.1-26.9-33.8-33.8-54.1C-454.2,1397.3-452.8,1362-458.5,1328.1z"/>
		<path class="st0" d="M-296.2,1631c-5,12.6-15.1,22.4-23.5,33.1c-2.8,3.6-5.4,7.3-7.4,11.4c-2,4.1-3.3,8.6-3.3,13.1
			c0,4.4,1.2,8.7,3.4,12.5c1.6,2.6,3.6,4.9,6.1,6.8c1.1,0.7,2.2,1.4,3.3,2.1c-1.2-0.6-2.3-1.3-3.3-2.1
			c-17.2-11.2-33.5-23.9-48.5-37.9c-18.4-17.3-35.3-37-44.9-60.4c-4.6-11.3-7.5-23.3-8.5-35.5c3.3,23.5,13.2,46.1,28.3,64.4
			c12.1,14.7,27.6,26.7,44.9,34.7c0.2-7.5,3.3-14.9,8.5-20.3c4.5-4.6,10.2-7.6,16-10.3c5.8-2.8,11.6-5.4,16.6-9.4
			c5.2-4.2,9.1-9.9,11.8-16c1.5-3.4,2.5-7,3.2-10.7C-292.3,1614.7-293.2,1623.2-296.2,1631z"/>
		<path class="st0" d="M-171.7,1609.9c-9.6,23.4-26.4,43.1-44.9,60.4c-15,14-31.3,26.7-48.5,37.9c-1.1,0.8-2.2,1.5-3.3,2.2
			c1.1-0.7,2.2-1.4,3.3-2.2c2.4-1.9,4.5-4.1,6-6.7c2.2-3.7,3.5-8.1,3.4-12.5c0-4.6-1.3-9-3.3-13.1c-2-4.1-4.6-7.8-7.4-11.4
			c-8.4-10.7-18.5-20.5-23.5-33.1c-3.1-7.8-4-16.3-2.7-24.6c0.7,3.7,1.7,7.3,3.2,10.7c2.6,6.1,6.6,11.8,11.8,16
			c4.9,4,10.8,6.7,16.6,9.4c5.8,2.8,11.5,5.8,16,10.3c5.3,5.4,8.4,12.8,8.5,20.3c17.3-8.1,32.7-20,44.9-34.7
			c15.1-18.3,25-40.9,28.3-64.4C-164.2,1586.5-167,1598.6-171.7,1609.9z"/>
		<path class="st0" d="M-133.3,1426.8c-6.9,20.3-18.6,39-33.8,54.1c2.1-4.2,2.8-9.2,1.9-13.8c-0.7-3.6-2.4-7.1-4.7-10
			c-2.2-3-5-5.5-8-7.7c-8.2-6.2-18.2-10-28.5-10.9c4.1-0.5,8.2-0.6,12.3-0.2c7.7,0.6,15.4,2.8,23,1.6c5.2-0.8,10.1-3.1,14.2-6.4
			c4.1-3.3,7.4-7.5,9.8-12.2c4.9-9.3,6.3-20.1,6.3-30.6c0-19.7-4.7-39.4-3.2-59c0.5-6.7,1.8-13.3,4-19.6c5.1-14.9,14.9-27.7,23-41.2
			c12.6-20.7,21.5-43.8,24.8-67.8c1.3-9.7,1.6-20.1-2.7-28.9c-1.8-3.7-4.4-7-7.5-9.6c2.8,0,5.7-0.4,8.3-1.3
			c5.6-1.9,10.4-5.8,13.5-10.8c0.9-1.5,1.7-3.1,2.2-4.8c0.5-1.7,0.6-3.5,0.3-5.3c-0.5-2.9-2.3-5.4-3-8.2c-0.5-1.9-0.5-3.9-0.1-5.8
			c0.4-1.9,1.2-3.7,2.2-5.4c1.7-2.7,4-5,6.7-6.7l3.9,1.6c-1,0.7-1.9,1.4-2.9,2.1c-1.2,1-2.4,2-3.4,3.2c-1,1.2-1.8,2.6-2.3,4.1
			c-0.5,1.8-0.5,3.7,0.1,5.4c0.6,1.7,1.7,3.3,3.2,4.4c2,1.5,4.6,2.1,7.2,2.1c2.5,0,5-0.5,7.5-1.1c5.1-1.1,10.1-2.3,15.2-3.6
			c-5,2.4-10,4.7-15.1,7c-4.6,2-9.2,4-13.1,7.1c-4.1,3.2-7.2,7.4-11.2,10.6c-2.9,2.3-6.2,4-9.7,5.1c4.4-0.7,8.8-1.6,13.1-2.7
			c5.3-1.4,10.6-3.1,15.7-5.2c6.6-2.8,12.9-6.4,18.9-10.4c8.2-5.5,16.3-12,26-14c5.3-1.1,10.9-0.8,16.2,0.6
			c5.3,1.4,10.2,3.8,14.8,6.8c8.1,5.3,14.9,12.5,19.8,20.8c-5.6-5.9-12.5-10.5-20.1-13.5c-10.1-3.9-21.2-4.8-31.9-2.9
			c-12.6,2.3-24.1,8.4-35.6,14.1c-5.6,2.8-11.2,5.4-16.3,8.9c-5.2,3.4-9.9,7.7-13.1,13c-2.9,4.8-4.5,10.4-5.4,15.9
			c-0.9,5.6-1.2,11.2-1.7,16.8c-3.6,38.4-19.2,74.7-25.7,112.8C-123.8,1359-122.3,1394.3-133.3,1426.8z"/>
		<path class="st0" d="M42.4,1443.2c-1.7,38-12.1,75.4-28.2,109.9c-17.7,37.9-42.3,72.5-72.3,101.6c0.7-10.3,1-20.6,0.8-31
			c-0.3-14.2-1.5-28.6-5.3-42.3c-4.6-16.6-12.9-32.3-24.2-45.3c5.7,16.2,8.2,33.5,7.6,50.6c-0.6,15-3.7,29.8-9.1,43.8
			c1.9-8.9,2.6-18.1,2.3-27.2c-0.7-17.6-5.7-35-15.1-49.9c-4.2-6.7-9.3-12.8-15.1-18.1l-0.1-27.4c23.7,10.3,44.4,27.6,58.5,49.3
			c10.5,16.1,17.5,34.5,20.3,53.6c22.2-27.1,40.2-57.8,52.9-90.4c16.7-42.8,24.5-89,22.8-134.9C41.8,1404.5,43.3,1423.9,42.4,1443.2
			z"/>
		<path class="st0" d="M159.5,1327.6c-1.2,29.8-6.8,59.5-16.6,87.6c-2.2-13.6-7.1-26.8-14.4-38.5c-7.6-12.2-17.7-22.8-29.5-31
			c5.6,1.1,11,3.2,15.9,6c1.8,1,3.5,2.2,5.4,3c1.9,0.8,4,1.2,6,0.8c1.4-0.3,2.7-1,3.7-2c1.1-1,1.9-2.1,2.5-3.4
			c1.3-2.5,1.7-5.4,2.1-8.2c4-30.1,1.8-60.9-4.5-90.7c-9.7-45.8-28.8-88.9-44.6-133c-9.9-27.8-18.5-56-25.7-84.6
			c7.5,23,16.6,45.5,27.2,67.2c17.1,35.2,38,68.6,52.1,105C154.1,1244.6,161.1,1286.3,159.5,1327.6z"/>
		<path class="st0" d="M-169.2,1024.8c2-2.8,6.6-3.9,8.3-5.7c-6-2-13.3-5.4-19.3-8.7c-5.1,20.7-21.7,24.3-28.8,37.6
			c-9.3,19.2-10.4,40.3-11.4,62.2l2.3,2.4c2.2,18.4,3.2,37.4,6.2,55.4c0.5,24.3,13.3,45.8,7.3,70.6c-5.9,0.9-10.5,7.1-15,10.1
			c-5,2.6-11.7,6.6-11.5,12.7c-1.2-0.2-2.6,2.1-3.7,0.1l0.5-0.4c-1.4-5.6-7.9-2.6-12.1-3.4c-16.1,5.5-33.9,6.5-50.7,11
			c-15.4-9.3-34.4-12.3-53.6-11.5c-4.1-2.6-4.1-7.4-6.2-11.6c-4.8-4.8-9-11-16.4-9.6c-6.9-37.6,4-76.8,11.8-113
			c-0.9-28.3,10.7-60.2-10.8-82.4c-7.8-9.4-22.3-19.1-25.6-31.1c-5.8-0.6-21.5,0.5-22.7,1.7c3.5,5,4.3,11.2,7.9,14.1
			c-2.8,5.1-9.5,4.3-13.8,7.4c-6.2,5.6-16.6,9.9-21.1,18.6l6.7,14.8c16.6-10.8,10.3,10.7,22.6,10.4c12.9,6.8,25.8,14.8,39.9,17.5
			c3.7,8.8,1.8,19.5,2.7,29.7c0.1,34.8-3,70.4-1.9,104.3v3.9c-4.8,7.5,5.7,14.8,5.6,22.1c0.1,16.7,18.4,24.1,28.8,34.4
			c10.9,2.6,19.8,10.3,30.3,13.8c16.4,8.5,22.6,24.7,22.3,42.4c-9.9,4.4-19.8,9.2-29.9,13.7c-18.1,6.1-26.3,30.2-48.6,25.2
			c-5.4-2.3-10.1-10.5-11.1-16.1c0,0-1.6,11.8-3.9,23.9c1.1,3.8,5.4,5.6,8.4,7.5c3.4,0.9,8.5,1.7,11.8-0.6
			c15-12.2,35.2-11.9,53.5-16.1c15.9-2.6,33.8-6,50-2c19.5-0.6,33.5,11.2,50.9,14.7c6-3.3,13.2-13.2,14.4-21.2
			c-4.3,1.2-7.7,2.7-11.8,2.3c-19.8,3.2-30.5-16.7-46.4-23.1c-8.4-4.6-23.1,3.1-28-7.9c-2.6-15.9,0-34.4,13.8-44.7
			c17.8-10.1,39.6-13.8,53.8-30.2c11.2-12.8,12.2-30.5,12.7-47.9c-0.5-7-5.6-82.1-4.3-109c3.8-13.1,7.1-14.8,13.5-20.1
			c34.6-6.1,55.5-16.6,57.4-47.2C-134.2,1044.6-157.3,1042.2-169.2,1024.8z M-417.5,1050.7c0,0,12-0.9,22.5,0.7
			c7.6,1.2,14,5.7,15.8,2.8C-379.2,1054.3-395.6,1093.4-417.5,1050.7z M-196.1,1058.2c1.7,2.9,8.2-1.6,15.8-2.8
			c10.5-1.6,22.5-0.7,22.5-0.7C-179.7,1097.3-196.1,1058.2-196.1,1058.2z"/>
	</g>
	<g>
		<g>
			<path class="st0" d="M-532.6,1813.1v147.8c0,26.6-21.5,48.1-48.1,48.1h-167.6v-244h167.6
				C-554.2,1764.9-532.6,1786.5-532.6,1813.1z M-585.5,1827.5c0-10-8.1-18-18-18h-91.8v155h91.8c10,0,18-8.1,18-18V1827.5z"/>
			<path class="st0" d="M-290.7,1764.9v195.9c0,26.6-21.5,48.1-48.1,48.1h-119.5c-26.6,0-48.1-21.5-48.1-48.1v-195.9h52.9v181.5
				c0,10,8.1,18,18,18h73.8c10,0,18-8.1,18-18v-181.5H-290.7z"/>
			<path class="st0" d="M-211.5,1809.4v55.2h126.7v44.5h-126.7v37.2c0,10,8.1,18,18,18h132.7v44.5h-155.6
				c-26.6,0-48.1-21.5-48.1-48.1v-195.9h203.7v44.5H-211.5z"/>
			<path class="st0" d="M11.2,1809.4v55.2H138v44.5H11.2v37.2c0,10,8.1,18,18,18H162v44.5H6.4c-26.6,0-48.1-21.5-48.1-48.1v-195.9
				H162v44.5H11.2z"/>
		</g>
		<g>
			<path class="st0" d="M-711.2,2108.6c0,10.3-4.1,15.2-12.5,15.2h-24.6v-56.9l21-0.1c9.9,0,16.4,3.6,16.4,14.5
				c0,6.8-1.9,11.4-8,14.1C-715.3,2096.6-711.2,2102.7-711.2,2108.6z M-724.1,2069.9l-21.3-0.1v24.3h13.3c8.6,0,18.3-0.1,18.3-12.6
				C-713.8,2075.8-717.1,2069.9-724.1,2069.9z M-745.4,2121.1l18.3,0.1c8.2,0,13-2.5,13-11.7c0-5.9-3.3-11.6-10.9-12.4h-20.4V2121.1
				z"/>
			<path class="st0" d="M-527.9,2123.7h-3.4l-10.3-22.4h-21.2l0.2,22.4h-2.9v-56.9h23.1c9.1,0,14.1,7.5,14.1,16.9
				c0,7.2-3.3,15.4-10.2,17.1L-527.9,2123.7z M-531.5,2083.7c0-8.8-4.4-14.3-11-14.3h-20.1v28.7l17.4,0.1
				C-537.8,2098-531.5,2096.4-531.5,2083.7z"/>
			<path class="st0" d="M-389.7,2123.7l20.5-56.9h4.6c2.8,7.1,7.8,20.9,13.6,37.4c2.3,6.4,4.7,12.8,7,19.5h-3.3l-6.9-19.2h-25.3
				l-6.3,19.2H-389.7z M-366.8,2069.3c-1,3.1-3.4,9.7-4.8,13.5l-6.6,18.5h22.9L-366.8,2069.3z"/>
			<path class="st0" d="M-189,2089c2.6,1.7,6.3,3,9.9,4.2c7.5,2.5,16.9,5.7,16.9,15.5c0,8.4-6.8,15.1-17,15.1h-2.1
				c-3.8,0-12.1-1-17.8-12.9l2.4-1.4c3.8,6.8,8.4,11.4,16.5,11.4c7.6,0,14.8-5,14.8-11.4c0-7.7-7.5-10.3-15.3-13.3
				c-3.4-1.2-6.9-2.5-9.8-4.2c-4-2.4-6.9-5.6-6.9-10.9c0-8.3,6.8-14.2,16.3-14.2c6.9,0,12.1,2.9,16.8,10.1l-2.2,1.4
				c-3.9-5-7.2-8.8-14.4-8.8c-7.9,0-13.4,4.7-13.4,10.9C-194.2,2083.9-192.6,2086.6-189,2089z"/>
			<path class="st0" d="M-17.4,2123.7v-56.9h3v56.9H-17.4z"/>
			<path class="st0" d="M162.4,2121.7v0.8v1.2h-31.9v-56.9h3v54.4h28.9C162.3,2121.8,162.4,2121.5,162.4,2121.7z"/>
		</g>
	</g>
</g>
</svg>
