<?xml version="1.0" encoding="utf-8"?>
<!-- Generator: Adobe Illustrator 22.1.0, SVG Export Plug-In . SVG Version: 6.00 Build 0)  -->
<svg version="1.1" id="Layer_1" xmlns="http://www.w3.org/2000/svg" xmlns:xlink="http://www.w3.org/1999/xlink" x="0px" y="0px"
	 viewBox="0 0 388.6 599.2" style="enable-background:new 0 0 388.6 599.2;" xml:space="preserve">
<style type="text/css">
	.st0{fill:#3A3D3F;}
</style>
<g>
	<g>
		<path class="st0" d="M369.9,97.9c1.8-0.2,3.8,0,5.4,0.9c0.9,0.5,1.6,1.3,2.2,2.2c0.6,0.9,1,1.8,1.3,2.8c0.7,1.9,1,4,1.8,5.9
			c0.7,1.7,1.7,3.3,2.3,5.1c0.3,0.9,0.6,1.8,0.7,2.7c0.1,0.9,0,1.9-0.3,2.8c-0.4,1.2-1.3,2.1-2.2,2.9c-1,0.8-2,1.5-3,2.2
			c-3.4,2.5-6.1,5.9-7.8,9.8c-0.4-1.9,0-4,1.2-5.6c0.6-0.8,1.4-1.5,2.1-2.2c0.7-0.7,1.4-1.5,1.8-2.4c0.6-1.4,0.5-3,0.1-4.5
			c-0.4-1.5-1.1-2.8-1.6-4.3c-0.9-2.2-1.4-4.5-2.2-6.7c-0.8-2.2-2-4.4-3.8-5.9c-2.2-1.8-5.3-2.5-8.1-2.2c-2.9,0.2-5.6,1.2-8.3,2.2
			c-5,2-9.9,4.4-14.7,7c-3.1,1.7-6.2,3.4-9.3,5.2c1.4-1.2,2.7-2.5,4.1-3.8c2.8-2.7,5.4-5.7,8.8-7.6c3.6-2.1,7.9-3,12-3.5
			c4.2-0.5,8.4-0.7,12.5-1.7C366.3,98.7,368.1,98.1,369.9,97.9z"/>
		<path class="st0" d="M41.4,72.2c2.4-2.4,5.5-3.9,8.8-4.8c3.3-0.9,6.7-1.1,10-1c5.3,0.1,10.6,0.9,15.9,0.4
			c8.5-0.8,16.4-5,22.6-10.9c1.9-1.9,3.7-3.9,4.8-6.4c0.5-1.2,0.9-2.5,1-3.9c0.1-1.3-0.1-2.7-0.7-3.9c-0.9-2-2.6-3.5-4.6-4.5
			c-2-1-4.1-1.4-6.3-1.6c-5-0.5-10.2,0.1-15,1.6c-4.4,1.4-8.6,3.6-12.3,6.4c1.6-2.3,3.6-4.4,5.9-6c5.6-3.8,12.5-5,19.2-6.1
			c5.8-1,11.8-2,17.1-4.5c1.7-0.8,3.4-1.7,4.7-3.1c1.3-1.3,2.2-3.1,2.3-5c0-1.1-0.3-2.2-0.8-3.1c-0.5-1-1.3-1.8-2.2-2.4
			c-2.2-1.6-5.1-2.1-7.7-1.2c2.2-1.1,4.5-1.9,6.9-2.4c4.2-0.9,8.5-0.8,12.7-1c2.2-0.1,4.5-0.2,6.5-1.1c1.7-0.8,3-2,4.6-3.1
			c1.6-1.1,3.4-1.8,5.2-2.5c6.3-2.2,13.1-3,19.6-1.6c6.4,1.4,12.3,4.8,17.1,9.2c3.3,3.1,6.2,6.6,8.4,10.6c-0.1-1.1-0.1-2.1-0.1-3.2
			c0.1-1.3,0.2-2.7,0-4c-0.2-1.4-0.8-2.7-1.2-4c-0.5-1.4-0.8-2.8-1-4.2c1.3,1,2.2,2.4,2.6,4c0.4,1.5,0.3,3.1,0.6,4.7
			c0.4,1.9,1.5,3.5,2.7,5c0.5,0.7,1.1,1.5,1.6,2.2c0.9-1.4,1.5-3.1,1.6-4.8c0.2-2-0.2-4-0.2-6c0-1.4,0.3-2.9,0.7-4.3
			c0.5,1.8,0.8,3.6,1.2,5.5c0.6,3.3,0.9,6.7,1.1,10v0.1c0.1-3.4,0.5-6.7,1.1-10c0.3-1.8,0.7-3.7,1.2-5.5c0.5,1.4,0.7,2.8,0.7,4.3
			c0,2-0.4,4-0.2,6c0.2,1.7,0.7,3.3,1.6,4.8c0.6-0.7,1.1-1.4,1.6-2.2c1.1-1.5,2.2-3.2,2.7-5c0.4-1.5,0.2-3.1,0.6-4.7
			c0.4-1.6,1.3-3,2.6-4c-0.2,1.4-0.5,2.8-1,4.2c-0.4,1.3-1,2.6-1.2,4c-0.2,1.3,0,2.6,0,4c0,1.1,0,2.1-0.1,3.2
			c2.2-3.9,5.1-7.5,8.4-10.6c4.8-4.4,10.7-7.8,17.1-9.2c6.5-1.4,13.4-0.6,19.6,1.6c1.8,0.6,3.6,1.4,5.2,2.5c1.5,1,2.9,2.3,4.6,3.1
			c2,0.9,4.3,1.1,6.5,1.1c4.3,0.1,8.5,0.1,12.7,1c2.4,0.5,4.7,1.3,6.9,2.4c-2.6-0.8-5.5-0.4-7.7,1.2c-0.9,0.6-1.6,1.5-2.2,2.4
			c-0.5,1-0.8,2.1-0.8,3.1c0,1.9,1,3.7,2.3,5c1.3,1.3,3,2.3,4.7,3.1c5.4,2.5,11.3,3.5,17.1,4.5c6.7,1.1,13.6,2.2,19.2,6.1
			c2.3,1.6,4.3,3.6,5.9,6c-3.7-2.8-7.9-4.9-12.3-6.4c-4.8-1.5-10-2.2-15-1.6c-2.2,0.2-4.3,0.7-6.3,1.6c-2,1-3.7,2.5-4.6,4.5
			c-0.5,1.2-0.8,2.6-0.7,3.9c0.1,1.3,0.4,2.7,1,3.9c1.1,2.5,2.9,4.5,4.8,6.4c6.1,5.9,14.1,10.1,22.5,10.9c5.3,0.5,10.6-0.3,15.9-0.4
			c3.4-0.1,6.8,0.1,10,1c3.3,0.9,6.4,2.4,8.8,4.8c3.4,3.3,5.2,8.1,4.8,12.8c-1.5-2.5-3.4-4.7-5.6-6.6c-4.2-3.8-9.5-6.4-15-7.6
			c-5.2-1.1-10.5-1.1-15.7-1.9c-5.2-0.8-10.3-2.3-15.1-4.5c-4.4-2-8.7-4.4-12.4-7.5c-3.4-2.9-6.2-6.4-8.1-10.4
			c-0.9-1.9-1.5-3.9-1.8-5.9c-0.3-2-0.1-4.1,0.5-6.1c0.6-1.8,1.6-3.5,3-4.8c-2.6-1.9-5.1-3.8-7.7-5.8c-1.3-1-2.7-2.1-3.7-3.4
			c-1.1-1.3-1.9-2.9-2-4.5c-0.1-1.1,0.2-2.2,0.7-3.1c0.5-1,1.3-1.8,2.2-2.3c-3.8-1.2-8-1.4-11.9-0.5c-2,0.5-4,1.2-6,1.6
			c-2,0.4-4.2,0.4-6.1-0.5c-1.5-0.8-2.7-2.1-3.8-3.5c-1.1-1.4-2.1-2.8-3.4-3.8c-1.2-0.9-2.6-1.5-4-1.7c-1.5-0.3-3-0.2-4.4,0
			c-2.9,0.5-5.6,1.8-8.2,3.3c-6.1,3.5-11.7,7.8-16.1,13.2c-5.5,6.7-9.2,14.8-10.9,23.3c-2,10-1.4,20.4-1.1,30.7
			c0.6,19.1,0,38.2-1.7,57.2v-0.1c-1.7-19-2.3-38.1-1.7-57.2c0.3-10.2,0.9-20.6-1.1-30.7c-1.7-8.5-5.4-16.6-10.9-23.3
			C176.7,13,171.1,8.7,165,5.2c-2.6-1.5-5.3-2.8-8.2-3.3c-1.5-0.2-3-0.3-4.4,0c-1.5,0.3-2.9,0.8-4,1.7c-1.4,1-2.4,2.5-3.4,3.8
			c-1.1,1.4-2.2,2.7-3.8,3.5c-1.8,0.9-4,0.9-6.1,0.5c-2-0.4-4-1.1-6-1.6c-3.9-0.9-8.1-0.7-11.9,0.5c0.9,0.6,1.7,1.4,2.2,2.3
			c0.5,1,0.7,2.1,0.7,3.1c-0.1,1.7-0.9,3.2-2,4.5c-1.1,1.3-2.4,2.3-3.7,3.4c-2.5,2-5.1,3.9-7.7,5.8c1.4,1.3,2.4,3,3,4.8
			c0.7,2,0.8,4.1,0.5,6.1c-0.3,2-0.9,4-1.8,5.9c-1.9,4-4.7,7.5-8.1,10.4c-3.7,3.2-8,5.6-12.4,7.5c-4.8,2.1-9.9,3.7-15.1,4.5
			c-5.2,0.8-10.6,0.7-15.7,1.9c-5.5,1.2-10.8,3.8-15,7.6c-2.2,1.9-4,4.2-5.6,6.6C36.2,80.3,38.1,75.5,41.4,72.2z"/>
		<path class="st0" d="M3.6,117.7c0.1-0.9,0.4-1.8,0.7-2.7c0.7-1.7,1.7-3.3,2.3-5.1c0.7-1.9,1.1-3.9,1.8-5.9c0.3-1,0.8-1.9,1.3-2.8
			c0.6-0.9,1.3-1.6,2.2-2.2c1.6-1,3.5-1.2,5.4-0.9c1.8,0.2,3.6,0.8,5.4,1.2c4.1,1,8.3,1.2,12.5,1.7c4.2,0.5,8.4,1.4,12,3.5
			c3.4,2,6,4.9,8.8,7.6c1.3,1.3,2.7,2.6,4.1,3.8c-3.1-1.8-6.2-3.6-9.3-5.2c-4.8-2.6-9.7-5-14.7-7c-2.7-1.1-5.4-2-8.3-2.2
			c-2.9-0.2-5.9,0.4-8.1,2.2c-1.8,1.5-3,3.7-3.8,5.9c-0.8,2.2-1.4,4.5-2.2,6.7c-0.6,1.4-1.2,2.8-1.6,4.3c-0.4,1.5-0.5,3.1,0.1,4.5
			c0.4,0.9,1.1,1.7,1.8,2.4c0.7,0.7,1.5,1.4,2.1,2.2c1.1,1.6,1.6,3.7,1.2,5.6c-1.7-3.9-4.4-7.3-7.8-9.8c-1-0.7-2.1-1.4-3-2.2
			c-1-0.8-1.8-1.8-2.2-2.9C3.6,119.6,3.5,118.7,3.6,117.7z"/>
		<path class="st0" d="M14.4,280.3c-3.1,5-5.2,10.6-6.1,16.4c-4.2-12-6.6-24.7-7.1-37.4c-0.7-17.6,2.3-35.4,8.7-51.9
			c6-15.6,15-29.8,22.2-44.8c4.5-9.3,8.4-18.9,11.6-28.7c-3.1,12.2-6.7,24.3-11,36.1c-6.7,18.8-14.9,37.2-19,56.7
			c-2.7,12.7-3.6,25.8-1.9,38.7c0.2,1.2,0.3,2.4,0.9,3.5c0.3,0.5,0.6,1,1.1,1.5c0.4,0.4,1,0.7,1.6,0.8c0.9,0.2,1.7,0,2.5-0.3
			c0.8-0.3,1.5-0.8,2.3-1.3c2.1-1.2,4.4-2.1,6.8-2.6C22,270.6,17.7,275.1,14.4,280.3z"/>
		<path class="st0" d="M118.9,348c-2.5,2.3-4.6,4.9-6.4,7.7c-4,6.3-6.1,13.8-6.4,21.3c-0.2,3.9,0.2,7.8,1,11.6
			c-2.3-6-3.6-12.3-3.9-18.7c-0.3-7.3,0.8-14.7,3.2-21.6c-4.8,5.6-8.4,12.2-10.3,19.3c-1.6,5.9-2.1,12-2.3,18.1
			c-0.1,4.4,0,8.8,0.3,13.2c-12.8-12.4-23.3-27.2-30.8-43.4c-6.9-14.7-11.3-30.7-12-46.9c-0.4-8.2,0.2-16.5,1.8-24.6
			c-0.7,19.6,2.6,39.3,9.7,57.6c5.5,13.9,13.1,27,22.6,38.6c1.2-8.1,4.2-16,8.6-22.8c6-9.2,14.8-16.6,25-21L118.9,348z"/>
		<path class="st0" d="M123.7,259.7c-2.8-16.2-9.4-31.7-11-48.1c-0.2-2.4-0.3-4.8-0.7-7.2c-0.4-2.4-1-4.7-2.3-6.8
			c-1.4-2.3-3.4-4.1-5.6-5.5c-2.2-1.5-4.6-2.6-7-3.8c-4.9-2.4-9.8-5-15.2-6c-4.5-0.8-9.3-0.5-13.6,1.2c-3.2,1.3-6.2,3.2-8.6,5.8
			c2.1-3.5,5-6.6,8.5-8.9c1.9-1.3,4.1-2.3,6.3-2.9c2.2-0.6,4.6-0.7,6.9-0.3c4.1,0.9,7.6,3.6,11.1,6c2.6,1.7,5.2,3.2,8.1,4.4
			c2.2,0.9,4.4,1.6,6.7,2.2c1.8,0.5,3.7,0.9,5.6,1.2c-1.5-0.5-2.9-1.2-4.1-2.2c-1.7-1.4-3.1-3.2-4.8-4.5c-1.7-1.3-3.7-2.2-5.6-3
			c-2.2-1-4.3-1.9-6.4-3c2.2,0.5,4.3,1,6.5,1.5c1.1,0.2,2.1,0.5,3.2,0.5c1.1,0,2.2-0.3,3.1-0.9c0.6-0.5,1.1-1.1,1.4-1.9
			c0.3-0.7,0.3-1.6,0.1-2.3c-0.2-0.6-0.5-1.2-1-1.7c-0.4-0.5-0.9-1-1.5-1.4c-0.4-0.3-0.8-0.6-1.2-0.9l1.7-0.7
			c1.2,0.7,2.1,1.7,2.8,2.9c0.4,0.7,0.8,1.5,0.9,2.3c0.2,0.8,0.2,1.7,0,2.5c-0.3,1.2-1.1,2.3-1.3,3.5c-0.1,0.7-0.1,1.5,0.1,2.2
			c0.2,0.7,0.5,1.4,0.9,2.1c1.3,2.1,3.4,3.8,5.7,4.6c1.1,0.4,2.3,0.6,3.6,0.6c-1.3,1.1-2.4,2.5-3.2,4.1c-1.8,3.8-1.7,8.2-1.1,12.3
			c1.4,10.2,5.2,20.1,10.6,28.9c3.5,5.8,7.7,11.2,9.8,17.6c0.9,2.7,1.5,5.5,1.7,8.4c0.7,8.4-1.3,16.8-1.4,25.2
			c0,4.5,0.6,9.1,2.7,13.1c1,2,2.4,3.8,4.2,5.2c1.7,1.4,3.8,2.4,6.1,2.7c3.3,0.5,6.5-0.4,9.8-0.7c1.8-0.1,3.5-0.1,5.3,0.1
			c-4.4,0.4-8.6,2-12.1,4.6c-1.3,1-2.4,2-3.4,3.3c-1,1.3-1.7,2.7-2,4.3c-0.4,2-0.1,4.1,0.8,5.9c-6.5-6.4-11.5-14.4-14.4-23.1
			C125.5,289.2,126.1,274.1,123.7,259.7z"/>
		<path class="st0" d="M192.9,388.9c-2.1,5.4-6.5,9.6-10,14.1c-1.2,1.5-2.3,3.1-3.2,4.9c-0.8,1.7-1.4,3.7-1.4,5.6
			c0,1.9,0.5,3.7,1.5,5.3c0.7,1.1,1.6,2.1,2.6,2.9c0.5,0.3,0.9,0.6,1.4,0.9c-0.5-0.3-1-0.6-1.4-0.9c-7.4-4.8-14.3-10.2-20.7-16.2
			c-7.9-7.4-15-15.8-19.1-25.8c-2-4.8-3.2-10-3.6-15.2c1.4,10,5.6,19.7,12.1,27.5c5.2,6.3,11.8,11.4,19.1,14.8
			c0.1-3.2,1.4-6.4,3.6-8.7c1.9-1.9,4.4-3.2,6.8-4.4c2.5-1.2,5-2.3,7.1-4c2.2-1.8,3.9-4.2,5-6.8c0.6-1.5,1.1-3,1.4-4.6
			C194.6,381.9,194.2,385.6,192.9,388.9z"/>
		<path class="st0" d="M246.1,379.9c-4.1,10-11.3,18.4-19.1,25.8c-6.4,6-13.3,11.4-20.7,16.2c-0.4,0.3-0.9,0.7-1.4,0.9
			c0.5-0.3,0.9-0.6,1.4-0.9c1-0.8,1.9-1.8,2.6-2.9c1-1.6,1.5-3.5,1.5-5.3c0-1.9-0.6-3.9-1.4-5.6c-0.8-1.7-2-3.3-3.2-4.9
			c-3.6-4.6-7.9-8.7-10-14.1c-1.3-3.3-1.7-7-1.1-10.5c0.3,1.6,0.7,3.1,1.4,4.6c1.1,2.6,2.8,5,5,6.8c2.1,1.7,4.6,2.9,7.1,4
			c2.5,1.2,4.9,2.5,6.8,4.4c2.2,2.3,3.6,5.5,3.6,8.7c7.4-3.4,14-8.5,19.1-14.8c6.4-7.8,10.7-17.4,12.1-27.5
			C249.3,370,248,375.1,246.1,379.9z"/>
		<path class="st0" d="M262.4,301.8c-2.9,8.7-7.9,16.7-14.4,23.1c0.9-1.8,1.2-3.9,0.8-5.9c-0.3-1.6-1-3-2-4.3
			c-1-1.3-2.1-2.4-3.4-3.3c-3.5-2.6-7.8-4.3-12.1-4.6c1.7-0.2,3.5-0.2,5.3-0.1c3.3,0.3,6.6,1.2,9.8,0.7c2.2-0.3,4.3-1.3,6.1-2.7
			c1.7-1.4,3.2-3.2,4.2-5.2c2.1-4,2.7-8.6,2.7-13.1c0-8.4-2-16.8-1.4-25.2c0.2-2.8,0.8-5.7,1.7-8.4c2.2-6.4,6.3-11.8,9.8-17.6
			c5.4-8.8,9.2-18.7,10.6-28.9c0.6-4.1,0.7-8.6-1.1-12.3c-0.8-1.6-1.9-3-3.2-4.1c1.2,0,2.4-0.2,3.6-0.6c2.4-0.8,4.4-2.5,5.7-4.6
			c0.4-0.6,0.7-1.3,0.9-2.1c0.2-0.7,0.3-1.5,0.1-2.2c-0.2-1.2-1-2.3-1.3-3.5c-0.2-0.8-0.2-1.7,0-2.5c0.2-0.8,0.5-1.6,0.9-2.3
			c0.7-1.2,1.7-2.1,2.8-2.9l1.7,0.7c-0.4,0.3-0.8,0.6-1.2,0.9c-0.5,0.4-1,0.9-1.5,1.4c-0.4,0.5-0.8,1.1-1,1.7
			c-0.2,0.8-0.2,1.6,0.1,2.3c0.3,0.7,0.7,1.4,1.4,1.9c0.9,0.6,2,0.9,3.1,0.9c1.1,0,2.1-0.2,3.2-0.5c2.2-0.5,4.3-1,6.5-1.5
			c-2.1,1-4.3,2-6.4,3c-1.9,0.9-3.9,1.7-5.6,3c-1.7,1.4-3.1,3.2-4.8,4.5c-1.2,1-2.6,1.7-4.1,2.2c1.9-0.3,3.7-0.7,5.6-1.2
			c2.3-0.6,4.5-1.3,6.7-2.2c2.8-1.2,5.5-2.7,8.1-4.4c3.5-2.4,7-5.1,11.1-6c2.3-0.5,4.7-0.3,6.9,0.3c2.2,0.6,4.4,1.6,6.3,2.9
			c3.4,2.3,6.4,5.3,8.5,8.9c-2.4-2.5-5.3-4.5-8.6-5.8c-4.3-1.7-9.1-2-13.6-1.2c-5.4,1-10.3,3.6-15.2,6c-2.4,1.2-4.8,2.3-7,3.8
			c-2.2,1.5-4.2,3.3-5.6,5.5c-1.2,2.1-1.9,4.4-2.3,6.8c-0.4,2.4-0.5,4.8-0.7,7.2c-1.6,16.4-8.2,31.9-11,48.1
			C266.5,272.9,267.1,287.9,262.4,301.8z"/>
		<path class="st0" d="M337.4,308.8c-0.7,16.2-5.2,32.2-12,46.9c-7.6,16.2-18.1,30.9-30.8,43.4c0.3-4.4,0.4-8.8,0.3-13.2
			c-0.1-6.1-0.6-12.2-2.3-18c-1.9-7.1-5.5-13.8-10.3-19.3c2.4,6.9,3.5,14.3,3.2,21.6c-0.3,6.4-1.6,12.7-3.9,18.7
			c0.8-3.8,1.1-7.7,1-11.6c-0.3-7.5-2.4-14.9-6.4-21.3c-1.8-2.8-4-5.4-6.4-7.7l0-11.7c10.1,4.4,18.9,11.8,25,21
			c4.5,6.9,7.5,14.7,8.6,22.8c9.5-11.6,17.1-24.6,22.6-38.6c7.1-18.3,10.5-38,9.7-57.6C337.2,292.3,337.8,300.5,337.4,308.8z"/>
		<path class="st0" d="M387.4,259.5c-0.5,12.7-2.9,25.4-7.1,37.4c-0.9-5.8-3-11.4-6.1-16.4c-3.2-5.2-7.5-9.7-12.6-13.2
			c2.4,0.5,4.7,1.4,6.8,2.6c0.8,0.4,1.5,0.9,2.3,1.3c0.8,0.3,1.7,0.5,2.5,0.3c0.6-0.1,1.1-0.4,1.6-0.8c0.5-0.4,0.8-0.9,1.1-1.5
			c0.5-1.1,0.7-2.3,0.9-3.5c1.7-12.9,0.8-26-1.9-38.7c-4.1-19.5-12.3-37.9-19-56.7c-4.2-11.8-7.9-23.9-11-36.1
			c3.2,9.8,7.1,19.4,11.6,28.7c7.3,15,16.2,29.2,22.2,44.8C385,224.1,388.1,241.8,387.4,259.5z"/>
		<path class="st0" d="M247.1,130.3c0.8-1.2,2.8-1.7,3.5-2.5c-2.6-0.8-5.7-2.3-8.2-3.7c-2.2,8.8-9.3,10.4-12.3,16.1
			c-4,8.2-4.4,17.2-4.8,26.5l1,1c0.9,7.9,1.4,15.9,2.7,23.7c0.2,10.4,5.7,19.5,3.1,30.1c-2.5,0.4-4.5,3-6.4,4.3
			c-2.1,1.1-5,2.8-4.9,5.4c-0.5-0.1-1.1,0.9-1.6,0.1l0.2-0.2c-0.6-2.4-3.4-1.1-5.2-1.5c-6.9,2.3-14.5,2.8-21.6,4.7
			c-6.6-4-14.7-5.3-22.9-4.9c-1.8-1.1-1.8-3.2-2.7-5c-2-2-3.9-4.7-7-4.1c-2.9-16.1,1.7-32.8,5.1-48.2c-0.4-12.1,4.6-25.7-4.6-35.2
			c-3.3-4-9.5-8.1-10.9-13.3c-2.5-0.3-9.2,0.2-9.7,0.7c1.5,2.1,1.8,4.8,3.4,6c-1.2,2.2-4.1,1.8-5.9,3.2c-2.7,2.4-7.1,4.2-9,7.9
			l2.9,6.3c7.1-4.6,4.4,4.6,9.6,4.4c5.5,2.9,11,6.3,17,7.4c1.6,3.8,0.8,8.3,1.1,12.7c0.1,14.9-1.3,30-0.8,44.5v1.7
			c-2,3.2,2.4,6.3,2.4,9.4c0,7.1,7.9,10.3,12.3,14.7c4.6,1.1,8.4,4.4,12.9,5.9c7,3.6,9.6,10.5,9.5,18.1c-4.2,1.9-8.4,3.9-12.8,5.8
			c-7.7,2.6-11.2,12.9-20.7,10.7c-2.3-1-4.3-4.5-4.7-6.9c0,0-0.7,5.1-1.7,10.2c0.5,1.6,2.3,2.4,3.6,3.2c1.5,0.4,3.6,0.7,5.1-0.3
			c6.4-5.2,15-5.1,22.8-6.9c6.8-1.1,14.4-2.6,21.3-0.8c8.3-0.3,14.3,4.8,21.7,6.3c2.6-1.4,5.6-5.6,6.1-9.1c-1.8,0.5-3.3,1.1-5.1,1
			c-8.4,1.4-13-7.1-19.8-9.8c-3.6-2-9.9,1.3-11.9-3.4c-1.1-6.8,0-14.7,5.9-19.1c7.6-4.3,16.9-5.9,22.9-12.9c4.8-5.5,5.2-13,5.4-20.4
			c-0.2-3-2.4-35-1.8-46.5c1.6-5.6,3-6.3,5.8-8.6c14.8-2.6,23.7-7.1,24.5-20.1C262.1,138.7,252.2,137.7,247.1,130.3z M141.2,141.3
			c0,0,5.1-0.4,9.6,0.3c3.2,0.5,6,2.4,6.7,1.2C157.5,142.8,150.5,159.5,141.2,141.3z M235.6,144.5c0.7,1.2,3.5-0.7,6.7-1.2
			c4.5-0.7,9.6-0.3,9.6-0.3C242.6,161.2,235.6,144.5,235.6,144.5z"/>
	</g>
	<g>
		<g>
			<path class="st0" d="M92.1,466.6v63.1c0,11.3-9.2,20.5-20.5,20.5H0V446.1h71.5C82.9,446.1,92.1,455.3,92.1,466.6z M69.5,472.8
				c0-4.3-3.4-7.7-7.7-7.7H22.6v66.1h39.2c4.3,0,7.7-3.4,7.7-7.7V472.8z"/>
			<path class="st0" d="M195.3,446.1v83.6c0,11.3-9.2,20.5-20.5,20.5h-51c-11.3,0-20.5-9.2-20.5-20.5v-83.6h22.6v77.4
				c0,4.3,3.4,7.7,7.7,7.7H165c4.3,0,7.7-3.4,7.7-7.7v-77.4H195.3z"/>
			<path class="st0" d="M229.1,465.1v23.6h54.1v19h-54.1v15.9c0,4.3,3.4,7.7,7.7,7.7h56.6v19H227c-11.3,0-20.5-9.2-20.5-20.5v-83.6
				h86.9v19H229.1z"/>
			<path class="st0" d="M324.1,465.1v23.6h54.1v19h-54.1v15.9c0,4.3,3.4,7.7,7.7,7.7h56.6v19H322c-11.3,0-20.5-9.2-20.5-20.5v-83.6
				h86.9v19H324.1z"/>
		</g>
		<g>
			<path class="st0" d="M15.8,592.7c0,4.4-1.7,6.5-5.3,6.5H0v-24.3l9,0c4.2,0,7,1.6,7,6.2c0,2.9-0.8,4.8-3.4,6
				C14.1,587.6,15.8,590.2,15.8,592.7z M10.4,576.2l-9.1,0v10.4h5.7c3.7,0,7.8,0,7.8-5.4C14.8,578.7,13.3,576.2,10.4,576.2z
				 M1.3,598l7.8,0c3.5,0,5.5-1.1,5.5-5c0-2.5-1.4-5-4.7-5.3H1.3V598z"/>
			<path class="st0" d="M94.1,599.2h-1.4l-4.4-9.6h-9l0.1,9.6H78v-24.3h9.9c3.9,0,6,3.2,6,7.2c0,3.1-1.4,6.6-4.3,7.3L94.1,599.2z
				 M92.5,582.1c0-3.8-1.9-6.1-4.7-6.1h-8.6v12.2l7.4,0C89.8,588.2,92.5,587.5,92.5,582.1z"/>
			<path class="st0" d="M153.1,599.2l8.7-24.3h2c1.2,3,3.3,8.9,5.8,16c1,2.7,2,5.5,3,8.3h-1.4l-2.9-8.2h-10.8l-2.7,8.2H153.1z
				 M162.8,575.9c-0.4,1.3-1.4,4.1-2.1,5.8l-2.8,7.9h9.8L162.8,575.9z"/>
			<path class="st0" d="M238.7,584.3c1.1,0.7,2.7,1.3,4.2,1.8c3.2,1,7.2,2.4,7.2,6.6c0,3.6-2.9,6.4-7.3,6.4h-0.9
				c-1.6,0-5.2-0.4-7.6-5.5l1-0.6c1.6,2.9,3.6,4.8,7.1,4.8c3.3,0,6.3-2.1,6.3-4.9c0-3.3-3.2-4.4-6.5-5.7c-1.4-0.5-2.9-1-4.2-1.8
				c-1.7-1-2.9-2.4-2.9-4.6c0-3.5,2.9-6.1,6.9-6.1c2.9,0,5.2,1.2,7.2,4.3l-0.9,0.6c-1.7-2.1-3.1-3.8-6.1-3.8c-3.4,0-5.7,2-5.7,4.7
				C236.4,582.1,237.1,583.3,238.7,584.3z"/>
			<path class="st0" d="M311.9,599.2v-24.3h1.3v24.3H311.9z"/>
			<path class="st0" d="M388.6,598.3v0.4v0.5H375v-24.3h1.3v23.2h12.3C388.6,598.3,388.6,598.2,388.6,598.3z"/>
		</g>
	</g>
</g>
</svg>
