<?xml version="1.0" encoding="UTF-8" standalone="no"?>
<svg
   xmlns:dc="http://purl.org/dc/elements/1.1/"
   xmlns:cc="http://creativecommons.org/ns#"
   xmlns:rdf="http://www.w3.org/1999/02/22-rdf-syntax-ns#"
   xmlns:svg="http://www.w3.org/2000/svg"
   xmlns="http://www.w3.org/2000/svg"
   xmlns:sodipodi="http://sodipodi.sourceforge.net/DTD/sodipodi-0.dtd"
   xmlns:inkscape="http://www.inkscape.org/namespaces/inkscape"
   viewBox="0 0 869.33331 240"
   height="240"
   width="869.33331"
   xml:space="preserve"
   id="svg2"
   version="1.1"
   sodipodi:docname="MADE-IN-BRAZIL-logo_-branco.svg"
   inkscape:version="0.92.4 (5da689c313, 2019-01-14)"><sodipodi:namedview
     pagecolor="#ffffff"
     bordercolor="#666666"
     borderopacity="1"
     objecttolerance="10"
     gridtolerance="10"
     guidetolerance="10"
     inkscape:pageopacity="0"
     inkscape:pageshadow="2"
     inkscape:window-width="2560"
     inkscape:window-height="1017"
     id="namedview18"
     showgrid="false"
     inkscape:zoom="0.43826688"
     inkscape:cx="434.66666"
     inkscape:cy="170"
     inkscape:window-x="1358"
     inkscape:window-y="-8"
     inkscape:window-maximized="1"
     inkscape:current-layer="svg2" /><metadata
     id="metadata8"><rdf:RDF><cc:Work
         rdf:about=""><dc:format>image/svg+xml</dc:format><dc:type
           rdf:resource="http://purl.org/dc/dcmitype/StillImage" /><dc:title></dc:title></cc:Work></rdf:RDF></metadata><defs
     id="defs6"><clipPath
       id="clipPath18"
       clipPathUnits="userSpaceOnUse"><path
         id="path16"
         d="M 0,255 H 652 V 0 H 0 Z"
         inkscape:connector-curvature="0" /></clipPath></defs><g
     transform="matrix(1.3333333,0,0,-1.3333333,0,304.57206)"
     id="g10"><g
       id="g12"><g
         clip-path="url(#clipPath18)"
         id="g14"><g
           transform="translate(143.8701,106.0967)"
           id="g20"><path
             id="path22"
             style="fill:#ffffff;fill-opacity:1;fill-rule:evenodd;stroke:none"
             d="m 0,0 v -16.044 c 0,-1.708 -0.327,-2.956 -0.972,-3.716 -0.622,-0.731 -1.828,-1.103 -3.584,-1.103 -1.019,0 -1.83,0.139 -2.406,0.415 -0.569,0.272 -1.017,0.621 -1.328,1.04 l -0.623,1.48 -0.164,1.884 V 0 h -6.634 v -16.052 c 0,-3.548 0.997,-6.228 2.962,-7.96 1.942,-1.716 4.7,-2.587 8.193,-2.587 3.443,0 6.193,0.875 8.173,2.599 2.002,1.748 3.016,4.425 3.016,7.948 L 6.633,0 Z M 25.232,0.107 V 0.103 c -1.175,-0.316 -2.245,-0.812 -3.18,-1.475 -0.948,-0.677 -1.723,-1.529 -2.309,-2.536 -0.595,-1.025 -0.897,-2.24 -0.897,-3.616 0,-1.228 0.241,-2.296 0.715,-3.18 0.466,-0.868 1.088,-1.604 1.849,-2.189 l 2.515,-1.386 c 10e-4,0 2.786,-0.872 2.786,-0.872 -0.017,0.004 2.692,-0.697 2.692,-0.697 l 2.288,-0.708 1.501,-0.92 c 0.316,-0.308 0.469,-0.708 0.469,-1.219 0,-0.496 -0.118,-0.885 -0.362,-1.188 -10e-4,0 -1.016,-0.797 -1.016,-0.797 -0.001,0 -1.405,-0.416 -1.405,-0.416 -0.002,-0.004 -1.488,-0.12 -1.488,-0.12 l -1.952,0.244 -1.566,0.712 -1.028,1.204 c -0.259,0.496 -0.388,1.12 -0.388,1.856 v 0.58 h -6.433 l -0.008,-0.567 c -0.025,-1.625 0.278,-3.053 0.902,-4.252 0.617,-1.189 1.466,-2.18 2.521,-2.953 1.037,-0.759 2.25,-1.327 3.608,-1.683 1.327,-0.349 2.72,-0.524 4.134,-0.524 1.742,0 3.305,0.207 4.644,0.62 1.353,0.412 2.509,1.003 3.435,1.755 0.938,0.765 1.655,1.684 2.13,2.737 0.473,1.044 0.714,2.187 0.714,3.407 0,1.504 -0.332,2.764 -0.986,3.752 -0.635,0.952 -1.4,1.727 -2.274,2.305 l -2.612,1.239 c -0.002,0 -1.986,0.515 -1.986,0.515 0.026,-0.007 -3.748,0.964 -3.748,0.964 l -2.168,0.733 -0.85,0.612 -0.191,0.879 0.251,1.001 0.722,0.703 1.01,0.408 c 10e-4,0 1.21,0.128 1.21,0.128 L 30.237,-5 l 1.326,-0.517 0.866,-0.939 0.512,-2.04 0.469,-0.105 h 5.861 v 0.58 c 0,1.533 -0.3,2.86 -0.889,3.953 -0.588,1.088 -1.392,1.992 -2.39,2.691 -0.983,0.688 -2.121,1.192 -3.382,1.5 -1.239,0.3 -2.545,0.452 -3.882,0.452 -1.156,0 -2.332,-0.156 -3.496,-0.468 m 26.344,-26.13 H 58.21 V 0 h -6.634 z m 26.019,25.57 c -1.591,-0.704 -2.952,-1.692 -4.05,-2.936 -1.09,-1.235 -1.937,-2.7 -2.517,-4.36 -0.577,-1.644 -0.871,-3.451 -0.871,-5.367 0,-1.872 0.294,-3.644 0.872,-5.268 0.581,-1.64 1.429,-3.084 2.52,-4.292 1.095,-1.22 2.458,-2.187 4.048,-2.88 1.588,-0.691 3.394,-1.043 5.368,-1.043 1.595,0 3.079,0.247 4.411,0.736 1.342,0.487 2.531,1.213 3.538,2.143 1.004,0.937 1.822,2.076 2.429,3.388 0.605,1.312 0.987,2.792 1.131,4.408 l 0.058,0.632 H 88.093 L 88.029,-15.8 c -0.194,-1.544 -0.724,-2.792 -1.575,-3.716 -0.832,-0.908 -1.975,-1.347 -3.489,-1.347 -1.126,0 -2.086,0.215 -2.852,0.643 -0.773,0.428 -1.409,1.004 -1.89,1.716 -0.493,0.732 -0.857,1.565 -1.084,2.481 l -0.347,2.907 0.349,3.036 c 0.226,0.952 0.591,1.808 1.084,2.548 0.482,0.723 1.116,1.303 1.887,1.731 0.767,0.424 1.727,0.64 2.853,0.64 l 1.735,-0.296 1.486,-0.827 1.091,-1.233 0.681,-1.879 0.437,-0.116 h 5.942 l -0.073,0.648 c -0.171,1.508 -0.593,2.872 -1.254,4.048 -0.663,1.179 -1.514,2.179 -2.533,2.979 -1.014,0.796 -2.175,1.408 -3.453,1.824 -1.27,0.412 -2.636,0.62 -4.059,0.62 -1.975,0 -3.782,-0.356 -5.37,-1.06 M 144.763,0 c 0,0 -4.296,-13.353 -5.128,-15.932 C 138.76,-13.364 134.214,0 134.214,0 h -8.693 v -26.023 h 6.281 v 14.803 c 1.446,-4.14 5.172,-14.803 5.172,-14.803 h 5.037 c 0,0 3.726,10.763 5.172,14.947 v -14.947 h 6.281 V 0 Z m 21.735,0 v -26.023 h 20.035 v 5.767 h -13.404 v 4.92 h 12.044 v 5.416 h -12.044 v 4.151 h 13.124 V 0 Z M 204.8,-0.453 c -1.588,-0.704 -2.952,-1.692 -4.048,-2.936 -1.088,-1.235 -1.936,-2.7 -2.516,-4.36 -0.576,-1.644 -0.868,-3.447 -0.868,-5.367 0,-1.876 0.292,-3.648 0.868,-5.268 0.584,-1.64 1.432,-3.084 2.516,-4.292 1.1,-1.22 2.46,-2.187 4.052,-2.88 1.588,-0.691 3.396,-1.043 5.368,-1.043 1.279,0 2.563,0.268 3.811,0.799 0.961,0.404 1.832,1.113 2.661,1.973 0.164,-0.823 0.435,-2.204 0.435,-2.204 h 4.552 v 14.606 h -11.624 v -5.222 h 5.356 c -0.219,-1.257 -0.647,-2.296 -1.391,-2.989 -0.872,-0.815 -2.149,-1.227 -3.8,-1.227 -1.124,0 -2.084,0.215 -2.853,0.643 -0.771,0.428 -1.407,1.004 -1.886,1.716 -0.493,0.729 -0.857,1.565 -1.084,2.481 l -0.349,2.907 0.349,3.036 c 0.227,0.952 0.591,1.812 1.088,2.548 0.479,0.723 1.115,1.303 1.887,1.731 0.764,0.424 1.724,0.64 2.848,0.64 1.204,0 2.195,-0.303 3.031,-0.928 0.809,-0.608 1.368,-1.548 1.66,-2.799 l 0.109,-0.448 h 6.319 l -0.06,0.635 c -0.148,1.492 -0.56,2.837 -1.223,3.997 -0.66,1.147 -1.513,2.131 -2.532,2.923 -1.012,0.784 -2.161,1.385 -3.416,1.788 -1.248,0.4 -2.556,0.6 -3.888,0.6 -1.977,0 -3.78,-0.356 -5.372,-1.06 m 39.594,-7.919 c 0.639,-1.868 1.995,-5.827 2.364,-6.892 h -4.809 c 0.381,1.072 1.784,5.032 2.445,6.892 M 241.25,0 231.41,-26.023 h 6.752 c 0,0 1.712,4.868 1.952,5.536 h 8.467 c 0.229,-0.68 1.88,-5.536 1.88,-5.536 h 6.924 L 247.657,0 Z m 31.926,0.107 -0.004,-0.004 c -1.172,-0.316 -2.244,-0.812 -3.18,-1.475 -0.944,-0.677 -1.721,-1.529 -2.307,-2.536 -0.593,-1.025 -0.897,-2.24 -0.897,-3.616 0,-1.224 0.24,-2.296 0.712,-3.18 0.473,-0.872 1.093,-1.608 1.852,-2.189 l 2.516,-1.386 2.787,-0.872 c -0.019,0.004 2.693,-0.697 2.693,-0.697 l 2.284,-0.708 1.504,-0.92 c 0.315,-0.308 0.468,-0.708 0.468,-1.219 0,-0.492 -0.117,-0.885 -0.361,-1.188 l -1.019,-0.797 -1.405,-0.416 c 0,-0.004 -1.487,-0.12 -1.487,-0.12 l -1.953,0.244 -1.563,0.712 -1.032,1.204 c -0.256,0.496 -0.388,1.12 -0.388,1.856 v 0.58 h -6.431 l -0.009,-0.567 c -0.023,-1.621 0.28,-3.053 0.899,-4.252 0.622,-1.189 1.469,-2.18 2.525,-2.953 1.036,-0.759 2.252,-1.327 3.607,-1.683 1.328,-0.349 2.72,-0.524 4.137,-0.524 1.739,0 3.304,0.207 4.644,0.62 1.351,0.412 2.507,1.003 3.435,1.755 0.941,0.765 1.655,1.684 2.127,2.737 0.474,1.044 0.713,2.187 0.713,3.407 0,1.5 -0.328,2.764 -0.984,3.748 -0.636,0.96 -1.4,1.736 -2.277,2.309 l -2.611,1.239 -1.984,0.515 c 0.025,-0.007 -3.748,0.964 -3.748,0.964 l -2.168,0.733 -0.847,0.612 c -0.004,0.004 -0.195,0.879 -0.195,0.879 l 0.251,1.001 c 0.004,0 0.724,0.703 0.724,0.703 l 1.008,0.408 c 0.004,0 1.212,0.128 1.212,0.128 L 278.18,-5 l 1.323,-0.517 0.868,-0.939 0.512,-2.04 0.469,-0.105 h 5.859 v 0.58 c 0,1.537 -0.296,2.865 -0.888,3.953 -0.584,1.083 -1.388,1.992 -2.387,2.691 -0.985,0.688 -2.121,1.192 -3.385,1.5 -1.239,0.3 -2.544,0.452 -3.884,0.452 -1.151,0 -2.327,-0.156 -3.491,-0.468 M 297.574,0 v -5.769 h 7.448 v -20.254 h 6.631 v 20.254 h 7.452 V 0 Z m 41.482,-20.22 c -0.776,0.428 -1.412,1.004 -1.888,1.716 -0.496,0.732 -0.86,1.567 -1.084,2.477 0,0.004 -0.353,2.911 -0.353,2.911 l 0.353,3.036 c 0.224,0.947 0.588,1.804 1.084,2.548 0.48,0.723 1.112,1.303 1.888,1.731 0.763,0.424 1.723,0.64 2.847,0.64 1.124,0 2.084,-0.216 2.853,-0.64 0.771,-0.428 1.403,-1.011 1.888,-1.731 0.491,-0.736 0.855,-1.596 1.084,-2.548 l 0.347,-3.036 -0.347,-2.907 c -0.229,-0.916 -0.593,-1.752 -1.084,-2.485 -0.481,-0.708 -1.117,-1.284 -1.888,-1.712 -0.769,-0.428 -1.729,-0.643 -2.853,-0.643 -1.124,0 -2.084,0.215 -2.847,0.643 m -2.524,19.767 c -1.589,-0.704 -2.948,-1.692 -4.048,-2.936 -1.091,-1.235 -1.935,-2.704 -2.515,-4.36 -0.577,-1.644 -0.868,-3.447 -0.868,-5.367 0,-1.876 0.291,-3.648 0.872,-5.268 0.576,-1.636 1.423,-3.08 2.515,-4.292 1.096,-1.22 2.46,-2.187 4.048,-2.88 1.588,-0.691 3.396,-1.043 5.367,-1.043 1.996,0 3.809,0.352 5.388,1.043 1.58,0.693 2.937,1.66 4.028,2.88 1.092,1.212 1.94,2.656 2.52,4.292 0.576,1.628 0.868,3.4 0.868,5.268 0,1.912 -0.292,3.72 -0.868,5.367 -0.576,1.656 -1.425,3.125 -2.516,4.36 -1.095,1.244 -2.452,2.232 -4.028,2.936 -1.58,0.704 -3.392,1.06 -5.392,1.06 -1.975,0 -3.779,-0.356 -5.371,-1.06 m 42.19,-4.964 c 1.103,0 1.927,-0.228 2.439,-0.676 0.496,-0.428 0.744,-1.168 0.744,-2.195 0,-1.076 -0.252,-1.844 -0.748,-2.284 -0.511,-0.46 -1.332,-0.693 -2.435,-0.693 h -5.416 v 5.848 z M 366.674,0 v -26.023 h 6.632 v 9.695 h 4.9 c 1.207,0 2.067,-0.248 2.555,-0.735 0.512,-0.509 0.856,-1.357 1.024,-2.521 l 0.304,-3.079 c 0.072,-1.137 0.272,-2.141 0.593,-2.984 l 0.143,-0.376 h 6.755 l -0.427,0.923 -0.48,1.068 c 0,0.005 -0.265,1.501 -0.265,1.501 l -0.119,1.595 c 0,0.004 -0.068,1.401 -0.068,1.401 0,0.012 -0.277,1.963 -0.277,1.963 l -0.664,1.876 c 0,0.005 -1.211,1.524 -1.211,1.524 0,0 -0.452,0.232 -0.916,0.472 1.012,0.568 1.864,1.256 2.383,2.159 0.665,1.153 1.001,2.528 1.001,4.092 0,1.024 -0.184,1.996 -0.548,2.888 -0.364,0.892 -0.9,1.692 -1.596,2.373 -0.692,0.679 -1.528,1.219 -2.488,1.607 C 382.944,-0.193 381.857,0 380.673,0 Z m 34.534,0 v -26.023 h 20.035 v 5.767 H 407.84 v 4.92 h 12.047 V -9.92 H 407.84 v 4.151 h 13.127 V 0 Z M -37.347,0 c 0,0 -4.298,-13.353 -5.13,-15.932 C -43.351,-13.364 -47.897,0 -47.897,0 h -8.693 v -26.023 h 6.281 v 14.803 c 1.446,-4.14 5.172,-14.803 5.172,-14.803 h 5.039 c 0,0 3.723,10.763 5.17,14.947 v -14.947 h 6.282 V 0 Z"
             inkscape:connector-curvature="0" /></g><g
           transform="translate(194.0298,139.6416)"
           id="g24"><path
             id="path26"
             style="fill:#ffffff;fill-opacity:1;fill-rule:evenodd;stroke:none"
             d="m 0,0 c -1.416,-1.84 -3.522,-2.76 -6.323,-2.76 h -5.072 v 23.927 h 4.683 c 2.679,0 4.764,-0.858 6.255,-2.573 1.96,-2.243 2.94,-5.377 2.94,-9.407 C 2.483,5.221 1.656,2.158 0,0 m -62.602,-0.133 2.058,9 1.419,6.955 c 0.032,0.125 0.099,0.485 0.197,1.081 0.097,0.595 0.261,1.659 0.49,3.2 0.13,0.767 0.252,1.475 0.368,2.119 0.113,0.644 0.202,1.228 0.268,1.748 l 0.637,-5.431 c 0.165,-1.117 0.293,-2.04 0.392,-2.768 0.098,-0.732 0.18,-1.312 0.245,-1.732 0.621,-3.772 0.963,-5.928 1.029,-6.472 0.099,-0.648 0.164,-0.98 0.196,-1.004 l 1.324,-6.696 z M 24.93,-19.516 V 37.921 H 62.896 V 24.158 H 45.359 V 16.831 H 61.084 V 3.064 H 45.359 V -5.752 H 62.896 V -19.516 Z M 11.074,31.746 c -5.617,4.115 -13.472,6.175 -23.565,6.175 h -17.635 v -53.202 l -14.839,53.202 h -24.986 l -14.972,-47.313 -6.055,47.313 h -24.692 l -5.082,-20.795 c -0.736,-2.876 -1.31,-6.139 -1.727,-9.783 -0.228,2.18 -0.481,4.204 -0.759,6.064 -0.277,1.86 -0.596,3.583 -0.955,5.172 l -4.262,19.342 h -25.425 l -8.819,-57.437 h 21.751 l 1.813,26.039 0.489,10.603 c 0.229,-1.688 0.375,-2.803 0.441,-3.348 0.556,-3.619 0.996,-6.175 1.324,-7.663 L -130,-19.516 h 14.128 l 8.135,25.595 c 0.443,1.708 0.815,3.476 1.121,5.3 0.307,1.824 0.578,3.739 0.817,5.747 l 0.663,-10.451 0.833,-26.191 h 37.291 l 1.666,7.292 h 13.765 l 1.52,-7.292 h 39.04 c 10.549,0 18.486,2.208 23.81,6.624 6.238,5.18 9.358,12.535 9.358,22.059 0,9.672 -3.691,17.195 -11.073,22.579"
             inkscape:connector-curvature="0" /></g><g
           transform="translate(385.1953,132.2739)"
           id="g28"><path
             id="path30"
             style="fill:#ffffff;fill-opacity:1;fill-rule:evenodd;stroke:none"
             d="m 0,0 c 0.378,-0.023 0.711,-0.042 0.992,-0.054 0.283,-0.015 0.521,-0.019 0.71,-0.019 2.457,0 4.42,0.521 5.885,1.563 1.468,1.046 2.2,2.448 2.2,4.204 0,1.757 -0.732,3.131 -2.2,4.123 -1.465,0.992 -3.474,1.49 -6.025,1.49 H 0 Z m 0,23.397 h 1.323 c 2.364,0 4.232,0.433 5.604,1.301 1.37,0.868 2.057,2.081 2.057,3.644 0,3.324 -2.317,4.984 -6.951,4.984 -0.222,0 -0.497,-0.008 -0.828,-0.019 C 0.876,33.294 0.473,33.275 0,33.252 Z m 97.874,-16.182 1.985,9.002 1.371,6.956 c 0.032,0.124 0.093,0.483 0.19,1.077 0.094,0.595 0.25,1.66 0.473,3.2 0.125,0.768 0.243,1.475 0.352,2.119 0.11,0.645 0.197,1.228 0.261,1.749 l 0.616,-5.431 c 0.156,-1.116 0.283,-2.038 0.378,-2.772 0.093,-0.729 0.172,-1.308 0.237,-1.729 0.597,-3.768 0.929,-5.926 0.992,-6.47 0.093,-0.645 0.157,-0.98 0.19,-1.003 l 1.275,-6.698 z M 57.383,21.537 C 55.871,20.17 53.979,19.49 51.71,19.49 h -1.324 v 13.689 h 0.71 c 5.706,0 8.555,-2.146 8.555,-6.435 0,-2.108 -0.755,-3.845 -2.268,-5.207 M 176.179,45.265 H 127.812 V 28.523 h 17.973 L 127.91,-3.078 114.896,45.265 H 90.78 L 76.344,-1.997 67.926,11.716 c 7.533,2.652 11.303,7.45 11.303,14.395 0,6.497 -2.808,11.504 -8.419,15.028 -4.413,2.752 -11.064,4.126 -19.952,4.126 H 30.67 V -12.164 H 50.293 V 7.921 l -0.143,3.795 c 0.345,-0.795 0.637,-1.474 0.874,-2.046 0.238,-0.571 0.402,-1.03 0.498,-1.378 l 9.738,-20.456 h 32.358 l 1.609,7.293 h 13.286 l 1.463,-7.293 h 63.745 V 4.702 L 154.028,4.7 176.179,43.679 Z m 19.611,-57.429 h -19.247 v 57.429 h 19.247 z m 40.077,0 h -36.818 v 57.429 h 18.868 V 6.084 h 17.95 z m -253.4,0 V 45.265 H 3.216 c 8.573,0 14.924,-1.486 19.054,-4.462 4.192,-3.05 6.288,-6.995 6.288,-11.828 0,-7.191 -4.537,-11.086 -13.617,-11.681 5.171,-0.594 8.959,-1.934 11.372,-4.015 2.411,-2.085 3.617,-5.084 3.617,-9.002 0,-4.933 -2.034,-8.901 -6.101,-11.902 -4.034,-3.025 -9.346,-4.539 -15.933,-4.539 z"
             inkscape:connector-curvature="0" /></g><g
           transform="translate(301.0391,173.3291)"
           id="g32"><path
             id="path34"
             style="fill:#fddd04;fill-opacity:1;fill-rule:evenodd;stroke:none"
             d="m 0,0 c 0,-4.3 -4.104,-7.786 -9.171,-7.786 -5.068,0 -9.172,3.486 -9.172,7.786 0,4.302 4.104,7.788 9.172,7.788 C -4.104,7.788 0,4.302 0,0 m -20.103,-6.058 c 0,0 -10.455,-41.981 -9.387,-43.093 2.913,-3.024 9.855,-9.683 12.587,-11.047 2.732,-1.367 29.07,35.821 31.402,37.542 0.808,0.599 -0.044,-19.667 -0.044,-19.667 0,0 9.243,-6.668 13.013,-9.684 1.492,-1.196 10.877,29.31 28.67,42.321 0,0 -12.673,10.88 -13.739,11.091 -2.184,0.441 -9.386,-8.53 -10.025,-9.598 -0.641,-1.065 1.491,14.506 4.69,22.826 0,0 -9.17,8.535 -10.238,9.388 -1.066,0.852 -35.837,-51.409 -37.969,-53.757 -2.134,-2.348 4.052,14.291 4.052,14.291 0,0 -11.732,8.959 -13.012,9.387"
             inkscape:connector-curvature="0" /></g></g></g></g></svg>