<svg xmlns="http://www.w3.org/2000/svg" viewBox="0 0 424.39 166"><defs><style>.cls-1{fill:#424242;}.cls-2{fill:#fff;}</style></defs><title>Ativo 1</title><g id="Camada_2" data-name="Camada 2"><g id="Camada_1-2" data-name="Camada 1"><rect class="cls-1" width="424.39" height="166"/><g id="Camada_1-2-2" data-name="Camada 1-2"><path class="cls-2" d="M110,26.5V89.6a20.53,20.53,0,0,1-20.5,20.5H17.9V6H89.4A20.55,20.55,0,0,1,110,26.5ZM87.4,32.7A7.64,7.64,0,0,0,79.82,25H40.5V91.1H79.7a7.65,7.65,0,0,0,7.7-7.58V32.7Z"/><path class="cls-2" d="M213.2,6V89.6a20.53,20.53,0,0,1-20.5,20.5h-51a20.52,20.52,0,0,1-20.5-20.5V6h22.6V83.4a7.63,7.63,0,0,0,7.58,7.7H182.9a7.65,7.65,0,0,0,7.7-7.58V6Z"/><path class="cls-2" d="M247,25V48.6h54.1v19H247V83.5a7.63,7.63,0,0,0,7.58,7.7H311.3v19H244.9a20.52,20.52,0,0,1-20.5-20.5V6h86.9V25Z"/><path class="cls-2" d="M342,25V48.6h54.1v19H342V83.5a7.63,7.63,0,0,0,7.58,7.7H406.3v19H339.9a20.52,20.52,0,0,1-20.5-20.5V6h86.9V25Z"/><path class="cls-2" d="M33.7,152.6c0,4.4-1.7,6.5-5.3,6.5H17.9V134.8h9c4.2,0,7,1.6,7,6.2,0,2.9-.8,4.8-3.4,6C32,147.5,33.7,150.1,33.7,152.6Zm-5.4-16.5H19.2v10.4h5.7c3.7,0,7.8,0,7.8-5.4C32.7,138.6,31.2,136.1,28.3,136.1Zm-9.1,21.8H27c3.5,0,5.5-1.1,5.5-5a5,5,0,0,0-4.69-5.3H19.2Z"/><path class="cls-2" d="M112,159.1h-1.4l-4.4-9.6h-9l.1,9.6H95.9V134.8h9.9c3.9,0,6,3.2,6,7.2,0,3.1-1.4,6.6-4.3,7.3ZM110.4,142c0-3.8-1.9-6.1-4.7-6.1H97.1v12.2h7.4C107.7,148.1,110.4,147.4,110.4,142Z"/><path class="cls-2" d="M171,159.1l8.7-24.3h2c1.2,3,3.3,8.9,5.8,16,1,2.7,2,5.5,3,8.3h-1.4l-2.9-8.2H175.4l-2.7,8.2Zm9.7-23.3c-.4,1.3-1.4,4.1-2.1,5.8l-2.8,7.9h9.8Z"/><path class="cls-2" d="M256.6,144.2a19.77,19.77,0,0,0,4.2,1.8c3.2,1,7.2,2.4,7.2,6.6,0,3.6-2.9,6.4-7.3,6.4h-.9c-1.6,0-5.2-.4-7.6-5.5l1-.6c1.6,2.9,3.6,4.8,7.1,4.8,3.3,0,6.3-2.1,6.3-4.9,0-3.3-3.2-4.4-6.5-5.7a31.22,31.22,0,0,1-4.2-1.8,5.11,5.11,0,0,1-2.9-4.6c0-3.5,2.9-6.1,6.9-6.1,2.9,0,5.2,1.2,7.2,4.3l-.9.6c-1.7-2.1-3.1-3.8-6.1-3.8-3.4,0-5.7,2-5.7,4.7A3.85,3.85,0,0,0,256.6,144.2Z"/><path class="cls-2" d="M329.8,159.1V134.8h1.3v24.3Z"/><path class="cls-2" d="M406.5,158.2v.9H392.9V134.8h1.3V158h12.3Z"/></g></g></g></svg>