<?xml version="1.0" encoding="utf-8"?>
<!-- Generator: Adobe Illustrator 23.0.6, SVG Export Plug-In . SVG Version: 6.00 Build 0)  -->
<svg version="1.1" id="Layer_1" xmlns="http://www.w3.org/2000/svg" xmlns:xlink="http://www.w3.org/1999/xlink" x="0px" y="0px"
	 viewBox="0 0 283.5 425.2" style="enable-background:new 0 0 283.5 425.2;" xml:space="preserve">
<style type="text/css">
	.st0{enable-background:new    ;}
	.st1{fill:#FFDD00;}
	.st2{fill:#7CD0E0;}
</style>
<g>
	<g class="st0">
		<path d="M166,162.4c0,0.3-0.1,0.6-0.1,1c0,2.4,0,4.9,0,7.3c0,2.7,0,5.4,0,8.1c-0.1,2.2-0.3,4.4-0.4,6.7c-0.1,1.4-0.1,2.9-0.2,4.3
			c0,0.4-0.1,0.9-0.1,1.3s-0.4,0.8-0.9,1c-0.3,0.1-0.6,0.2-1,0.3c-1.2,0.4-2.4,0.1-3.5-0.4c-1.1-0.4-1.5-1.3-1.6-2.5
			c-0.2-3.3-0.1-6.7-0.1-10c0-2.5,0.2-4.9,0.3-7.4c0-0.7,0.1-1.3,0.2-2.1c-0.1,0.1-0.2,0.2-0.3,0.3c-0.6,0.8-1.2,1.5-1.8,2.3
			c-0.6,0.8-1.5,0.8-2.1,0c-0.3-0.4-0.6-0.9-0.8-1.3c-0.3-0.4-0.5-0.9-0.8-1.3c0,0-0.1,0-0.1,0c0,0.5,0,1.1,0,1.5
			c0,2.8,0,5.5-0.1,8.3c0,1.5-0.1,3-0.2,4.6c-0.1,2.1-0.2,4.1-0.3,6.2c0,0.3-0.1,0.6-0.1,0.8c-0.1,0.3-0.3,0.6-0.6,0.7
			c-0.9,0.3-1.7,0.7-2.6,0.5c-0.7-0.1-1.4-0.3-2.1-0.6c-1-0.4-1.5-1.2-1.6-2.3c-0.3-4.4-0.2-8.8-0.1-13.2c0-2.1,0.3-4.2,0.4-6.3
			c0.1-1.9,0.2-3.8,0.4-5.8c0.1-1.2,0.2-2.3,0.4-3.5c0-0.5,0.2-0.9,0.4-1.4c0.2-0.6,0.7-0.9,1.3-0.9c1,0,2,0,3,0.1
			c0.1,0,0.2,0,0.4,0c0.7,0,1.2,0.2,1.7,0.8c1,1.2,2.1,2.4,2.8,3.8c0,0,0.1,0,0.2,0.1c0.1-0.1,0.2-0.2,0.4-0.4
			c1-1.3,2.2-2.5,3.4-3.7c0.5-0.4,1.1-0.8,1.8-0.7c1,0,2.1,0,3.1,0.1c0.4,0,0.7,0.1,0.9,0.2C166.3,160.1,166,161.3,166,162.4z"/>
		<path d="M188.2,191c-0.3,0.8-1.2,1.1-2,1.3c-1,0.2-2.1,0.3-3.1,0.3c-0.4,0-0.8,0-1.2-0.2c-0.5-0.2-0.8-0.6-1.1-1
			c-0.6-1-0.6-2-0.6-3c0-0.4-0.1-0.9-0.5-1.2c-0.2-0.1-0.5-0.1-0.9-0.1c-0.8,0-1.5,0-2.3,0c-0.2,0-0.5,0-0.8,0.1
			c-0.4,0.2-0.6,0.8-0.7,1.2c-0.3,1.2-0.9,3.2-2.2,3.7c-0.5,0.2-1.1,0.3-1.6,0.3c-0.8,0-1.5,0-2.3-0.1c-0.5,0-1-0.1-1.4-0.4
			c-0.5-0.4-0.7-1.1-0.7-1.6c0-1.7,0.6-3.5,1.1-5.1c0.7-2.5,1.4-4.9,2.1-7.4c0.6-2.1,0.9-4.2,1.3-6.2c0.8-3.6,1.6-7.3,2.7-10.8
			c0.1-0.4,0.3-0.8,0.5-1.2c0.5-0.6,1.4-0.9,2.2-1c0.9-0.1,1.9-0.2,2.8-0.2c1.1,0,2.2,0.1,3,0.9c0.8,0.8,1,2,1.2,3.1
			c0.2,1.2,0.5,2.4,0.7,3.6c0.2,1.4,0.2,2.8,0.6,4.1c0.3,0.9,0.4,1.8,0.6,2.7c0.1,0.8,0.3,1.5,0.5,2.3c0.5,2.1,0.5,4.2,1,6.3
			c0.5,2.5,0.9,4.9,1.2,7.5C188.5,189.7,188.6,190.4,188.2,191z M179.3,180.6c0-1.3-0.2-2.6-0.4-3.8c-0.1-0.9-0.4-1.8-0.6-2.7
			c0,0,0,0-0.1,0c-0.2,0-0.9,2.7-1,2.9c-0.4,1.2-0.8,2.3-0.8,3.5c0,0.2,0,0.4,0.1,0.5s0.3,0.1,0.6,0.1c0.5,0,1.1,0,1.6,0
			c0.1,0,0.2,0,0.3,0C179.3,181.1,179.4,180.9,179.3,180.6z"/>
		<path d="M200.4,158.4c1.8,0,3.2,0.9,4.3,2.2c0.3,0.4,0.5,0.9,0.7,1.4c0.7,1.9,1.1,3.8,1,5.8c-0.1,2.4,0,4.7,0.1,7.1
			c0.1,1.8-0.2,3.6-0.5,5.4c-0.1,0.7-0.1,1.4-0.3,2.1c-0.4,1.4-0.9,2.9-1.3,4.4c0,0.1-0.1,0.2-0.1,0.4c-1,1.5-2.1,2.9-3.7,3.6
			c-0.6,0.2-1.2,0.6-1.8,0.9c-0.9,0.4-1.8,0.6-2.7,0.7c-1.3,0.1-2.6,0.2-3.9,0.2c-0.3,0-0.6,0-0.9-0.1c-0.8-0.2-1.3-0.8-1.4-1.6
			c0-0.1,0-0.3,0-0.5c0.1-1,0-2.1,0-3.1c0-1.4,0-2.9-0.1-4.3c0-1.1,0-2.1,0-3.1c0-1.3-0.1-2.5,0.1-3.8c0-0.2,0-0.4,0-0.6
			c-0.2-2-0.2-4.1-0.1-6.1c0-2.3,0.1-4.5,0.2-6.7c0-0.6,0-1.2,0-1.8c0.1-1,0.9-1.8,1.8-1.9c0.9-0.1,1.7-0.2,2.6-0.2
			c0.9,0,1.7,0,2.5,0v0C198,158.5,199.2,158.4,200.4,158.4z M198.5,184.3c0.4-0.3,0.7-0.8,0.9-1.3c0.2-0.7,0.3-1.4,0.2-2.2
			c0-0.3,0-0.7,0-1.1c0.1-1.2,0.3-2.3,0.2-3.5c0-0.2,0-0.5,0-0.8c0.2-1.2,0.2-2.5,0.2-3.8c0-1.9-0.1-3.7-0.2-5.6c0,0,0-0.1,0-0.1
			c-0.3-1.5-0.6-1.9-2.1-1.9c-0.3,0-0.6,0-0.9,0c0,0.3,0,0.5-0.1,0.7c0,1.6,0,3.2,0,4.9c0,1.5-0.1,3-0.1,4.5
			c-0.1,2.1-0.2,4.2-0.2,6.3c0,1.5,0,3,0.1,4.5c0,0.1,0,0.2,0,0.3C197.3,185,197.9,184.7,198.5,184.3z"/>
		<path d="M223.1,170.1c-0.4,0-0.7,0.2-1.1,0.3c-0.9,0-1.8,0-2.8,0.1c-0.7-0.3-1-0.9-1.1-1.6c-0.1-0.7-0.2-1.3-0.3-2
			c-1.1-0.1-2.1-0.1-3.1,0.4c-0.1,0.3-0.2,0.6-0.3,1c0,1.1,0,2.2,0,3.4c0.2,0,0.4,0,0.7,0c0.9,0,1.7,0,2.6-0.1
			c1.3-0.1,2.2,0.9,2.2,2c0,0.9,0.2,1.8,0.2,2.7c0,0.5,0,1.1-0.1,1.6c-0.1,0.6-0.5,1.1-1.1,1.2c-0.4,0.1-0.9,0.2-1.2,0.2
			c-0.6,0-1.2,0-1.8,0c-0.4,0-0.8,0.1-1.2,0.2c0,0.1-0.1,0.2-0.1,0.3c0,1.3,0,2.6,0,3.9c0,0.9,0.5,1.4,1.4,1.5c0,0,0.1,0,0.2,0
			c0.5,0,1,0,1.5,0c0.5-0.7,0.2-1.6,0.5-2.5c0.1-0.2,0.4-0.3,0.8-0.4c1.3-0.3,2.6-0.3,4-0.3c0.6,0,1,0.4,1.2,0.8
			c0.2,0.3,0.3,0.6,0.3,0.9c0.1,0.9,0.2,1.7,0.2,2.6c0,1,0,1.9-0.1,2.9c-0.1,0.8-0.4,1.4-1.1,1.9c-1.4,1.1-3.7,1.2-5.4,1.3
			c-2,0.2-4,0.1-5.9-0.1c-1.1-0.1-2.2-0.4-3-1.1c-1-0.9-1.3-2.2-1.5-3.4c-0.5-2.1-0.3-4.2-0.3-6.3c0-2.2,0-4.3,0-6.5
			c0-1.6,0.2-3.3,0.3-4.9c0.1-3.1-0.4-6.6,2-9.1c0.9-1,2.2-1.5,3.4-1.8c2.3-0.5,4.9-0.3,7.3-0.3c0.7,0,1.3,0.1,2,0.2
			c0.8,0.1,1.3,0.5,1.6,1.2c0.2,0.4,0.4,0.9,0.6,1.3c0.2,0.5,0.1,1.1,0,1.6c0,0.3,0,0.6,0,1c0,1.6,0,3.2,0,4.8c0,0.1,0,0.3,0,0.4
			C224.2,169.7,223.7,170,223.1,170.1z"/>
	</g>
	<g class="st0">
		<path d="M152.6,206.5c0,2.7,0,5.3,0,8c0,1.6-0.1,3.2-0.2,4.8c-0.1,2.1-0.2,4.1-0.3,6.2c0,0.1,0,0.2,0,0.4c0,0.8-0.4,1.3-1.2,1.5
			c-0.7,0.1-1.4,0.5-2.1,0.3c-0.8-0.1-1.5-0.3-2.2-0.6c-1-0.4-1.5-1.2-1.6-2.3c-0.2-4.4-0.1-8.8-0.1-13.2c0-2.3,0.3-4.5,0.5-6.7
			c0.2-1.8,0.2-3.7,0.4-5.6c0.1-1.2,0.2-2.4,0.4-3.5c0.1-0.4,0.3-0.9,0.4-1.2c0.2-0.5,0.6-0.8,1.2-0.9c1.2-0.1,2.5-0.1,3.7,0.2
			c0.2,0,0.4,0.1,0.6,0.2c0.9,1.5,1.7,3.1,2.6,4.5c1,1.4,2.1,2.7,3.2,4.2c0-0.3,0-0.5,0-0.7c0.1-1.5,0.1-3,0.2-4.5
			c0.1-1,0.2-1.9,0.6-2.8c0.3-0.7,0.8-1.1,1.5-1.1c1.2,0,2.3,0,3.5,0.2c0.2,0,0.5,0.1,0.6,0.2c1,1.1,0.7,2.3,0.7,3.5
			c0,0.3-0.1,0.6-0.1,1c0,2.4,0,4.8,0,7.3c0,2.7,0,5.4,0,8.2c-0.1,2.3-0.2,4.5-0.5,6.7c-0.1,1.4,0,2.8-0.1,4.3
			c0,0.4-0.1,0.9-0.1,1.4c0,0.4-0.3,0.7-0.6,0.8c-0.8,0.3-1.7,0.6-2.5,0.5c-0.8-0.1-1.5-0.3-2.2-0.6c-1-0.4-1.5-1.2-1.6-2.4
			c-0.2-3.9-0.1-7.9-0.1-11.9c0-0.2,0-0.4-0.1-0.6c-0.8-1.2-1.4-2.6-2.4-3.7c-0.7-0.9-1.2-1.9-1.7-2.8c0-0.1-0.1-0.2-0.2-0.3
			c0,0,0,0-0.1,0C152.6,205.7,152.6,206.1,152.6,206.5z"/>
		<path d="M179.6,226.5c-1.1,0.2-2.2,0.2-3.3,0.2c-1.3,0.1-2.6,0.4-3.9,0.4c-1.3,0.1-2.7-0.1-3.7-0.8c-1.2-0.8-1.9-2.1-2.2-3.4
			c-0.3-1.3-0.3-2.7-0.3-4.1c0-2.4,0-4.8,0.1-7.2c0-1.9,0.2-3.7,0.4-5.5c0.1-1.4,0.2-2.8,0.3-4.3c0-1,0.1-2.1,0.1-3.1
			c0-0.3,0.1-0.7,0.2-1c0.3-0.7,0.6-1.4,1-2.1c0.5-1,1.5-1.4,2.5-1.5c1.7-0.1,3.4-0.2,5,0c1,0.1,2,0.1,3,0.3
			c0.8,0.1,1.6,0.3,2.4,0.5c0.6,0.2,1,0.6,1.2,1.1c0.2,0.6,0.4,1.1,0.6,1.7c0.2,1,0.4,2.1,0.6,3.1c0,0.6,0,1.2-0.1,1.9
			c0,1.5,0,3.1,0,4.7c0,0.8-0.1,1.5-0.1,2.3c0,1.2-0.1,2.5-0.1,3.7c-0.1,3.2,0,6.4-0.6,9.6c0,0.2-0.1,0.5-0.1,0.8
			C182.2,225.4,181.3,226.2,179.6,226.5z M175.2,202.4c-1,0-1.7,0.6-1.7,1.6c0,1-0.1,1.9-0.1,2.9c0,0.9,0,1.9,0.1,2.8
			c0.1,2.2-0.1,4.4-0.2,6.6c0,0.8,0,1.6,0,2.4c0,0.6,0.8,1.2,1.4,1.1c0.4-0.1,0.8-0.2,1.2-0.3c0.4-0.2,0.8-0.4,0.8-1
			c0.1-0.7,0.1-1.4,0.1-2.2c0-0.7,0-1.4,0-2.1c0-1,0.1-1.9,0.1-2.9c0-1.8-0.1-3.7-0.2-5.5c0-1-0.1-2.1-0.5-3
			C175.9,202.5,175.6,202.4,175.2,202.4z"/>
	</g>
	<g class="st0">
		<path d="M155.4,254.9c0.9-0.1,1.9-0.1,2.8,0c0.5,0.1,0.9,0.4,1,0.9c0.1,0.3,0.2,0.7,0.2,1.1c0,1,0,2,0,2.9c0,0.4,0,0.8-0.1,1.1
			c-0.3,0.8-0.8,1.3-1.7,1.3c-2.3,0.2-4.5,0.4-6.8,0.3c-1.5,0-3.1-0.2-4.1-1.3c-0.6-0.7-0.8-1.6-1-2.5c-1.2-5.5-1-11-0.8-16.6
			c0-1.3,0.2-2.5,0.3-3.8c0-1.5,0-3,0.1-4.6c0-1.2,0.1-2.5,0.6-3.6c0.3-0.7,0.7-1.1,1.5-1.2c1.1-0.1,2.2-0.1,3.3,0.1
			c0.3,0,0.6,0.1,0.9,0.2c0.8,0.8,0.8,1.9,0.7,2.9c-0.1,1-0.1,1.9,0,2.8c0.1,2.1,0.1,4.2,0.2,6.3c0,2.5,0.1,5.1,0.2,7.6
			c0,1.6-0.1,3.3-0.2,4.9c0,0.4,0,0.9,0,1.4C153.4,255.1,154.4,255,155.4,254.9z"/>
		<path d="M173.8,261.6c-1.1,0.2-2.2,0.2-3.3,0.2c-1.3,0.1-2.6,0.4-3.9,0.4c-1.3,0.1-2.7-0.1-3.7-0.8c-1.2-0.8-1.9-2.1-2.2-3.4
			c-0.3-1.3-0.3-2.7-0.3-4.1c0-2.4,0-4.8,0.1-7.2c0-1.9,0.2-3.7,0.4-5.5c0.1-1.4,0.2-2.8,0.3-4.3c0-1,0.1-2.1,0.1-3.1
			c0-0.3,0.1-0.7,0.2-1c0.3-0.7,0.6-1.4,1-2.1c0.5-1,1.5-1.4,2.5-1.5c1.7-0.1,3.4-0.2,5,0c1,0.1,2,0.1,3,0.3
			c0.8,0.1,1.6,0.3,2.4,0.5c0.6,0.2,1,0.6,1.2,1.1c0.2,0.6,0.4,1.1,0.6,1.7c0.2,1,0.4,2.1,0.6,3.1c0,0.6,0,1.2-0.1,1.9
			c0,1.5,0,3.1,0,4.7c0,0.8-0.1,1.5-0.1,2.3c0,1.2-0.1,2.5-0.1,3.7c-0.1,3.2,0,6.4-0.6,9.6c0,0.2-0.1,0.5-0.1,0.8
			C176.4,260.5,175.5,261.3,173.8,261.6z M169.4,237.5c-1,0-1.7,0.6-1.7,1.6c0,1-0.1,1.9-0.1,2.9c0,0.9,0,1.9,0.1,2.8
			c0.1,2.2-0.1,4.4-0.2,6.6c0,0.8,0,1.6,0,2.4c0,0.6,0.8,1.2,1.4,1.1c0.4-0.1,0.8-0.2,1.2-0.3c0.4-0.2,0.8-0.4,0.8-1
			c0.1-0.7,0.1-1.4,0.1-2.2c0-0.7,0-1.4,0-2.1c0-1,0.1-1.9,0.1-2.9c0-1.8-0.1-3.7-0.2-5.5c0-1-0.1-2.1-0.5-3
			C170.1,237.6,169.8,237.5,169.4,237.5z"/>
		<path d="M189.6,254.9c0.9-0.1,1.9-0.1,2.8,0c0.5,0.1,0.9,0.4,1,0.9c0.1,0.3,0.2,0.7,0.2,1.1c0,1,0,2,0,2.9c0,0.4,0,0.8-0.1,1.1
			c-0.3,0.8-0.8,1.3-1.7,1.3c-2.3,0.2-4.5,0.4-6.8,0.3c-1.5,0-3.1-0.2-4.1-1.3c-0.6-0.7-0.8-1.6-1-2.5c-1.2-5.5-1-11-0.8-16.6
			c0-1.3,0.2-2.5,0.3-3.8c0-1.5,0-3,0.1-4.6c0-1.2,0.1-2.5,0.6-3.6c0.3-0.7,0.7-1.1,1.5-1.2c1.1-0.1,2.2-0.1,3.3,0.1
			c0.3,0,0.6,0.1,0.9,0.2c0.8,0.8,0.8,1.9,0.7,2.9c-0.1,1-0.1,1.9,0,2.8c0.1,2.1,0.1,4.2,0.2,6.3c0,2.5,0.1,5.1,0.2,7.6
			c0,1.6-0.1,3.3-0.2,4.9c0,0.4,0,0.9,0,1.4C187.7,255.1,188.7,255,189.6,254.9z"/>
		<path d="M203.1,254.4c0.1,0.2,0.2,0.4,0.4,0.5c0.5,0.4,1.2,0.4,1.9,0.4c2.7,0,5.4,0,8.1,0.1c0.3,0,0.8,0.1,1,0.4
			c0.2,0.2,0.2,0.5,0.2,0.8c0,1.3,0,2.6-0.1,3.9c0,0.5-0.1,1-0.5,1.2c-0.1,0.1-0.3,0.1-0.5,0.2c-1,0.3-2.1,0.5-3.1,0.6
			c-1.4,0-3,0.1-4.5-0.1c-1.8-0.3-3.7,0.1-5.5,0c-1.4,0-3.1-0.2-4-1.3c-0.6-0.7-0.9-1.6-1.1-2.5c-1.2-5.5-1-10.9-0.7-16.4
			c0-1.3,0.2-2.5,0.3-3.8c0-1.5,0-3,0.1-4.5c0-1.2,0.1-2.4,0.6-3.6c0.2-0.7,0.7-1.1,1.5-1.2c1.1-0.1,2.2,0,3.3,0.1
			c0.3,0,0.6,0.1,0.9,0.2c0.8,0.8,0.8,1.9,0.7,2.9c-0.1,0.9,0,1.8,0,2.7c0.1,2.1,0.1,4.1,0.2,6.2c0.1,3.8,0,7.5,0.4,11.3
			C202.7,253.3,202.8,253.9,203.1,254.4z M216.7,259.6c0,0.1,0,0.2,0,0.3c0.1,0.8,0.3,1.8,0.9,2.4c0.9,0.9,4.3,1.1,4.8-0.3
			c0.2-0.4,0.1-0.9,0.1-1.4c-0.1-1-0.2-1.9-0.3-2.9c-0.6-6.2-1.4-12.5-2.5-18.7c-0.4-2.5-0.9-5-1.3-7.4c-0.1-0.6-0.2-1.2-0.7-1.6
			c-0.2-0.1-0.3-0.2-0.5-0.2c-1.5-0.6-2.9-0.6-4.5-0.3c-0.8,0.1-1.7,0.3-2.2,1c-0.2,0.3-0.4,0.8-0.5,1.2c-1.1,3.5-2,7.1-2.7,10.6
			c-0.4,1.9-0.7,3.7-1,5.6c-0.3,1.6-0.6,3.2-0.9,4.9c0,0.4-0.1,0.9,0.1,1.3c0,0.2,0.1,0.3,0.3,0.4c0.2,0.1,0.4,0.1,0.7,0.1
			c1.2,0,2.4,0.1,3.6,0.1c0.2,0,0.5,0,0.7,0c0.5-0.1,1-0.4,1.2-0.9c0.1-0.2,0.1-0.4,0.3-0.6c0.2-0.2,0.6-0.3,1-0.3
			c0.7,0,2-0.2,2.4,0.6c0.1,0.3,0.2,0.6,0.2,1C216.2,256.1,216.4,257.8,216.7,259.6z M214.8,248c-0.1,0-0.2,0-0.4,0.1
			c-0.4,0-0.8,0-1.2,0c-0.1,0-0.2,0-0.3,0c-0.2-0.1-0.1-0.5-0.1-0.7c0.3-1.1,0.5-2.2,0.7-3.3c0,0,0.3-2.3,0.7-2.3c0,0,0.1,0,0.1,0
			c0.2,0.9,0.4,1.7,0.5,2.6c0.1,0.7,0.1,1.4,0.3,2.2C215.3,247,215.3,247.7,214.8,248C214.9,248,214.8,248,214.8,248z"/>
	</g>
	<g>
		<g class="st0">
			<path class="st1" d="M169.6,163.9c0,0.3-0.1,0.6-0.1,1c0,2.4,0,4.9,0,7.3c0,2.7,0,5.4,0,8.1c-0.1,2.2-0.3,4.4-0.4,6.7
				c-0.1,1.4-0.1,2.9-0.2,4.3c0,0.4-0.1,0.9-0.1,1.3c0,0.5-0.4,0.8-0.9,1c-0.3,0.1-0.6,0.2-1,0.3c-1.2,0.4-2.4,0.1-3.5-0.4
				c-1.1-0.4-1.5-1.3-1.6-2.5c-0.2-3.3-0.1-6.7-0.1-10c0-2.5,0.2-4.9,0.3-7.4c0-0.7,0.1-1.3,0.2-2.1c-0.1,0.1-0.2,0.2-0.3,0.3
				c-0.6,0.8-1.2,1.5-1.8,2.3c-0.6,0.8-1.5,0.8-2.1,0c-0.3-0.4-0.6-0.9-0.8-1.3c-0.3-0.4-0.5-0.9-0.8-1.3c0,0-0.1,0-0.1,0
				c0,0.5,0,1.1,0,1.5c0,2.8,0,5.5-0.1,8.3c0,1.5-0.1,3-0.2,4.6c-0.1,2.1-0.2,4.1-0.3,6.2c0,0.3-0.1,0.6-0.1,0.8
				c-0.1,0.3-0.3,0.6-0.6,0.7c-0.9,0.3-1.7,0.7-2.6,0.5c-0.7-0.1-1.4-0.3-2.1-0.6c-1-0.4-1.5-1.2-1.6-2.3c-0.3-4.4-0.2-8.8-0.1-13.2
				c0-2.1,0.3-4.2,0.4-6.3c0.1-1.9,0.2-3.8,0.4-5.8c0.1-1.2,0.2-2.3,0.4-3.5c0-0.5,0.2-0.9,0.4-1.4c0.2-0.6,0.7-0.9,1.3-0.9
				c1,0,2,0,3,0.1c0.1,0,0.2,0,0.4,0c0.7,0,1.2,0.2,1.7,0.8c1,1.2,2.1,2.4,2.8,3.8c0,0,0.1,0,0.2,0.1c0.1-0.1,0.2-0.2,0.4-0.4
				c1-1.3,2.2-2.5,3.4-3.7c0.5-0.4,1.1-0.8,1.8-0.7c1,0,2.1,0,3.1,0.1c0.4,0,0.7,0.1,0.9,0.2C169.9,161.6,169.6,162.8,169.6,163.9z"
				/>
			<path class="st1" d="M191.8,192.5c-0.3,0.8-1.2,1.1-2,1.3c-1,0.2-2.1,0.3-3.1,0.3c-0.4,0-0.8,0-1.2-0.2c-0.5-0.2-0.8-0.6-1.1-1
				c-0.6-1-0.6-2-0.6-3c0-0.4-0.1-0.9-0.5-1.2c-0.2-0.1-0.5-0.1-0.9-0.1c-0.8,0-1.5,0-2.3,0c-0.2,0-0.5,0-0.8,0.1
				c-0.4,0.2-0.6,0.8-0.7,1.2c-0.3,1.2-0.9,3.2-2.2,3.7c-0.5,0.2-1.1,0.3-1.6,0.3c-0.8,0-1.5,0-2.3-0.1c-0.5,0-1-0.1-1.4-0.4
				c-0.5-0.4-0.7-1.1-0.7-1.6c0-1.7,0.6-3.5,1.1-5.1c0.7-2.5,1.4-4.9,2.1-7.4c0.6-2.1,0.9-4.2,1.3-6.2c0.8-3.6,1.6-7.3,2.7-10.8
				c0.1-0.4,0.3-0.8,0.5-1.2c0.5-0.6,1.4-0.9,2.2-1c0.9-0.1,1.9-0.2,2.8-0.2c1.1,0,2.2,0.1,3,0.9c0.8,0.8,1,2,1.2,3.1
				c0.2,1.2,0.5,2.4,0.7,3.6c0.2,1.4,0.2,2.8,0.6,4.1c0.3,0.9,0.4,1.8,0.6,2.7c0.1,0.8,0.3,1.5,0.5,2.3c0.5,2.1,0.5,4.2,1,6.3
				c0.5,2.5,0.9,4.9,1.2,7.5C192.1,191.2,192.2,191.9,191.8,192.5z M182.9,182.1c0-1.3-0.2-2.6-0.4-3.8c-0.1-0.9-0.4-1.8-0.6-2.7
				c0,0,0,0-0.1,0c-0.2,0-0.9,2.7-1,2.9c-0.4,1.2-0.8,2.3-0.8,3.5c0,0.2,0,0.4,0.1,0.5c0.1,0.1,0.3,0.1,0.6,0.1c0.5,0,1.1,0,1.6,0
				c0.1,0,0.2,0,0.3,0C182.9,182.6,183,182.4,182.9,182.1z"/>
			<path class="st1" d="M204,159.9c1.8,0,3.2,0.9,4.3,2.2c0.3,0.4,0.5,0.9,0.7,1.4c0.7,1.9,1.1,3.8,1,5.8c-0.1,2.4,0,4.7,0.1,7.1
				c0.1,1.8-0.2,3.6-0.5,5.4c-0.1,0.7-0.1,1.4-0.3,2.1c-0.4,1.4-0.9,2.9-1.3,4.4c0,0.1-0.1,0.2-0.1,0.4c-1,1.5-2.1,2.9-3.7,3.6
				c-0.6,0.2-1.2,0.6-1.8,0.9c-0.9,0.4-1.8,0.6-2.7,0.7c-1.3,0.1-2.6,0.2-3.9,0.2c-0.3,0-0.6,0-0.9-0.1c-0.8-0.2-1.3-0.8-1.4-1.6
				c0-0.1,0-0.3,0-0.5c0.1-1,0-2.1,0-3.1c0-1.4,0-2.9-0.1-4.3c0-1.1,0-2.1,0-3.1c0-1.3-0.1-2.5,0.1-3.8c0-0.2,0-0.4,0-0.6
				c-0.2-2-0.2-4.1-0.1-6.1c0-2.3,0.1-4.5,0.2-6.7c0-0.6,0-1.2,0-1.8c0.1-1,0.9-1.8,1.8-1.9c0.9-0.1,1.7-0.2,2.6-0.2s1.7,0,2.5,0v0
				C201.6,160,202.8,159.9,204,159.9z M202.1,185.8c0.4-0.3,0.7-0.8,0.9-1.3c0.2-0.7,0.3-1.4,0.2-2.2c0-0.3,0-0.7,0-1.1
				c0.1-1.2,0.3-2.3,0.2-3.5c0-0.2,0-0.5,0-0.8c0.2-1.2,0.2-2.5,0.2-3.8c0-1.9-0.1-3.7-0.2-5.6c0,0,0-0.1,0-0.1
				c-0.3-1.5-0.6-1.9-2.1-1.9c-0.3,0-0.6,0-0.9,0c0,0.3,0,0.5-0.1,0.7c0,1.6,0,3.2,0,4.9c0,1.5-0.1,3-0.1,4.5
				c-0.1,2.1-0.2,4.2-0.2,6.3c0,1.5,0,3,0.1,4.5c0,0.1,0,0.2,0,0.3C200.9,186.5,201.5,186.2,202.1,185.8z"/>
			<path class="st1" d="M226.7,171.6c-0.4,0-0.7,0.2-1.1,0.3c-0.9,0-1.8,0-2.8,0.1c-0.7-0.3-1-0.9-1.1-1.6c-0.1-0.7-0.2-1.3-0.3-2
				c-1.1-0.1-2.1-0.1-3.1,0.4c-0.1,0.3-0.2,0.6-0.3,1c0,1.1,0,2.2,0,3.4c0.2,0,0.4,0,0.7,0c0.9,0,1.7,0,2.6-0.1
				c1.3-0.1,2.2,0.9,2.2,2c0,0.9,0.2,1.8,0.2,2.7c0,0.5,0,1.1-0.1,1.6c-0.1,0.6-0.5,1.1-1.1,1.2c-0.4,0.1-0.9,0.2-1.2,0.2
				c-0.6,0-1.2,0-1.8,0c-0.4,0-0.8,0.1-1.2,0.2c0,0.1-0.1,0.2-0.1,0.3c0,1.3,0,2.6,0,3.9c0,0.9,0.5,1.4,1.4,1.5c0,0,0.1,0,0.2,0
				c0.5,0,1,0,1.5,0c0.5-0.7,0.2-1.6,0.5-2.5c0.1-0.2,0.4-0.3,0.8-0.4c1.3-0.3,2.6-0.3,4-0.3c0.6,0,1,0.4,1.2,0.8
				c0.2,0.3,0.3,0.6,0.3,0.9c0.1,0.9,0.2,1.7,0.2,2.6c0,1,0,1.9-0.1,2.9c-0.1,0.8-0.4,1.4-1.1,1.9c-1.4,1.1-3.7,1.2-5.4,1.3
				c-2,0.2-4,0.1-5.9-0.1c-1.1-0.1-2.2-0.4-3-1.1c-1-0.9-1.3-2.2-1.5-3.4c-0.5-2.1-0.3-4.2-0.3-6.3c0-2.2,0-4.3,0-6.5
				c0-1.6,0.2-3.3,0.3-4.9c0.1-3.1-0.4-6.6,2-9.1c0.9-1,2.2-1.5,3.4-1.8c2.4-0.5,4.9-0.3,7.3-0.3c0.7,0,1.3,0.1,2,0.2
				c0.8,0.1,1.3,0.5,1.6,1.2c0.2,0.4,0.4,0.9,0.6,1.3c0.2,0.5,0.1,1.1,0,1.6c0,0.3,0,0.6,0,1c0,1.6,0,3.2,0,4.8c0,0.1,0,0.3,0,0.4
				C227.8,171.2,227.3,171.5,226.7,171.6z"/>
		</g>
		<g class="st0">
			<path class="st1" d="M156.2,208c0,2.7,0,5.3,0,8c0,1.6-0.1,3.2-0.2,4.8c-0.1,2.1-0.2,4.1-0.3,6.2c0,0.1,0,0.2,0,0.4
				c0,0.8-0.4,1.3-1.2,1.5c-0.7,0.1-1.4,0.5-2.1,0.3c-0.8-0.1-1.5-0.3-2.2-0.6c-1-0.4-1.5-1.2-1.6-2.3c-0.2-4.4-0.1-8.8-0.1-13.2
				c0-2.3,0.3-4.5,0.5-6.7c0.2-1.8,0.2-3.7,0.4-5.6c0.1-1.2,0.2-2.4,0.4-3.5c0.1-0.4,0.3-0.9,0.4-1.2c0.2-0.5,0.6-0.8,1.2-0.9
				c1.2-0.1,2.5-0.1,3.7,0.2c0.2,0,0.4,0.1,0.6,0.2c0.9,1.5,1.7,3.1,2.6,4.5c1,1.4,2.1,2.7,3.2,4.2c0-0.3,0-0.5,0-0.7
				c0.1-1.5,0.1-3,0.2-4.5c0.1-1,0.2-1.9,0.6-2.8c0.3-0.7,0.8-1.1,1.5-1.1c1.2,0,2.3,0,3.5,0.2c0.2,0,0.5,0.1,0.6,0.2
				c1,1.1,0.7,2.3,0.7,3.5c0,0.3-0.1,0.6-0.1,1c0,2.4,0,4.8,0,7.3c0,2.7,0,5.4,0,8.2c-0.1,2.3-0.2,4.5-0.5,6.7
				c-0.1,1.4,0,2.8-0.1,4.3c0,0.4-0.1,0.9-0.1,1.4c0,0.4-0.3,0.7-0.6,0.8c-0.8,0.3-1.7,0.6-2.5,0.5c-0.8-0.1-1.5-0.3-2.2-0.6
				c-1-0.4-1.5-1.2-1.6-2.4c-0.2-3.9-0.1-7.9-0.1-11.9c0-0.2,0-0.4-0.1-0.6c-0.8-1.2-1.4-2.6-2.4-3.7c-0.7-0.9-1.2-1.9-1.7-2.8
				c0-0.1-0.1-0.2-0.2-0.3c0,0,0,0-0.1,0C156.2,207.2,156.2,207.6,156.2,208z"/>
			<path class="st1" d="M183.2,228c-1.1,0.2-2.2,0.2-3.3,0.2c-1.3,0.1-2.6,0.4-3.9,0.4c-1.3,0.1-2.7-0.1-3.7-0.8
				c-1.2-0.8-1.9-2.1-2.2-3.4s-0.3-2.7-0.3-4.1c0-2.4,0-4.8,0.1-7.2c0-1.9,0.2-3.7,0.4-5.5c0.1-1.4,0.2-2.8,0.3-4.3
				c0-1,0.1-2.1,0.1-3.1c0-0.3,0.1-0.7,0.2-1c0.3-0.7,0.6-1.4,1-2.1c0.5-1,1.5-1.4,2.5-1.5c1.7-0.1,3.4-0.2,5,0c1,0.1,2,0.1,3,0.3
				c0.8,0.1,1.6,0.3,2.4,0.5c0.6,0.2,1,0.6,1.2,1.1c0.2,0.6,0.4,1.1,0.6,1.7c0.2,1,0.4,2.1,0.6,3.1c0,0.6,0,1.2-0.1,1.9
				c0,1.5,0,3.1,0,4.7c0,0.8-0.1,1.5-0.1,2.3c0,1.2-0.1,2.5-0.1,3.7c-0.1,3.2,0,6.4-0.6,9.6c0,0.2-0.1,0.5-0.1,0.8
				C185.8,226.9,184.9,227.6,183.2,228z M178.8,203.9c-1,0-1.7,0.6-1.7,1.6c0,1-0.1,1.9-0.1,2.9c0,0.9,0,1.9,0.1,2.8
				c0.1,2.2-0.1,4.4-0.2,6.6c0,0.8,0,1.6,0,2.4c0,0.6,0.8,1.2,1.4,1.1c0.4-0.1,0.8-0.2,1.2-0.3c0.4-0.2,0.8-0.4,0.8-1
				c0.1-0.7,0.1-1.4,0.1-2.2c0-0.7,0-1.4,0-2.1c0-1,0.1-1.9,0.1-2.9c0-1.8-0.1-3.7-0.2-5.5c0-1-0.1-2.1-0.5-3
				C179.5,204,179.2,203.9,178.8,203.9z"/>
		</g>
		<g class="st0">
			<path class="st1" d="M159,256.4c0.9-0.1,1.9-0.1,2.8,0c0.5,0.1,0.9,0.4,1,0.9c0.1,0.3,0.2,0.7,0.2,1.1c0,1,0,2,0,2.9
				c0,0.4,0,0.8-0.1,1.1c-0.3,0.8-0.8,1.3-1.7,1.3c-2.3,0.2-4.5,0.4-6.8,0.3c-1.5,0-3.1-0.2-4.1-1.3c-0.6-0.7-0.8-1.6-1-2.5
				c-1.2-5.5-1-11-0.8-16.6c0-1.3,0.2-2.5,0.3-3.8c0-1.5,0-3,0.1-4.6c0-1.2,0.1-2.5,0.6-3.6c0.3-0.7,0.7-1.1,1.5-1.2
				c1.1-0.1,2.2-0.1,3.3,0.1c0.3,0,0.6,0.1,0.9,0.2c0.8,0.8,0.8,1.9,0.7,2.9c-0.1,1-0.1,1.9,0,2.8c0.1,2.1,0.1,4.2,0.2,6.3
				c0,2.5,0.1,5.1,0.2,7.6c0,1.6-0.1,3.3-0.2,4.9c0,0.4,0,0.9,0,1.4C157,256.6,158,256.5,159,256.4z"/>
			<path class="st1" d="M177.4,263.1c-1.1,0.2-2.2,0.2-3.3,0.2c-1.3,0.1-2.6,0.4-3.9,0.4c-1.3,0.1-2.7-0.1-3.7-0.8
				c-1.2-0.8-1.9-2.1-2.2-3.4c-0.3-1.3-0.3-2.7-0.3-4.1c0-2.4,0-4.8,0.1-7.2c0-1.9,0.2-3.7,0.4-5.5c0.1-1.4,0.2-2.8,0.3-4.3
				c0-1,0.1-2.1,0.1-3.1c0-0.3,0.1-0.7,0.2-1c0.3-0.7,0.6-1.4,1-2.1c0.5-1,1.5-1.4,2.5-1.5c1.7-0.1,3.4-0.2,5,0c1,0.1,2,0.1,3,0.3
				c0.8,0.1,1.6,0.3,2.4,0.5c0.6,0.2,1,0.6,1.2,1.1c0.2,0.6,0.4,1.1,0.6,1.7c0.2,1,0.4,2.1,0.6,3.1c0,0.6,0,1.2-0.1,1.9
				c0,1.5,0,3.1,0,4.7c0,0.8-0.1,1.5-0.1,2.3c0,1.2-0.1,2.5-0.1,3.7c-0.1,3.2,0,6.4-0.6,9.6c0,0.2-0.1,0.5-0.1,0.8
				C180,262,179.1,262.7,177.4,263.1z M173,239c-1,0-1.7,0.6-1.7,1.6c0,1-0.1,1.9-0.1,2.9c0,0.9,0,1.9,0.1,2.8
				c0.1,2.2-0.1,4.4-0.2,6.6c0,0.8,0,1.6,0,2.4c0,0.6,0.8,1.2,1.4,1.1c0.4-0.1,0.8-0.2,1.2-0.3c0.4-0.2,0.8-0.4,0.8-1
				c0.1-0.7,0.1-1.4,0.1-2.2c0-0.7,0-1.4,0-2.1c0-1,0.1-1.9,0.1-2.9c0-1.8-0.1-3.7-0.2-5.5c0-1-0.1-2.1-0.5-3
				C173.7,239.1,173.4,239,173,239z"/>
			<path class="st1" d="M193.2,256.4c0.9-0.1,1.9-0.1,2.8,0c0.5,0.1,0.9,0.4,1,0.9c0.1,0.3,0.2,0.7,0.2,1.1c0,1,0,2,0,2.9
				c0,0.4,0,0.8-0.1,1.1c-0.3,0.8-0.8,1.3-1.7,1.3c-2.3,0.2-4.5,0.4-6.8,0.3c-1.5,0-3.1-0.2-4.1-1.3c-0.6-0.7-0.8-1.6-1-2.5
				c-1.2-5.5-1-11-0.8-16.6c0-1.3,0.2-2.5,0.3-3.8c0-1.5,0-3,0.1-4.6c0-1.2,0.1-2.5,0.6-3.6c0.3-0.7,0.7-1.1,1.5-1.2
				c1.1-0.1,2.2-0.1,3.3,0.1c0.3,0,0.6,0.1,0.9,0.2c0.8,0.8,0.8,1.9,0.7,2.9c-0.1,1-0.1,1.9,0,2.8c0.1,2.1,0.1,4.2,0.2,6.3
				c0,2.5,0.1,5.1,0.2,7.6c0,1.6-0.1,3.3-0.2,4.9c0,0.4,0,0.9,0,1.4C191.3,256.6,192.3,256.5,193.2,256.4z"/>
			<path class="st1" d="M206.7,255.9c0.1,0.2,0.2,0.4,0.4,0.5c0.5,0.4,1.2,0.4,1.9,0.4c2.7,0,5.4,0,8.1,0.1c0.3,0,0.8,0.1,1,0.4
				c0.2,0.2,0.2,0.5,0.2,0.8c0,1.3,0,2.6-0.1,3.9c0,0.5-0.1,1-0.5,1.2c-0.1,0.1-0.3,0.1-0.5,0.2c-1,0.3-2.1,0.5-3.1,0.6
				c-1.4,0-3,0.1-4.5-0.1c-1.8-0.3-3.7,0.1-5.5,0c-1.4,0-3.1-0.2-4-1.3c-0.6-0.7-0.9-1.6-1.1-2.5c-1.2-5.5-1-10.9-0.7-16.4
				c0-1.3,0.2-2.5,0.3-3.8c0-1.5,0-3,0.1-4.5c0-1.2,0.1-2.4,0.6-3.6c0.2-0.7,0.7-1.1,1.5-1.2c1.1-0.1,2.2,0,3.3,0.1
				c0.3,0,0.6,0.1,0.9,0.2c0.8,0.8,0.8,1.9,0.7,2.9c-0.1,0.9,0,1.8,0,2.7c0.1,2.1,0.1,4.1,0.2,6.2c0.1,3.8,0,7.5,0.4,11.3
				C206.3,254.8,206.4,255.4,206.7,255.9z M220.3,261.1c0,0.1,0,0.2,0,0.3c0.1,0.8,0.3,1.8,0.9,2.4c0.9,0.9,4.3,1.1,4.8-0.3
				c0.2-0.4,0.1-0.9,0.1-1.4c-0.1-1-0.2-1.9-0.3-2.9c-0.6-6.2-1.4-12.5-2.5-18.7c-0.4-2.5-0.9-5-1.3-7.4c-0.1-0.6-0.2-1.2-0.7-1.6
				c-0.2-0.1-0.3-0.2-0.5-0.2c-1.5-0.6-2.9-0.6-4.5-0.3c-0.8,0.1-1.7,0.3-2.2,1c-0.2,0.3-0.4,0.8-0.5,1.2c-1.1,3.5-2,7.1-2.7,10.6
				c-0.4,1.9-0.7,3.7-1,5.6c-0.3,1.6-0.6,3.2-0.9,4.9c0,0.4-0.1,0.9,0.1,1.3c0,0.2,0.1,0.3,0.3,0.4c0.2,0.1,0.4,0.1,0.7,0.1
				c1.2,0,2.4,0.1,3.6,0.1c0.2,0,0.5,0,0.7,0c0.5-0.1,1-0.4,1.2-0.9c0.1-0.2,0.1-0.4,0.3-0.6c0.2-0.2,0.6-0.3,1-0.3
				c0.7,0,2-0.2,2.4,0.6c0.1,0.3,0.2,0.6,0.2,1C219.8,257.6,220,259.3,220.3,261.1z M218.4,249.5c-0.1,0-0.2,0-0.4,0.1
				c-0.4,0-0.8,0-1.2,0c-0.1,0-0.2,0-0.3,0c-0.2-0.1-0.1-0.5-0.1-0.7c0.3-1.1,0.5-2.2,0.7-3.3c0,0,0.3-2.3,0.7-2.3c0,0,0.1,0,0.1,0
				c0.2,0.9,0.4,1.7,0.5,2.6c0.1,0.7,0.1,1.4,0.3,2.2C218.9,248.5,218.9,249.1,218.4,249.5C218.5,249.5,218.4,249.5,218.4,249.5z"/>
		</g>
	</g>
	<g class="st0">
		<path d="M131.4,233.7c-0.1,1.9-0.4,4-0.7,6c-0.3,2.1-1.6,3.6-3.1,3.7c-3.7,0.4-7.6,0.4-11.3,0.1c-1,4.8-2.1,9.7-3.1,14.5
			c-1,5.2-3.9,5.8-8.6,5.7c-1.8-0.1-3.6-0.9-4.6-2.4c-0.6-0.9-0.7-2.1-0.9-3.3c-0.4-5.4-0.4-10.7-0.3-16.1c-4.6-0.6-9.4-1-14.1-1.5
			c-1.3,5.8-2.5,11.6-3.9,17.6c-1.2,5.2-3.9,5.8-8.6,5.7c-1.8-0.1-3.7-0.9-4.6-2.4c-0.6-0.9-0.7-2.1-0.9-3.3
			c-0.6-6.4-0.4-13-0.1-19.5c-2.8-0.3-5.8-0.6-8.8-0.9c-3.7-0.4-3.9-3.1-3-7.9c0.3-1.8,1-3.9,2.4-4.9c0.7-0.7,1.8-1,2.7-1.3
			c2.7-0.9,5.4-1.5,8.2-1.9c0.4-5.8,0.9-11.6,1.5-17.4c-2.4-0.1-4.6-0.4-6.8-0.6c-3.9-0.4-4-3.1-3.1-7.9c0.3-1.9,1.2-3.9,2.4-4.9
			c0.9-0.7,1.8-1,2.7-1.3c2.2-0.7,4.3-1.3,6.6-1.6c0.3-2.1,0.6-4.2,1-6.3c1.3-5.5,1.9-11.2,3.6-16.8c0.4-1,0.7-2.2,1.6-3
			c2.1-1.9,6.7-2.2,9.1-2.2c1-0.1,1.9-0.1,3-0.1c0.4,0,0.9-0.1,1.5-0.1c1.9-0.1,4-0.3,6-0.1c2.1,0.1,3.4,1.5,3.3,3.6
			c-0.3,5.2-1,10.6-2.2,16c-0.4,2.2-0.9,4.5-1.3,6.7c2.5-0.3,5.1-0.4,7.4-0.6c0.3-1,0.4-2.1,0.7-3.1c1.2-5.5,1.8-11.2,3.6-16.8
			c0.3-1,0.7-2.2,1.6-3c1.9-1.9,6.6-2.2,9.1-2.2c0.9-0.1,1.8-0.1,2.8-0.1c0.4,0,1-0.1,1.5-0.1c1.9-0.1,4-0.3,6.1-0.1
			c1.9,0.1,3.3,1.5,3.1,3.6c-0.3,5.2-1,10.6-2.1,16c-0.4,1.9-0.9,4-1.3,6.1c1.6,0.1,3.4,0.3,5.1,0.7c0.7,0.1,1.6,0.4,2.1,1.2
			c1.2,1.8,0.7,6.3,0.4,8.8c-0.1,0.9-0.1,1.8-0.3,2.8c0,0.4-0.1,0.9-0.1,1.5c-0.1,1.9-0.3,4-0.7,6c-0.3,2.1-1.6,3.6-3.1,3.7
			c-2.8,0.3-5.8,0.4-8.6,0.3c-0.6,3-1.3,6-1.9,8.9c2.5,0.1,5.1,0.3,7.6,0.9c0.7,0.1,1.6,0.4,2.1,1.2c1.2,1.8,0.7,6.3,0.4,8.8
			c-0.1,0.9-0.3,1.9-0.3,2.8C131.4,232.6,131.4,233.2,131.4,233.7z M89.1,219.4c3.7-0.3,7.6-0.6,11.5-0.9c0.3-3.6,0.6-7.3,0.9-11
			c-3.3-0.3-6.4-0.6-9.7-1C90.9,210.7,90,215,89.1,219.4z"/>
	</g>
	<g class="st0">
		<path class="st2" d="M134.8,237.6c-0.1,1.9-0.4,4-0.7,6c-0.3,2.1-1.6,3.6-3.1,3.7c-3.7,0.4-7.6,0.4-11.3,0.2
			c-1,4.8-2.1,9.7-3.1,14.5c-1,5.2-3.9,5.8-8.6,5.7c-1.8-0.1-3.6-0.9-4.6-2.4c-0.6-0.9-0.7-2.1-0.9-3.3c-0.4-5.4-0.4-10.7-0.3-16.1
			c-4.6-0.6-9.4-1-14.1-1.5c-1.3,5.8-2.5,11.6-3.9,17.6c-1.2,5.2-3.9,5.8-8.6,5.7c-1.8-0.1-3.7-0.9-4.6-2.4
			c-0.6-0.9-0.7-2.1-0.9-3.3c-0.6-6.4-0.4-13-0.1-19.5c-2.8-0.3-5.8-0.6-8.8-0.9c-3.7-0.4-3.9-3.1-3-7.9c0.3-1.8,1-3.9,2.4-4.9
			c0.7-0.7,1.8-1,2.7-1.3c2.7-0.9,5.4-1.5,8.2-1.9c0.4-5.8,0.9-11.6,1.5-17.4c-2.4-0.1-4.6-0.4-6.8-0.6c-3.9-0.4-4-3.1-3.1-7.9
			c0.3-1.9,1.2-3.9,2.4-4.9c0.9-0.7,1.8-1,2.7-1.3c2.2-0.7,4.3-1.3,6.6-1.6c0.3-2.1,0.6-4.2,1-6.3c1.3-5.5,1.9-11.2,3.6-16.8
			c0.4-1,0.7-2.2,1.6-3c2.1-1.9,6.7-2.2,9.1-2.2c1-0.1,1.9-0.1,3-0.1c0.4,0,0.9-0.1,1.5-0.1c1.9-0.1,4-0.3,6-0.1
			c2.1,0.1,3.4,1.5,3.3,3.6c-0.3,5.2-1,10.6-2.2,16c-0.4,2.2-0.9,4.5-1.3,6.7c2.5-0.3,5.1-0.4,7.4-0.6c0.3-1,0.4-2.1,0.7-3.1
			c1.2-5.5,1.8-11.2,3.6-16.8c0.3-1,0.7-2.2,1.6-3c1.9-1.9,6.6-2.2,9.1-2.2c0.9-0.1,1.8-0.1,2.8-0.1c0.4,0,1-0.1,1.5-0.1
			c1.9-0.1,4-0.3,6.1-0.1c1.9,0.1,3.3,1.5,3.1,3.6c-0.3,5.2-1,10.6-2.1,16c-0.4,1.9-0.9,4-1.3,6.1c1.6,0.1,3.4,0.3,5.1,0.7
			c0.7,0.1,1.6,0.4,2.1,1.2c1.2,1.8,0.7,6.3,0.4,8.8c-0.1,0.9-0.1,1.8-0.3,2.8c0,0.4-0.1,0.9-0.1,1.5c-0.1,1.9-0.3,4-0.7,6
			c-0.3,2.1-1.6,3.6-3.1,3.7c-2.8,0.3-5.8,0.4-8.6,0.3c-0.6,3-1.3,6-1.9,8.9c2.5,0.1,5.1,0.3,7.6,0.9c0.7,0.1,1.6,0.4,2.1,1.2
			c1.2,1.8,0.7,6.3,0.4,8.8c-0.1,0.9-0.3,1.9-0.3,2.8C134.8,236.5,134.8,237.1,134.8,237.6z M92.6,223.3c3.7-0.3,7.6-0.6,11.5-0.9
			c0.3-3.6,0.6-7.3,0.9-11c-3.3-0.3-6.4-0.6-9.7-1C94.4,214.6,93.5,219,92.6,223.3z"/>
	</g>
</g>
</svg>
