<svg xmlns="http://www.w3.org/2000/svg" viewBox="0 0 173.96 109.31"><defs><style>.cls-1{isolation:isolate;}.cls-2{fill:#fd0;}.cls-3{fill:#7cd0e0;}</style></defs><title>Ativo 1</title><g id="Camada_2" data-name="Camada 2"><g id="Layer_1" data-name="Layer 1"><g class="cls-1"><path d="M111.65,4c0,.3-.1.6-.1,1V20.4c-.1,2.2-.3,4.4-.4,6.7-.1,1.4-.1,2.9-.2,4.3,0,.4-.1.9-.1,1.3s-.4.8-.9,1c-.3.1-.6.2-1,.3a4.74,4.74,0,0,1-3.5-.4,2.54,2.54,0,0,1-1.6-2.5c-.2-3.3-.1-6.7-.1-10,0-2.5.2-4.9.3-7.4a16.46,16.46,0,0,1,.2-2.1l-.3.3c-.6.8-1.2,1.5-1.8,2.3a1.22,1.22,0,0,1-2.1,0,9.13,9.13,0,0,1-.8-1.3c-.3-.4-.5-.9-.8-1.3h-.1v1.5c0,2.8,0,5.5-.1,8.3,0,1.5-.1,3-.2,4.6-.1,2.1-.2,4.1-.3,6.2,0,.3-.1.6-.1.8a1.06,1.06,0,0,1-.6.7,4.85,4.85,0,0,1-2.6.5,8.3,8.3,0,0,1-2.1-.6,2.51,2.51,0,0,1-1.6-2.3c-.3-4.4-.2-8.8-.1-13.2,0-2.1.3-4.2.4-6.3.1-1.9.2-3.8.4-5.8.1-1.2.2-2.3.4-3.5a3.71,3.71,0,0,1,.4-1.4,1.29,1.29,0,0,1,1.3-.9c1,0,2,0,3,.1H97a2,2,0,0,1,1.7.8,20.69,20.69,0,0,1,2.8,3.8.31.31,0,0,1,.2.1l.4-.4a39.2,39.2,0,0,1,3.4-3.7,2.41,2.41,0,0,1,1.8-.7c1,0,2.1,0,3.1.1a2,2,0,0,1,.9.2C112,1.7,111.65,2.9,111.65,4Z"/><path d="M133.85,32.6c-.3.8-1.2,1.1-2,1.3a16.28,16.28,0,0,1-3.1.3,2.54,2.54,0,0,1-1.2-.2,2.66,2.66,0,0,1-1.1-1,5.41,5.41,0,0,1-.6-3,1.46,1.46,0,0,0-.5-1.2,2.22,2.22,0,0,0-.9-.1h-2.3a2.49,2.49,0,0,0-.8.1,1.85,1.85,0,0,0-.7,1.2c-.3,1.2-.9,3.2-2.2,3.7a4.53,4.53,0,0,1-1.6.3,17.7,17.7,0,0,1-2.3-.1,2.3,2.3,0,0,1-1.4-.4,2.13,2.13,0,0,1-.7-1.6,17.89,17.89,0,0,1,1.1-5.1c.7-2.5,1.4-4.9,2.1-7.4.6-2.1.9-4.2,1.3-6.2.8-3.6,1.6-7.3,2.7-10.8a6.12,6.12,0,0,1,.5-1.2,3.47,3.47,0,0,1,2.2-1,26.35,26.35,0,0,1,2.8-.2,4,4,0,0,1,3,.9,5.64,5.64,0,0,1,1.2,3.1c.2,1.2.5,2.4.7,3.6a27,27,0,0,0,.6,4.1,26.14,26.14,0,0,1,.6,2.7,18.92,18.92,0,0,0,.5,2.3c.5,2.1.5,4.2,1,6.3.5,2.5.9,4.9,1.2,7.5A2.53,2.53,0,0,1,133.85,32.6ZM125,22.2a23.28,23.28,0,0,0-.4-3.8,26.14,26.14,0,0,0-.6-2.7h-.1a19.64,19.64,0,0,0-1,2.9,11.09,11.09,0,0,0-.8,3.5.75.75,0,0,0,.1.5c.1.1.3.1.6.1h1.9C125,22.7,125.05,22.5,125,22.2Z"/><path d="M146.05,0a5.54,5.54,0,0,1,4.3,2.2,6.11,6.11,0,0,1,.7,1.4,14.49,14.49,0,0,1,1,5.8c-.1,2.4,0,4.7.1,7.1a24.69,24.69,0,0,1-.5,5.4,15.17,15.17,0,0,1-.3,2.1c-.4,1.4-.9,2.9-1.3,4.4,0,.1-.1.2-.1.4a9.14,9.14,0,0,1-3.7,3.6,15.11,15.11,0,0,0-1.8.9,9,9,0,0,1-2.7.7c-1.3.1-2.6.2-3.9.2a2.77,2.77,0,0,1-.9-.1,1.81,1.81,0,0,1-1.4-1.6V32c.1-1,0-2.1,0-3.1,0-1.4,0-2.9-.1-4.3V21.5a24.13,24.13,0,0,1,.1-3.8v-.6a41.42,41.42,0,0,1-.1-6.1c0-2.3.1-4.5.2-6.7V2.5a2.13,2.13,0,0,1,1.8-1.9,22.75,22.75,0,0,1,2.6-.2h2.5A13.42,13.42,0,0,1,146.05,0Zm-1.9,25.9a3,3,0,0,0,.9-1.3,5.34,5.34,0,0,0,.2-2.2V21.3a20.55,20.55,0,0,0,.2-3.5V17a23.58,23.58,0,0,0,.2-3.8c0-1.9-.1-3.7-.2-5.6V7.5c-.3-1.5-.6-1.9-2.1-1.9h-.9a1.48,1.48,0,0,1-.1.7v4.9c0,1.5-.1,3-.1,4.5-.1,2.1-.2,4.2-.2,6.3,0,1.5,0,3,.1,4.5v.3A6.11,6.11,0,0,0,144.15,25.9Z"/><path d="M168.75,11.7a4.51,4.51,0,0,0-1.1.3,27.15,27.15,0,0,0-2.8.1,1.88,1.88,0,0,1-1.1-1.6c-.1-.7-.2-1.3-.3-2a5.47,5.47,0,0,0-3.1.4c-.1.3-.2.6-.3,1v3.4h.7a22.6,22.6,0,0,0,2.6-.1,2,2,0,0,1,2.2,2c0,.9.2,1.8.2,2.7a8.6,8.6,0,0,1-.1,1.6,1.38,1.38,0,0,1-1.1,1.2,6,6,0,0,1-1.2.2h-1.8a5,5,0,0,0-1.2.2c0,.1-.1.2-.1.3v3.9a1.39,1.39,0,0,0,1.4,1.5h1.7c.5-.7.2-1.6.5-2.5.1-.2.4-.3.8-.4a17.54,17.54,0,0,1,4-.3,1.35,1.35,0,0,1,1.2.8,1.61,1.61,0,0,1,.3.9,22.75,22.75,0,0,1,.2,2.6,28.1,28.1,0,0,1-.1,2.9,2.52,2.52,0,0,1-1.1,1.9c-1.4,1.1-3.7,1.2-5.4,1.3a29,29,0,0,1-5.9-.1,5.23,5.23,0,0,1-3-1.1,5.56,5.56,0,0,1-1.5-3.4,26.64,26.64,0,0,1-.3-6.3V16.6c0-1.6.2-3.3.3-4.9.1-3.1-.4-6.6,2-9.1a6.64,6.64,0,0,1,3.4-1.8,35.42,35.42,0,0,1,7.3-.3,13.55,13.55,0,0,1,2,.2,1.86,1.86,0,0,1,1.6,1.2c.2.4.4.9.6,1.3a2.9,2.9,0,0,1,0,1.6V11A3.48,3.48,0,0,1,168.75,11.7Z"/></g><g class="cls-1"><path d="M98.25,48.1v8c0,1.6-.1,3.2-.2,4.8-.1,2.1-.2,4.1-.3,6.2v.4a1.42,1.42,0,0,1-1.2,1.5c-.7.1-1.4.5-2.1.3a7.94,7.94,0,0,1-2.2-.6,2.51,2.51,0,0,1-1.6-2.3c-.2-4.4-.1-8.8-.1-13.2,0-2.3.3-4.5.5-6.7.2-1.8.2-3.7.4-5.6.1-1.2.2-2.4.4-3.5.1-.4.3-.9.4-1.2a1.44,1.44,0,0,1,1.2-.9,11.53,11.53,0,0,1,3.7.2,1.42,1.42,0,0,1,.6.2c.9,1.5,1.7,3.1,2.6,4.5s2.1,2.7,3.2,4.2v-.7c.1-1.5.1-3,.2-4.5a8.75,8.75,0,0,1,.6-2.8,1.59,1.59,0,0,1,1.5-1.1,20.55,20.55,0,0,1,3.5.2,1.07,1.07,0,0,1,.6.2c1,1.1.7,2.3.7,3.5,0,.3-.1.6-.1,1V55.7c-.1,2.3-.2,4.5-.5,6.7-.1,1.4,0,2.8-.1,4.3,0,.4-.1.9-.1,1.4a.87.87,0,0,1-.6.8,5.59,5.59,0,0,1-2.5.5,7.94,7.94,0,0,1-2.2-.6,2.55,2.55,0,0,1-1.6-2.4c-.2-3.9-.1-7.9-.1-11.9a1.27,1.27,0,0,0-.1-.6,29.22,29.22,0,0,0-2.4-3.7,20.94,20.94,0,0,1-1.7-2.8c0-.1-.1-.2-.2-.3h-.1A2.79,2.79,0,0,0,98.25,48.1Z"/><path d="M125.25,68.1a18.29,18.29,0,0,1-3.3.2c-1.3.1-2.6.4-3.9.4a5.81,5.81,0,0,1-3.7-.8,5.51,5.51,0,0,1-2.2-3.4,18.43,18.43,0,0,1-.3-4.1c0-2.4,0-4.8.1-7.2a49.07,49.07,0,0,1,.4-5.5c.1-1.4.2-2.8.3-4.3,0-1,.1-2.1.1-3.1a3.55,3.55,0,0,1,.2-1,20,20,0,0,1,1-2.1,3,3,0,0,1,2.5-1.5,27.83,27.83,0,0,1,5,0c1,.1,2,.1,3,.3a20.48,20.48,0,0,1,2.4.5,1.89,1.89,0,0,1,1.2,1.1c.2.6.4,1.1.6,1.7.2,1,.4,2.1.6,3.1a12.75,12.75,0,0,1-.1,1.9V49c0,.8-.1,1.5-.1,2.3,0,1.2-.1,2.5-.1,3.7a61.89,61.89,0,0,1-.6,9.6c0,.2-.1.5-.1.8A3.3,3.3,0,0,1,125.25,68.1ZM120.85,44a1.55,1.55,0,0,0-1.7,1.6c0,1-.1,1.9-.1,2.9a26.2,26.2,0,0,0,.1,2.8c.1,2.2-.1,4.4-.2,6.6v2.4a1.32,1.32,0,0,0,1.4,1.1l1.2-.3c.4-.2.8-.4.8-1a15.48,15.48,0,0,0,.1-2.2V55.8c0-1,.1-1.9.1-2.9,0-1.8-.1-3.7-.2-5.5a7.58,7.58,0,0,0-.5-3A1.28,1.28,0,0,0,120.85,44Z"/></g><g class="cls-1"><path d="M101.05,96.5a13.1,13.1,0,0,1,2.8,0,1.17,1.17,0,0,1,1,.9,3.59,3.59,0,0,1,.2,1.1v2.9a3.75,3.75,0,0,1-.1,1.1,1.71,1.71,0,0,1-1.7,1.3,51.58,51.58,0,0,1-6.8.3c-1.5,0-3.1-.2-4.1-1.3a5.51,5.51,0,0,1-1-2.5c-1.2-5.5-1-11-.8-16.6,0-1.3.2-2.5.3-3.8,0-1.5,0-3,.1-4.6a8.81,8.81,0,0,1,.6-3.6,1.72,1.72,0,0,1,1.5-1.2,12.17,12.17,0,0,1,3.3.1,2.92,2.92,0,0,1,.9.2,3.39,3.39,0,0,1,.7,2.9,13.09,13.09,0,0,0,0,2.8c.1,2.1.1,4.2.2,6.3,0,2.5.1,5.1.2,7.6,0,1.6-.1,3.3-.2,4.9v1.4C99.05,96.7,100.05,96.6,101.05,96.5Z"/><path d="M119.45,103.2a18.29,18.29,0,0,1-3.3.2c-1.3.1-2.6.4-3.9.4a5.81,5.81,0,0,1-3.7-.8,5.51,5.51,0,0,1-2.2-3.4,18.43,18.43,0,0,1-.3-4.1c0-2.4,0-4.8.1-7.2a49.07,49.07,0,0,1,.4-5.5c.1-1.4.2-2.8.3-4.3,0-1,.1-2.1.1-3.1a3.55,3.55,0,0,1,.2-1,20,20,0,0,1,1-2.1,3,3,0,0,1,2.5-1.5,27.83,27.83,0,0,1,5,0c1,.1,2,.1,3,.3a20.48,20.48,0,0,1,2.4.5,1.89,1.89,0,0,1,1.2,1.1c.2.6.4,1.1.6,1.7.2,1,.4,2.1.6,3.1a12.75,12.75,0,0,1-.1,1.9v4.7c0,.8-.1,1.5-.1,2.3,0,1.2-.1,2.5-.1,3.7a61.89,61.89,0,0,1-.6,9.6c0,.2-.1.5-.1.8A3.3,3.3,0,0,1,119.45,103.2Zm-4.4-24.1a1.55,1.55,0,0,0-1.7,1.6c0,1-.1,1.9-.1,2.9a26.2,26.2,0,0,0,.1,2.8c.1,2.2-.1,4.4-.2,6.6v2.4a1.32,1.32,0,0,0,1.4,1.1l1.2-.3c.4-.2.8-.4.8-1a15.48,15.48,0,0,0,.1-2.2V90.9c0-1,.1-1.9.1-2.9,0-1.8-.1-3.7-.2-5.5a7.58,7.58,0,0,0-.5-3A1.28,1.28,0,0,0,115.05,79.1Z"/><path d="M135.25,96.5a13.1,13.1,0,0,1,2.8,0,1.17,1.17,0,0,1,1,.9,3.59,3.59,0,0,1,.2,1.1v2.9a3.75,3.75,0,0,1-.1,1.1,1.71,1.71,0,0,1-1.7,1.3,51.58,51.58,0,0,1-6.8.3c-1.5,0-3.1-.2-4.1-1.3a5.51,5.51,0,0,1-1-2.5c-1.2-5.5-1-11-.8-16.6,0-1.3.2-2.5.3-3.8,0-1.5,0-3,.1-4.6a8.81,8.81,0,0,1,.6-3.6,1.72,1.72,0,0,1,1.5-1.2,12.17,12.17,0,0,1,3.3.1,2.92,2.92,0,0,1,.9.2,3.39,3.39,0,0,1,.7,2.9,13.09,13.09,0,0,0,0,2.8c.1,2.1.1,4.2.2,6.3,0,2.5.1,5.1.2,7.6,0,1.6-.1,3.3-.2,4.9v1.4A26.42,26.42,0,0,0,135.25,96.5Z"/><path d="M148.75,96a1,1,0,0,0,.4.5,3,3,0,0,0,1.9.4c2.7,0,5.4,0,8.1.1a1.28,1.28,0,0,1,1,.4,1.08,1.08,0,0,1,.2.8c0,1.3,0,2.6-.1,3.9a1.25,1.25,0,0,1-.5,1.2c-.1.1-.3.1-.5.2a17,17,0,0,1-3.1.6,34.18,34.18,0,0,1-4.5-.1c-1.8-.3-3.7.1-5.5,0-1.4,0-3.1-.2-4-1.3a5.65,5.65,0,0,1-1.1-2.5c-1.2-5.5-1-10.9-.7-16.4,0-1.3.2-2.5.3-3.8,0-1.5,0-3,.1-4.5a9.09,9.09,0,0,1,.6-3.6,1.62,1.62,0,0,1,1.5-1.2,18.21,18.21,0,0,1,3.3.1,2.92,2.92,0,0,1,.9.2,3.39,3.39,0,0,1,.7,2.9,24.32,24.32,0,0,0,0,2.7c.1,2.1.1,4.1.2,6.2.1,3.8,0,7.5.4,11.3A3.58,3.58,0,0,0,148.75,96Zm13.6,5.2v.3a4.17,4.17,0,0,0,.9,2.4c.9.9,4.3,1.1,4.8-.3a3.21,3.21,0,0,0,.1-1.4c-.1-1-.2-1.9-.3-2.9-.6-6.2-1.4-12.5-2.5-18.7-.4-2.5-.9-5-1.3-7.4a2.36,2.36,0,0,0-.7-1.6c-.2-.1-.3-.2-.5-.2a7.66,7.66,0,0,0-4.5-.3,3,3,0,0,0-2.2,1,4.33,4.33,0,0,0-.5,1.2A103,103,0,0,0,153,83.9c-.4,1.9-.7,3.7-1,5.6-.3,1.6-.6,3.2-.9,4.9a2.88,2.88,0,0,0,.1,1.3c0,.2.1.3.3.4a1.48,1.48,0,0,0,.7.1c1.2,0,2.4.1,3.6.1h.7a1.59,1.59,0,0,0,1.2-.9c.1-.2.1-.4.3-.6a1.49,1.49,0,0,1,1-.3c.7,0,2-.2,2.4.6a3,3,0,0,1,.2,1C161.85,97.7,162.05,99.4,162.35,101.2Zm-1.9-11.6a.76.76,0,0,0-.4.1h-1.5c-.2-.1-.1-.5-.1-.7.3-1.1.5-2.2.7-3.3,0,0,.3-2.3.7-2.3h.1a23.81,23.81,0,0,1,.5,2.6,19.19,19.19,0,0,0,.3,2.2,1.1,1.1,0,0,1-.3,1.4Z"/></g><g class="cls-1"><path class="cls-2" d="M115.25,5.5c0,.3-.1.6-.1,1V21.9c-.1,2.2-.3,4.4-.4,6.7-.1,1.4-.1,2.9-.2,4.3,0,.4-.1.9-.1,1.3s-.4.8-.9,1c-.3.1-.6.2-1,.3a4.74,4.74,0,0,1-3.5-.4,2.54,2.54,0,0,1-1.6-2.5c-.2-3.3-.1-6.7-.1-10,0-2.5.2-4.9.3-7.4a16.46,16.46,0,0,1,.2-2.1l-.3.3c-.6.8-1.2,1.5-1.8,2.3a1.22,1.22,0,0,1-2.1,0,9.13,9.13,0,0,1-.8-1.3c-.3-.4-.5-.9-.8-1.3H102v1.5c0,2.8,0,5.5-.1,8.3,0,1.5-.1,3-.2,4.6-.1,2.1-.2,4.1-.3,6.2,0,.3-.1.6-.1.8a1.06,1.06,0,0,1-.6.7,4.85,4.85,0,0,1-2.6.5,8.3,8.3,0,0,1-2.1-.6,2.51,2.51,0,0,1-1.6-2.3c-.3-4.4-.2-8.8-.1-13.2,0-2.1.3-4.2.4-6.3.1-1.9.2-3.8.4-5.8.1-1.2.2-2.3.4-3.5a3.71,3.71,0,0,1,.4-1.4,1.29,1.29,0,0,1,1.3-.9c1,0,2,0,3,.1h.4a2,2,0,0,1,1.7.8,20.69,20.69,0,0,1,2.8,3.8.31.31,0,0,1,.2.1l.4-.4a39.2,39.2,0,0,1,3.4-3.7,2.41,2.41,0,0,1,1.8-.7c1,0,2.1,0,3.1.1a2,2,0,0,1,.9.2C115.55,3.2,115.25,4.4,115.25,5.5Z"/><path class="cls-2" d="M137.45,34.1c-.3.8-1.2,1.1-2,1.3a16.28,16.28,0,0,1-3.1.3,2.54,2.54,0,0,1-1.2-.2,2.66,2.66,0,0,1-1.1-1,5.41,5.41,0,0,1-.6-3,1.46,1.46,0,0,0-.5-1.2,2.22,2.22,0,0,0-.9-.1h-2.3a2.49,2.49,0,0,0-.8.1,1.85,1.85,0,0,0-.7,1.2c-.3,1.2-.9,3.2-2.2,3.7a4.53,4.53,0,0,1-1.6.3,17.7,17.7,0,0,1-2.3-.1,2.3,2.3,0,0,1-1.4-.4,2.13,2.13,0,0,1-.7-1.6,17.89,17.89,0,0,1,1.1-5.1c.7-2.5,1.4-4.9,2.1-7.4.6-2.1.9-4.2,1.3-6.2.8-3.6,1.6-7.3,2.7-10.8a6.12,6.12,0,0,1,.5-1.2,3.47,3.47,0,0,1,2.2-1,26.35,26.35,0,0,1,2.8-.2,4,4,0,0,1,3,.9A5.64,5.64,0,0,1,133,5.5c.2,1.2.5,2.4.7,3.6a27,27,0,0,0,.6,4.1,26.14,26.14,0,0,1,.6,2.7,18.92,18.92,0,0,0,.5,2.3c.5,2.1.5,4.2,1,6.3.5,2.5.9,4.9,1.2,7.5A2.53,2.53,0,0,1,137.45,34.1Zm-8.9-10.4a23.28,23.28,0,0,0-.4-3.8,26.14,26.14,0,0,0-.6-2.7h-.1a19.64,19.64,0,0,0-1,2.9,11.09,11.09,0,0,0-.8,3.5.75.75,0,0,0,.1.5c.1.1.3.1.6.1h1.9C128.55,24.2,128.65,24,128.55,23.7Z"/><path class="cls-2" d="M149.65,1.5A5.54,5.54,0,0,1,154,3.7a6.11,6.11,0,0,1,.7,1.4,14.49,14.49,0,0,1,1,5.8c-.1,2.4,0,4.7.1,7.1a24.69,24.69,0,0,1-.5,5.4,15.17,15.17,0,0,1-.3,2.1c-.4,1.4-.9,2.9-1.3,4.4,0,.1-.1.2-.1.4a9.14,9.14,0,0,1-3.7,3.6,15.11,15.11,0,0,0-1.8.9,9,9,0,0,1-2.7.7c-1.3.1-2.6.2-3.9.2a2.77,2.77,0,0,1-.9-.1,1.81,1.81,0,0,1-1.4-1.6v-.5c.1-1,0-2.1,0-3.1,0-1.4,0-2.9-.1-4.3V23a24.13,24.13,0,0,1,.1-3.8v-.6a41.42,41.42,0,0,1-.1-6.1c0-2.3.1-4.5.2-6.7V4a2.13,2.13,0,0,1,1.8-1.9,22.75,22.75,0,0,1,2.6-.2h2.5A13.42,13.42,0,0,1,149.65,1.5Zm-1.9,25.9a3,3,0,0,0,.9-1.3,5.34,5.34,0,0,0,.2-2.2V22.8a20.55,20.55,0,0,0,.2-3.5v-.8a23.58,23.58,0,0,0,.2-3.8c0-1.9-.1-3.7-.2-5.6V9c-.3-1.5-.6-1.9-2.1-1.9h-.9a1.48,1.48,0,0,1-.1.7v4.9c0,1.5-.1,3-.1,4.5-.1,2.1-.2,4.2-.2,6.3,0,1.5,0,3,.1,4.5v.3A6.11,6.11,0,0,0,147.75,27.4Z"/><path class="cls-2" d="M172.35,13.2a4.51,4.51,0,0,0-1.1.3,27.15,27.15,0,0,0-2.8.1,1.88,1.88,0,0,1-1.1-1.6c-.1-.7-.2-1.3-.3-2a5.47,5.47,0,0,0-3.1.4c-.1.3-.2.6-.3,1v3.4h.7a22.6,22.6,0,0,0,2.6-.1,2,2,0,0,1,2.2,2c0,.9.2,1.8.2,2.7a8.6,8.6,0,0,1-.1,1.6,1.38,1.38,0,0,1-1.1,1.2,6,6,0,0,1-1.2.2h-1.8a5,5,0,0,0-1.2.2c0,.1-.1.2-.1.3v3.9a1.39,1.39,0,0,0,1.4,1.5H167c.5-.7.2-1.6.5-2.5.1-.2.4-.3.8-.4a17.54,17.54,0,0,1,4-.3,1.35,1.35,0,0,1,1.2.8,1.61,1.61,0,0,1,.3.9,22.75,22.75,0,0,1,.2,2.6,28.1,28.1,0,0,1-.1,2.9,2.52,2.52,0,0,1-1.1,1.9c-1.4,1.1-3.7,1.2-5.4,1.3a29,29,0,0,1-5.9-.1,5.23,5.23,0,0,1-3-1.1,5.56,5.56,0,0,1-1.5-3.4,26.64,26.64,0,0,1-.3-6.3V18.1c0-1.6.2-3.3.3-4.9.1-3.1-.4-6.6,2-9.1a6.64,6.64,0,0,1,3.4-1.8,35.71,35.71,0,0,1,7.3-.3,13.55,13.55,0,0,1,2,.2,1.86,1.86,0,0,1,1.6,1.2c.2.4.4.9.6,1.3a2.9,2.9,0,0,1,0,1.6v6.2A3.48,3.48,0,0,1,172.35,13.2Z"/></g><g class="cls-1"><path class="cls-2" d="M101.85,49.6v8c0,1.6-.1,3.2-.2,4.8-.1,2.1-.2,4.1-.3,6.2V69a1.42,1.42,0,0,1-1.2,1.5c-.7.1-1.4.5-2.1.3a7.94,7.94,0,0,1-2.2-.6,2.51,2.51,0,0,1-1.6-2.3c-.2-4.4-.1-8.8-.1-13.2,0-2.3.3-4.5.5-6.7.2-1.8.2-3.7.4-5.6.1-1.2.2-2.4.4-3.5.1-.4.3-.9.4-1.2a1.44,1.44,0,0,1,1.2-.9,11.53,11.53,0,0,1,3.7.2,1.42,1.42,0,0,1,.6.2c.9,1.5,1.7,3.1,2.6,4.5s2.1,2.7,3.2,4.2v-.7c.1-1.5.1-3,.2-4.5a8.75,8.75,0,0,1,.6-2.8,1.59,1.59,0,0,1,1.5-1.1,20.55,20.55,0,0,1,3.5.2,1.07,1.07,0,0,1,.6.2c1,1.1.7,2.3.7,3.5,0,.3-.1.6-.1,1V57.2c-.1,2.3-.2,4.5-.5,6.7-.1,1.4,0,2.8-.1,4.3,0,.4-.1.9-.1,1.4a.87.87,0,0,1-.6.8,5.59,5.59,0,0,1-2.5.5,7.94,7.94,0,0,1-2.2-.6,2.55,2.55,0,0,1-1.6-2.4c-.2-3.9-.1-7.9-.1-11.9a1.27,1.27,0,0,0-.1-.6,29.22,29.22,0,0,0-2.4-3.7,20.94,20.94,0,0,1-1.7-2.8c0-.1-.1-.2-.2-.3H102A2.79,2.79,0,0,0,101.85,49.6Z"/><path class="cls-2" d="M128.85,69.6a18.29,18.29,0,0,1-3.3.2c-1.3.1-2.6.4-3.9.4a5.81,5.81,0,0,1-3.7-.8,5.51,5.51,0,0,1-2.2-3.4,18.43,18.43,0,0,1-.3-4.1c0-2.4,0-4.8.1-7.2a49.07,49.07,0,0,1,.4-5.5c.1-1.4.2-2.8.3-4.3,0-1,.1-2.1.1-3.1a3.55,3.55,0,0,1,.2-1,20,20,0,0,1,1-2.1,3,3,0,0,1,2.5-1.5,27.83,27.83,0,0,1,5,0c1,.1,2,.1,3,.3a20.48,20.48,0,0,1,2.4.5,1.89,1.89,0,0,1,1.2,1.1c.2.6.4,1.1.6,1.7.2,1,.4,2.1.6,3.1a12.75,12.75,0,0,1-.1,1.9v4.7c0,.8-.1,1.5-.1,2.3,0,1.2-.1,2.5-.1,3.7a61.89,61.89,0,0,1-.6,9.6c0,.2-.1.5-.1.8C131.45,68.5,130.55,69.2,128.85,69.6Zm-4.4-24.1a1.55,1.55,0,0,0-1.7,1.6c0,1-.1,1.9-.1,2.9a26.2,26.2,0,0,0,.1,2.8c.1,2.2-.1,4.4-.2,6.6v2.4a1.32,1.32,0,0,0,1.4,1.1l1.2-.3c.4-.2.8-.4.8-1a15.48,15.48,0,0,0,.1-2.2V57.3c0-1,.1-1.9.1-2.9,0-1.8-.1-3.7-.2-5.5a7.58,7.58,0,0,0-.5-3A1.28,1.28,0,0,0,124.45,45.5Z"/></g><g class="cls-1"><path class="cls-2" d="M104.65,98a13.1,13.1,0,0,1,2.8,0,1.17,1.17,0,0,1,1,.9,3.59,3.59,0,0,1,.2,1.1v2.9a3.75,3.75,0,0,1-.1,1.1,1.71,1.71,0,0,1-1.7,1.3,51.58,51.58,0,0,1-6.8.3c-1.5,0-3.1-.2-4.1-1.3a5.51,5.51,0,0,1-1-2.5c-1.2-5.5-1-11-.8-16.6,0-1.3.2-2.5.3-3.8,0-1.5,0-3,.1-4.6a8.81,8.81,0,0,1,.6-3.6,1.72,1.72,0,0,1,1.5-1.2,12.17,12.17,0,0,1,3.3.1,2.92,2.92,0,0,1,.9.2,3.39,3.39,0,0,1,.7,2.9,13.09,13.09,0,0,0,0,2.8c.1,2.1.1,4.2.2,6.3,0,2.5.1,5.1.2,7.6,0,1.6-.1,3.3-.2,4.9v1.4C102.65,98.2,103.65,98.1,104.65,98Z"/><path class="cls-2" d="M123.05,104.7a18.29,18.29,0,0,1-3.3.2c-1.3.1-2.6.4-3.9.4a5.81,5.81,0,0,1-3.7-.8,5.51,5.51,0,0,1-2.2-3.4,18.43,18.43,0,0,1-.3-4.1c0-2.4,0-4.8.1-7.2a49.07,49.07,0,0,1,.4-5.5c.1-1.4.2-2.8.3-4.3,0-1,.1-2.1.1-3.1a3.55,3.55,0,0,1,.2-1,20,20,0,0,1,1-2.1,3,3,0,0,1,2.5-1.5,27.83,27.83,0,0,1,5,0c1,.1,2,.1,3,.3a20.48,20.48,0,0,1,2.4.5,1.89,1.89,0,0,1,1.2,1.1c.2.6.4,1.1.6,1.7.2,1,.4,2.1.6,3.1a12.75,12.75,0,0,1-.1,1.9v4.7c0,.8-.1,1.5-.1,2.3,0,1.2-.1,2.5-.1,3.7a61.89,61.89,0,0,1-.6,9.6c0,.2-.1.5-.1.8C125.65,103.6,124.75,104.3,123.05,104.7Zm-4.4-24.1a1.55,1.55,0,0,0-1.7,1.6c0,1-.1,1.9-.1,2.9a26.2,26.2,0,0,0,.1,2.8c.1,2.2-.1,4.4-.2,6.6v2.4a1.32,1.32,0,0,0,1.4,1.1l1.2-.3c.4-.2.8-.4.8-1a15.48,15.48,0,0,0,.1-2.2V92.4c0-1,.1-1.9.1-2.9,0-1.8-.1-3.7-.2-5.5a7.58,7.58,0,0,0-.5-3A1.28,1.28,0,0,0,118.65,80.6Z"/><path class="cls-2" d="M138.85,98a13.1,13.1,0,0,1,2.8,0,1.17,1.17,0,0,1,1,.9,3.59,3.59,0,0,1,.2,1.1v2.9a3.75,3.75,0,0,1-.1,1.1,1.71,1.71,0,0,1-1.7,1.3,51.58,51.58,0,0,1-6.8.3c-1.5,0-3.1-.2-4.1-1.3a5.51,5.51,0,0,1-1-2.5c-1.2-5.5-1-11-.8-16.6,0-1.3.2-2.5.3-3.8,0-1.5,0-3,.1-4.6a8.81,8.81,0,0,1,.6-3.6,1.72,1.72,0,0,1,1.5-1.2,12.17,12.17,0,0,1,3.3.1,2.92,2.92,0,0,1,.9.2,3.39,3.39,0,0,1,.7,2.9,13.09,13.09,0,0,0,0,2.8c.1,2.1.1,4.2.2,6.3,0,2.5.1,5.1.2,7.6,0,1.6-.1,3.3-.2,4.9v1.4A26.42,26.42,0,0,0,138.85,98Z"/><path class="cls-2" d="M152.35,97.5a1,1,0,0,0,.4.5,3,3,0,0,0,1.9.4c2.7,0,5.4,0,8.1.1a1.28,1.28,0,0,1,1,.4,1.08,1.08,0,0,1,.2.8c0,1.3,0,2.6-.1,3.9a1.25,1.25,0,0,1-.5,1.2c-.1.1-.3.1-.5.2a17,17,0,0,1-3.1.6,34.18,34.18,0,0,1-4.5-.1c-1.8-.3-3.7.1-5.5,0-1.4,0-3.1-.2-4-1.3a5.65,5.65,0,0,1-1.1-2.5c-1.2-5.5-1-10.9-.7-16.4,0-1.3.2-2.5.3-3.8,0-1.5,0-3,.1-4.5a9.09,9.09,0,0,1,.6-3.6,1.62,1.62,0,0,1,1.5-1.2,18.21,18.21,0,0,1,3.3.1,2.92,2.92,0,0,1,.9.2,3.39,3.39,0,0,1,.7,2.9,24.32,24.32,0,0,0,0,2.7c.1,2.1.1,4.1.2,6.2.1,3.8,0,7.5.4,11.3A3.58,3.58,0,0,0,152.35,97.5Zm13.6,5.2v.3a4.17,4.17,0,0,0,.9,2.4c.9.9,4.3,1.1,4.8-.3a3.21,3.21,0,0,0,.1-1.4c-.1-1-.2-1.9-.3-2.9-.6-6.2-1.4-12.5-2.5-18.7-.4-2.5-.9-5-1.3-7.4a2.36,2.36,0,0,0-.7-1.6c-.2-.1-.3-.2-.5-.2a7.66,7.66,0,0,0-4.5-.3,3,3,0,0,0-2.2,1,4.33,4.33,0,0,0-.5,1.2,103,103,0,0,0-2.7,10.6c-.4,1.9-.7,3.7-1,5.6-.3,1.6-.6,3.2-.9,4.9a2.88,2.88,0,0,0,.1,1.3c0,.2.1.3.3.4a1.48,1.48,0,0,0,.7.1c1.2,0,2.4.1,3.6.1h.7a1.59,1.59,0,0,0,1.2-.9c.1-.2.1-.4.3-.6a1.49,1.49,0,0,1,1-.3c.7,0,2-.2,2.4.6a3,3,0,0,1,.2,1C165.45,99.2,165.65,100.9,166,102.7Zm-1.9-11.6a.76.76,0,0,0-.4.1h-1.5c-.2-.1-.1-.5-.1-.7.3-1.1.5-2.2.7-3.3,0,0,.3-2.3.7-2.3h.1a23.81,23.81,0,0,1,.5,2.6,19.19,19.19,0,0,0,.3,2.2,1.12,1.12,0,0,1-.3,1.4Z"/></g><g class="cls-1"><path d="M77.05,75.3c-.1,1.9-.4,4-.7,6s-1.6,3.6-3.1,3.7a60.94,60.94,0,0,1-11.3.1c-1,4.8-2.1,9.7-3.1,14.5-1,5.2-3.9,5.8-8.6,5.7a5.87,5.87,0,0,1-4.6-2.4,8.46,8.46,0,0,1-.9-3.3c-.4-5.4-.4-10.7-.3-16.1-4.6-.6-9.4-1-14.1-1.5-1.3,5.8-2.5,11.6-3.9,17.6-1.2,5.2-3.9,5.8-8.6,5.7a5.72,5.72,0,0,1-4.6-2.4,8.46,8.46,0,0,1-.9-3.3,140.93,140.93,0,0,1-.1-19.5c-2.8-.3-5.8-.6-8.8-.9-3.7-.4-3.9-3.1-3-7.9.3-1.8,1-3.9,2.4-4.9a6.78,6.78,0,0,1,2.7-1.3,46.43,46.43,0,0,1,8.2-1.9q.6-8.7,1.5-17.4c-2.4-.1-4.6-.4-6.8-.6-3.9-.4-4-3.1-3.1-7.9a8.44,8.44,0,0,1,2.4-4.9,8.36,8.36,0,0,1,2.7-1.3,37.36,37.36,0,0,1,6.6-1.6c.3-2.1.6-4.2,1-6.3,1.3-5.5,1.9-11.2,3.6-16.8a7.3,7.3,0,0,1,1.6-3c2.1-1.9,6.7-2.2,9.1-2.2a29.08,29.08,0,0,1,3-.1c.4,0,.9-.1,1.5-.1a39.85,39.85,0,0,1,6-.1,3.23,3.23,0,0,1,3.3,3.6,100.73,100.73,0,0,1-2.2,16c-.4,2.2-.9,4.5-1.3,6.7,2.5-.3,5.1-.4,7.4-.6.3-1,.4-2.1.7-3.1,1.2-5.5,1.8-11.2,3.6-16.8a6.29,6.29,0,0,1,1.6-3c1.9-1.9,6.6-2.2,9.1-2.2a25.28,25.28,0,0,1,2.8-.1c.4,0,1-.1,1.5-.1a41,41,0,0,1,6.1-.1,3.14,3.14,0,0,1,3.1,3.6,113.27,113.27,0,0,1-2.1,16c-.4,1.9-.9,4-1.3,6.1a31.19,31.19,0,0,1,5.1.7,2.88,2.88,0,0,1,2.1,1.2c1.2,1.8.7,6.3.4,8.8-.1.9-.1,1.8-.3,2.8,0,.4-.1.9-.1,1.5a42.51,42.51,0,0,1-.7,6c-.3,2.1-1.6,3.6-3.1,3.7a61.82,61.82,0,0,1-8.6.3c-.6,3-1.3,6-1.9,8.9a39.41,39.41,0,0,1,7.6.9,2.88,2.88,0,0,1,2.1,1.2c1.2,1.8.7,6.3.4,8.8a26.6,26.6,0,0,0-.3,2.8C77.05,74.2,77.05,74.8,77.05,75.3ZM34.75,61c3.7-.3,7.6-.6,11.5-.9.3-3.6.6-7.3.9-11-3.3-.3-6.4-.6-9.7-1Q36.1,54.4,34.75,61Z"/></g><g class="cls-1"><path class="cls-3" d="M80.45,79.2c-.1,1.9-.4,4-.7,6s-1.6,3.6-3.1,3.7a71.08,71.08,0,0,1-11.3.2c-1,4.8-2.1,9.7-3.1,14.5-1,5.2-3.9,5.8-8.6,5.7a5.87,5.87,0,0,1-4.6-2.4,8.46,8.46,0,0,1-.9-3.3c-.4-5.4-.4-10.7-.3-16.1-4.6-.6-9.4-1-14.1-1.5-1.3,5.8-2.5,11.6-3.9,17.6-1.2,5.2-3.9,5.8-8.6,5.7a5.72,5.72,0,0,1-4.6-2.4,8.46,8.46,0,0,1-.9-3.3,140.93,140.93,0,0,1-.1-19.5c-2.8-.3-5.8-.6-8.8-.9-3.7-.4-3.9-3.1-3-7.9.3-1.8,1-3.9,2.4-4.9A6.78,6.78,0,0,1,9,69.1a46.43,46.43,0,0,1,8.2-1.9q.6-8.7,1.5-17.4c-2.4-.1-4.6-.4-6.8-.6-3.9-.4-4-3.1-3.1-7.9a8.44,8.44,0,0,1,2.4-4.9,8.36,8.36,0,0,1,2.7-1.3,37.36,37.36,0,0,1,6.6-1.6c.3-2.1.6-4.2,1-6.3,1.3-5.5,1.9-11.2,3.6-16.8a7.3,7.3,0,0,1,1.6-3c2.1-1.9,6.7-2.2,9.1-2.2a29.08,29.08,0,0,1,3-.1c.4,0,.9-.1,1.5-.1a39.85,39.85,0,0,1,6-.1,3.23,3.23,0,0,1,3.3,3.6,100.73,100.73,0,0,1-2.2,16c-.4,2.2-.9,4.5-1.3,6.7,2.5-.3,5.1-.4,7.4-.6.3-1,.4-2.1.7-3.1,1.2-5.5,1.8-11.2,3.6-16.8a6.29,6.29,0,0,1,1.6-3c1.9-1.9,6.6-2.2,9.1-2.2a25.28,25.28,0,0,1,2.8-.1c.4,0,1-.1,1.5-.1a41,41,0,0,1,6.1-.1A3.14,3.14,0,0,1,82,8.8a113.27,113.27,0,0,1-2.1,16c-.4,1.9-.9,4-1.3,6.1a31.19,31.19,0,0,1,5.1.7,2.88,2.88,0,0,1,2.1,1.2c1.2,1.8.7,6.3.4,8.8-.1.9-.1,1.8-.3,2.8,0,.4-.1.9-.1,1.5a42.51,42.51,0,0,1-.7,6c-.3,2.1-1.6,3.6-3.1,3.7a61.82,61.82,0,0,1-8.6.3c-.6,3-1.3,6-1.9,8.9a39.41,39.41,0,0,1,7.6.9,2.88,2.88,0,0,1,2.1,1.2c1.2,1.8.7,6.3.4,8.8a26.6,26.6,0,0,0-.3,2.8C80.45,78.1,80.45,78.7,80.45,79.2ZM38.25,64.9c3.7-.3,7.6-.6,11.5-.9.3-3.6.6-7.3.9-11-3.3-.3-6.4-.6-9.7-1C40.05,56.2,39.15,60.6,38.25,64.9Z"/></g></g></g></svg>