<svg xmlns="http://www.w3.org/2000/svg" viewBox="0 0 361.32 431.84"><defs><style>.cls-1{fill:#fff;}.cls-2{fill:#40704e;}</style></defs><title>Ativo 4</title><g id="Camada_2" data-name="Camada 2"><g id="Layer_1" data-name="Layer 1"><ellipse class="cls-1" cx="180.66" cy="180.15" rx="180.66" ry="180.15"/><line class="cls-2" x1="280.36" y1="347.93" x2="280.36" y2="359.28"/><polyline class="cls-2" points="289.15 346.36 293.01 356.28 293.01 356.28"/><path class="cls-2" d="M198.84,78.06h0a111.33,111.33,0,0,0-18.22-1.57,109.19,109.19,0,0,0-18.15,1.57c-.93.14-1.28-.71-.57-1.21s18.72-14.28,18.72-14.28,18.15,13.78,18.72,14.28S199.69,78.2,198.84,78.06Zm-31.3,89.34h0a2,2,0,0,0-1.21,1.22c3.79,2.92,6.36,9.56,14.29,9.56s10.58-6.64,14.36-9.56a2.25,2.25,0,0,0-1.21-1.22,61,61,0,0,1-13.15,1.22A59.91,59.91,0,0,1,167.54,167.4Zm13.08-11.13h0c-2.21,0-2.64-.79-4.15-.79s-4.21,1.14-4.85,2.14a2.6,2.6,0,0,0,.64,1.43c3.21.5,4.64,2.28,8.36,2.28s5.14-1.78,8.36-2.28a2.25,2.25,0,0,0,.65-1.43c-.58-1-3.37-2.14-4.79-2.14S182.84,156.27,180.62,156.27Zm180.48,34.1h0c-.21,4.36-.64,8.64-1.15,12.85-20.43,3.43-27.79-14.85-48.72-13.91a123.57,123.57,0,0,1,3,13.63c17.29-.08,24.29,16.12,43.51,13.7-1,4.92-2.22,9.84-3.64,14.63-15.22,1.49-20.58-13.64-38.16-13.21.15,2.5.21,5,.21,7.57,0,1.42,0,2.85-.06,4.21,15-.14,19.85,13.7,34.15,13a146.06,146.06,0,0,1-5.93,14.2c-10.29-.49-13.8-13.7-29.44-12.62-.5,3.35-1.07,6.7-1.78,10,13.57-.93,16.5,11.55,26.21,12.55-2.5,4.5-5.14,8.93-8,13.13-5.71-3.06-10.71-12.35-21.64-12.92,1.06-3.42,2.06-7,2.92-10.48-9.71,0-20.79-3.79-30.08-12.27,3-17.13-23.58-34.54-23.58-47.1,0-13.63,6.94-21.12,6.94-39.53,0-13.56-6.65-28.4-16.65-38.46a31.82,31.82,0,0,0-6.22-5c9.22,11.35,16.22,24.83,16.22,40.39,0,17.27-8,26.4-8,42.38s23.36,29.76,23.36,46.17c0,6.49-2.07,12.85-8.92,25.26,10.49,10.5,24.14,16.2,33,16.2,2.86,0,4.36-.93,5.44-3.14.85-1.93,1.71-3.93,2.49-5.85,9.51.36,13.87,9,19.08,12.42-2.86,3.85-5.94,7.56-9.08,11.2-3.49-3.93-8.29-10.42-15.21-12.28-1.22,2.43-2.5,4.79-3.93,7.14,6,1.57,10.07,7.64,13.22,11.56A145.52,145.52,0,0,1,300,316c-2.29-3.56-5.86-8.13-9.93-10.56-1.43,2-3,4-4.58,5.93,3.37,2.28,6.43,6.42,8.37,9.84-4.22,3.43-8.65,6.64-13.22,9.71-2.29-18.34-27.3-30.9-20.59-52.17-2.2,3.71-4.85,8.42-4.85,14.06,0,15.41,16.44,27.62,17.72,43-3.36,2-6.86,3.92-10.44,5.71-.57-16.77-17.93-35.18-17.93-49,0-15.42,20.23-30.9,20.23-49.1s-23.37-30.76-23.37-46.74,9.93-25.19,9.93-45.59a54.76,54.76,0,0,0-18.14-39.89,30.82,30.82,0,0,0-6.15-4.29c10.36,12.43,16.36,23.77,16.36,40.9,0,19.26-11.36,29.9-11.36,48.73s22.86,29.33,22.86,46.88-21.28,32.4-21.28,50.45c0,16.41,18.79,32.83,19.07,52.31-4.07,1.78-8.29,3.42-12.58,4.92,2.43-19.7-18.71-40-18.71-56.09,0-17.55,22.07-32.61,22.07-51.59s-22.43-27.68-22.43-47.17,13.79-30.18,13.79-51.58a52.19,52.19,0,0,0-20.37-41.1c-.28-.22-.49-.43-.78-.65-1.14-.78-2.07.22-1.22,1.22,8.51,10.62,13.08,21.48,13.08,37.39,0,19.69-15.79,35.61-15.79,54.66,0,22.4,21.22,28.82,21.22,47.23s-22.79,33.19-22.79,52.73c0,18.13,21.58,38.25,17.86,59.23-4.29,1.07-8.72,2.07-13.15,2.85,4.08-26-17.07-44.81-17.07-61.79,0-18.48,23.58-35,23.58-53,0-17-16.94-22.55-19.15-39.95a4.1,4.1,0,0,0-4.86-3.71c-3.43.63-7.86,2.92-14.79,2.92s-11.29-2.29-14.79-2.92a4.16,4.16,0,0,0-4.86,3.71c-2.21,17.4-19.15,23-19.15,39.95,0,18.05,23.65,34.54,23.65,53,0,17-21.22,35.75-17.15,61.79-4.43-.78-8.86-1.78-13.14-2.85-3.72-21,17.86-41.1,17.86-59.23,0-19.54-22.8-34.25-22.8-52.73s21.3-24.83,21.3-47.23c0-19.05-15.86-35-15.86-54.66,0-15.91,4.57-26.77,13.14-37.39.79-1-.14-2-1.28-1.22-.29.22-.5.43-.79.65a52.21,52.21,0,0,0-20.36,41.1c0,21.4,13.79,32.18,13.79,51.58s-22.43,28.27-22.43,47.17,22.07,34,22.07,51.59c0,16.06-21.15,36.39-18.72,56.09-4.28-1.5-8.43-3.14-12.57-4.92.29-19.48,19.08-35.9,19.08-52.31,0-18-21.3-32.83-21.3-50.45s22.87-28,22.87-46.88S117.82,167,117.82,147.71c0-17.13,6-28.47,16.43-40.9A31,31,0,0,0,128,111.1,54.77,54.77,0,0,0,109.88,151c0,20.4,9.94,29.61,9.94,45.59S96.53,225.2,96.53,243.32s20.22,33.68,20.22,49.1c0,13.84-17.44,32.25-18,49-3.57-1.79-7-3.71-10.43-5.71,1.29-15.34,17.71-27.55,17.71-43,0-5.64-2.63-10.35-4.85-14.06C108,300,82.88,312.54,80.6,330.88c-4.51-3.07-8.94-6.28-13.23-9.71,2-3.42,5-7.56,8.43-9.84-1.64-1.93-3.14-3.93-4.64-5.93-4,2.43-7.64,7-9.93,10.56-3.64-3.21-7.22-6.56-10.65-10.13,3.15-3.92,7.29-10,13.22-11.56-1.36-2.35-2.71-4.71-3.93-7.14-6.93,1.86-11.64,8.35-15.22,12.28-3.14-3.64-6.21-7.35-9.07-11.2,5.29-3.43,9.65-12.06,19.15-12.42.78,1.92,1.57,3.92,2.5,5.85,1,2.21,2.5,3.14,5.43,3.14,8.79,0,22.43-5.7,32.94-16.2-6.79-12.41-8.86-18.77-8.86-25.26,0-16.41,23.36-30.25,23.36-46.17S102,172,102,154.77c0-15.56,7.08-29,16.22-40.39a32.42,32.42,0,0,0-6.22,5c-9.92,10.06-16.57,24.9-16.57,38.46,0,18.41,6.86,25.9,6.86,39.53,0,12.56-26.58,30-23.57,47.1-9.29,8.48-20.37,12.27-30.09,12.27.86,3.49,1.86,7.06,2.93,10.48-10.86.57-15.86,9.86-21.64,12.92-2.86-4.2-5.51-8.63-8-13.13,9.72-1,12.65-13.48,26.22-12.55-.71-3.29-1.28-6.64-1.78-10-15.58-1.08-19.15,12.13-29.44,12.62-2.14-4.63-4.14-9.34-5.93-14.2,14.29.65,19.15-13.19,34.15-13-.07-1.36-.07-2.79-.07-4.21,0-2.57.07-5.07.22-7.57-17.58-.43-22.94,14.7-38.16,13.21-1.35-4.79-2.57-9.71-3.64-14.63,19.22,2.42,26.22-13.78,43.51-13.7a123.71,123.71,0,0,1,3.07-13.63c-21-.94-28.29,17.34-48.72,13.91C.78,199,.43,194.73.21,190.37c23.72,2.72,32.65-16.83,54.3-14.41a131,131,0,0,1,7.08-15C34.44,156.19,25.22,178.89,0,175.39,2.71,78.06,82.52,0,180.62,0s177.9,78.06,180.7,175.39c-25.3,3.5-34.52-19.2-61.67-14.41a120.12,120.12,0,0,1,7.07,15C328.37,173.54,337.3,193.09,361.1,190.37ZM103,114.74h0c-13.3-5.42-29.44-4.22-43.16,4.64-2.14-12.77-9.07-24.19-19-31a1.63,1.63,0,0,0-2.65,1.58C40.22,117,24.43,140.36,5,161c20,6,37.08-19.77,63.09-10.78A134.85,134.85,0,0,1,103,114.74ZM180.62,98.4h0c-16.79,0-30.8,9.41-34.51,21.69-.29.93.14,1.57,1.21,1.07a24.65,24.65,0,0,1,10.15-2c6.86,0,12.86,2.5,16.43,6.85,1.57,5.21,1.72,12.7-.06,17.06-2.8-.64-3.8-2.86-6.59-2.86s-4.85,1.93-9.49,1.93-5.22-2.15-8.3-2.15c-3.64,0-4.28,3.72-4.28,7.86,0,18.69,17.15,44.38,35.44,44.38s35.44-25.69,35.44-44.38c0-4.14-.86-7.78-4.58-8.28a11.53,11.53,0,0,1-7.93,2.57c-4.71,0-6-1.93-8.71-1.93-3.29,0-3,7-6.94,7.42-2.64-6.34-2.78-14.41-.57-21.62,3.58-4.35,9.58-6.85,16.44-6.85a25,25,0,0,1,10.22,2c1.07.5,1.43-.14,1.14-1.07C211.48,107.81,197.41,98.4,180.62,98.4Zm26.72,26.75h0c-4,0-8.71,1.22-11.71,4.57a4.51,4.51,0,0,0,.14,3.07c7.28-2.5,13.71-2.57,16.86.93a5.59,5.59,0,0,0,2.14-4.43C214.77,126.87,212.34,125.15,207.34,125.15Zm-58.66,8.57h0c3.51-3.57,10.94-3.43,18.65-.57.29-3.78-6.57-8-13.43-8-4.93,0-7.44,1.72-7.44,4.14A5.69,5.69,0,0,0,148.68,133.72ZM264.28,70.5h0a59.77,59.77,0,0,0-34.07,13.06,135,135,0,0,1,15.36-30.47c-16.87,1.78-31,7.91-41.3,18.48l-8-21.13,17.87-15.77L190.2,33l-9.58-22.27L171,33l-23.93,1.63L165,50.44,157,71.57C146.68,61,132.61,54.87,115.75,53.09A135.18,135.18,0,0,1,131,83.56,59.61,59.61,0,0,0,97,70.5a157.18,157.18,0,0,1,20.22,32.75,2.13,2.13,0,0,0,3.21,1.07,136,136,0,0,1,120.46,0,2.13,2.13,0,0,0,3.21-1.07A160.18,160.18,0,0,1,264.28,70.5Zm28.94,79.7h0c25.93-9,43,16.77,63.09,10.78-19.43-20.62-35.29-44-33.15-71.07a1.68,1.68,0,0,0-2.71-1.58c-9.87,6.86-16.79,18.28-18.94,31.05-13.79-8.86-29.86-10.06-43.16-4.64A137,137,0,0,1,293.22,150.2Z"/><polygon class="cls-2" points="280.36 359.27 280.36 359.27 278.57 359.27 278.57 347.93 274.43 347.93 274.43 346.36 284.58 346.36 284.58 347.93 280.36 347.93 280.36 359.27"/><polygon class="cls-2" points="293.01 356.28 293.01 356.28 296.87 346.36 299.72 346.36 299.72 359.27 297.87 359.27 297.87 348.5 293.5 359.27 292.36 359.27 288.08 348.5 288.08 359.27 286.3 359.27 286.3 346.36 289.15 346.36 293.01 356.28"/><path class="cls-1" d="M238.79,416.64h0c0,9.88-5.56,15.2-15.89,15.2-10.11,0-15.8-5.39-15.8-15v-17.6h11.39v17c0,4.72,1.27,6.81,4.34,6.81s4.56-1.87,4.56-7.26V399.19h11.4Z"/><polygon class="cls-1" points="75.28 407.35 75.28 407.35 75.28 431.24 63.75 431.24 63.75 407.35 54.09 407.35 54.09 399.19 84.94 399.19 84.94 407.35 75.28 407.35"/><path class="cls-1" d="M104.34,406.53h0l-2.85,10.93h5.77Zm7.42,24.71h0l-2-5.91H99l-2,5.91H85.47l11.61-32.05h14.6l11.53,32.05Z"/><path class="cls-1" d="M275.79,428.7h0l-3.46-8.24c-2.1,1.5-4.11,2.84-7.49,2.84-4.49,0-7.48-3.67-7.48-8.24s2.62-8.46,7.33-8.46a12.53,12.53,0,0,1,7.64,3.15l3.38-8.09a26.63,26.63,0,0,0-12.88-3.07c-9.67,0-17,6.59-17,16.4,0,10.34,7.11,16.85,17.38,16.85C268.82,431.84,272.78,430.57,275.79,428.7Z"/><polygon class="cls-1" points="301.69 431.24 301.69 431.24 294.44 419.56 294.44 431.24 283.27 431.24 283.27 399.19 294.44 399.19 294.44 410.95 301.24 399.19 313.68 399.19 303.19 414.99 315.03 431.24 301.69 431.24"/><path class="cls-1" d="M34.84,431.84h0c7.26,0,14.83-2.54,14.83-10.78,0-7.34-6.3-9.37-11.24-10.41-3.67-.83-5.47-1.2-5.47-2.7,0-1.95,2.55-2.1,3.82-2.1a17.69,17.69,0,0,1,9.14,3l3-7.27a34.25,34.25,0,0,0-13.11-3c-7.49,0-13.41,3.59-13.41,10.93,0,6,4.57,8.32,9.59,9.51,3.45.9,5.69,1.13,5.69,2.85s-1.72,2.25-3.37,2.25A14.74,14.74,0,0,1,25,420.68l-3.67,7A25.24,25.24,0,0,0,34.84,431.84Z"/><path class="cls-1" d="M332,431.84h0c7.26,0,14.75-2.54,14.75-10.78,0-7.34-6.29-9.37-11.15-10.41-3.68-.83-5.47-1.2-5.47-2.7,0-1.95,2.47-2.1,3.82-2.1a17.42,17.42,0,0,1,9.06,3l3-7.27a33.52,33.52,0,0,0-13-3c-7.57,0-13.48,3.59-13.48,10.93,0,6,4.57,8.32,9.59,9.51,3.52.9,5.69,1.13,5.69,2.85s-1.65,2.25-3.3,2.25a14.94,14.94,0,0,1-9.36-3.45l-3.6,7A25.05,25.05,0,0,0,332,431.84Z"/><path class="cls-1" d="M351.88,403.38h0v-.07a4.76,4.76,0,0,1,4.79-4.72,4.64,4.64,0,0,1,4.65,4.72,4.72,4.72,0,1,1-9.44.07Zm8.76-.07h0a4,4,0,0,0-4-4.12,4.12,4.12,0,0,0-4.19,4.12v.07a4.11,4.11,0,0,0,4.11,4.12A4,4,0,0,0,360.64,403.31Zm-5.84-2.55H357a2,2,0,0,1,1.42.52,1.24,1.24,0,0,1,.38.9v.08a1.45,1.45,0,0,1-1.28,1.42l1.5,1.95h-.82l-1.43-1.87h-1.27v1.87h-.67Zm2.09,2.4h0c.68,0,1.13-.3,1.13-.9s-.38-.83-1.13-.83h-1.42v1.73Z"/><path class="cls-1" d="M153.54,419.26h0a9.56,9.56,0,0,0,6.08-9.06c0-7.57-5.18-11-12.51-11H129.8v32.05H141v-9.51h2.77l5.76,9.51h12Zm-5.16-9.06h0a3.19,3.19,0,0,1-3.52,3.37H141v-6.74h4c2.1,0,3.44,1.12,3.44,3.29Z"/><path class="cls-1" d="M192.49,414.84h0c4.13-.9,6.22-3.22,6.22-7.11,0-5.47-4.12-8.54-11.31-8.54H169.13v32.05h17.52c8.47,0,12.74-3,12.74-9.06C199.39,418,196.68,415.22,192.49,414.84Zm-12.35-8.69h4.05c2.09,0,3.44.9,3.44,2.77V409c0,1.8-1.28,2.84-3.52,2.84h-4Zm7.71,15.13h0c0,1.87-1.42,3-3.66,3h-4.05v-6h4.11c2.18,0,3.6,1,3.6,2.92Z"/></g></g></svg>