<?xml version="1.0" encoding="UTF-8" standalone="no"?>
<!-- Generator: Adobe Illustrator 19.0.0, SVG Export Plug-In . SVG Version: 6.00 Build 0)  -->

<svg
   xmlns:dc="http://purl.org/dc/elements/1.1/"
   xmlns:cc="http://creativecommons.org/ns#"
   xmlns:rdf="http://www.w3.org/1999/02/22-rdf-syntax-ns#"
   xmlns:svg="http://www.w3.org/2000/svg"
   xmlns="http://www.w3.org/2000/svg"
   xmlns:sodipodi="http://sodipodi.sourceforge.net/DTD/sodipodi-0.dtd"
   xmlns:inkscape="http://www.inkscape.org/namespaces/inkscape"
   version="1.1"
   id="Layer_1"
   x="0px"
   y="0px"
   viewBox="0 0 511.999 511.999"
   style="enable-background:new 0 0 511.999 511.999;"
   xml:space="preserve"
   sodipodi:docname="envelope-up.svg"
   inkscape:version="0.92.4 (5da689c313, 2019-01-14)"><metadata
   id="metadata113"><rdf:RDF><cc:Work
       rdf:about=""><dc:format>image/svg+xml</dc:format><dc:type
         rdf:resource="http://purl.org/dc/dcmitype/StillImage" /><dc:title></dc:title></cc:Work></rdf:RDF></metadata><defs
   id="defs111">
	
	
	
	
	
	
	
	
	
	
	
	
	
	
</defs><sodipodi:namedview
   pagecolor="#ffffff"
   bordercolor="#666666"
   borderopacity="1"
   objecttolerance="10"
   gridtolerance="10"
   guidetolerance="10"
   inkscape:pageopacity="0"
   inkscape:pageshadow="2"
   inkscape:window-width="2560"
   inkscape:window-height="1017"
   id="namedview109"
   showgrid="false"
   inkscape:zoom="1.3037307"
   inkscape:cx="274.78408"
   inkscape:cy="252.00743"
   inkscape:window-x="1358"
   inkscape:window-y="-8"
   inkscape:window-maximized="1"
   inkscape:current-layer="Layer_1" />
<polygon
   id="polygon6"
   points="205.03,329.902 71.42,204.685 32.099,199.34 189.383,330.665 "
   style="opacity:0.07000002;fill:#2d404e;enable-background:new"
   transform="rotate(90,255.9995,255.99953)" /><polygon
   id="polygon8"
   points="306.874,329.902 440.484,204.685 479.805,199.34 322.521,330.665 "
   style="opacity:0.07000002;fill:#2d404e;enable-background:new"
   transform="rotate(90,255.9995,255.99953)" /><polygon
   id="polygon10"
   points="32.099,511.998 189.511,330.472 69.893,207.739 32.099,199.34 "
   style="fill:#f9f9f9;fill-opacity:1"
   transform="rotate(90,255.9995,255.99953)" /><polygon
   id="polygon12"
   points="479.805,511.998 322.394,330.472 442.011,207.739 479.805,199.34 "
   style="fill:#f9f9f9;fill-opacity:1"
   transform="rotate(90,255.9995,255.99953)" /><polygon
   id="polygon14"
   points="32.099,474.205 184.084,324.904 189.511,330.472 32.099,511.998 "
   style="opacity:0.54000005;fill:#d4e9e2;fill-opacity:1;enable-background:new"
   transform="rotate(90,255.9995,255.99953)" /><polygon
   id="polygon16"
   points="479.805,474.205 327.821,324.904 322.394,330.472 479.805,511.998 "
   style="opacity:0.54000005;fill:#d4e9e2;fill-opacity:1;enable-background:new"
   transform="rotate(90,255.9995,255.99953)" /><path
   inkscape:connector-curvature="0"
   id="path18"
   d="m 36.07703,468.68503 c 0,0 126.551,-120.859 136.858,-131.796 10.307,-10.938 9.161,-19.688 9.161,-19.688 v -61.249 -61.25 c 0,0 1.146,-8.75 -9.161,-19.688 -10.308,-10.938 -136.858,-131.795 -136.858,-131.795 l -36.076,-10.392 v 223.125 l 0,223.124 z"
   style="fill:#f9f9f9;fill-opacity:1" />
<g
   id="g78">
</g>
<g
   id="g80">
</g>
<g
   id="g82">
</g>
<g
   id="g84">
</g>
<g
   id="g86">
</g>
<g
   id="g88">
</g>
<g
   id="g90">
</g>
<g
   id="g92">
</g>
<g
   id="g94">
</g>
<g
   id="g96">
</g>
<g
   id="g98">
</g>
<g
   id="g100">
</g>
<g
   id="g102">
</g>
<g
   id="g104">
</g>
<g
   id="g106">
</g>
</svg>