<?xml version="1.0" encoding="UTF-8" standalone="no"?>
<!-- Generator: Adobe Illustrator 19.0.0, SVG Export Plug-In . SVG Version: 6.00 Build 0)  -->

<svg
   xmlns:dc="http://purl.org/dc/elements/1.1/"
   xmlns:cc="http://creativecommons.org/ns#"
   xmlns:rdf="http://www.w3.org/1999/02/22-rdf-syntax-ns#"
   xmlns:svg="http://www.w3.org/2000/svg"
   xmlns="http://www.w3.org/2000/svg"
   xmlns:sodipodi="http://sodipodi.sourceforge.net/DTD/sodipodi-0.dtd"
   xmlns:inkscape="http://www.inkscape.org/namespaces/inkscape"
   version="1.1"
   id="Layer_1"
   x="0px"
   y="0px"
   viewBox="0 0 511.999 511.999"
   style="enable-background:new 0 0 511.999 511.999;"
   xml:space="preserve"
   sodipodi:docname="envelope.svg"
   inkscape:version="0.92.4 (5da689c313, 2019-01-14)"><metadata
   id="metadata113"><rdf:RDF><cc:Work
       rdf:about=""><dc:format>image/svg+xml</dc:format><dc:type
         rdf:resource="http://purl.org/dc/dcmitype/StillImage" /><dc:title></dc:title></cc:Work></rdf:RDF></metadata><defs
   id="defs111">
	
	
	
	
	
	
	
	
	
	
	
	
	
	
</defs><sodipodi:namedview
   pagecolor="#ffffff"
   bordercolor="#666666"
   borderopacity="1"
   objecttolerance="10"
   gridtolerance="10"
   guidetolerance="10"
   inkscape:pageopacity="0"
   inkscape:pageshadow="2"
   inkscape:window-width="2560"
   inkscape:window-height="1017"
   id="namedview109"
   showgrid="false"
   inkscape:zoom="1.3037307"
   inkscape:cx="274.78408"
   inkscape:cy="252.00743"
   inkscape:window-x="1358"
   inkscape:window-y="-8"
   inkscape:window-maximized="1"
   inkscape:current-layer="Layer_1" />
<g
   id="g965"
   transform="rotate(90,255.9995,255.99953)"><path
     style="fill:#d4e9e2;fill-opacity:1"
     d="m 469.592,161.546 c 0,0 -84.75,-77.878 -127.125,-121.398 -42.375,-43.52 -86.468,-40.084 -86.468,-40.084 0,0 -44.093,-3.437 -86.468,40.084 C 127.156,83.669 42.406,161.546 42.406,161.546 L 32.099,199.34 V 511.999 H 479.9 V 199.34 Z"
     id="path2"
     inkscape:connector-curvature="0" /><polygon
     style="opacity:0.07000002;fill:#2d404e;enable-background:new"
     points="32.099,199.34 189.383,330.665 205.03,329.902 71.42,204.685 "
     id="polygon6" /><polygon
     style="opacity:0.07000002;fill:#2d404e;enable-background:new"
     points="479.805,199.34 322.521,330.665 306.874,329.902 440.484,204.685 "
     id="polygon8" /><polygon
     style="fill:#f9f9f9;fill-opacity:1"
     points="69.893,207.739 32.099,199.34 32.099,511.998 189.511,330.472 "
     id="polygon10" /><polygon
     style="fill:#f9f9f9;fill-opacity:1"
     points="442.011,207.739 479.805,199.34 479.805,511.998 322.394,330.472 "
     id="polygon12" /><polygon
     style="opacity:0.54000005;fill:#d4e9e2;fill-opacity:1;enable-background:new"
     points="189.511,330.472 32.099,511.998 32.099,474.205 184.084,324.904 "
     id="polygon14" /><polygon
     style="opacity:0.54000005;fill:#d4e9e2;fill-opacity:1;enable-background:new"
     points="322.394,330.472 479.805,511.998 479.805,474.205 327.821,324.904 "
     id="polygon16" /><path
     style="fill:#f9f9f9;fill-opacity:1"
     d="m 468.685,475.922 c 0,0 -120.859,-126.551 -131.796,-136.858 -10.938,-10.307 -19.688,-9.161 -19.688,-9.161 h -61.249 -61.25 c 0,0 -8.75,-1.146 -19.688,9.161 C 164.076,349.372 43.219,475.922 43.219,475.922 l -10.392,36.076 h 223.125 223.124 z"
     id="path18"
     inkscape:connector-curvature="0" /></g>
<g
   id="g78">
</g>
<g
   id="g80">
</g>
<g
   id="g82">
</g>
<g
   id="g84">
</g>
<g
   id="g86">
</g>
<g
   id="g88">
</g>
<g
   id="g90">
</g>
<g
   id="g92">
</g>
<g
   id="g94">
</g>
<g
   id="g96">
</g>
<g
   id="g98">
</g>
<g
   id="g100">
</g>
<g
   id="g102">
</g>
<g
   id="g104">
</g>
<g
   id="g106">
</g>
</svg>