<?xml version="1.0" encoding="UTF-8" standalone="no"?>
<svg
   xmlns:dc="http://purl.org/dc/elements/1.1/"
   xmlns:cc="http://creativecommons.org/ns#"
   xmlns:rdf="http://www.w3.org/1999/02/22-rdf-syntax-ns#"
   xmlns:svg="http://www.w3.org/2000/svg"
   xmlns="http://www.w3.org/2000/svg"
   xmlns:sodipodi="http://sodipodi.sourceforge.net/DTD/sodipodi-0.dtd"
   xmlns:inkscape="http://www.inkscape.org/namespaces/inkscape"
   viewBox="0 0 688.70667 594.85333"
   height="594.85333"
   width="688.70667"
   xml:space="preserve"
   id="svg2"
   version="1.1"
   sodipodi:docname="starbucks-coffee-logo-vector.svg"
   inkscape:version="0.92.4 (5da689c313, 2019-01-14)"><sodipodi:namedview
     pagecolor="#ffffff"
     bordercolor="#666666"
     borderopacity="1"
     objecttolerance="10"
     gridtolerance="10"
     guidetolerance="10"
     inkscape:pageopacity="0"
     inkscape:pageshadow="2"
     inkscape:window-width="1366"
     inkscape:window-height="705"
     id="namedview85"
     showgrid="false"
     inkscape:zoom="0.39673645"
     inkscape:cx="62.050056"
     inkscape:cy="297.42667"
     inkscape:window-x="-8"
     inkscape:window-y="-8"
     inkscape:window-maximized="1"
     inkscape:current-layer="svg2" /><metadata
     id="metadata8"><rdf:RDF><cc:Work
         rdf:about=""><dc:format>image/svg+xml</dc:format><dc:type
           rdf:resource="http://purl.org/dc/dcmitype/StillImage" /></cc:Work></rdf:RDF></metadata><defs
     id="defs6" /><g
     id="g1059"
     transform="matrix(2.1802854,0,0,2.1802854,-406.43373,11.083951)"><path
       inkscape:connector-curvature="0"
       d="m 475.01865,131.33201 c 0,72.53466 -58.50133,131.33733 -130.66666,131.33733 -72.164,0 -130.66533,-58.8 -130.66533,-131.33733 0,-72.536 58.50133,-131.33599846 130.66533,-131.33599846 72.16533,0 130.66666,58.79999846 130.66666,131.33599846"
       style="fill:#ffffff;fill-opacity:1;fill-rule:nonzero;stroke:none;stroke-width:0.13333333"
       id="path156" /><path
       inkscape:connector-curvature="0"
       d="m 338.56932,114.42134 c 0.19067,0.784 -0.484,1.956 0.58267,2.352 1.04133,-0.22666 2.364,-0.11733 3.72933,-0.009 2.736,0.21733 5.644,0.436 6.81067,-2.04 -1.22,-1.36533 -3.212,-1.988 -5.3,-1.988 -2.088,0 -4.25467,0.60933 -5.82267,1.68533 m -5.27866,7.912 0.28133,1.76667 c 3.81733,2.544 4.992,6.856 10.28,6.464 4.688,0.27866 8.20667,-4.11467 10.54267,-7.63067 -3.03334,-0.41866 -6.38,-0.32666 -9.81734,-0.236 -3.75333,0.1 -7.61333,0.2 -11.28666,-0.364 m 104.372,-13.776 c 9.96133,2.636 19.952,13.48934 30.49999,6.448 -9.18666,-15.243998 -22.85866,-29.321331 -19.05599,-49.254663 0.39733,-1.36 -0.48134,-2.737334 -1.74667,-2.929334 -5.95733,2.433334 -10.57467,8.305333 -12.932,14.077333 -0.968,3.412 -1.544,7.041333 -2.90933,10.257333 -7.14,-3.716 -14.75734,-7.313333 -23.45467,-6.445333 -3.136,0.390667 -7.63333,0.596 -8.21067,3.818667 9.86934,5.272 17.98667,14.075999 24.03467,23.447997 4.212,-0.68533 9.376,-0.0987 13.77467,0.58 M 404.25199,52.258677 c -7.23467,-0.382667 -13.292,3.722666 -19.93867,5.581333 -0.57866,-5.658666 3.71734,-11.630666 4.69867,-17.307999 -10.748,0.692 -19.26,7.159999 -28.15067,12.326666 -2.05733,-4.970667 -4.12,-9.966667 -6.164,-14.956 l 11.72667,-11.145333 0.30133,-1.466666 -15.84,-0.882667 c -2.72933,-4.781333 -3.804,-10.54 -7.02933,-14.9386664 -2.63867,4.9853334 -4.412,10.2599994 -7.048,15.2386664 l -15.82266,0.884 v 1.165333 l 12.00933,10.842667 c -1.468,5.573333 -2.832,11.629333 -6.44533,15.841333 -7.036,-4.213334 -13.972,-8.801334 -21.68667,-11.726667 -1.856,-0.598666 -4.50133,-1.574666 -6.16267,-0.301333 2.44,5.377333 5.856,11.161333 5.28134,17.029333 -3.22667,-0.594667 -5.76267,-2.664 -8.79467,-3.534667 -3.62533,-0.988 -7.92667,-2.921333 -11.44533,-1.745333 5.86533,8.204 10.652,16.791999 12.308,26.665333 19.456,-9.390667 42.14666,-14.554667 65.69999,-10.542667 11.04,1.757333 21.192,6.253333 31.06267,9.96 0.38667,-10.354667 6.93467,-18.673333 11.44,-26.986666 m -42.55067,41.321332 c -0.388,0.008 -0.76533,0.028 -1.14533,0.04 -2.048,1.365333 -8.016,0.384 -5.86133,4.98 3.716,-2.94 8.89466,-0.88 12.60933,0.581333 1.37333,-0.682666 1.07467,-2.049333 1.16667,-3.230666 -1.19334,-2.217333 -4.04267,-2.425333 -6.76934,-2.370667 m 5.88267,-9.637333 c -2.728,-6.061333 -8.98267,-8.513333 -14.66,-9.98 -2.78267,-0.341333 -5.66933,-0.573333 -8.53333,-0.6 -0.536,-0.0067 -1.072,-0.01467 -1.60667,0 -8.01067,0.16 -15.66533,2.217334 -20.34133,8.812 -0.672,1.86 -3.62267,4.476 -0.88267,6.144 6.15867,-0.394667 13.184,-1.166667 17.28933,4.117333 0,4.696 3.032,10.944001 -2.048,13.190671 -2.19466,-2.03067 -4.59866,-1.49334 -7.04666,-0.95734 -2.24933,0.49334 -4.53467,0.98667 -6.72667,-0.51066 -2.15333,-1.272 -3.516,0.212 -4.39733,2.06933 -1.27333,12.11467 5.06933,25.48533 16.404,32.228 4.59333,1.656 10.76933,3.232 15.56266,0.88 11.532,-5.36934 16.308,-17.67467 18.456,-29.01333 -0.28933,-2.15734 -0.18666,-6.36 -3.21333,-6.464 -3.41867,2.16133 -8.404,0.88533 -12.02667,0 -2.14266,0.692 -2.23866,3.82533 -4.67733,4.41866 l -1.48667,-1.18533 c -1.272,-5.36533 -2.05733,-12.992001 2.93334,-16.704001 5.57466,-2.249333 12.12133,-3.232 17.888,-1.468 1.076,-1.853333 -0.58667,-3.316 -0.88667,-4.977333 m -47.78666,12.589333 c -0.19467,1.264 0.0973,3.521331 2.048,2.649333 3.03333,-4.202666 8.40533,-0.878666 11.72666,-0.581333 v -1.182667 c -1.82133,-2.861333 -5.56933,-4.298666 -9.376,-4.155999 -0.87866,0.032 -1.772,0.16 -2.63066,0.358666 -1.27467,0.282667 -2.16,1.449333 -1.768,2.912 m -31.084,-13.193333 c -10.164,-6.646666 -23.052,-0.386667 -32.52534,3.230667 -0.88,-8.896 -4.49333,-17.001333 -12.028,-22.865333 -0.73066,-0.362667 -1.74133,-1.129333 -2.65066,-1.184 -0.544,-0.036 -1.06267,0.184 -1.46534,0.881333 3.41467,21.006666 -10.24133,35.666666 -19.92,51.602667 3.22267,2.63333 8.4,2.24 12.308,1.46533 10.25867,-4.10266 20.032,-11.24266 32.248,-8.79466 3.612,-6.15734 9.68134,-12.120004 14.65867,-17.006671 3.04,-2.632 7.21733,-4.302666 9.37467,-7.329333 m 184.14666,54.395994 c 0.0973,3.30667 0.408,6.148 -0.88267,9.53334 -7.02133,1.99733 -12.77866,-0.95067 -18.54133,-3.89867 -5.22667,-2.67333 -10.456,-5.348 -16.636,-4.33067 l 1.468,7.34934 c 12.02,0.39466 19.528,11.92 31.94666,11.424 -1.76533,3.52533 0.78667,12.808 -7.02933,9.09733 -8.11333,-1.95067 -13.98,-9.09733 -22.86933,-9.09733 -1.072,1.97066 -0.39467,4.69733 -0.58267,7.02666 9.38,1.472 16.124,9.39867 25.50134,10.86134 -0.88134,3.224 -1.75734,6.83066 -4.39734,8.79733 -7.628,-1.85733 -13.58666,-8.708 -21.70533,-8.51067 l -1.448,6.748 c 7.71867,0.19734 12.704,7.02534 19.64,9.07467 0.19067,2.84667 -2.35333,5.39067 -3.81867,7.93067 -6.15733,-1.84934 -10.85333,-7.13867 -17.888,-6.74934 -0.0973,-2.64933 1.47467,-5.66 0.88134,-8.49333 -7.90134,2.34933 -13.19867,-4.992 -19.05467,-9.396 -0.16933,-14.41067 -15.34133,-23.86667 -16.14267,-37.36667 -0.15466,-2.69333 0.25734,-5.56533 1.484,-8.65333 4.98667,-11.53066 3.41867,-26.5 -2.048,-37.247997 -1.66133,-2.828 -4.60533,-5.062667 -7.34933,-6.725334 4.01467,8.506667 8.90533,18.557331 6.464,29.013331 -0.28267,8.07334 -5.04533,15.82933 -5.10133,23.61333 -0.0173,2.77334 0.57333,5.55067 2.16933,8.35067 6.35733,11.45067 17.79333,22.28667 13.49333,36.64667 -1.18266,4.40933 -4.704,7.82 -5.58133,12.30666 7.436,6.16 14.468,13.10134 24.33467,13.49067 3.516,-2.24267 1.564,-12.204 8.796,-7.61067 l 10.56133,5.284 c -0.77067,2.82534 -3.13733,5.36134 -5.28,7.30667 -4.008,-1.94933 -7.916,-4.288 -12.912,-4.09733 -1.47333,1.56266 -2.74133,3.31866 -2.62933,5.56 3.516,0.58 6.74133,2.06266 9.67866,4.11866 -1.364,2.93734 -4.02,4.776 -6.46533,7.02667 l -8.19067,-2.92933 c -1.36666,1.95733 -4.20933,4.01333 -3.21066,6.16133 1.84533,0.79333 3.89733,1.86133 5.25733,3.23333 -3.616,3.908 -8.19733,6.424 -12.608,9.076 -3.8,-12.416 -16.31467,-21.12266 -15.24133,-35.47866 l -0.58134,-0.58134 c -2.94133,3.308 -1.95866,8.596 -1.76933,12.89067 3.52,8.992 11.92,15.94 13.19467,25.8 -1.47067,2.53867 -4.78667,3.044 -7.33067,4.12 0.29467,-17.78133 -26.67467,-31.268 -9.38,-49.25333 5.768,-8.80667 15.43333,-17.21067 12.008,-29.33867 -3.516,-11.70533 -15.95067,-18.95867 -15.84133,-32.08267 l 0.0213,-1.024 c 2.83067,-13.68533 11.43467,-28.25066 4.396,-42.807994 -1.96133,-5.857333 -6.344,-12.510666 -12.30533,-14.96 8.888,10.173333 12.412,26.772004 7.32666,40.460004 -2.56266,5.44533 -6.08933,11.93333 -6.444,18.33466 h -0.0213 c -0.18933,3.34133 0.49333,6.66667 2.65067,9.81733 6.748,10.95067 18.468,22.97867 11.72666,37.248 -7.62133,11.42934 -20.91333,23.056 -13.49066,38.10934 5.37466,8.992 13.68933,17.96266 11.44666,29.01466 l -8.796,2.92934 c 5.864,-20.61467 -22.87333,-32.728 -10.84266,-53.35067 7.42666,-11.04133 20.70933,-21.404 13.19066,-36.06 -4.496,-9.08133 -13.78266,-14.456 -13.49066,-25.80533 l 0.32,-1.904 c 3.02666,-16.096 15.26133,-31.32933 6.708,-48.530667 -2.25067,-5.076 -6.74267,-10.254667 -11.72934,-13.190667 l -0.3,0.301334 c 9.97334,9.675999 13.00667,25.59467 7.63067,38.38933 -2.50933,7.50934 -8.016,14.98667 -9.136,23.03333 -0.532,3.792 -0.0827,7.72534 2.11067,11.86534 6.35066,10.05866 17.48933,20.72666 10.53866,33.732 -7.32,10.74 -19.54,21.18933 -14.65866,35.15733 5.376,12.22 16.60266,23.86267 10.54133,39.01467 l -9.07733,2.04933 c 7.23066,-14.76667 -3.61067,-29.42 -9.95867,-42.22533 -7.72533,-18.37467 16.596,-27.17334 16.98667,-43.97334 -0.0947,-10.84 -11.62,-16.99733 -14.056,-26.96533 -2.95067,-2.48933 -5.964,-1.448 -9.168,-0.40933 -2.21467,0.72 -4.51867,1.43866 -6.956,0.992 -1.54534,0.31066 -3.38267,-0.344 -5.228,-0.99867 -3.41334,-1.21067 -6.86133,-2.42133 -8.56667,2.46533 -3.13066,11.03734 -17.38933,19.152 -11.12266,32.244 5.964,11.63334 20.31466,20.14134 15.52133,35.19734 -4.29333,14.064 -18.472,27.45333 -9.67867,43.67333 -3.612,-1.17067 -10.35866,1.07067 -10.26133,-4.7 -5.568,-19.64267 18.17733,-31.08667 10.84267,-50.71867 -3.41334,-12.024 -18.96267,-18.668 -15.53867,-33.13066 2.53067,-11.90667 15.88933,-20.22934 14.016,-33.27067 -0.152,-1.092 -0.42133,-2.21067 -0.80533,-3.376 -4.98667,-14.06933 -15.15867,-28.14666 -9.096,-44.570664 1.66533,-4.692 4.99066,-8.698666 7.912,-12.890666 -9.676,5.177333 -14.556,16.125333 -14.356,27.264 -0.42134,12.11333 8.52533,22.48933 9.79866,33.57333 0.50134,4.47333 -0.232,9.05467 -3.35466,13.91333 -6.34667,8.612 -14.648,17.69467 -10.84267,29.03467 3.61867,11.44 17.88667,18.36933 17.00667,31.66667 -0.0973,15.72533 -18.372,25.51733 -13.192,43.108 l -9.096,-2.94934 c -3.612,-15.632 12.99866,-23.62933 13.18933,-38.09066 2.35067,-16.63067 -18.86133,-22.80134 -17.588,-39.01334 -0.0907,-12.31866 10.75067,-20.12 15.54,-30.48 0.82267,-2.52133 1.09467,-4.90266 0.98533,-7.188 -0.58666,-11.45599 -10.90933,-20.41199 -9.196,-33.29199 0.57467,-9.478671 3.80134,-17.788004 9.96,-24.917337 -8.49733,3.414666 -12.008,13.197333 -14.356,21.406667 -4.07466,13.16533 5.65067,25.00667 6.62534,36.804 0.432,5.208 -0.84,10.388 -5.74134,15.68133 -7.04133,8.29733 -14.18,18.76533 -9.09733,29.91733 5.38267,12.30134 22.29333,21.88 14.95867,37.224 -4.00134,9.67734 -13.584,17.00267 -13.18934,28.43334 -2.54,-1.076 -5.17333,-2.148 -7.33066,-4.09734 0,-14.55866 20.70933,-23.652 10.84266,-38.99466 -0.87466,3.028 -1.06133,7.14266 -1.74666,10.56266 -3.424,8.89467 -10.752,16.01734 -13.49334,25.21734 -4.58533,-1.77067 -9.37866,-5.48934 -13.192,-9.39734 l 5.28267,-3.232 c -0.588,-1.96 -2.14933,-3.61866 -3.51467,-5.27866 -3.42933,-0.48267 -5.68133,1.768 -8.50933,2.64933 -2.444,-2.15467 -4.80133,-4.10933 -6.74933,-6.748 1.75333,-4.99467 15.45466,-0.86533 8.51333,-9.07467 -4.68533,-2.93066 -9.38933,1.25334 -13.49333,3.208 l -5.56267,-7.02533 c 4.78933,-2.92933 9.56667,-7.04267 15.52133,-5.864 1.468,2.644 1.57067,6.532 4.39867,7.91067 10.068,-0.19734 17.20133,-7.80934 24.91867,-13.77334 -5.37867,-8.004 -9.75734,-19.05466 -4.98,-28.73333 3.82933,-9.7 13.804,-17.86933 14.25733,-28.592 0.10133,-2.44133 -0.27867,-5.008 -1.34667,-7.77067 -5.27466,-13.58666 -7.136,-31.949328 2.932,-43.974661 -5.47466,1.470667 -8.70133,8.293334 -10.56133,13.474667 -6.052,13.265334 1.60267,25.554664 1.86667,38.269334 0.036,2.288 -0.14934,4.57866 -0.704,6.888 -5.18,10.456 -13.576,19.62933 -14.94,31.66133 -5.96267,3.804 -10.85867,10.45733 -19.356,8.21333 -0.29867,2.244 0.38666,5.66667 1.16533,8.20934 -6.73867,-0.28267 -11.332,4.684 -17.00533,7.03066 -3.02267,-0.972 -3.80934,-4.87733 -4.97867,-7.612 6.64,-2.24266 11.43067,-8.9 19.05467,-8.79466 0.884,-2.45467 -0.49467,-4.70534 -0.884,-7.04667 -3.65067,-1.62133 -8.124,1.08933 -12.31734,3.79867 -6.7,4.33066 -12.688,8.66 -13.46533,-4.68134 9.47733,-0.58666 15.53333,-9.384 24.91867,-10.26133 l 0.28133,-7.02533 c -5.32533,-0.53867 -9.70133,1.92933 -14.076,4.39733 -4.376,2.468 -8.752,4.93733 -14.076,4.39733 l -2.348,-9.37733 c 12.316,0.76933 19.65467,-10.26933 31.384,-10.86267 1.55867,-2.04933 1.74667,-5.07866 2.048,-7.91066 -5.91067,-0.76934 -10.964,1.83866 -16.02933,4.44666 -5.90934,3.04267 -11.83334,6.08534 -19.14934,3.76534 0,0 -0.468,-5.90534 -0.72266,-9.23467 h 0.0187 c -0.092,-1.30133 -0.18,-2.20933 -0.18,-2.20933 12.11734,4.70133 22.764,-4.00134 33.13067,-8.49467 2.636,-0.788 6.74667,0.57867 7.93067,-2.34933 -0.104,-2.24933 3.99733,-4.87733 0.584,-6.44533 -6.568,-0.892 -12.18,2.036 -17.696,4.964 -7.212,3.828 -14.26134,7.65599 -23.06667,2.94533 l -1.16667,-2.348 C 218.0787,79.626676 242.9867,36.926677 284.32137,15.913344 301.0627,6.3480114 321.86003,1.4706782 342.8347,1.2986782 c 25.312,-0.212 50.88933,6.4293331 69.91733,19.8959998 18.476,11.334666 36.148,30.011999 45.74,48.973332 9.17333,16.613333 13.396,35.25333 14.65733,55.09867 -8.86666,6.70133 -16.12,2.496 -23.59466,-1.70667 -6.03867,-3.396 -12.22134,-6.792 -19.51734,-4.43867 0.88134,2.54534 1.368,5.18 3.232,7.328 6.06667,-0.0427 11.34134,2.596 16.53867,5.23467 7.19733,3.65466 14.244,7.30933 23.04,3.84133 l 0.012,2.20933 M 343.26132,46.689344 c 4.6,2.650666 9.48,6.062666 13.19334,9.678666 l -1.45867,1.466667 c -7.32933,-0.78 -15.04933,0.192 -21.99733,0.3 -0.77467,-0.781334 -2.336,-1.957334 -0.88267,-2.938667 l 11.14533,-8.506666"
       style="fill:#216e3f;fill-opacity:1;fill-rule:nonzero;stroke:none;stroke-width:0.13333333"
       id="path158" /><path
       inkscape:connector-curvature="0"
       d="m 354.72532,119.83468 h -21.42799 v -8.804 h 21.42799 v 8.804 m -14.092,-3.19467 c 0.70667,0 1.47067,0.0627 2.248,0.124 0.77734,0.0627 1.56934,0.124 2.33067,0.124 1.91867,0 3.64533,-0.392 4.48,-2.164 -1.22,-1.36533 -3.212,-1.988 -5.3,-1.988 -2.088,0 -4.25467,0.60933 -5.82267,1.68533 0.19067,0.784 -0.484,1.956 0.58267,2.352 0.448,-0.0973 0.948,-0.13333 1.48133,-0.13333"
       style="fill:#ffffff;fill-opacity:1;fill-rule:nonzero;stroke:none;stroke-width:0.13333333"
       id="path160" /><path
       inkscape:connector-curvature="0"
       d="m 345.21199,116.88801 c -0.76133,0 -1.55333,-0.0613 -2.33067,-0.124 -0.77733,-0.0613 -1.54133,-0.124 -2.248,-0.124 -0.53333,0 -1.03333,0.036 -1.48133,0.13333 -1.06667,-0.396 -0.392,-1.568 -0.58267,-2.352 1.568,-1.076 3.73467,-1.68533 5.82267,-1.68533 2.088,0 4.08,0.62267 5.3,1.988 -0.83467,1.772 -2.56133,2.164 -4.48,2.164"
       style="fill:#feffff;fill-opacity:1;fill-rule:nonzero;stroke:none;stroke-width:0.13333333"
       id="path162" /><path
       inkscape:connector-curvature="0"
       d="m 337.25466,115.73868 c 2.77066,0.65466 3.456,1.63733 5.644,1.91066 2.32533,-0.0413 1.99066,-0.51466 6.048,-1.91333 0.26533,-0.0947 0.63333,-0.68133 0.18,-1.13333 -2.52134,-2.50134 -4.26267,-0.71334 -5.84134,-0.66667 -2.09466,0.024 -4.06133,-1.79333 -6.108,0.568 -0.348,0.48 -0.53066,0.95067 0.0773,1.23467"
       style="fill:#216e3f;fill-opacity:1;fill-rule:nonzero;stroke:none;stroke-width:0.13333333"
       id="path164" /><path
       inkscape:connector-curvature="0"
       d="m 438.49066,260.18534 v -12.54 h -4.47734 v -2.55333 h 11.99334 v 2.55333 h -4.46934 v 12.54 h -3.04666"
       style="fill:#216e3f;fill-opacity:1;fill-rule:nonzero;stroke:none;stroke-width:0.13333333"
       id="path166" /><path
       inkscape:connector-curvature="0"
       d="m 447.94132,260.18534 v -15.09333 h 4.56267 l 2.73733,10.296 2.708,-10.296 h 4.57067 v 15.09333 h -2.83067 v -11.88133 l -2.99733,11.88133 h -2.93333 l -2.98534,-11.88133 v 11.88133 h -2.832"
       style="fill:#216e3f;fill-opacity:1;fill-rule:nonzero;stroke:none;stroke-width:0.13333333"
       id="path168" /></g></svg>