<?xml version="1.0" encoding="utf-8"?>
<!-- Generator: Adobe Illustrator 23.0.6, SVG Export Plug-In . SVG Version: 6.00 Build 0)  -->
<svg version="1.1" id="Camada_1" xmlns="http://www.w3.org/2000/svg" xmlns:xlink="http://www.w3.org/1999/xlink" x="0px" y="0px"
	 viewBox="0 0 1920 1080" style="enable-background:new 0 0 1920 1080;" xml:space="preserve">
<style type="text/css">
	.st0{clip-path:url(#SVGID_2_);fill:url(#SVGID_3_);}
	.st1{clip-path:url(#SVGID_5_);}
	.st2{opacity:0.2;fill:#FFFFFF;}
	.st3{fill:url(#SVGID_6_);}
	.st4{opacity:0.53;fill:#F9FFD9;}
	.st5{fill:url(#SVGID_7_);}
	.st6{fill:url(#SVGID_8_);}
	.st7{clip-path:url(#SVGID_10_);fill:url(#SVGID_11_);}
	.st8{clip-path:url(#SVGID_10_);fill:url(#SVGID_12_);}
	.st9{clip-path:url(#SVGID_10_);fill:url(#SVGID_13_);}
	.st10{clip-path:url(#SVGID_10_);fill:url(#SVGID_14_);}
	.st11{clip-path:url(#SVGID_10_);fill:url(#SVGID_15_);}
	.st12{clip-path:url(#SVGID_17_);}
	.st13{fill:#F55448;}
	.st14{fill:#ED324F;}
	.st15{fill:url(#SVGID_18_);}
	.st16{fill:url(#SVGID_19_);}
	.st17{fill:url(#SVGID_20_);}
	.st18{fill:url(#SVGID_21_);}
	.st19{fill:url(#SVGID_22_);}
	.st20{clip-path:url(#SVGID_24_);}
	.st21{fill:url(#SVGID_25_);}
	.st22{fill:url(#SVGID_26_);}
	.st23{fill:url(#SVGID_27_);}
	.st24{fill:url(#SVGID_28_);}
	.st25{fill:url(#SVGID_29_);}
	.st26{fill:url(#SVGID_30_);}
	.st27{fill:url(#SVGID_31_);}
	.st28{fill:url(#SVGID_32_);}
	.st29{fill:url(#SVGID_33_);}
	.st30{fill:url(#SVGID_34_);}
	.st31{fill:url(#SVGID_35_);}
	.st32{fill:url(#SVGID_36_);}
	.st33{fill:url(#SVGID_37_);}
	.st34{fill:url(#SVGID_38_);}
	.st35{fill:url(#SVGID_39_);}
	.st36{fill:url(#SVGID_40_);}
	.st37{fill:url(#SVGID_41_);}
	.st38{fill:url(#SVGID_42_);}
	.st39{fill:url(#SVGID_43_);}
	.st40{fill:url(#SVGID_44_);}
	.st41{fill:url(#SVGID_45_);}
	.st42{fill:url(#SVGID_46_);}
	.st43{fill:url(#SVGID_47_);}
	.st44{fill:url(#SVGID_48_);}
	.st45{fill:url(#SVGID_49_);}
	.st46{fill:url(#SVGID_50_);}
	.st47{fill:url(#SVGID_51_);}
	.st48{fill:url(#SVGID_52_);}
	.st49{fill:url(#SVGID_53_);}
	.st50{fill:url(#SVGID_54_);}
	.st51{fill:url(#SVGID_55_);}
	.st52{fill:url(#SVGID_56_);}
	.st53{fill:url(#SVGID_57_);}
	.st54{fill:url(#SVGID_58_);}
	.st55{fill:url(#SVGID_59_);}
	.st56{fill:url(#SVGID_60_);}
	.st57{fill:url(#SVGID_61_);}
	.st58{fill:url(#SVGID_62_);}
	.st59{fill:url(#SVGID_63_);}
	.st60{fill:url(#SVGID_64_);}
	.st61{fill:url(#SVGID_65_);}
	.st62{fill:url(#SVGID_66_);}
	.st63{fill:url(#SVGID_67_);}
	.st64{fill:url(#SVGID_68_);}
	.st65{fill:url(#SVGID_69_);}
	.st66{fill:url(#SVGID_70_);}
	.st67{fill:url(#SVGID_71_);}
	.st68{fill:url(#SVGID_72_);}
	.st69{fill:url(#SVGID_73_);}
</style>
<g>
	<g>
		<defs>
			<rect id="SVGID_4_" x="0" width="1920" height="1080"/>
		</defs>
		<clipPath id="SVGID_2_">
			<use xlink:href="#SVGID_4_"  style="overflow:visible;"/>
		</clipPath>
		<g style="clip-path:url(#SVGID_2_);">
			<path class="st2" d="M1161.7,467.9c2.5-5,2.3-11.2-0.5-16c-2.8-4.8-8.2-8-13.7-8.3c-4.9-0.2-9.6,1.7-14.2,3.5
				c-1.2,0.5-2.5,0.9-3.8,0.8c-1.3-0.1-2.4-0.8-3.5-1.3c-7.8-4-17.1-4.9-25.5-2.5c-4.6,1.3-9.2,3.6-14,2.8c-3.6-0.6-6.5-2.9-9.6-5
				c-0.4-1.1-0.8-2.3-1.4-3.3c-2.8-4.8-8.2-8-13.7-8.2c-4.9-0.2-9.6,1.7-14.2,3.5c-1.2,0.5-2.5,0.9-3.8,0.8
				c-1.3-0.1-2.4-0.8-3.5-1.4c-7.8-4-17.1-4.9-25.5-2.5c-4.6,1.3-9.2,3.6-14,2.8c-4.9-0.8-8.7-4.8-13.1-7.2
				c-6.9-3.8-15.1-3.5-23-3.2c-0.8,0-1.8,0.1-2.3,0.7c-0.8,0.9-0.4,2.3-0.4,3.5c0,2.7-2.8,5-5.5,4.5c0.1,1.2,0.3,2.5,0.4,3.7
				c3.8-0.7,8,1.1,11.4-0.7c0.6-0.3,1.2-0.8,1.9-1c1.4-0.4,2.8,0.5,3.5,1.7c0.7,1.2,0.9,2.6,1.1,4c1.1-0.1,2.4-0.1,3.3,0.6
				c0.9,0.7,1.1,2.4,0,2.9c-0.4,0.2-0.8,0.1-1.2,0.2c-2.9,0.3-5.7,3.8-8.1,2.2c0.4,1.7-1.4,2.8-3.1,2.5c-2-1.7-4.7-2.4-7.3-2
				c0.9,1.3,0.7,3.3-0.4,4.4c-0.5,0.5-1.1,0.8-1.4,1.4c-0.3,0.5-0.3,1.2-0.6,1.7c-0.8,1.4-2.8,0.7-4.3,0c-1.1-0.5-2.6-0.2-3.4,0.7
				c-0.4,0.4-0.6,0.9-1.1,1.1c-0.5,0.2-1.1-0.1-1.7-0.3c-2.6-0.8-5.6,1-6.1,3.7c-1.2,1-3,0-4.1-1.1c-1.1-1.1-2.3-2.5-3.9-2.2
				c-1.9,0.4-2.2,2.9-2.2,4.8c0.1,2,0.1,3.9,0.2,5.9c0.1,2.2,0.3,4.7,2.2,5.9c2,1.3,5.2,0.4,6.7,2.2c0.4,0.5,0.7,1.2,1.2,1.6
				c1,1.1,2.7,0.9,4.2,1.1c1.5,0.2,3.1,1.6,2.4,2.9c3-0.7,6.4,1.1,7.5,3.9c-1.6,0.1-3.1,0.1-4.6,0.2c0,0.2,0,0.3,0,0.5
				c-0.7-0.4-1.3-0.8-2-1.1c-2-1.1-4.1-1.1-6.3-0.7c-1-0.6-2.1-1.2-3.2-1.4c-1-0.2-2.1-0.1-3-0.5c-0.7-0.3-1.3-1-2-1.4
				c-1.9-1.3-4.8-0.9-6.4,0.8c-0.4,0.4-0.7,0.9-1.2,1.1c-0.5,0.2-1,0.2-1.5,0.1c-2.5-0.2-4.9-0.4-7.4-0.7c-0.1,0.4-0.2,0.9-0.2,1.3
				c-10.9-1-21.4,5.2-32.4,6.8c-2.1,0.3-4.3,0.4-6.2-0.3c-1.8-0.7-3.3-2-5.1-2.6c-4.4-1.6-9.1,1.2-13.7,2.1
				c-3.8,0.7-7.7,0.1-11.6-0.5c0.4-0.8,0.9-1.5,1.2-2.3c2.5-5,2.3-11.2-0.5-16c-2.8-4.8-8.2-8-13.7-8.2c-4.9-0.2-9.6,1.7-14.2,3.5
				c-1.2,0.5-2.5,0.9-3.8,0.8c-1.3-0.1-2.4-0.8-3.5-1.3c-7.8-4-17.1-4.9-25.5-2.5c-4.6,1.3-9.2,3.6-14,2.8c-3.6-0.6-6.5-2.9-9.6-5
				c-0.4-1.1-0.8-2.3-1.4-3.3c-2.8-4.8-8.2-8-13.7-8.3c-4.9-0.2-9.6,1.7-14.2,3.5c-1.2,0.5-2.5,0.9-3.8,0.8
				c-1.3-0.1-2.4-0.8-3.5-1.3c-7.8-4-17.1-4.9-25.5-2.5c-4.6,1.3-9.2,3.6-14,2.8c-4.9-0.8-8.7-4.8-13.1-7.2
				c-6.9-3.8-15.1-3.5-23-3.2c-0.8,0-1.8,0.1-2.3,0.7c-0.8,0.9-0.4,2.3-0.4,3.5c0,2.7-2.8,5-5.5,4.5c0.1,1.2,0.3,2.5,0.4,3.7
				c3.8-0.7,8,1.1,11.4-0.7c0.6-0.4,1.2-0.8,1.9-1c1.4-0.3,2.8,0.5,3.5,1.7c0.7,1.2,0.9,2.7,1.1,4c1.1-0.1,2.4-0.1,3.3,0.6
				c0.9,0.7,1.1,2.4,0,2.9c-0.4,0.2-0.8,0.1-1.2,0.2c-2.9,0.3-5.6,3.8-8.1,2.2c0.4,1.7-1.4,2.8-3.1,2.5c-2-1.7-4.7-2.4-7.3-2
				c0.9,1.3,0.7,3.3-0.4,4.4c-0.5,0.5-1.1,0.8-1.4,1.4c-0.3,0.5-0.3,1.2-0.6,1.7c-0.8,1.4-2.8,0.7-4.3,0c-1.1-0.5-2.5-0.2-3.4,0.7
				c-0.4,0.4-0.6,0.9-1.2,1.1c-0.5,0.2-1.1-0.1-1.7-0.3c-2.5-0.8-5.6,1-6.1,3.7c-1.2,1-3,0-4.1-1.1c-1.1-1.1-2.4-2.5-3.9-2.2
				c-1.9,0.4-2.2,2.9-2.2,4.8c0.1,2,0.1,3.9,0.2,5.9c0.1,2.2,0.3,4.7,2.2,5.8c2,1.3,5.2,0.4,6.7,2.2c0.4,0.5,0.7,1.2,1.1,1.6
				c1,1,2.7,0.9,4.2,1.1c1.5,0.2,3.1,1.6,2.4,2.9c3-0.7,6.4,1.1,7.5,3.9c-1.5,0.1-3.1,0.1-4.6,0.2c0,0.8-0.1,1.7-0.1,2.6
				c-4.2,0.6-7.2-4.5-11.4-5.2c-1-0.2-2.1-0.1-3-0.5c-0.7-0.3-1.3-1-2-1.4c-1.9-1.3-4.8-0.9-6.4,0.8c-0.4,0.4-0.7,0.9-1.2,1.1
				c-0.5,0.2-1,0.2-1.5,0.1c-2.5-0.2-4.9-0.4-7.4-0.6c-0.7,2.4-0.1,5,1,7.3c1.1,2.2,3,4.2,5.4,4.5c1.7,0.3,3.5-0.3,5.2-0.5
				c1.7-0.2,3.8,0.1,4.7,1.6l-0.4,0.6c4.6,3.6,11.3,0.2,17.1,1c4.4,0.5,8.2,3.5,12.6,4c3.6,0.4,7.1-0.8,10.6-1.8
				c2.4-0.6,4.8-1.2,7.2-1.6c0.9-0.1,1.8-0.3,2.6,0.2c1,0.6,1.4,1.9,1.6,3.1c0.6,3.2,1.2,6.3,1.8,9.5c1.8-1.6,4.8-3.2,6.2-1.2
				c0.4,0.6,0.5,1.3,0.8,1.9c1,2.1,3.9,2.6,6,1.8c2.2-0.8,3.9-2.4,5.7-3.8c0.8-0.6,1.7-1.2,2.7-1.7c0.4,0.2,0.8,0.3,1.3,0.4
				c1.5,0.2,2.9-0.1,4.4-0.4c1.6,0.7,3,1.7,4.8,1.7c0.2,0,0.4,0,0.6,0l-0.3,0.4c3,2.4,7,1.7,11,1.2c-0.1,1.1,0.4,2.5,1,3.5
				c3.2,5.5,7.9,10,13.5,12.9c2.7,1.4,5.7,2.5,7.8,4.7c1.3,1.4,2.2,3,3.3,4.5c4.1,5.5,10.7,8.3,17.1,10.9c2.5,1,5.1,2,7.7,2.8
				c2.3,0.6,4.6,1.1,6.8,2c5.5,2.2,9.8,7.2,15.7,8.2c4,0.7,8.5-0.7,12.1,1.1c1.1,0.5,2.1,1.3,3.2,1.8c3.4,1.2,7.3-1.1,10.7,0.1
				c1.8,0.6,3.1,2.2,4.9,2.9c1.6,0.6,3.5,0.4,5.2,0.2c6.7-1,13.3-2.7,19.7-5.1c1-0.4,1.9-0.8,2.7-1.5c1.5-1.4,1.9-3.6,1.7-5.6
				c-0.2-2.2-0.9-4.4-0.7-6.6c0.2-3.2,2.4-6.3,5.4-7.5c3.8-1.5,9.5-0.9,10.8-4.8c0.4-1.1,0.3-2.4,1.2-3.2c0.8-0.7,2-0.6,3.1-0.8
				c3.1-0.5,4.9-3.7,7.1-6.1c3.1,0,6.2-0.4,8.9,0.9c1.1,0.5,2.1,1.3,3.2,1.8c3.4,1.2,7.3-1.1,10.7,0.1c1.8,0.6,3.2,2.2,4.9,2.9
				c1.6,0.6,3.5,0.4,5.2,0.2c6.7-1,13.3-2.7,19.6-5.1c1-0.4,1.9-0.8,2.7-1.5c1.5-1.4,1.9-3.6,1.7-5.6c-0.2-2.2-0.9-4.4-0.8-6.6
				c0.2-3.3,2.4-6.3,5.5-7.5c3.8-1.5,9.5-0.9,10.8-4.8c0.4-1.1,0.3-2.5,1.2-3.2c0.8-0.7,2-0.6,3.1-0.8c4.8-0.8,6.5-7.8,11.3-8.6
				c1.7-0.3,3.6,0.4,5.3,0c3.3-0.8,4.8-5.1,8.1-5.8c1.2-0.2,2.4,0.1,3.6-0.1c0.8-0.1,1.5-0.5,2.2-0.9c0.9,0.6,1.2,1.8,1.5,2.9
				c0.6,3.2,1.2,6.3,1.8,9.5c1.8-1.6,4.8-3.2,6.2-1.2c0.4,0.6,0.5,1.3,0.8,1.9c1,2.1,3.9,2.6,6,1.8c2.2-0.7,3.9-2.4,5.7-3.8
				c0.8-0.6,1.7-1.2,2.7-1.7c0.4,0.2,0.8,0.3,1.3,0.4c1.5,0.2,2.9-0.1,4.4-0.4c1.6,0.7,3.1,1.7,4.8,1.8c0.2,0,0.4,0,0.6,0l-0.3,0.4
				c4.6,3.6,11.3,0.2,17.1,1c4.4,0.5,8.2,3.5,12.6,4c3.6,0.4,7.1-0.8,10.6-1.8c2.4-0.7,4.8-1.2,7.3-1.6c0.9-0.1,1.8-0.3,2.6,0.2
				c1.1,0.6,1.4,1.9,1.6,3.1c0.6,3.2,1.2,6.3,1.8,9.5c1.8-1.6,4.8-3.2,6.2-1.2c0.4,0.6,0.5,1.3,0.9,1.9c1,2.1,3.9,2.6,6,1.8
				c2.2-0.8,3.9-2.4,5.7-3.8c1.8-1.4,4-2.7,6.3-2.3c2.4,0.3,4.4,2.3,6.8,2.4c3.4,0.1,6.3-3.6,9.6-2.8c1.4,0.4,2.4,1.5,3.7,2.2
				c3.2,1.8,7.4,0.5,10.6-1.5c3.2-1.9,6.2-4.4,9.9-5c2.5-0.4,5.2,0.1,7.5-0.8c2.7-1,4.4-3.5,6-5.8c4.8-7.1,9.8-14.9,9.3-23.5
				c-0.2-3.7-1.5-7.5-0.3-11.1C1160,470.7,1161,469.3,1161.7,467.9z"/>
			<path class="st2" d="M2097.7,447.2c2.5-5,2.3-11.2-0.5-16c-2.8-4.8-8.2-8-13.7-8.3c-4.9-0.2-9.6,1.7-14.2,3.5
				c-1.2,0.5-2.5,0.9-3.8,0.8c-1.3-0.1-2.4-0.8-3.5-1.3c-7.8-4-17.1-4.9-25.5-2.5c-4.6,1.3-9.2,3.6-14,2.8c-3.6-0.6-6.5-2.9-9.6-5
				c-0.4-1.1-0.8-2.3-1.4-3.3c-2.8-4.8-8.2-8-13.7-8.2c-4.9-0.2-9.6,1.7-14.2,3.5c-1.2,0.5-2.5,0.9-3.8,0.8
				c-1.3-0.1-2.4-0.8-3.5-1.4c-7.8-4-17.1-4.9-25.5-2.5c-4.6,1.3-9.2,3.6-14,2.8c-4.9-0.8-8.7-4.8-13.1-7.2
				c-6.9-3.8-15.1-3.5-23-3.2c-0.8,0-1.8,0.1-2.3,0.7c-0.8,0.9-0.4,2.3-0.4,3.5c0,2.7-2.8,5-5.5,4.5c0.1,1.2,0.3,2.5,0.4,3.7
				c3.8-0.7,8,1.1,11.4-0.7c0.6-0.3,1.2-0.8,1.9-1c1.4-0.4,2.8,0.5,3.5,1.7c0.7,1.2,0.9,2.6,1.1,4c1.1-0.1,2.4-0.1,3.3,0.6
				c0.9,0.7,1.1,2.4,0,2.9c-0.4,0.2-0.8,0.1-1.2,0.2c-2.9,0.3-5.7,3.8-8.1,2.2c0.4,1.7-1.4,2.8-3.1,2.5c-2-1.7-4.7-2.4-7.3-2
				c0.9,1.3,0.7,3.3-0.4,4.4c-0.5,0.5-1.1,0.8-1.4,1.4c-0.3,0.5-0.3,1.2-0.6,1.7c-0.8,1.4-2.8,0.7-4.3,0c-1.1-0.5-2.6-0.2-3.4,0.7
				c-0.4,0.4-0.6,0.9-1.1,1.1c-0.5,0.2-1.1-0.1-1.7-0.3c-2.6-0.8-5.6,1-6.1,3.7c-1.2,1-3,0-4.1-1.1c-1.1-1.1-2.3-2.5-3.9-2.2
				c-1.9,0.4-2.2,2.9-2.2,4.8c0.1,2,0.1,3.9,0.2,5.9c0.1,2.2,0.3,4.7,2.2,5.9c2,1.3,5.2,0.4,6.7,2.2c0.4,0.5,0.7,1.2,1.2,1.6
				c1,1.1,2.7,0.9,4.2,1.1c1.5,0.2,3.1,1.6,2.4,2.9c3-0.7,6.4,1.1,7.5,3.9c-1.6,0.1-3.1,0.1-4.6,0.2c0,0.2,0,0.3,0,0.5
				c-0.7-0.4-1.3-0.8-2-1.1c-2-1.1-4.1-1.1-6.3-0.7c-1-0.6-2.1-1.2-3.2-1.4c-1-0.2-2.1-0.1-3-0.5c-0.7-0.3-1.3-1-2-1.4
				c-1.9-1.3-4.8-0.9-6.4,0.8c-0.4,0.4-0.7,0.9-1.2,1.1c-0.5,0.2-1,0.2-1.5,0.1c-2.5-0.2-4.9-0.4-7.4-0.7c-0.1,0.4-0.2,0.9-0.2,1.3
				c-10.9-1-21.4,5.2-32.4,6.8c-2.1,0.3-4.3,0.4-6.2-0.3c-1.8-0.7-3.3-2-5.1-2.6c-4.4-1.6-9.1,1.2-13.7,2.1
				c-3.8,0.7-7.7,0.1-11.6-0.5c0.4-0.8,0.9-1.5,1.2-2.3c2.5-5,2.3-11.2-0.5-16c-2.8-4.8-8.2-8-13.7-8.2c-4.9-0.2-9.6,1.7-14.2,3.5
				c-1.2,0.5-2.5,0.9-3.8,0.8c-1.3-0.1-2.4-0.8-3.5-1.3c-7.8-4-17.1-4.9-25.5-2.5c-4.6,1.3-9.2,3.6-14,2.8c-3.6-0.6-6.5-2.9-9.6-5
				c-0.4-1.1-0.8-2.3-1.4-3.3c-2.8-4.8-8.2-8-13.7-8.3c-4.9-0.2-9.6,1.7-14.2,3.5c-1.2,0.5-2.5,0.9-3.8,0.8
				c-1.3-0.1-2.4-0.8-3.5-1.3c-7.8-4-17.1-4.9-25.5-2.5c-4.6,1.3-9.2,3.6-14,2.8c-4.9-0.8-8.7-4.8-13.1-7.2
				c-6.9-3.8-15.1-3.5-23-3.2c-0.8,0-1.8,0.1-2.3,0.7c-0.8,0.9-0.4,2.3-0.4,3.5c0,2.7-2.8,5-5.5,4.5c0.1,1.2,0.3,2.5,0.4,3.7
				c3.8-0.7,8,1.1,11.4-0.7c0.6-0.4,1.2-0.8,1.9-1c1.4-0.3,2.8,0.5,3.5,1.7c0.7,1.2,0.9,2.7,1.1,4c1.1-0.1,2.4-0.1,3.3,0.6
				c0.9,0.7,1.1,2.4,0,2.9c-0.4,0.2-0.8,0.1-1.2,0.2c-2.9,0.3-5.6,3.8-8.1,2.2c0.4,1.7-1.4,2.8-3.1,2.5c-2-1.7-4.7-2.4-7.3-2
				c0.9,1.3,0.7,3.3-0.4,4.4c-0.5,0.5-1.1,0.8-1.4,1.4c-0.3,0.5-0.3,1.2-0.6,1.7c-0.8,1.4-2.8,0.7-4.3,0c-1.1-0.5-2.5-0.2-3.4,0.7
				c-0.4,0.4-0.6,0.9-1.2,1.1c-0.5,0.2-1.1-0.1-1.7-0.3c-2.5-0.8-5.6,1-6.1,3.7c-1.2,1-3,0-4.1-1.1c-1.1-1.1-2.4-2.5-3.9-2.2
				c-1.9,0.4-2.2,2.9-2.2,4.8c0.1,2,0.1,3.9,0.2,5.9c0.1,2.2,0.3,4.7,2.2,5.8c2,1.3,5.2,0.4,6.7,2.2c0.4,0.5,0.7,1.2,1.1,1.6
				c1,1,2.7,0.9,4.2,1.1c1.5,0.2,3.1,1.6,2.4,2.9c3-0.7,6.4,1.1,7.5,3.9c-1.5,0.1-3.1,0.1-4.6,0.2c0,0.8-0.1,1.7-0.1,2.6
				c-4.2,0.6-7.2-4.5-11.4-5.2c-1-0.2-2.1-0.1-3-0.5c-0.7-0.3-1.3-1-2-1.4c-1.9-1.3-4.8-0.9-6.4,0.8c-0.4,0.4-0.7,0.9-1.2,1.1
				c-0.5,0.2-1,0.2-1.5,0.1c-2.5-0.2-4.9-0.4-7.4-0.6c-0.7,2.4-0.1,5,1,7.3c1.1,2.2,3,4.2,5.4,4.5c1.7,0.3,3.5-0.3,5.2-0.5
				c1.7-0.2,3.8,0.1,4.7,1.6l-0.4,0.6c4.6,3.6,11.3,0.2,17.1,1c4.4,0.5,8.2,3.5,12.6,4c3.6,0.4,7.1-0.8,10.6-1.8
				c2.4-0.6,4.8-1.2,7.2-1.6c0.9-0.1,1.8-0.3,2.6,0.2c1,0.6,1.4,1.9,1.6,3.1c0.6,3.2,1.2,6.3,1.8,9.5c1.8-1.6,4.8-3.2,6.2-1.2
				c0.4,0.6,0.5,1.3,0.8,1.9c1,2.1,3.9,2.6,6,1.8c2.2-0.8,3.9-2.4,5.7-3.8c0.8-0.6,1.7-1.2,2.7-1.7c0.4,0.2,0.8,0.3,1.3,0.4
				c1.5,0.2,2.9-0.1,4.4-0.4c1.6,0.7,3,1.7,4.8,1.7c0.2,0,0.4,0,0.6,0l-0.3,0.4c3,2.4,7,1.7,11,1.2c-0.1,1.1,0.4,2.5,1,3.5
				c3.2,5.5,7.9,10,13.5,12.9c2.7,1.4,5.7,2.5,7.8,4.7c1.3,1.4,2.2,3,3.3,4.5c4.1,5.5,10.7,8.3,17.1,10.9c2.5,1,5.1,2,7.7,2.8
				c2.3,0.6,4.6,1.1,6.8,2c5.5,2.2,9.8,7.2,15.7,8.2c4,0.7,8.5-0.7,12.1,1.1c1.1,0.5,2.1,1.3,3.2,1.8c3.4,1.2,7.3-1.1,10.7,0.1
				c1.8,0.6,3.1,2.2,4.9,2.9c1.6,0.6,3.5,0.4,5.2,0.2c6.7-1,13.3-2.7,19.7-5.1c1-0.4,1.9-0.8,2.7-1.5c1.5-1.4,1.9-3.6,1.7-5.6
				c-0.2-2.2-0.9-4.4-0.7-6.6c0.2-3.2,2.4-6.3,5.4-7.5c3.8-1.5,9.5-0.9,10.8-4.8c0.4-1.1,0.3-2.4,1.2-3.2c0.8-0.7,2-0.6,3.1-0.8
				c3.1-0.5,4.9-3.7,7.1-6.1c3.1,0,6.2-0.4,8.9,0.9c1.1,0.5,2.1,1.3,3.2,1.8c3.4,1.2,7.3-1.1,10.7,0.1c1.8,0.6,3.2,2.2,4.9,2.9
				c1.6,0.6,3.5,0.4,5.2,0.2c6.7-1,13.3-2.7,19.6-5.1c1-0.4,1.9-0.8,2.7-1.5c1.5-1.4,1.9-3.6,1.7-5.6c-0.2-2.2-0.9-4.4-0.8-6.6
				c0.2-3.3,2.4-6.3,5.5-7.5c3.8-1.5,9.5-0.9,10.8-4.8c0.4-1.1,0.3-2.5,1.2-3.2c0.8-0.7,2-0.6,3.1-0.8c4.8-0.8,6.5-7.8,11.3-8.6
				c1.7-0.3,3.6,0.4,5.3,0c3.3-0.8,4.8-5.1,8.1-5.8c1.2-0.2,2.4,0.1,3.6-0.1c0.8-0.1,1.5-0.5,2.2-0.9c0.9,0.6,1.2,1.8,1.5,2.9
				c0.6,3.2,1.2,6.3,1.8,9.5c1.8-1.6,4.8-3.2,6.2-1.2c0.4,0.6,0.5,1.3,0.8,1.9c1,2.1,3.9,2.6,6,1.8c2.2-0.7,3.9-2.4,5.7-3.8
				c0.8-0.6,1.7-1.2,2.7-1.7c0.4,0.2,0.8,0.3,1.3,0.4c1.5,0.2,2.9-0.1,4.4-0.4c1.6,0.7,3.1,1.7,4.8,1.8c0.2,0,0.4,0,0.6,0l-0.3,0.4
				c4.6,3.6,11.3,0.2,17.1,1c4.4,0.5,8.2,3.5,12.6,4c3.6,0.4,7.1-0.8,10.6-1.8c2.4-0.7,4.8-1.2,7.3-1.6c0.9-0.1,1.8-0.3,2.6,0.2
				c1.1,0.6,1.4,1.9,1.6,3.1c0.6,3.2,1.2,6.3,1.8,9.5c1.8-1.6,4.8-3.2,6.2-1.2c0.4,0.6,0.5,1.3,0.9,1.9c1,2.1,3.9,2.6,6,1.8
				c2.2-0.8,3.9-2.4,5.7-3.8c1.8-1.4,4-2.7,6.3-2.3c2.4,0.3,4.4,2.3,6.8,2.4c3.4,0.1,6.3-3.6,9.6-2.8c1.4,0.4,2.4,1.5,3.7,2.2
				c3.2,1.8,7.4,0.5,10.6-1.5c3.2-1.9,6.2-4.4,9.9-5c2.5-0.4,5.2,0.1,7.5-0.8c2.7-1,4.4-3.5,6-5.8c4.8-7.1,9.8-14.9,9.3-23.5
				c-0.2-3.7-1.5-7.5-0.3-11.1C2096,450.1,2096.9,448.7,2097.7,447.2z"/>
			<path class="st2" d="M601,425c-2.5,0.2-5,1-7.4,0.5c-1.4-0.3-2.6-1-3.9-1.4c-2.2-0.7-4.6-0.6-7-0.5c-6.7,0.4-13.3,0.7-20,1.1
				c-1.5,0.1-3,0.1-4.4-0.4c-0.9-0.4-1.7-1-2.5-1.5c-4.9-2.6-10.7,1.2-16.3,1.6c-4.4,0.2-8.6-1.8-12.9-2.5
				c-11.6-2-22.7,4.9-34.4,6.5c-2.1,0.3-4.3,0.4-6.3-0.3c-1.8-0.7-3.3-2-5.1-2.6c-4.4-1.6-9.1,1.2-13.7,2.1
				c-8.2,1.5-16.8-3-24.8-0.4c-2.3,0.7-4.4,2.1-6.7,2.3c-2.2,0.3-4.4-0.3-6.5-0.8c-5.9-1.3-12.1-1.5-18.1-0.6
				c-1,0.1-2.1,0.4-2.8,1.1c-0.4,0.5-0.6,1.1-0.6,1.7c-4.3-0.4-8.6,0-12.7,1.1c-4.6,1.3-9.2,3.6-14,2.8c-2.3-0.4-4.4-1.5-6.4-2.8
				c0.6-0.1,1.4-0.1,2-0.3c4.8-0.8,6.5-7.8,11.3-8.6c1.7-0.3,3.5,0.4,5.3,0c3.3-0.8,4.8-5.1,8.1-5.8c1.2-0.2,2.4,0.1,3.6-0.1
				c1.2-0.2,2.2-0.9,3.2-1.5c4.6-2.9,9.8-4.9,15.1-6l0.1-1c-0.8-2.4-3.8-3.2-6.2-3c-2.5,0.2-5,1-7.4,0.5c-1.4-0.3-2.6-1-3.9-1.4
				c-2.2-0.7-4.6-0.6-7-0.4c-6.7,0.3-13.3,0.7-20,1.1c-1.5,0.1-3,0.1-4.4-0.4c-0.9-0.4-1.7-1-2.5-1.5c-4.9-2.6-10.7,1.2-16.3,1.6
				c-4.4,0.2-8.6-1.8-13-2.5c-11.6-2-22.7,4.9-34.4,6.5c-2.1,0.3-4.3,0.4-6.3-0.3c-1.8-0.6-3.3-2-5.1-2.6c-4.4-1.6-9.1,1.2-13.7,2.1
				c-8.2,1.5-16.8-3-24.7-0.4c-2.3,0.7-4.4,2.1-6.7,2.4c-2.2,0.3-4.4-0.4-6.5-0.8c-5.9-1.3-12.1-1.5-18.1-0.6
				c-1,0.2-2.1,0.4-2.8,1.2c-1.1,1.3-0.4,3.3,0.5,4.8c3.2,5.5,7.9,10,13.5,12.9c2.7,1.4,5.7,2.5,7.8,4.7c1.3,1.3,2.2,3,3.3,4.5
				c0.2,0.3,0.5,0.5,0.7,0.8c-8.6,1.2-17,5.4-25.8,6.6c-2.1,0.3-4.3,0.4-6.2-0.3c-1.8-0.7-3.3-2-5.1-2.6c-4.4-1.6-9.1,1.2-13.7,2.1
				c-8.2,1.5-16.8-3-24.7-0.4c-2.3,0.7-4.4,2.1-6.7,2.3c-2.2,0.3-4.4-0.3-6.5-0.8c-5.9-1.3-12.1-1.5-18-0.6c-1,0.1-2.1,0.4-2.8,1.1
				c-1.1,1.3-0.4,3.3,0.5,4.8c3.2,5.4,7.9,10,13.5,12.9c2.7,1.4,5.7,2.5,7.8,4.7c1.3,1.4,2.2,3,3.3,4.5c4.1,5.5,10.8,8.3,17.1,10.9
				c2.5,1,5.1,2,7.7,2.8c2.3,0.6,4.6,1.1,6.8,2c5.5,2.2,9.8,7.2,15.7,8.2c4,0.7,8.5-0.7,12.1,1.1c1.1,0.5,2.1,1.4,3.2,1.8
				c3.4,1.2,7.3-1.1,10.7,0.1c1.8,0.6,3.1,2.2,4.9,2.8c1.6,0.6,3.5,0.5,5.2,0.2c6.7-1,13.3-2.7,19.6-5.1c1-0.4,1.9-0.8,2.7-1.5
				c1.5-1.4,1.9-3.6,1.7-5.6c-0.2-2.2-0.9-4.4-0.7-6.6c0.2-3.2,2.4-6.3,5.4-7.5c3.8-1.5,9.5-0.8,10.8-4.8c0.4-1.1,0.3-2.5,1.2-3.2
				c0.8-0.7,2-0.6,3.1-0.7c3.1-0.5,4.9-3.7,7.2-6.1c3.1,0,6.2-0.4,8.8,0.9c0.3,0.2,0.6,0.3,0.9,0.5c0.1,1.7,0.1,3.4,0.2,5
				c0.1,2.2,0.3,4.7,2.2,5.8c2,1.3,5.2,0.4,6.7,2.2c0.4,0.5,0.7,1.2,1.1,1.6c1,1.1,2.7,0.9,4.2,1.1c1.5,0.2,3.1,1.6,2.4,2.9
				c3-0.7,6.4,1.1,7.5,3.9c-1.5,0.1-3.1,0.1-4.6,0.2c0,0.9-0.1,1.7-0.1,2.5c-4.2,0.6-7.2-4.5-11.4-5.2c-1-0.2-2.1-0.1-3-0.5
				c-0.7-0.3-1.3-1-2-1.4c-1.9-1.3-4.8-0.9-6.4,0.8c-0.4,0.4-0.7,0.9-1.2,1.1c-0.5,0.2-1,0.2-1.5,0.1c-2.5-0.2-4.9-0.5-7.4-0.7
				c-0.7,2.4-0.1,5.1,1,7.3c1.1,2.2,3,4.2,5.4,4.5c1.7,0.3,3.5-0.3,5.2-0.5c1.7-0.2,3.8,0.1,4.7,1.6l-0.4,0.6
				c4.6,3.6,11.3,0.2,17.1,1c4.4,0.5,8.2,3.5,12.6,4c3.6,0.4,7.1-0.8,10.6-1.8c1.3-0.4,2.7-0.7,4-1c2.4,1.4,5,2.6,7.6,3.7
				c0.5,2.8,1.1,5.6,1.6,8.4c1.8-1.6,4.8-3.2,6.2-1.2c0.4,0.6,0.5,1.3,0.9,1.9c1,2.1,3.8,2.6,6,1.8c2-0.7,3.7-2.2,5.3-3.6
				c4,2.4,7.7,5.7,12.3,6.5c4,0.6,8.5-0.7,12.1,1.1c1.1,0.5,2.1,1.3,3.2,1.8c3.4,1.2,7.3-1.1,10.7,0.1c1.8,0.6,3.2,2.2,4.9,2.8
				c1.6,0.6,3.5,0.4,5.2,0.2c6-0.9,11.8-2.4,17.5-4.4c0.4,2.1,0.8,4.2,1.2,6.3c1.8-1.6,4.8-3.2,6.2-1.2c0.4,0.6,0.5,1.3,0.9,1.9
				c1,2.1,3.8,2.6,6,1.8c2.2-0.8,3.9-2.4,5.7-3.8c1.8-1.4,4-2.7,6.3-2.4c2.4,0.3,4.4,2.3,6.8,2.4c3.4,0.1,6.3-3.7,9.6-2.8
				c1.4,0.4,2.4,1.5,3.7,2.2c3.2,1.8,7.4,0.5,10.6-1.5c3.2-1.9,6.2-4.4,9.9-5c2.5-0.4,5.1,0.1,7.5-0.8c2.7-1,4.4-3.5,6-5.8
				c4.8-7.1,9.8-14.9,9.3-23.5c-0.1-1.9-0.5-3.8-0.7-5.6c1.2-1.4,1.6-3.4,1.5-5.3c0-0.7-0.1-1.3-0.3-2c0.5-0.9,1-1.7,1.4-2.6
				c1.3-2.6,1.9-5.5,1.7-8.4c0.6-0.4,1.2-0.8,1.9-1.1c3.8-1.5,9.5-0.8,10.8-4.8c0.4-1.1,0.3-2.5,1.2-3.2c0.8-0.7,2-0.6,3.1-0.8
				c4.8-0.8,6.5-7.8,11.3-8.6c1.7-0.3,3.5,0.4,5.2,0c3.3-0.8,4.8-5.1,8.1-5.7c1.2-0.2,2.4,0.1,3.6-0.1c1.2-0.2,2.2-0.9,3.2-1.5
				c4.6-2.9,9.8-4.9,15.1-6l0.1-1C606.5,425.7,603.5,424.8,601,425z M358.6,444.3c-0.4,0.2-0.8,0.1-1.2,0.2c0,0-0.1,0-0.1,0
				c0.5-0.9,1.1-1.7,1.9-2.4C359.5,442.9,359.4,444,358.6,444.3z"/>
		</g>
		<g style="clip-path:url(#SVGID_2_);">
			<linearGradient id="SVGID_3_" gradientUnits="userSpaceOnUse" x1="-248.835" y1="570.9504" x2="1119.7139" y2="570.9504">
				<stop  offset="9.780360e-02" style="stop-color:#F9BE11"/>
				<stop  offset="0.1114" style="stop-color:#F9BE11"/>
				<stop  offset="0.5219" style="stop-color:#FBC315"/>
				<stop  offset="0.8395" style="stop-color:#FFCB1C"/>
			</linearGradient>
			<path style="fill:url(#SVGID_3_);" d="M1119.7,795.3c-164.8,34.5-335.4,12.4-503.1-2.4C329,767.5,39.9,764.2-248.8,767.5
				c40.7-37.5,87.6-68.3,138.3-90.5c34.9-15.3,64.2-53.5,64.2-53.5c66.9-62.8,141.6-117.3,221.8-161.8l11.5,15.8
				c31-14.1,61.1-30,90.3-47.6c48.8-29.4,94.9-63.4,137.3-101.6c3.1,13.4,6.1,26.7,9.2,40.1c5.8-3.3,52-29.8,52-29.8
				c8.7,15.3,18.4,30,29,44.1c2.6,3.5,5.3,6.9,8,10.3c4.7,5.7,9.5,11.4,14.5,16.8c6.2-8.3,12.4-16.7,18.5-25.1
				c9.2,14.5,18.5,28.8,28,43c10.8,16.2,21.9,32.2,33.2,48.1c7.2,10.1,14.4,20,21.8,29.9c0.2-0.3,0.5-0.6,0.7-1
				c5.1-6.9,9.1-14.6,11.8-22.8c4,10.8,9.7,21.1,16.6,30.3c1.8,2.4,3.8,4.8,5.8,7.1c6.4-7.6,11.1-16.5,13.7-26.1
				c9.8,12.5,21.6,23.6,34.9,32.5c1.6,1.1,3.3,2.2,4.9,3.2c6.7-4.2,11.6-11.3,13-19.1C838.2,631,971.9,728.8,1119.7,795.3z"/>
			<path class="st4" d="M692.7,569c-16.2-8.2-33.2-14.9-50.7-20c0.5,6.1,0.4,12.3-0.3,18.4c-5.7-5.8-12.5-10.7-19.9-14.2
				c1.7,13.5,3.4,27.1,5.1,40.6c-13.5-29.2-31.7-56.3-53.8-79.7c-1.7,4.3-3.4,8.5-5.1,12.8c-2.5-11-8.5-21.1-16.9-28.5
				c-3.2,16.3-4.5,32.9-4.2,49.4c-1.8-28-8.7-55.6-20.2-81.2c-2.6,1.6-4.6,4.3-5.4,7.2c-1.7-4.2-5.1-7.6-9.3-9.4
				c2.9,13.5,4.6,27.3,5.1,41.1c-14.2-26.8-28.3-53.7-42.5-80.5c-1.7,4.8-3.4,9.7-5.1,14.5c-3.9-11.8-9.7-22.9-17.1-32.9
				c-2.1,7.6-4.9,15-8.5,22c-2.6-4.2-5.2-8.4-7.8-12.6c-2.4,2.7-4,6.1-4.5,9.8c0.7-6.8-1.1-13.8-5-19.3c-9.9,25.7-19.9,51.3-29.8,77
				c-0.5-29.8,1.4-59.7,5.7-89.2c-6.9,7-14.7,13.3-23,18.6c0.8-4.2,0.5-8.7-0.7-12.8c-7.2,11.8-18.5,21-31.5,25.8
				c5.6-10.3,8.4-22.1,8.2-33.8c-30,35.7-66.1,65.6-102,95.4c-14,11.6-28.6,23.6-46.1,28.9c34.8-19.6,62.3-51.8,76.3-89.2
				c-2.2,0.8-4.3,1.6-6.5,2.4c48.8-29.4,94.9-63.4,137.3-101.6c3.1,13.4,6.1,26.7,9.2,40.1c5.8-3.3,52-29.8,52-29.8
				c8.7,15.3,18.4,30,29,44.1c1.7,2.8,3.6,5.5,5.7,8.1c0.6,0.8,1.4,1.7,2.4,2.2c4.7,5.7,9.5,11.4,14.5,16.8
				c6.2-8.3,12.4-16.7,18.5-25.1c9.2,14.5,18.5,28.8,28,43c7.5,24.2,15.4,48.1,29.8,65.5c0.8-2.6,2.5-13.9,3.4-17.4
				c0-0.2,0.1-0.4,0.2-0.5c7.2,10,14.7,19.8,22.3,29.5c5.3,6.7,10.6,13.3,16.1,19.8c3.7-3.7,8-7.9,12.3-12.3
				c1.8,2.4,3.8,4.8,5.8,7.1c6.4-7.6,11.1-16.5,13.7-26.1c9.8,12.5,21.6,23.6,34.9,32.5c3.2,4.7,6.2,9.5,9.2,14.5
				c-11.8-5.6-24.5-9.3-37.4-10.8C686.9,542.8,689.8,555.9,692.7,569z"/>
		</g>
		<g style="clip-path:url(#SVGID_2_);">
			<linearGradient id="SVGID_5_" gradientUnits="userSpaceOnUse" x1="1383.2031" y1="599.8622" x2="1976.0142" y2="599.8622">
				<stop  offset="9.780360e-02" style="stop-color:#F9BE11"/>
				<stop  offset="0.1114" style="stop-color:#F9BE11"/>
				<stop  offset="0.5219" style="stop-color:#FBC315"/>
				<stop  offset="0.8395" style="stop-color:#FFCB1C"/>
			</linearGradient>
			<path style="fill:url(#SVGID_5_);" d="M1976,697.1c-71.4,14.9-145.3,5.4-217.9-1.1c-124.6-11-249.8-12.4-374.9-11
				c17.6-16.3,38-29.6,59.9-39.2c15.1-6.6,27.8-23.2,27.8-23.2c29-27.2,61.3-50.8,96.1-70.1l5,6.8c13.4-6.1,26.5-13,39.1-20.6
				c21.2-12.7,41.1-27.5,59.5-44c1.3,5.8,2.7,11.6,4,17.4c2.5-1.4,22.5-12.9,22.5-12.9c3.8,6.6,8,13,12.6,19.1
				c1.1,1.5,2.3,3,3.5,4.5c2,2.5,4.1,4.9,6.3,7.3c2.7-3.6,5.3-7.2,8-10.9c4,6.3,8,12.5,12.1,18.6c4.7,7,9.5,14,14.4,20.8
				c3.1,4.4,6.3,8.7,9.4,13c0.1-0.1,0.2-0.3,0.3-0.4c2.2-3,3.9-6.3,5.1-9.9c1.8,4.7,4.2,9.1,7.2,13.1c0.8,1.1,1.6,2.1,2.5,3.1
				c2.8-3.3,4.8-7.2,6-11.3c4.3,5.4,9.4,10.2,15.1,14.1c0.7,0.5,1.4,0.9,2.1,1.4c2.9-1.8,5-4.9,5.7-8.3
				C1854.1,625.9,1912,668.2,1976,697.1z"/>
			<path class="st4" d="M1791.1,599c-7-3.6-14.4-6.5-22-8.7c0.2,2.7,0.2,5.3-0.1,8c-2.5-2.5-5.4-4.6-8.6-6.1
				c0.7,5.9,1.5,11.7,2.2,17.6c-5.8-12.7-13.7-24.4-23.3-34.5c-0.7,1.8-1.5,3.7-2.2,5.5c-1.1-4.7-3.7-9.1-7.3-12.3
				c-1.4,7.1-2,14.2-1.8,21.4c-0.8-12.1-3.8-24.1-8.8-35.2c-1.1,0.7-2,1.8-2.3,3.1c-0.8-1.8-2.2-3.3-4-4.1c1.2,5.9,2,11.8,2.2,17.8
				c-6.1-11.6-12.3-23.2-18.4-34.9c-0.7,2.1-1.5,4.2-2.2,6.3c-1.7-5.1-4.2-9.9-7.4-14.2c-0.9,3.3-2.1,6.5-3.7,9.5
				c-1.1-1.8-2.3-3.6-3.4-5.5c-1.1,1.2-1.8,2.7-2,4.2c0.3-2.9-0.5-6-2.2-8.4c-4.3,11.1-8.6,22.2-12.9,33.4
				c-0.2-12.9,0.6-25.8,2.5-38.6c-3,3-6.4,5.8-10,8.1c0.3-1.8,0.2-3.8-0.3-5.5c-3.1,5.1-8,9.1-13.6,11.2c2.4-4.5,3.6-9.6,3.5-14.6
				c-13,15.5-28.6,28.4-44.2,41.3c-6.1,5-12.4,10.2-20,12.5c15.1-8.5,27-22.4,33.1-38.6c-0.9,0.4-1.9,0.7-2.8,1.1
				c21.2-12.7,41.1-27.5,59.5-44c1.3,5.8,2.7,11.6,4,17.4c2.5-1.4,22.5-12.9,22.5-12.9c3.8,6.6,8,13,12.6,19.1
				c0.7,1.2,1.5,2.4,2.5,3.5c0.3,0.4,0.6,0.7,1,0.9c2,2.5,4.1,4.9,6.3,7.3c2.7-3.6,5.3-7.2,8-10.9c4,6.3,8,12.5,12.1,18.6
				c3.2,10.5,6.7,20.8,12.9,28.4c0.4-1.1,1.1-6,1.5-7.5c0-0.1,0-0.2,0.1-0.2c3.1,4.3,6.4,8.6,9.7,12.8c2.3,2.9,4.6,5.8,7,8.6
				c1.6-1.6,3.5-3.4,5.3-5.3c0.8,1.1,1.6,2.1,2.5,3.1c2.8-3.3,4.8-7.2,6-11.3c4.3,5.4,9.4,10.2,15.1,14.1c1.4,2,2.7,4.1,4,6.3
				c-5.1-2.4-10.6-4-16.2-4.7C1788.5,587.6,1789.8,593.3,1791.1,599z"/>
		</g>
		<g style="clip-path:url(#SVGID_2_);">
			<linearGradient id="SVGID_6_" gradientUnits="userSpaceOnUse" x1="943.7147" y1="588.879" x2="1746.7291" y2="588.879">
				<stop  offset="9.780360e-02" style="stop-color:#F9BE11"/>
				<stop  offset="0.1114" style="stop-color:#F9BE11"/>
				<stop  offset="0.5219" style="stop-color:#FBC315"/>
				<stop  offset="0.8395" style="stop-color:#FFCB1C"/>
			</linearGradient>
			<path class="st3" d="M1746.7,720.5c-96.7,20.2-196.8,7.2-295.2-1.4c-168.8-14.9-338.4-16.8-507.8-14.9c23.9-22,51.4-40,81.2-53.1
				c20.5-9,37.6-31.4,37.6-31.4c39.2-36.9,83.1-68.8,130.2-95l6.8,9.2c18.2-8.3,35.9-17.6,53-27.9c28.7-17.3,55.7-37.2,80.5-59.6
				c1.8,7.8,3.6,15.7,5.4,23.5c3.4-2,30.5-17.5,30.5-17.5c5.1,9,10.8,17.6,17,25.9c1.5,2,3.1,4.1,4.7,6c2.7,3.4,5.6,6.7,8.5,9.9
				c3.6-4.9,7.2-9.8,10.9-14.7c5.4,8.5,10.9,16.9,16.4,25.2c6.4,9.5,12.9,18.9,19.5,28.2c4.2,5.9,8.5,11.8,12.8,17.6
				c0.1-0.2,0.3-0.4,0.4-0.6c3-4,5.3-8.6,6.9-13.4c2.4,6.4,5.7,12.4,9.7,17.8c1.1,1.4,2.2,2.8,3.4,4.2c3.7-4.4,6.5-9.7,8.1-15.3
				c5.8,7.4,12.7,13.8,20.5,19.1c0.9,0.6,1.9,1.3,2.9,1.9c4-2.5,6.8-6.6,7.7-11.2C1581.5,624.1,1660,681.5,1746.7,720.5z"/>
			<path class="st4" d="M1496.2,587.7c-9.5-4.8-19.5-8.8-29.7-11.8c0.3,3.6,0.3,7.2-0.2,10.8c-3.4-3.4-7.3-6.3-11.7-8.3
				c1,7.9,2,15.9,3,23.8c-7.9-17.2-18.6-33-31.6-46.8c-1,2.5-2,5-3,7.5c-1.4-6.4-5-12.4-9.9-16.7c-1.8,9.6-2.7,19.3-2.4,29
				c-1.1-16.4-5.1-32.6-11.9-47.6c-1.5,0.9-2.7,2.5-3.1,4.2c-1-2.4-3-4.5-5.4-5.5c1.7,7.9,2.7,16,3,24.1
				c-8.3-15.7-16.6-31.5-24.9-47.2c-1,2.8-2,5.7-3,8.5c-2.3-6.9-5.7-13.5-10-19.3c-1.2,4.5-2.9,8.8-5,12.9c-1.5-2.5-3.1-4.9-4.6-7.4
				c-1.4,1.6-2.4,3.6-2.7,5.7c0.4-4-0.6-8.1-2.9-11.3c-5.8,15.1-11.7,30.1-17.5,45.2c-0.3-17.5,0.8-35,3.3-52.3
				c-4.1,4.1-8.6,7.8-13.5,10.9c0.5-2.5,0.3-5.1-0.4-7.5c-4.2,6.9-10.9,12.3-18.5,15.1c3.3-6.1,4.9-13,4.8-19.8
				c-17.6,20.9-38.8,38.5-59.9,56c-8.2,6.8-16.8,13.8-27,17c20.4-11.5,36.5-30.4,44.8-52.3c-1.3,0.5-2.5,0.9-3.8,1.4
				c28.7-17.3,55.7-37.2,80.5-59.6c1.8,7.8,3.6,15.7,5.4,23.5c3.4-2,30.5-17.5,30.5-17.5c5.1,9,10.8,17.6,17,25.9
				c1,1.6,2.1,3.2,3.3,4.8c0.4,0.5,0.8,1,1.4,1.3c2.7,3.4,5.6,6.7,8.5,9.9c3.6-4.9,7.2-9.8,10.9-14.7c5.4,8.5,10.9,16.9,16.4,25.2
				c4.4,14.2,9,28.2,17.5,38.4c0.5-1.5,1.5-8.1,2-10.2c0-0.1,0.1-0.2,0.1-0.3c4.2,5.9,8.6,11.6,13.1,17.3c3.1,3.9,6.2,7.8,9.4,11.6
				c2.2-2.2,4.7-4.6,7.2-7.2c1.1,1.4,2.2,2.8,3.4,4.2c3.7-4.4,6.5-9.7,8.1-15.3c5.8,7.4,12.7,13.8,20.5,19.1
				c1.9,2.8,3.7,5.6,5.4,8.5c-6.9-3.3-14.4-5.5-21.9-6.3C1492.7,572.3,1494.5,580,1496.2,587.7z"/>
		</g>
		<g style="clip-path:url(#SVGID_2_);">
			<path class="st2" d="M63.5,543.9c0.7-1.5,1.7-2.8,2.2-4.4c1.2-3.5-0.1-7.4-0.3-11.1c-0.5-8.6,4.5-16.4,9.3-23.5
				c1.6-2.3,3.4-4.8,6-5.8c2.4-0.9,5-0.4,7.5-0.8c3.7-0.6,6.7-3.1,9.9-5c3.2-1.9,7.3-3.2,10.6-1.4c1.2,0.7,2.3,1.8,3.7,2.2
				c3.3,0.9,6.2-2.9,9.6-2.8c2.4,0.1,4.4,2.1,6.8,2.4c2.3,0.3,4.5-0.9,6.3-2.3c1.8-1.4,3.5-3.1,5.7-3.8c2.2-0.8,5-0.2,6,1.8
				c0.3,0.6,0.4,1.4,0.8,1.9c1.4,1.9,4.4,0.4,6.2-1.2c0.6,3.2,1.2,6.3,1.8,9.5c0.2,1.2,0.6,2.5,1.6,3.1c0.8,0.4,1.7,0.3,2.6,0.2
				c2.4-0.4,4.8-0.9,7.2-1.6c3.5-1,7-2.2,10.6-1.8c4.4,0.5,8.2,3.4,12.6,4c5.8,0.7,12.5-2.7,17.1,1l-0.3,0.4c0.2,0,0.4,0,0.6,0
				c1.7,0,3.2,1.1,4.8,1.8c1.5-0.3,2.9-0.6,4.4-0.4c0.4,0.1,0.9,0.2,1.3,0.4c1-0.5,1.8-1.1,2.7-1.7c1.8-1.4,3.5-3.1,5.7-3.8
				c2.2-0.8,5-0.3,6,1.8c0.3,0.6,0.4,1.4,0.8,1.9c1.4,1.9,4.4,0.4,6.2-1.2c0.6,3.2,1.2,6.3,1.8,9.5c0.2,1.2,0.6,2.5,1.6,3.1
				c0.8,0.4,1.7,0.3,2.6,0.2c2.4-0.4,4.8-1,7.2-1.6c3.5-1,7-2.2,10.6-1.8c4.4,0.5,8.2,3.4,12.6,4c5.8,0.7,12.5-2.7,17.1,1l-0.4,0.6
				c0.9,1.5,3,1.8,4.7,1.6c1.7-0.2,3.5-0.8,5.2-0.5c2.4,0.4,4.3,2.3,5.4,4.5c1.2,2.2,1.7,4.9,1,7.3c-2.5-0.2-4.9-0.4-7.4-0.7
				c-0.5,0-1-0.1-1.5,0.1c-0.5,0.2-0.8,0.7-1.2,1.1c-1.6,1.7-4.4,2.1-6.4,0.8c-0.7-0.5-1.3-1.1-2-1.4c-0.9-0.4-2-0.3-3-0.5
				c-4.2-0.7-7.2-5.8-11.4-5.2c0,0.9-0.1,1.7-0.1,2.5c-1.5,0.1-3.1,0.2-4.6,0.2c1.1,2.9,4.5,4.6,7.5,3.9c-0.7,1.3,0.9,2.7,2.4,2.9
				c1.5,0.2,3.2,0.1,4.2,1.1c0.5,0.5,0.7,1.1,1.1,1.6c1.6,1.8,4.7,0.9,6.8,2.2c1.8,1.2,2.1,3.7,2.1,5.8c0.1,2,0.1,3.9,0.2,5.9
				c0.1,1.9-0.3,4.4-2.1,4.8c-1.5,0.3-2.8-1.1-3.9-2.2c-1.1-1.1-2.9-2.1-4.1-1.1c-0.5,2.6-3.5,4.5-6.1,3.7c-0.5-0.2-1.1-0.5-1.7-0.3
				c-0.5,0.2-0.8,0.7-1.1,1.1c-0.8,0.9-2.3,1.2-3.4,0.7c-1.5-0.7-3.5-1.4-4.3,0c-0.3,0.5-0.3,1.2-0.6,1.7c-0.3,0.6-0.9,0.9-1.4,1.4
				c-1.1,1.1-1.3,3.1-0.4,4.4c-2.6,0.4-5.3-0.3-7.3-2c-1.7-0.3-3.5,0.8-3.1,2.5c-2.4-1.6-5.2,1.9-8.1,2.2c-0.4,0-0.9,0-1.2,0.2
				c-1.1,0.5-0.9,2.2,0.1,2.9c0.9,0.7,2.2,0.6,3.3,0.6c0.2,1.4,0.4,2.8,1.1,4c0.7,1.2,2.2,2.1,3.5,1.7c0.7-0.2,1.3-0.6,1.9-1
				c3.4-1.9,7.6,0,11.4-0.7c0.1,1.2,0.3,2.5,0.4,3.7c-2.6-0.5-5.5,1.8-5.5,4.5c0,1.2,0.4,2.6-0.4,3.5c-0.6,0.6-1.5,0.7-2.3,0.7
				c-7.8,0.3-16.1,0.5-23-3.2c-4.4-2.4-8.1-6.4-13.1-7.2c-4.7-0.8-9.3,1.5-14,2.8c-8.4,2.4-17.7,1.4-25.5-2.5
				c-1.1-0.6-2.3-1.2-3.5-1.3c-1.3-0.1-2.6,0.3-3.8,0.8c-4.6,1.8-9.3,3.7-14.2,3.5c-5.6-0.2-10.9-3.4-13.7-8.2
				c-0.6-1-1.1-2.2-1.4-3.3c-3-2.1-6-4.4-9.6-5c-4.7-0.8-9.3,1.5-14,2.8c-8.4,2.4-17.7,1.5-25.5-2.5c-1.1-0.6-2.3-1.2-3.5-1.4
				c-1.3-0.1-2.6,0.3-3.8,0.8c-4.6,1.7-9.3,3.7-14.2,3.5c-5.6-0.2-10.9-3.4-13.7-8.3C61.2,555.1,61,548.9,63.5,543.9z"/>
			<path class="st2" d="M267.7,570.4l0.1-1c5.3-1.1,10.5-3.2,15.1-6c1-0.6,2-1.3,3.2-1.5c1.2-0.2,2.4,0.1,3.6-0.1
				c3.3-0.6,4.8-4.9,8.1-5.8c1.7-0.4,3.5,0.2,5.2,0c4.8-0.8,6.5-7.8,11.3-8.6c1.1-0.2,2.3,0,3.1-0.8c0.9-0.8,0.8-2.1,1.2-3.2
				c1.3-3.9,6.9-3.3,10.8-4.8c3-1.2,5.3-4.2,5.5-7.5c0.1-2.2-0.6-4.4-0.8-6.6c-0.1-2,0.2-4.2,1.8-5.6c0.8-0.7,1.7-1.1,2.7-1.5
				c6.3-2.4,12.9-4.2,19.6-5.1c1.7-0.2,3.6-0.4,5.2,0.2c1.8,0.7,3.1,2.2,4.9,2.9c3.4,1.2,7.3-1.2,10.7,0.1c1.1,0.4,2.1,1.2,3.2,1.8
				c2.7,1.3,5.8,1,8.8,0.9c2.2-2.4,4-5.5,7.2-6.1c1.1-0.2,2.3,0,3.1-0.8c0.9-0.8,0.8-2.1,1.1-3.2c1.3-3.9,7-3.3,10.8-4.8
				c3-1.2,5.3-4.2,5.5-7.5c0.1-2.2-0.6-4.4-0.7-6.6c-0.2-2,0.2-4.2,1.7-5.6c0.8-0.7,1.7-1.1,2.7-1.5c6.3-2.4,12.9-4.2,19.7-5.1
				c1.7-0.2,3.6-0.4,5.2,0.2c1.8,0.7,3.1,2.2,4.9,2.9c3.4,1.2,7.3-1.2,10.7,0.1c1.1,0.4,2.1,1.2,3.2,1.8c3.7,1.8,8.1,0.5,12.1,1.1
				c5.9,1,10.2,5.9,15.7,8.2c2.2,0.9,4.6,1.3,6.8,2c2.6,0.7,5.2,1.8,7.7,2.8c6.4,2.6,13,5.4,17.1,10.9c1.1,1.5,2,3.2,3.3,4.5
				c2.1,2.2,5.1,3.3,7.8,4.7c5.6,2.9,10.3,7.5,13.5,12.9c0.6,1.1,1.2,2.4,1,3.5c4-0.5,8-1.2,11,1.2l-0.3,0.4c0.2,0,0.4,0,0.6,0
				c1.7,0,3.2,1,4.8,1.7c1.5-0.3,2.9-0.6,4.4-0.4c0.4,0.1,0.9,0.2,1.3,0.4c0.9-0.4,1.8-1,2.7-1.7c1.8-1.4,3.5-3.1,5.7-3.8
				c2.2-0.8,5-0.2,6,1.8c0.3,0.6,0.4,1.4,0.9,1.9c1.4,1.9,4.4,0.4,6.2-1.2c0.6,3.2,1.2,6.3,1.8,9.5c0.2,1.2,0.5,2.5,1.6,3.1
				c0.8,0.4,1.7,0.3,2.6,0.2c2.4-0.4,4.9-1,7.2-1.6c3.5-1,7-2.2,10.6-1.8c4.4,0.5,8.2,3.4,12.6,4c5.8,0.7,12.5-2.7,17.1,1l-0.4,0.6
				c0.9,1.5,3,1.9,4.7,1.6c1.7-0.2,3.5-0.8,5.2-0.5c2.4,0.4,4.3,2.4,5.4,4.5c1.2,2.2,1.7,4.9,1,7.3c-2.5-0.2-4.9-0.4-7.4-0.6
				c-0.5,0-1-0.1-1.5,0.1c-0.5,0.2-0.8,0.7-1.2,1.1c-1.6,1.7-4.4,2.1-6.4,0.8c-0.7-0.5-1.3-1.1-2-1.4c-0.9-0.4-2-0.3-3-0.5
				c-4.2-0.8-7.2-5.8-11.4-5.2c0,0.9-0.1,1.7-0.1,2.6c-1.5,0.1-3.1,0.1-4.6,0.2c1.1,2.9,4.5,4.6,7.5,3.9c-0.7,1.3,0.9,2.7,2.4,2.9
				c1.5,0.2,3.1,0,4.2,1.1c0.5,0.5,0.7,1.1,1.1,1.6c1.6,1.8,4.7,0.9,6.7,2.2c1.8,1.2,2.1,3.7,2.2,5.8c0.1,2,0.1,3.9,0.2,5.9
				c0.1,1.9-0.3,4.4-2.2,4.8c-1.5,0.3-2.8-1.1-3.9-2.2c-1.1-1.1-2.9-2.1-4.1-1.1c-0.5,2.6-3.5,4.5-6.1,3.7c-0.5-0.2-1.1-0.5-1.7-0.3
				c-0.5,0.2-0.8,0.7-1.1,1.1c-0.8,0.9-2.2,1.2-3.4,0.7c-1.5-0.7-3.5-1.4-4.3,0c-0.3,0.5-0.3,1.2-0.6,1.7c-0.3,0.6-1,0.9-1.4,1.4
				c-1.1,1.1-1.3,3.1-0.4,4.4c-2.6,0.4-5.3-0.3-7.3-2c-1.7-0.3-3.5,0.8-3.1,2.5c-2.4-1.6-5.2,1.9-8.1,2.2c-0.4,0-0.9,0-1.2,0.2
				c-1.1,0.5-0.9,2.2,0,2.9c0.9,0.7,2.2,0.6,3.3,0.6c0.2,1.4,0.4,2.8,1.1,4c0.7,1.2,2.2,2.1,3.5,1.7c0.7-0.2,1.3-0.7,1.9-1
				c3.4-1.8,7.6,0,11.4-0.7c0.1,1.2,0.3,2.5,0.4,3.7c-2.7-0.5-5.5,1.8-5.5,4.5c0,1.2,0.4,2.6-0.4,3.5c-0.6,0.6-1.5,0.7-2.3,0.7
				c-7.8,0.3-16.1,0.5-23-3.2c-4.4-2.4-8.1-6.4-13.1-7.2c-4.7-0.8-9.4,1.5-14,2.8c-8.4,2.4-17.7,1.4-25.5-2.5
				c-1.1-0.6-2.3-1.2-3.5-1.3c-1.3-0.1-2.6,0.3-3.8,0.8c-4.6,1.7-9.3,3.7-14.2,3.5c-5.6-0.2-10.9-3.5-13.7-8.3
				c-0.6-1-1.1-2.2-1.4-3.3c-3-2.1-6-4.4-9.6-5c-4.7-0.8-9.3,1.5-14,2.8c-8.4,2.4-17.7,1.4-25.5-2.5c-1.1-0.6-2.3-1.2-3.5-1.3
				c-1.3-0.1-2.6,0.3-3.8,0.8c-4.6,1.7-9.3,3.7-14.2,3.5c-5.6-0.2-10.9-3.4-13.7-8.2c-2.8-4.8-3-11-0.5-16c0.4-0.8,0.8-1.5,1.3-2.3
				c-3.9-0.6-7.8-1.2-11.6-0.5c-4.6,0.9-9.3,3.6-13.7,2.1c-1.8-0.6-3.3-1.9-5.1-2.6c-2-0.7-4.2-0.6-6.3-0.3
				c-11.7,1.6-22.8,8.5-34.4,6.5c-4.3-0.8-8.5-2.8-12.9-2.5c-5.6,0.3-11.3,4.1-16.3,1.5c-0.9-0.5-1.6-1.1-2.5-1.5
				c-1.4-0.6-2.9-0.5-4.4-0.4c-6.7,0.3-13.3,0.7-20,1.1c-2.3,0.1-4.7,0.2-7-0.5c-1.3-0.4-2.6-1.1-3.9-1.4c-2.4-0.5-4.9,0.3-7.4,0.5
				C271.5,573.6,268.5,572.7,267.7,570.4z"/>
			<path class="st2" d="M891.7,585.4l0.1-1c5.3-1.1,10.5-3.2,15.1-6c1-0.6,2-1.3,3.2-1.5c1.2-0.2,2.4,0.1,3.6-0.1
				c3.3-0.6,4.8-4.9,8.1-5.8c1.7-0.4,3.5,0.2,5.3,0c4.8-0.8,6.5-7.8,11.3-8.6c1.1-0.2,2.3,0,3.1-0.8c0.9-0.8,0.8-2.1,1.2-3.2
				c1.3-3.9,6.9-3.3,10.8-4.8c3-1.2,5.3-4.2,5.5-7.5c0.1-2.2-0.6-4.4-0.8-6.6c-0.1-2,0.3-4.2,1.7-5.6c0.8-0.7,1.7-1.1,2.7-1.5
				c6.3-2.4,12.9-4.2,19.7-5.1c1.7-0.2,3.6-0.4,5.2,0.2c1.8,0.7,3.1,2.2,4.9,2.9c3.4,1.2,7.3-1.2,10.7,0.1c1.1,0.4,2.1,1.2,3.2,1.8
				c2.7,1.3,5.8,1,8.9,0.9c2.2-2.4,4-5.5,7.1-6c1.1-0.2,2.3,0,3.1-0.8c0.9-0.8,0.8-2.1,1.2-3.2c1.3-3.9,7-3.3,10.8-4.8
				c3-1.2,5.3-4.2,5.4-7.5c0.1-2.2-0.6-4.3-0.7-6.5c-0.2-2,0.2-4.2,1.7-5.6c0.8-0.7,1.7-1.1,2.7-1.5c6.3-2.4,12.9-4.2,19.7-5.1
				c1.7-0.3,3.6-0.5,5.2,0.2c1.8,0.7,3.1,2.2,4.9,2.9c3.4,1.2,7.3-1.2,10.7,0.1c1.1,0.4,2.1,1.2,3.2,1.8c3.7,1.8,8.1,0.5,12.1,1.1
				c5.9,1,10.2,5.9,15.7,8.2c2.2,0.9,4.5,1.3,6.8,2c2.6,0.7,5.2,1.8,7.7,2.8c6.3,2.6,13,5.4,17.1,10.9c1.1,1.5,2,3.2,3.3,4.5
				c2.1,2.2,5.1,3.3,7.8,4.7c5.6,2.9,10.3,7.5,13.5,12.9c0.9,1.5,1.6,3.5,0.5,4.8c-0.7,0.8-1.7,1-2.8,1.2c-6,0.9-12.1,0.6-18.1-0.7
				c-2.2-0.5-4.3-1.1-6.5-0.8c-2.4,0.3-4.5,1.6-6.7,2.3c-7.9,2.6-16.6-1.9-24.8-0.4c-4.6,0.9-9.2,3.6-13.7,2.1
				c-1.8-0.6-3.3-1.9-5.1-2.6c-2-0.7-4.2-0.6-6.3-0.3c-8.7,1.2-17.2,5.4-25.8,6.6c0.2,0.3,0.5,0.5,0.7,0.8c1.1,1.5,2,3.2,3.3,4.5
				c2.1,2.2,5.1,3.3,7.8,4.7c5.6,2.9,10.3,7.5,13.5,12.9c0.9,1.5,1.6,3.5,0.5,4.8c-0.7,0.8-1.8,1-2.8,1.1c-6,0.9-12.1,0.7-18-0.6
				c-2.2-0.5-4.3-1.1-6.5-0.8c-2.4,0.3-4.5,1.6-6.7,2.3c-7.9,2.6-16.6-1.9-24.7-0.4c-4.6,0.9-9.3,3.6-13.7,2.1
				c-1.8-0.6-3.3-1.9-5.1-2.6c-2-0.7-4.2-0.6-6.2-0.3c-11.6,1.6-22.8,8.5-34.4,6.5c-4.3-0.8-8.5-2.8-12.9-2.5
				c-5.6,0.3-11.3,4.1-16.3,1.6c-0.9-0.5-1.6-1.1-2.5-1.5c-1.4-0.6-2.9-0.5-4.4-0.4c-6.7,0.4-13.3,0.7-20,1.1
				c-2.3,0.1-4.7,0.2-7-0.5c-1.3-0.4-2.6-1.1-3.9-1.4c-2.4-0.5-4.9,0.3-7.4,0.5C895.5,588.6,892.5,587.7,891.7,585.4z"/>
			<path class="st2" d="M580.7,661.4l0.1-1c5.3-1.1,10.5-3.2,15.1-6c1-0.6,2-1.3,3.2-1.5c1.2-0.2,2.4,0.1,3.6-0.1
				c3.3-0.6,4.8-4.9,8.1-5.8c1.7-0.4,3.5,0.2,5.3,0c4.8-0.7,6.5-7.8,11.3-8.6c1.1-0.2,2.3,0,3.1-0.8c0.9-0.8,0.8-2.1,1.2-3.2
				c1.3-3.9,6.9-3.3,10.8-4.8c0.7-0.3,1.3-0.6,1.9-1.1c-0.1-2.9,0.4-5.8,1.7-8.4c0.5-0.9,1-1.7,1.4-2.6c-0.1-0.7-0.2-1.3-0.3-2
				c-0.1-1.9,0.2-3.9,1.5-5.3c-0.2-1.9-0.6-3.8-0.7-5.6c-0.5-8.6,4.5-16.4,9.3-23.5c1.6-2.3,3.4-4.8,6-5.8c2.4-0.9,5-0.4,7.5-0.8
				c3.7-0.6,6.7-3.1,9.9-5c3.2-1.9,7.3-3.2,10.6-1.5c1.2,0.7,2.3,1.8,3.7,2.2c3.3,0.9,6.2-2.9,9.6-2.8c2.4,0.1,4.4,2.1,6.8,2.4
				c2.3,0.3,4.5-0.9,6.3-2.3c1.8-1.4,3.5-3.1,5.7-3.8c2.2-0.8,5-0.2,6,1.8c0.3,0.6,0.4,1.4,0.8,1.9c1.4,1.9,4.5,0.4,6.2-1.2
				c0.4,2.1,0.8,4.2,1.2,6.3c5.7-2,11.6-3.5,17.5-4.4c1.7-0.3,3.6-0.4,5.2,0.2c1.8,0.7,3.1,2.2,4.9,2.9c3.4,1.2,7.3-1.2,10.7,0.1
				c1.1,0.4,2.1,1.2,3.2,1.8c3.7,1.8,8.1,0.5,12.1,1.1c4.6,0.7,8.3,4,12.4,6.4c1.7-1.3,3.3-2.8,5.3-3.6c2.2-0.7,5-0.2,6,1.8
				c0.3,0.6,0.4,1.4,0.8,1.9c1.4,1.9,4.4,0.4,6.2-1.2c0.5,2.8,1.1,5.6,1.6,8.4c2.6,1.1,5.2,2.2,7.6,3.7c1.4-0.3,2.7-0.6,4.1-1
				c3.5-1,7-2.2,10.6-1.8c4.4,0.5,8.2,3.4,12.6,4c5.8,0.7,12.5-2.7,17.1,0.9l-0.4,0.6c0.9,1.5,2.9,1.8,4.7,1.6
				c1.7-0.2,3.5-0.8,5.2-0.5c2.4,0.4,4.3,2.4,5.4,4.5c1.1,2.2,1.7,4.9,1,7.3c-2.5-0.2-4.9-0.4-7.4-0.7c-0.5,0-1-0.1-1.5,0.1
				c-0.5,0.2-0.8,0.7-1.2,1.1c-1.6,1.7-4.4,2.1-6.4,0.8c-0.7-0.5-1.3-1.1-2-1.4c-0.9-0.4-2-0.3-3-0.5c-4.2-0.7-7.2-5.8-11.4-5.2
				c0,0.8-0.1,1.7-0.1,2.5c-1.5,0.1-3.1,0.2-4.6,0.2c1.1,2.9,4.5,4.6,7.5,3.9c-0.7,1.3,0.9,2.7,2.4,2.9c1.5,0.2,3.2,0.1,4.2,1.1
				c0.5,0.5,0.7,1.1,1.2,1.6c1.6,1.8,4.7,0.9,6.7,2.2c1.8,1.2,2.1,3.7,2.1,5.8c0.1,2,0.1,3.9,0.2,5.9c0.1,1.9-0.3,4.4-2.2,4.8
				c-1.5,0.3-2.8-1.1-3.9-2.2c-1.1-1.1-2.9-2.1-4.1-1.1c-0.5,2.6-3.5,4.5-6.1,3.7c-0.5-0.2-1.1-0.5-1.7-0.3
				c-0.5,0.2-0.8,0.7-1.1,1.1c-0.8,0.9-2.2,1.2-3.4,0.7c-1.5-0.7-3.5-1.4-4.3,0c-0.3,0.5-0.3,1.2-0.6,1.7c-0.3,0.6-0.9,0.9-1.4,1.4
				c-1.1,1.1-1.3,3.1-0.4,4.4c-2.6,0.4-5.3-0.3-7.3-2c-1.7-0.3-3.5,0.8-3.1,2.5c-2.5-1.6-5.2,1.9-8.1,2.2c-0.4,0-0.9,0-1.2,0.2
				c-1.1,0.5-0.9,2.2,0.1,2.9c0.9,0.7,2.2,0.6,3.3,0.6c0.2,1.4,0.4,2.8,1.1,4c0.7,1.2,2.2,2.1,3.5,1.7c0.7-0.2,1.3-0.7,1.9-1
				c3.4-1.9,7.6,0,11.4-0.7c0.1,1.2,0.3,2.5,0.4,3.7c-2.7-0.5-5.5,1.8-5.5,4.5c0,1.2,0.4,2.6-0.4,3.5c-0.6,0.6-1.5,0.7-2.3,0.7
				c-7.8,0.3-16.1,0.5-23-3.2c-4.4-2.4-8.1-6.4-13.1-7.2c-4.7-0.8-9.4,1.5-14,2.8c-4.1,1.2-8.4,1.5-12.7,1.1c0,0.6-0.1,1.2-0.5,1.7
				c-0.7,0.8-1.8,1-2.8,1.1c-6,0.9-12.1,0.7-18.1-0.6c-2.2-0.5-4.3-1.1-6.5-0.8c-2.4,0.3-4.5,1.6-6.7,2.3
				c-7.9,2.6-16.6-1.9-24.7-0.4c-4.6,0.9-9.3,3.6-13.7,2.1c-1.8-0.6-3.3-1.9-5.1-2.6c-2-0.7-4.2-0.6-6.3-0.3
				c-11.6,1.6-22.8,8.5-34.4,6.5c-4.3-0.8-8.5-2.8-12.9-2.5c-5.6,0.3-11.3,4.2-16.3,1.6c-0.9-0.5-1.6-1.1-2.5-1.5
				c-1.4-0.6-2.9-0.5-4.4-0.4c-6.7,0.4-13.3,0.7-20,1.1c-2.3,0.1-4.7,0.2-7-0.5c-1.3-0.4-2.6-1.1-3.9-1.4c-2.4-0.5-4.9,0.3-7.4,0.5
				C584.5,664.6,581.5,663.8,580.7,661.4z"/>
			<path class="st2" d="M724.9,645.7l0.1-1c5.3-1.1,10.4-3.2,15.1-6c1-0.6,2-1.3,3.2-1.5c1.2-0.2,2.4,0.1,3.6-0.1
				c3.3-0.6,4.8-4.9,8.1-5.8c1.7-0.4,3.5,0.2,5.3,0c4.8-0.8,6.5-7.8,11.3-8.6c1.1-0.2,2.3,0,3.1-0.8c0.9-0.8,0.8-2.1,1.2-3.2
				c1.3-3.9,6.9-3.3,10.8-4.8c0.7-0.3,1.3-0.6,1.9-1.1c-0.2-2.9,0.4-5.8,1.7-8.4c0.4-0.9,1-1.7,1.4-2.6c-0.1-0.7-0.2-1.3-0.3-2
				c-0.1-1.9,0.2-3.9,1.5-5.3c-0.2-1.9-0.6-3.8-0.7-5.6c-0.5-8.6,4.5-16.4,9.3-23.5c1.6-2.4,3.4-4.8,6-5.8c2.4-0.9,5-0.4,7.5-0.8
				c3.7-0.6,6.7-3.1,9.9-5c3.2-1.9,7.3-3.2,10.6-1.4c1.2,0.7,2.3,1.8,3.7,2.2c3.3,0.9,6.2-2.9,9.6-2.8c2.4,0.1,4.4,2.1,6.8,2.4
				c2.3,0.3,4.5-0.9,6.3-2.4c1.8-1.4,3.5-3.1,5.7-3.8c2.2-0.7,5-0.2,6,1.8c0.3,0.6,0.4,1.4,0.8,1.9c1.4,1.9,4.4,0.4,6.2-1.2
				c0.4,2.1,0.8,4.2,1.2,6.3c5.7-2,11.6-3.5,17.5-4.4c1.7-0.3,3.6-0.4,5.2,0.2c1.8,0.7,3.1,2.2,4.9,2.8c3.4,1.2,7.3-1.2,10.7,0.1
				c1.1,0.4,2.1,1.2,3.2,1.8c3.7,1.8,8.1,0.5,12.1,1.1c4.6,0.8,8.3,4,12.3,6.5c1.7-1.4,3.3-2.8,5.3-3.6c2.2-0.8,5-0.3,6,1.8
				c0.3,0.6,0.4,1.4,0.8,1.9c1.4,1.9,4.4,0.4,6.2-1.2c0.5,2.8,1.1,5.6,1.6,8.4c2.6,1.1,5.2,2.3,7.6,3.7c1.4-0.3,2.7-0.6,4.1-1
				c3.5-1,7-2.2,10.6-1.8c4.4,0.5,8.2,3.4,12.6,4c5.8,0.7,12.5-2.7,17.1,1l-0.4,0.6c0.9,1.5,2.9,1.9,4.7,1.6
				c1.7-0.2,3.5-0.8,5.2-0.5c2.4,0.4,4.3,2.4,5.4,4.5c1.2,2.2,1.7,4.9,1,7.3c-2.5-0.2-4.9-0.4-7.4-0.7c-0.5,0-1-0.1-1.5,0.1
				c-0.5,0.2-0.8,0.7-1.2,1.1c-1.6,1.7-4.4,2.1-6.4,0.8c-0.7-0.5-1.3-1.1-2-1.4c-0.9-0.4-2-0.3-3-0.5c-4.2-0.7-7.2-5.8-11.4-5.2
				c0,0.9-0.1,1.7-0.1,2.6c-1.5,0.1-3.1,0.1-4.6,0.2c1.1,2.9,4.5,4.6,7.5,3.9c-0.7,1.3,0.9,2.7,2.4,2.9c1.5,0.2,3.2,0.1,4.2,1.1
				c0.5,0.5,0.7,1.1,1.1,1.6c1.6,1.8,4.7,0.9,6.8,2.2c1.8,1.2,2.1,3.7,2.1,5.8c0.1,2,0.1,3.9,0.2,5.9c0.1,1.9-0.3,4.4-2.1,4.8
				c-1.5,0.3-2.8-1.1-3.9-2.2c-1.1-1.1-2.9-2.1-4.1-1.1c-0.5,2.6-3.5,4.5-6.1,3.7c-0.5-0.2-1.1-0.5-1.7-0.3
				c-0.5,0.2-0.8,0.7-1.1,1.1c-0.8,0.9-2.3,1.2-3.4,0.7c-1.5-0.7-3.5-1.3-4.3,0c-0.3,0.5-0.3,1.2-0.6,1.7c-0.3,0.6-0.9,0.9-1.4,1.4
				c-1.1,1.1-1.3,3.1-0.4,4.4c-2.6,0.4-5.3-0.3-7.3-2c-1.7-0.3-3.5,0.8-3.1,2.5c-2.5-1.6-5.2,1.9-8.1,2.2c-0.4,0-0.9,0-1.2,0.2
				c-1.1,0.5-0.9,2.2,0.1,2.9c0.9,0.7,2.2,0.6,3.3,0.6c0.2,1.4,0.3,2.8,1.1,4c0.7,1.2,2.2,2.1,3.5,1.7c0.7-0.2,1.3-0.6,1.9-1
				c3.4-1.8,7.6,0,11.4-0.7c0.1,1.2,0.3,2.5,0.4,3.7c-2.7-0.5-5.5,1.8-5.5,4.5c0,1.2,0.4,2.6-0.4,3.5c-0.6,0.6-1.5,0.7-2.3,0.7
				c-7.8,0.3-16.1,0.5-23-3.2c-4.4-2.4-8.1-6.4-13.1-7.2c-4.7-0.8-9.3,1.5-14,2.8c-4.1,1.1-8.4,1.5-12.7,1.1c0,0.6-0.1,1.2-0.6,1.7
				c-0.7,0.8-1.7,1-2.8,1.2c-6,0.9-12.1,0.6-18-0.6c-2.2-0.5-4.3-1.1-6.5-0.8c-2.4,0.3-4.5,1.6-6.7,2.4c-7.9,2.6-16.6-1.9-24.7-0.4
				c-4.6,0.9-9.3,3.6-13.7,2.1c-1.8-0.6-3.3-1.9-5.1-2.6c-2-0.7-4.2-0.6-6.2-0.3c-11.7,1.6-22.8,8.5-34.4,6.5
				c-4.3-0.7-8.5-2.8-12.9-2.5c-5.6,0.3-11.3,4.2-16.3,1.6c-0.9-0.5-1.6-1.1-2.5-1.5c-1.4-0.6-2.9-0.5-4.4-0.4
				c-6.7,0.4-13.3,0.7-20,1.1c-2.3,0.1-4.7,0.2-7-0.4c-1.3-0.4-2.6-1.1-3.9-1.4c-2.4-0.5-4.9,0.3-7.4,0.5
				C728.7,648.9,725.8,648.1,724.9,645.7z"/>
		</g>
	</g>
</g>
</svg>
